<?xml version="1.0" encoding="utf-8"?>
<!-- Generator: Adobe Illustrator 21.0.2, SVG Export Plug-In . SVG Version: 6.00 Build 0)  -->
<svg version="1.1" id="ListBullets" xmlns="http://www.w3.org/2000/svg" xmlns:xlink="http://www.w3.org/1999/xlink" x="0px"
	 y="0px" viewBox="0 0 32 32" style="enable-background:new 0 0 32 32;" xml:space="preserve">
<style type="text/css">
	.Black{fill:#727272;}
	.Blue{fill:#1177D7;}
</style>
<path class="Black" d="M30,8H12V6h18V8z M30,16H12v-2h18V16z M30,24H12v-2h18V24z"/>
<path class="Blue" d="M8,7c0,1.7-1.3,3-3,3S2,8.7,2,7s1.3-3,3-3S8,5.3,8,7z M5,12c-1.7,0-3,1.3-3,3s1.3,3,3,3s3-1.3,3-3S6.7,12,5,12
	z M5,20c-1.7,0-3,1.3-3,3s1.3,3,3,3s3-1.3,3-3S6.7,20,5,20z"/>
</svg>
