<?xml version="1.0" encoding="utf-8"?>
<!-- Generator: Adobe Illustrator 20.1.0, SVG Export Plug-In . SVG Version: 6.00 Build 0)  -->
<svg version="1.1" id="Слой_1" xmlns="http://www.w3.org/2000/svg" xmlns:xlink="http://www.w3.org/1999/xlink" x="0px" y="0px"
	 viewBox="0 0 32 32" style="enable-background:new 0 0 32 32;" xml:space="preserve">
<style type="text/css">
	.Blue{fill:#1177D7;}
	.White{fill:#FFFFFF;}
	.Black{fill:#727272;}
	.Red{fill:#D11C1C;}
	.st0{opacity:0.6;}
</style>
<polygon class="Black" points="24,10 24,6 20,6 20,2 2,2 2,24 6,24 6,28 10,28 10,32 28,32 28,10 "/>
<polygon class="White" points="26,18 26,12 24,12 24,18 22,18 22,16 22,8 20,8 20,16 18,16 18,4 4,4 4,22 18,22 18,24 8,24 8,26 
	18,26 18,28 12,28 12,30 18,30 18,32 28,32 28,18 "/>
<path class="Blue" d="M11,6c-2.8,0-5,2.2-5,5s2.2,5,5,5s5-2.2,5-5h-5V6z M13,6v3h3L13,6z"/>
<path class="Red" d="M22,28c-1.1,0-2,0.9-2,2s0.9,2,2,2s2-0.9,2-2S23.1,28,22,28z M28,28c-1.1,0-2,0.9-2,2s0.9,2,2,2s2-0.9,2-2
	S29.1,28,28,28z"/>
<polygon class="Red" points="22,20 19,17 18,18 20,20 20,26 28,26 32,20 "/>
<g id="Слой_2" class="st0">
	<rect x="6" y="18" class="Black" width="10" height="2"/>
</g>
</svg>
