<?xml version="1.0" encoding="utf-8"?>
<!-- Generator: Adobe Illustrator 21.0.2, SVG Export Plug-In . SVG Version: 6.00 Build 0)  -->
<svg version="1.1" id="Open" xmlns="http://www.w3.org/2000/svg" xmlns:xlink="http://www.w3.org/1999/xlink" x="0px" y="0px"
	 viewBox="0 0 32 32" style="enable-background:new 0 0 32 32;" xml:space="preserve">
<style type="text/css">
	.Yellow{fill:#FFB115;}
	.st0{opacity:0.75;}
</style>
<g class="st0">
	<path class="Yellow" d="M2.2,25.2l5.5-12c0.3-0.7,1-1.2,1.8-1.2H26V9c0-0.6-0.4-1-1-1H12V5c0-0.6-0.4-1-1-1H3C2.4,4,2,4.4,2,5v20
		c0,0.2,0,0.3,0.1,0.4C2.1,25.3,2.2,25.3,2.2,25.2z"/>
</g>
<path class="Yellow" d="M31.3,14H9.6L4,26h21.8c0.5,0,1.1-0.3,1.3-0.7L32,14.7C32.1,14.3,31.8,14,31.3,14z"/>
</svg>
