<?xml version="1.0" encoding="utf-8"?>
<!-- Generator: Adobe Illustrator 19.1.0, SVG Export Plug-In . SVG Version: 6.00 Build 0)  -->
<svg version="1.1" id="Layer_1" xmlns="http://www.w3.org/2000/svg" xmlns:xlink="http://www.w3.org/1999/xlink" x="0px" y="0px"
	 viewBox="0 0 32 32" enable-background="new 0 0 32 32" xml:space="preserve">
<g id="Layer_2">
</g>
<path opacity="0.6" d="M30,14h-8.9c-0.9-0.3-1.9-0.6-2.8-0.8c-4.4-1-8.8-1.6-8.8-5.1c0-3.7,3.1-4.9,6.1-4.9c3.8,0,6.4,0.8,6.8,4.9
	h3.4C25.6,1.8,21.4,0,15.8,0c-5,0-9.9,2.6-9.9,8.4c0,2.8,1.3,4.5,3.1,5.6H2v2h12.8c4.3,1,8.6,1.7,8.6,5.6c0,4.1-3.6,5.2-6.9,5.2
	c-4.1,0-8-1.1-8-5.9H5c0,7,5.2,9.1,11.3,9.1c5,0,10.7-2.4,10.7-8.5c0-2.5-0.9-4.2-2.3-5.5H30V14z"/>
</svg>
