<?xml version="1.0" encoding="utf-8"?>
<!-- Generator: Adobe Illustrator 19.1.0, SVG Export Plug-In . SVG Version: 6.00 Build 0)  -->
<svg version="1.1" id="Layer_1" xmlns="http://www.w3.org/2000/svg" xmlns:xlink="http://www.w3.org/1999/xlink" x="0px" y="0px"
	 viewBox="0 0 32 32" enable-background="new 0 0 32 32" xml:space="preserve">
<g opacity="0.6">
	<path d="M6,28H3v-4h3V4H3V0h3h9.4c2.8,0,5.2,0.6,6.8,1.8c1.6,1.2,2.6,2.8,2.6,4.6c0,1.6-0.4,3-1.4,4.2s-2.2,2-4,2.4l0,0
		c2,0.2,3.6,1,4.8,2.2S26,18,26,19.8c0,2.4-0.6,8.2-10.4,8.2H6z M11,4v7.8h3.2c1.8,0,3-0.4,4-1.2s1.4-1.8,1.4-3.2
		C19.6,5,17.4,4,14,4H11z M11,15.4V24h4c1.8,0,3.4-0.2,4.4-1s1.4-2,1.4-3.4c0-3-2.2-4.4-6.4-4.4H11V15.4z"/>
</g>
</svg>
