<?xml version="1.0" encoding="utf-8"?>
<!-- Generator: Adobe Illustrator 21.0.2, SVG Export Plug-In . SVG Version: 6.00 Build 0)  -->
<svg version="1.1" id="_x31_00_x25_" xmlns="http://www.w3.org/2000/svg" xmlns:xlink="http://www.w3.org/1999/xlink" x="0px"
	 y="0px" viewBox="0 0 32 32" style="enable-background:new 0 0 32 32;" xml:space="preserve">
<style type="text/css">
	.Black{fill:#727272;}
	.Blue{fill:#1177D7;}
</style>
<path class="Black" d="M29.7,23.3L22.5,16c1-1.4,1.5-3.2,1.5-5c0-5-4-9-9-9s-9,4-9,9s4,9,9,9c1.9,0,3.6-0.6,5-1.5l7.3,7.3
	c0.3,0.3,0.9,0.3,1.2,0l1.2-1.2C30.1,24.2,30.1,23.6,29.7,23.3z M8,11c0-3.9,3.1-7,7-7s7,3.1,7,7s-3.1,7-7,7S8,14.9,8,11z"/>
<path class="Blue" d="M16,30c-2,0-3-1.3-3-3.9c0-1.3,0.3-2.4,0.8-3.1c0.5-0.7,1.3-1.1,2.3-1.1c1.9,0,2.9,1.3,2.9,3.9
	c0,1.3-0.3,2.3-0.8,3C17.7,29.7,16.9,30,16,30z M16,23.3c-0.8,0-1.2,0.9-1.2,2.8c0,1.7,0.4,2.6,1.2,2.6c0.8,0,1.1-0.9,1.1-2.7
	C17.1,24.2,16.8,23.3,16,23.3z M9,30c-2,0-3-1.3-3-3.9c0-1.3,0.3-2.4,0.8-3.1C7.3,22.4,8.1,22,9.1,22c1.9,0,2.9,1.3,2.9,3.9
	c0,1.3-0.3,2.3-0.8,3C10.7,29.7,9.9,30,9,30z M9,23.3c-0.8,0-1.2,0.9-1.2,2.8c0,1.7,0.4,2.6,1.2,2.6c0.8,0,1.1-0.9,1.1-2.7
	C10.1,24.2,9.8,23.3,9,23.3z M2,30v-5.2H0v-1.2c0.3,0,0.6,0,0.8-0.1c0.3,0,0.5-0.1,0.7-0.3c0.2-0.1,0.4-0.3,0.5-0.5
	c0.1-0.2,0.2-0.5,0.3-0.8h1.3v8H2z"/>
</svg>
