<?xml version="1.0" encoding="utf-8"?>
<!-- Generator: Adobe Illustrator 21.0.2, SVG Export Plug-In . SVG Version: 6.00 Build 0)  -->
<svg version="1.1" id="_x33_Signs" xmlns="http://www.w3.org/2000/svg" xmlns:xlink="http://www.w3.org/1999/xlink" x="0px" y="0px"
	 viewBox="0 0 32 32" style="enable-background:new 0 0 32 32;" xml:space="preserve">
<style type="text/css">
	.Yellow{fill:#FFB115;}
	.Red{fill:#D11C1C;}
	.Green{fill:#039C23;}
</style>
<circle class="Green" cx="9" cy="9" r="7"/>
<path class="Yellow" d="M24.5,2.4c0.3-0.6,0.8-0.6,1.1,0l6.3,12.5c0.3,0.6,0.1,1.1-0.5,1.1H18.7c-0.6,0-0.8-0.5-0.5-1.1L24.5,2.4z"
	/>
<path class="Red" d="M2.4,25.9c-0.5-0.5-0.5-1.3,0-1.8l5.7-5.7c0.5-0.5,1.3-0.5,1.8,0l5.7,5.7c0.5,0.5,0.5,1.3,0,1.8l-5.7,5.7
	c-0.5,0.5-1.3,0.5-1.8,0L2.4,25.9z"/>
</svg>
