<?xml version="1.0" encoding="utf-8"?>
<!-- Generator: Adobe Illustrator 21.0.2, SVG Export Plug-In . SVG Version: 6.00 Build 0)  -->
<svg version="1.1" id="_x33__Stars" xmlns="http://www.w3.org/2000/svg" xmlns:xlink="http://www.w3.org/1999/xlink" x="0px"
	 y="0px" viewBox="0 0 32 32" style="enable-background:new 0 0 32 32;" xml:space="preserve">
<style type="text/css">
	.Yellow{fill:#FFB115;}
	.Black{fill:#727272;}
	.st0{opacity:0.5;}
</style>
<g class="st0">
	<path class="Black" d="M8,26l-3.9,2l0.7-4.3l-3.2-3.1L6.1,20L8,16l1.9,4l4.4,0.6l-3.2,3.1l0.7,4.3L8,26z M28.3,6.6L23.9,6L22,2v10
		l3.9,2l-0.7-4.3L28.3,6.6z"/>
</g>
<path class="Yellow" d="M8,12l-3.9,2l0.7-4.3L1.7,6.6L6.1,6L8,2l1.9,4l4.4,0.6l-3.2,3.1l0.7,4.3L8,12z M22,12V2l-1.9,4l-4.4,0.6
	l3.2,3.1L18.1,14L22,12z"/>
</svg>
