<?xml version="1.0" encoding="utf-8"?>
<!-- Generator: Adobe Illustrator 21.0.2, SVG Export Plug-In . SVG Version: 6.00 Build 0)  -->
<svg version="1.1" id="_x33__Symbols_Circled" xmlns="http://www.w3.org/2000/svg" xmlns:xlink="http://www.w3.org/1999/xlink"
	 x="0px" y="0px" viewBox="0 0 32 32" style="enable-background:new 0 0 32 32;" xml:space="preserve">
<style type="text/css">
	.Red{fill:#D11C1C;}
	.Green{fill:#039C23;}
	.Yellow{fill:#FFB115;}
</style>
<path class="Yellow" d="M25,2c-3.9,0-7,3.1-7,7s3.1,7,7,7s7-3.1,7-7S28.9,2,25,2z M26,14h-2v-2h2V14z M26,10h-2V4h2V10z"/>
<path class="Red" d="M9,18c-3.9,0-7,3.1-7,7s3.1,7,7,7c3.9,0,7-3.1,7-7S12.9,18,9,18z M12.4,27L11,28.4l-2-2l-2,2L5.6,27l2-2l-2-2
	L7,21.6l2,2l2-2l1.4,1.4l-2,2L12.4,27z"/>
<path class="Green" d="M9,2C5.1,2,2,5.1,2,9s3.1,7,7,7c3.9,0,7-3.1,7-7S12.9,2,9,2z M8,12L5.1,9.1l1.4-1.4L8,9.2l3.6-3.6L13,7L8,12z
	"/>
</svg>
