<?xml version="1.0" encoding="utf-8"?>
<!-- Generator: Adobe Illustrator 21.0.2, SVG Export Plug-In . SVG Version: 6.00 Build 0)  -->
<svg version="1.1" id="_x33__Traffic_Lights_Rimmed"
	 xmlns="http://www.w3.org/2000/svg" xmlns:xlink="http://www.w3.org/1999/xlink" x="0px" y="0px" viewBox="0 0 32 32"
	 style="enable-background:new 0 0 32 32;" xml:space="preserve">
<style type="text/css">
	.Yellow{fill:#FFB115;}
	.Red{fill:#D11C1C;}
	.Green{fill:#039C23;}
	.Black{fill:#727272;}
</style>
<circle class="Green" cx="9" cy="9" r="3"/>
<circle class="Yellow" cx="25" cy="9" r="3"/>
<circle class="Red" cx="9" cy="25" r="3"/>
<path class="Black" d="M15,2H3C2.4,2,2,2.4,2,3v12c0,0.6,0.4,1,1,1h12c0.6,0,1-0.4,1-1V3C16,2.4,15.6,2,15,2z M9,14
	c-2.8,0-5-2.2-5-5s2.2-5,5-5s5,2.2,5,5S11.8,14,9,14z M31,2H19c-0.5,0-1,0.5-1,1v12c0,0.5,0.5,1,1,1h12c0.5,0,1-0.5,1-1V3
	C32,2.5,31.5,2,31,2z M25,14c-2.8,0-5-2.2-5-5s2.2-5,5-5s5,2.2,5,5S27.8,14,25,14z M15,18H3c-0.5,0-1,0.5-1,1v12c0,0.5,0.5,1,1,1h12
	c0.5,0,1-0.5,1-1V19C16,18.5,15.5,18,15,18z M9,30c-2.8,0-5-2.2-5-5s2.2-5,5-5s5,2.2,5,5S11.8,30,9,30z"/>
</svg>
