<?xml version="1.0" encoding="utf-8"?>
<!-- Generator: Adobe Illustrator 21.0.2, SVG Export Plug-In . SVG Version: 6.00 Build 0)  -->
<svg version="1.1" id="_x34__Ratings" xmlns="http://www.w3.org/2000/svg" xmlns:xlink="http://www.w3.org/1999/xlink" x="0px"
	 y="0px" viewBox="0 0 32 32" style="enable-background:new 0 0 32 32;" xml:space="preserve">
<style type="text/css">
	.Black{fill:#727272;}
	.Blue{fill:#1177D7;}
	.st0{opacity:0.5;}
</style>
<path class="Blue" d="M2,14H0V8h2V14z M2,24H0v6h2V24z M6,22H4v8h2V22z M10,20H8v10h2V20z M20,24h-2v6h2V24z M24,22h-2v8h2V22z
	 M28,20h-2v10h2V20z M32,18h-2v12h2V18z M20,8h-2v6h2V8z M24,6h-2v8h2V6z"/>
<g class="st0">
	<path class="Black" d="M6,14H4V6h2V14z M10,4H8v10h2V4z M14,2h-2v12h2V2z M14,18h-2v12h2V18z M28,4h-2v10h2V4z M32,2h-2v12h2V2z"/>
</g>
</svg>
