<?xml version="1.0" encoding="utf-8"?>
<!-- Generator: Adobe Illustrator 21.0.2, SVG Export Plug-In . SVG Version: 6.00 Build 0)  -->
<svg version="1.1" id="_x35__Boxes" xmlns="http://www.w3.org/2000/svg" xmlns:xlink="http://www.w3.org/1999/xlink" x="0px"
	 y="0px" viewBox="0 0 32 32" style="enable-background:new 0 0 32 32;" xml:space="preserve">
<style type="text/css">
	.Black{fill:#727272;}
	.Blue{fill:#1177D7;}
	.st0{opacity:0.5;}
</style>
<path class="Blue" d="M6,6H0V0h6V6z M6,8H0v6h6V8z M14,8H8v6h6V8z M6,26H0v6h6V26z M24,8h-6v6h6V8z M32,8h-6v6h6V8z"/>
<g class="st0">
	<path class="Black" d="M14,6H8V0h6V6z M6,18H0v6h6V18z M14,18H8v6h6V18z M14,26H8v6h6V26z M24,0h-6v6h6V0z M32,0h-6v6h6V0z M24,18
		h-6v6h6V18z M32,18h-6v6h6V18z M24,26h-6v6h6V26z M32,26h-6v6h6V26z"/>
</g>
</svg>
