<?xml version="1.0" encoding="utf-8"?>
<!-- Generator: Adobe Illustrator 21.0.2, SVG Export Plug-In . SVG Version: 6.00 Build 0)  -->
<svg version="1.1" id="Above_Average" xmlns="http://www.w3.org/2000/svg" xmlns:xlink="http://www.w3.org/1999/xlink" x="0px"
	 y="0px" viewBox="0 0 32 32" style="enable-background:new 0 0 32 32;" xml:space="preserve">
<style type="text/css">
	.Black{fill:#727272;}
	.Green{fill:#039C23;}
</style>
<path class="Green" d="M31,2H1C0.5,2,0,2.5,0,3v26c0,0.5,0.5,1,1,1h30c0.5,0,1-0.5,1-1V3C32,2.5,31.5,2,31,2z M8,14v10H6V14H3l4-6
	l4,6H8z M30,28H14V4h16V28z"/>
<path class="Black" d="M26,22h-2.3c0,0-1.6-2.7-1.7-2.9c-0.1,0.1-1.7,2.9-1.7,2.9H18l2.8-3.9L18.1,14h2.3c0,0,1.5,2.9,1.6,3l1.7-3
	H26l-2.7,4L26,22z M26,10h-8v2h8V10z"/>
</svg>
