<?xml version="1.0" encoding="utf-8"?>
<!-- Generator: Adobe Illustrator 21.0.2, SVG Export Plug-In . SVG Version: 6.00 Build 0)  -->
<svg version="1.1" id="Allow_Users_to_Edit_Ranges" xmlns="http://www.w3.org/2000/svg" xmlns:xlink="http://www.w3.org/1999/xlink"
	 x="0px" y="0px" viewBox="0 0 32 32" style="enable-background:new 0 0 32 32;" xml:space="preserve">
<style type="text/css">
	.Black{fill:#727272;}
	.Blue{fill:#1177D7;}
	.st0{opacity:0.5;}
</style>
<path class="Blue" d="M18,4v6h-8V4H18z M8,10V4H0v6H8z M8,18v-6H0v6H8z M18,18v-6h-8v6H18z"/>
<g class="st0">
	<path class="Black" d="M20,4h8v6h-8V4z M8,26v-6H0v6H8z M18,22.9V20h-8v6h4.5C15.3,24.1,16.8,23.4,18,22.9z"/>
</g>
<path class="Black" d="M20.3,18.4c-0.2-0.3-0.3-0.6-0.3-1c0-0.2,0.2-0.2,0.3-0.2c-0.7-2.5,0-5,2.9-5.2c3-0.2,3.7,2,3.7,2
	s1.6-0.1,0.7,3.2c0.1,0,0.3-0.1,0.4,0.2c0.1,0.4,0,0.6-0.2,1c-0.2,0.3,0.1,1.1-0.6,1.1c0,0,0,0.1,0,0.1C26.8,21.2,25.8,23,24,23
	c-1.8,0-2.8-1.7-3.2-3.4c0,0,0-0.1,0-0.1C20.2,19.6,20.4,18.8,20.3,18.4z M26.7,23.2c-0.5,1-1.4,2.8-2.7,2.8c-1.3,0-2.1-1.8-2.6-2.9
	C19.9,25.6,16,23.8,16,29v1h16v-1C32,23.9,28.2,25.5,26.7,23.2z"/>
</svg>
