<?xml version="1.0" encoding="utf-8"?>
<!-- Generator: Adobe Illustrator 21.0.2, SVG Export Plug-In . SVG Version: 6.00 Build 0)  -->
<svg version="1.1" id="Below_Average" xmlns="http://www.w3.org/2000/svg" xmlns:xlink="http://www.w3.org/1999/xlink" x="0px"
	 y="0px" viewBox="0 0 32 32" style="enable-background:new 0 0 32 32;" xml:space="preserve">
<style type="text/css">
	.Black{fill:#727272;}
	.Blue{fill:#1177D7;}
</style>
<path class="Black" d="M26,22h-2.3c0,0-1.6-2.7-1.7-2.9c-0.1,0.1-1.7,2.9-1.7,2.9H18l2.8-3.9L18.1,14h2.3c0,0,1.5,2.9,1.6,3l1.7-3
	H26l-2.7,4L26,22z M26,10h-8v2h8V10z"/>
<path class="Blue" d="M31,30H1c-0.5,0-1-0.5-1-1V3c0-0.5,0.5-1,1-1h30c0.5,0,1,0.5,1,1v26C32,29.5,31.5,30,31,30z M8,18V8H6v10H3
	l4,6l4-6H8z M30,4H14v24h16V4z"/>
</svg>
