<?xml version="1.0" encoding="utf-8"?>
<!-- Generator: Adobe Illustrator 21.0.2, SVG Export Plug-In . SVG Version: 6.00 Build 0)  -->
<svg version="1.1" id="Between" xmlns="http://www.w3.org/2000/svg" xmlns:xlink="http://www.w3.org/1999/xlink" x="0px" y="0px"
	 viewBox="0 0 32 32" style="enable-background:new 0 0 32 32;" xml:space="preserve">
<style type="text/css">
	.Black{fill:#727272;}
	.Blue{fill:#1177D7;}
</style>
<path class="Black" d="M29,2H1C0.4,2,0,2.4,0,3v24c0,0.6,0.4,1,1,1h28c0.6,0,1-0.4,1-1V3C30,2.4,29.6,2,29,2z M28,26H2V4h26V26z"/>
<path class="Blue" d="M8,22H6V8h2h2v2H8v10h2v2H8z M24,22V8h-2h-2v2h2v10h-2v2h2H24z"/>
</svg>
