<?xml version="1.0" encoding="utf-8"?>
<!-- Generator: Adobe Illustrator 21.0.2, SVG Export Plug-In . SVG Version: 6.00 Build 0)  -->
<svg version="1.1" id="Blue_Data_Bar_Gradient" xmlns="http://www.w3.org/2000/svg" xmlns:xlink="http://www.w3.org/1999/xlink"
	 x="0px" y="0px" viewBox="0 0 32 32" style="enable-background:new 0 0 32 32;" xml:space="preserve">
<style type="text/css">
	.Black{fill:#727272;}
	.Blue{fill:#1177D7;}
	.st0{opacity:0.75;}
	.st1{opacity:0.25;}
	.st2{opacity:0.84;}
	.st3{opacity:0.67;}
	.st4{opacity:0.5;}
	.st5{opacity:0.34;}
	.st6{opacity:0.17;}
</style>
<path class="Black" d="M31,0H1C0.4,0,0,0.4,0,1v30c0,0.6,0.4,1,1,1h30c0.6,0,1-0.4,1-1V1C32,0.4,31.6,0,31,0z M30,30H2v-8h28V30z
	 M30,20H2v-8h28V20z M30,10H2V2h28V10z"/>
<g class="st0">
	<rect x="8" y="14" class="Blue" width="4" height="4"/>
</g>
<g class="st1">
	<rect x="16" y="14" class="Blue" width="4" height="4"/>
</g>
<path class="Blue" d="M8,8H4V4h4V8z M8,14H4v4h4V14z M8,24H4v4h4V24z"/>
<g class="st2">
	<rect x="8" y="24" class="Blue" width="4" height="4"/>
</g>
<g class="st3">
	<rect x="12" y="24" class="Blue" width="4" height="4"/>
</g>
<g class="st4">
	<path class="Blue" d="M12,8H8V4h4V8z M16,14h-4v4h4V14z M20,24h-4v4h4V24z"/>
</g>
<g class="st5">
	<rect x="20" y="24" class="Blue" width="4" height="4"/>
</g>
<g class="st6">
	<rect x="24" y="24" class="Blue" width="4" height="4"/>
</g>
</svg>
