<?xml version="1.0" encoding="utf-8"?>
<!-- Generator: Adobe Illustrator 21.0.2, SVG Export Plug-In . SVG Version: 6.00 Build 0)  -->
<svg version="1.1" id="Bottom_10_Items" xmlns="http://www.w3.org/2000/svg" xmlns:xlink="http://www.w3.org/1999/xlink" x="0px"
	 y="0px" viewBox="0 0 32 32" style="enable-background:new 0 0 32 32;" xml:space="preserve">
<style type="text/css">
	.Black{fill:#727272;}
	.Blue{fill:#1177D7;}
</style>
<path class="Blue" d="M31,30H1c-0.5,0-1-0.5-1-1V3c0-0.5,0.5-1,1-1h30c0.5,0,1,0.5,1,1v26C32,29.5,31.5,30,31,30z M8,18V8H6v10H3
	l4,6l4-6H8z M30,4H14v24h16V4z"/>
<path class="Black" d="M24.6,20c-2,0-3-1.3-3-3.9c0-1.3,0.3-2.4,0.8-3.1c0.5-0.7,1.3-1.1,2.3-1.1c1.9,0,2.9,1.3,2.9,3.9
	c0,1.3-0.3,2.3-0.8,3C26.3,19.7,25.6,20,24.6,20z M24.7,13.3c-0.8,0-1.2,0.9-1.2,2.8c0,1.7,0.4,2.6,1.2,2.6c0.8,0,1.1-0.9,1.1-2.7
	C25.8,14.2,25.4,13.3,24.7,13.3z M18,20v-5.2h-2v-1.2c0.3,0,0.6,0,0.8-0.1c0.3,0,0.5-0.1,0.7-0.3c0.2-0.1,0.4-0.3,0.5-0.5
	c0.1-0.2,0.2-0.5,0.3-0.8h1.3v8H18z"/>
</svg>
