<?xml version="1.0" encoding="utf-8"?>
<!-- Generator: Adobe Illustrator 21.0.2, SVG Export Plug-In . SVG Version: 6.00 Build 0)  -->
<svg version="1.1" id="Bring_to_Front" xmlns="http://www.w3.org/2000/svg" xmlns:xlink="http://www.w3.org/1999/xlink" x="0px"
	 y="0px" viewBox="0 0 32 32" style="enable-background:new 0 0 32 32;" xml:space="preserve">
<style type="text/css">
	.Black{fill:#727272;}
	.Yellow{fill:#FFB115;}
</style>
<path class="Yellow" d="M26,25c0,0.6-0.4,1-1,1H7c-0.6,0-1-0.4-1-1V7c0-0.6,0.4-1,1-1h18c0.6,0,1,0.4,1,1V25z"/>
<path class="Black" d="M32,19v12c0,0.6-0.4,1-1,1H19c-0.6,0-1-0.4-1-1v-3h2v2h10V20h-2v-2h3C31.6,18,32,18.4,32,19z M1,14h3v-2H2V2
	h10v2h2V1c0-0.6-0.4-1-1-1H1C0.4,0,0,0.4,0,1v12C0,13.6,0.4,14,1,14z"/>
</svg>
