<?xml version="1.0" encoding="utf-8"?>
<!-- Generator: Adobe Illustrator 21.0.2, SVG Export Plug-In . SVG Version: 6.00 Build 0)  -->
<svg version="1.1" id="Bring_Forward" xmlns="http://www.w3.org/2000/svg" xmlns:xlink="http://www.w3.org/1999/xlink" x="0px"
	 y="0px" viewBox="0 0 32 32" style="enable-background:new 0 0 32 32;" xml:space="preserve">
<style type="text/css">
	.Black{fill:#727272;}
	.Yellow{fill:#FFB115;}
</style>
<path class="Yellow" d="M22,21c0,0.6-0.4,1-1,1H3c-0.6,0-1-0.4-1-1V3c0-0.6,0.4-1,1-1h18c0.6,0,1,0.4,1,1V21z"/>
<path class="Black" d="M29,14h-5v2h4v12H16v-4h-2v5c0,0.6,0.4,1,1,1h14c0.6,0,1-0.4,1-1V15C30,14.4,29.6,14,29,14z"/>
</svg>
