<?xml version="1.0" encoding="utf-8"?>
<!-- Generator: Adobe Illustrator 21.0.2, SVG Export Plug-In . SVG Version: 6.00 Build 0)  -->
<svg version="1.1" id="Calculation_Options" xmlns="http://www.w3.org/2000/svg" xmlns:xlink="http://www.w3.org/1999/xlink"
	 x="0px" y="0px" viewBox="0 0 32 32" style="enable-background:new 0 0 32 32;" xml:space="preserve">
<style type="text/css">
	.Black{fill:#727272;}
	.Blue{fill:#1177D7;}
	.Yellow{fill:#FFB115;}
</style>
<rect x="18" y="12" class="Yellow" width="4" height="4"/>
<path class="Black" d="M10,16H6v-4h4V16z M16,12h-4v4h4V12z M10,18H6v4h4V18z M16,18h-4v4h4V18z M14,25v-1H4V2h20v12h1h1V1
	c0-0.6-0.4-1-1-1H3C2.4,0,2,0.4,2,1v24c0,0.6,0.4,1,1,1h11V25z"/>
<path class="Blue" d="M22,4H6v6h16V4z M29.8,25.4L32,25v-2l-2.2-0.4c-0.2-0.6-0.4-1.3-0.8-1.8l1.3-1.8l-1.4-1.4l-1.8,1.3
	c-0.5-0.3-1.2-0.6-1.8-0.8L25,16h-2l-0.4,2.2c-0.6,0.2-1.3,0.4-1.8,0.8l-1.8-1.3l-1.4,1.4l1.3,1.8c-0.3,0.5-0.6,1.2-0.8,1.8L16,23v2
	l2.2,0.4c0.2,0.6,0.4,1.3,0.8,1.8l-1.3,1.8l1.4,1.4l1.8-1.3c0.5,0.3,1.2,0.6,1.8,0.8L23,32h2l0.4-2.2c0.6-0.2,1.3-0.4,1.8-0.8
	l1.8,1.3l1.4-1.4l-1.3-1.8C29.6,26.3,29.4,27.3,29.8,25.4z M26,24.4c-0.2,0.8-0.8,1.4-1.6,1.6c-0.1,0-0.3,0-0.4,0s-0.3,0-0.4,0
	c-0.8-0.2-1.4-0.8-1.6-1.6c0-0.1,0-0.3,0-0.4s0-0.3,0-0.4c0.2-0.8,0.8-1.4,1.6-1.6c0.1,0,0.3,0,0.4,0s0.3,0,0.4,0
	c0.8,0.2,1.4,0.8,1.6,1.6c0,0.1,0,0.3,0,0.4S26,24.3,26,24.4z"/>
</svg>
