<?xml version="1.0" encoding="utf-8"?>
<!-- Generator: Adobe Illustrator 21.0.2, SVG Export Plug-In . SVG Version: 6.00 Build 0)  -->
<svg version="1.1" id="Change_Data_Source" xmlns="http://www.w3.org/2000/svg" xmlns:xlink="http://www.w3.org/1999/xlink" x="0px"
	 y="0px" viewBox="0 0 32 32" style="enable-background:new 0 0 32 32;" xml:space="preserve">
<style type="text/css">
	.Blue{fill:#1177D7;}
	.Black{fill:#727272;}
	.Yellow{fill:#FFB115;}
	.st0{opacity:0.5;}
</style>
<path class="Yellow" d="M0,8V4c0-2.2,4.5-4,10-4s10,1.8,10,4v4H8v3.9C3.4,11.5,0,9.9,0,8z M8,19.9c-4.6-0.4-8-2-8-3.9v4
	c0,1.9,3.4,3.5,8,3.9V19.9z M8,17.9v-4c-4.6-0.4-8-2-8-3.9v4C0,15.9,3.4,17.5,8,17.9z"/>
<path class="Black" d="M31,6H7C6.5,6,6,6.5,6,7v24c0,0.5,0.5,1,1,1h24c0.5,0,1-0.5,1-1V7C32,6.5,31.5,6,31,6z M30,30H8V8h22V30z"/>
<g class="st0">
	<path class="Blue" d="M16,14v-4h12v4H16z M14,10h-4v4h4V10z M14,16h-4v12h4V16z"/>
</g>
<path class="Blue" d="M25,16l-4,4h3c0,2.2-1.8,4-4,4v-3l-4,4l4,4v-3c3.3,0,6-2.7,6-6h3L25,16z"/>
</svg>
