<?xml version="1.0" encoding="utf-8"?>
<!-- Generator: Adobe Illustrator 21.0.2, SVG Export Plug-In . SVG Version: 6.00 Build 0)  -->
<svg version="1.1" id="Legend_None" xmlns="http://www.w3.org/2000/svg" xmlns:xlink="http://www.w3.org/1999/xlink" x="0px"
	 y="0px" viewBox="0 0 32 32" style="enable-background:new 0 0 32 32;" xml:space="preserve">
<style type="text/css">
	.Black{fill:#727272;}
	.Yellow{fill:#FFB115;}
	.Blue{fill:#1177D7;}
	.Red{fill:#D11C1C;}
	.st0{opacity:0.5;}
</style>
<g class="st0">
	<polygon class="Black" points="2,28 2,10 0,10 0,30 30,30 30,28 	"/>
	<g class="st0">
		<polygon class="Black" points="28,10 2,10 2,12 28,12 28,28 30,28 30,12 30,10 		"/>
	</g>
	<rect x="4" y="2" class="Red" width="6" height="6"/>
	<rect x="12" y="2" class="Blue" width="6" height="6"/>
	<rect x="20" y="2" class="Yellow" width="6" height="6"/>
</g>
<polygon class="Red" points="20,16 18,14 14,18 10,14 8,16 12,20 8,24 10,26 14,22 18,26 20,24 16,20 "/>
</svg>
