<?xml version="1.0" encoding="utf-8"?>
<!-- Generator: Adobe Illustrator 21.0.2, SVG Export Plug-In . SVG Version: 6.00 Build 0)  -->
<svg version="1.1" id="Vertical_Axis_Thousands" xmlns="http://www.w3.org/2000/svg" xmlns:xlink="http://www.w3.org/1999/xlink"
	 x="0px" y="0px" viewBox="0 0 32 32" style="enable-background:new 0 0 32 32;" xml:space="preserve">
<style type="text/css">
	.Blue{fill:#1177D7;}
	.Black{fill:#727272;}
	.st0{opacity:0.5;}
</style>
<g class="st0">
	<rect x="4" y="26" class="Black" width="26" height="2"/>
</g>
<polygon class="Black" points="4,2 4,4 2,4 2,6 4,6 4,8 2,8 2,10 4,10 4,12 2,12 2,14 4,14 4,16 2,16 2,18 4,18 4,20 2,20 2,22 
	4,22 4,24 2,24 2,26 4,26 4,28 6,28 6,2 "/>
<path class="Blue" d="M12,16V9.4h-2V8c0.3,0,0.3,0,0.6-0.1c0.3-0.1,0.6-0.2,0.9-0.3c0.3-0.2,0.5-0.4,0.6-0.6s0.3-0.6,0.3-1H14v10H12
	z M16.3,8.6C16.5,8,16.7,7.5,17,7.1c0.3-0.4,0.7-0.7,1.1-0.8C18.6,6.1,19,6,19.5,6c0.5,0,0.9,0.1,1.4,0.2c0.4,0.2,0.8,0.4,1.1,0.8
	c0.3,0.4,0.6,0.9,0.8,1.5C23,9.2,23.1,10,23.1,11c0,1-0.1,1.8-0.3,2.4c-0.2,0.6-0.4,1.2-0.8,1.5c-0.3,0.4-0.7,0.7-1.1,0.8
	C20.5,15.9,20,16,19.5,16c-0.5,0-0.9-0.1-1.4-0.2c-0.4-0.2-0.8-0.4-1.1-0.8c-0.3-0.4-0.6-0.9-0.8-1.5C16.1,12.7,16,11.9,16,11
	C16,10,16.1,9.2,16.3,8.6z M18,12c0,0.4,0.1,0.8,0.2,1.1c0.1,0.4,0.2,0.7,0.5,0.9c0.2,0.3,0.5,0.4,0.9,0.4c0.4,0,0.7-0.1,0.9-0.4
	c0.2-0.3,0.4-0.6,0.5-0.9c0.1-0.4,0.2-0.7,0.2-1.1c0-0.4,0-0.7,0-1c0-0.2,0-0.4,0-0.6c0-0.2,0-0.5-0.1-0.7c0-0.2-0.1-0.5-0.1-0.7
	c-0.1-0.2-0.1-0.5-0.3-0.7s-0.3-0.3-0.5-0.5c-0.2-0.1-0.4-0.2-0.7-0.2c-0.3,0-0.5,0.1-0.7,0.2c-0.2,0.1-0.3,0.3-0.4,0.5
	s-0.2,0.4-0.3,0.7C18.1,9.2,18,9.4,18,9.6c0,0.2,0,0.5,0,0.7c0,0.2,0,0.4,0,0.6C18,11.2,18,11.6,18,12z M27,5.3
	c0.2,0,0.4-0.1,0.6-0.1C27.7,5.1,27.9,5,28,4.8c0.1-0.1,0.2-0.3,0.2-0.5c0-0.3-0.1-0.6-0.3-0.8c-0.2-0.2-0.5-0.3-0.8-0.3
	c-0.4,0-0.7,0.1-0.9,0.4c-0.2,0.3-0.3,0.6-0.3,1h-1.6c0-0.4,0.1-0.8,0.2-1.1C24.6,3.3,24.8,3,25,2.7c0.2-0.2,0.5-0.4,0.9-0.5
	C26.2,2.1,26.6,2,27,2c0.3,0,0.6,0,1,0.1s0.6,0.2,0.9,0.4s0.5,0.4,0.6,0.7s0.2,0.6,0.2,0.9c0,0.4-0.1,0.7-0.3,1
	c-0.2,0.3-0.5,0.5-0.8,0.6v0c0.4,0.1,0.8,0.3,1,0.6C29.9,6.7,30,7,30,7.5c0,0.4-0.1,0.8-0.2,1.1c-0.2,0.3-0.4,0.6-0.7,0.8
	c-0.3,0.2-0.6,0.4-1,0.5C27.8,9.9,27.4,10,27,10c-0.5,0-0.9-0.1-1.2-0.2c-0.4-0.1-0.7-0.3-0.9-0.5c-0.3-0.2-0.5-0.5-0.6-0.9
	S24,7.7,24,7.2h1.6c0,0.2,0,0.4,0.1,0.6c0.1,0.2,0.1,0.3,0.3,0.5c0.1,0.1,0.3,0.2,0.4,0.3c0.2,0.1,0.4,0.1,0.6,0.1
	c0.4,0,0.7-0.1,0.9-0.3c0.3-0.2,0.4-0.5,0.4-0.9c0-0.3-0.1-0.5-0.2-0.7s-0.3-0.3-0.5-0.3c-0.2-0.1-0.4-0.1-0.6-0.1s-0.4,0-0.6,0V5.3
	C26.6,5.3,26.8,5.3,27,5.3z"/>
</svg>
