<?xml version="1.0" encoding="utf-8"?>
<!-- Generator: Adobe Illustrator 21.0.2, SVG Export Plug-In . SVG Version: 6.00 Build 0)  -->
<svg version="1.1" id="Major_Minor_Horizontal_Gridlines"
	 xmlns="http://www.w3.org/2000/svg" xmlns:xlink="http://www.w3.org/1999/xlink" x="0px" y="0px" viewBox="0 0 32 32"
	 style="enable-background:new 0 0 32 32;" xml:space="preserve">
<style type="text/css">
	.Black{fill:#727272;}
	.st0{opacity:0.75;}
</style>
<g id="Gridlines">
	<polygon class="Black" points="6,26 6,2 4,2 4,28 30,28 30,26 	"/>
	<g class="st0">
		<path class="Black" d="M6,4h4v4H6v2h4v4H6v2h4v4H6v2h4v4h2v-4h4v4h2v-4h4v4h2v-4h4v4h2v-4v-2v-4v-2v-4V8V4V2h-2h-4h-2h-4h-2h-4h-2
			H6V4z M24,4h4v4h-4V4z M24,10h4v4h-4V10z M24,16h4v4h-4V16z M18,4h4v4h-4V4z M18,10h4v4h-4V10z M18,16h4v4h-4V16z M12,4h4v4h-4V4z
			 M12,10h4v4h-4V10z M12,16h4v4h-4V16z"/>
	</g>
</g>
</svg>
