<?xml version="1.0" encoding="utf-8"?>
<!-- Generator: Adobe Illustrator 21.0.2, SVG Export Plug-In . SVG Version: 6.00 Build 0)  -->
<svg version="1.1" id="Horizontal_Axis_Log_Scale" xmlns="http://www.w3.org/2000/svg" xmlns:xlink="http://www.w3.org/1999/xlink"
	 x="0px" y="0px" viewBox="0 0 32 32" style="enable-background:new 0 0 32 32;" xml:space="preserve">
<style type="text/css">
	.Black{fill:#727272;}
	.Blue{fill:#1177D7;}
	.st0{opacity:0.5;}
</style>
<g class="st0">
	<rect x="4" y="2" class="Black" width="2" height="26"/>
</g>
<path class="Blue" d="M14.6,10H10V2h1.7v6.5h2.9V10z M18.6,10c-1.1,0-2-0.4-2.7-1.1c-0.7-0.7-1-1.7-1-2.8c0-1.2,0.4-2.2,1.1-3
	C16.6,2.4,17.6,2,18.7,2c1.1,0,2,0.4,2.7,1.1s1,1.7,1,2.9c0,1.2-0.4,2.2-1.1,2.9S19.7,10,18.6,10z M18.7,3.5c-0.6,0-1.1,0.2-1.4,0.7
	c-0.4,0.5-0.5,1.1-0.5,1.8c0,0.8,0.2,1.4,0.5,1.8c0.4,0.4,0.8,0.7,1.4,0.7c0.6,0,1.1-0.2,1.4-0.7s0.5-1,0.5-1.8
	c0-0.8-0.2-1.4-0.5-1.9C19.7,3.7,19.3,3.5,18.7,3.5z M30,9.3c-0.8,0.4-1.7,0.7-2.8,0.7C26,10,25,9.7,24.3,9s-1.1-1.6-1.1-2.8
	c0-1.2,0.4-2.2,1.2-3S26.2,2,27.5,2c0.8,0,1.5,0.1,2.2,0.3V4c-0.6-0.3-1.3-0.5-2.2-0.5c-0.7,0-1.3,0.2-1.8,0.7C25.3,4.6,25,5.3,25,6
	c0,0.8,0.2,1.4,0.6,1.8s1,0.7,1.6,0.7c0.4,0,0.7-0.1,1-0.2V6.8h-1.5V5.5H30V9.3z"/>
<polygon class="Black" points="4,26 4,28 6,28 6,30 8,30 8,28 10,28 10,30 12,30 12,28 14,28 14,30 16,30 16,28 18,28 18,30 20,30 
	20,28 22,28 22,30 24,30 24,28 26,28 26,30 28,30 28,28 30,28 30,26 "/>
</svg>
