<?xml version="1.0" encoding="utf-8"?>
<!-- Generator: Adobe Illustrator 21.0.2, SVG Export Plug-In . SVG Version: 6.00 Build 0)  -->
<svg version="1.1" id="Data_Labels_Above" xmlns="http://www.w3.org/2000/svg" xmlns:xlink="http://www.w3.org/1999/xlink" x="0px"
	 y="0px" viewBox="0 0 32 32" style="enable-background:new 0 0 32 32;" xml:space="preserve">
<style type="text/css">
	.Green{fill:#039C23;}
	.Yellow{fill:#FFB115;}
</style>
<path class="Yellow" d="M23,8c-1.7,0-3,1.3-3,3c0,0.5,0.1,0.9,0.3,1.3l-10,10C9.9,22.1,9.5,22,9,22c-1.7,0-3,1.3-3,3s1.3,3,3,3
	s3-1.3,3-3c0-0.5-0.1-0.9-0.3-1.3l10-10c0.4,0.2,0.8,0.3,1.3,0.3c1.7,0,3-1.3,3-3S24.7,8,23,8z M9,26c-0.6,0-1-0.4-1-1s0.4-1,1-1
	s1,0.4,1,1S9.6,26,9,26z M23,12c-0.6,0-1-0.4-1-1s0.4-1,1-1s1,0.4,1,1S23.6,12,23,12z"/>
<path class="Green" d="M12,20H6v-4h6V20z M26,2h-6v4h6V2z"/>
</svg>
