<?xml version="1.0" encoding="utf-8"?>
<!-- Generator: Adobe Illustrator 21.0.2, SVG Export Plug-In . SVG Version: 6.00 Build 0)  -->
<svg version="1.1" id="Data_Labels_Below" xmlns="http://www.w3.org/2000/svg" xmlns:xlink="http://www.w3.org/1999/xlink" x="0px"
	 y="0px" viewBox="0 0 32 32" style="enable-background:new 0 0 32 32;" xml:space="preserve">
<style type="text/css">
	.Green{fill:#039C23;}
	.Yellow{fill:#FFB115;}
</style>
<path class="Yellow" d="M23,4c-1.7,0-3,1.3-3,3c0,0.5,0.1,0.9,0.3,1.3l-10,10C9.9,18.1,9.5,18,9,18c-1.7,0-3,1.3-3,3s1.3,3,3,3
	s3-1.3,3-3c0-0.5-0.1-0.9-0.3-1.3l10-10C22.1,9.9,22.5,10,23,10c1.7,0,3-1.3,3-3S24.7,4,23,4z M9,22c-0.6,0-1-0.4-1-1s0.4-1,1-1
	s1,0.4,1,1S9.6,22,9,22z M23,8c-0.6,0-1-0.4-1-1s0.4-1,1-1s1,0.4,1,1S23.6,8,23,8z"/>
<path class="Green" d="M12,30H6v-4h6V30z M26,12h-6v4h6V12z"/>
</svg>
