<?xml version="1.0" encoding="utf-8"?>
<!-- Generator: Adobe Illustrator 21.0.2, SVG Export Plug-In . SVG Version: 6.00 Build 0)  -->
<svg version="1.1" id="None_Vertical_Gridlines" xmlns="http://www.w3.org/2000/svg" xmlns:xlink="http://www.w3.org/1999/xlink"
	 x="0px" y="0px" viewBox="0 0 32 32" style="enable-background:new 0 0 32 32;" xml:space="preserve">
<style type="text/css">
	.Black{fill:#727272;}
	.Red{fill:#D11C1C;}
	.st0{opacity:0.5;}
</style>
<g class="st0">
	<path class="Black" d="M8,13.8l2,2v0.3l-2,2V13.8z M15,11.2l1-1V2h-2v8.2L15,11.2z M22,13.8l-2,2v0.3l2,2V13.8z M10,8.2V2H8v8.2
		L10,8.2z M22,10.2V2h-2v6.2L22,10.2z M20,23.8V30h2v-8.2L20,23.8z M2,30h2V2H2V30z M26,2v28h2V2H26z M15,20.8l-1,1V30h2v-8.2
		L15,20.8z M8,21.8V30h2v-6.2L8,21.8z"/>
</g>
<polygon class="Red" points="21,12 19,10 15,14 11,10 9,12 13,16 9,20 11,22 15,18 19,22 21,20 17,16 "/>
</svg>
