<?xml version="1.0" encoding="utf-8"?>
<!-- Generator: Adobe Illustrator 21.0.2, SVG Export Plug-In . SVG Version: 6.00 Build 0)  -->
<svg version="1.1" id="Axes" xmlns="http://www.w3.org/2000/svg" xmlns:xlink="http://www.w3.org/1999/xlink" x="0px" y="0px"
	 viewBox="0 0 32 32" style="enable-background:new 0 0 32 32;" xml:space="preserve">
<style type="text/css">
	.Black{fill:#727272;}
</style>
<polygon class="Black" points="6,26 6,2 4,2 4,4 2,4 2,6 4,6 4,8 2,8 2,10 4,10 4,12 2,12 2,14 4,14 4,16 2,16 2,18 4,18 4,20 2,20 
	2,22 4,22 4,24 2,24 2,26 4,26 4,28 6,28 6,30 8,30 8,28 10,28 10,30 12,30 12,28 14,28 14,30 16,30 16,28 18,28 18,30 20,30 20,28 
	22,28 22,30 24,30 24,28 26,28 26,30 28,30 28,28 30,28 30,26 "/>
</svg>
