<?xml version="1.0" encoding="utf-8"?>
<!-- Generator: Adobe Illustrator 21.0.2, SVG Export Plug-In . SVG Version: 6.00 Build 0)  -->
<svg version="1.1" id="Horizontal_Axis_Left_to_Right"
	 xmlns="http://www.w3.org/2000/svg" xmlns:xlink="http://www.w3.org/1999/xlink" x="0px" y="0px" viewBox="0 0 32 32"
	 style="enable-background:new 0 0 32 32;" xml:space="preserve">
<style type="text/css">
	.Black{fill:#727272;}
	.Blue{fill:#1177D7;}
	.st0{opacity:0.5;}
</style>
<g class="st0">
	<rect x="4" y="2" class="Black" width="2" height="18"/>
</g>
<polygon class="Blue" points="30,27 26,24 26,26 4,26 4,28 26,28 26,30 "/>
<polygon class="Black" points="4,18 4,20 6,20 6,22 8,22 8,20 10,20 10,22 12,22 12,20 14,20 14,22 16,22 16,20 18,20 18,22 20,22 
	20,20 22,20 22,22 24,22 24,20 26,20 26,22 28,22 28,20 30,20 30,18 "/>
</svg>
