<?xml version="1.0" encoding="utf-8"?>
<!-- Generator: Adobe Illustrator 21.0.2, SVG Export Plug-In . SVG Version: 6.00 Build 0)  -->
<svg version="1.1" id="Horizontal_Axis" xmlns="http://www.w3.org/2000/svg" xmlns:xlink="http://www.w3.org/1999/xlink" x="0px"
	 y="0px" viewBox="0 0 32 32" style="enable-background:new 0 0 32 32;" xml:space="preserve">
<style type="text/css">
	.Black{fill:#727272;}
	.st0{opacity:0.5;}
</style>
<g class="st0">
	<rect x="4" y="2" class="Black" width="2" height="26"/>
</g>
<polygon class="Black" points="4,26 4,28 6,28 6,30 8,30 8,28 10,28 10,30 12,30 12,28 14,28 14,30 16,30 16,28 18,28 18,30 20,30 
	20,28 22,28 22,30 24,30 24,28 26,28 26,30 28,30 28,28 30,28 30,26 "/>
</svg>
