<?xml version="1.0" encoding="utf-8"?>
<!-- Generator: Adobe Illustrator 21.0.2, SVG Export Plug-In . SVG Version: 6.00 Build 0)  -->
<svg version="1.1" id="Horizontal_Axis_Riht_to_Left"
	 xmlns="http://www.w3.org/2000/svg" xmlns:xlink="http://www.w3.org/1999/xlink" x="0px" y="0px" viewBox="0 0 32 32"
	 style="enable-background:new 0 0 32 32;" xml:space="preserve">
<style type="text/css">
	.Black{fill:#727272;}
	.Blue{fill:#1177D7;}
	.st0{opacity:0.5;}
</style>
<g class="st0">
	<rect x="26" y="2" transform="matrix(-1 -1.224647e-16 1.224647e-16 -1 54 22)" class="Black" width="2" height="18"/>
</g>
<polygon class="Black" points="2,18 2,20 4,20 4,22 6,22 6,20 8,20 8,22 10,22 10,20 12,20 12,22 14,22 14,20 16,20 16,22 18,22 
	18,20 20,20 20,22 22,22 22,20 24,20 24,22 26,22 26,20 28,20 28,18 "/>
<polygon class="Blue" points="2,27 6,24 6,26 28,26 28,28 6,28 6,30 "/>
</svg>
