<?xml version="1.0" encoding="utf-8"?>
<!-- Generator: Adobe Illustrator 21.0.2, SVG Export Plug-In . SVG Version: 6.00 Build 0)  -->
<svg version="1.1" id="Vertical_Title" xmlns="http://www.w3.org/2000/svg" xmlns:xlink="http://www.w3.org/1999/xlink" x="0px"
	 y="0px" viewBox="0 0 32 32" style="enable-background:new 0 0 32 32;" xml:space="preserve">
<style type="text/css">
	.Black{fill:#727272;}
	.Yellow{fill:#FFB115;}
	.st0{opacity:0.5;}
</style>
<polygon class="Black" points="14,28 14,2 12,2 12,30 32,30 32,28 "/>
<g class="st0">
	<polygon class="Black" points="30,2 14,2 14,4 30,4 30,28 32,28 32,4 32,2 	"/>
</g>
<path class="Yellow" d="M10,14H7.5l-0.7-2.2H3.2L2.5,14H0L3.7,4h2.7L10,14z M6.3,10L5.2,6.7C5.1,6.4,5,6.1,5,5.8H5
	c0,0.3-0.1,0.6-0.2,0.9L3.7,10H6.3z M2,26V16h3.6c1.1,0,2,0.2,2.6,0.6c0.6,0.4,0.9,1,0.9,1.7c0,0.5-0.2,1-0.5,1.4s-0.8,0.7-1.4,0.8
	v0c0.7,0.1,1.3,0.4,1.7,0.8s0.6,1,0.6,1.6c0,0.9-0.3,1.6-1,2.2C7.9,25.7,7,26,5.8,26H2z M4.3,17.7V20h1c0.5,0,0.8-0.1,1.1-0.3
	c0.3-0.2,0.4-0.5,0.4-0.9c0-0.7-0.5-1.1-1.6-1.1H4.3z M4.3,21.7v2.6h1.2c0.5,0,0.9-0.1,1.2-0.4c0.3-0.2,0.4-0.6,0.4-1
	c0-0.4-0.1-0.7-0.4-0.9c-0.3-0.2-0.7-0.3-1.2-0.3H4.3z"/>
</svg>
