<?xml version="1.0" encoding="utf-8"?>
<!-- Generator: Adobe Illustrator 21.0.2, SVG Export Plug-In . SVG Version: 6.00 Build 0)  -->
<svg version="1.1" id="Horizontal_Axis_Billions" xmlns="http://www.w3.org/2000/svg" xmlns:xlink="http://www.w3.org/1999/xlink"
	 x="0px" y="0px" viewBox="0 0 32 32" style="enable-background:new 0 0 32 32;" xml:space="preserve">
<style type="text/css">
	.Black{fill:#727272;}
	.Blue{fill:#1177D7;}
	.st0{opacity:0.5;}
</style>
<g id="Horizontal_Axis_Billions_1_">
	<g class="st0">
		<rect x="4" y="2" class="Black" width="2" height="26"/>
	</g>
	<polygon class="Black" points="4,26 4,28 6,28 6,30 8,30 8,28 10,28 10,30 12,30 12,28 14,28 14,30 16,30 16,28 18,28 18,30 20,30 
		20,28 22,28 22,30 24,30 24,28 26,28 26,30 28,30 28,28 30,28 30,26 	"/>
	<path class="Blue" d="M12,16V9.4h-2V8c0.3,0,0.3,0,0.6-0.1c0.3-0.1,0.6-0.2,0.9-0.3c0.3-0.2,0.5-0.4,0.6-0.6s0.3-0.6,0.3-1H14v10
		H12z M16.3,8.6C16.5,8,16.7,7.5,17,7.1c0.3-0.4,0.7-0.7,1.1-0.8C18.6,6.1,19,6,19.5,6c0.5,0,0.9,0.1,1.4,0.2
		c0.4,0.2,0.8,0.4,1.1,0.8c0.3,0.4,0.6,0.9,0.8,1.5C23,9.2,23.1,10,23.1,11c0,1-0.1,1.8-0.3,2.4c-0.2,0.6-0.4,1.2-0.8,1.5
		c-0.3,0.4-0.7,0.7-1.1,0.8C20.5,15.9,20,16,19.5,16c-0.5,0-0.9-0.1-1.4-0.2c-0.4-0.2-0.8-0.4-1.1-0.8c-0.3-0.4-0.6-0.9-0.8-1.5
		C16.1,12.7,16,11.9,16,11C16,10,16.1,9.2,16.3,8.6z M18,12c0,0.4,0.1,0.8,0.2,1.1c0.1,0.4,0.2,0.7,0.5,0.9c0.2,0.3,0.5,0.4,0.9,0.4
		c0.4,0,0.7-0.1,0.9-0.4c0.2-0.3,0.4-0.6,0.5-0.9c0.1-0.4,0.2-0.7,0.2-1.1c0-0.4,0-0.7,0-1c0-0.2,0-0.4,0-0.6c0-0.2,0-0.5-0.1-0.7
		c0-0.2-0.1-0.5-0.1-0.7c-0.1-0.2-0.1-0.5-0.3-0.7s-0.3-0.3-0.5-0.5c-0.2-0.1-0.4-0.2-0.7-0.2c-0.3,0-0.5,0.1-0.7,0.2
		c-0.2,0.1-0.3,0.3-0.4,0.5s-0.2,0.4-0.3,0.7C18.1,9.2,18,9.4,18,9.6c0,0.2,0,0.5,0,0.7c0,0.2,0,0.4,0,0.6C18,11.2,18,11.6,18,12z
		 M24.6,6.5c0.2,0.2,0.5,0.4,0.9,0.6c0.3,0.1,0.7,0.2,1,0.2c0.4,0,0.7-0.1,1.1-0.2c0.3-0.1,0.6-0.4,0.8-0.7l0,0c0,0.2,0,0.5-0.1,0.7
		C28.2,7.5,28.1,7.7,28,8c-0.1,0.2-0.3,0.4-0.5,0.6c-0.2,0.2-0.4,0.2-0.7,0.2c-0.3,0-0.5-0.1-0.7-0.3c-0.2-0.2-0.3-0.3-0.3-0.5h-1.6
		c0.1,0.3,0.1,0.6,0.3,0.8C24.6,9,24.8,9.3,25,9.4c0.2,0.2,0.5,0.3,0.8,0.4c0.3,0.1,0.6,0.1,1,0.1c0.6,0,1.1-0.1,1.5-0.4
		c0.4-0.2,0.7-0.6,1-0.9c0.3-0.4,0.4-0.8,0.6-1.3C29.9,6.9,30,6.4,30,6c0-0.5,0-1-0.1-1.4c-0.1-0.5-0.3-0.9-0.5-1.3
		c-0.2-0.4-0.6-0.7-1-0.9C28,2.1,27.5,2,26.9,2c-0.4,0-0.8,0.1-1.2,0.2c-0.4,0.1-0.7,0.3-0.9,0.6c-0.3,0.3-0.4,0.6-0.6,0.9
		C24.1,4,24,4.4,24,4.8c0,0.3,0.1,0.6,0.2,0.9C24.3,6,24.4,6.3,24.6,6.5z M25.7,4.2C25.8,4,25.9,3.8,26,3.7c0.1-0.1,0.2-0.2,0.4-0.3
		c0.2-0.1,0.3-0.1,0.5-0.1c0.2,0,0.4,0,0.6,0.1s0.3,0.2,0.4,0.3C28,3.9,28.1,4,28.1,4.2c0.1,0.2,0.1,0.3,0.1,0.5
		c0,0.2,0,0.4-0.1,0.5c-0.1,0.2-0.1,0.3-0.2,0.5c-0.1,0.1-0.2,0.2-0.4,0.3s-0.4,0.1-0.6,0.1c-0.2,0-0.4,0-0.6-0.1S26.1,5.8,26,5.7
		c-0.1-0.1-0.2-0.3-0.2-0.5c-0.1-0.2-0.1-0.4-0.1-0.5C25.7,4.5,25.7,4.3,25.7,4.2z"/>
</g>
</svg>
