<?xml version="1.0" encoding="utf-8"?>
<!-- Generator: Adobe Illustrator 21.0.2, SVG Export Plug-In . SVG Version: 6.00 Build 0)  -->
<svg version="1.1" id="Data_Labels_None" xmlns="http://www.w3.org/2000/svg" xmlns:xlink="http://www.w3.org/1999/xlink" x="0px"
	 y="0px" viewBox="0 0 32 32" style="enable-background:new 0 0 32 32;" xml:space="preserve">
<style type="text/css">
	.Green{fill:#039C23;}
	.Red{fill:#D11C1C;}
	.Black{fill:#727272;}
	.st0{opacity:0.5;}
	.st1{opacity:0.25;}
</style>
<g class="st0">
	<path class="Green" d="M12,9.3V8h6v1.3L15.3,12h-0.7L12,9.3z M6.2,13.2L7.3,12H4v4h5L6.2,13.2z M20,4v4h6V4H20z"/>
</g>
<g class="st1">
	<path class="Black" d="M18,25v3h-6v-3l3-3L18,25z M6.2,21.2L9.3,18H4v10h6v-3L6.2,21.2z M20.7,10l3.2,3.2L20,17v0.3l3.8,3.8L20,25
		v3h6V10H20.7z"/>
</g>
<polygon class="Red" points="21,13.2 19,11.2 15,15.2 11,11.2 9,13.2 13,17.2 9,21.2 11,23.2 15,19.2 19,23.2 21,21.2 17,17.2 "/>
</svg>
