<?xml version="1.0" encoding="utf-8"?>
<!-- Generator: Adobe Illustrator 21.0.2, SVG Export Plug-In . SVG Version: 6.00 Build 0)  -->
<svg version="1.1" id="Data_Labels_Line_None" xmlns="http://www.w3.org/2000/svg" xmlns:xlink="http://www.w3.org/1999/xlink"
	 x="0px" y="0px" viewBox="0 0 32 32" style="enable-background:new 0 0 32 32;" xml:space="preserve">
<style type="text/css">
	.Green{fill:#039C23;}
	.Yellow{fill:#FFB115;}
	.Red{fill:#D11C1C;}
	.st0{opacity:0.5;}
</style>
<g class="st0">
	<path class="Yellow" d="M11.6,26.4C11.1,27.4,10.1,28,9,28c-1.7,0-3-1.3-3-3c0-1.1,0.6-2.1,1.6-2.6L9.2,24c-0.1,0-0.1,0-0.2,0
		c-0.6,0-1,0.4-1,1s0.4,1,1,1s1-0.4,1-1c0-0.1,0-0.1,0-0.2L11.6,26.4z M23,8c-1.1,0-2.1,0.6-2.6,1.6l1.7,1.7c0-0.1,0-0.1,0-0.2
		c0-0.6,0.4-1,1-1s1,0.4,1,1s-0.4,1-1,1c-0.1,0-0.1,0-0.2,0l1.7,1.7c0.9-0.5,1.6-1.5,1.6-2.6C26,9.3,24.7,8,23,8z"/>
	<path class="Green" d="M26,2v4h-6V2H26z M11.2,18l-2-2H6v4h3.2L11.2,18z"/>
</g>
<polygon class="Red" points="22,14 20,12 16,16 12,12 10,14 14,18 10,22 12,24 16,20 20,24 22,22 18,18 "/>
</svg>
