<?xml version="1.0" encoding="utf-8"?>
<!-- Generator: Adobe Illustrator 21.0.2, SVG Export Plug-In . SVG Version: 6.00 Build 0)  -->
<svg version="1.1" id="Vertical_Axis" xmlns="http://www.w3.org/2000/svg" xmlns:xlink="http://www.w3.org/1999/xlink" x="0px"
	 y="0px" viewBox="0 0 32 32" style="enable-background:new 0 0 32 32;" xml:space="preserve">
<style type="text/css">
	.Black{fill:#727272;}
	.st0{opacity:0.5;}
</style>
<g class="st0">
	<rect x="4" y="26" class="Black" width="26" height="2"/>
</g>
<polygon class="Black" points="4,2 4,4 2,4 2,6 4,6 4,8 2,8 2,10 4,10 4,12 2,12 2,14 4,14 4,16 2,16 2,18 4,18 4,20 2,20 2,22 
	4,22 4,24 2,24 2,26 4,26 4,28 6,28 6,2 "/>
</svg>
