<?xml version="1.0" encoding="utf-8"?>
<!-- Generator: Adobe Illustrator 21.0.2, SVG Export Plug-In . SVG Version: 6.00 Build 0)  -->
<svg version="1.1" id="Rotated_Title" xmlns="http://www.w3.org/2000/svg" xmlns:xlink="http://www.w3.org/1999/xlink" x="0px"
	 y="0px" viewBox="0 0 32 32" style="enable-background:new 0 0 32 32;" xml:space="preserve">
<style type="text/css">
	.Black{fill:#727272;}
	.Yellow{fill:#FFB115;}
	.st0{opacity:0.5;}
</style>
<polygon class="Black" points="14,28 14,2 12,2 12,30 32,30 32,28 "/>
<g class="st0">
	<polygon class="Black" points="30,2 14,2 14,4 30,4 30,28 32,28 32,4 32,2 	"/>
</g>
<path class="Yellow" d="M10,16v2.5l-2.2,0.7v3.6l2.2,0.7V26L0,22.3v-2.7L10,16z M6,19.7l-3.3,1.1C2.4,20.9,2.1,21,1.8,21V21
	c0.3,0,0.6,0.1,0.9,0.2L6,22.3V19.7z M10,14H0v-3.6c0-1.1,0.2-2,0.6-2.6c0.4-0.6,1-0.9,1.7-0.9c0.5,0,1,0.2,1.4,0.5
	c0.4,0.4,0.7,0.8,0.8,1.4h0C4.7,8.1,5,7.6,5.4,7.1c0.4-0.4,1-0.6,1.6-0.6c0.9,0,1.6,0.3,2.2,1S10,9,10,10.2V14z M1.7,11.7H4v-1
	c0-0.5-0.1-0.8-0.3-1.1S3.2,9.3,2.8,9.3c-0.7,0-1.1,0.5-1.1,1.6V11.7z M5.7,11.7h2.6v-1.2C8.3,10,8.2,9.6,8,9.3C7.7,9,7.4,8.9,7,8.9
	C6.6,8.9,6.3,9,6,9.3C5.8,9.6,5.7,10,5.7,10.5V11.7z"/>
</svg>
