<?xml version="1.0" encoding="utf-8"?>
<!-- Generator: Adobe Illustrator 21.0.2, SVG Export Plug-In . SVG Version: 6.00 Build 0)  -->
<svg version="1.1" id="Axis_Title_Vertical_None" xmlns="http://www.w3.org/2000/svg" xmlns:xlink="http://www.w3.org/1999/xlink"
	 x="0px" y="0px" viewBox="0 0 32 32" style="enable-background:new 0 0 32 32;" xml:space="preserve">
<style type="text/css">
	.Black{fill:#727272;}
	.Yellow{fill:#FFB115;}
	.Red{fill:#D11C1C;}
	.st0{opacity:0.5;}
</style>
<g class="st0">
	<polygon class="Black" points="12,28 12,2 10,2 10,30 30,30 30,28 	"/>
	<g class="st0">
		<polygon class="Black" points="28,2 12,2 12,4 28,4 28,28 30,28 30,4 30,2 		"/>
	</g>
	<path class="Yellow" d="M8,26H2V6h6V26z"/>
</g>
<polygon class="Red" points="26,12 24,10 20,14 16,10 14,12 18,16 14,20 16,22 20,18 24,22 26,20 22,16 "/>
</svg>
