<?xml version="1.0" encoding="utf-8"?>
<!-- Generator: Adobe Illustrator 21.0.2, SVG Export Plug-In . SVG Version: 6.00 Build 0)  -->
<svg version="1.1" id="Vertical_Axis_Bottom_to_Up" xmlns="http://www.w3.org/2000/svg" xmlns:xlink="http://www.w3.org/1999/xlink"
	 x="0px" y="0px" viewBox="0 0 32 32" style="enable-background:new 0 0 32 32;" xml:space="preserve">
<style type="text/css">
	.Blue{fill:#1177D7;}
	.Black{fill:#727272;}
	.st0{opacity:0.5;}
</style>
<polygon class="Black" points="12,2 12,4 10,4 10,6 12,6 12,8 10,8 10,10 12,10 12,12 10,12 10,14 12,14 12,16 10,16 10,18 12,18 
	12,20 10,20 10,22 12,22 12,24 10,24 10,26 12,26 12,28 14,28 14,2 "/>
<g class="st0">
	<rect x="14" y="26" class="Black" width="16" height="2"/>
</g>
<polygon class="Blue" points="8,6 5,2 2,6 4,6 4,28 6,28 6,6 "/>
</svg>
