<?xml version="1.0" encoding="utf-8"?>
<!-- Generator: Adobe Illustrator 21.0.2, SVG Export Plug-In . SVG Version: 6.00 Build 0)  -->
<svg version="1.1" id="Data_Labels_Right" xmlns="http://www.w3.org/2000/svg" xmlns:xlink="http://www.w3.org/1999/xlink" x="0px"
	 y="0px" viewBox="0 0 32 32" style="enable-background:new 0 0 32 32;" xml:space="preserve">
<style type="text/css">
	.Green{fill:#039C23;}
	.Yellow{fill:#FFB115;}
</style>
<path class="Yellow" d="M19,6c-1.7,0-3,1.3-3,3c0,0.5,0.1,0.9,0.3,1.3l-10,10C5.9,20.1,5.5,20,5,20c-1.7,0-3,1.3-3,3s1.3,3,3,3
	s3-1.3,3-3c0-0.5-0.1-0.9-0.3-1.3l10-10c0.4,0.2,0.8,0.3,1.3,0.3c1.7,0,3-1.3,3-3S20.7,6,19,6z M5,24c-0.6,0-1-0.4-1-1s0.4-1,1-1
	s1,0.4,1,1S5.6,24,5,24z M19,10c-0.6,0-1-0.4-1-1s0.4-1,1-1s1,0.4,1,1S19.6,10,19,10z"/>
<path class="Green" d="M16,26h-6v-4h6V26z M30,6h-6v4h6V6z"/>
</svg>
