<?xml version="1.0" encoding="utf-8"?>
<!-- Generator: Adobe Illustrator 21.0.2, SVG Export Plug-In . SVG Version: 6.00 Build 0)  -->
<svg version="1.1" id="Vertical_Axis_Millions" xmlns="http://www.w3.org/2000/svg" xmlns:xlink="http://www.w3.org/1999/xlink"
	 x="0px" y="0px" viewBox="0 0 32 32" style="enable-background:new 0 0 32 32;" xml:space="preserve">
<style type="text/css">
	.Blue{fill:#1177D7;}
	.Black{fill:#727272;}
	.st0{opacity:0.5;}
</style>
<g class="st0">
	<rect x="4" y="26" class="Black" width="26" height="2"/>
</g>
<polygon class="Black" points="4,2 4,4 2,4 2,6 4,6 4,8 2,8 2,10 4,10 4,12 2,12 2,14 4,14 4,16 2,16 2,18 4,18 4,20 2,20 2,22 
	4,22 4,24 2,24 2,26 4,26 4,28 6,28 6,2 "/>
<path class="Blue" d="M12,16V9.4h-2V8c0.3,0,0.3,0,0.6-0.1c0.3-0.1,0.6-0.2,0.9-0.3c0.3-0.2,0.5-0.4,0.6-0.6s0.3-0.6,0.3-1H14v10H12
	z M16.3,8.6C16.5,8,16.7,7.5,17,7.1c0.3-0.4,0.7-0.7,1.1-0.8C18.6,6.1,19,6,19.5,6c0.5,0,0.9,0.1,1.4,0.2c0.4,0.2,0.8,0.4,1.1,0.8
	c0.3,0.4,0.6,0.9,0.8,1.5C23,9.2,23.1,10,23.1,11c0,1-0.1,1.8-0.3,2.4c-0.2,0.6-0.4,1.2-0.8,1.5c-0.3,0.4-0.7,0.7-1.1,0.8
	C20.5,15.9,20,16,19.5,16c-0.5,0-0.9-0.1-1.4-0.2c-0.4-0.2-0.8-0.4-1.1-0.8c-0.3-0.4-0.6-0.9-0.8-1.5C16.1,12.7,16,11.9,16,11
	C16,10,16.1,9.2,16.3,8.6z M18,12c0,0.4,0.1,0.8,0.2,1.1c0.1,0.4,0.2,0.7,0.5,0.9c0.2,0.3,0.5,0.4,0.9,0.4c0.4,0,0.7-0.1,0.9-0.4
	c0.2-0.3,0.4-0.6,0.5-0.9c0.1-0.4,0.2-0.7,0.2-1.1c0-0.4,0-0.7,0-1c0-0.2,0-0.4,0-0.6c0-0.2,0-0.5-0.1-0.7c0-0.2-0.1-0.5-0.1-0.7
	c-0.1-0.2-0.1-0.5-0.3-0.7s-0.3-0.3-0.5-0.5c-0.2-0.1-0.4-0.2-0.7-0.2c-0.3,0-0.5,0.1-0.7,0.2c-0.2,0.1-0.3,0.3-0.4,0.5
	s-0.2,0.4-0.3,0.7C18.1,9.2,18,9.4,18,9.6c0,0.2,0,0.5,0,0.7c0,0.2,0,0.4,0,0.6C18,11.2,18,11.6,18,12z M29.4,5.5
	c-0.2-0.2-0.5-0.4-0.9-0.6c-0.3-0.1-0.7-0.2-1-0.2c-0.4,0-0.7,0.1-1.1,0.2c-0.3,0.1-0.6,0.4-0.8,0.7l0,0c0-0.2,0-0.5,0.1-0.7
	C25.8,4.5,25.9,4.3,26,4c0.1-0.2,0.3-0.4,0.5-0.6c0.2-0.2,0.4-0.2,0.7-0.2c0.3,0,0.5,0.1,0.7,0.3c0.2,0.2,0.3,0.3,0.3,0.5h1.6
	c-0.1-0.3-0.1-0.6-0.3-0.8C29.4,3,29.2,2.7,29,2.6c-0.2-0.2-0.5-0.3-0.8-0.4C27.9,2,27.6,2,27.2,2c-0.6,0-1.1,0.1-1.5,0.4
	c-0.4,0.2-0.7,0.6-1,0.9c-0.3,0.4-0.4,0.8-0.6,1.3C24.1,5.1,24,5.6,24,6c0,0.5,0,1,0.1,1.4c0.1,0.5,0.3,0.9,0.5,1.3
	c0.2,0.4,0.6,0.7,1,0.9C26,9.9,26.5,10,27.1,10c0.4,0,0.8-0.1,1.2-0.2c0.4-0.1,0.7-0.3,0.9-0.6c0.3-0.3,0.4-0.6,0.6-0.9
	C29.9,8,30,7.6,30,7.2c0-0.3-0.1-0.6-0.2-0.9C29.7,6,29.6,5.7,29.4,5.5z M28.3,7.8C28.2,8,28.1,8.2,28,8.3c-0.1,0.1-0.2,0.2-0.4,0.3
	c-0.2,0.1-0.3,0.1-0.5,0.1c-0.2,0-0.4,0-0.6-0.1s-0.3-0.2-0.4-0.3C26,8.1,25.9,8,25.9,7.8c-0.1-0.2-0.1-0.3-0.1-0.5
	c0-0.2,0-0.4,0.1-0.5c0.1-0.2,0.1-0.3,0.2-0.5c0.1-0.1,0.2-0.2,0.4-0.3s0.4-0.1,0.6-0.1c0.2,0,0.4,0,0.6,0.1s0.3,0.2,0.4,0.3
	c0.1,0.1,0.2,0.3,0.2,0.5c0.1,0.2,0.1,0.4,0.1,0.5C28.3,7.5,28.3,7.7,28.3,7.8z"/>
</svg>
