<?xml version="1.0" encoding="utf-8"?>
<!-- Generator: Adobe Illustrator 21.0.2, SVG Export Plug-In . SVG Version: 6.00 Build 0)  -->
<svg version="1.1" id="Sort__x26__Filter" xmlns="http://www.w3.org/2000/svg" xmlns:xlink="http://www.w3.org/1999/xlink" x="0px"
	 y="0px" viewBox="0 0 32 32" style="enable-background:new 0 0 32 32;" xml:space="preserve">
<style type="text/css">
	.Blue{fill:#1177D7;}
	.Red{fill:#D11C1C;}
	.Black{fill:#727272;}
</style>
<g id="Clear_Formats">
	<path class="Black" d="M7.9,12c-1.2,0-2.1-0.3-2.8-1S4,9.3,4,8.2c0-1.3,0.4-2.3,1.1-3S6.9,4,8.2,4c1.2,0,2.1,0.3,2.8,1
		c0.7,0.7,1,1.6,1,2.9c0,1.3-0.4,2.3-1.1,3C10.1,11.6,9.1,12,7.9,12z M19.8,4L9,20H6.2L17,4H19.8z M8,5.9C7,5.9,6.4,6.6,6.4,8.1
		c0,1.4,0.5,2.1,1.6,2.1C9,10.2,9.6,9.5,9.6,8C9.6,6.6,9.1,5.9,8,5.9z M17.9,20c-1.2,0-2.1-0.3-2.8-1c-0.7-0.7-1.1-1.6-1.1-2.8
		c0-1.3,0.4-2.3,1.1-3c0.8-0.7,1.8-1.1,3-1.1c1.2,0,2.2,0.3,2.8,1c0.7,0.7,1,1.6,1,2.8c0,1.3-0.4,2.3-1.1,3
		C20.1,19.6,19.1,20,17.9,20z M18.1,13.8c-1.1,0-1.6,0.7-1.6,2.2c0,1.4,0.5,2.1,1.6,2.1c1.1,0,1.6-0.7,1.6-2.2
		c0-0.7-0.1-1.2-0.4-1.6C18.9,14,18.6,13.8,18.1,13.8z M17.5,22H2V2h22v13.5l0.6-0.6c0.4-0.4,0.9-0.7,1.4-0.8V1c0-0.5-0.5-1-1-1H1
		C0.5,0,0,0.5,0,1v22c0,0.5,0.5,1,1,1h14.5L17.5,22z"/>
	<path class="Blue" d="M24.7,29L22,31.7c-0.4,0.4-1.2,0.4-1.6,0l-4-4c-0.4-0.4-0.4-1.2,0-1.6l2.7-2.7L24.7,29z"/>
	<path class="Red" d="M31.7,22l-6.1,6.1l-5.6-5.6l6.1-6.1c0.4-0.4,1.2-0.4,1.6,0l4,4C32.1,20.8,32.1,21.5,31.7,22z"/>
</g>
</svg>
