<?xml version="1.0" encoding="utf-8"?>
<!-- Generator: Adobe Illustrator 21.0.2, SVG Export Plug-In . SVG Version: 6.00 Build 0)  -->
<svg version="1.1" id="Clear_Rules" xmlns="http://www.w3.org/2000/svg" xmlns:xlink="http://www.w3.org/1999/xlink" x="0px"
	 y="0px" viewBox="0 0 32 32" style="enable-background:new 0 0 32 32;" xml:space="preserve">
<style type="text/css">
	.Black{fill:#727272;}
	.Blue{fill:#1177D7;}
	.Red{fill:#D11C1C;}
	.Yellow{fill:#FFB115;}
	.st0{opacity:0.5;}
</style>
<rect x="10" y="4" class="Yellow" width="8" height="6"/>
<rect x="0" y="12" class="Red" width="8" height="6"/>
<g class="st0">
	<path class="Black" d="M21.5,18H20v-6h8v2.2c-0.4-0.1-0.8-0.2-1.2-0.2c-0.8,0-1.6,0.3-2.2,0.9L21.5,18z M28,4h-8v6h8V4z M18,12h-8
		v6h8V12z M14.9,24.6l2.7-2.7l0.4-0.4V20h-8v6h4.1C14.3,25.5,14.5,25,14.9,24.6z M0,26h8v-6H0V26z M0,10h8V4H0V10z"/>
</g>
<path class="Blue" d="M19,23.3L16.3,26c-0.4,0.4-0.4,1.2,0,1.6l4,4c0.4,0.4,1.2,0.4,1.6,0l2.7-2.7L19,23.3z"/>
<path class="Red" d="M31.7,20.4l-4-4c-0.4-0.4-1.2-0.4-1.6,0l-6.1,6.1l5.6,5.6l6.1-6.1C32.1,21.5,32.1,20.8,31.7,20.4z"/>
</svg>
