<?xml version="1.0" encoding="utf-8"?>
<!-- Generator: Adobe Illustrator 21.0.2, SVG Export Plug-In . SVG Version: 6.00 Build 0)  -->
<svg version="1.1" id="Comma_Style" xmlns="http://www.w3.org/2000/svg" xmlns:xlink="http://www.w3.org/1999/xlink" x="0px"
	 y="0px" viewBox="0 0 32 32" style="enable-background:new 0 0 32 32;" xml:space="preserve">
<style type="text/css">
	.Black{fill:#727272;}
</style>
<path class="Black" d="M19.6,12c-0.2-0.7-0.6-1.4-1-2c-0.5-0.6-1-1.1-1.7-1.5C16.1,8.2,15,8,14,8c0,0-0.4,0-0.6,0.1
	C11.7,8.4,10,10,10,12c0,2.2,1.6,4,3.5,4c0.8,0,1.5-0.3,2.1-0.8c0,0.2,0.1,0.3,0.1,0.5c0,0.3,0.1,0.5,0.1,0.8c0,0.9-0.1,1.6-0.4,2.3
	c-0.3,0.7-0.7,1.3-1.2,1.9c-0.5,0.6-1.1,1.1-1.8,1.7c-0.7,0.5-1.5,1-2.3,1.6l1.6,2.1c1.1-0.6,2.2-1.3,3.2-2c1-0.7,1.9-1.5,2.7-2.5
	c0.8-0.9,1.4-2,1.8-3.2c0.4-1.2,0.7-2.6,0.7-4.3C19.9,13.4,19.8,12.7,19.6,12z"/>
</svg>
