<?xml version="1.0" encoding="utf-8"?>
<!-- Generator: Adobe Illustrator 21.0.2, SVG Export Plug-In . SVG Version: 6.00 Build 0)  -->
<svg version="1.1" id="Copy" xmlns="http://www.w3.org/2000/svg" xmlns:xlink="http://www.w3.org/1999/xlink" x="0px" y="0px"
	 viewBox="0 0 32 32" style="enable-background:new 0 0 32 32;" xml:space="preserve">
<style type="text/css">
	.Black{fill:#727272;}
</style>
<path class="Black" d="M21,0H9C8.4,0,8,0.4,8,1v5H3C2.4,6,2,6.4,2,7v22c0,0.6,0.4,1,1,1h18c0.6,0,1-0.4,1-1v-5h5c0.6,0,1-0.4,1-1V7
	L21,0z M20,28H4V8h4h2h4v5c0,0.6,0.4,1,1,1h5v4v4v2V28z M26,12v10h-4v-9l-7-7h-5V2h4h6v4v1c0,0.6,0.4,1,1,1h5V12z"/>
</svg>
