<?xml version="1.0" encoding="utf-8"?>
<!-- Generator: Adobe Illustrator 21.0.2, SVG Export Plug-In . SVG Version: 6.00 Build 0)  -->
<svg version="1.1" id="Create_Cone_Full_Stacked_Bar_3D_Chart"
	 xmlns="http://www.w3.org/2000/svg" xmlns:xlink="http://www.w3.org/1999/xlink" x="0px" y="0px" viewBox="0 0 32 32"
	 style="enable-background:new 0 0 32 32;" xml:space="preserve">
<style type="text/css">
	.Yellow{fill:#FFB115;}
	.Green{fill:#039C23;}
</style>
<path class="Green" d="M8,14l2,12c0,1.1-1.8,2-4,2s-4-0.9-4-2l2-12H8z M14.3,12L12,26c0,1.1,1.8,2,4,2s4-0.9,4-2l-2.3-14H14.3z
	 M23.7,16L22,26c0,1.1,1.8,2,4,2s4-0.9,4-2l-1.7-10H23.7z"/>
<path class="Yellow" d="M8,14c0,0.6-0.9,1-2,1c-1.1,0-2-0.4-2-1L6,3L8,14z M17.7,12L16,3l-1.7,9h0c0,0,0,0,0,0
	c0,0.5,0.7,0.8,1.7,0.8C16.9,12.8,17.7,12.5,17.7,12C17.7,12,17.7,12,17.7,12L17.7,12z M26,3l-2.3,13h0c0,0.6,1,1.2,2.3,1.2
	c1.3,0,2.3-0.5,2.3-1.2h0L26,3z"/>
</svg>
