<?xml version="1.0" encoding="utf-8"?>
<!-- Generator: Adobe Illustrator 21.0.2, SVG Export Plug-In . SVG Version: 6.00 Build 0)  -->
<svg version="1.1" id="Create_Rotated_Full_Stacked_Cylinder_Bar_3D_Chart"
	 xmlns="http://www.w3.org/2000/svg" xmlns:xlink="http://www.w3.org/1999/xlink" x="0px" y="0px" viewBox="0 0 32 32"
	 style="enable-background:new 0 0 32 32;" xml:space="preserve">
<style type="text/css">
	.Blue{fill:#1177D7;}
	.Red{fill:#D11C1C;}
	.st0{opacity:0.75;}
</style>
<path class="Blue" d="M28,6c0,2.2-0.9,4-2,4c-1.1,0-2-1.8-2-4s0.9-4,2-4C27.1,2,28,3.8,28,6z M26,12c-1.1,0-2,1.8-2,4s0.9,4,2,4
	c1.1,0,2-1.8,2-4S27.1,12,26,12z M26,22c-1.1,0-2,1.8-2,4s0.9,4,2,4c1.1,0,2-1.8,2-4S27.1,22,26,22z"/>
<g class="st0">
	<path class="Blue" d="M26,10H12c-1.1,0-2-1.8-2-4s0.9-4,2-4h14c-1.1,0-2,1.8-2,4S24.9,10,26,10z M24,16c0-2.2,0.9-4,2-4h-6
		c-1.1,0-2,1.8-2,4s0.9,4,2,4h6C24.9,20,24,18.2,24,16z M24,26c0-2.2,0.9-4,2-4H16c-1.1,0-2,1.8-2,4s0.9,4,2,4h10
		C24.9,30,24,28.2,24,26z"/>
	<path class="Red" d="M12,10H4c-1.1,0-2-1.8-2-4s0.9-4,2-4h8c-1.1,0-2,1.8-2,4S10.9,10,12,10z M18,16c0-2.2,0.9-4,2-4H4
		c-1.1,0-2,1.8-2,4s0.9,4,2,4h16C18.9,20,18,18.2,18,16z M14,26c0-2.2,0.9-4,2-4H4c-1.1,0-2,1.8-2,4s0.9,4,2,4h12
		C14.9,30,14,28.2,14,26z"/>
</g>
</svg>
