<?xml version="1.0" encoding="utf-8"?>
<!-- Generator: Adobe Illustrator 21.0.2, SVG Export Plug-In . SVG Version: 6.00 Build 0)  -->
<svg version="1.1" id="Create_Radar_Line_Chart_No_Markers"
	 xmlns="http://www.w3.org/2000/svg" xmlns:xlink="http://www.w3.org/1999/xlink" x="0px" y="0px" viewBox="0 0 32 32"
	 style="enable-background:new 0 0 32 32;" xml:space="preserve">
<style type="text/css">
	.Black{fill:#727272;}
	.Red{fill:#D11C1C;}
	.st0{opacity:0.5;}
</style>
<g class="st0">
	<path class="Black" d="M16,0C7.2,0,0,7.2,0,16s7.2,16,16,16c8.8,0,16-7.2,16-16S24.8,0,16,0z M16,30C8.3,30,2,23.7,2,16S8.3,2,16,2
		c7.7,0,14,6.3,14,14S23.7,30,16,30z"/>
	<path class="Black" d="M16,6C10.5,6,6,10.5,6,16s4.5,10,10,10c5.5,0,10-4.5,10-10S21.5,6,16,6z M16,24c-4.4,0-8-3.6-8-8s3.6-8,8-8
		c4.4,0,8,3.6,8,8S20.4,24,16,24z"/>
	<path class="Black" d="M16,12c-2.2,0-4,1.8-4,4s1.8,4,4,4s4-1.8,4-4S18.2,12,16,12z M16,18c-1.1,0-2-0.9-2-2s0.9-2,2-2
		c1.1,0,2,0.9,2,2S17.1,18,16,18z"/>
</g>
<path class="Red" d="M5.3,14.7L4.6,14L16.4,2.2l4.4,11.1l6.8,4.5L18,27.4L5.3,14.7L5.3,14.7z M18,24.6l6.4-6.4l-5.2-3.5l-3.6-8.9
	L7.4,14L18,24.6L18,24.6z"/>
</svg>
