<?xml version="1.0" encoding="utf-8"?>
<!-- Generator: Adobe Illustrator 21.0.2, SVG Export Plug-In . SVG Version: 6.00 Build 0)  -->
<svg version="1.1" id="Create_Pyramid_Manhattan_Bar_Chart"
	 xmlns="http://www.w3.org/2000/svg" xmlns:xlink="http://www.w3.org/1999/xlink" x="0px" y="0px" viewBox="0 0 32 32"
	 style="enable-background:new 0 0 32 32;" xml:space="preserve">
<style type="text/css">
	.Yellow{fill:#FFB115;}
	.Red{fill:#D11C1C;}
	.st0{opacity:0.75;}
</style>
<path class="Red" d="M11.5,21.2L9,8l3.3,9.3L11.5,21.2z M20.2,16.3L17,6l2.4,14.5L20.2,16.3z M30,22L25,4l3,20L30,22z"/>
<path class="Yellow" d="M8,28L5,16l5,10L8,28z M18,26l-5-12l3,14L18,26z M26,26l-5-14l3,16L26,26z"/>
<g class="st0">
	<path class="Red" d="M10.9,24H9l-2.2-4.4L9,8l2.5,13.2L10.9,24z M19.4,20.5L17,6l-2.1,12.6l2.3,5.4h1.6L19.4,20.5z M25.3,24H28
		L25,4l-2,13.5L25.3,24z"/>
	<path class="Yellow" d="M2,28l3-12l3,12H2z M16,28l-3-14l-3,14H16z M24,28l-3-16l-3,16H24z"/>
</g>
</svg>
