<?xml version="1.0" encoding="utf-8"?>
<!-- Generator: Adobe Illustrator 21.0.2, SVG Export Plug-In . SVG Version: 6.00 Build 0)  -->
<svg version="1.1" id="Create_Rotated_Full_Stacked_Pyramid_Bar_3D_Chart"
	 xmlns="http://www.w3.org/2000/svg" xmlns:xlink="http://www.w3.org/1999/xlink" x="0px" y="0px" viewBox="0 0 32 32"
	 style="enable-background:new 0 0 32 32;" xml:space="preserve">
<style type="text/css">
	.Yellow{fill:#FFB115;}
	.Blue{fill:#1177D7;}
	.st0{opacity:0.75;}
</style>
<g class="st0">
	<path class="Yellow" d="M6,18l22,6L4,20L6,18z M4,6l24,4L6,4L4,6z"/>
	<path class="Blue" d="M16,8L4,6l2-2l11,3L16,8z M11.5,19.5L6,18l-2,2l6,1L11.5,19.5z"/>
</g>
<path class="Blue" d="M16,12L4,14V6l12,2V12z M10,21l-6-1v8l6-1V21z"/>
<path class="Yellow" d="M28,10l-12,2V8L28,10z M10,27l18-3l-18-3V27z"/>
</svg>
