<?xml version="1.0" encoding="utf-8"?>
<!-- Generator: Adobe Illustrator 21.0.2, SVG Export Plug-In . SVG Version: 6.00 Build 0)  -->
<svg version="1.1" id="Create_Stacked_Area_3D_Chart"
	 xmlns="http://www.w3.org/2000/svg" xmlns:xlink="http://www.w3.org/1999/xlink" x="0px" y="0px" viewBox="0 0 32 32"
	 style="enable-background:new 0 0 32 32;" xml:space="preserve">
<style type="text/css">
	.Blue{fill:#1177D7;}
	.Red{fill:#D11C1C;}
	.Yellow{fill:#FFB115;}
	.st0{opacity:0.5;}
	.st1{opacity:0.75;}
</style>
<g class="st0">
	<rect x="4.2" y="4.8" transform="matrix(0.7071 -0.7071 0.7071 0.7071 -4.3137 7.5858)" class="Red" width="5.7" height="8.5"/>
	<rect x="18.2" y="3.9" transform="matrix(0.7071 -0.7071 0.7071 0.7071 -1.6274 18.0711)" class="Red" width="5.7" height="14.1"/>
</g>
<polygon class="Red" points="24,24 28,20 28,14 24,18 "/>
<g class="st1">
	<polygon class="Red" points="14,8 8,14 2,8 2,20 8,20 14,14 24,24 24,18 	"/>
	<polygon class="Yellow" points="24,28 2,28 2,20 8,20 14,14 24,24 	"/>
</g>
<polygon class="Yellow" points="28,24 24,28 24,24 28,20 "/>
</svg>
