<?xml version="1.0" encoding="utf-8"?>
<!-- Generator: Adobe Illustrator 21.0.2, SVG Export Plug-In . SVG Version: 6.00 Build 0)  -->
<svg version="1.1" id="Create_Pyramid_Full_Stacked_Bar_3D_Chart"
	 xmlns="http://www.w3.org/2000/svg" xmlns:xlink="http://www.w3.org/1999/xlink" x="0px" y="0px" viewBox="0 0 32 32"
	 style="enable-background:new 0 0 32 32;" xml:space="preserve">
<style type="text/css">
	.Yellow{fill:#FFB115;}
	.Red{fill:#D11C1C;}
	.st0{opacity:0.75;}
</style>
<path class="Yellow" d="M26,28L22,4l6,22L26,28z M14,26L8,4l4,24L14,26z"/>
<path class="Red" d="M25,15l3,11l-2,2l-2-12L25,15z M11,22l1,6l2-2l-1.5-5.5L11,22z"/>
<g class="st0">
	<path class="Red" d="M24,16l2,12h-8l2-12H24z M5,22l-1,6h8l-1-6H5z"/>
	<path class="Yellow" d="M24,16h-4l2-12L24,16z M11,22L8,4L5,22H11z"/>
</g>
</svg>
