<?xml version="1.0" encoding="utf-8"?>
<!-- Generator: Adobe Illustrator 21.0.2, SVG Export Plug-In . SVG Version: 6.00 Build 0)  -->
<svg version="1.1" id="Create_Cone_Stacked_Bar_3D_Chart"
	 xmlns="http://www.w3.org/2000/svg" xmlns:xlink="http://www.w3.org/1999/xlink" x="0px" y="0px" viewBox="0 0 32 32"
	 style="enable-background:new 0 0 32 32;" xml:space="preserve">
<style type="text/css">
	.Yellow{fill:#FFB115;}
	.Green{fill:#039C23;}
</style>
<path class="Green" d="M8,20l2,6c0,1.1-1.8,2-4,2s-4-0.9-4-2l2-6H8z M14,18l-2,8c0,1.1,1.8,2,4,2s4-0.9,4-2l-2-8H14z M24,14l-2,12
	c0,1.1,1.8,2,4,2s4-0.9,4-2l-2-12H24z"/>
<path class="Yellow" d="M28,14c0,0.6-0.9,1-2,1s-2-0.4-2-1l2-11L28,14z M16,10l-1.9,7.8c0,0.1-0.1,0.1-0.1,0.2c0,0.6,0.9,1,2,1
	s2-0.4,2-1c0-0.1,0-0.2-0.1-0.2L16,10z M6,14l-1.9,5.7C4,19.8,4,19.9,4,20c0,0.6,0.9,1,2,1s2-0.4,2-1c0-0.1,0-0.2-0.1-0.3L6,14z"/>
</svg>
