<?xml version="1.0" encoding="utf-8"?>
<!-- Generator: Adobe Illustrator 21.0.2, SVG Export Plug-In . SVG Version: 6.00 Build 0)  -->
<svg version="1.1" id="Create_Exploded_Pie_3D_Chart"
	 xmlns="http://www.w3.org/2000/svg" xmlns:xlink="http://www.w3.org/1999/xlink" x="0px" y="0px" viewBox="0 0 32 32"
	 style="enable-background:new 0 0 32 32;" xml:space="preserve">
<style type="text/css">
	.Blue{fill:#1177D7;}
	.Red{fill:#D11C1C;}
	.st0{opacity:0.65;}
	.st1{opacity:0.85;}
</style>
<path class="Red" d="M0,13v6v0c0,5,6.3,9,14,9c3.9,0,7.2-1,9.7-2.6l0,0v-6C21.2,21,17.9,22,14,22C6.3,22,0,18,0,13z"/>
<g class="st0">
	<path class="Blue" d="M18,4v9l9.7,6.4c2.5-1.6,4.3-3.9,4.3-6.4C32,8,25.7,4,18,4z"/>
	<path class="Red" d="M14,4C6.3,4,0,8,0,13c0,5,6.3,9,14,9c3.9,0,7.2-1,9.7-2.6L14,13V4z"/>
</g>
<g class="st1">
	<polygon class="Blue" points="27.7,19.4 27.7,19.4 18,13 18,15.6 23.7,19.4 23.7,19.4 23.7,22.7 27.7,25.4 27.7,25.4 	"/>
</g>
<path class="Blue" d="M27.7,19.4C27.7,19.4,27.7,19.4,27.7,19.4l0,6c2.5-1.6,4.3-3.9,4.3-6.4v-6C32,15.5,30.2,17.7,27.7,19.4z"/>
</svg>
