<?xml version="1.0" encoding="utf-8"?>
<!-- Generator: Adobe Illustrator 21.0.2, SVG Export Plug-In . SVG Version: 6.00 Build 0)  -->
<svg version="1.1" id="Create_Bar_3D_Chart" xmlns="http://www.w3.org/2000/svg" xmlns:xlink="http://www.w3.org/1999/xlink"
	 x="0px" y="0px" viewBox="0 0 32 32" style="enable-background:new 0 0 32 32;" xml:space="preserve">
<style type="text/css">
	.Blue{fill:#1177D7;}
	.Yellow{fill:#FFB115;}
	.Red{fill:#D11C1C;}
	.st0{opacity:0.75;}
	.st1{opacity:0.5;}
</style>
<g class="st0">
	<path class="Yellow" d="M6,28H0V16h6V28z M22,6h-6v22h6V6z"/>
</g>
<g class="st1">
	<path class="Yellow" d="M6,14v2H0l2-2H6z M18,4l-2,2h8V4H18z"/>
</g>
<polygon class="Yellow" points="24,8 22,10 22,6 24,4 "/>
<g class="st0">
	<path class="Blue" d="M12,28H6V10h6V28z M28,10h-6v18h6V10z"/>
</g>
<g class="st1">
	<path class="Blue" d="M14,8v2H6l2-2H14z M24,8l-2,2h8V8H24z"/>
</g>
<path class="Blue" d="M14,26l-2,2V10l2-2V26z M30,8l-2,2v18l2-2V8z"/>
</svg>
