<?xml version="1.0" encoding="utf-8"?>
<!-- Generator: Adobe Illustrator 21.0.2, SVG Export Plug-In . SVG Version: 6.00 Build 0)  -->
<svg version="1.1" id="Create_Cone_Manhattan_Bar_Chart"
	 xmlns="http://www.w3.org/2000/svg" xmlns:xlink="http://www.w3.org/1999/xlink" x="0px" y="0px" viewBox="0 0 32 32"
	 style="enable-background:new 0 0 32 32;" xml:space="preserve">
<style type="text/css">
	.Yellow{fill:#FFB115;}
	.Green{fill:#039C23;}
</style>
<path class="Green" d="M12,22c0,1.1-1.3,2-3,2c-1.7,0-3-0.9-3-2l3-10L12,22z M17,8l-3,14c0,1.1,1.3,2,3,2c1.7,0,3-0.9,3-2L17,8z
	 M25,4l-3,18c0,1.1,1.3,2,3,2c1.7,0,3-0.9,3-2L25,4z"/>
<path class="Yellow" d="M8,26c0,1.1-1.3,2-3,2c-1.7,0-3-0.9-3-2l3-8L8,26z M13,14l-3,12c0,1.1,1.3,2,3,2c1.7,0,3-0.9,3-2L13,14z
	 M21,10l-3,16c0,1.1,1.3,2,3,2c1.7,0,3-0.9,3-2L21,10z"/>
</svg>
