<?xml version="1.0" encoding="utf-8"?>
<!-- Generator: Adobe Illustrator 21.0.2, SVG Export Plug-In . SVG Version: 6.00 Build 0)  -->
<svg version="1.1" id="Create_Rotated_Stacked_Cylinder_Bar_3D_Chart"
	 xmlns="http://www.w3.org/2000/svg" xmlns:xlink="http://www.w3.org/1999/xlink" x="0px" y="0px" viewBox="0 0 32 32"
	 style="enable-background:new 0 0 32 32;" xml:space="preserve">
<style type="text/css">
	.Blue{fill:#1177D7;}
	.Red{fill:#D11C1C;}
	.st0{opacity:0.75;}
</style>
<path class="Blue" d="M20,6c0,2.2-0.9,4-2,4c-1.1,0-2-1.8-2-4s0.9-4,2-4C19.1,2,20,3.8,20,6z M22,12c-1.1,0-2,1.8-2,4s0.9,4,2,4
	c1.1,0,2-1.8,2-4S23.1,12,22,12z M28,22c-1.1,0-2,1.8-2,4s0.9,4,2,4c1.1,0,2-1.8,2-4S29.1,22,28,22z"/>
<g class="st0">
	<path class="Blue" d="M18,10h-6c-1.1,0-2-1.8-2-4s0.9-4,2-4h6c-1.1,0-2,1.8-2,4S16.9,10,18,10z M20,16c0-2.2,0.9-4,2-4h-6
		c-1.1,0-2,1.8-2,4s0.9,4,2,4h6C20.9,20,20,18.2,20,16z M26,26c0-2.2,0.9-4,2-4h-6c-1.1,0-2,1.8-2,4s0.9,4,2,4h6
		C26.9,30,26,28.2,26,26z"/>
	<path class="Red" d="M12,10H6c-1.1,0-2-1.8-2-4s0.9-4,2-4h6c-1.1,0-2,1.8-2,4S10.9,10,12,10z M14,16c0-2.2,0.9-4,2-4H6
		c-1.1,0-2,1.8-2,4s0.9,4,2,4h10C14.9,20,14,18.2,14,16z M20,26c0-2.2,0.9-4,2-4H6c-1.1,0-2,1.8-2,4s0.9,4,2,4h16
		C20.9,30,20,28.2,20,26z"/>
</g>
</svg>
