<?xml version="1.0" encoding="utf-8"?>
<!-- Generator: Adobe Illustrator 21.0.2, SVG Export Plug-In . SVG Version: 6.00 Build 0)  -->
<svg version="1.1" id="Create_Scatter_Chart_Lines_And_Markers"
	 xmlns="http://www.w3.org/2000/svg" xmlns:xlink="http://www.w3.org/1999/xlink" x="0px" y="0px" viewBox="0 0 32 32"
	 style="enable-background:new 0 0 32 32;" xml:space="preserve">
<style type="text/css">
	.Blue{fill:#1177D7;}
	.Yellow{fill:#FFB115;}
</style>
<path class="Yellow" d="M6,12c0,1.1-0.9,2-2,2c-1.1,0-2-0.9-2-2s0.9-2,2-2C5.1,10,6,10.9,6,12z M8,2C6.9,2,6,2.9,6,4s0.9,2,2,2
	c1.1,0,2-0.9,2-2S9.1,2,8,2z M20,24c-1.1,0-2,0.9-2,2s0.9,2,2,2c1.1,0,2-0.9,2-2S21.1,24,20,24z M28,16c-1.1,0-2,0.9-2,2s0.9,2,2,2
	c1.1,0,2-0.9,2-2S29.1,16,28,16z M5.8,6.1L4.4,9c0.7,0.1,1.3,0.4,1.8,0.9l1.5-3C6.9,6.9,6.3,6.6,5.8,6.1z M19.5,23.1l-6.6-11.5
	l-2.7-5.4C9.7,6.6,9.1,6.9,8.4,7l2.7,5.5l6.6,11.6C18.2,23.5,18.8,23.2,19.5,23.1z M25.3,19.3l-4,4c0.6,0.3,1.1,0.8,1.4,1.4l4-4
	C26.1,20.4,25.6,19.9,25.3,19.3z"/>
<path class="Blue" d="M6,24c0,1.1-0.9,2-2,2c-1.1,0-2-0.9-2-2s0.9-2,2-2C5.1,22,6,22.9,6,24z M28,4c-1.1,0-2,0.9-2,2s0.9,2,2,2
	c1.1,0,2-0.9,2-2S29.1,4,28,4z M20,14c-1.1,0-2,0.9-2,2s0.9,2,2,2c1.1,0,2-0.9,2-2S21.1,14,20,14z M17,16.4l-11,5.5
	c0.5,0.5,0.8,1.1,0.9,1.8l11-5.5C17.4,17.7,17.1,17.1,17,16.4z M25.5,7.6L21,13.2c0.7,0.2,1.2,0.7,1.6,1.2L27,8.8
	C26.4,8.6,25.8,8.2,25.5,7.6z"/>
</svg>
