<?xml version="1.0" encoding="utf-8"?>
<!-- Generator: Adobe Illustrator 21.0.2, SVG Export Plug-In . SVG Version: 6.00 Build 0)  -->
<svg version="1.1" id="Create_Scatter_Chart_Smooth_Lines"
	 xmlns="http://www.w3.org/2000/svg" xmlns:xlink="http://www.w3.org/1999/xlink" x="0px" y="0px" viewBox="0 0 32 32"
	 style="enable-background:new 0 0 32 32;" xml:space="preserve">
<style type="text/css">
	.Blue{fill:#1177D7;}
	.Yellow{fill:#FFB115;}
</style>
<path class="Blue" d="M3,24c0-3.5,2.4-5.6,4.6-6.6l0,0c2.2-1.1,4.3-1.3,4.4-1.4l0,0c0,0,0.9-0.1,2.4-0.3l0,0
	c1.5-0.2,3.4-0.7,5.3-1.4l0,0C23.5,12.8,27,10.4,27,6l0,0h2c0,5.6-4.5,8.7-8.6,10.2l0,0c-4.2,1.6-8.2,1.8-8.2,1.8l0,0
	c0,0-0.4,0.1-1.1,0.2l0,0c-0.7,0.2-1.6,0.5-2.5,0.9l0,0C6.6,20.1,5,21.5,5,24l0,0H3L3,24z"/>
<path class="Yellow" d="M19.9,28L19.9,28c0.1,0,0.1,0,0.1,0l0,0h0c0,0,0.1,0,0.1,0l0,0c0,0-0.1,0-0.1,0l0,0C20,28,19.9,28,19.9,28
	L19.9,28z M20,28C19.9,28,19.9,28,20,28L20,28C19.9,28,19.9,28,20,28L20,28h-0.3l0,0c-2.2-0.1-3.9-1.2-5.1-2.7l0,0
	c-1.3-1.6-2-3.6-2.6-5.5l0,0c-1-3.9-1-7.7-1-7.8l0,0c0,0,0-0.9-0.2-2l0,0c-0.2-1.1-0.6-2.5-1.2-3.2l0,0C9.1,6.3,8.7,6,8,6l0,0
	C7.3,6,6.9,6.3,6.4,6.7l0,0C6,7.2,5.7,8,5.5,8.8l0,0C5,10.4,5,12,5,12l0,0H3c0-0.1-0.1-4.1,1.9-6.6l0,0C5.6,4.6,6.7,4,8,4l0,0
	c1.3,0,2.4,0.6,3.1,1.4l0,0c0.7,0.8,1.1,1.8,1.4,2.8l0,0C13,10.1,13,11.9,13,12l0,0c0,0,0,2,0.4,4.6l0,0c0.4,2.6,1.3,5.6,2.7,7.4
	l0,0c1,1.2,2.2,2,3.8,2l0,0v0l0,0l0,0v0c2.6,0,4.1-1.3,5.2-3l0,0c1.1-1.7,1.5-3.9,1.7-5.4l0,0C27,16.6,27,16,27,16l0,0h2
	c0,0.1,0,2.9-1.1,5.8l0,0c-1,2.9-3.4,6.1-7.8,6.2l0,0c0,0,0.1,0,0.1,0l0,0C20.1,28,20.1,28,20,28L20,28L20,28L20,28z M20.7,27.7
	C20.7,27.7,20.7,27.7,20.7,27.7L20.7,27.7c0.1-0.1,0.2-0.2,0.2-0.3l0,0l0,0C20.9,27.5,20.8,27.6,20.7,27.7L20.7,27.7z"/>
</svg>
