<?xml version="1.0" encoding="utf-8"?>
<!-- Generator: Adobe Illustrator 21.0.2, SVG Export Plug-In . SVG Version: 6.00 Build 0)  -->
<svg version="1.1" id="Create_Rotated_Stacked_Cone_Bar_3D_Chart"
	 xmlns="http://www.w3.org/2000/svg" xmlns:xlink="http://www.w3.org/1999/xlink" x="0px" y="0px" viewBox="0 0 32 32"
	 style="enable-background:new 0 0 32 32;" xml:space="preserve">
<style type="text/css">
	.Red{fill:#D11C1C;}
	.Yellow{fill:#FFB115;}
</style>
<path class="Yellow" d="M12,8l-6,2c-1.1,0-2-1.8-2-4s0.9-4,2-4l6,2V8z M14,14l-8-2c-1.1,0-2,1.8-2,4s0.9,4,2,4l8-2V14z M18,24L6,22
	c-1.1,0-2,1.8-2,4s0.9,4,2,4l12-2V24z"/>
<path class="Red" d="M29,26l-11,2c-0.6,0-1-0.9-1-2s0.4-2,1-2L29,26z M18,6l-5.7-1.9C12.2,4,12.1,4,12,4c-0.6,0-1,0.9-1,2s0.4,2,1,2
	c0.1,0,0.2,0,0.3-0.1L18,6z M22,16l-7.8-1.9C14.2,14,14.1,14,14,14c-0.6,0-1,0.9-1,2s0.4,2,1,2c0.1,0,0.2,0,0.2-0.1L22,16z"/>
</svg>
