<?xml version="1.0" encoding="utf-8"?>
<!-- Generator: Adobe Illustrator 21.0.2, SVG Export Plug-In . SVG Version: 6.00 Build 0)  -->
<svg version="1.1" id="Create_Radar_Line_Chart" xmlns="http://www.w3.org/2000/svg" xmlns:xlink="http://www.w3.org/1999/xlink"
	 x="0px" y="0px" viewBox="0 0 32 32" style="enable-background:new 0 0 32 32;" xml:space="preserve">
<style type="text/css">
	.Black{fill:#727272;}
	.Red{fill:#D11C1C;}
	.st0{opacity:0.5;}
</style>
<g class="st0">
	<path class="Black" d="M16,0C7.2,0,0,7.2,0,16s7.2,16,16,16c8.8,0,16-7.2,16-16S24.8,0,16,0z M16,30C8.3,30,2,23.7,2,16S8.3,2,16,2
		c7.7,0,14,6.3,14,14S23.7,30,16,30z"/>
	<path class="Black" d="M16,6C10.5,6,6,10.5,6,16s4.5,10,10,10c5.5,0,10-4.5,10-10S21.5,6,16,6z M16,24c-4.4,0-8-3.6-8-8s3.6-8,8-8
		c4.4,0,8,3.6,8,8S20.4,24,16,24z"/>
	<path class="Black" d="M16,12c-2.2,0-4,1.8-4,4s1.8,4,4,4s4-1.8,4-4S18.2,12,16,12z M16,18c-1.1,0-2-0.9-2-2s0.9-2,2-2
		c1.1,0,2,0.9,2,2S17.1,18,16,18z"/>
</g>
<path class="Red" d="M8,14c0,1.1-0.9,2-2,2c-1.1,0-2-0.9-2-2s0.9-2,2-2C7.1,12,8,12.9,8,14z M16,2c-1.1,0-2,0.9-2,2s0.9,2,2,2
	c1.1,0,2-0.9,2-2S17.1,2,16,2z M20,12c-1.1,0-2,0.9-2,2s0.9,2,2,2c1.1,0,2-0.9,2-2S21.1,12,20,12z M26,16c-1.1,0-2,0.9-2,2
	s0.9,2,2,2c1.1,0,2-0.9,2-2S27.1,16,26,16z M18,24c-1.1,0-2,0.9-2,2s0.9,2,2,2c1.1,0,2-0.9,2-2S19.1,24,18,24z M8.7,12.7l6-6
	c-0.6-0.3-1.1-0.8-1.4-1.4l-6,6C7.9,11.6,8.4,12.1,8.7,12.7z M19.9,11L18,6.2C17.5,6.7,16.8,7,16.1,7l1.9,4.8
	C18.5,11.3,19.2,11,19.9,11z M24.2,15.6l-1.3-0.9c-0.2,0.7-0.6,1.3-1.1,1.7l1.3,0.9C23.3,16.6,23.7,16,24.2,15.6z M16.7,23.3l-8-8
	c-0.3,0.6-0.8,1.1-1.4,1.4l8,8C15.6,24.1,16.1,23.6,16.7,23.3z M20.7,24.7l4-4c-0.6-0.3-1.1-0.8-1.4-1.4l-4,4
	C19.9,23.6,20.4,24.1,20.7,24.7z"/>
</svg>
