<?xml version="1.0" encoding="utf-8"?>
<!-- Generator: Adobe Illustrator 21.0.2, SVG Export Plug-In . SVG Version: 6.00 Build 0)  -->
<svg version="1.1" id="Create_Bubble_3D_Chart" xmlns="http://www.w3.org/2000/svg" xmlns:xlink="http://www.w3.org/1999/xlink"
	 x="0px" y="0px" viewBox="0 0 32 32" style="enable-background:new 0 0 32 32;" xml:space="preserve">
<style type="text/css">
	.Blue{fill:#1177D7;}
	.Red{fill:#D11C1C;}
	.Yellow{fill:#FFB115;}
	.Green{fill:#039C23;}
</style>
<path class="Yellow" d="M11,14c-3.9,0-7,3.1-7,7s3.1,7,7,7c3.9,0,7-3.1,7-7S14.9,14,11,14z M9,21c-1.1,0-2-0.9-2-2s0.9-2,2-2
	c1.1,0,2,0.9,2,2S10.1,21,9,21z"/>
<path class="Red" d="M12,2C9.8,2,8,3.8,8,6c0,2.2,1.8,4,4,4s4-1.8,4-4C16,3.8,14.2,2,12,2z M11,6c-0.6,0-1-0.4-1-1s0.4-1,1-1
	c0.6,0,1,0.4,1,1S11.6,6,11,6z"/>
<path class="Green" d="M24,20c-1.1,0-2,0.9-2,2c0,1.1,0.9,2,2,2c1.1,0,2-0.9,2-2C26,20.9,25.1,20,24,20z M23.5,22
	c-0.3,0-0.5-0.2-0.5-0.5s0.2-0.5,0.5-0.5c0.3,0,0.5,0.2,0.5,0.5S23.8,22,23.5,22z"/>
<path class="Blue" d="M23,6c-2.8,0-5,2.2-5,5c0,2.8,2.2,5,5,5c2.8,0,5-2.2,5-5C28,8.2,25.8,6,23,6z M21.5,11c-0.8,0-1.5-0.7-1.5-1.5
	S20.7,8,21.5,8C22.3,8,23,8.7,23,9.5S22.3,11,21.5,11z"/>
</svg>
