<?xml version="1.0" encoding="utf-8"?>
<!-- Generator: Adobe Illustrator 21.0.2, SVG Export Plug-In . SVG Version: 6.00 Build 0)  -->
<svg version="1.1" id="Create_Cylinder_Full_Stacked_Bar_3D_Chart"
	 xmlns="http://www.w3.org/2000/svg" xmlns:xlink="http://www.w3.org/1999/xlink" x="0px" y="0px" viewBox="0 0 32 32"
	 style="enable-background:new 0 0 32 32;" xml:space="preserve">
<style type="text/css">
	.Blue{fill:#1177D7;}
	.Red{fill:#D11C1C;}
	.Yellow{fill:#FFB115;}
	.st0{opacity:0.5;}
</style>
<g class="st0">
	<path class="Blue" d="M10,6v8H2V6c0-1.1,1.8-2,4-2S10,4.9,10,6z M16,4c-2.2,0-4,0.9-4,2v8h8V6C20,4.9,18.2,4,16,4z M26,4
		c-2.2,0-4,0.9-4,2v8h8V6C30,4.9,28.2,4,26,4z"/>
</g>
<path class="Blue" d="M10,6v10c0,1.1-1.8,2-4,2s-4-0.9-4-2V6c0,1.1,1.8,2,4,2S10,7.1,10,6z M16,8c-2.2,0-4-0.9-4-2v10
	c0,1.1,1.8,2,4,2s4-0.9,4-2V6C20,7.1,18.2,8,16,8z M26,8c-2.2,0-4-0.9-4-2v10c0,1.1,1.8,2,4,2s4-0.9,4-2V6C30,7.1,28.2,8,26,8z"/>
<path class="Yellow" d="M10,12v10c0,1.1-1.8,2-4,2s-4-0.9-4-2V12c0,1.1,1.8,2,4,2S10,13.1,10,12z M16,12c-2.2,0-4-0.9-4-2v14
	c0,1.1,1.8,2,4,2s4-0.9,4-2V10C20,11.1,18.2,12,16,12z M26,16c-2.2,0-4-0.9-4-2v10c0,1.1,1.8,2,4,2s4-0.9,4-2V14
	C30,15.1,28.2,16,26,16z"/>
<path class="Red" d="M10,18v8c0,1.1-1.8,2-4,2s-4-0.9-4-2v-8c0,1.1,1.8,2,4,2S10,19.1,10,18z M16,22c-2.2,0-4-0.9-4-2v6
	c0,1.1,1.8,2,4,2s4-0.9,4-2v-6C20,21.1,18.2,22,16,22z M26,20c-2.2,0-4-0.9-4-2v8c0,1.1,1.8,2,4,2s4-0.9,4-2v-8
	C30,19.1,28.2,20,26,20z"/>
</svg>
