<?xml version="1.0" encoding="utf-8"?>
<!-- Generator: Adobe Illustrator 21.0.2, SVG Export Plug-In . SVG Version: 6.00 Build 0)  -->
<svg version="1.1" id="Create_Radar_Line_Chart_Filled"
	 xmlns="http://www.w3.org/2000/svg" xmlns:xlink="http://www.w3.org/1999/xlink" x="0px" y="0px" viewBox="0 0 32 32"
	 style="enable-background:new 0 0 32 32;" xml:space="preserve">
<style type="text/css">
	.Black{fill:#727272;}
	.Red{fill:#D11C1C;}
	.st0{opacity:0.5;}
	.st1{opacity:0.75;}
</style>
<g class="st0">
	<path class="Black" d="M16,0C7.2,0,0,7.2,0,16s7.2,16,16,16c8.8,0,16-7.2,16-16S24.8,0,16,0z M16,30C8.3,30,2,23.7,2,16S8.3,2,16,2
		c7.7,0,14,6.3,14,14S23.7,30,16,30z"/>
	<path class="Black" d="M16,6C10.5,6,6,10.5,6,16s4.5,10,10,10c5.5,0,10-4.5,10-10S21.5,6,16,6z M16,24c-4.4,0-8-3.6-8-8s3.6-8,8-8
		s8,3.6,8,8S20.4,24,16,24z"/>
	<path class="Black" d="M16,12c-2.2,0-4,1.8-4,4s1.8,4,4,4s4-1.8,4-4S18.2,12,16,12z M16,18c-1.1,0-2-0.9-2-2s0.9-2,2-2
		c1.1,0,2,0.9,2,2S17.1,18,16,18z"/>
</g>
<path class="Red" d="M8,14c0,1.1-0.9,2-2,2c-1.1,0-2-0.9-2-2s0.9-2,2-2C7.1,12,8,12.9,8,14z M16,2c-1.1,0-2,0.9-2,2s0.9,2,2,2
	c1.1,0,2-0.9,2-2S17.1,2,16,2z M20,12c-1.1,0-2,0.9-2,2s0.9,2,2,2c1.1,0,2-0.9,2-2S21.1,12,20,12z M26,16c-1.1,0-2,0.9-2,2
	s0.9,2,2,2c1.1,0,2-0.9,2-2S27.1,16,26,16z M18,24c-1.1,0-2,0.9-2,2s0.9,2,2,2c1.1,0,2-0.9,2-2S19.1,24,18,24z"/>
<g class="st1">
	<path class="Red" d="M15.9,23.9c0.5-0.5,1.3-0.9,2.1-0.9c0.8,0,1.6,0.3,2.1,0.9l3.8-3.8C23.3,19.6,23,18.8,23,18
		c0-0.6,0.2-1.2,0.5-1.7l-1-0.7C22,16.5,21,17,20,17c-1.7,0-3-1.3-3-3c0-1.3,0.8-2.3,1.9-2.8l-1.8-4.4C16.8,6.9,16.4,7,16,7
		c-0.8,0-1.6-0.3-2.1-0.9l-5.8,5.8C8.7,12.4,9,13.2,9,14s-0.3,1.6-0.9,2.1L15.9,23.9z"/>
</g>
</svg>
