<?xml version="1.0" encoding="utf-8"?>
<!-- Generator: Adobe Illustrator 21.0.2, SVG Export Plug-In . SVG Version: 6.00 Build 0)  -->
<svg version="1.1" id="Create_Cylinder_Bar_3D_Chart"
	 xmlns="http://www.w3.org/2000/svg" xmlns:xlink="http://www.w3.org/1999/xlink" x="0px" y="0px" viewBox="0 0 32 32"
	 style="enable-background:new 0 0 32 32;" xml:space="preserve">
<style type="text/css">
	.Blue{fill:#1177D7;}
	.Red{fill:#D11C1C;}
	.st0{opacity:0.5;}
</style>
<g class="st0">
	<path class="Red" d="M2,16c0-1.1,1.3-2,3-2c1.7,0,3,0.9,3,2s-1.3,2-3,2C3.3,18,2,17.1,2,16z M21,14c1.7,0,3-0.9,3-2s-1.3-2-3-2
		c-1.7,0-3,0.9-3,2S19.3,14,21,14z"/>
</g>
<path class="Red" d="M8,16v10c0,1.1-1.3,2-3,2c-1.7,0-3-0.9-3-2V16c0,1.1,1.3,2,3,2C6.7,18,8,17.1,8,16z M21,14c-1.7,0-3-0.9-3-2v14
	c0,1.1,1.3,2,3,2c1.7,0,3-0.9,3-2V12C24,13.1,22.7,14,21,14z"/>
<g class="st0">
	<path class="Blue" d="M8,6c0-1.1,1.3-2,3-2c1.7,0,3,0.9,3,2s-1.3,2-3,2C9.3,8,8,7.1,8,6z M27,20c1.7,0,3-0.9,3-2s-1.3-2-3-2
		c-1.7,0-3,0.9-3,2S25.3,20,27,20z"/>
</g>
<path class="Blue" d="M14,6v20c0,1.1-1.3,2-3,2c-1.7,0-3-0.9-3-2V6c0,1.1,1.3,2,3,2C12.7,8,14,7.1,14,6z M27,20c-1.7,0-3-0.9-3-2v8
	c0,1.1,1.3,2,3,2c1.7,0,3-0.9,3-2v-8C30,19.1,28.7,20,27,20z"/>
</svg>
