<?xml version="1.0" encoding="utf-8"?>
<!-- Generator: Adobe Illustrator 21.0.2, SVG Export Plug-In . SVG Version: 6.00 Build 0)  -->
<svg version="1.1" id="Create_Exploded_Doughnut_Chart"
	 xmlns="http://www.w3.org/2000/svg" xmlns:xlink="http://www.w3.org/1999/xlink" x="0px" y="0px" viewBox="0 0 32 32"
	 style="enable-background:new 0 0 32 32;" xml:space="preserve">
<style type="text/css">
	.Blue{fill:#1177D7;}
	.Red{fill:#D11C1C;}
</style>
<path class="Red" d="M8,17c0,3.9,3.1,7,7,7c1.6,0,3-0.5,4.2-1.4l5.7,5.7c-2.6,2.3-6.1,3.7-9.9,3.7c-8.3,0-15-6.7-15-15
	C0,9,6.2,2.5,14,2v8.1C10.6,10.6,8,13.5,8,17z"/>
<path class="Blue" d="M24,14.9c0,1.6-0.5,3-1.4,4.2l5.7,5.7c2.3-2.6,3.7-6.1,3.7-9.8C32,7,25.8,0.5,18,0v8C21.4,8.5,24,11.4,24,14.9
	z"/>
</svg>
