<?xml version="1.0" encoding="utf-8"?>
<!-- Generator: Adobe Illustrator 21.0.2, SVG Export Plug-In . SVG Version: 6.00 Build 0)  -->
<svg version="1.1" id="Create_Rotated_Bar_3D_Chart"
	 xmlns="http://www.w3.org/2000/svg" xmlns:xlink="http://www.w3.org/1999/xlink" x="0px" y="0px" viewBox="0 0 32 32"
	 style="enable-background:new 0 0 32 32;" xml:space="preserve">
<style type="text/css">
	.Yellow{fill:#FFB115;}
	.Blue{fill:#1177D7;}
	.st0{opacity:0.75;}
	.st1{opacity:0.5;}
</style>
<path class="Blue" d="M18,28l-2,2v-6h2V28z M28,6l-2,2v6l2-2V6z"/>
<g class="st0">
	<path class="Blue" d="M16,24v6H4v-6H16z M4,8v6h22V8H4z"/>
	<path class="Yellow" d="M22,18v6H4v-6H22z M4,2v6h18V2H4z"/>
</g>
<path class="Yellow" d="M24,22l-2,2v-6l2-2V22z M24,0l-2,2v6l2-2V0z"/>
<g class="st1">
	<polygon class="Blue" points="24,6 22,8 26,8 28,6 	"/>
	<path class="Yellow" d="M24,16l-2,2H4l2-2H24z M6,0L4,2h18l2-2H6z"/>
</g>
</svg>
