<?xml version="1.0" encoding="utf-8"?>
<!-- Generator: Adobe Illustrator 21.0.2, SVG Export Plug-In . SVG Version: 6.00 Build 0)  -->
<svg version="1.1" id="Create_Cone_Bar_3D_Chart" xmlns="http://www.w3.org/2000/svg" xmlns:xlink="http://www.w3.org/1999/xlink"
	 x="0px" y="0px" viewBox="0 0 32 32" style="enable-background:new 0 0 32 32;" xml:space="preserve">
<style type="text/css">
	.Yellow{fill:#FFB115;}
	.Green{fill:#039C23;}
</style>
<path class="Green" d="M8,26c0,1.1-1.3,2-3,2c-1.7,0-3-0.9-3-2l3-10L8,26z M21,4l-3,22c0,1.1,1.3,2,3,2c1.7,0,3-0.9,3-2L21,4z"/>
<path class="Yellow" d="M14,26c0,1.1-1.3,2-3,2c-1.7,0-3-0.9-3-2l3-18L14,26z M27,12l-3,14c0,1.1,1.3,2,3,2c1.7,0,3-0.9,3-2L27,12z"
	/>
</svg>
