<?xml version="1.0" encoding="utf-8"?>
<!-- Generator: Adobe Illustrator 21.0.2, SVG Export Plug-In . SVG Version: 6.00 Build 0)  -->
<svg version="1.1" id="CreateScatter_Chart_Smooth_Lines_And_Markers"
	 xmlns="http://www.w3.org/2000/svg" xmlns:xlink="http://www.w3.org/1999/xlink" x="0px" y="0px" viewBox="0 0 32 32"
	 style="enable-background:new 0 0 32 32;" xml:space="preserve">
<style type="text/css">
	.Blue{fill:#1177D7;}
	.Red{fill:#D11C1C;}
	.Yellow{fill:#FFB115;}
</style>
<path class="Blue" d="M6,23c0,1.1-0.9,2-2,2c-1.1,0-2-0.9-2-2s0.9-2,2-2C5.1,21,6,21.9,6,23z M28,4c-1.1,0-2,0.9-2,2s0.9,2,2,2
	c1.1,0,2-0.9,2-2S29.1,4,28,4z M17,15.1c-1,0.3-1.9,0.4-2.7,0.6c-1.5,0.2-2.4,0.3-2.4,0.3c-0.1,0-2.2,0.3-4.4,1.4
	c-1.2,0.6-2.4,1.4-3.3,2.7c0.7,0.1,1.4,0.4,1.8,0.9c0.6-0.7,1.4-1.3,2.3-1.7c0.9-0.5,1.8-0.7,2.5-0.9c0.7-0.2,1.1-0.2,1.1-0.2
	c0,0,2.5-0.2,5.7-1C17.3,16.5,17,15.9,17,15.1z M28,9c-0.5,0-1-0.2-1.5-0.4c-0.7,1.9-2.3,3.4-4.2,4.5c0.4,0.5,0.7,1.2,0.7,1.9
	c2.4-1.3,4.6-3.3,5.5-6C28.4,9,28.2,9,28,9z M20,13c-1.1,0-2,0.9-2,2s0.9,2,2,2c1.1,0,2-0.9,2-2S21.1,13,20,13z"/>
<path class="Yellow" d="M17,26.3c-1-0.5-1.8-1.2-2.4-2c-1.3-1.6-2-3.6-2.6-5.5c-0.4-1.3-0.6-2.7-0.7-3.9C11.5,15,11.8,15,12,15
	c0.5,0,0.9-0.1,1.3-0.3c0,0.3,0.1,0.6,0.1,0.9c0.4,2.6,1.2,5.6,2.7,7.4c0.4,0.5,0.9,0.9,1.4,1.3C17.2,24.8,17,25.4,17,26
	C17,26.1,17,26.2,17,26.3z M12.8,9.1c-0.1-0.4-0.2-0.9-0.4-1.4C11.9,6,10.6,4,8,4C6.7,4,5.6,4.6,4.9,5.4C4,6.5,3.6,7.9,3.3,9.1
	C3.5,9,3.8,9,4,9c0.5,0,0.9,0.1,1.3,0.3c0-0.2,0.1-0.4,0.1-0.5c0.2-0.8,0.6-1.5,1-2C6.9,6.3,7.3,6,8,6c1.4,0,2.1,1,2.6,2.3
	c0.1,0.3,0.2,0.6,0.2,0.9C11.2,9.1,11.6,9,12,9C12.3,9,12.5,9.1,12.8,9.1z M28,19c-0.5,0-0.9-0.1-1.3-0.3c-0.3,1.2-0.7,2.5-1.4,3.6
	c-0.7,1-1.5,1.8-2.6,2.2C22.8,25,23,25.5,23,26c0,0.2,0,0.4-0.1,0.5c2.6-0.9,4.2-3.1,5-5.1c0.3-0.9,0.6-1.7,0.7-2.4
	C28.4,19,28.2,19,28,19z M4,10c-1.1,0-2,0.9-2,2s0.9,2,2,2c1.1,0,2-0.9,2-2S5.1,10,4,10z M12,10c-1.1,0-2,0.9-2,2s0.9,2,2,2
	c1.1,0,2-0.9,2-2S13.1,10,12,10z M20,24c-1.1,0-2,0.9-2,2s0.9,2,2,2c1.1,0,2-0.9,2-2S21.1,24,20,24z M28,14c-1.1,0-2,0.9-2,2
	s0.9,2,2,2c1.1,0,2-0.9,2-2S29.1,14,28,14z"/>
</svg>
