<?xml version="1.0" encoding="utf-8"?>
<!-- Generator: Adobe Illustrator 21.0.2, SVG Export Plug-In . SVG Version: 6.00 Build 0)  -->
<svg version="1.1" id="Create_Stacked_Line_Chart" xmlns="http://www.w3.org/2000/svg" xmlns:xlink="http://www.w3.org/1999/xlink"
	 x="0px" y="0px" viewBox="0 0 32 32" style="enable-background:new 0 0 32 32;" xml:space="preserve">
<style type="text/css">
	.Blue{fill:#1177D7;}
	.Yellow{fill:#FFB115;}
	.Red{fill:#D11C1C;}
</style>
<path class="Red" d="M29,0c-1.7,0-3,1.3-3,3c0,0.2,0,0.4,0.1,0.5l-9.1,5.2C16.4,8.3,15.7,8,15,8c-0.8,0-1.5,0.3-2.1,0.8L6,5.4
	C6,5.3,6,5.1,6,5c0-1.7-1.3-3-3-3C1.3,2,0,3.4,0,5c0,1.7,1.3,3,3,3c0.8,0,1.5-0.3,2.1-0.8l7,3.5c0,0.1,0,0.2,0,0.4c0,1.7,1.3,3,3,3
	c1.7,0,3-1.3,3-3c0-0.2,0-0.4-0.1-0.5l9.1-5.2C27.6,5.7,28.3,6,29,6c1.7,0,3-1.3,3-3C32,1.4,30.7,0,29,0z M3,6C2.4,6,2,5.6,2,5
	c0-0.6,0.4-1,1-1c0.6,0,1,0.4,1,1C4,5.6,3.6,6,3,6z M15,12c-0.6,0-1-0.4-1-1c0-0.6,0.4-1,1-1c0.6,0,1,0.4,1,1C16,11.6,15.6,12,15,12
	z M29,4c-0.6,0-1-0.4-1-1c0-0.6,0.4-1,1-1c0.6,0,1,0.4,1,1C30,3.6,29.6,4,29,4z"/>
<path class="Yellow" d="M29,12c-1.6,0-2.9,1.2-3,2.8l-8.6,2.5C16.9,16.5,16,16,15,16c-1,0-1.8,0.5-2.4,1.2L6,15C6,13.3,4.6,12,3,12
	c-1.7,0-3,1.3-3,3c0,1.7,1.3,3,3,3c1,0,1.8-0.5,2.4-1.2l6.7,2.2c0,1.6,1.4,2.9,3,2.9c1.6,0,2.9-1.2,3-2.8l8.6-2.5
	C27.1,17.5,28,18,29,18c1.7,0,3-1.3,3-3C32,13.4,30.7,12,29,12z M3,16c-0.6,0-1-0.4-1-1c0-0.6,0.4-1,1-1c0.6,0,1,0.4,1,1
	C4,15.6,3.6,16,3,16z M15,20c-0.6,0-1-0.4-1-1c0-0.6,0.4-1,1-1c0.6,0,1,0.4,1,1C16,19.6,15.6,20,15,20z M29,16c-0.6,0-1-0.4-1-1
	c0-0.6,0.4-1,1-1c0.6,0,1,0.4,1,1C30,15.6,29.6,16,29,16z"/>
<path class="Blue" d="M29,26c-1.2,0-2.2,0.7-2.7,1.6l-8.4-1.2C17.7,25.1,16.5,24,15,24c-1.3,0-2.4,0.8-2.8,2H5.8
	c-0.4-1.2-1.5-2-2.8-2c-1.7,0-3,1.3-3,3c0,1.7,1.3,3,3,3c1.3,0,2.4-0.8,2.8-2h6.4c0.4,1.2,1.5,2,2.8,2c1.1,0,2.1-0.6,2.6-1.6
	l8.4,1.2C26.3,31,27.6,32,29,32c1.7,0,3-1.3,3-3C32,27.4,30.7,26,29,26z M3,28c-0.6,0-1-0.4-1-1c0-0.6,0.4-1,1-1c0.6,0,1,0.4,1,1
	C4,27.6,3.6,28,3,28z M15,28c-0.6,0-1-0.4-1-1c0-0.6,0.4-1,1-1c0.6,0,1,0.4,1,1C16,27.6,15.6,28,15,28z M29,30c-0.6,0-1-0.4-1-1
	c0-0.6,0.4-1,1-1c0.6,0,1,0.4,1,1C30,29.6,29.6,30,29,30z"/>
</svg>
