<?xml version="1.0" encoding="utf-8"?>
<!-- Generator: Adobe Illustrator 21.0.2, SVG Export Plug-In . SVG Version: 6.00 Build 0)  -->
<svg version="1.1" id="Create_Rotated_Stacked_Bar_3D_Chart_1_"
	 xmlns="http://www.w3.org/2000/svg" xmlns:xlink="http://www.w3.org/1999/xlink" x="0px" y="0px" viewBox="0 0 32 32"
	 style="enable-background:new 0 0 32 32;" xml:space="preserve">
<style type="text/css">
	.Yellow{fill:#FFB115;}
	.Blue{fill:#1177D7;}
	.st0{opacity:0.75;}
	.st1{opacity:0.5;}
</style>
<path class="Blue" d="M20,8l-2,2V4l2-2V8z M24,12l-2,2v6l2-2V12z M28,22l-2,2v6l2-2V22z"/>
<g id="Create_Rotated_Stacked_Bar_3D_Chart" class="st0">
	<path class="Blue" d="M18,4v6h-8V4H18z M12,14v6h10v-6H12z M18,24v6h8v-6H18z"/>
	<path class="Yellow" d="M10,4v6H4V4H10z M4,14v6h8v-6H4z M4,24v6h14v-6H4z"/>
</g>
<g class="st1">
	<path class="Blue" d="M20,2l-2,2h-8l2-2H20z M14,12l-2,2h10l2-2H14z M20,22l-2,2h8l2-2H20z"/>
	<path class="Yellow" d="M12,2l-2,2H4l2-2H12z M6,12l-2,2h8l2-2H6z M6,22l-2,2h14l2-2H6z"/>
</g>
</svg>
