<?xml version="1.0" encoding="utf-8"?>
<!-- Generator: Adobe Illustrator 21.0.2, SVG Export Plug-In . SVG Version: 6.00 Build 0)  -->
<svg version="1.1" id="Create_Area_3D_Chart" xmlns="http://www.w3.org/2000/svg" xmlns:xlink="http://www.w3.org/1999/xlink"
	 x="0px" y="0px" viewBox="0 0 32 32" style="enable-background:new 0 0 32 32;" xml:space="preserve">
<style type="text/css">
	.Blue{fill:#1177D7;}
	.Red{fill:#D11C1C;}
	.Yellow{fill:#FFB115;}
	.st0{opacity:0.5;}
	.st1{opacity:0.75;}
</style>
<polygon class="Yellow" points="22,30 26,26 26,22 22,26 "/>
<g class="st0">
	
		<rect x="2.2" y="12.8" transform="matrix(0.7071 -0.7071 0.7071 0.7071 -10.5563 8.5147)" class="Yellow" width="5.7" height="8.5"/>
	<rect x="16.2" y="11.9" transform="matrix(0.7071 -0.7071 0.7071 0.7071 -7.8701 19)" class="Yellow" width="5.7" height="14.1"/>
	<rect x="6.2" y="2.8" transform="matrix(0.7071 -0.7071 0.7071 0.7071 -2.3137 8.4142)" class="Red" width="5.7" height="8.5"/>
	<rect x="20.2" y="1.9" transform="matrix(0.7071 -0.7071 0.7071 0.7071 0.3726 18.8995)" class="Red" width="5.7" height="14.1"/>
</g>
<polygon class="Red" points="26,26 30,22 30,12 26,16 "/>
<g class="st1">
	<polygon class="Yellow" points="0,30 0,16 6,22 12,16 22,26 22,30 	"/>
	<polygon class="Red" points="16,6 10,12 4,6 4,12 10,18 16,12 26,22 26,16 	"/>
</g>
</svg>
