<?xml version="1.0" encoding="utf-8"?>
<!-- Generator: Adobe Illustrator 21.0.2, SVG Export Plug-In . SVG Version: 6.00 Build 0)  -->
<svg version="1.1" id="Create_Rotated_Cone_Bar_3D_Chart"
	 xmlns="http://www.w3.org/2000/svg" xmlns:xlink="http://www.w3.org/1999/xlink" x="0px" y="0px" viewBox="0 0 32 32"
	 style="enable-background:new 0 0 32 32;" xml:space="preserve">
<style type="text/css">
	.Red{fill:#D11C1C;}
	.Yellow{fill:#FFB115;}
</style>
<path class="Yellow" d="M6,8C4.9,8,4,6.7,4,5c0-1.7,0.9-3,2-3l10,3L6,8z M28,21L6,18c-1.1,0-2,1.3-2,3c0,1.7,0.9,3,2,3L28,21z"/>
<path class="Red" d="M6,14c-1.1,0-2-1.3-2-3c0-1.7,0.9-3,2-3l18,3L6,14z M20,27L6,24c-1.1,0-2,1.3-2,3c0,1.7,0.9,3,2,3L20,27z"/>
</svg>
