<?xml version="1.0" encoding="utf-8"?>
<!-- Generator: Adobe Illustrator 21.0.2, SVG Export Plug-In . SVG Version: 6.00 Build 0)  -->
<svg version="1.1" id="Create_Cylinder_Manhattan_Bar_Chart"
	 xmlns="http://www.w3.org/2000/svg" xmlns:xlink="http://www.w3.org/1999/xlink" x="0px" y="0px" viewBox="0 0 32 32"
	 style="enable-background:new 0 0 32 32;" xml:space="preserve">
<style type="text/css">
	.Red{fill:#D11C1C;}
	.Yellow{fill:#FFB115;}
	.st0{opacity:0.5;}
</style>
<g class="st0">
	<path class="Red" d="M8,12c0-1.1,1.3-2,3-2s3,0.9,3,2c0,1.1-1.3,2-3,2S8,13.1,8,12z M19,10c1.7,0,3-0.9,3-2c0-1.1-1.3-2-3-2
		s-3,0.9-3,2C16,9.1,17.3,10,19,10z M27,6c1.7,0,3-0.9,3-2c0-1.1-1.3-2-3-2s-3,0.9-3,2C24,5.1,25.3,6,27,6z"/>
</g>
<path class="Red" d="M30,4v16c0,1.1-1.3,2-3,2s-3-0.9-3-2V4c0,1.1,1.3,2,3,2S30,5.1,30,4z M18,14c0-1.1,1.3-2,3-2c0.4,0,0.7,0,1,0.1
	V8c0,1.1-1.3,2-3,2s-3-0.9-3-2v12c0,0.9,0.8,1.6,2,1.9V14z M10,18c0-1.1,1.3-2,3-2c0.4,0,0.7,0,1,0.1V12c0,1.1-1.3,2-3,2s-3-0.9-3-2
	v8c0,0.9,0.8,1.6,2,1.9V18z"/>
<g class="st0">
	<path class="Yellow" d="M18,14c0-1.1,1.3-2,3-2s3,0.9,3,2c0,1.1-1.3,2-3,2S18,15.1,18,14z M13,20c1.7,0,3-0.9,3-2c0-1.1-1.3-2-3-2
		s-3,0.9-3,2C10,19.1,11.3,20,13,20z M5,24c1.7,0,3-0.9,3-2c0-1.1-1.3-2-3-2s-3,0.9-3,2C2,23.1,3.3,24,5,24z"/>
</g>
<path class="Yellow" d="M24,14v12c0,1.1-1.3,2-3,2s-3-0.9-3-2V14c0,1.1,1.3,2,3,2S24,15.1,24,14z M13,20c-1.7,0-3-0.9-3-2v8
	c0,1.1,1.3,2,3,2s3-0.9,3-2v-8C16,19.1,14.7,20,13,20z M5,24c-1.7,0-3-0.9-3-2v4c0,1.1,1.3,2,3,2s3-0.9,3-2v-4C8,23.1,6.7,24,5,24z"
	/>
</svg>
