<?xml version="1.0" encoding="utf-8"?>
<!-- Generator: Adobe Illustrator 21.0.2, SVG Export Plug-In . SVG Version: 6.00 Build 0)  -->
<svg version="1.1" id="Create_Rotated_Cylinder_Bar_3D_Chart"
	 xmlns="http://www.w3.org/2000/svg" xmlns:xlink="http://www.w3.org/1999/xlink" x="0px" y="0px" viewBox="0 0 32 32"
	 style="enable-background:new 0 0 32 32;" xml:space="preserve">
<style type="text/css">
	.Blue{fill:#1177D7;}
	.Red{fill:#D11C1C;}
	.st0{opacity:0.75;}
</style>
<path class="Blue" d="M26,8c1.1,0,2,1.3,2,3s-0.9,3-2,3c-1.1,0-2-1.3-2-3S24.9,8,26,8z M12,27c0,1.7,0.9,3,2,3c1.1,0,2-1.3,2-3
	s-0.9-3-2-3C12.9,24,12,25.3,12,27z"/>
<path class="Red" d="M16,2c1.1,0,2,1.3,2,3s-0.9,3-2,3c-1.1,0-2-1.3-2-3S14.9,2,16,2z M18,21c0,1.7,0.9,3,2,3c1.1,0,2-1.3,2-3
	s-0.9-3-2-3C18.9,18,18,19.3,18,21z"/>
<g class="st0">
	<path class="Red" d="M16,8H6C4.9,8,4,6.7,4,5s0.9-3,2-3h10c-1.1,0-2,1.3-2,3S14.9,8,16,8z M18,21c0-1.7,0.9-3,2-3H6
		c-1.1,0-2,1.3-2,3s0.9,3,2,3h14C18.9,24,18,22.7,18,21z"/>
	<path class="Blue" d="M26,14H6c-1.1,0-2-1.3-2-3s0.9-3,2-3h20c-1.1,0-2,1.3-2,3S24.9,14,26,14z M12,27c0-1.7,0.9-3,2-3H6
		c-1.1,0-2,1.3-2,3s0.9,3,2,3h8C12.9,30,12,28.7,12,27z"/>
</g>
</svg>
