<?xml version="1.0" encoding="utf-8"?>
<!-- Generator: Adobe Illustrator 21.0.2, SVG Export Plug-In . SVG Version: 6.00 Build 0)  -->
<svg version="1.1" id="Create_Pyramid_Bar_3D_Chart"
	 xmlns="http://www.w3.org/2000/svg" xmlns:xlink="http://www.w3.org/1999/xlink" x="0px" y="0px" viewBox="0 0 32 32"
	 style="enable-background:new 0 0 32 32;" xml:space="preserve">
<style type="text/css">
	.Yellow{fill:#FFB115;}
	.Red{fill:#D11C1C;}
	.st0{opacity:0.75;}
</style>
<g class="st0">
	<path class="Yellow" d="M0,28l3-14l3,14H0z M24,28L21,4l-3,24H24z"/>
</g>
<g class="st0">
	<path class="Red" d="M6,28L9,8l3,20H6z M30,28l-3-16l-3,16H30z"/>
</g>
<path class="Yellow" d="M6.8,23L6,28L3,14L6.8,23z M21,4l3,24l1.1-5.9L21,4z"/>
<path class="Red" d="M12,28L9,8l5,18L12,28z M32,26l-5-14l3,16L32,26z"/>
</svg>
