<?xml version="1.0" encoding="utf-8"?>
<!-- Generator: Adobe Illustrator 21.0.2, SVG Export Plug-In . SVG Version: 6.00 Build 0)  -->
<svg version="1.1" id="Create_Stock_Chart_Volume_Open_High_Low_Close"
	 xmlns="http://www.w3.org/2000/svg" xmlns:xlink="http://www.w3.org/1999/xlink" x="0px" y="0px" viewBox="0 0 32 32"
	 style="enable-background:new 0 0 32 32;" xml:space="preserve">
<style type="text/css">
	.Black{fill:#727272;}
	.Red{fill:#D11C1C;}
	.st0{opacity:0.5;}
</style>
<g class="st0">
	<path class="Black" d="M4,10v20h10V10H4z M12,28H6V12h6V28z M18,6v24h10V6H18z M26,28h-6V8h6V28z"/>
</g>
<path class="Red" d="M12,24h-2v6H8v-6H6v-8h2V2h2v14h2V24z"/>
<path class="Black" d="M24,12V2h-2v10h-2v12h2v6h2v-6h2V12H24z M24,22h-2v-8h2V22z"/>
</svg>
