<?xml version="1.0" encoding="utf-8"?>
<!-- Generator: Adobe Illustrator 21.0.2, SVG Export Plug-In . SVG Version: 6.00 Build 0)  -->
<svg version="1.1" id="Create_Pyramid_Stacked_Bar_3D_Chart"
	 xmlns="http://www.w3.org/2000/svg" xmlns:xlink="http://www.w3.org/1999/xlink" x="0px" y="0px" viewBox="0 0 32 32"
	 style="enable-background:new 0 0 32 32;" xml:space="preserve">
<style type="text/css">
	.Yellow{fill:#FFB115;}
	.Red{fill:#D11C1C;}
	.st0{opacity:0.75;}
</style>
<path class="Yellow" d="M12,28L8,12l6,14L12,28z M28,26L22,4l4,24L28,26z"/>
<path class="Red" d="M25,15l3,11l-2,2l-2-12L25,15z M10,20l2,8l2-2l-3-7L10,20z"/>
<g class="st0">
	<path class="Red" d="M24,16l2,12h-8l2-12H24z M6,20l-2,8h8l-2-8H6z"/>
	<path class="Yellow" d="M24,16h-4l2-12L24,16z M10,20l-2-8l-2,8H10z"/>
</g>
</svg>
