<?xml version="1.0" encoding="utf-8"?>
<!-- Generator: Adobe Illustrator 21.0.2, SVG Export Plug-In . SVG Version: 6.00 Build 0)  -->
<svg version="1.1" id="Create_Line_3D_Chart" xmlns="http://www.w3.org/2000/svg" xmlns:xlink="http://www.w3.org/1999/xlink"
	 x="0px" y="0px" viewBox="0 0 32 32" style="enable-background:new 0 0 32 32;" xml:space="preserve">
<style type="text/css">
	.Blue{fill:#1177D7;}
	.Red{fill:#D11C1C;}
	.st0{opacity:0.5;}
	.st1{opacity:0.75;}
	.st2{opacity:0.35;}
</style>
<g class="st0">
	<rect x="12.6" y="5.9" transform="matrix(0.7071 -0.7071 0.7071 0.7071 -3.0928 12.8791)" class="Blue" width="2.8" height="8.5"/>
</g>
<g class="st1">
	<polygon class="Blue" points="26,4.2 16,14.2 10,8.2 2,16.2 2,19 10,11 16,17 26,7 	"/>
</g>
<polygon class="Blue" points="26,4.2 26,7 28,5 28,2.2 "/>
<g class="st0">
	
		<rect x="12.6" y="16.8" transform="matrix(0.7071 -0.7071 0.7071 0.7071 -10.7487 16.0503)" class="Red" width="2.8" height="8.5"/>
</g>
<polygon class="Red" points="26,25 26,27 28,25 28,23 "/>
<g class="st1">
	<polygon class="Red" points="26,27 26,25 16,25 10,19 2,27 2,29.8 10,21.8 15.2,27 	"/>
</g>
<g class="st2">
	<polygon class="Red" points="18,23 28,23 26,25 16,25 	"/>
</g>
</svg>
