<?xml version="1.0" encoding="utf-8"?>
<!-- Generator: Adobe Illustrator 21.0.2, SVG Export Plug-In . SVG Version: 6.00 Build 0)  -->
<svg version="1.1" id="Data_Validation" xmlns="http://www.w3.org/2000/svg" xmlns:xlink="http://www.w3.org/1999/xlink" x="0px"
	 y="0px" viewBox="0 0 32 32" style="enable-background:new 0 0 32 32;" xml:space="preserve">
<style type="text/css">
	.Black{fill:#727272;}
	.Red{fill:#D11C1C;}
	.Green{fill:#039C23;}
</style>
<polygon class="Green" points="16,8 18,6 22,10 30,2 32,4 22,14 "/>
<path class="Black" d="M19.2,14H3c-0.6,0-1-0.4-1-1V7c0-0.6,0.4-1,1-1h12.2l-0.6,0.6L13.2,8l0,0H4v4h13.2L19.2,14z M14.6,24.6
	l0.6-0.6H4v-4h11.2l-0.6-0.6L13.2,18l0,0H3c-0.6,0-1,0.4-1,1v6c0,0.6,0.4,1,1,1h10.2L14.6,24.6z"/>
<polygon class="Red" points="28,18 26,16 22,20 18,16 16,18 20,22 16,26 18,28 22,24 26,28 28,26 24,22 "/>
</svg>
