<?xml version="1.0" encoding="utf-8"?>
<!-- Generator: Adobe Illustrator 21.0.2, SVG Export Plug-In . SVG Version: 6.00 Build 0)  -->
<svg version="1.1" id="Decrease_Decimal" xmlns="http://www.w3.org/2000/svg" xmlns:xlink="http://www.w3.org/1999/xlink" x="0px"
	 y="0px" viewBox="0 0 32 32" style="enable-background:new 0 0 32 32;" xml:space="preserve">
<style type="text/css">
	.Black{fill:#727272;}
	.Blue{fill:#1177D7;}
</style>
<polygon class="Blue" points="6,24 10,24 10,27 16,23 10,19 10,22 6,22 "/>
<path class="Black" d="M22.4,28c-2.3,0-3.5-1.6-3.5-4.8c0-1.7,0.3-3,0.9-3.8c0.6-0.9,1.5-1.3,2.7-1.3c2.2,0,3.4,1.6,3.4,4.9
	c0,1.6-0.3,2.9-0.9,3.8C24.5,27.6,23.6,28,22.4,28z M22.5,19.6c-0.9,0-1.4,1.2-1.4,3.5c0,2.2,0.5,3.3,1.4,3.3c0.9,0,1.3-1.1,1.3-3.4
	C23.8,20.7,23.4,19.6,22.5,19.6z M14.4,14c-2.3,0-3.5-1.6-3.5-4.8c0-1.7,0.3-3,0.9-3.8C12.5,4.4,13.4,4,14.6,4C16.9,4,18,5.6,18,8.9
	c0,1.6-0.3,2.9-0.9,3.8C16.5,13.6,15.6,14,14.4,14z M14.5,5.6c-0.9,0-1.4,1.2-1.4,3.5c0,2.2,0.5,3.3,1.4,3.3c0.9,0,1.3-1.1,1.3-3.4
	C15.8,6.7,15.4,5.6,14.5,5.6z M22.4,14c-2.3,0-3.5-1.6-3.5-4.8c0-1.7,0.3-3,0.9-3.8C20.5,4.4,21.4,4,22.6,4C24.9,4,26,5.6,26,8.9
	c0,1.6-0.3,2.9-0.9,3.8C24.5,13.6,23.6,14,22.4,14z M22.5,5.6c-0.9,0-1.4,1.2-1.4,3.5c0,2.2,0.5,3.3,1.4,3.3c0.9,0,1.3-1.1,1.3-3.4
	C23.8,6.7,23.4,5.6,22.5,5.6z M18,26h-2v2h2V26z M10,12H8v2h2V12z"/>
</svg>
