<?xml version="1.0" encoding="utf-8"?>
<!-- Generator: Adobe Illustrator 21.0.2, SVG Export Plug-In . SVG Version: 6.00 Build 0)  -->
<svg version="1.1" id="Define_Name" xmlns="http://www.w3.org/2000/svg" xmlns:xlink="http://www.w3.org/1999/xlink" x="0px"
	 y="0px" viewBox="0 0 32 32" style="enable-background:new 0 0 32 32;" xml:space="preserve">
<style type="text/css">
	.Black{fill:#727272;}
	.Yellow{fill:#FFB115;}
</style>
<path class="Black" d="M22,16h-8v-2h8V16z M14,20h8v-2h-8V20z M27.6,15.4L27,14.8l-0.6,0.6L26,15.8V24H8l-6-6v-2l6-6h12.2l0.4-0.4
	L21.2,9l-0.6-0.6L20.2,8H7l-7,7v4l7,7l20,0c0.6,0,1-0.4,1-1v-9.2L27.6,15.4z M6,17c0,1.1,0.9,2,2,2c1.1,0,2-0.9,2-2s-0.9-2-2-2
	C6.9,15,6,15.9,6,17z"/>
<polygon class="Yellow" points="27,6 29,4 29,7 32,7 30,9 32,11 29,11 29,14 27,12 25,14 25,11 22,11 24,9 22,7 25,7 25,4 "/>
</svg>
