<?xml version="1.0" encoding="utf-8"?>
<!-- Generator: Adobe Illustrator 21.0.2, SVG Export Plug-In . SVG Version: 6.00 Build 0)  -->
<svg version="1.1" id="Document_Orientation" xmlns="http://www.w3.org/2000/svg" xmlns:xlink="http://www.w3.org/1999/xlink"
	 x="0px" y="0px" viewBox="0 0 32 32" style="enable-background:new 0 0 32 32;" xml:space="preserve">
<style type="text/css">
	.Black{fill:#727272;}
	.Blue{fill:#1177D7;}
	.st0{opacity:0.5;}
</style>
<g class="st0">
	<path class="Black" d="M8,10H2V2h8v6H8V10z M2.4,16H8v-4H2v8h2.9L2.4,16z M16,8V2.4l4,2.5V2h-8v6H16z M6.1,22H2v8h8v-1.8L6.1,22z
		 M14,16h2v-2h-2V16z M22,15.9V20h8v-8h-1.8L22,15.9z M22,2v4.1l6.2,3.9H30V2H22z M18.2,18.2L17.1,20H20v-2.9L18.2,18.2z M22,30h8
		v-8h-8V30z M12,28.2V30h8v-8h-4.1L12,28.2z"/>
</g>
<polygon class="Blue" points="26,11 18,6 18,10 10,10 10,18 6,18 11,26 16,18 12,18 12,12 18,12 18,16 "/>
</svg>
