<?xml version="1.0" encoding="utf-8"?>
<!-- Generator: Adobe Illustrator 21.0.2, SVG Export Plug-In . SVG Version: 6.00 Build 0)  -->
<svg version="1.1" id="Drop_and_High-Low_Lines" xmlns="http://www.w3.org/2000/svg" xmlns:xlink="http://www.w3.org/1999/xlink"
	 x="0px" y="0px" viewBox="0 0 32 32" style="enable-background:new 0 0 32 32;" xml:space="preserve">
<style type="text/css">
	.Yellow{fill:#FFB115;}
	.Black{fill:#727272;}
	.st0{opacity:0.75;}
</style>
<g class="st0">
	<path class="Black" d="M14,14.8L14,14.8l0-2.8L26,0v2.8L14,14.8z M4,28v2h24v-2H4z M12,14.8V12L6,6v2.8L12,14.8L12,14.8z M12,18
		l-6,6v2.8l6-6L12,18L12,18z M26,18H14v2h12V18z"/>
</g>
<path class="Yellow" d="M28,30h-2V0h2V30z M6,6H4v24h2V6z M14,12h-2v18h2V12z"/>
</svg>
