<?xml version="1.0" encoding="utf-8"?>
<!-- Generator: Adobe Illustrator 21.0.2, SVG Export Plug-In . SVG Version: 6.00 Build 0)  -->
<svg version="1.1" id="Drop_Lines_None" xmlns="http://www.w3.org/2000/svg" xmlns:xlink="http://www.w3.org/1999/xlink" x="0px"
	 y="0px" viewBox="0 0 32 32" style="enable-background:new 0 0 32 32;" xml:space="preserve">
<style type="text/css">
	.Yellow{fill:#FFB115;}
	.Black{fill:#727272;}
	.Red{fill:#D11C1C;}
	.st0{opacity:0.35;}
	.st1{opacity:0.5;}
</style>
<g class="st0">
	<path class="Black" d="M26,6.8l-2.6,2.6L22,8l4-4V6.8z M11,15l-5-5v2.8l3.6,3.6L11,15z M6,26v2h6v-2H6z M14,26v2h12v-2H14z"/>
</g>
<g class="st1">
	<path class="Yellow" d="M4,10h2v18H4V10z M12,23.7V28h2v-6.3L12,23.7z M26,4v24h2V4H26z"/>
</g>
<polygon class="Red" points="22,10.8 20,8.8 16,12.8 12,8.8 10,10.8 14,14.8 10,18.8 12,20.8 16,16.8 20,20.8 22,18.8 18,14.8 "/>
</svg>
