<?xml version="1.0" encoding="utf-8"?>
<!-- Generator: Adobe Illustrator 21.0.2, SVG Export Plug-In . SVG Version: 6.00 Build 0)  -->
<svg version="1.1" id="Encrypt" xmlns="http://www.w3.org/2000/svg" xmlns:xlink="http://www.w3.org/1999/xlink" x="0px" y="0px"
	 viewBox="0 0 32 32" style="enable-background:new 0 0 32 32;" xml:space="preserve">
<style type="text/css">
	.Black{fill:#727272;}
	.Yellow{fill:#FFB115;}
</style>
<path class="Yellow" d="M14.2,21c-0.1-0.6-0.2-1.3-0.2-2c0-4.4,3.2-8.1,7.5-8.9C21.3,10.1,21.2,10,21,10h-1V6c0-3.3-2.7-6-6-6h-2
	C8.7,0,6,2.7,6,6v4H5c-0.6,0-1,0.4-1,1v12c0,0.6,0.4,1,1,1h6.2L14.2,21z M8,6c0-2.2,1.8-4,4-4h2c2.2,0,4,1.8,4,4v4H8V6z"/>
<path class="Black" d="M23,12c-3.9,0-7,3.1-7,7c0,0.9,0.2,1.7,0.5,2.5L10,28v4h4v-2h2v-2h2l2.5-2.5c0.8,0.3,1.6,0.5,2.5,0.5
	c3.9,0,7-3.1,7-7C30,15.1,26.9,12,23,12z M24,20c-1.1,0-2-0.9-2-2c0-1.1,0.9-2,2-2c1.1,0,2,0.9,2,2C26,19.1,25.1,20,24,20z"/>
</svg>
