<?xml version="1.0" encoding="utf-8"?>
<!-- Generator: Adobe Illustrator 21.0.2, SVG Export Plug-In . SVG Version: 6.00 Build 0)  -->
<svg version="1.1" id="Layer_1" xmlns="http://www.w3.org/2000/svg" xmlns:xlink="http://www.w3.org/1999/xlink" x="0px" y="0px"
	 viewBox="0 0 32 32" style="enable-background:new 0 0 32 32;" xml:space="preserve">
<style type="text/css">
	.Yellow{fill:#FFB115;}
	.Black{fill:#727272;}
	.Red{fill:#D11C1C;}
</style>
<g id="Error_Bars_witn_Percentage">
	<path class="Red" d="M8,18H2v-2h6V18z M18,20h-6v2h6V20z"/>
	<path class="Black" d="M8,8v2H6v4H4v-4H2V8 M8,26v-2H6v-4H4v4H2v2 M18,30v-2h-2v-4h-2v4h-2v2"/>
	<path class="Yellow" d="M26.1,10.5c0.2,0.2,0.3,0.6,0.3,1c0,0.9-0.4,1.4-1.1,1.4c-0.7,0-1.1-0.4-1.1-1.3c0-0.9,0.4-1.4,1.1-1.4
		C25.7,10.1,26,10.2,26.1,10.5z M19.7,6.5c0-0.9-0.3-1.3-1-1.3c-0.7,0-1.1,0.5-1.1,1.4c0,0.9,0.3,1.3,1,1.3
		C19.4,7.9,19.7,7.4,19.7,6.5z M32,0v18H12V0H32z M16.7,8.4c0.5,0.4,1.1,0.7,1.9,0.7c0.8,0,1.5-0.2,2-0.7c0.5-0.5,0.7-1.1,0.7-1.9
		c0-0.8-0.2-1.4-0.7-1.8C20.2,4.2,19.5,4,18.7,4c-0.8,0-1.5,0.2-2,0.7C16.2,5.2,16,5.8,16,6.6C16,7.4,16.2,8,16.7,8.4z M19.8,14
		L26,4h-1.8L18,14H19.8z M28,11.4c0-0.8-0.2-1.4-0.7-1.8c-0.4-0.4-1.1-0.6-1.9-0.6c-0.8,0-1.5,0.2-2,0.7c-0.5,0.5-0.7,1.1-0.7,1.9
		c0,0.7,0.2,1.3,0.7,1.8s1.1,0.7,1.9,0.7c0.8,0,1.5-0.2,2-0.7C27.8,12.8,28,12.2,28,11.4z"/>
</g>
</svg>
