<?xml version="1.0" encoding="utf-8"?>
<!-- Generator: Adobe Illustrator 21.0.2, SVG Export Plug-In . SVG Version: 6.00 Build 0)  -->
<svg version="1.1" id="Error_Bars_with_Standard_Deviation"
	 xmlns="http://www.w3.org/2000/svg" xmlns:xlink="http://www.w3.org/1999/xlink" x="0px" y="0px" viewBox="0 0 32 32"
	 style="enable-background:new 0 0 32 32;" xml:space="preserve">
<style type="text/css">
	.Black{fill:#727272;}
	.Red{fill:#D11C1C;}
	.Yellow{fill:#FFB115;}
</style>
<path class="Red" d="M8,18H2v-2h6V18z M18,20h-6v2h6V20z"/>
<path class="Black" d="M8,8v2H6v4H4v-4H2V8 M8,26v-2H6v-4H4v4H2v2 M18,30v-2h-2v-4h-2v4h-2v2"/>
<path class="Yellow" d="M12,0v18h20V0H12z M28,6h-2.5C25.8,6.8,26,7.7,26,8.9c0,1.6-0.4,2.9-1.1,3.8c-0.7,0.9-1.7,1.3-3,1.3
	c-2.6,0-3.9-1.6-3.9-4.8c0-1.7,0.4-3,1.1-3.8C19.7,4.5,20.7,4,22,4l0,0h6V6z M22,5.6c1,0,1.5,1.1,1.5,3.4c0,2.2-0.5,3.4-1.5,3.4
	c-1,0-1.5-1.1-1.5-3.3C20.5,6.8,21,5.6,22,5.6z"/>
</svg>
