<?xml version="1.0" encoding="utf-8"?>
<!-- Generator: Adobe Illustrator 21.0.2, SVG Export Plug-In . SVG Version: 6.00 Build 0)  -->
<svg version="1.1" id="Error_Bars_None" xmlns="http://www.w3.org/2000/svg" xmlns:xlink="http://www.w3.org/1999/xlink" x="0px"
	 y="0px" viewBox="0 0 32 32" style="enable-background:new 0 0 32 32;" xml:space="preserve">
<style type="text/css">
	.Black{fill:#727272;}
	.Red{fill:#D11C1C;}
	.st0{opacity:0.5;}
</style>
<g class="st0">
	<path class="Red" d="M28,10v2h-5.2L22,11.2V10H28z M8,16H2v2h6V16z"/>
	<path class="Black" d="M6,24h2v2H2v-2h2v-4h2V24z M4,14h2v-4h2V8H2v2h2V14z M26,14h-2v4h-2v1.2l0.8,0.8H28v-2h-2V14z M22,2v2h2v4h2
		V4h2V2H22z M16,24h-2v4h-2v2h6v-2h-2V24z"/>
</g>
<polygon class="Red" points="21,13 19,11 15,15 11,11 9,13 13,17 9,21 11,23 15,19 19,23 21,21 17,17 "/>
</svg>
