<?xml version="1.0" encoding="utf-8"?>
<!-- Generator: Adobe Illustrator 21.0.2, SVG Export Plug-In . SVG Version: 6.00 Build 0)  -->
<svg version="1.1" id="ExpandCollapseButtonPivotTable"
	 xmlns="http://www.w3.org/2000/svg" xmlns:xlink="http://www.w3.org/1999/xlink" x="0px" y="0px" viewBox="0 0 32 32"
	 style="enable-background:new 0 0 32 32;" xml:space="preserve">
<style type="text/css">
	.Blue{fill:#1177D7;}
	.Green{fill:#039C23;}
</style>
<path class="Green" d="M9,0C4,0,0,4,0,9c0,5,4,9,9,9c0.5,0,1-0.1,1.5-0.1c1.1-3.6,3.9-6.4,7.4-7.4C17.9,10,18,9.5,18,9
	C18,4,14,0,9,0z M14,10h-4v4H8v-4H4V8h4V4h2v4h4V10z"/>
<path class="Blue" d="M21,12c-5,0-9,4-9,9c0,5,4,9,9,9s9-4,9-9C30,16,26,12,21,12z M26,22H16v-2h10V22z"/>
</svg>
