<?xml version="1.0" encoding="utf-8"?>
<!-- Generator: Adobe Illustrator 21.0.2, SVG Export Plug-In . SVG Version: 6.00 Build 0)  -->
<svg version="1.1" id="Fill_Background" xmlns="http://www.w3.org/2000/svg" xmlns:xlink="http://www.w3.org/1999/xlink" x="0px"
	 y="0px" viewBox="0 0 32 32" style="enable-background:new 0 0 32 32;" xml:space="preserve">
<style type="text/css">
	.Black{fill:#727272;}
	.Blue{fill:#1177D7;}
</style>
<path class="Black" d="M19,0H7C6.4,0,6,0.4,6,1v5.6l2-2V2h10v5c0,0.6,0.4,1,1,1h5v14H8v-1.1c-0.7-0.1-1.4-0.5-1.9-1L6,19.8V23
	c0,0.6,0.4,1,1,1h18c0.6,0,1-0.4,1-1V7L19,0z"/>
<path class="Black" d="M10.8,19.2c-1.1,1.1-2.9,1.1-4,0l-4-4c-1.1-1.1-1.1-2.9,0-4L8,6l8,8L10.8,19.2z"/>
<path class="Blue" d="M14,10c2.2,0,4,3.6,4,8c0,1.1,0.9,2,2,2c1.1,0,2-0.9,2-2C22,13.6,18.4,10,14,10z"/>
</svg>
