<?xml version="1.0" encoding="utf-8"?>
<!-- Generator: Adobe Illustrator 21.0.2, SVG Export Plug-In . SVG Version: 6.00 Build 0)  -->
<svg version="1.1" id="Financial" xmlns="http://www.w3.org/2000/svg" xmlns:xlink="http://www.w3.org/1999/xlink" x="0px" y="0px"
	 viewBox="0 0 32 32" style="enable-background:new 0 0 32 32;" xml:space="preserve">
<style type="text/css">
	.Green{fill:#039C23;}
</style>
<path class="Green" d="M14,16.3c-0.2-0.1-0.3-0.1-0.4-0.2c-0.3-0.1-0.4-0.2-0.5-0.4c-0.1-0.1-0.1-0.3-0.1-0.5c0-0.2,0.1-0.5,0.2-0.6
	c0.1-0.2,0.3-0.3,0.4-0.4c0.1-0.1,0.3-0.1,0.5-0.2V16.3z M4,5c0,0.6,0.4,1,1,1h23v23c0,0.6-0.4,1-1,1H4c-1.1,0-2-0.9-2-2V4
	c0-1.1,0.9-2,2-2h23c0.6,0,1,0.4,1,1v1H5C4.4,4,4,4.4,4,5z M14,18.7l0,3.1c-0.3-0.1-0.5-0.2-0.7-0.3c-0.2-0.2-0.4-0.4-0.6-0.6
	c-0.1-0.3-0.2-0.5-0.2-0.9L10,20c0,0.7,0.1,1.3,0.4,1.8c0.3,0.5,0.6,0.9,1.1,1.3c0.5,0.3,1,0.6,1.6,0.7c0.3,0.1,0.6,0.1,0.8,0.2V26
	h2v-2.1c0.4,0,0.8-0.1,1.2-0.2c0.6-0.2,1.1-0.4,1.5-0.8c0.4-0.3,0.7-0.7,0.9-1.2c0.2-0.5,0.3-0.9,0.3-1.5c0-0.6-0.1-1.2-0.4-1.6
	c-0.3-0.4-0.6-0.7-1-1c-0.4-0.2-0.8-0.4-1.2-0.5C17,17.1,16.7,17,16.5,17c-0.2,0-0.3-0.1-0.5-0.1v-2.7c0.1,0,0.2,0.1,0.3,0.1
	c0.2,0.1,0.4,0.3,0.5,0.5c0.1,0.2,0.2,0.8,0.2,1.2l2.5,0c0-0.7-0.1-1.5-0.4-2c-0.3-0.5-0.6-0.8-1.1-1.1c-0.4-0.3-1-0.5-1.5-0.6
	c-0.2,0-0.4-0.1-0.6-0.1V10h-2v2.1c-0.3,0-0.5,0.1-0.8,0.1c-0.5,0.1-1,0.4-1.4,0.6c-0.4,0.3-0.8,0.7-1,1.1c-0.3,0.4-0.4,0.9-0.4,1.5
	c0,0.5,0.1,1,0.3,1.3c0.2,0.4,0.5,0.7,0.8,0.9c0.3,0.2,0.7,0.4,1.1,0.6C13.1,18.5,13.5,18.6,14,18.7z M17.2,21.3
	c0.2-0.2,0.2-0.4,0.2-0.7c0-0.3-0.1-0.6-0.3-0.8c-0.2-0.2-0.5-0.4-0.8-0.5c-0.1,0-0.2-0.1-0.4-0.1V22c0.2,0,0.5-0.1,0.7-0.2
	C16.9,21.7,17.1,21.5,17.2,21.3z"/>
</svg>
