<?xml version="1.0" encoding="utf-8"?>
<!-- Generator: Adobe Illustrator 21.0.2, SVG Export Plug-In . SVG Version: 6.00 Build 0)  -->
<svg version="1.1" id="Format" xmlns="http://www.w3.org/2000/svg" xmlns:xlink="http://www.w3.org/1999/xlink" x="0px" y="0px"
	 viewBox="0 0 32 32" style="enable-background:new 0 0 32 32;" xml:space="preserve">
<style type="text/css">
	.Black{fill:#727272;}
	.Blue{fill:#1177D7;}
	.st0{opacity:0.5;}
</style>
<g class="st0">
	<path class="Black" d="M20,4h8v6h-8V4z M20,18h8v-6h-8V18z M10,4v6h8V4H10z M8,10V4H0v6H8z M8,18v-6H0v6H8z M10,20v6h8v-6H10z
		 M8,26v-6H0v6H8z"/>
</g>
<rect x="10" y="12" class="Blue" width="8" height="6"/>
<path class="Black" d="M30,26c0-0.2,0-0.5-0.1-0.7l1.8-1.5l-1-1.7l-2.1,0.8c-0.3-0.3-0.7-0.5-1.2-0.7L27,20h-2l-0.4,2.3
	c-0.4,0.2-0.8,0.4-1.2,0.7l-2.1-0.8l-1,1.7l1.8,1.5c0,0.2-0.1,0.4-0.1,0.7c0,0.2,0,0.5,0.1,0.7l-1.8,1.5l1,1.7l2.1-0.8
	c0.3,0.3,0.7,0.5,1.2,0.7L25,32h2l0.4-2.3c0.4-0.2,0.8-0.4,1.2-0.7l2.1,0.8l1-1.7l-1.8-1.5C30,26.5,30,26.2,30,26z M26,28
	c-1.1,0-2-0.9-2-2c0-1.1,0.9-2,2-2c1.1,0,2,0.9,2,2C28,27.1,27.1,28,26,28z"/>
</svg>
