<?xml version="1.0" encoding="utf-8"?>
<!-- Generator: Adobe Illustrator 21.0.2, SVG Export Plug-In . SVG Version: 6.00 Build 0)  -->
<svg version="1.1" id="Format_As_Table" xmlns="http://www.w3.org/2000/svg" xmlns:xlink="http://www.w3.org/1999/xlink" x="0px"
	 y="0px" viewBox="0 0 32 32" style="enable-background:new 0 0 32 32;" xml:space="preserve">
<style type="text/css">
	.Yellow{fill:#FFB115;}
	.Black{fill:#727272;}
	.Red{fill:#D11C1C;}
	.Blue{fill:#1177D7;}
	.st0{opacity:0.5;}
</style>
<path class="Blue" d="M10,12h8v6h-8V12z M10,4v6h8V4H10z M8,10V4H0v6H8z M8,18v-6H0v6H8z"/>
<g class="st0">
	<path class="Black" d="M10,25.4c1-1.5,2.2-2.9,4-3.3c0.1-0.7,0.4-1.3,0.8-1.8l0.3-0.3H10V25.4z M20,4v6h5.2l1.1-1.1
		C26.8,8.4,27.4,8.1,28,8V4H20z M20,12v3.2l3.2-3.2H20z M0,26h8v-6H0V26z M28,26v-5.2L22.8,26H28z"/>
</g>
<path class="Red" d="M23,23l8.7-8.7c0.4-0.4,0.4-1,0-1.3l-2.7-2.7c-0.4-0.4-1-0.4-1.3,0L19,19L23,23z"/>
<path class="Black" d="M18,20l-1.7,1.7c-0.4,0.4-0.4,1,0,1.3l2.7,2.7c0.4,0.4,1,0.4,1.3,0L22,24L18,20z"/>
<path class="Yellow" d="M15,24c3,3,0,0,3,3c-3,5-6,5-10,5C11,29,11.8,24,15,24z"/>
</svg>
