<?xml version="1.0" encoding="utf-8"?>
<!-- Generator: Adobe Illustrator 21.0.2, SVG Export Plug-In . SVG Version: 6.00 Build 0)  -->
<svg version="1.1" id="Format_Cells" xmlns="http://www.w3.org/2000/svg" xmlns:xlink="http://www.w3.org/1999/xlink" x="0px"
	 y="0px" viewBox="0 0 32 32" style="enable-background:new 0 0 32 32;" xml:space="preserve">
<style type="text/css">
	.Black{fill:#727272;}
	.Blue{fill:#1177D7;}
</style>
<path class="Blue" d="M29,0H1C0.4,0,0,0.4,0,1v5h30V1C30,0.4,29.6,0,29,0z"/>
<path class="Black" d="M30,6v23c0,0.6-0.4,1-1,1H1c-0.6,0-1-0.4-1-1V6h2v22h26V6H30z M24,12H14v2h10V12z M24,20H14v2h10V20z M12,21
	c0,1.7-1.3,3-3,3s-3-1.3-3-3s1.3-3,3-3S12,19.3,12,21z M10,21c0-0.6-0.4-1-1-1s-1,0.4-1,1c0,0.6,0.4,1,1,1S10,21.6,10,21z M9,10
	c-1.7,0-3,1.3-3,3s1.3,3,3,3s3-1.3,3-3S10.7,10,9,10z"/>
</svg>
