<?xml version="1.0" encoding="utf-8"?>
<!-- Generator: Adobe Illustrator 21.0.2, SVG Export Plug-In . SVG Version: 6.00 Build 0)  -->
<svg version="1.1" id="Fraction" xmlns="http://www.w3.org/2000/svg" xmlns:xlink="http://www.w3.org/1999/xlink" x="0px" y="0px"
	 viewBox="0 0 32 32" style="enable-background:new 0 0 32 32;" xml:space="preserve">
<style type="text/css">
	.Black{fill:#727272;}
</style>
<path class="Black" d="M4.4,18V7.3H0.9V5.6c0.5,0,1,0,1.5-0.1c0.5-0.1,0.9-0.3,1.3-0.5c0.4-0.2,0.7-0.6,1-1C5,3.5,5.2,2.6,5.3,2H8
	v16H4.4z M20,15.8c0.2-0.8,0.6-1.4,1-2c0.4-0.6,1-1,1.7-1.3c0.7-0.3,1.4-0.5,2.3-0.5c0.7,0,1.3,0.1,1.9,0.3c0.6,0.2,1.1,0.5,1.6,1
	c0.5,0.4,0.8,0.9,1.1,1.5c0.3,0.6,0.4,1.3,0.4,2.1c0,0.8-0.1,1.5-0.4,2c-0.2,0.6-0.5,1.1-0.9,1.5c-0.4,0.4-0.8,0.8-1.3,1.2
	c-0.5,0.4-1,0.7-1.5,1.1c-0.5,0.4-1,0.7-1.5,1.1c-0.5,0.4-0.9,0.9-1.2,1.4H30V28H19.3c0-0.9,0.1-1.7,0.4-2.4c0.2-0.7,0.6-1.3,1-1.8
	c0.4-0.5,0.9-1,1.5-1.5c0.6-0.4,1.2-0.9,1.8-1.4c0.3-0.2,0.7-0.5,1-0.7c0.4-0.2,0.7-0.5,1-0.8c0.3-0.3,0.5-0.6,0.7-1
	c0.2-0.4,0.3-0.8,0.3-1.3c0-0.8-0.2-1.4-0.6-1.8c-0.4-0.4-0.9-0.6-1.6-0.6c-0.4,0-0.8,0.1-1.1,0.3c-0.3,0.2-0.5,0.5-0.7,0.9
	c-0.2,0.4-0.3,0.7-0.4,1.2c-0.1,0.4-0.1,0.8-0.1,1.3h-2.8C19.6,17.4,19.7,16.6,20,15.8z M24,4L10,26H6.3l14-22H24z"/>
</svg>
