<?xml version="1.0" encoding="utf-8"?>
<!-- Generator: Adobe Illustrator 21.0.2, SVG Export Plug-In . SVG Version: 6.00 Build 0)  -->
<svg version="1.1" id="Compatibility" xmlns="http://www.w3.org/2000/svg" xmlns:xlink="http://www.w3.org/1999/xlink" x="0px"
	 y="0px" viewBox="0 0 32 32" style="enable-background:new 0 0 32 32;" xml:space="preserve">
<style type="text/css">
	.Yellow{fill:#FFB115;}
	.Blue{fill:#1177D7;}
	.Black{fill:#727272;}
</style>
<path class="Blue" d="M16.4,11.4c0.6-0.9,1.5-1.4,2.6-1.4s2.1,0.5,2.6,1.4L22,12V4H3C2.4,4,2,3.6,2,3c0-0.6,0.4-1,1-1h19V1
	c0-0.6-0.4-1-1-1H3C1.3,0,0,1.3,0,3v20c0,1.7,1.3,3,3,3h4.4L16.4,11.4z"/>
<path class="Yellow" d="M18.1,12.5L8.1,28.6C7.7,29.2,8.3,30,9.1,30h19.9c0.8,0,1.3-0.8,0.9-1.4l-9.9-16.1
	C19.5,11.8,18.5,11.8,18.1,12.5z"/>
<path class="Black" d="M20,24h-2v-8h2V24z M20,26h-2v2h2V26z"/>
</svg>
