<?xml version="1.0" encoding="utf-8"?>
<!-- Generator: Adobe Illustrator 21.0.2, SVG Export Plug-In . SVG Version: 6.00 Build 0)  -->
<svg version="1.1" id="Statistical" xmlns="http://www.w3.org/2000/svg" xmlns:xlink="http://www.w3.org/1999/xlink" x="0px"
	 y="0px" viewBox="0 0 32 32" style="enable-background:new 0 0 32 32;" xml:space="preserve">
<style type="text/css">
	.Green{fill:#039C23;}
	.Black{fill:#727272;}
	.Blue{fill:#1177D7;}
</style>
<path class="Blue" d="M6,13c0-1.7,1.3-3,3-3h13V4H3C2.4,4,2,3.6,2,3c0-0.6,0.4-1,1-1h19V1c0-0.6-0.4-1-1-1H3C1.3,0,0,1.3,0,3v20
	c0,1.7,1.3,3,3,3h3V13z"/>
<path class="Black" d="M31,12H9c-0.5,0-1,0.5-1,1v18c0,0.5,0.5,1,1,1h22c0.5,0,1-0.5,1-1V13C32,12.5,31.5,12,31,12z M30,30H10V14h20
	V30z"/>
<polygon class="Green" points="12.7,27.1 11.3,25.7 17,20 20,23 25,18 28.7,21.7 27.3,23.1 25,20.8 20,25.8 17,22.8 "/>
</svg>
