<?xml version="1.0" encoding="utf-8"?>
<!-- Generator: Adobe Illustrator 21.0.2, SVG Export Plug-In . SVG Version: 6.00 Build 0)  -->
<svg version="1.1" id="Web" xmlns="http://www.w3.org/2000/svg" xmlns:xlink="http://www.w3.org/1999/xlink" x="0px" y="0px"
	 viewBox="0 0 32 32" style="enable-background:new 0 0 32 32;" xml:space="preserve">
<style type="text/css">
	.Yellow{fill:#FFB115;}
	.Blue{fill:#1177D7;}
</style>
<path class="Yellow" d="M8,22c0-6.6,5.4-12,12-12c0.7,0,1.3,0.1,2,0.2V4H3C2.4,4,2,3.6,2,3c0-0.6,0.4-1,1-1h19V1c0-0.6-0.4-1-1-1H3
	C1.3,0,0,1.3,0,3v20c0,1.7,1.3,3,3,3h5.7C8.3,24.7,8,23.4,8,22z"/>
<path class="Blue" d="M20,12c-5.5,0-10,4.5-10,10c0,5.5,4.5,10,10,10s10-4.5,10-10C30,16.5,25.5,12,20,12z M26.9,18h-3.3
	c-0.2-1.4-0.6-2.6-1-3.6C24.4,15.1,26,16.4,26.9,18z M22,22c0,0.7,0,1.4-0.1,2h-3.9c0-0.6-0.1-1.3-0.1-2s0-1.4,0.1-2h3.9
	C22,20.6,22,21.3,22,22z M20,30c-0.7,0-1.4-1.6-1.7-4h3.5C21.4,28.4,20.7,30,20,30z M18.3,18c0.3-2.4,1-4,1.7-4s1.4,1.6,1.7,4H18.3z
	 M17.4,14.4c-0.4,1-0.8,2.2-1,3.6h-3.3C14,16.4,15.6,15.1,17.4,14.4z M12.3,20h3.8C16,20.6,16,21.3,16,22s0,1.4,0.1,2h-3.8
	c-0.2-0.6-0.3-1.3-0.3-2S12.1,20.6,12.3,20z M13.1,26h3.3c0.2,1.4,0.6,2.6,1,3.6C15.6,28.9,14,27.6,13.1,26z M22.6,29.6
	c0.4-1,0.8-2.2,1-3.6h3.3C26,27.6,24.4,28.9,22.6,29.6z M27.7,24h-3.8c0.1-0.6,0.1-1.3,0.1-2s0-1.4-0.1-2h3.8c0.2,0.6,0.3,1.3,0.3,2
	S27.9,23.4,27.7,24z"/>
</svg>
