<?xml version="1.0" encoding="utf-8"?>
<!-- Generator: Adobe Illustrator 21.0.2, SVG Export Plug-In . SVG Version: 6.00 Build 0)  -->
<svg version="1.1" id="Engineering" xmlns="http://www.w3.org/2000/svg" xmlns:xlink="http://www.w3.org/1999/xlink" x="0px"
	 y="0px" viewBox="0 0 32 32" style="enable-background:new 0 0 32 32;" xml:space="preserve">
<style type="text/css">
	.Black{fill:#727272;}
	.Yellow{fill:#FFB115;}
</style>
<path class="Yellow" d="M6,13c0-1.7,1.3-3,3-3h13V4H3C2.4,4,2,3.6,2,3c0-0.6,0.4-1,1-1h19V1c0-0.6-0.4-1-1-1H3C1.3,0,0,1.3,0,3v20
	c0,1.7,1.3,3,3,3h3V13z"/>
<path class="Black" d="M31,12H9c-0.5,0-1,0.5-1,1v18c0,0.5,0.5,1,1,1h22c0.5,0,1-0.5,1-1V13C32,12.5,31.5,12,31,12z M30,30H10V14h20
	V30z M17,26c-2,0-3-1.3-3-3.9c0-1.3,0.3-2.4,0.8-3.1c0.5-0.7,1.3-1.1,2.3-1.1c1.9,0,2.9,1.3,2.9,3.9c0,1.3-0.3,2.3-0.8,3
	C18.7,25.7,17.9,26,17,26z M17,19.3c-0.8,0-1.2,0.9-1.2,2.8c0,1.7,0.4,2.6,1.2,2.6c0.8,0,1.1-0.9,1.1-2.7
	C18.1,20.2,17.8,19.3,17,19.3z M24,26v-5.2h-2v-1.2c0.3,0,0.6,0,0.8-0.1c0.3,0,0.5-0.1,0.7-0.3c0.2-0.1,0.4-0.3,0.5-0.5
	c0.1-0.2,0.2-0.5,0.3-0.8h1.3v8H24z"/>
</svg>
