<?xml version="1.0" encoding="utf-8"?>
<!-- Generator: Adobe Illustrator 21.0.2, SVG Export Plug-In . SVG Version: 6.00 Build 0)  -->
<svg version="1.1" id="General" xmlns="http://www.w3.org/2000/svg" xmlns:xlink="http://www.w3.org/1999/xlink" x="0px" y="0px"
	 viewBox="0 0 32 32" style="enable-background:new 0 0 32 32;" xml:space="preserve">
<style type="text/css">
	.Black{fill:#727272;}
</style>
<path class="Black" d="M16,16h-3l-0.9-2.7H7.8L7,16H4L8.4,4h3.2L16,16z M11.5,11.3l-1.3-4c-0.1-0.3-0.2-0.7-0.2-1.1H9.9
	c0,0.4-0.1,0.7-0.2,1l-1.3,4.1H11.5z M18,16V4h4.3c1.3,0,2.3,0.2,3.1,0.7s1.1,1.2,1.1,2.1c0,0.6-0.2,1.2-0.7,1.7
	c-0.4,0.5-1,0.8-1.7,1v0c0.8,0.1,1.5,0.4,2,0.9c0.5,0.5,0.8,1.2,0.8,1.9c0,1.1-0.4,2-1.2,2.6c-0.8,0.6-1.8,1-3.2,1H18z M20.7,6v2.8
	h1.2c0.6,0,1-0.1,1.3-0.4c0.3-0.3,0.5-0.6,0.5-1.1c0-0.9-0.7-1.3-2-1.3H20.7z M20.7,10.8V14h1.5c0.6,0,1.1-0.1,1.5-0.4
	c0.4-0.3,0.5-0.7,0.5-1.2c0-0.5-0.2-0.9-0.5-1.1c-0.3-0.3-0.8-0.4-1.4-0.4H20.7z M9.6,30v-8h-3v-1.6c0.4,0,0.8,0,1.2-0.1
	s0.7-0.2,1-0.4c0.3-0.2,0.6-0.4,0.8-0.7c0.2-0.3,0.4-0.7,0.4-1.1H12v12H9.6z M17.8,20.9c0.2-0.6,0.4-1.1,0.8-1.5
	c0.4-0.4,0.8-0.8,1.4-1c0.5-0.2,1.2-0.4,1.9-0.4c0.5,0,1.1,0.1,1.5,0.3c0.5,0.2,0.9,0.4,1.3,0.7c0.4,0.3,0.7,0.7,0.9,1.2
	c0.2,0.5,0.3,1,0.3,1.5c0,0.6-0.1,1.1-0.3,1.5c-0.2,0.4-0.4,0.8-0.8,1.1c-0.3,0.3-0.7,0.6-1.1,0.9c-0.4,0.3-0.8,0.5-1.2,0.8
	c-0.4,0.3-0.8,0.5-1.2,0.8c-0.4,0.3-0.7,0.7-1,1.1H26v2h-8.6c0-0.7,0.1-1.3,0.3-1.8c0.2-0.5,0.5-1,0.8-1.4c0.3-0.4,0.7-0.8,1.2-1.1
	c0.5-0.3,0.9-0.7,1.4-1c0.3-0.2,0.5-0.4,0.8-0.5c0.3-0.2,0.6-0.4,0.8-0.6c0.2-0.2,0.4-0.5,0.6-0.8c0.2-0.3,0.2-0.6,0.2-1
	c0-0.6-0.2-1-0.5-1.3c-0.3-0.3-0.8-0.5-1.3-0.5c-0.3,0-0.6,0.1-0.9,0.2c-0.2,0.2-0.4,0.4-0.6,0.6c-0.1,0.3-0.2,0.6-0.3,0.9
	c-0.1,0.3-0.1,0.6-0.1,1h-2.3C17.6,22.1,17.6,21.5,17.8,20.9z"/>
</svg>
