<?xml version="1.0" encoding="utf-8"?>
<!-- Generator: Adobe Illustrator 21.0.2, SVG Export Plug-In . SVG Version: 6.00 Build 0)  -->
<svg version="1.1" id="Green_Data_Bar_Solid" xmlns="http://www.w3.org/2000/svg" xmlns:xlink="http://www.w3.org/1999/xlink"
	 x="0px" y="0px" viewBox="0 0 32 32" style="enable-background:new 0 0 32 32;" xml:space="preserve">
<style type="text/css">
	.Black{fill:#727272;}
	.Green{fill:#039C23;}
</style>
<path class="Black" d="M31,0H1C0.4,0,0,0.4,0,1v30c0,0.6,0.4,1,1,1h30c0.6,0,1-0.4,1-1V1C32,0.4,31.6,0,31,0z M30,30H2v-8h28V30z
	 M30,20H2v-8h28V20z M30,10H2V2h28V10z"/>
<path class="Green" d="M12,8H4V4h8V8z M20,14H4v4h16V14z M28,24H4v4h24V24z"/>
</svg>
