<?xml version="1.0" encoding="utf-8"?>
<!-- Generator: Adobe Illustrator 21.0.2, SVG Export Plug-In . SVG Version: 6.00 Build 0)  -->
<svg version="1.1" id="High-Low_Lines" xmlns="http://www.w3.org/2000/svg" xmlns:xlink="http://www.w3.org/1999/xlink" x="0px"
	 y="0px" viewBox="0 0 32 32" style="enable-background:new 0 0 32 32;" xml:space="preserve">
<style type="text/css">
	.Yellow{fill:#FFB115;}
	.Black{fill:#727272;}
	.st0{opacity:0.75;}
</style>
<g class="st0">
	<path class="Black" d="M14,16.8L14,16.8l0-2.8L26,2v2.8L14,16.8z M12,16.8V14L6,8v2.8L12,16.8L12,16.8z M26,20H14v2h12V20z
		 M12,20.6l-6,6l0,2.8l6-6L12,20.6z"/>
</g>
<path class="Yellow" d="M5.4,30H4V8h2v21.4L5.4,30z M26,2v20h2V2H26z M12,23.4l1.4-1.4H14v-8h-2V23.4z"/>
</svg>
