<?xml version="1.0" encoding="utf-8"?>
<!-- Generator: Adobe Illustrator 21.0.2, SVG Export Plug-In . SVG Version: 6.00 Build 0)  -->
<svg version="1.1" id="Horizontal_Mode" xmlns="http://www.w3.org/2000/svg" xmlns:xlink="http://www.w3.org/1999/xlink" x="0px"
	 y="0px" viewBox="0 0 32 32" style="enable-background:new 0 0 32 32;" xml:space="preserve">
<style type="text/css">
	.Black{fill:#727272;}
	.Blue{fill:#1177D7;}
	.st0{opacity:0.5;}
</style>
<g class="st0">
	<path class="Black" d="M10,10H2V4h8V10z M6,12H2v6h4V12z M14,6.4l5.8,3.6H20V4h-8v6h2V6.4z M2,26h8v-6H2V26z M22,4v6h8V4H22z
		 M27.8,15L23,18h7v-6h-7L27.8,15z M14,23.6V20h-2v6h8v-6h-0.2L14,23.6z M22,26h8v-6h-8V26z"/>
</g>
<polygon class="Blue" points="24,15 16,10 16,14 8,14 8,16 16,16 16,20 "/>
</svg>
