<?xml version="1.0" encoding="utf-8"?>
<!-- Generator: Adobe Illustrator 21.0.2, SVG Export Plug-In . SVG Version: 6.00 Build 0)  -->
<svg version="1.1" id="Hyperlink_1_" xmlns="http://www.w3.org/2000/svg" xmlns:xlink="http://www.w3.org/1999/xlink" x="0px"
	 y="0px" viewBox="0 0 32 32" style="enable-background:new 0 0 32 32;" xml:space="preserve">
<style type="text/css">
	.Black{fill:#727272;}
</style>
<path id="Hyperlink" class="Black" d="M16.8,18c1.3,1.9,1.1,4.6-0.6,6.3l-4.2,4.2c-2,2-5.1,2-7.1,0l-1.4-1.4c-2-2-2-5.1,0-7.1
	l4.2-4.2c1.7-1.7,4.3-1.9,6.3-0.6l-1.5,1.5c-1.1-0.5-2.5-0.3-3.4,0.6l-4.2,4.2c-1.2,1.2-1.2,3.1,0,4.2l1.4,1.4
	c1.2,1.2,3.1,1.2,4.2,0l4.2-4.2c0.9-0.9,1.1-2.3,0.6-3.4L16.8,18z M28.5,4.9l-1.4-1.4c-2-2-5.1-2-7.1,0l-4.2,4.2
	c-1.7,1.7-1.9,4.3-0.6,6.3l1.5-1.5c-0.5-1.1-0.3-2.5,0.6-3.4l4.2-4.2c1.2-1.2,3.1-1.2,4.2,0l1.4,1.4c1.2,1.2,1.2,3.1,0,4.2l-4.2,4.2
	c-0.9,0.9-2.3,1.1-3.4,0.6L18,16.8c1.9,1.3,4.6,1.1,6.3-0.6l4.2-4.2C30.5,10,30.5,6.8,28.5,4.9z M21.7,11.7c0.4-0.4,0.4-1,0-1.4l0,0
	c-0.4-0.4-1-0.4-1.4,0l-10,10c-0.4,0.4-0.4,1,0,1.4l0,0c0.4,0.4,1,0.4,1.4,0L21.7,11.7z"/>
</svg>
