<?xml version="1.0" encoding="utf-8"?>
<!-- Generator: Adobe Illustrator 21.0.2, SVG Export Plug-In . SVG Version: 6.00 Build 0)  -->
<svg version="1.1" id="Increase_Decimal" xmlns="http://www.w3.org/2000/svg" xmlns:xlink="http://www.w3.org/1999/xlink" x="0px"
	 y="0px" viewBox="0 0 32 32" style="enable-background:new 0 0 32 32;" xml:space="preserve">
<style type="text/css">
	.Black{fill:#727272;}
	.Blue{fill:#1177D7;}
</style>
<polygon class="Blue" points="14,10 10,10 10,13 4,9 10,5 10,8 14,8 "/>
<path class="Black" d="M22.4,14c-2.3,0-3.5-1.6-3.5-4.8c0-1.7,0.3-3,0.9-3.8C20.5,4.4,21.4,4,22.6,4C24.9,4,26,5.6,26,8.9
	c0,1.6-0.3,2.9-0.9,3.8C24.5,13.6,23.6,14,22.4,14z M22.5,5.6c-0.9,0-1.4,1.2-1.4,3.5c0,2.2,0.5,3.3,1.4,3.3c0.9,0,1.3-1.1,1.3-3.4
	C23.8,6.7,23.4,5.6,22.5,5.6z M14.4,28c-2.3,0-3.5-1.6-3.5-4.8c0-1.7,0.3-3,0.9-3.8c0.6-0.9,1.5-1.3,2.7-1.3c2.2,0,3.4,1.6,3.4,4.9
	c0,1.6-0.3,2.9-0.9,3.8C16.5,27.6,15.6,28,14.4,28z M14.5,19.6c-0.9,0-1.4,1.2-1.4,3.5c0,2.2,0.5,3.3,1.4,3.3c0.9,0,1.3-1.1,1.3-3.4
	C15.8,20.7,15.4,19.6,14.5,19.6z M22.4,28c-2.3,0-3.5-1.6-3.5-4.8c0-1.7,0.3-3,0.9-3.8c0.6-0.9,1.5-1.3,2.7-1.3
	c2.2,0,3.4,1.6,3.4,4.9c0,1.6-0.3,2.9-0.9,3.8C24.5,27.6,23.6,28,22.4,28z M22.5,19.6c-0.9,0-1.4,1.2-1.4,3.5c0,2.2,0.5,3.3,1.4,3.3
	c0.9,0,1.3-1.1,1.3-3.4C23.8,20.7,23.4,19.6,22.5,19.6z M18,12h-2v2h2V12z M10,26H8v2h2V26z"/>
</svg>
