<?xml version="1.0" encoding="utf-8"?>
<!-- Generator: Adobe Illustrator 21.0.2, SVG Export Plug-In . SVG Version: 6.00 Build 0)  -->
<svg version="1.1" id="Insert_Sheet" xmlns="http://www.w3.org/2000/svg" xmlns:xlink="http://www.w3.org/1999/xlink" x="0px"
	 y="0px" viewBox="0 0 32 32" style="enable-background:new 0 0 32 32;" xml:space="preserve">
<style type="text/css">
	.Black{fill:#727272;}
	.Yellow{fill:#FFB115;}
	.st0{opacity:0.5;}
</style>
<g class="st0">
	<path class="Black" d="M12,14h8v6h-8V14z M2,14v6h8v-6H2z M10,12V6H2v6H10z M12,28h8v-6h-8V28z M12,6v6h8V6H12z M22,20h8v-6h-8V20z
		 M22,28h8v-6h-8V28z M10,28v-6H2v6H10z"/>
</g>
<polygon class="Yellow" points="27,4 29,2 29,5 32,5 30,7 32,9 29,9 29,12 27,10 25,12 25,9 22,9 24,7 22,5 25,5 25,2 "/>
</svg>
