<?xml version="1.0" encoding="utf-8"?>
<!-- Generator: Adobe Illustrator 21.1.0, SVG Export Plug-In . SVG Version: 6.00 Build 0)  -->
<svg version="1.1" id="InsertTableRowsAbove" xmlns="http://www.w3.org/2000/svg" xmlns:xlink="http://www.w3.org/1999/xlink"
	 x="0px" y="0px" viewBox="0 0 32 32" style="enable-background:new 0 0 32 32;" xml:space="preserve">
<style type="text/css">
	.Yellow{fill:#FFB115;}
	.Blue{fill:#1177D7;}
	.Black{fill:#727272;}
	.st0{opacity:0.5;}
</style>
<g class="st0">
	<path class="Black" d="M20,6v4h-8V6H20z M10,10V6H2v4H10z M30,22v-4H2v4H30z M12,24v4h8v-4H12z M22,24v4h8v-4H22z M10,28v-4H2v4H10
		z"/>
</g>
<rect x="2" y="12" class="Blue" width="28" height="4"/>
<polygon class="Yellow" points="26,3.6 27.6,2 27.6,4.4 30,4.4 28.4,6 30,7.6 27.6,7.6 27.6,10 26,8.4 24.4,10 24.4,7.6 22,7.6 
	23.6,6 22,4.4 24.4,4.4 24.4,2 "/>
</svg>
