<?xml version="1.0" encoding="utf-8"?>
<!-- Generator: Adobe Illustrator 21.0.2, SVG Export Plug-In . SVG Version: 6.00 Build 0)  -->
<svg version="1.1" id="Insert_Sheet_Rows" xmlns="http://www.w3.org/2000/svg" xmlns:xlink="http://www.w3.org/1999/xlink" x="0px"
	 y="0px" viewBox="0 0 32 32" style="enable-background:new 0 0 32 32;" xml:space="preserve">
<style type="text/css">
	.Blue{fill:#1177D7;}
	.Yellow{fill:#FFB115;}
	.Black{fill:#727272;}
	.st0{opacity:0.5;}
</style>
<g class="st0">
	<path class="Black" d="M20,6v6h-8V6H20z M10,12V6H2v6H10z M12,22v6h8v-6H12z M22,22v6h8v-6H22z M10,28v-6H2v6H10z"/>
</g>
<rect x="2" y="14" class="Blue" width="28" height="6"/>
<polygon class="Yellow" points="27,4 29,2 29,5 32,5 30,7 32,9 29,9 29,12 27,10 25,12 25,9 22,9 24,7 22,5 25,5 25,2 "/>
</svg>
