<?xml version="1.0" encoding="utf-8"?>
<!-- Generator: Adobe Illustrator 21.0.2, SVG Export Plug-In . SVG Version: 6.00 Build 0)  -->
<svg version="1.1" id="Line" xmlns="http://www.w3.org/2000/svg" xmlns:xlink="http://www.w3.org/1999/xlink" x="0px" y="0px"
	 viewBox="0 0 32 32" style="enable-background:new 0 0 32 32;" xml:space="preserve">
<style type="text/css">
	.Blue{fill:#1177D7;}
	.Red{fill:#D11C1C;}
	.Yellow{fill:#FFB115;}
</style>
<path class="Yellow" d="M29,10c-1.7,0-3,1.3-3,3c0,0.5,0.1,0.9,0.3,1.3l-10,10C15.9,24.1,15.5,24,15,24c-0.6,0-1.1,0.2-1.5,0.4
	L5.8,18C5.9,17.7,6,17.4,6,17c0-1.7-1.3-3-3-3c-1.7,0-3,1.3-3,3s1.3,3,3,3c0.6,0,1.1-0.2,1.5-0.4l7.7,6.4c-0.1,0.3-0.2,0.7-0.2,1
	c0,1.7,1.3,3,3,3c1.7,0,3-1.3,3-3c0-0.5-0.1-0.9-0.3-1.3l10-10c0.4,0.2,0.8,0.3,1.3,0.3c1.7,0,3-1.3,3-3S30.7,10,29,10z M3,18
	c-0.6,0-1-0.4-1-1s0.4-1,1-1c0.6,0,1,0.4,1,1S3.6,18,3,18z M15,28c-0.6,0-1-0.4-1-1s0.4-1,1-1c0.6,0,1,0.4,1,1S15.6,28,15,28z
	 M29,14c-0.6,0-1-0.4-1-1s0.4-1,1-1c0.6,0,1,0.4,1,1S29.6,14,29,14z"/>
<path class="Blue" d="M29,20c-1,0-1.9,0.5-2.4,1.3L18,18.8c-0.1-1.6-1.4-2.8-3-2.8c-1.7,0-3,1.3-3,3c0,0.4,0.1,0.7,0.2,1l-7.7,6.4
	C4.1,26.2,3.6,26,3,26c-1.7,0-3,1.3-3,3s1.3,3,3,3c1.7,0,3-1.3,3-3c0-0.4-0.1-0.7-0.2-1l7.7-6.4c0.4,0.3,1,0.4,1.5,0.4
	c1,0,1.9-0.5,2.4-1.3l8.6,2.5c0.1,1.6,1.4,2.8,3,2.8c1.7,0,3-1.3,3-3S30.7,20,29,20z M3,30c-0.6,0-1-0.4-1-1s0.4-1,1-1
	c0.6,0,1,0.4,1,1S3.6,30,3,30z M15,20c-0.6,0-1-0.4-1-1s0.4-1,1-1c0.6,0,1,0.4,1,1S15.6,20,15,20z M29,24c-0.6,0-1-0.4-1-1
	s0.4-1,1-1c0.6,0,1,0.4,1,1S29.6,24,29,24z"/>
<path class="Red" d="M29,0c-1.7,0-3,1.3-3,3c0,0.2,0,0.4,0.1,0.5l-9.1,5.2C16.4,8.3,15.7,8,15,8c-0.8,0-1.5,0.3-2.1,0.8L6,5.4
	C6,5.2,6,5.1,6,5c0-1.7-1.3-3-3-3C1.3,2,0,3.3,0,5s1.3,3,3,3c0.8,0,1.5-0.3,2.1-0.8l7,3.5c0,0.1,0,0.2,0,0.4c0,1.7,1.3,3,3,3
	c1.7,0,3-1.3,3-3c0-0.2,0-0.4-0.1-0.5l9.1-5.2C27.6,5.7,28.3,6,29,6c1.7,0,3-1.3,3-3S30.7,0,29,0z M3,6C2.4,6,2,5.6,2,5s0.4-1,1-1
	c0.6,0,1,0.4,1,1S3.6,6,3,6z M15,12c-0.6,0-1-0.4-1-1s0.4-1,1-1c0.6,0,1,0.4,1,1S15.6,12,15,12z M29,4c-0.6,0-1-0.4-1-1s0.4-1,1-1
	c0.6,0,1,0.4,1,1S29.6,4,29,4z"/>
</svg>
