<?xml version="1.0" encoding="utf-8"?>
<!-- Generator: Adobe Illustrator 21.1.0, SVG Export Plug-In . SVG Version: 6.00 Build 0)  -->
<svg version="1.1" id="Link" xmlns="http://www.w3.org/2000/svg" xmlns:xlink="http://www.w3.org/1999/xlink" x="0px" y="0px"
	 viewBox="0 0 16 16" style="enable-background:new 0 0 16 16;" xml:space="preserve">
<style type="text/css">
	.Black{fill:#727272;}
</style>
<path class="Black" d="M12.5,5h-2C9.3,5,8.3,5.9,8.1,7H6.9C6.7,5.9,5.7,5,4.5,5h-2C1.1,5,0,6.1,0,7.5S1.1,10,2.5,10h2
	c1.2,0,2.2-0.9,2.4-2h1.1c0.2,1.1,1.2,2,2.4,2h2c1.4,0,2.5-1.1,2.5-2.5S13.9,5,12.5,5z M4.5,9h-2C1.7,9,1,8.3,1,7.5
	C1,6.7,1.7,6,2.5,6h2c0.6,0,1.2,0.4,1.4,1H3.5C3.2,7,3,7.2,3,7.5S3.2,8,3.5,8h2.4C5.7,8.6,5.1,9,4.5,9z M12.5,9h-2
	C9.9,9,9.3,8.6,9.1,8h2.4C11.8,8,12,7.8,12,7.5S11.8,7,11.5,7H9.1c0.2-0.6,0.8-1,1.4-1h2C13.3,6,14,6.7,14,7.5C14,8.3,13.3,9,12.5,9
	z"/>
</svg>
