<?xml version="1.0" encoding="utf-8"?>
<!-- Generator: Adobe Illustrator 21.0.2, SVG Export Plug-In . SVG Version: 6.00 Build 0)  -->
<svg version="1.1" id="Mail_Merge_Preview" xmlns="http://www.w3.org/2000/svg" xmlns:xlink="http://www.w3.org/1999/xlink" x="0px"
	 y="0px" viewBox="0 0 32 32" style="enable-background:new 0 0 32 32;" xml:space="preserve">
<style type="text/css">
	.Blue{fill:#1177D7;}
	.Black{fill:#727272;}
	.st0{opacity:0.5;}
</style>
<g class="st0">
	<path class="Black" d="M0,22h8v6H0V22z M0,20h8v-6H0V20z M14,8c0-0.7,0.1-1.4,0.3-2H10v6h5.1C14.4,10.8,14,9.5,14,8z M20,8
		c0,1.1,0.9,2,2,2s2-0.9,2-2s-0.9-2-2-2S20,6.9,20,8z M24.9,15.5C24,15.8,23,16,22,16c-0.7,0-1.4-0.1-2-0.3V20h8v-1.4L24.9,15.5z
		 M0,12h8V6H0V12z M20,28h8v-6h-8V28z M16.7,14H10v6h8v-5.1C17.5,14.7,17.1,14.3,16.7,14z M10,28h8v-6h-8V28z"/>
</g>
<path class="Blue" d="M22,2c3.3,0,6,2.7,6,6c0,1.2-0.4,2.3-1,3.3l4.6,4.6c0.5,0.5,0.5,1.3,0,1.7c-0.5,0.5-1.3,0.5-1.7,0L25.3,13
	c-0.9,0.6-2.1,1-3.3,1c-3.3,0-6-2.7-6-6C16,4.7,18.7,2,22,2z M22,12c2.2,0,4-1.8,4-4s-1.8-4-4-4s-4,1.8-4,4S19.8,12,22,12z"/>
</svg>
