<?xml version="1.0" encoding="utf-8"?>
<!-- Generator: Adobe Illustrator 21.0.2, SVG Export Plug-In . SVG Version: 6.00 Build 0)  -->
<svg version="1.1" id="Manage_Queries" xmlns="http://www.w3.org/2000/svg" xmlns:xlink="http://www.w3.org/1999/xlink" x="0px"
	 y="0px" viewBox="0 0 32 32" style="enable-background:new 0 0 32 32;" xml:space="preserve">
<style type="text/css">
	.Green{fill:#039C23;}
	.Yellow{fill:#FFB115;}
</style>
<path class="Yellow" d="M18.7,16h-0.2l-2.2-2.9c2.2-0.7,3.7-1.8,3.7-3.1v2v2C20,14.7,19.5,15.4,18.7,16z M10,12c5.5,0,10-1.8,10-4V4
	c0-2.2-4.5-4-10-4S0,1.8,0,4v4C0,10.2,4.5,12,10,12z M10,18c0.7,0,1.4,0,2.1-0.1l3.4-4.6C13.9,13.8,12,14,10,14c-5.5,0-10-1.8-10-4
	v4C0,16.2,4.5,18,10,18z M10.5,20c-0.2,0-0.3,0-0.5,0c-5.5,0-10-1.8-10-4v4c0,1.9,3.2,3.4,7.6,3.9L10.5,20z"/>
<path class="Green" d="M32,18l-6,8l-6-8h4c0-4.4-1.8-8-4-8c4.4,0,8,3.6,8,8H32z M18,24h4l-6-8l-6,8h4c0,4.4,3.6,8,8,8
	C19.8,32,18,28.4,18,24z"/>
</svg>
