<?xml version="1.0" encoding="utf-8"?>
<!-- Generator: Adobe Illustrator 21.0.2, SVG Export Plug-In . SVG Version: 6.00 Build 0)  -->
<svg version="1.1" id="Manage_Rules" xmlns="http://www.w3.org/2000/svg" xmlns:xlink="http://www.w3.org/1999/xlink" x="0px"
	 y="0px" viewBox="0 0 32 32" style="enable-background:new 0 0 32 32;" xml:space="preserve">
<style type="text/css">
	.Black{fill:#727272;}
	.Yellow{fill:#FFB115;}
	.Red{fill:#D11C1C;}
	.Blue{fill:#1177D7;}
	.st0{opacity:0.5;}
</style>
<g class="st0">
	<path class="Black" d="M21,16l0.3-2h5.4l0.3,2h1v-6h-8v6H21z M28,8h-8V2h8V8z M18,16h-8v-6h8V16z M0,18h8v6H0V18z M14,24h-4v-6h5.9
		L15,18.8l1.5,2.1L14,21.3V24z M0,2h8v6H0V2z"/>
</g>
<path class="Blue" d="M32,25v-2l-2.2-0.4c-0.2-0.6-0.4-1.3-0.8-1.8l1.3-1.8l-1.4-1.4l-1.8,1.3c-0.5-0.3-1.2-0.6-1.8-0.7L25,16h-2
	l-0.4,2.2c-0.6,0.2-1.3,0.4-1.8,0.7l-1.8-1.3l-1.4,1.4l1.3,1.8c-0.3,0.5-0.6,1.2-0.8,1.8L16,23v2l2.2,0.4c0.2,0.6,0.4,1.3,0.8,1.8
	l-1.3,1.8l1.4,1.4l1.8-1.3c0.5,0.3,1.2,0.6,1.8,0.7L23,32h2l0.4-2.2c0.6-0.2,1.3-0.4,1.8-0.7l1.8,1.3l1.4-1.4l-1.3-1.8
	c0.3-0.5,0.6-1.2,0.8-1.8L32,25z M24,26c-1.1,0-2-0.9-2-2s0.9-2,2-2c1.1,0,2,0.9,2,2S25.1,26,24,26z"/>
<rect x="10" y="2" class="Yellow" width="8" height="6"/>
<rect y="10" class="Red" width="8" height="6"/>
</svg>
