<?xml version="1.0" encoding="utf-8"?>
<!-- Generator: Adobe Illustrator 21.0.2, SVG Export Plug-In . SVG Version: 6.00 Build 0)  -->
<svg version="1.1" id="Manage_Data_Source" xmlns="http://www.w3.org/2000/svg" xmlns:xlink="http://www.w3.org/1999/xlink" x="0px"
	 y="0px" viewBox="0 0 32 32" style="enable-background:new 0 0 32 32;" xml:space="preserve">
<style type="text/css">
	.Yellow{fill:#FFB115;}
	.Blue{fill:#1177D7;}
</style>
<path class="Yellow" d="M2,10V6c0-2.2,4.5-4,10-4s10,1.8,10,4v4c0,2.2-4.5,4-10,4S2,12.2,2,10z M12,20v-0.7l2.5-0.4L13,16.8l1-0.9
	C13.3,16,12.7,16,12,16c-5.5,0-10-1.8-10-4v4C2,18.2,6.5,20,12,20z M14.5,25.1L12,24.7V22c-5.5,0-10-1.8-10-4v4c0,2.2,4.5,4,10,4
	c0.7,0,1.3,0,1.9-0.1L14.5,25.1z"/>
<path class="Blue" d="M30,23v-2l-2.2-0.4c-0.2-0.6-0.4-1.3-0.7-1.8l1.3-1.8l-1.4-1.4l-1.8,1.3c-0.5-0.3-1.2-0.6-1.8-0.7L23,14h-2
	l-0.4,2.2c-0.6,0.2-1.3,0.4-1.8,0.7l-1.8-1.3l-1.4,1.4l1.3,1.8c-0.3,0.5-0.6,1.2-0.7,1.8L14,21v2l2.2,0.4c0.2,0.6,0.4,1.3,0.7,1.8
	l-1.3,1.8l1.4,1.4l1.8-1.3c0.5,0.3,1.2,0.6,1.8,0.7L21,30h2l0.4-2.2c0.6-0.2,1.3-0.4,1.8-0.7l1.8,1.3l1.4-1.4l-1.3-1.8
	c0.3-0.5,0.6-1.2,0.7-1.8L30,23z M22,24c-1.1,0-2-0.9-2-2s0.9-2,2-2s2,0.9,2,2S23.1,24,22,24z"/>
</svg>
