<?xml version="1.0" encoding="utf-8"?>
<!-- Generator: Adobe Illustrator 21.0.2, SVG Export Plug-In . SVG Version: 6.00 Build 0)  -->
<svg version="1.1" id="Math__x26__Trig" xmlns="http://www.w3.org/2000/svg" xmlns:xlink="http://www.w3.org/1999/xlink" x="0px"
	 y="0px" viewBox="0 0 32 32" style="enable-background:new 0 0 32 32;" xml:space="preserve">
<style type="text/css">
	.Green{fill:#039C23;}
</style>
<path class="Green" d="M17.8,16h-7.5c0.1-1,0.5-1.9,1-2.6C12,12.4,12.9,12,14,12c1.2,0,2.2,0.4,2.8,1.3C17.3,14,17.7,14.9,17.8,16z
	 M14,22c1.2,0,2.1-0.4,2.8-1.3c0.5-0.7,0.9-1.6,1-2.7h-7.5c0.1,1.1,0.4,1.9,1,2.7C11.9,21.6,12.8,22,14,22z M4,5c0,0.6,0.4,1,1,1h21
	v23c0,0.6-0.4,1-1,1H3c-0.6,0-1-0.4-1-1V5c0-1.7,1.3-3,3-3h20c0.6,0,1,0.4,1,1v1H5C4.4,4,4,4.4,4,5z M8,17.2c0,2,0.5,3.7,1.6,4.9
	c1.1,1.3,2.5,1.9,4.3,1.9c1.8,0,3.3-0.6,4.4-1.9c1.1-1.3,1.6-3,1.6-5.2c0-2-0.5-3.7-1.6-4.9c-1.1-1.3-2.5-1.9-4.2-1.9
	c-1.9,0-3.4,0.6-4.5,1.9C8.6,13.2,8,15,8,17.2z"/>
</svg>
