<?xml version="1.0" encoding="utf-8"?>
<!-- Generator: Adobe Illustrator 21.0.2, SVG Export Plug-In . SVG Version: 6.00 Build 0)  -->
<svg version="1.1" id="Merge__x26__Center" xmlns="http://www.w3.org/2000/svg" xmlns:xlink="http://www.w3.org/1999/xlink" x="0px"
	 y="0px" viewBox="0 0 32 32" style="enable-background:new 0 0 32 32;" xml:space="preserve">
<style type="text/css">
	.Black{fill:#727272;}
	.Green{fill:#039C23;}
	.st0{opacity:0.5;}
</style>
<g class="st0">
	<path class="Black" d="M22,0h8v6h-8V0z M12,0v6h8V0H12z M10,6V0H2v6H10z M30,30v-6h-8v6H30z M20,30v-6h-8v6H20z M10,30v-6H2v6H10z"
		/>
</g>
<path class="Green" d="M2,8v14h28V8H2z M10,16H8v2l-4-3l4-3v2h2V16z M18,18l-0.6-1.8h-2.9L14,18h-2l3-8h2.2l2.9,8H18z M24,18v-2h-2
	v-2h2v-2l4,3L24,18z M16.2,12.1l0.9,2.7h-2.1l0.9-2.7c0.1-0.2,0.1-0.5,0.1-0.7h0C16,11.7,16.1,11.9,16.2,12.1z"/>
</svg>
