<?xml version="1.0" encoding="utf-8"?>
<!-- Generator: Adobe Illustrator 21.0.2, SVG Export Plug-In . SVG Version: 6.00 Build 0)  -->
<svg version="1.1" id="Move_PivotTable" xmlns="http://www.w3.org/2000/svg" xmlns:xlink="http://www.w3.org/1999/xlink" x="0px"
	 y="0px" viewBox="0 0 32 32" style="enable-background:new 0 0 32 32;" xml:space="preserve">
<style type="text/css">
	.Black{fill:#727272;}
	.Blue{fill:#1177D7;}
	.Green{fill:#039C23;}
	.st0{opacity:0.5;}
</style>
<g class="st0">
	<path class="Blue" d="M10,10H6V6h4V10z M24,6H12v4h12V6z M10,12H6v12h4V12z"/>
</g>
<path class="Black" d="M18,26h-6H4V4h22v11.6l2,1.3V3c0-0.6-0.4-1-1-1H3C2.4,2,2,2.4,2,3v24c0,0.6,0.4,1,1,1h15V26z"/>
<path class="Green" d="M12,24h8v6l12-8l-12-8v6h-8V24z"/>
</svg>
