<?xml version="1.0" encoding="utf-8"?>
<!-- Generator: Adobe Illustrator 21.0.2, SVG Export Plug-In . SVG Version: 6.00 Build 0)  -->
<svg version="1.1" id="Normal_Margins" xmlns="http://www.w3.org/2000/svg" xmlns:xlink="http://www.w3.org/1999/xlink" x="0px"
	 y="0px" viewBox="0 0 32 32" style="enable-background:new 0 0 32 32;" xml:space="preserve">
<style type="text/css">
	.Black{fill:#727272;}
	.Blue{fill:#1177D7;}
</style>
<path class="Black" d="M27,2H5C4.4,2,4,2.4,4,3v26c0,0.6,0.4,1,1,1h22c0.6,0,1-0.4,1-1V3C28,2.4,27.6,2,27,2z M26,28H6V4h20V28z"/>
<path class="Blue" d="M26,10V8h-4V4h-2v4h-8V4h-2v4H6v2h4v12H6v2h4v4h2v-4h8v4h2v-4h4v-2h-4V10H26z M20,22h-8V10h8V22z"/>
</svg>
