<?xml version="1.0" encoding="utf-8"?>
<!-- Generator: Adobe Illustrator 21.0.2, SVG Export Plug-In . SVG Version: 6.00 Build 0)  -->
<svg version="1.1" id="Number_1_" xmlns="http://www.w3.org/2000/svg" xmlns:xlink="http://www.w3.org/1999/xlink" x="0px" y="0px"
	 viewBox="0 0 32 32" style="enable-background:new 0 0 32 32;" xml:space="preserve">
<style type="text/css">
	.Black{fill:#727272;}
</style>
<path id="Number" class="Black" d="M7,24V12H3v-2c0.6,0,1.2,0,1.7-0.1c0.6-0.1,1-0.3,1.5-0.6C6.6,9,7,8.6,7.3,8.2
	C7.6,7.7,7.8,6.7,7.9,6H11v18H7z M15.7,10.3c0.2-0.9,0.6-1.6,1.1-2.3c0.5-0.6,1.1-1.2,1.9-1.5C19.5,6.2,20.3,6,21.3,6
	c0.7,0,1.5,0.1,2.1,0.4c0.7,0.3,1.3,0.6,1.8,1.1c0.5,0.5,0.9,1.1,1.2,1.7c0.3,0.7,0.5,1.5,0.5,2.3c0,0.9-0.1,1.7-0.4,2.3
	c-0.3,0.6-0.6,1.2-1.1,1.7C25,16,24.5,16.5,24,16.9c-0.6,0.4-1.1,0.8-1.7,1.2c-0.6,0.4-1.1,0.8-1.6,1.3c-0.5,0.5-1,1-1.4,1.6H27V24
	H15c0-1,0.1-1.9,0.4-2.7c0.3-0.8,0.6-1.4,1.1-2c0.5-0.6,1-1.1,1.6-1.7c0.6-0.5,1.3-1,2-1.5c0.4-0.3,0.7-0.5,1.1-0.8
	c0.4-0.3,0.8-0.6,1.1-0.9c0.3-0.3,0.6-0.7,0.8-1.1c0.2-0.4,0.3-0.9,0.3-1.4c0-0.9-0.2-1.5-0.7-2c-0.5-0.5-1-0.7-1.8-0.7
	c-0.5,0-0.9,0.1-1.2,0.4c-0.3,0.2-0.6,0.6-0.8,1c-0.2,0.4-0.3,0.8-0.4,1.3c-0.1,0.5-0.1,1-0.1,1.4h-3.2
	C15.3,12.1,15.5,11.2,15.7,10.3z"/>
</svg>
