<?xml version="1.0" encoding="utf-8"?>
<!-- Generator: Adobe Illustrator 21.0.2, SVG Export Plug-In . SVG Version: 6.00 Build 0)  -->
<svg version="1.1" id="Orientation" xmlns="http://www.w3.org/2000/svg" xmlns:xlink="http://www.w3.org/1999/xlink" x="0px"
	 y="0px" viewBox="0 0 32 32" style="enable-background:new 0 0 32 32;" xml:space="preserve">
<style type="text/css">
	.Black{fill:#727272;}
</style>
<path class="Black" d="M23,12h-3V7l-7-7H1C0.4,0,0,0.4,0,1v22c0,0.6,0.4,1,1,1h5v7c0,0.6,0.4,1,1,1h22c0.6,0,1-0.4,1-1V19L23,12z
	 M2,22V2h10v5c0,0.6,0.4,1,1,1h5v4H7c-0.6,0-1,0.4-1,1v9H2z M28,30H8v-6v-2v-8h10h2h2v5c0,0.6,0.4,1,1,1h5V30z"/>
</svg>
