<?xml version="1.0" encoding="utf-8"?>
<!-- Generator: Adobe Illustrator 21.0.2, SVG Export Plug-In . SVG Version: 6.00 Build 0)  -->
<svg version="1.1" id="Other_Charts" xmlns="http://www.w3.org/2000/svg" xmlns:xlink="http://www.w3.org/1999/xlink" x="0px"
	 y="0px" viewBox="0 0 32 32" style="enable-background:new 0 0 32 32;" xml:space="preserve">
<style type="text/css">
	.Blue{fill:#1177D7;}
	.Yellow{fill:#FFB115;}
	.Red{fill:#D11C1C;}
</style>
<path class="Yellow" d="M19.2,20.6c-0.9,0.7-2,1.1-3.2,1.3V30c3.4-0.2,6.5-1.6,8.9-3.7L19.2,20.6z"/>
<path class="Blue" d="M26.3,5.2l-5.7,5.7C21.5,12,22,13.4,22,15c0,1.6-0.5,3-1.4,4.2l5.7,5.7c2.3-2.6,3.7-6.1,3.7-9.9
	C30,11.3,28.6,7.8,26.3,5.2z"/>
<path class="Red" d="M8,15c0-3.9,3.1-7,7-7c1.6,0,3,0.5,4.2,1.4l5.7-5.7c-2.6-2.3-6.1-3.7-9.9-3.7c-8.3,0-15,6.7-15,15
	C0,23,6.2,29.5,14,30v-8.1C10.6,21.4,8,18.5,8,15z"/>
</svg>
