<?xml version="1.0" encoding="utf-8"?>
<!-- Generator: Adobe Illustrator 21.0.2, SVG Export Plug-In . SVG Version: 6.00 Build 0)  -->
<svg version="1.1" id="Group_Field" xmlns="http://www.w3.org/2000/svg" xmlns:xlink="http://www.w3.org/1999/xlink" x="0px"
	 y="0px" viewBox="0 0 32 32" style="enable-background:new 0 0 32 32;" xml:space="preserve">
<style type="text/css">
	.Black{fill:#727272;}
	.Blue{fill:#1177D7;}
</style>
<path class="Blue" d="M6,16v-5c0-0.5,0.5-1,1-1h22c0.5,0,1,0.5,1,1v5H6z M24,6V1c0-0.5-0.5-1-1-1H1C0.5,0,0,0.5,0,1v5H24z"/>
<path class="Black" d="M30,16v15c0,0.5-0.5,1-1,1H7c-0.5,0-1-0.5-1-1v-9H1c-0.5,0-1-0.5-1-1V6h2v14h4v-4h2v14h20V16H30z M16.4,23.6
	c-0.6,1.4-0.9,2.8-1.1,4.3l0,0.1h2.3l0-0.1c0-0.6,0.1-1.4,0.2-2.1c0.1-0.8,0.4-1.5,0.6-2.2c0.3-0.7,0.6-1.4,1-2.1
	c0.4-0.6,0.9-1.2,1.4-1.7V18h-7v2h4.7C17.8,21.1,17,22.3,16.4,23.6z M24,6h-2v4h2V6z"/>
</svg>
