<?xml version="1.0" encoding="utf-8"?>
<!-- Generator: Adobe Illustrator 21.0.2, SVG Export Plug-In . SVG Version: 6.00 Build 0)  -->
<svg version="1.1" id="Filds_Items_Sets" xmlns="http://www.w3.org/2000/svg" xmlns:xlink="http://www.w3.org/1999/xlink" x="0px"
	 y="0px" viewBox="0 0 32 32" style="enable-background:new 0 0 32 32;" xml:space="preserve">
<style type="text/css">
	.Black{fill:#727272;}
	.Blue{fill:#1177D7;}
	.st0{opacity:0.5;}
</style>
<g class="st0">
	<path class="Blue" d="M10,10H6V6h4V10z M24,6H12v4h12V6z M10,12H6v12h4V12z"/>
</g>
<path class="Black" d="M31,12h-3V3c0-0.6-0.4-1-1-1H3C2.4,2,2,2.4,2,3v24c0,0.6,0.4,1,1,1h9v3c0,0.5,0.5,1,1,1h18c0.5,0,1-0.5,1-1
	V13C32,12.5,31.5,12,31,12z M4,26V4h22v8H13c-0.5,0-1,0.5-1,1v13H4z M30,30H14v-2v-2V14h12h2h2V30z M22.7,18.9H24l-0.3,1.2h-1.3
	l-1.3,5.1c-0.1,0.6-0.4,1.1-0.7,1.6c-0.3,0.4-0.7,0.7-1.1,0.9c-0.4,0.2-0.9,0.3-1.4,0.3c-0.5,0-1-0.1-1.3-0.3
	c-0.4-0.2-0.6-0.5-0.6-0.9c0-0.3,0.1-0.5,0.3-0.6c0.2-0.2,0.4-0.3,0.7-0.3c0.1,0,0.2,0,0.3,0.1c0.1,0,0.2,0.1,0.3,0.2
	c0.1,0,0.2,0.2,0.3,0.4c0.1,0.1,0.1,0.1,0.2,0.2c0.1,0,0.1,0,0.2,0c0.3,0,0.5-0.3,0.6-0.9l1.3-5.7h-0.9l0.3-1.2h1l0.2-0.6
	c0.2-0.7,0.5-1.3,1.1-1.7c0.6-0.4,1.3-0.6,2.2-0.6c0.5,0,0.8,0.1,1.1,0.2c0.3,0.1,0.5,0.2,0.6,0.4c0.1,0.2,0.2,0.4,0.2,0.6
	c0,0.2,0,0.3-0.1,0.5s-0.2,0.3-0.4,0.3s-0.3,0.1-0.5,0.1c-0.2,0-0.3,0-0.5-0.1c-0.1-0.1-0.3-0.2-0.4-0.3c-0.2-0.2-0.3-0.3-0.3-0.3
	c-0.1,0-0.1-0.1-0.2-0.1c-0.2,0-0.3,0.1-0.4,0.2c-0.1,0.1-0.2,0.3-0.2,0.7L22.7,18.9z M25.2,22.1l0.6,1.2c0.3-0.5,0.6-0.8,0.7-0.9
	c0.2-0.2,0.3-0.3,0.5-0.4c0.2-0.1,0.3-0.1,0.5-0.1c0.2,0,0.3,0,0.4,0.1c0.1,0.1,0.2,0.2,0.2,0.4c0,0.1,0,0.2-0.1,0.3
	s-0.1,0.1-0.2,0.2s-0.1,0.1-0.2,0.1c0,0-0.1,0-0.3,0c-0.2,0-0.3,0-0.3,0c-0.1,0-0.1,0.1-0.2,0.1c-0.1,0.1-0.2,0.1-0.2,0.2
	c0,0-0.2,0.2-0.4,0.6l0.2,0.4c0.2,0.3,0.3,0.5,0.4,0.6c0.1,0.1,0.2,0.1,0.3,0.1c0.2,0,0.3-0.1,0.6-0.3l0.4,0.5
	c-0.4,0.4-0.9,0.6-1.4,0.6c-0.2,0-0.4,0-0.5-0.1s-0.3-0.2-0.4-0.3s-0.2-0.3-0.4-0.6l-0.2-0.5c-0.2,0.3-0.4,0.6-0.6,0.8
	c-0.2,0.2-0.4,0.4-0.6,0.5C23.8,26,23.7,26,23.5,26c-0.1,0-0.2,0-0.3-0.1c-0.1,0-0.1-0.1-0.2-0.2c0-0.1-0.1-0.2-0.1-0.3
	c0-0.1,0-0.2,0.1-0.3c0.1-0.1,0.1-0.2,0.2-0.2s0.2-0.1,0.5-0.1c0.2,0,0.3,0,0.4-0.1c0.1,0,0.2-0.1,0.3-0.2s0.3-0.3,0.5-0.7l-0.4-0.8
	h-0.6l0.2-0.7c0.3,0,0.6-0.2,0.9-0.3H25.2z"/>
</svg>
