<?xml version="1.0" encoding="utf-8"?>
<!-- Generator: Adobe Illustrator 21.0.2, SVG Export Plug-In . SVG Version: 6.00 Build 0)  -->
<svg version="1.1" id="Print_Area" xmlns="http://www.w3.org/2000/svg" xmlns:xlink="http://www.w3.org/1999/xlink" x="0px" y="0px"
	 viewBox="0 0 32 32" style="enable-background:new 0 0 32 32;" xml:space="preserve">
<style type="text/css">
	.Black{fill:#727272;}
	.Blue{fill:#1177D7;}
	.st0{opacity:0.5;}
</style>
<g class="st0">
	<path class="Blue" d="M8,18c0-2.2,1.8-4,4-4l2,0v-2V8l4,0V6H8v16l0-2V18z"/>
</g>
<polygon class="Blue" points="8,20 8,22 8,6 18,6 18,8 20,8 20,6 22,6 22,4 20,4 20,2 18,2 18,4 8,4 8,2 6,2 6,4 4,4 4,6 6,6 6,20 
	4,20 4,22 6,22 6,24 8,24 8,22 8,22 "/>
<path class="Black" d="M4,24h4v2H3c-0.6,0-1-0.4-1-1V1c0-0.6,0.4-1,1-1h20c0.6,0,1,0.4,1,1v7h-2V2H4V24z M26,18v-8H16v8h2v-6h6v6H26
	z M32,18v10c0,1.1-0.9,2-2,2h-4v2H16v-2h-4c-1.1,0-2-0.9-2-2V18c0-1.1,0.9-2,2-2h2v3c0,0.6,0.4,1,1,1h12c0.6,0,1-0.4,1-1v-3h2
	C31.1,16,32,16.9,32,18z M24,30v-4h-6v4H24z"/>
</svg>
