<?xml version="1.0" encoding="utf-8"?>
<!-- Generator: Adobe Illustrator 21.0.2, SVG Export Plug-In . SVG Version: 6.00 Build 0)  -->
<svg version="1.1" id="Protect_Sheet" xmlns="http://www.w3.org/2000/svg" xmlns:xlink="http://www.w3.org/1999/xlink" x="0px"
	 y="0px" viewBox="0 0 32 32" style="enable-background:new 0 0 32 32;" xml:space="preserve">
<style type="text/css">
	.Black{fill:#727272;}
	.Yellow{fill:#FFB115;}
	.st0{opacity:0.5;}
</style>
<g class="st0">
	<rect x="20" y="2" class="Black" width="8" height="6"/>
	<rect x="20" y="10" class="Black" width="8" height="6"/>
	<rect x="10" y="2" class="Black" width="8" height="6"/>
	<rect y="2" class="Black" width="8" height="6"/>
	<rect y="10" class="Black" width="8" height="6"/>
	<rect x="10" y="10" class="Black" width="8" height="6"/>
	<rect x="10" y="18" class="Black" width="8" height="6"/>
	<rect y="18" class="Black" width="8" height="6"/>
</g>
<path class="Yellow" d="M31,24h-1v-3c0-1.7-1.3-3-3-3h-2c-1.7,0-3,1.3-3,3v3h-1c-0.6,0-1,0.4-1,1v6c0,0.6,0.4,1,1,1h10
	c0.6,0,1-0.4,1-1v-6C32,24.4,31.6,24,31,24z M24,21c0-0.6,0.4-1,1-1h2c0.6,0,1,0.4,1,1v3h-4V21z"/>
</svg>
