<?xml version="1.0" encoding="utf-8"?>
<!-- Generator: Adobe Illustrator 21.0.2, SVG Export Plug-In . SVG Version: 6.00 Build 0)  -->
<svg version="1.1" id="Protect_Workbook" xmlns="http://www.w3.org/2000/svg" xmlns:xlink="http://www.w3.org/1999/xlink" x="0px"
	 y="0px" viewBox="0 0 32 32" style="enable-background:new 0 0 32 32;" xml:space="preserve">
<style type="text/css">
	.Yellow{fill:#FFB115;}
	.Black{fill:#727272;}
	.st0{opacity:0.75;}
	.st1{opacity:0.5;}
</style>
<g class="st0">
	<path class="Black" d="M22,12h-6V8h6V12z M22,17v-3h-6v4h5C21.3,17.6,21.6,17.3,22,17z M25,16h2c1.1,0,2.2,0.4,3,1v-3h-6v2.1
		C24.3,16,24.7,16,25,16z M30,8h-6v4h6V8z M20,22.2V21c0-0.3,0-0.7,0.1-1H16v4h2.2C18.5,23.1,19.1,22.5,20,22.2z M8,12h6V8H8V12z
		 M8,24h6v-4H8V24z M8,18h6v-4H8V18z"/>
</g>
<g class="st1">
	<path class="Black" d="M14,6H8V2h6V6z M22,2h-6v4h6V2z M6,8H0v4h6V8z M6,14H0v4h6V14z M6,2H0v4h6V2z"/>
</g>
<path class="Yellow" d="M31,24h-1v-3c0-1.7-1.3-3-3-3h-2c-1.7,0-3,1.3-3,3v3h-1c-0.6,0-1,0.4-1,1v6c0,0.6,0.4,1,1,1h10
	c0.6,0,1-0.4,1-1v-6C32,24.4,31.6,24,31,24z M24,21c0-0.6,0.4-1,1-1h2c0.6,0,1,0.4,1,1v3h-4V21z"/>
</svg>
