<?xml version="1.0" encoding="utf-8"?>
<!-- Generator: Adobe Illustrator 21.0.2, SVG Export Plug-In . SVG Version: 6.00 Build 0)  -->
<svg version="1.1" id="Quick_Print" xmlns="http://www.w3.org/2000/svg" xmlns:xlink="http://www.w3.org/1999/xlink" x="0px"
	 y="0px" viewBox="0 0 32 32" style="enable-background:new 0 0 32 32;" xml:space="preserve">
<style type="text/css">
	.Black{fill:#727272;}
</style>
<path class="Black" d="M10,2h12v8h2V0H8v10h2V2z M28,8h-2v3c0,0.6-0.4,1-1,1H7c-0.6,0-1-0.4-1-1V8H4c-1.1,0-2,0.9-2,2v12
	c0,1.1,0.9,2,2,2h4v6h16v-6h4c1.1,0,2-0.9,2-2V10C30,8.9,29.1,8,28,8z M22,22v2v4H10v-4v-2v-4h12V22z M20,24h-8v2h8V24z M20,20h-8v2
	h8V20z"/>
</svg>
