<?xml version="1.0" encoding="utf-8"?>
<!-- Generator: Adobe Illustrator 21.0.2, SVG Export Plug-In . SVG Version: 6.00 Build 0)  -->
<svg version="1.1" id="Refresh_All_Pivot_Table" xmlns="http://www.w3.org/2000/svg" xmlns:xlink="http://www.w3.org/1999/xlink"
	 x="0px" y="0px" viewBox="0 0 32 32" style="enable-background:new 0 0 32 32;" xml:space="preserve">
<style type="text/css">
	.Green{fill:#039C23;}
</style>
<path class="Green" d="M30,2v12h-0.2h-4H18l5-5c-1.8-1.8-4.3-3-7-3c-4.8,0-8.9,3.4-9.8,8h-4C3.1,7.2,8.9,2,16,2
	c3.9,0,7.4,1.6,9.9,4.1L30,2z M16,26c-2.8,0-5.2-1.1-7-3l5-5H6.2h-4H2v12l4.1-4.1c2.5,2.5,6,4.1,9.9,4.1c7.1,0,12.9-5.2,13.8-12h-4
	C24.9,22.6,20.8,26,16,26z"/>
</svg>
