<?xml version="1.0" encoding="utf-8"?>
<!-- Generator: Adobe Illustrator 21.0.2, SVG Export Plug-In . SVG Version: 6.00 Build 0)  -->
<svg version="1.1" id="Refresh" xmlns="http://www.w3.org/2000/svg" xmlns:xlink="http://www.w3.org/1999/xlink" x="0px" y="0px"
	 viewBox="0 0 32 32" style="enable-background:new 0 0 32 32;" xml:space="preserve">
<style type="text/css">
	.Blue{fill:#1177D7;}
	.Black{fill:#727272;}
	.Green{fill:#039C23;}
	.st0{opacity:0.5;}
</style>
<g class="st0">
	<path class="Blue" d="M10,10H6V6h4V10z M24,6H12v4h12V6z M10,12H6v12h4V12z"/>
</g>
<path class="Green" d="M30,16v6h-0.1h-2H24l2.5-2.5C25.6,18.6,24.4,18,23,18c-2.4,0-4.4,1.7-4.9,4h-2c0.5-3.4,3.4-6,6.9-6
	c1.9,0,3.7,0.8,4.9,2.1L30,16z M23,28c-1.4,0-2.6-0.6-3.5-1.5L22,24h-3.9h-2H16v6l2.1-2.1c1.3,1.3,3,2.1,4.9,2.1
	c3.5,0,6.4-2.6,6.9-6h-2C27.4,26.3,25.4,28,23,28z"/>
<path class="Black" d="M27,2H3C2.4,2,2,2.4,2,3v24c0,0.6,0.4,1,1,1h11v-2H4V4h22v10.5c0.7,0.3,1.4,0.6,2,1V3C28,2.4,27.6,2,27,2z"/>
</svg>
