<?xml version="1.0" encoding="utf-8"?>
<!-- Generator: Adobe Illustrator 21.0.2, SVG Export Plug-In . SVG Version: 6.00 Build 0)  -->
<svg version="1.1" id="Remove_Sheet" xmlns="http://www.w3.org/2000/svg" xmlns:xlink="http://www.w3.org/1999/xlink" x="0px"
	 y="0px" viewBox="0 0 32 32" style="enable-background:new 0 0 32 32;" xml:space="preserve">
<style type="text/css">
	.Black{fill:#727272;}
	.Red{fill:#D11C1C;}
	.st0{opacity:0.5;}
</style>
<g class="st0">
	<path id="Table_6_" class="Black" d="M20,4h8v6h-8V4z M10,10h8V4h-8V10z M10,26h8v-6h-8V26z M8,10V4H0v6H8z M8,18v-6H0v6H8z M28,18
		v-6h-8v6H28z M18,18v-6h-8v6H18z M8,26v-6H0v6H8z"/>
</g>
<polygon class="Red" points="32,22 30,20 26,24 22,20 20,22 24,26 20,30 22,32 26,28 30,32 32,30 28,26 "/>
</svg>
