<?xml version="1.0" encoding="utf-8"?>
<!-- Generator: Adobe Illustrator 21.0.2, SVG Export Plug-In . SVG Version: 6.00 Build 0)  -->
<svg version="1.1" id="Scatter" xmlns="http://www.w3.org/2000/svg" xmlns:xlink="http://www.w3.org/1999/xlink" x="0px" y="0px"
	 viewBox="0 0 32 32" style="enable-background:new 0 0 32 32;" xml:space="preserve">
<style type="text/css">
	.Blue{fill:#1177D7;}
	.Yellow{fill:#FFB115;}
</style>
<path class="Blue" d="M6,8c0,1.1-0.9,2-2,2c-1.1,0-2-0.9-2-2s0.9-2,2-2C5.1,6,6,6.9,6,8z M10,22c-1.1,0-2,0.9-2,2s0.9,2,2,2
	c1.1,0,2-0.9,2-2S11.1,22,10,22z M18,16c-1.1,0-2,0.9-2,2s0.9,2,2,2c1.1,0,2-0.9,2-2S19.1,16,18,16z M22,8c-1.1,0-2,0.9-2,2
	c0,1.1,0.9,2,2,2c1.1,0,2-0.9,2-2C24,8.9,23.1,8,22,8z M28,4c-1.1,0-2,0.9-2,2s0.9,2,2,2c1.1,0,2-0.9,2-2S29.1,4,28,4z"/>
<path class="Yellow" d="M8,18c0,1.1-0.9,2-2,2c-1.1,0-2-0.9-2-2s0.9-2,2-2C7.1,16,8,16.9,8,18z M12,10c-1.1,0-2,0.9-2,2s0.9,2,2,2
	c1.1,0,2-0.9,2-2S13.1,10,12,10z M4,26c-1.1,0-2,0.9-2,2s0.9,2,2,2c1.1,0,2-0.9,2-2S5.1,26,4,26z M20,2c-1.1,0-2,0.9-2,2s0.9,2,2,2
	c1.1,0,2-0.9,2-2S21.1,2,20,2z M28,12c-1.1,0-2,0.9-2,2s0.9,2,2,2c1.1,0,2-0.9,2-2S29.1,12,28,12z"/>
</svg>
