<?xml version="1.0" encoding="utf-8"?>
<!-- Generator: Adobe Illustrator 21.0.2, SVG Export Plug-In . SVG Version: 6.00 Build 0)  -->
<svg version="1.1" id="Scientific" xmlns="http://www.w3.org/2000/svg" xmlns:xlink="http://www.w3.org/1999/xlink" x="0px" y="0px"
	 viewBox="0 0 32 32" style="enable-background:new 0 0 32 32;" xml:space="preserve">
<style type="text/css">
	.Black{fill:#727272;}
</style>
<path class="Black" d="M6.8,26V16H2.9v-2c0.6,0,1.1,0,1.6-0.1c0.5-0.1,1-0.3,1.4-0.5c0.4-0.3,0.8-0.6,1-1c0.3-0.4,0.5-1.7,0.6-2.3
	H10v16H6.8z M14.5,14.2c0.3-1,0.8-1.8,1.3-2.5c0.5-0.6,1.2-1.1,1.9-1.3c0.7-0.3,1.5-0.4,2.3-0.4c0.8,0,1.6,0.1,2.3,0.4
	c0.7,0.3,1.4,0.7,1.9,1.3s1,1.4,1.3,2.5c0.3,1,0.5,2.3,0.5,3.8c0,1.5-0.2,2.8-0.5,3.9c-0.3,1-0.8,1.9-1.3,2.5
	c-0.6,0.6-1.2,1.1-1.9,1.3C21.6,25.9,20.8,26,20,26c-0.8,0-1.6-0.1-2.3-0.4c-0.7-0.3-1.4-0.7-1.9-1.3c-0.5-0.6-1-1.4-1.3-2.5
	c-0.3-1-0.5-2.3-0.5-3.9C14,16.4,14.2,15.2,14.5,14.2z M17.4,19.5c0,0.6,0.1,1.2,0.3,1.8c0.2,0.6,0.4,1.1,0.8,1.5
	c0.4,0.4,0.9,0.6,1.5,0.6c0.7,0,1.2-0.2,1.6-0.6c0.4-0.4,0.6-0.9,0.8-1.5s0.3-1.2,0.3-1.8c0-0.6,0-1.2,0-1.6c0-0.3,0-0.6,0-1
	c0-0.4,0-0.8-0.1-1.2c-0.1-0.4-0.1-0.8-0.2-1.2s-0.3-0.7-0.5-1c-0.2-0.3-0.5-0.6-0.8-0.7c-0.3-0.2-0.7-0.3-1.1-0.3
	c-0.5,0-0.8,0.1-1.1,0.3c-0.3,0.2-0.6,0.4-0.7,0.7s-0.3,0.7-0.5,1c-0.1,0.4-0.2,0.8-0.2,1.2c0,0.4-0.1,0.8-0.1,1.2c0,0.4,0,0.7,0,1
	C17.3,18.4,17.3,18.9,17.4,19.5z M26.4,3.9c0.1-0.4,0.3-0.7,0.6-1c0.2-0.3,0.6-0.5,0.9-0.7C28.2,2.1,28.7,2,29.2,2
	c0.4,0,0.7,0.1,1.1,0.2c0.3,0.1,0.6,0.3,0.9,0.5c0.3,0.2,0.5,0.5,0.6,0.8c0.2,0.3,0.2,0.7,0.2,1c0,0.4-0.1,0.7-0.2,1
	c-0.1,0.3-0.3,0.5-0.5,0.8c-0.2,0.2-0.5,0.4-0.7,0.6c-0.3,0.2-0.6,0.4-0.8,0.5c-0.3,0.2-0.6,0.4-0.8,0.6c-0.3,0.2-0.5,0.4-0.7,0.7
	H32V10h-6c0-0.5,0.1-0.9,0.2-1.2c0.1-0.3,0.3-0.6,0.6-0.9c0.2-0.3,0.5-0.5,0.8-0.7c0.3-0.2,0.6-0.5,1-0.7c0.2-0.1,0.4-0.2,0.6-0.4
	c0.2-0.1,0.4-0.3,0.6-0.4c0.2-0.1,0.3-0.3,0.4-0.5c0.1-0.2,0.2-0.4,0.2-0.6c0-0.4-0.1-0.7-0.3-0.9c-0.2-0.2-0.5-0.3-0.9-0.3
	c-0.2,0-0.4,0.1-0.6,0.2S28.2,3.8,28.1,4c-0.1,0.2-0.2,0.4-0.2,0.6c0,0.2-0.1,0.4-0.1,0.6h-1.6C26.2,4.7,26.2,4.3,26.4,3.9z"/>
</svg>
