<?xml version="1.0" encoding="utf-8"?>
<!-- Generator: Adobe Illustrator 21.0.2, SVG Export Plug-In . SVG Version: 6.00 Build 0)  -->
<svg version="1.1" id="Select" xmlns="http://www.w3.org/2000/svg" xmlns:xlink="http://www.w3.org/1999/xlink" x="0px" y="0px"
	 viewBox="0 0 32 32" style="enable-background:new 0 0 32 32;" xml:space="preserve">
<style type="text/css">
	.Black{fill:#727272;}
	.Blue{fill:#1177D7;}
	.st0{opacity:0.5;}
</style>
<g class="st0">
	<path class="Blue" d="M10,10H6V6h4V10z M24,6H12v4h12V6z M10,12H6v12h4V12z"/>
</g>
<path class="Black" d="M16,28h-1.8H12H3c-0.6,0-1-0.4-1-1V3c0-0.6,0.4-1,1-1h24c0.6,0,1,0.4,1,1v9v2.2v6.9l-2-2v-5V12V4H4v22h8h2.1
	H16V28z M24.2,26H30L18,14v16.5l4-4l2,5c0.2,0.4,0.6,0.6,1,0.4l0.7-0.3c0.4-0.2,0.6-0.6,0.4-1L24.2,26z"/>
</svg>
