<?xml version="1.0" encoding="utf-8"?>
<!-- Generator: Adobe Illustrator 21.0.2, SVG Export Plug-In . SVG Version: 6.00 Build 0)  -->
<svg version="1.1" id="Send_Backward" xmlns="http://www.w3.org/2000/svg" xmlns:xlink="http://www.w3.org/1999/xlink" x="0px"
	 y="0px" viewBox="0 0 32 32" style="enable-background:new 0 0 32 32;" xml:space="preserve">
<style type="text/css">
	.Black{fill:#727272;}
	.Yellow{fill:#FFB115;}
</style>
<path class="Black" d="M29,14H15c-0.6,0-1,0.4-1,1v14c0,0.6,0.4,1,1,1h14c0.6,0,1-0.4,1-1V15C30,14.4,29.6,14,29,14z M28,28H16V16
	h12V28z"/>
<path class="Yellow" d="M12,14c0-1.1,0.9-2,2-2h8V3c0-0.6-0.4-1-1-1H3C2.4,2,2,2.4,2,3v18c0,0.6,0.4,1,1,1h9V14z"/>
</svg>
