<?xml version="1.0" encoding="utf-8"?>
<!-- Generator: Adobe Illustrator 21.0.2, SVG Export Plug-In . SVG Version: 6.00 Build 0)  -->
<svg version="1.1" id="Set_Detail_Range" xmlns="http://www.w3.org/2000/svg" xmlns:xlink="http://www.w3.org/1999/xlink" x="0px"
	 y="0px" viewBox="0 0 32 32" style="enable-background:new 0 0 32 32;" xml:space="preserve">
<style type="text/css">
	.Yellow{fill:#FFB115;}
	.Black{fill:#727272;}
	.st0{opacity:0.5;}
</style>
<g class="st0">
	<path class="Black" d="M2,6V0h8v6H2z M12,0v6h8V0H12z M22,6h8V0h-8V6z M22,30h8v-6h-8V30z M10,30v-6H2v6H10z M12,24v6h8v-6H12z"/>
</g>
<path class="Yellow" d="M10,14H2V8h8V14z M20,8h-8v6h8V8z M30,8h-8v6h8V8z M10,22H2v-6h8V22z M20,16h-8v6h8V16z M30,16h-8v6h8V16z"
	/>
</svg>
