<?xml version="1.0" encoding="utf-8"?>
<!-- Generator: Adobe Illustrator 21.0.2, SVG Export Plug-In . SVG Version: 6.00 Build 0)  -->
<svg version="1.1" id="Set_Detail_Level" xmlns="http://www.w3.org/2000/svg" xmlns:xlink="http://www.w3.org/1999/xlink" x="0px"
	 y="0px" viewBox="0 0 32 32" style="enable-background:new 0 0 32 32;" xml:space="preserve">
<style type="text/css">
	.Black{fill:#727272;}
	.Blue{fill:#1177D7;}
	.st0{opacity:0.5;}
</style>
<g class="st0">
	<path class="Black" d="M29,14H11c-0.6,0-1-0.4-1-1V9c0-0.6,0.4-1,1-1h18c0.5,0,1,0.4,1,1v4C30,13.6,29.5,14,29,14z M30,21v-4
		c0-0.5-0.5-1-1-1H11c-0.6,0-1,0.5-1,1v4c0,0.5,0.4,1,1,1h18C29.5,22,30,21.5,30,21z"/>
</g>
<path class="Blue" d="M29,6H3C2.5,6,2,5.6,2,5V1c0-0.6,0.5-1,1-1h26c0.5,0,1,0.4,1,1v4C30,5.6,29.5,6,29,6z M30,29v-4
	c0-0.5-0.5-1-1-1H3c-0.5,0-1,0.5-1,1v4c0,0.5,0.5,1,1,1h26C29.5,30,30,29.5,30,29z"/>
</svg>
