<?xml version="1.0" encoding="utf-8"?>
<!-- Generator: Adobe Illustrator 21.0.2, SVG Export Plug-In . SVG Version: 6.00 Build 0)  -->
<svg version="1.1" id="Set_Detail_Data_Member" xmlns="http://www.w3.org/2000/svg" xmlns:xlink="http://www.w3.org/1999/xlink"
	 x="0px" y="0px" viewBox="0 0 32 32" style="enable-background:new 0 0 32 32;" xml:space="preserve">
<style type="text/css">
	.Black{fill:#727272;}
	.Blue{fill:#1177D7;}
	.Yellow{fill:#FFB115;}
	.st0{opacity:0.5;}
</style>
<path class="Blue" d="M20.1,30H1c-0.5,0-1-0.5-1-1v-4c0-0.5,0.5-1,1-1h19v5C20,29.3,20,29.7,20.1,30z M1,6h26c0.5,0,1-0.5,1-1V1
	c0-0.5-0.5-1-1-1H1C0.5,0,0,0.5,0,1v4C0,5.5,0.5,6,1,6z"/>
<g class="st0">
	<path class="Black" d="M8,13V9c0-0.5,0.5-1,1-1h18c0.5,0,1,0.5,1,1v4c0,0.5-0.5,1-1,1H9C8.5,14,8,13.5,8,13z M20,21v-2
		c0-1.1,0.5-2.2,1.3-3H9c-0.5,0-1,0.5-1,1v4c0,0.5,0.5,1,1,1h11V21z"/>
</g>
<path class="Yellow" d="M32,19v10c0,1.7-2.2,3-5,3s-5-1.3-5-3V19c0-1.7,2.2-3,5-3S32,17.3,32,19z"/>
</svg>
