<?xml version="1.0" encoding="utf-8"?>
<!-- Generator: Adobe Illustrator 21.0.2, SVG Export Plug-In . SVG Version: 6.00 Build 0)  -->
<svg version="1.1" id="Show_Formulas" xmlns="http://www.w3.org/2000/svg" xmlns:xlink="http://www.w3.org/1999/xlink" x="0px"
	 y="0px" viewBox="0 0 32 32" style="enable-background:new 0 0 32 32;" xml:space="preserve">
<style type="text/css">
	.Black{fill:#727272;}
	.Blue{fill:#1177D7;}
</style>
<path class="Black" d="M6.4,14V8.8h-2V7.6c0.3,0,0.6,0,0.8-0.1c0.3,0,0.5-0.1,0.7-0.3S6.3,7,6.4,6.8C6.6,6.6,6.7,6.3,6.7,6H8v8H6.4z
	 M10.6,7.9c0.1-0.4,0.3-0.7,0.5-1c0.2-0.3,0.5-0.5,0.9-0.7S12.8,6,13.3,6c0.4,0,0.7,0.1,1,0.2c0.3,0.1,0.6,0.3,0.9,0.5
	c0.2,0.2,0.4,0.5,0.6,0.8c0.1,0.3,0.2,0.7,0.2,1c0,0.4-0.1,0.7-0.2,1c-0.1,0.3-0.3,0.5-0.5,0.8c-0.2,0.2-0.4,0.4-0.7,0.6
	c-0.3,0.2-0.5,0.4-0.8,0.5c-0.3,0.2-0.5,0.4-0.8,0.6c-0.3,0.2-0.5,0.4-0.7,0.7H16V14h-5.8c0-0.5,0.1-0.9,0.2-1.2
	c0.1-0.3,0.3-0.6,0.5-0.9c0.2-0.3,0.5-0.5,0.8-0.7c0.3-0.2,0.6-0.5,1-0.7c0.2-0.1,0.4-0.2,0.5-0.4c0.2-0.1,0.4-0.3,0.5-0.4
	c0.2-0.1,0.3-0.3,0.4-0.5c0.1-0.2,0.2-0.4,0.2-0.6c0-0.4-0.1-0.7-0.3-0.9c-0.2-0.2-0.5-0.3-0.8-0.3c-0.2,0-0.4,0.1-0.6,0.2
	c-0.2,0.1-0.3,0.3-0.4,0.4C12.1,8.1,12,8.3,12,8.5c0,0.2-0.1,0.4-0.1,0.6h-1.5C10.4,8.7,10.5,8.3,10.6,7.9z M17.2,18H2V2h18v6.9
	c0.4-0.5,0.8-1,1.3-1.4c0.2-0.2,0.4-0.3,0.7-0.4V1c0-0.5-0.5-1-1-1H1C0.5,0,0,0.5,0,1v18c0,0.5,0.5,1,1,1h15.8L17.2,18z"/>
<path class="Blue" d="M23.9,14h2.3l-0.5,2h-2.3l-2.1,8.7c-0.3,1.2-0.7,2.2-1.3,3c-0.6,0.8-1.2,1.4-2,1.8c-0.7,0.4-1.6,0.6-2.6,0.6
	c-1,0-1.8-0.2-2.4-0.6c-0.7-0.5-1.1-1-1.1-1.6c0-0.5,0.2-0.9,0.5-1.2c0.3-0.3,0.7-0.5,1.2-0.5c0.2,0,0.4,0,0.6,0.1
	c0.2,0.1,0.4,0.2,0.6,0.3c0.1,0.1,0.3,0.3,0.6,0.7c0.1,0.2,0.3,0.3,0.4,0.3c0.1,0.1,0.2,0.1,0.4,0.1c0.5,0,0.9-0.6,1.1-1.7l2.2-9.9
	h-1.7l0.4-2h1.7l0.4-1.7c0.3-1.4,1-2.4,2-3.2s2.4-1.1,4-1.1c0.8,0,1.5,0.1,2,0.3c0.5,0.2,0.9,0.5,1.1,0.8c0.3,0.4,0.4,0.7,0.4,1.1
	c0,0.3-0.1,0.6-0.2,0.9c-0.2,0.3-0.4,0.5-0.6,0.6c-0.3,0.1-0.6,0.2-0.9,0.2c-0.3,0-0.6-0.1-0.9-0.2c-0.3-0.1-0.5-0.3-0.8-0.6
	c-0.3-0.3-0.5-0.5-0.6-0.6c-0.1-0.1-0.3-0.1-0.4-0.1c-0.3,0-0.6,0.1-0.8,0.4c-0.1,0.2-0.3,0.6-0.4,1.3L23.9,14z M26.3,22.3l1.2,2.4
	c0.7-0.9,1.1-1.5,1.3-1.7c0.3-0.3,0.6-0.5,1-0.7s0.6-0.2,0.9-0.2c0.3,0,0.6,0.1,0.8,0.3s0.3,0.4,0.3,0.7c0,0.2,0,0.4-0.1,0.5
	c-0.1,0.1-0.2,0.3-0.3,0.4c-0.1,0.1-0.3,0.2-0.4,0.2c-0.1,0-0.2,0-0.5,0.1c-0.3,0-0.5,0-0.6,0.1c-0.1,0-0.2,0.1-0.4,0.2
	c-0.2,0.1-0.3,0.3-0.5,0.4c-0.1,0.1-0.3,0.4-0.8,1.1l0.4,0.8c0.3,0.6,0.6,1.1,0.8,1.2c0.2,0.2,0.4,0.3,0.6,0.3
	c0.3,0,0.7-0.2,1.1-0.6l0.8,1C30.9,29.6,30,30,29.1,30c-0.4,0-0.7-0.1-1-0.2c-0.3-0.1-0.6-0.3-0.8-0.6c-0.2-0.2-0.5-0.6-0.7-1.1
	l-0.4-0.9c-0.4,0.7-0.8,1.2-1.2,1.6s-0.8,0.7-1.1,0.9c-0.3,0.2-0.6,0.2-0.9,0.2c-0.2,0-0.4,0-0.6-0.1c-0.1-0.1-0.3-0.2-0.4-0.4
	c-0.1-0.2-0.1-0.3-0.1-0.5c0-0.2,0.1-0.4,0.2-0.6c0.1-0.2,0.3-0.3,0.4-0.4c0.2-0.1,0.5-0.1,0.9-0.1c0.3,0,0.5-0.1,0.7-0.2
	c0.2-0.1,0.4-0.2,0.6-0.5c0.2-0.2,0.5-0.7,1-1.4l-0.7-1.6h-1.1l0.3-1.4c0.6-0.1,1.2-0.3,1.7-0.6H26.3z"/>
</svg>
