<?xml version="1.0" encoding="utf-8"?>
<!-- Generator: Adobe Illustrator 21.0.2, SVG Export Plug-In . SVG Version: 6.00 Build 0)  -->
<svg version="1.1" id="Show_Outline_Form_Pivot_Table"
	 xmlns="http://www.w3.org/2000/svg" xmlns:xlink="http://www.w3.org/1999/xlink" x="0px" y="0px" viewBox="0 0 32 32"
	 style="enable-background:new 0 0 32 32;" xml:space="preserve">
<style type="text/css">
	.Blue{fill:#1177D7;}
	.Black{fill:#727272;}
	.st0{opacity:0.75;}
</style>
<path class="Black" d="M27,2H5C4.4,2,4,2.4,4,3v26c0,0.6,0.4,1,1,1h22c0.6,0,1-0.4,1-1V3C28,2.4,27.6,2,27,2z M26,28H6V4h20V28z"/>
<rect x="8" y="8" class="Blue" width="6" height="2"/>
<g class="st0">
	<path class="Black" d="M18,14h-4v-2h4V14z M24,12h-4v2h4V12z M24,22h-4v2h4V22z M18,22h-4v2h4V22z"/>
</g>
<rect x="8" y="18" class="Blue" width="6" height="2"/>
</svg>
