<?xml version="1.0" encoding="utf-8"?>
<!-- Generator: Adobe Illustrator 21.0.2, SVG Export Plug-In . SVG Version: 6.00 Build 0)  -->
<svg version="1.1" id="Size" xmlns="http://www.w3.org/2000/svg" xmlns:xlink="http://www.w3.org/1999/xlink" x="0px" y="0px"
	 viewBox="0 0 32 32" style="enable-background:new 0 0 32 32;" xml:space="preserve">
<style type="text/css">
	.Black{fill:#727272;}
	.Blue{fill:#1177D7;}
</style>
<path class="Black" d="M23,8H11c-0.6,0-1,0.4-1,1v22c0,0.6,0.4,1,1,1h18c0.6,0,1-0.4,1-1V15L23,8z M28,30H12V10h10v5
	c0,0.6,0.4,1,1,1h5V30z"/>
<path class="Blue" d="M8,10H2V8h6V10z M8,30H2v2h6V30z M6,10H4v20h2V10z M12,0h-2v6h2V0z M28,2H10v2h18V2z M30,0h-2v6h2V0z"/>
</svg>
