<?xml version="1.0" encoding="utf-8"?>
<!-- Generator: Adobe Illustrator 21.0.2, SVG Export Plug-In . SVG Version: 6.00 Build 0)  -->
<svg version="1.1" id="Sort_A_to_Z" xmlns="http://www.w3.org/2000/svg" xmlns:xlink="http://www.w3.org/1999/xlink" x="0px"
	 y="0px" viewBox="0 0 32 32" style="enable-background:new 0 0 32 32;" xml:space="preserve">
<style type="text/css">
	.Blue{fill:#1177D7;}
	.Red{fill:#D11C1C;}
</style>
<path class="Red" d="M28,14h-0.2h-1.9h-0.1l0-0.1L25.2,12h-4.4l-0.6,1.9l0,0.1h-0.1h-1.9H18l0.1-0.2l3.9-11.7L22,2h0.1H24h0.1l0,0.1
	l3.8,11.7L28,14L28,14z M21.4,10h3.2L23,4.7c0,0,0,0,0-0.1c0,0,0,0,0,0.1L21.4,10z"/>
<polygon class="Blue" points="27.4,28 27.2,28 18.7,28 18.5,28 18.5,27.9 18.5,27 24.4,18 19.2,18 19,18 19,17.9 19,16.1 19,16 
	19.2,16 27.3,16 27.5,16 27.5,16.1 27.5,17 21.6,26 27.2,26 27.4,26 27.4,26.1 27.4,27.9 27.4,28 "/>
<polygon class="Blue" points="10,24 10,2 8,2 8,24 4,24 9,29 14,24 "/>
</svg>
