<?xml version="1.0" encoding="utf-8"?>
<!-- Generator: Adobe Illustrator 21.0.2, SVG Export Plug-In . SVG Version: 6.00 Build 0)  -->
<svg version="1.1" id="Sort__x26__Filter" xmlns="http://www.w3.org/2000/svg" xmlns:xlink="http://www.w3.org/1999/xlink" x="0px"
	 y="0px" viewBox="0 0 32 32" style="enable-background:new 0 0 32 32;" xml:space="preserve">
<style type="text/css">
	.Blue{fill:#1177D7;}
	.Red{fill:#D11C1C;}
	.Yellow{fill:#FFB115;}
</style>
<path class="Red" d="M30,14h-0.2h-1.9h-0.1l0-0.1L27.2,12h-4.4l-0.6,1.9l0,0.1h-0.1h-1.9H20l0.1-0.2l3.9-11.7L24,2h0.1H26h0.1l0,0.1
	l3.8,11.7L30,14L30,14z M23.4,10h3.2L25,4.7c0,0,0,0,0-0.1c0,0,0,0,0,0.1L23.4,10z"/>
<polygon class="Blue" points="29.4,28 29.2,28 20.7,28 20.5,28 20.5,27.9 20.5,27 26.4,18 21.2,18 21,18 21,17.9 21,16.1 21,16 
	21.2,16 29.3,16 29.5,16 29.5,16.1 29.5,17 23.6,26 29.2,26 29.4,26 29.4,26.1 29.4,27.9 29.4,28 "/>
<polygon class="Yellow" points="0,2 20,2 20,6 12,14 12,24 8,28 8,14 0,6 "/>
</svg>
