<?xml version="1.0" encoding="utf-8"?>
<!-- Generator: Adobe Illustrator 21.0.2, SVG Export Plug-In . SVG Version: 6.00 Build 0)  -->
<svg version="1.1" id="Sort_Z_to_A" xmlns="http://www.w3.org/2000/svg" xmlns:xlink="http://www.w3.org/1999/xlink" x="0px"
	 y="0px" viewBox="0 0 32 32" style="enable-background:new 0 0 32 32;" xml:space="preserve">
<style type="text/css">
	.Blue{fill:#1177D7;}
	.Red{fill:#D11C1C;}
</style>
<g id="Sort_Z_to_A_1_">
	<polygon class="Blue" points="10,24 10,2 8,2 8,24 4,24 9,29 14,24 	"/>
	<path class="Red" d="M28,28h-0.2h-1.9h-0.1l0-0.1L25.2,26h-4.4l-0.6,1.9l0,0.1h-0.1h-1.9H18l0.1-0.2l3.9-11.7l0-0.1h0.1H24h0.1
		l0,0.1l3.8,11.7L28,28L28,28z M21.4,24h3.2L23,18.7c0,0,0,0,0-0.1c0,0,0,0,0,0.1L21.4,24z"/>
	<polygon class="Blue" points="27.4,14 27.2,14 18.7,14 18.5,14 18.5,13.9 18.5,13 24.4,4 19.2,4 19,4 19,3.9 19,2.1 19,2 19.2,2 
		27.3,2 27.5,2 27.5,2.1 27.5,3 21.6,12 27.2,12 27.4,12 27.4,12.1 27.4,13.9 27.4,14 	"/>
</g>
</svg>
