<?xml version="1.0" encoding="utf-8"?>
<!-- Generator: Adobe Illustrator 21.0.2, SVG Export Plug-In . SVG Version: 6.00 Build 0)  -->
<svg version="1.1" id="Text_that_Contains" xmlns="http://www.w3.org/2000/svg" xmlns:xlink="http://www.w3.org/1999/xlink" x="0px"
	 y="0px" viewBox="0 0 32 32" style="enable-background:new 0 0 32 32;" xml:space="preserve">
<style type="text/css">
	.Black{fill:#727272;}
	.Blue{fill:#1177D7;}
</style>
<path class="Black" d="M29,2H1C0.4,2,0,2.4,0,3v24c0,0.6,0.4,1,1,1h28c0.6,0,1-0.4,1-1V3C30,2.4,29.6,2,29,2z M28,26H2V4h26V26z"/>
<path class="Blue" d="M23.1,12.9c-0.6-0.7-1.4-1.1-2.4-1.1c-1.1,0-2,0.5-2.7,1.4V8h-2v12l2,0v-0.9c0.5,0.8,1.3,1.1,2.3,1.1
	c1.1,0,2-0.4,2.7-1.2c0.7-0.8,1-1.9,1-3.2C24,14.6,23.7,13.6,23.1,12.9z M21.4,17.9c-0.4,0.5-0.9,0.7-1.5,0.7c-0.5,0-1-0.2-1.3-0.6
	c-0.4-0.4-0.5-0.8-0.5-1.4v-1c0-0.7,0.2-1.2,0.6-1.6c0.4-0.4,0.9-0.6,1.5-0.6c0.6,0,1,0.2,1.4,0.6c0.3,0.4,0.5,1,0.5,1.8
	C21.9,16.7,21.7,17.4,21.4,17.9z M11,11.8c-1.1,0-2.1,0.3-3,0.8v1.8c0,0,1.7-1.1,2.6-1.1c1,0,1.5,0.5,1.5,1.5l-2.2,0.3
	c-1.7,0.2-2.6,1.1-2.6,2.7c0,0.7,0.2,1.3,0.7,1.7C8.4,20,9,20.2,9.8,20.2c1,0,1.7-0.4,2.3-1.2v1H14v-5.2C14,12.8,13,11.8,11,11.8z
	 M10.3,18.6c-0.4,0-0.7-0.1-0.9-0.3C9.1,18.1,9,17.9,9,17.6c0-0.4,0.1-0.7,0.4-0.9c0.3-0.2,0.6-0.3,1.1-0.4l1.6-0.2v0.6
	c0,0.6-0.2,1-0.5,1.4C11.2,18.4,10.8,18.6,10.3,18.6z"/>
</svg>
