<?xml version="1.0" encoding="utf-8"?>
<!-- Generator: Adobe Illustrator 21.0.2, SVG Export Plug-In . SVG Version: 6.00 Build 0)  -->
<svg version="1.1" id="Text" xmlns="http://www.w3.org/2000/svg" xmlns:xlink="http://www.w3.org/1999/xlink" x="0px" y="0px"
	 viewBox="0 0 32 32" style="enable-background:new 0 0 32 32;" xml:space="preserve">
<style type="text/css">
	.Black{fill:#727272;}
</style>
<path class="Black" d="M16,24h-3.5l-1-3.6h-5l-1,3.6H2.1L7.2,8H11L16,24z M10.8,17.7l-1.5-5.4c-0.1-0.4-0.2-0.9-0.2-1.4H9
	c0,0.5-0.1,0.9-0.2,1.4l-1.5,5.4H10.8z M18,24V8h5.8c1.8,0,3.2,0.3,4.1,1s1.4,1.6,1.4,2.8c0,0.9-0.3,1.6-0.9,2.3
	c-0.6,0.6-1.3,1.1-2.2,1.4v0c1.1,0.1,2,0.6,2.7,1.3c0.7,0.7,1,1.6,1,2.6c0,1.5-0.5,2.6-1.6,3.5c-1,0.9-2.5,1.3-4.3,1.3H18z
	 M21.6,10.7v3.8h1.6c0.7,0,1.3-0.2,1.8-0.5c0.4-0.4,0.6-0.9,0.6-1.5c0-1.2-0.9-1.8-2.6-1.8H21.6z M21.6,17.1v4.2h1.9
	c0.8,0,1.5-0.2,2-0.6c0.5-0.4,0.7-0.9,0.7-1.6c0-0.6-0.2-1.1-0.7-1.5c-0.5-0.4-1.1-0.5-1.9-0.5H21.6z"/>
</svg>
