<?xml version="1.0" encoding="utf-8"?>
<!-- Generator: Adobe Illustrator 21.0.2, SVG Export Plug-In . SVG Version: 6.00 Build 0)  -->
<svg version="1.1" id="Thick_Bottom_Border" xmlns="http://www.w3.org/2000/svg" xmlns:xlink="http://www.w3.org/1999/xlink"
	 x="0px" y="0px" viewBox="0 0 32 32" style="enable-background:new 0 0 32 32;" xml:space="preserve">
<style type="text/css">
	.Black{fill:#727272;}
	.st0{opacity:0.5;}
</style>
<rect x="2" y="26" class="Black" width="26" height="4"/>
<g class="st0">
	<path class="Black" d="M24,4h-2V2h2V4z M24,14h-2v2h2V14z M20,2h-2v2h2V2z M16,10h-2v2h2V10z M16,2h-2v2h2V2z M20,14h-2v2h2V14z
		 M16,6h-2v2h2V6z M28,6h-2v2h2V6z M28,10h-2v2h2V10z M28,22h-2v2h2V22z M28,2h-2v2h2V2z M28,18h-2v2h2V18z M28,14h-2v2h2V14z M4,6
		H2v2h2V6z M16,14h-2v2h2V14z M4,2H2v2h2V2z M4,14H2v2h2V14z M4,18H2v2h2V18z M4,22H2v2h2V22z M8,14H6v2h2V14z M4,10H2v2h2V10z
		 M16,22h-2v2h2V22z M16,18h-2v2h2V18z M8,2H6v2h2V2z M12,2h-2v2h2V2z M12,14h-2v2h2V14z"/>
</g>
</svg>
