<?xml version="1.0" encoding="utf-8"?>
<!-- Generator: Adobe Illustrator 21.0.2, SVG Export Plug-In . SVG Version: 6.00 Build 0)  -->
<svg version="1.1" id="Thick_Box_Border" xmlns="http://www.w3.org/2000/svg" xmlns:xlink="http://www.w3.org/1999/xlink" x="0px"
	 y="0px" viewBox="0 0 32 32" style="enable-background:new 0 0 32 32;" xml:space="preserve">
<style type="text/css">
	.Black{fill:#727272;}
	.st0{opacity:0.5;}
</style>
<g class="st0">
	<path class="Black" d="M14,8h2V6h-2V8z M14,12h2v-2h-2V12z M14,16h2v-2h-2V16z M14,20h2v-2h-2V20z M14,24h2v-2h-2V24z M18,16h2v-2
		h-2V16z M22,16h2v-2h-2V16z M10,16h2v-2h-2V16z M6,16h2v-2H6V16z"/>
</g>
<path class="Black" d="M0,0v30h30V0H0z M26,26H4V4h22V26z"/>
</svg>
