<?xml version="1.0" encoding="utf-8"?>
<!-- Generator: Adobe Illustrator 21.0.2, SVG Export Plug-In . SVG Version: 6.00 Build 0)  -->
<svg version="1.1" id="Top_10_Percent" xmlns="http://www.w3.org/2000/svg" xmlns:xlink="http://www.w3.org/1999/xlink" x="0px"
	 y="0px" viewBox="0 0 32 32" style="enable-background:new 0 0 32 32;" xml:space="preserve">
<style type="text/css">
	.Black{fill:#727272;}
	.Green{fill:#039C23;}
</style>
<path class="Green" d="M31,2H1C0.5,2,0,2.5,0,3v24c0,0.5,0.5,1,1,1h30c0.5,0,1-0.5,1-1V3C32,2.5,31.5,2,31,2z M8,12v10H6V12H3l4-6
	l4,6H8z M30,26H14V4h16V26z"/>
<path class="Black" d="M18.6,15.1c-0.8,0-1.4-0.2-1.9-0.7c-0.5-0.4-0.7-1-0.7-1.8c0-0.8,0.2-1.5,0.7-1.9s1.2-0.7,2-0.7
	c0.8,0,1.4,0.2,1.9,0.6c0.4,0.4,0.7,1,0.7,1.8c0,0.8-0.2,1.4-0.7,1.9C20,14.8,19.4,15.1,18.6,15.1z M26,10l-6.2,10H18l6.2-10H26z
	 M18.7,11.2c-0.7,0-1.1,0.5-1.1,1.4c0,0.9,0.3,1.3,1,1.3c0.7,0,1.1-0.5,1.1-1.4C19.7,11.6,19.4,11.2,18.7,11.2z M25.3,20
	c-0.8,0-1.4-0.2-1.9-0.7s-0.7-1-0.7-1.8c0-0.8,0.2-1.5,0.7-1.9c0.5-0.5,1.2-0.7,2-0.7c0.8,0,1.4,0.2,1.9,0.6s0.7,1,0.7,1.8
	c0,0.8-0.2,1.4-0.7,1.9C26.8,19.8,26.1,20,25.3,20z M25.4,16.1c-0.7,0-1.1,0.5-1.1,1.4c0,0.9,0.4,1.3,1.1,1.3c0.7,0,1.1-0.5,1.1-1.4
	c0-0.4-0.1-0.7-0.3-1C26,16.2,25.7,16.1,25.4,16.1z"/>
</svg>
