<?xml version="1.0" encoding="utf-8"?>
<!-- Generator: Adobe Illustrator 21.0.2, SVG Export Plug-In . SVG Version: 6.00 Build 0)  -->
<svg version="1.1" id="Top_Bottom_Rules" xmlns="http://www.w3.org/2000/svg" xmlns:xlink="http://www.w3.org/1999/xlink" x="0px"
	 y="0px" viewBox="0 0 32 32" style="enable-background:new 0 0 32 32;" xml:space="preserve">
<style type="text/css">
	.Green{fill:#039C23;}
	.Blue{fill:#1177D7;}
</style>
<path class="Blue" d="M29,2H16v24h-2v2h15c0.5,0,1-0.5,1-1V3C30,2.5,29.5,2,29,2z M23,24l-4-6h3V8h2v10h3L23,24z"/>
<path class="Green" d="M14,4h2V2H1C0.5,2,0,2.5,0,3v24c0,0.5,0.5,1,1,1h13V4z M8,22H6V12H3l4-6l4,6H8V22z"/>
</svg>
