<?xml version="1.0" encoding="utf-8"?>
<!-- Generator: Adobe Illustrator 21.1.0, SVG Export Plug-In . SVG Version: 6.00 Build 0)  -->
<svg version="1.1" id="Unlink" xmlns="http://www.w3.org/2000/svg" xmlns:xlink="http://www.w3.org/1999/xlink" x="0px" y="0px"
	 viewBox="0 0 16 16" style="enable-background:new 0 0 16 16;" xml:space="preserve">
<style type="text/css">
	.Black{fill:#727272;}
</style>
<path class="Black" d="M4.5,5h-2C1.1,5,0,6.2,0,7.5S1.1,10,2.5,10h2C5.9,10,7,8.9,7,7.5S5.9,5,4.5,5z M4.5,9h-2C1.6,9,1,8.3,1,7.5
	C1,6.7,1.6,6,2.5,6h2c0.7,0,1.2,0.4,1.4,1H3.5C3.3,7,3,7.3,3,7.5S3.3,8,3.5,8h2.4C5.7,8.6,5.2,9,4.5,9z M13.5,5h-2
	C10.1,5,9,6.2,9,7.5s1.1,2.5,2.5,2.5h2c1.4,0,2.5-1.1,2.5-2.5S14.9,5,13.5,5z M13.5,9h-2c-0.6,0-1.2-0.4-1.4-1h2.4
	C12.8,8,13,7.8,13,7.5S12.8,7,12.5,7h-2.4c0.2-0.6,0.8-1,1.4-1h2C14.4,6,15,6.7,15,7.5C15,8.3,14.4,9,13.5,9z"/>
</svg>
