<?xml version="1.0" encoding="utf-8"?>
<!-- Generator: Adobe Illustrator 21.0.2, SVG Export Plug-In . SVG Version: 6.00 Build 0)  -->
<svg version="1.1" id="Up_x2F_Down_Bars_None" xmlns="http://www.w3.org/2000/svg" xmlns:xlink="http://www.w3.org/1999/xlink"
	 x="0px" y="0px" viewBox="0 0 32 32" style="enable-background:new 0 0 32 32;" xml:space="preserve">
<style type="text/css">
	.Green{fill:#039C23;}
	.Black{fill:#727272;}
	.Blue{fill:#1177D7;}
	.Red{fill:#D11C1C;}
	.st0{opacity:0.35;}
	.st1{opacity:0.5;}
</style>
<g class="st0">
	<polygon class="Black" points="20,7.2 21,8.2 22,6.2 22,2 18.8,8.4 	"/>
	<polygon class="Black" points="12,24.8 11,23.8 10,25.8 10,30 13.2,23.6 	"/>
</g>
<g class="st1">
	<polygon class="Blue" points="7.2,20 9.2,18 4,18 4,30 10,30 10,22.8 	"/>
</g>
<g class="st1">
	<polygon class="Green" points="22,2 22,9.2 24.8,12 22,14.8 22,17.2 24.8,20 28,20 28,2 	"/>
</g>
<polygon class="Red" points="22,12 20,10 16,14 12,10 10,12 14,16 10,20 12,22 16,18 20,22 22,20 18,16 "/>
</svg>
