<?xml version="1.0" encoding="utf-8"?>
<!-- Generator: Adobe Illustrator 21.0.2, SVG Export Plug-In . SVG Version: 6.00 Build 0)  -->
<svg version="1.1" id="Zoom" xmlns="http://www.w3.org/2000/svg" xmlns:xlink="http://www.w3.org/1999/xlink" x="0px" y="0px"
	 viewBox="0 0 32 32" style="enable-background:new 0 0 32 32;" xml:space="preserve">
<style type="text/css">
	.Black{fill:#727272;}
</style>
<path class="Black" d="M29.7,27.3l-7.9-7.9c1.3-1.8,2.1-4,2.1-6.5c0-6.1-4.9-11-11-11C6.9,2,2,6.9,2,13s4.9,11,11,11
	c2.4,0,4.6-0.8,6.5-2.1l7.9,7.9c0.3,0.3,0.9,0.3,1.2,0l1.2-1.2C30.1,28.2,30.1,27.6,29.7,27.3z M4,13c0-5,4-9,9-9c5,0,9,4,9,9
	s-4,9-9,9C8,22,4,18,4,13z"/>
</svg>
