<?xml version="1.0" encoding="utf-8"?>
<!-- Generator: Adobe Illustrator 21.0.2, SVG Export Plug-In . SVG Version: 6.00 Build 0)  -->
<svg version="1.1" id="BorderInsideHorizontal" xmlns="http://www.w3.org/2000/svg" xmlns:xlink="http://www.w3.org/1999/xlink"
	 x="0px" y="0px" viewBox="0 0 32 32" style="enable-background:new 0 0 32 32;" xml:space="preserve">
<style type="text/css">
	.Black{fill:#727272;}
	.st0{opacity:0.5;}
</style>
<g class="st0">
	<path class="Black" d="M2,2h2v2H2V2z M6,4h2V2H6V4z M10,4h2V2h-2V4z M14,4h2V2h-2V4z M18,4h2V2h-2V4z M22,4h2V2h-2V4z M26,2v2h2V2
		H26z M26,8h2V6h-2V8z M26,12h2v-2h-2V12z M26,20h2v-2h-2V20z M26,24h2v-2h-2V24z M26,28h2v-2h-2V28z M22,28h2v-2h-2V28z M18,28h2
		v-2h-2V28z M14,28h2v-2h-2V28z M10,28h2v-2h-2V28z M6,28h2v-2H6V28z M2,28h2v-2H2V28z M2,24h2v-2H2V24z M2,20h2v-2H2V20z M2,12h2
		v-2H2V12z M2,8h2V6H2V8z M14,8h2V6h-2V8z M14,12h2v-2h-2V12z M14,20h2v-2h-2V20z M14,24h2v-2h-2V24z"/>
</g>
<polygon class="Black" points="14,14 2,14 2,16 14,16 16,16 28,16 28,14 16,14 "/>
</svg>
