<?xml version="1.0" encoding="utf-8"?>
<!-- Generator: Adobe Illustrator 21.0.2, SVG Export Plug-In . SVG Version: 6.00 Build 0)  -->
<svg version="1.1" id="Right_Border" xmlns="http://www.w3.org/2000/svg" xmlns:xlink="http://www.w3.org/1999/xlink" x="0px"
	 y="0px" viewBox="0 0 32 32" style="enable-background:new 0 0 32 32;" xml:space="preserve">
<style type="text/css">
	.Black{fill:#727272;}
	.st0{opacity:0.5;}
</style>
<g class="st0">
	<path class="Black" d="M2,2h2v2H2V2z M6,4h2V2H6V4z M10,4h2V2h-2V4z M14,4h2V2h-2V4z M18,4h2V2h-2V4z M22,4h2V2h-2V4z M22,28h2v-2
		h-2V28z M18,28h2v-2h-2V28z M14,28h2v-2h-2V28z M10,28h2v-2h-2V28z M6,28h2v-2H6V28z M2,28h2v-2H2V28z M2,24h2v-2H2V24z M2,20h2v-2
		H2V20z M2,16h2v-2H2V16z M2,12h2v-2H2V12z M2,8h2V6H2V8z M14,8h2V6h-2V8z M14,12h2v-2h-2V12z M14,16h2v-2h-2V16z M14,20h2v-2h-2V20
		z M14,24h2v-2h-2V24z M18,16h2v-2h-2V16z M22,16h2v-2h-2V16z M10,16h2v-2h-2V16z M6,16h2v-2H6V16z"/>
</g>
<rect x="26" y="2" class="Black" width="2" height="26"/>
</svg>
