<?xml version="1.0" encoding="utf-8"?>
<!-- Generator: Adobe Illustrator 21.0.2, SVG Export Plug-In . SVG Version: 6.00 Build 0)  -->
<svg version="1.1" id="ColumnsThree" xmlns="http://www.w3.org/2000/svg" xmlns:xlink="http://www.w3.org/1999/xlink" x="0px"
	 y="0px" viewBox="0 0 32 32" style="enable-background:new 0 0 32 32;" xml:space="preserve">
<style type="text/css">
	.Blue{fill:#1177D7;}
	.Black{fill:#727272;}
</style>
<path class="Black" d="M29,0H3C2.4,0,2,0.4,2,1v28c0,0.6,0.4,1,1,1h26c0.6,0,1-0.4,1-1V1C30,0.4,29.6,0,29,0z M28,28H4V2h24V28z"/>
<path class="Blue" d="M12,8H8V6h4V8z M18,6h-4v2h4V6z M12,10H8v2h4V10z M18,10h-4v2h4V10z M12,14H8v2h4V14z M18,14h-4v2h4V14z
	 M12,18H8v2h4V18z M18,18h-4v2h4V18z M12,22H8v2h4V22z M18,22h-4v2h4V22z M24,6h-4v2h4V6z M24,10h-4v2h4V10z M24,14h-4v2h4V14z
	 M24,18h-4v2h4V18z M24,22h-4v2h4V22z"/>
</svg>
