<?xml version="1.0" encoding="utf-8"?>
<!-- Generator: Adobe Illustrator 21.0.2, SVG Export Plug-In . SVG Version: 6.00 Build 0)  -->
<svg version="1.1" id="Columns" xmlns="http://www.w3.org/2000/svg" xmlns:xlink="http://www.w3.org/1999/xlink" x="0px" y="0px"
	 viewBox="0 0 32 32" style="enable-background:new 0 0 32 32;" xml:space="preserve">
<style type="text/css">
	.Black{fill:#727272;}
</style>
<path class="Black" d="M14,6H4V4h10V6z M26,4H16v2h10V4z M14,8H4v2h10V8z M26,8H16v2h10V8z M14,12H4v2h10V12z M26,12H16v2h10V12z
	 M14,16H4v2h10V16z M26,16H16v2h10V16z M14,20H4v2h10V20z M26,20H16v2h10V20z M14,24H4v2h10V24z M26,24H16v2h10V24z"/>
</svg>
