<?xml version="1.0" encoding="utf-8"?>
<!-- Generator: Adobe Illustrator 21.0.2, SVG Export Plug-In . SVG Version: 6.00 Build 0)  -->
<svg version="1.1" id="ColumnsTwo" xmlns="http://www.w3.org/2000/svg" xmlns:xlink="http://www.w3.org/1999/xlink" x="0px" y="0px"
	 viewBox="0 0 32 32" style="enable-background:new 0 0 32 32;" xml:space="preserve">
<style type="text/css">
	.Blue{fill:#1177D7;}
	.Black{fill:#727272;}
</style>
<path class="Black" d="M27,0H3C2.4,0,2,0.4,2,1v28c0,0.6,0.4,1,1,1h24c0.6,0,1-0.4,1-1V1C28,0.4,27.6,0,27,0z M26,28H4V2h22V28z"/>
<path class="Blue" d="M14,8H8V6h6V8z M22,6h-6v2h6V6z M14,10H8v2h6V10z M22,10h-6v2h6V10z M14,14H8v2h6V14z M22,14h-6v2h6V14z
	 M14,18H8v2h6V18z M22,18h-6v2h6V18z M14,22H8v2h6V22z M22,22h-6v2h6V22z"/>
</svg>
