<?xml version="1.0" encoding="utf-8"?>
<!-- Generator: Adobe Illustrator 21.0.2, SVG Export Plug-In . SVG Version: 6.00 Build 0)  -->
<svg version="1.1" id="CustomizeMergeField" xmlns="http://www.w3.org/2000/svg" xmlns:xlink="http://www.w3.org/1999/xlink"
	 x="0px" y="0px" viewBox="0 0 32 32" style="enable-background:new 0 0 32 32;" xml:space="preserve">
<style type="text/css">
	.Black{fill:#727272;}
	.Blue{fill:#1177D7;}
	.Yellow{fill:#FFB115;}
</style>
<rect x="6" y="10" class="Yellow" width="14" height="2"/>
<path class="Blue" d="M31.5,28.9l-6.1-6.1C25.8,21.9,26,21,26,20c0-3.3-2.7-6-6-6c-1,0-1.9,0.2-2.7,0.7l4.2,4.2
	c0.7,0.7,0.7,1.9,0,2.6c-0.7,0.7-1.9,0.7-2.6,0l-4.2-4.2C14.2,18.1,14,19,14,20c0,3.3,2.7,6,6,6c1,0,1.9-0.2,2.7-0.7l6.1,6.1
	c0.7,0.7,1.9,0.7,2.6,0C32.2,30.8,32.2,29.6,31.5,28.9z"/>
<path class="Black" d="M24.6,30H1c-0.5,0-1-0.5-1-1V1c0-0.5,0.5-1,1-1h24c0.5,0,1,0.5,1,1v13.7c-0.6-0.7-1.2-1.2-2-1.6V2H2v26h20.6
	L24.6,30z M20,6H6v2h14V6z M16,14H6v2h10V14z M12,22H6v2h6V22z M12,18H6v2h6V18z"/>
</svg>
