<?xml version="1.0" encoding="utf-8"?>
<!-- Generator: Adobe Illustrator 21.0.2, SVG Export Plug-In . SVG Version: 6.00 Build 0)  -->
<svg version="1.1" id="Cut" xmlns="http://www.w3.org/2000/svg" xmlns:xlink="http://www.w3.org/1999/xlink" x="0px" y="0px"
	 viewBox="0 0 32 32" style="enable-background:new 0 0 32 32;" xml:space="preserve">
<style type="text/css">
	.Black{fill:#727272;}
</style>
<path class="Black" d="M16.4,12.6L26,3l-6.6,12.5L16.4,12.6z M11.4,22.6c0.4,0.7,0.6,1.5,0.6,2.4c0,2.8-2.2,5-5,5c-2.8,0-5-2.2-5-5
	s2.2-5,5-5c0.6,0,1.2,0.1,1.7,0.3l1.4-1.4L12,22L11.4,22.6z M10,25c0-1.7-1.3-3-3-3c-1.7,0-3,1.3-3,3s1.3,3,3,3
	C8.7,28,10,26.7,10,25z M28,25c0,2.8-2.2,5-5,5c-2.8,0-5-2.2-5-5c0-0.9,0.2-1.7,0.6-2.4L16,20l-3,0L4,3l17.3,17.3
	c0.5-0.2,1.1-0.3,1.7-0.3C25.8,20,28,22.2,28,25z M16,17c0-0.6-0.4-1-1-1c-0.6,0-1,0.4-1,1s0.4,1,1,1C15.6,18,16,17.6,16,17z M26,25
	c0-1.7-1.3-3-3-3c-1.7,0-3,1.3-3,3s1.3,3,3,3C24.7,28,26,26.7,26,25z"/>
</svg>
