<?xml version="1.0" encoding="utf-8"?>
<!-- Generator: Adobe Illustrator 21.0.2, SVG Export Plug-In . SVG Version: 6.00 Build 0)  -->
<svg version="1.1" id="Delete_Comment" xmlns="http://www.w3.org/2000/svg" xmlns:xlink="http://www.w3.org/1999/xlink" x="0px"
	 y="0px" viewBox="0 0 32 32" style="enable-background:new 0 0 32 32;" xml:space="preserve">
<style type="text/css">
	.Yellow{fill:#FFB115;}
	.Red{fill:#D11C1C;}
</style>
<path class="Yellow" d="M16.6,19.4c-0.8-0.8-0.8-2,0-2.8l2-2C19,14.2,19.5,14,20,14c0.5,0,1,0.2,1.4,0.6l2.6,2.6l2-2V7
	c0-0.6-0.4-1-1-1H3C2.4,6,2,6.4,2,7v14c0,0.6,0.4,1,1,1h3v6l6-6h7.2L16.6,19.4z"/>
<polygon class="Red" points="30,18 28,16 24,20 20,16 18,18 22,22 18,26 20,28 24,24 28,28 30,26 26,22 "/>
</svg>
