<?xml version="1.0" encoding="utf-8"?>
<!-- Generator: Adobe Illustrator 21.0.2, SVG Export Plug-In . SVG Version: 6.00 Build 0)  -->
<svg version="1.1" id="DeleteTableCells" xmlns="http://www.w3.org/2000/svg" xmlns:xlink="http://www.w3.org/1999/xlink" x="0px"
	 y="0px" viewBox="0 0 32 32" style="enable-background:new 0 0 32 32;" xml:space="preserve">
<style type="text/css">
	.Black{fill:#727272;}
	.Red{fill:#D11C1C;}
	.st0{opacity:0.5;}
</style>
<g class="st0">
	<path class="Black" d="M10,14H2V8h8V14z M30,8h-8v6h8V8z M10,6H2V0h8V6z M20,0h-8v6h8V0z M30,0h-8v6h8V0z M10,16H2v6h8V16z M20,16
		h-8v6h8V16z M30,16h-8v6h8V16z"/>
</g>
<path class="Red" d="M20,28l-4,4l-4-4h2v-4h4v4H20z M20,8h-8v6h8V8z"/>
</svg>
