<?xml version="1.0" encoding="utf-8"?>
<!-- Generator: Adobe Illustrator 21.0.2, SVG Export Plug-In . SVG Version: 6.00 Build 0)  -->
<svg version="1.1" id="DifferentOdd_x26_EvenPages" xmlns="http://www.w3.org/2000/svg" xmlns:xlink="http://www.w3.org/1999/xlink"
	 x="0px" y="0px" viewBox="0 0 32 32" style="enable-background:new 0 0 32 32;" xml:space="preserve">
<style type="text/css">
	.Black{fill:#727272;}
	.Green{fill:#039C23;}
</style>
<path class="Green" d="M28,5v18c0,0.5-0.5,1-1,1h-5V10H10V5c0-0.5,0.5-1,1-1h16C27.5,4,28,4.5,28,5z M3,32h16c0.5,0,1-0.5,1-1V13
	c0-0.6-0.5-1-1-1H3c-0.5,0-1,0.4-1,1v18C2,31.5,2.5,32,3,32z"/>
<path class="Black" d="M24,9v18c0,0.5-0.5,1-1,1h-3v-2h2V10H8v2H6V9c0-0.5,0.5-1,1-1h16C23.5,8,24,8.5,24,9z M31,0H15
	c-0.5,0-1,0.5-1,1v3h2V2h14v16h-2v2h3c0.5,0,1-0.5,1-1V1C32,0.5,31.5,0,31,0z"/>
</svg>
