<?xml version="1.0" encoding="utf-8"?>
<!-- Generator: Adobe Illustrator 21.0.2, SVG Export Plug-In . SVG Version: 6.00 Build 0)  -->
<svg version="1.1" id="DifferentFirstPage" xmlns="http://www.w3.org/2000/svg" xmlns:xlink="http://www.w3.org/1999/xlink" x="0px"
	 y="0px" viewBox="0 0 32 32" style="enable-background:new 0 0 32 32;" xml:space="preserve">
<style type="text/css">
	.Black{fill:#727272;}
	.Green{fill:#039C23;}
</style>
<path class="Green" d="M19,12H3c-0.5,0-1,0.5-1,1v18c0,0.5,0.5,1,1,1h16c0.5,0,1-0.5,1-1V13C20,12.5,19.5,12,19,12z M12,26h-2v-5.2
	H8v-1.2c0.3,0,0.6,0,0.8-0.1c0.3,0,0.5-0.1,0.7-0.3c0.2-0.1,0.4-0.3,0.5-0.5c0.1-0.2,0.2-0.5,0.3-0.8H12V26z"/>
<path class="Black" d="M31,0H15c-0.5,0-1,0.5-1,1v3h-3c-0.5,0-1,0.5-1,1v3H7C6.5,8,6,8.5,6,9v3h2v-2h14v16h-2v2h3c0.5,0,1-0.5,1-1
	v-3h3c0.5,0,1-0.5,1-1v-3h3c0.5,0,1-0.5,1-1V1C32,0.5,31.5,0,31,0z M26,22h-2V9c0-0.5-0.5-1-1-1H12V6h14V22z M30,18h-2V5
	c0-0.5-0.5-1-1-1H16V2h14V18z"/>
</svg>
