<?xml version="1.0" encoding="utf-8"?>
<!-- Generator: Adobe Illustrator 21.0.2, SVG Export Plug-In . SVG Version: 6.00 Build 0)  -->
<svg version="1.1" id="Lookup__x26__Reference" xmlns="http://www.w3.org/2000/svg" xmlns:xlink="http://www.w3.org/1999/xlink"
	 x="0px" y="0px" viewBox="0 0 32 32" style="enable-background:new 0 0 32 32;" xml:space="preserve">
<style type="text/css">
	.Blue{fill:#1177D7;}
</style>
<path class="Blue" d="M10,16c0-2.2,1.8-4,4-4s4,1.8,4,4s-1.8,4-4,4S10,18.2,10,16z M4,5c0,0.6,0.4,1,1,1h23v23c0,0.6-0.4,1-1,1H5
	c-1.7,0-3-1.3-3-3V5c0-1.7,1.3-3,3-3h22c0.6,0,1,0.4,1,1v1H5C4.4,4,4,4.4,4,5z M8.2,17.4c0.5,2.2,2.2,4,4.4,4.5
	c1.8,0.4,3.4,0,4.7-0.8l4.6,4.6c0.5,0.5,1.3,0.5,1.7,0c0.5-0.5,0.5-1.3,0-1.7L19,19.3c0.9-1.3,1.2-3,0.8-4.7
	c-0.5-2.2-2.3-3.9-4.5-4.4C11,9.2,7.2,13,8.2,17.4z"/>
</svg>
