<?xml version="1.0" encoding="utf-8"?>
<!-- Generator: Adobe Illustrator 21.0.2, SVG Export Plug-In . SVG Version: 6.00 Build 0)  -->
<svg version="1.1" id="Document_Properties" xmlns="http://www.w3.org/2000/svg" xmlns:xlink="http://www.w3.org/1999/xlink"
	 x="0px" y="0px" viewBox="0 0 32 32" style="enable-background:new 0 0 32 32;" xml:space="preserve">
<style type="text/css">
	.Black{fill:#727272;}
	.Blue{fill:#1177D7;}
</style>
<path class="Blue" d="M30,25v-2l-2.2-0.4c-0.2-0.6-0.4-1.3-0.7-1.8l1.3-1.8l-1.4-1.4l-1.8,1.3c-0.5-0.3-1.2-0.6-1.8-0.7L23,16h-2
	l-0.4,2.2c-0.6,0.2-1.3,0.4-1.8,0.7l-1.8-1.3l-1.4,1.4l1.3,1.8c-0.3,0.5-0.6,1.2-0.7,1.8L14,23v2l2.2,0.4c0.2,0.6,0.4,1.3,0.7,1.8
	l-1.3,1.8l1.4,1.4l1.8-1.3c0.5,0.3,1.2,0.6,1.8,0.7L21,32h2l0.4-2.2c0.6-0.2,1.3-0.4,1.8-0.7l1.8,1.3l1.4-1.4l-1.3-1.8
	c0.3-0.5,0.6-1.2,0.7-1.8L30,25z M22,26c-1.1,0-2-0.9-2-2s0.9-2,2-2s2,0.9,2,2S23.1,26,22,26z"/>
<path class="Black" d="M14.3,26H6V4h6h6v5c0,0.6,0.4,1,1,1h5v5.9l0,0.4c0.7,0.2,1.4,0.5,2,0.8V9l-7-7H5C4.4,2,4,2.4,4,3v24
	c0,0.6,0.4,1,1,1h10.1C14.7,27.4,14.4,26.7,14.3,26z"/>
</svg>
