<?xml version="1.0" encoding="utf-8"?>
<!-- Generator: Adobe Illustrator 21.0.2, SVG Export Plug-In . SVG Version: 6.00 Build 0)  -->
<svg version="1.1" id="DraftView" xmlns="http://www.w3.org/2000/svg" xmlns:xlink="http://www.w3.org/1999/xlink" x="0px" y="0px"
	 viewBox="0 0 32 32" style="enable-background:new 0 0 32 32;" xml:space="preserve">
<style type="text/css">
	.Black{fill:#727272;}
	.Red{fill:#D11C1C;}
	.Blue{fill:#1177D7;}
</style>
<path class="Black" d="M6,6h14v2H6V6z M6,12h14v-2H6V12z M14.9,24.6l0.6-0.6H2V2h22v13.5l0.6-0.6c0.4-0.4,0.9-0.7,1.4-0.8V1
	c0-0.5-0.5-1-1-1H1C0.5,0,0,0.5,0,1v24c0,0.5,0.5,1,1,1h13.1C14.3,25.5,14.5,25,14.9,24.6z M6,16h14v-2H6V16z M6,20h14v-2H6V20z"/>
<path class="Blue" d="M19,23.3L16.3,26c-0.4,0.4-0.4,1.2,0,1.6l4,4c0.4,0.4,1.2,0.4,1.6,0l2.7-2.7L19,23.3z"/>
<path class="Red" d="M31.7,20.4l-4-4c-0.4-0.4-1.2-0.4-1.6,0l-6.1,6.1l5.6,5.6l6.1-6.1C32.1,21.5,32.1,20.8,31.7,20.4z"/>
</svg>
