<?xml version="1.0" encoding="utf-8"?>
<!-- Generator: Adobe Illustrator 21.0.2, SVG Export Plug-In . SVG Version: 6.00 Build 0)  -->
<svg version="1.1" id="EditRangePermission" xmlns="http://www.w3.org/2000/svg" xmlns:xlink="http://www.w3.org/1999/xlink"
	 x="0px" y="0px" viewBox="0 0 32 32" style="enable-background:new 0 0 32 32;" xml:space="preserve">
<style type="text/css">
	.Yellow{fill:#FFB115;}
	.Black{fill:#727272;}
</style>
<path class="Yellow" d="M31,24h-1v-3c0-1.7-1.3-3-3-3h-2c-1.7,0-3,1.3-3,3v3h-1c-0.6,0-1,0.4-1,1v6c0,0.6,0.4,1,1,1h10
	c0.6,0,1-0.4,1-1v-6C32,24.4,31.6,24,31,24z M24,21c0-0.6,0.4-1,1-1h2c0.6,0,1,0.4,1,1v3h-4V21z"/>
<path class="Black" d="M10,22h10v0.2c-0.9,0.3-1.5,1-1.8,1.8H10V22z M27,4H12.3c0,0,0,0,0,0c0,0.1,0.1,0.2,0.1,0.4
	C12.6,5,12.5,5.6,12.3,6H26v10h1c0.3,0,0.7,0,1,0.1V5C28,4.4,27.6,4,27,4z M10,18v2h10.1c0.2-0.7,0.5-1.4,0.9-2h-5H10z M6,18H4v11
	c0,0.6,0.4,1,1,1h13v-2H6V18z M16,15.1V16h6v-2h-6.1C16,14.3,16,14.7,16,15.1z M15.4,12H22v-2h-8.6C14.1,10.4,14.9,11,15.4,12z"/>
<path class="Black" d="M3.7,5.7C3.6,5.4,3.4,5.2,3.5,4.8c0-0.1,0.2-0.2,0.3-0.2C3.1,2.4,3.8,0.2,6.3,0C9-0.2,9.5,1.8,9.5,1.8
	s1.4-0.1,0.6,2.9c0.1,0,0.3,0,0.3,0.2c0.1,0.3,0,0.6-0.2,0.9c-0.1,0.3,0.1,1-0.5,1c0,0,0,0.1,0,0.1c-0.3,1.4-1.2,3-2.8,3
	c-1.6,0-2.4-1.6-2.8-3c0,0,0-0.1,0-0.1C3.7,6.7,3.9,6,3.7,5.7z M9.3,9.9c-0.5,0.9-1.2,2.5-2.3,2.5c-1.1,0-1.8-1.6-2.3-2.6
	C3.4,12.1,0,10.5,0,15.1V16h14v-0.9C14,10.5,10.7,12,9.3,9.9z"/>
</svg>
