<?xml version="1.0" encoding="utf-8"?>
<!-- Generator: Adobe Illustrator 21.0.2, SVG Export Plug-In . SVG Version: 6.00 Build 0)  -->
<svg version="1.1" id="Shading" xmlns="http://www.w3.org/2000/svg" xmlns:xlink="http://www.w3.org/1999/xlink" x="0px" y="0px"
	 viewBox="0 0 32 32" style="enable-background:new 0 0 32 32;" xml:space="preserve">
<style type="text/css">
	.Black{fill:#727272;}
	.Blue{fill:#1177D7;}
</style>
<path class="Blue" d="M18.4,8c2.6,0,4.8,4.3,4.8,9.6c0,1.3,1.1,2.4,2.4,2.4c1.3,0,2.4-1.1,2.4-2.4C28,12.3,23.7,8,18.4,8z"/>
<path class="Black" d="M17,9.3l3,3L13.3,19c-1.4,1.4-3.7,1.4-5.1,0l-5.1-5.1c-1.4-1.4-1.4-3.7,0-5.1L9.7,2l3,3l-1.9,1.9
	C10.3,7.4,10,8.2,10,9c0,0.8,0.3,1.6,0.9,2.1c0.6,0.6,1.3,0.9,2.1,0.9s1.6-0.3,2.1-0.9L17,9.3z M13.7,9.7l5.9-5.9
	c0.4-0.4,0.4-1,0-1.4l0,0c-0.4-0.4-1-0.4-1.4,0l-5.9,5.9c-0.4,0.4-0.4,1,0,1.4l0,0C12.7,10.1,13.3,10.1,13.7,9.7z"/>
</svg>
