<?xml version="1.0" encoding="utf-8"?>
<!-- Generator: Adobe Illustrator 21.0.2, SVG Export Plug-In . SVG Version: 6.00 Build 0)  -->
<svg version="1.1" id="FloatingObjectLayoutOptions"
	 xmlns="http://www.w3.org/2000/svg" xmlns:xlink="http://www.w3.org/1999/xlink" x="0px" y="0px" viewBox="0 0 32 32"
	 style="enable-background:new 0 0 32 32;" xml:space="preserve">
<style type="text/css">
	.Blue{fill:#1177D7;}
	.Black{fill:#727272;}
</style>
<path class="Black" d="M29,0H1C0.5,0,0,0.5,0,1v28c0,0.5,0.5,1,1,1h28c0.5,0,1-0.5,1-1V1C30,0.5,29.5,0,29,0z M28,28H2V2h26V28z
	 M6,22H4v-2h2V22z M4,26h22v-2H4V26z M6,12H4v2h2V12z M6,8H4v2h2V8z M6,16H4v2h2V16z M4,4v2h2h18h2V4H4z M24,22h2v-2h-2V22z M24,10
	h2V8h-2V10z M24,14h2v-2h-2V14z M24,18h2v-2h-2V18z"/>
<path class="Blue" d="M8,8v6h6V8H8z M12,12h-2v-2h2V12z M16,8v6h6V8H16z M20,12h-2v-2h2V12z M16,16v6h6v-6H16z M20,20h-2v-2h2V20z
	 M8,16v6h6v-6H8z M12,20h-2v-2h2V20z M16,12h-2v-2h2V12z M12,14h-2v2h2V14z M20,14h-2v2h2V14z M16,18h-2v2h2V18z"/>
</svg>
