<?xml version="1.0" encoding="utf-8"?>
<!-- Generator: Adobe Illustrator 22.1.0, SVG Export Plug-In . SVG Version: 6.00 Build 0)  -->
<svg version="1.1" id="Highlight" xmlns="http://www.w3.org/2000/svg" xmlns:xlink="http://www.w3.org/1999/xlink" x="0px" y="0px"
	 viewBox="0 0 32 32" style="enable-background:new 0 0 32 32;" xml:space="preserve">
<style type="text/css">
	.Black{fill:#727272;}
	.Blue{fill:#1177D7;}
	.st0{fill:none;}
	.st1{opacity:0.25;}
</style>
<path class="Black" d="M8,12H5.4v-1.2h0c-0.6,1-1.5,1.5-2.6,1.5c-0.9,0-1.5-0.2-2-0.7C0.2,11,0,10.4,0,9.6c0-1.7,1-2.7,3-2.9
	l2.4-0.3c0-1-0.5-1.4-1.6-1.4c-1.1,0-2.1,0.3-3,0.9v-2c0.4-0.2,0.9-0.4,1.6-0.5c0.7-0.1,1.3-0.2,1.8-0.2C6.7,3.1,8,4.3,8,6.8V12z
	 M5.4,8.5V7.9L3.8,8.1C3,8.2,2.5,8.6,2.5,9.3c0,0.3,0.1,0.6,0.3,0.8c0.2,0.2,0.5,0.3,0.9,0.3c0.5,0,0.9-0.2,1.3-0.5
	C5.3,9.4,5.4,9,5.4,8.5z M12.7,11L12.7,11l0,1H10V0h2.7v4.6h0c0.7-1,1.6-1.5,2.8-1.5c1.1,0,2,0.4,2.6,1.2C18.7,5,19,6.1,19,7.4
	c0,1.5-0.4,2.6-1.1,3.5s-1.6,1.3-2.8,1.3C14.1,12.2,13.3,11.8,12.7,11z M12.6,7.3v0.9c0,0.6,0.2,1,0.5,1.4c0.3,0.4,0.7,0.6,1.2,0.6
	c0.6,0,1.1-0.2,1.4-0.7c0.3-0.5,0.5-1.1,0.5-2c0-0.7-0.2-1.3-0.5-1.7c-0.3-0.4-0.7-0.6-1.3-0.6c-0.5,0-1,0.2-1.3,0.6
	C12.8,6.2,12.6,6.7,12.6,7.3z"/>
<path class="Blue" d="M29,13l-8,8l-4-4l8-8L29,13z M30,12l1.7-1.7c0.4-0.4,0.4-1,0-1.3L29,6.3c-0.4-0.4-1-0.4-1.3,0L26,8L30,12z
	 M16,18v4h4L16,18z"/>
<rect id="Indicator" y="24" class="st0" width="32" height="8"/>
<g class="st1">
	<path class="Black" d="M0,24V32h32V24H0z M30,30H2v-4h28V30z"/>
</g>
</svg>
