<?xml version="1.0" encoding="utf-8"?>
<!-- Generator: Adobe Illustrator 21.0.2, SVG Export Plug-In . SVG Version: 6.00 Build 0)  -->
<svg version="1.1" id="InsertTableOfEquations" xmlns="http://www.w3.org/2000/svg" xmlns:xlink="http://www.w3.org/1999/xlink"
	 x="0px" y="0px" viewBox="0 0 32 32" style="enable-background:new 0 0 32 32;" xml:space="preserve">
<style type="text/css">
	.Black{fill:#727272;}
</style>
<path class="Black" d="M17.1,10h2.5l-0.5,2h-2.5l-2.5,10.2c-0.3,1.3-0.7,2.4-1.4,3.2c-0.6,0.9-1.3,1.5-2.2,1.9
	C9.8,27.8,8.8,28,7.7,28c-1.1,0-1.9-0.2-2.6-0.6C4.4,26.8,4,26.2,4,25.6c0-0.5,0.2-1,0.5-1.3c0.4-0.4,0.8-0.5,1.3-0.5
	c0.2,0,0.4,0,0.7,0.1C6.8,23.9,7,24,7.2,24.2c0.1,0.1,0.4,0.3,0.7,0.8c0.1,0.2,0.3,0.3,0.4,0.4c0.1,0.1,0.3,0.1,0.4,0.1
	c0.6,0,1-0.6,1.2-1.9L12.5,12h-1.8l0.4-2H13l0.3-1.3c0.3-1.5,1.1-2.6,2.2-3.5S18,4,19.8,4c0.9,0,1.6,0.1,2.1,0.3
	c0.5,0.2,0.9,0.5,1.2,0.9c0.3,0.4,0.4,0.8,0.4,1.2c0,0.3-0.1,0.7-0.3,1c-0.2,0.3-0.4,0.5-0.7,0.7c-0.3,0.2-0.6,0.2-1,0.2
	c-0.3,0-0.6-0.1-0.9-0.2c-0.3-0.1-0.6-0.4-0.8-0.7c-0.3-0.4-0.5-0.6-0.7-0.7c-0.1-0.1-0.3-0.1-0.5-0.1c-0.3,0-0.6,0.2-0.8,0.5
	c-0.2,0.2-0.3,0.7-0.5,1.4L17.1,10z M21.5,18.2l1.5,3.1c0.8-1.2,1.4-1.9,1.7-2.2c0.4-0.4,0.8-0.7,1.2-0.9s0.8-0.3,1.1-0.3
	c0.4,0,0.7,0.1,1,0.4c0.3,0.2,0.4,0.5,0.4,0.9c0,0.2,0,0.5-0.1,0.6c-0.1,0.2-0.2,0.3-0.4,0.5c-0.2,0.1-0.4,0.2-0.5,0.3
	c-0.1,0-0.3,0-0.7,0.1c-0.4,0-0.7,0-0.8,0.1c-0.2,0-0.3,0.1-0.5,0.3c-0.2,0.2-0.4,0.3-0.6,0.6c-0.1,0.1-0.4,0.5-1,1.4l0.5,1
	c0.4,0.8,0.7,1.3,1,1.6c0.3,0.2,0.5,0.4,0.8,0.4c0.4,0,0.9-0.2,1.4-0.7l1.1,1.2c-1.1,1-2.2,1.5-3.4,1.5c-0.5,0-0.9-0.1-1.3-0.2
	c-0.4-0.2-0.7-0.4-1-0.7c-0.3-0.3-0.6-0.8-0.9-1.4l-0.5-1.1c-0.5,0.8-1,1.5-1.6,2.1c-0.5,0.6-1,0.9-1.4,1.1C18,27.9,17.6,28,17.2,28
	c-0.3,0-0.5-0.1-0.8-0.2c-0.2-0.1-0.3-0.2-0.4-0.5c-0.1-0.2-0.2-0.4-0.2-0.7c0-0.3,0.1-0.5,0.2-0.7c0.1-0.2,0.3-0.4,0.5-0.5
	c0.2-0.1,0.6-0.2,1.1-0.2c0.4,0,0.7-0.1,0.9-0.2c0.2-0.1,0.5-0.3,0.7-0.6c0.3-0.3,0.7-0.8,1.2-1.7l-0.9-2h-1.4l0.4-1.8
	c0.8-0.1,1.5-0.4,2.2-0.8H21.5z"/>
</svg>
