<?xml version="1.0" encoding="utf-8"?>
<!-- Generator: Adobe Illustrator 21.0.2, SVG Export Plug-In . SVG Version: 6.00 Build 0)  -->
<svg version="1.1" id="InsertDataField" xmlns="http://www.w3.org/2000/svg" xmlns:xlink="http://www.w3.org/1999/xlink" x="0px"
	 y="0px" viewBox="0 0 32 32" style="enable-background:new 0 0 32 32;" xml:space="preserve">
<style type="text/css">
	.Black{fill:#727272;}
	.Yellow{fill:#FFB115;}
	.Green{fill:#039C23;}
</style>
<path class="Black" d="M29,4H11c-0.5,0-1,0.5-1,1v9l2,1.3V6h16v22H12v-5.2l-2,1.3V29c0,0.5,0.5,1,1,1h18c0.5,0,1-0.5,1-1V5
	C30,4.5,29.5,4,29,4z M26,14H14v2h12V14z M14,24h12v-2H14V24z"/>
<path class="Green" d="M8,18.1H6v-4H4v5c0,0.6,0.4,1,1,1h3v3l6-4l-6-4V18.1z"/>
<g>
	<path class="Yellow" d="M22,11V1c0-0.5-0.5-1-1-1H1C0.5,0,0,0.5,0,1v10c0,0.5,0.5,1,1,1h20C21.5,12,22,11.5,22,11z"/>
	<rect x="16" y="18" class="Yellow" width="10" height="2"/>
</g>
</svg>
