<?xml version="1.0" encoding="utf-8"?>
<!-- Generator: Adobe Illustrator 21.0.2, SVG Export Plug-In . SVG Version: 6.00 Build 0)  -->
<svg version="1.1" id="InsertTableOfContents" xmlns="http://www.w3.org/2000/svg" xmlns:xlink="http://www.w3.org/1999/xlink"
	 x="0px" y="0px" viewBox="0 0 32 32" style="enable-background:new 0 0 32 32;" xml:space="preserve">
<style type="text/css">
	.Black{fill:#727272;}
	.Blue{fill:#1177D7;}
	.st0{opacity:0.5;}
</style>
<g class="st0">
	<path class="Black" d="M20,8h-2V6h2V8z M20,10h-2v2h2V10z M20,18h-2v2h2V18z M20,22h-2v2h2V22z M20,14h-2v2h2V14z M16,8h-2V6h2V8z
		 M16,10h-2v2h2V10z M16,18h-2v2h2V18z M16,22h-2v2h2V22z M16,14h-2v2h2V14z"/>
</g>
<path class="Blue" d="M24,8h-2V6h2V8z M24,10h-2v2h2V10z M24,14h-2v2h2V14z M24,18h-2v2h2V18z M24,22h-2v2h2V22z"/>
<path class="Black" d="M27,0H3C2.4,0,2,0.4,2,1v28c0,0.6,0.4,1,1,1h24c0.6,0,1-0.4,1-1V1C28,0.4,27.6,0,27,0z M26,28H4V2h22V28z
	 M12,8H6V6h6V8z M12,10H6v2h6V10z M12,14H6v2h6V14z M12,18H6v2h6V18z M12,22H6v2h6V22z"/>
</svg>
