<?xml version="1.0" encoding="utf-8"?>
<!-- Generator: Adobe Illustrator 21.0.2, SVG Export Plug-In . SVG Version: 6.00 Build 0)  -->
<svg version="1.1" id="PageNumber" xmlns="http://www.w3.org/2000/svg" xmlns:xlink="http://www.w3.org/1999/xlink" x="0px" y="0px"
	 viewBox="0 0 32 32" style="enable-background:new 0 0 32 32;" xml:space="preserve">
<style type="text/css">
	.Black{fill:#727272;}
	.Blue{fill:#1177D7;}
</style>
<path class="Black" d="M25,2H5C4.5,2,4,2.5,4,3v26c0,0.5,0.5,1,1,1h20c0.5,0,1-0.5,1-1V3C26,2.5,25.5,2,25,2z M24,28H6V4h18V28z"/>
<path class="Blue" d="M20,13.3l-0.3,1.6H18l-0.5,2.3h1.8L19,18.8h-1.7L16.5,22h-1.8l0.6-3.2h-2L12.8,22H11l0.6-3.2H10l0.3-1.6H12
	l0.5-2.3h-1.8l0.3-1.6h1.8l0.7-3.3h1.8l-0.7,3.3h2l0.7-3.3H19l-0.7,3.3H20z M16.3,14.9h-2l-0.5,2.3h2L16.3,14.9z"/>
</svg>
