<?xml version="1.0" encoding="utf-8"?>
<!-- Generator: Adobe Illustrator 21.0.2, SVG Export Plug-In . SVG Version: 6.00 Build 0)  -->
<svg version="1.1" id="InsertTableOfCaptions" xmlns="http://www.w3.org/2000/svg" xmlns:xlink="http://www.w3.org/1999/xlink"
	 x="0px" y="0px" viewBox="0 0 32 32" style="enable-background:new 0 0 32 32;" xml:space="preserve">
<style type="text/css">
	.Black{fill:#727272;}
	.Green{fill:#039C23;}
	.Blue{fill:#1177D7;}
	.st0{opacity:0.5;}
</style>
<g class="st0">
	<path class="Black" d="M22,20h-2v2h2V20z M22,24h-2v2h2V24z M22,16h-2v2h2V16z"/>
</g>
<path class="Blue" d="M26,16h-2v2h2V16z M26,20h-2v2h2V20z M26,24h-2v2h2V24z"/>
<path class="Black" d="M12,26v-2h6v2H12z M18,22v-2h-6v2H18z M31,0H7C6.4,0,6,0.4,6,1v14.9l2,1.3V2h22v28H8v-5.3l-2,1.3V31
	c0,0.6,0.4,1,1,1h24c0.6,0,1-0.4,1-1V1C32,0.4,31.6,0,31,0z M18,16h-6v2h6V16z"/>
<polygon class="Green" points="10,21 4,17 4,20 0,20 0,22 4,22 4,25 "/>
<g class="st0">
	<rect x="12" y="6" class="Black" width="14" height="8"/>
</g>
</svg>
