<?xml version="1.0" encoding="utf-8"?>
<!-- Generator: Adobe Illustrator 21.0.2, SVG Export Plug-In . SVG Version: 6.00 Build 0)  -->
<svg version="1.1" id="InsertColumnBreak" xmlns="http://www.w3.org/2000/svg" xmlns:xlink="http://www.w3.org/1999/xlink" x="0px"
	 y="0px" viewBox="0 0 32 32" style="enable-background:new 0 0 32 32;" xml:space="preserve">
<style type="text/css">
	.Red{fill:#D11C1C;}
	.Blue{fill:#1177D7;}
	.Black{fill:#727272;}
</style>
<path class="Black" d="M29,0H5C4.4,0,4,0.4,4,1v12.6l2,1.3V2h22v26H6v-2.9l-2,1.3V29c0,0.6,0.4,1,1,1h24c0.6,0,1-0.4,1-1V1
	C30,0.4,29.6,0,29,0z"/>
<path class="Blue" d="M16,8h-6V6h6V8z M16,10h-6v2h6V10z M16,14h-6v2h6V14z M4,24l6-4l-6-4V24z"/>
<path class="Red" d="M24,6h-6v2h6V6z M24,10h-6v2h6V10z M24,14h-6v2h6V14z M24,18h-6v2h6V18z M24,22h-6v2h6V22z"/>
</svg>
