<?xml version="1.0" encoding="utf-8"?>
<!-- Generator: Adobe Illustrator 21.0.2, SVG Export Plug-In . SVG Version: 6.00 Build 0)  -->
<svg version="1.1" id="InsertSectionBreakNextPage" xmlns="http://www.w3.org/2000/svg" xmlns:xlink="http://www.w3.org/1999/xlink"
	 x="0px" y="0px" viewBox="0 0 32 32" style="enable-background:new 0 0 32 32;" xml:space="preserve">
<style type="text/css">
	.Red{fill:#D11C1C;}
	.Blue{fill:#1177D7;}
	.Black{fill:#727272;}
</style>
<path class="Black" d="M28,2v10H10V2H8v11c0,0.6,0.4,1,1,1h20c0.6,0,1-0.4,1-1V2H28z M28,30V20H10v10H8V19c0-0.6,0.4-1,1-1h20
	c0.6,0,1,0.4,1,1v11H28z"/>
<path class="Blue" d="M0,12l6,4l-6,4 M24,6H14v2h10V6z M24,4H14V2h10V4z"/>
<path class="Red" d="M24,30H14v-2h10V30z M24,24H14v2h10V24z"/>
</svg>
