<?xml version="1.0" encoding="utf-8"?>
<!-- Generator: Adobe Illustrator 21.0.2, SVG Export Plug-In . SVG Version: 6.00 Build 0)  -->
<svg version="1.1" id="TextBox" xmlns="http://www.w3.org/2000/svg" xmlns:xlink="http://www.w3.org/1999/xlink" x="0px" y="0px"
	 viewBox="0 0 32 32" style="enable-background:new 0 0 32 32;" xml:space="preserve">
<style type="text/css">
	.Black{fill:#727272;}
	.Blue{fill:#1177D7;}
	.st0{opacity:0.75;}
</style>
<path class="Black" d="M27,2H5C4.5,2,4,2.5,4,3v26c0,0.5,0.5,1,1,1h22c0.5,0,1-0.5,1-1V3C28,2.5,27.5,2,27,2z M26,28H6V4h20V28z"/>
<g class="st0">
	<path class="Black" d="M24,26H8v-2h16V26z M24,20H8v2h16V20z"/>
</g>
<path class="Blue" d="M22,18h-3l-0.9-2.7h-4.3L13,18h-3l4.4-12h3.2L22,18z M17.5,13.3l-1.3-4c-0.1-0.3-0.2-0.7-0.2-1.1h-0.1
	c0,0.4-0.1,0.7-0.2,1l-1.3,4.1H17.5z"/>
</svg>
