<?xml version="1.0" encoding="utf-8"?>
<!-- Generator: Adobe Illustrator 21.0.2, SVG Export Plug-In . SVG Version: 6.00 Build 0)  -->
<svg version="1.1" id="Language" xmlns="http://www.w3.org/2000/svg" xmlns:xlink="http://www.w3.org/1999/xlink" x="0px" y="0px"
	 viewBox="0 0 32 32" style="enable-background:new 0 0 32 32;" xml:space="preserve">
<style type="text/css">
	.Black{fill:#727272;}
	.Yellow{fill:#FFB115;}
	.Blue{fill:#1177D7;}
</style>
<path class="Blue" d="M3.3,28c1.3-1.1,2.9-1.7,4.7-1.9v3.9C6.2,29.7,4.6,29.1,3.3,28z M14.9,18l-2,2h5.1c-0.1-0.7-0.3-1.4-0.5-2
	H14.9z M10,22v2.1c2.3,0.2,4.4,1.1,6.1,2.5c1-1.3,1.7-2.9,1.9-4.6h-7.1H10z M1.9,26.6c1.7-1.4,3.8-2.3,6.1-2.5V22H0.1
	C0.2,23.7,0.9,25.3,1.9,26.6z M10,29.9c1.8-0.2,3.4-0.9,4.7-1.9c-1.3-1.1-2.9-1.7-4.7-1.9V29.9z M5,18c-1.5,0-2.7-1.1-2.9-2.5
	c0,0-0.1-0.1-0.1-0.1c-1,1.3-1.7,2.9-1.9,4.6H8v-2H7H5z"/>
<path class="Yellow" d="M29,0H5C4.5,0,4,0.5,4,1v14c0,0.5,0.5,1,1,1h5v4l4-4h15c0.5,0,1-0.5,1-1V1C30,0.5,29.5,0,29,0z"/>
<path class="Black" d="M13.9,12h-2l-0.6-1.8H8.5L8,12H6l2.9-8H11L13.9,12z M10.9,8.8l-0.9-2.7C10,5.9,10,5.7,10,5.4h0
	c0,0.2-0.1,0.5-0.1,0.7L8.9,8.8H10.9z M14.9,12V4h2.9c0.9,0,1.6,0.2,2.1,0.5c0.5,0.3,0.7,0.8,0.7,1.4c0,0.4-0.1,0.8-0.4,1.1
	c-0.3,0.3-0.7,0.5-1.1,0.7v0c0.6,0.1,1,0.3,1.4,0.6c0.3,0.3,0.5,0.8,0.5,1.3c0,0.7-0.3,1.3-0.8,1.7C19.6,11.8,18.9,12,18,12H14.9z
	 M16.7,5.3v1.9h0.8c0.4,0,0.7-0.1,0.9-0.3s0.3-0.4,0.3-0.7c0-0.6-0.4-0.9-1.3-0.9H16.7z M16.7,8.6v2.1h1c0.4,0,0.7-0.1,1-0.3
	c0.2-0.2,0.4-0.5,0.4-0.8c0-0.3-0.1-0.6-0.3-0.8c-0.2-0.2-0.6-0.3-1-0.3H16.7z M27.9,11.7c-0.6,0.3-1.3,0.4-2.3,0.4
	c-1.2,0-2.2-0.4-2.9-1.1c-0.7-0.7-1.1-1.7-1.1-2.9c0-1.3,0.4-2.3,1.2-3.1c0.8-0.8,1.8-1.2,3.1-1.2c0.8,0,1.4,0.1,2,0.3v1.7
	c-0.5-0.3-1.1-0.5-1.8-0.5c-0.8,0-1.4,0.2-1.8,0.7c-0.5,0.5-0.7,1.1-0.7,1.9c0,0.8,0.2,1.4,0.7,1.8s1,0.7,1.8,0.7
	c0.7,0,1.3-0.2,1.9-0.5V11.7z"/>
</svg>
