<?xml version="1.0" encoding="utf-8"?>
<!-- Generator: Adobe Illustrator 21.0.2, SVG Export Plug-In . SVG Version: 6.00 Build 0)  -->
<svg version="1.1" id="LineNumbering" xmlns="http://www.w3.org/2000/svg" xmlns:xlink="http://www.w3.org/1999/xlink" x="0px"
	 y="0px" viewBox="0 0 32 32" style="enable-background:new 0 0 32 32;" xml:space="preserve">
<style type="text/css">
	.Black{fill:#727272;}
	.Blue{fill:#1177D7;}
	.Red{fill:#D11C1C;}
</style>
<path class="Black" d="M31,2H13c-0.5,0-1,0.5-1,1v26c0,0.5,0.5,1,1,1h18c0.5,0,1-0.5,1-1V3C32,2.5,31.5,2,31,2z M30,28H14V4h16V28z"
	/>
<path class="Blue" d="M26,12h-8v-2h8V12z M26,22h-8v-2h8V22z"/>
<path class="Red" d="M4,6v8H2V9.3l-2,0V7.7l0.2,0c0.2,0,0.5,0,0.7-0.1c0.3,0,0.5-0.1,0.7-0.3c0.2-0.1,0.4-0.3,0.5-0.5
	c0.1-0.2,0.2-0.4,0.3-0.7l0-0.1H4z M6,24v-1.6H2.6C2.7,22.2,2.9,22.1,3,22c0.2-0.2,0.5-0.4,0.7-0.5c0.3-0.2,0.5-0.3,0.8-0.5
	c0.3-0.2,0.5-0.4,0.7-0.6c0.2-0.2,0.4-0.5,0.5-0.8c0.1-0.3,0.2-0.6,0.2-1c0-0.4-0.1-0.7-0.2-1.1c-0.1-0.3-0.4-0.6-0.6-0.8
	c-0.3-0.2-0.5-0.4-0.9-0.5c-0.3-0.1-0.7-0.2-1-0.2c-0.5,0-0.9,0.1-1.3,0.2c-0.4,0.2-0.7,0.4-0.9,0.7c-0.2,0.3-0.4,0.6-0.5,1
	c-0.1,0.4-0.2,0.8-0.2,1.3l0,0.1h1.8v-0.1c0-0.2,0-0.4,0.1-0.6c0-0.2,0.1-0.4,0.2-0.5c0.1-0.1,0.2-0.3,0.3-0.4
	c0.1-0.1,0.3-0.1,0.5-0.1c0.3,0,0.5,0.1,0.7,0.3c0.2,0.2,0.3,0.4,0.3,0.8c0,0.2,0,0.4-0.1,0.5c-0.1,0.2-0.2,0.3-0.4,0.5
	c-0.1,0.1-0.3,0.3-0.5,0.4c-0.2,0.1-0.4,0.2-0.5,0.4C2.3,20.6,2,20.8,1.7,21c-0.3,0.2-0.6,0.5-0.8,0.7c-0.2,0.3-0.4,0.6-0.5,0.9
	c-0.1,0.3-0.2,0.7-0.2,1.2V24H6z M10,10H8v2h2V10z M10,20H8v2h2V20z"/>
</svg>
