<?xml version="1.0" encoding="utf-8"?>
<!-- Generator: Adobe Illustrator 21.0.2, SVG Export Plug-In . SVG Version: 6.00 Build 0)  -->
<svg version="1.1" id="ListMultilevel" xmlns="http://www.w3.org/2000/svg" xmlns:xlink="http://www.w3.org/1999/xlink" x="0px"
	 y="0px" viewBox="0 0 32 32" style="enable-background:new 0 0 32 32;" xml:space="preserve">
<style type="text/css">
	.Red{fill:#D11C1C;}
	.Black{fill:#727272;}
</style>
<path class="Black" d="M24,8H6V6h18V8z M28,18H10v-2h18V18z M32,28H14v-2h18V28z"/>
<path class="Red" d="M4,2v8H2V5.3l-2,0V3.7l0.2,0c0.2,0,0.5,0,0.7-0.1c0.3,0,0.5-0.1,0.7-0.3c0.2-0.1,0.4-0.3,0.5-0.5
	c0.1-0.2,0.2-0.4,0.3-0.7l0-0.1H4z M5.4,20c0.3-0.1,0.6-0.3,0.8-0.5c0,0,0,0.1,0,0.1c0,0.1,0,0.2,0.1,0.3l0,0.1h2l-0.1-0.2
	c-0.1-0.1-0.1-0.3-0.1-0.5c0-0.3,0-0.5,0-0.8v-3.3c0-0.4-0.1-0.8-0.3-1c-0.2-0.2-0.4-0.4-0.7-0.6c-0.3-0.1-0.6-0.2-0.9-0.3
	c-0.3,0-0.6-0.1-1-0.1c-0.3,0-0.7,0-1,0.1c-0.3,0.1-0.7,0.2-0.9,0.4c-0.3,0.2-0.5,0.4-0.7,0.7c-0.2,0.3-0.3,0.7-0.3,1.1l0,0.1h1.9
	l0-0.1c0-0.3,0.1-0.5,0.3-0.7c0.2-0.1,0.4-0.2,0.7-0.2c0.1,0,0.3,0,0.4,0c0.1,0,0.2,0.1,0.3,0.1C5.9,14.8,6,14.9,6,15
	c0,0.1,0.1,0.2,0.1,0.4c0,0.1,0,0.2-0.1,0.3c-0.1,0.1-0.2,0.1-0.4,0.2c-0.2,0-0.4,0.1-0.6,0.1c-0.2,0-0.5,0.1-0.8,0.1
	c-0.3,0-0.5,0.1-0.8,0.2c-0.3,0.1-0.5,0.2-0.7,0.3c-0.2,0.2-0.4,0.4-0.5,0.6c-0.1,0.3-0.2,0.6-0.2,1c0,0.3,0.1,0.6,0.2,0.9
	c0.1,0.3,0.3,0.5,0.5,0.6C2.9,19.8,3.1,20,3.4,20c0.3,0.1,0.5,0.1,0.9,0.1C4.6,20.2,5,20.1,5.4,20z M6.1,17v0.4c0,0.1,0,0.2,0,0.4
	c0,0.1-0.1,0.3-0.1,0.4c-0.1,0.1-0.2,0.3-0.4,0.4c-0.2,0.1-0.4,0.2-0.7,0.2c-0.1,0-0.3,0-0.4,0c-0.1,0-0.2-0.1-0.3-0.1
	C4.1,18.6,4,18.5,4,18.4c0-0.1-0.1-0.2-0.1-0.3c0-0.1,0-0.3,0.1-0.3c0-0.1,0.1-0.2,0.2-0.2c0.1-0.1,0.2-0.1,0.3-0.1
	c0.1,0,0.2-0.1,0.4-0.1c0.1,0,0.3,0,0.4-0.1c0.1,0,0.3,0,0.4-0.1c0.1,0,0.2-0.1,0.4-0.1C6,17,6.1,17,6.1,17z M10,22H8v2h2V22z
	 M10,30H8v-4.9h2V30z"/>
</svg>
