<?xml version="1.0" encoding="utf-8"?>
<!-- Generator: Adobe Illustrator 21.0.2, SVG Export Plug-In . SVG Version: 6.00 Build 0)  -->
<svg version="1.1" id="ListNumbers" xmlns="http://www.w3.org/2000/svg" xmlns:xlink="http://www.w3.org/1999/xlink" x="0px"
	 y="0px" viewBox="0 0 32 32" style="enable-background:new 0 0 32 32;" xml:space="preserve">
<style type="text/css">
	.Red{fill:#D11C1C;}
	.Black{fill:#727272;}
</style>
<path class="Black" d="M30,8H12V6h18V8z M30,18H12v-2h18V18z M30,28H12v-2h18V28z"/>
<path class="Red" d="M6,2v8H4V5.3l-2,0V3.7l0.2,0c0.2,0,0.5,0,0.7-0.1c0.3,0,0.5-0.1,0.7-0.3c0.2-0.1,0.4-0.3,0.5-0.5
	c0.1-0.2,0.2-0.4,0.3-0.7l0-0.1H6z M8,20v-1.6H4.6C4.7,18.2,4.9,18.1,5,18c0.2-0.2,0.5-0.4,0.7-0.5c0.3-0.2,0.5-0.3,0.8-0.5
	c0.3-0.2,0.5-0.4,0.7-0.6c0.2-0.2,0.4-0.5,0.5-0.8c0.1-0.3,0.2-0.6,0.2-1c0-0.4-0.1-0.7-0.2-1.1c-0.1-0.3-0.4-0.6-0.6-0.8
	c-0.3-0.2-0.5-0.4-0.9-0.5c-0.3-0.1-0.7-0.2-1-0.2c-0.5,0-0.9,0.1-1.3,0.2c-0.4,0.2-0.7,0.4-0.9,0.7c-0.2,0.3-0.4,0.6-0.5,1
	c-0.1,0.4-0.2,0.8-0.2,1.3l0,0.1h1.8v-0.1c0-0.2,0-0.4,0.1-0.6c0-0.2,0.1-0.4,0.2-0.5c0.1-0.1,0.2-0.3,0.3-0.4
	c0.1-0.1,0.3-0.1,0.5-0.1c0.3,0,0.5,0.1,0.7,0.3c0.2,0.2,0.3,0.4,0.3,0.8c0,0.2,0,0.4-0.1,0.5c-0.1,0.2-0.2,0.3-0.4,0.5
	c-0.1,0.1-0.3,0.3-0.5,0.4c-0.2,0.1-0.4,0.2-0.5,0.4C4.3,16.6,4,16.8,3.7,17c-0.3,0.2-0.6,0.5-0.8,0.7c-0.2,0.3-0.4,0.6-0.5,0.9
	c-0.1,0.3-0.2,0.7-0.2,1.2V20H8z M6.1,29.8c0.3-0.1,0.7-0.3,0.9-0.5c0.3-0.2,0.5-0.5,0.6-0.8C7.9,28.2,8,27.8,8,27.4
	c0-0.5-0.1-0.9-0.4-1.2c-0.2-0.2-0.4-0.4-0.7-0.5c0.2-0.1,0.4-0.3,0.5-0.5c0.2-0.3,0.3-0.6,0.3-1c0-0.4-0.1-0.7-0.2-1
	c-0.2-0.3-0.4-0.5-0.6-0.7c-0.2-0.2-0.5-0.3-0.8-0.4C5.7,22,5.4,22,5.1,22c-0.4,0-0.8,0.1-1.1,0.2c-0.3,0.1-0.6,0.3-0.9,0.6
	c-0.2,0.2-0.4,0.5-0.6,0.9c-0.1,0.3-0.2,0.7-0.2,1.1l0,0.1h1.7l0-0.1c0-0.3,0.1-0.6,0.3-0.9c0.2-0.2,0.4-0.3,0.8-0.3
	c0.2,0,0.5,0.1,0.6,0.2C5.9,23.9,6,24.1,6,24.4c0,0.2,0,0.3-0.1,0.4C5.8,24.9,5.6,25,5.5,25c-0.1,0.1-0.3,0.1-0.5,0.1
	c-0.1,0-0.2,0-0.3,0c-0.1,0-0.2,0-0.2,0l-0.2,0v1.4h0.1c0.2,0,0.4,0,0.6,0c0.2,0,0.4,0,0.5,0.1c0.1,0.1,0.3,0.1,0.4,0.3
	c0.1,0.1,0.1,0.3,0.1,0.6c0,0.3-0.1,0.6-0.3,0.7c-0.2,0.2-0.5,0.3-0.8,0.3c-0.2,0-0.4,0-0.5-0.1c-0.1-0.1-0.3-0.2-0.4-0.3
	C4.1,28,4,27.8,4,27.7c-0.1-0.2-0.1-0.3-0.1-0.5l0-0.1H2.2l0,0.1c0,0.4,0.1,0.9,0.2,1.2c0.1,0.4,0.3,0.7,0.6,0.9
	c0.3,0.2,0.6,0.4,0.9,0.6C4.2,29.9,4.6,30,5.1,30C5.4,30,5.8,29.9,6.1,29.8z"/>
</svg>
