<?xml version="1.0" encoding="utf-8"?>
<!-- Generator: Adobe Illustrator 21.0.2, SVG Export Plug-In . SVG Version: 6.00 Build 0)  -->
<svg version="1.1" id="MailMerge" xmlns="http://www.w3.org/2000/svg" xmlns:xlink="http://www.w3.org/1999/xlink" x="0px" y="0px"
	 viewBox="0 0 32 32" style="enable-background:new 0 0 32 32;" xml:space="preserve">
<style type="text/css">
	.Green{fill:#039C23;}
	.Black{fill:#727272;}
	.Yellow{fill:#FFB115;}
</style>
<path class="Yellow" d="M28,22H18v-2h10V22z M10,6c0-1.1,0.9-2,2-2h4V3c0-1.7-3.6-3-8-3S0,1.3,0,3v14c0,1.1,1.6,2.1,4,2.6V15
	c0-0.5,0.5-1,1-1h3h1.1h0l0.9,0.6V6z"/>
<path class="Black" d="M16,16h12v2H16V16z M31,6H13c-0.5,0-1,0.5-1,1v8.9l2,1.3V8h16v22H14v-5.3l-2,1.3V31c0,0.5,0.5,1,1,1h18
	c0.5,0,1-0.5,1-1V7C32,6.5,31.5,6,31,6z M28,12H16v2h12V12z M16,26h12v-2H16V26z"/>
<path class="Green" d="M10,20H8v-4H6v5c0,0.6,0.4,1,1,1h3v3l6-4l-6-4V20z"/>
</svg>
