<?xml version="1.0" encoding="utf-8"?>
<!-- Generator: Adobe Illustrator 21.0.2, SVG Export Plug-In . SVG Version: 6.00 Build 0)  -->
<svg version="1.1" id="New_Comment_1_" xmlns="http://www.w3.org/2000/svg" xmlns:xlink="http://www.w3.org/1999/xlink" x="0px"
	 y="0px" viewBox="0 0 32 32" style="enable-background:new 0 0 32 32;" xml:space="preserve">
<style type="text/css">
	.Yellow{fill:#FFB115;}
</style>
<path id="New_Comment" class="Yellow" d="M26,5l2-2v3h3l-2,2l2,2h-3v3l-2-2l-2,2v-3h-3l2-2l-2-2h3V3L26,5z M26,13.8l-0.6,0.6
	C25,14.8,24.5,15,24,15c-0.3,0-0.5,0-0.8-0.2c-0.7-0.3-1.2-1-1.2-1.8v-1h-1c-0.8,0-1.5-0.5-1.8-1.2C18.8,10,19,9.2,19.6,8.6L20.2,8
	l-0.6-0.6C19.2,7,19,6.5,19,6H5C4.4,6,4,6.4,4,7v14c0,0.6,0.4,1,1,1h3v6l6-6h13c0.6,0,1-0.4,1-1v-6c-0.5,0-1-0.2-1.4-0.6L26,13.8z"
	/>
</svg>
