<?xml version="1.0" encoding="utf-8"?>
<!-- Generator: Adobe Illustrator 21.0.2, SVG Export Plug-In . SVG Version: 6.00 Build 0)  -->
<svg version="1.1" id="PageColor" xmlns="http://www.w3.org/2000/svg" xmlns:xlink="http://www.w3.org/1999/xlink" x="0px" y="0px"
	 viewBox="0 0 32 32" style="enable-background:new 0 0 32 32;" xml:space="preserve">
<style type="text/css">
	.Black{fill:#727272;}
	.Green{fill:#039C23;}
</style>
<path class="Green" d="M32,3v26c0,0.5-0.5,1-1,1H9c-0.5,0-1-0.5-1-1v-3.1C8.2,26,8.5,26,8.7,26c1.5,0,2.9-0.6,4-1.6l6.2-6.1
	c0.2,1,0.3,2.1,0.3,3.3c0,2.4,2,4.4,4.4,4.4s4.4-2,4.4-4.4c0-5.8-4.3-10.6-9.9-11.5L19,9.3c1.2-1.2,1.2-3.1,0-4.2
	c-0.6-0.6-1.3-0.9-2.1-0.9c-0.8,0-1.6,0.3-2.1,0.9l-2.6,2.6L8,3.4V3c0-0.5,0.5-1,1-1h22C31.5,2,32,2.5,32,3z M16.4,12
	c2.6,0,4.8,4.3,4.8,9.6c0,1.3,1.1,2.4,2.4,2.4c1.3,0,2.4-1.1,2.4-2.4C26,16.3,21.7,12,16.4,12z"/>
<path class="Black" d="M15,13.2l3,3l-6.7,6.7c-1.4,1.4-3.7,1.4-5.1,0l-5.1-5.1c-1.4-1.4-1.4-3.7,0-5.1L7.7,6l3,3l-1.9,1.9
	C8.3,11.4,8,12.2,8,13c0,0.8,0.3,1.6,0.9,2.1C9.4,15.7,10.2,16,11,16s1.6-0.3,2.1-0.9L15,13.2z M11.7,13.7l5.9-5.9
	c0.4-0.4,0.4-1,0-1.4l0,0c-0.4-0.4-1-0.4-1.4,0l-5.9,5.9c-0.4,0.4-0.4,1,0,1.4l0,0C10.7,14.1,11.3,14.1,11.7,13.7z"/>
</svg>
