<?xml version="1.0" encoding="utf-8"?>
<!-- Generator: Adobe Illustrator 21.0.2, SVG Export Plug-In . SVG Version: 6.00 Build 0)  -->
<svg version="1.1" id="Paragraph" xmlns="http://www.w3.org/2000/svg" xmlns:xlink="http://www.w3.org/1999/xlink" x="0px" y="0px"
	 viewBox="0 0 32 32" style="enable-background:new 0 0 32 32;" xml:space="preserve">
<style type="text/css">
	.Black{fill:#727272;}
</style>
<path class="Black" d="M30,4H10V2h20V4z M30,6H2v2h28V6z M30,10H2v2h28V10z M10,18H2v2h8V18z M10,14H2v2h8V14z M30,14H18
	c-3.3,0-6,2.7-6,6s2.7,6,6,6v6h4V18h2v14h4V18h2V14z M18,22c-1.1,0-2-0.9-2-2c0-1.1,0.9-2,2-2V22z"/>
</svg>
