<?xml version="1.0" encoding="utf-8"?>
<!-- Generator: Adobe Illustrator 21.0.2, SVG Export Plug-In . SVG Version: 6.00 Build 0)  -->
<svg version="1.1" id="Paste_Special" xmlns="http://www.w3.org/2000/svg" xmlns:xlink="http://www.w3.org/1999/xlink" x="0px"
	 y="0px" viewBox="0 0 32 32" style="enable-background:new 0 0 32 32;" xml:space="preserve">
<style type="text/css">
	.Black{fill:#727272;}
	.Yellow{fill:#FFB115;}
	.Blue{fill:#1177D7;}
</style>
<path class="Yellow" d="M12,24v4H5c-0.6,0-1-0.4-1-1V3c0-0.6,0.4-1,1-1h3v22H12z M25,2h-3v10h4V3C26,2.4,25.6,2,25,2z"/>
<path class="Blue" d="M32,18v-3c0-0.6-0.4-1-1-1H15c-0.6,0-1,0.4-1,1v3H32z"/>
<path class="Black" d="M28,20v2H18v-2H28z M18,26h10v-2H18V26z M30,18v10H16V18h-2v11c0,0.6,0.4,1,1,1h16c0.6,0,1-0.4,1-1V18H30z"/>
<path class="Black" d="M18,2V1c0-0.6-0.4-1-1-1h-4c-0.6,0-1,0.4-1,1v1h-2v3c0,0.6,0.4,1,1,1h2h4h2c0.6,0,1-0.4,1-1V2H18z"/>
</svg>
