<?xml version="1.0" encoding="utf-8"?>
<!-- Generator: Adobe Illustrator 21.0.2, SVG Export Plug-In . SVG Version: 6.00 Build 0)  -->
<svg version="1.1" id="PreviousComment" xmlns="http://www.w3.org/2000/svg" xmlns:xlink="http://www.w3.org/1999/xlink" x="0px"
	 y="0px" viewBox="0 0 32 32" style="enable-background:new 0 0 32 32;" xml:space="preserve">
<style type="text/css">
	.Yellow{fill:#FFB115;}
	.Green{fill:#039C23;}
</style>
<path class="Yellow" d="M25,16c-5,0-9-4-9-9c0-0.3,0-0.7,0.1-1H3C2.4,6,2,6.4,2,7v14c0,0.6,0.4,1,1,1h3v6l6-6h13c0.6,0,1-0.4,1-1
	v-5.1C25.7,16,25.3,16,25,16z"/>
<path class="Green" d="M25,0c-3.9,0-7,3.1-7,7c0,3.9,3.1,7,7,7s7-3.1,7-7C32,3.1,28.9,0,25,0z M26,8v4h-2V8h-3l4-6l4,6H26z"/>
</svg>
