<?xml version="1.0" encoding="utf-8"?>
<!-- Generator: Adobe Illustrator 21.0.2, SVG Export Plug-In . SVG Version: 6.00 Build 0)  -->
<svg version="1.1" id="PrintLayoutView_1_" xmlns="http://www.w3.org/2000/svg" xmlns:xlink="http://www.w3.org/1999/xlink" x="0px"
	 y="0px" viewBox="0 0 32 32" style="enable-background:new 0 0 32 32;" xml:space="preserve">
<style type="text/css">
	.Blue{fill:#1177D7;}
	.Black{fill:#727272;}
</style>
<path class="Black" d="M6,6h14v2H6V6z M12,24H2V2h22v10h2V1c0-0.5-0.5-1-1-1H1C0.5,0,0,0.5,0,1v24c0,0.5,0.5,1,1,1h11V24z M6,12h10
	h4v-2H6V12z M6,20h6c0-0.7,0.2-1.4,0.6-2H6V20z M6,16h10v-2H6V16z"/>
<path id="Print" class="Blue" d="M28,20v-6H18v6h2v-4h6v4H28z M30,18L30,18v3c0,0.6-0.4,1-1,1H17c-0.6,0-1-0.4-1-1v-3l0,0
	c-1.1,0-2,0.9-2,2v8c0,1.1,0.9,2,2,2h2v2h10v-2h2c1.1,0,2-0.9,2-2v-8C32,18.9,31.1,18,30,18z M26,30h-6v-4h6V30z"/>
</svg>
