<?xml version="1.0" encoding="utf-8"?>
<!-- Generator: Adobe Illustrator 21.0.2, SVG Export Plug-In . SVG Version: 6.00 Build 0)  -->
<svg version="1.1" id="ReviewingPane" xmlns="http://www.w3.org/2000/svg" xmlns:xlink="http://www.w3.org/1999/xlink" x="0px"
	 y="0px" viewBox="0 0 32 32" style="enable-background:new 0 0 32 32;" xml:space="preserve">
<style type="text/css">
	.Yellow{fill:#FFB115;}
	.Black{fill:#727272;}
	.st0{opacity:0.5;}
</style>
<g class="st0">
	<path class="Black" d="M29,2H14v10h2V7.3L27.6,15L16,22.7V18h-2v10h15c0.5,0,1-0.5,1-1V3C30,2.5,29.5,2,29,2z"/>
</g>
<path class="Black" d="M8,16h10v3l6-4l-6-4v3H8V16z"/>
<path class="Yellow" d="M6,18v-6h6V2H3C2.5,2,2,2.5,2,3v24c0,0.5,0.5,1,1,1h9V18H6z"/>
</svg>
