<?xml version="1.0" encoding="utf-8"?>
<!-- Generator: Adobe Illustrator 21.0.2, SVG Export Plug-In . SVG Version: 6.00 Build 0)  -->
<svg version="1.1" id="Reviewers" xmlns="http://www.w3.org/2000/svg" xmlns:xlink="http://www.w3.org/1999/xlink" x="0px" y="0px"
	 viewBox="0 0 32 32" style="enable-background:new 0 0 32 32;" xml:space="preserve">
<style type="text/css">
	.Black{fill:#727272;}
	.st0{opacity:0.75;}
</style>
<g class="st0">
	<path class="Black" d="M19.7,7.7c-0.1-0.3-0.3-0.5-0.2-0.9c0-0.1,0.2-0.2,0.3-0.2c-0.7-2.2,0-4.4,2.5-4.6c2.7-0.2,3.2,1.8,3.2,1.8
		s1.4-0.1,0.6,2.9c0.1,0,0.3,0,0.3,0.2c0.1,0.3,0,0.6-0.2,0.9c-0.1,0.3,0.1,1-0.5,1c0,0,0,0.1,0,0.1c-0.3,1.4-1.2,3-2.8,3
		c-1.6,0-2.4-1.6-2.8-3c0,0,0-0.1,0-0.1C19.7,8.7,19.9,8,19.7,7.7z M6.3,8.7c0,0,0,0.1,0,0.1c0.3,1.4,1.2,3,2.8,3
		c1.6,0,2.4-1.6,2.8-3c0,0,0-0.1,0-0.1c0.6,0,0.4-0.7,0.5-1c0.1-0.3,0.2-0.5,0.2-0.9c-0.1-0.2-0.3-0.2-0.3-0.2
		c0.7-2.9-0.6-2.9-0.6-2.9S11,1.8,8.3,2C5.8,2.2,5.1,4.4,5.8,6.6c-0.1,0-0.2,0.1-0.3,0.2C5.4,7.2,5.6,7.4,5.7,7.7
		C5.9,8,5.7,8.7,6.3,8.7z M25.3,11.9c-0.5,0.9-1.2,2.5-2.3,2.5c-0.5,0-0.8-0.3-1.2-0.7c0,0.3,0,0.5-0.1,0.8c0.1,0.1,0.1,0.3,0.1,0.4
		c0.2,0.9,0,1.6-0.2,2c0,0.4-0.1,0.7-0.2,1H30v-0.9C30,12.5,26.7,14,25.3,11.9z M10.4,17c-0.2-0.4-0.5-1.1-0.3-2.1
		c0-0.1,0-0.2,0.1-0.3c0-0.3-0.1-0.5-0.1-0.8c-0.3,0.3-0.7,0.5-1.1,0.5c-1.1,0-1.8-1.6-2.3-2.6C5.4,14.1,2,12.5,2,17.1V18h8.6
		C10.5,17.7,10.4,17.4,10.4,17z"/>
</g>
<path class="Black" d="M12.3,16.4c-0.2-0.3-0.3-0.6-0.3-1c0-0.2,0.2-0.2,0.3-0.2c-0.7-2.5,0-5,2.9-5.2c3-0.2,3.7,2,3.7,2
	s1.6-0.1,0.7,3.2c0.1,0,0.3-0.1,0.4,0.2c0.1,0.4,0,0.6-0.2,1c-0.2,0.3,0.1,1.1-0.6,1.1c0,0,0,0.1,0,0.1C18.8,19.2,17.8,21,16,21
	c-1.8,0-2.8-1.7-3.2-3.4c0,0,0-0.1,0-0.1C12.2,17.6,12.4,16.8,12.3,16.4z M18.7,21.2c-0.5,1-1.4,2.8-2.7,2.8c-1.3,0-2.1-1.8-2.6-2.9
	C11.9,23.6,8,21.8,8,27v1h16v-1C24,21.9,20.2,23.5,18.7,21.2z"/>
</svg>
