<?xml version="1.0" encoding="utf-8"?>
<!-- Generator: Adobe Illustrator 21.0.2, SVG Export Plug-In . SVG Version: 6.00 Build 0)  -->
<svg version="1.1" id="ClearFormatting" xmlns="http://www.w3.org/2000/svg" xmlns:xlink="http://www.w3.org/1999/xlink" x="0px"
	 y="0px" viewBox="0 0 32 32" style="enable-background:new 0 0 32 32;" xml:space="preserve">
<style type="text/css">
	.Blue{fill:#1177D7;}
	.Black{fill:#727272;}
	.Red{fill:#D11C1C;}
</style>
<path class="Black" d="M0.8,5.4c0.3-0.4,0.7-0.8,1.1-1c0.4-0.3,0.9-0.4,1.5-0.6C4,3.6,4.5,3.6,5.1,3.6c0.5,0,1,0,1.6,0.1
	c0.5,0.1,1,0.2,1.4,0.4C8.5,4.3,8.8,4.6,9.1,5c0.3,0.4,0.4,0.9,0.4,1.5v5.3c0,0.5,0,0.9,0.1,1.3c0.1,0.4,0.1,0.7,0.3,0.9H7.1
	C7,13.9,7,13.7,6.9,13.5c0-0.2-0.1-0.3-0.1-0.5c-0.4,0.5-1,0.8-1.6,1c-0.6,0.2-1.2,0.3-1.8,0.3c-0.5,0-0.9-0.1-1.4-0.2
	C1.7,14,1.3,13.8,1,13.5S0.4,13,0.3,12.6C0.1,12.2,0,11.8,0,11.2c0-0.6,0.1-1,0.3-1.4c0.2-0.4,0.5-0.7,0.8-0.9
	c0.3-0.2,0.7-0.4,1.1-0.5C2.6,8.3,3,8.2,3.4,8.2C3.9,8.1,4.3,8,4.7,8c0.4,0,0.8-0.1,1.1-0.2c0.3-0.1,0.6-0.2,0.7-0.3
	c0.2-0.2,0.3-0.4,0.3-0.7c0-0.3,0-0.5-0.1-0.7C6.5,5.9,6.4,5.8,6.2,5.7C6,5.6,5.9,5.5,5.6,5.5c-0.2,0-0.4,0-0.7,0
	c-0.5,0-1,0.1-1.3,0.4C3.3,6,3.2,6.4,3.1,7H0.3C0.4,6.3,0.5,5.8,0.8,5.4z M6.3,9.3C6.1,9.3,5.9,9.4,5.7,9.4c-0.2,0-0.4,0.1-0.6,0.1
	c-0.2,0-0.4,0.1-0.7,0.1C4.2,9.7,4,9.7,3.8,9.8c-0.2,0.1-0.4,0.2-0.5,0.3c-0.2,0.1-0.3,0.3-0.4,0.4c-0.1,0.2-0.1,0.4-0.1,0.6
	c0,0.2,0,0.5,0.1,0.6c0.1,0.2,0.2,0.3,0.4,0.4c0.2,0.1,0.3,0.2,0.5,0.2c0.2,0,0.4,0.1,0.6,0.1c0.5,0,1-0.1,1.3-0.3
	c0.3-0.2,0.5-0.4,0.7-0.7c0.1-0.3,0.2-0.5,0.3-0.8c0-0.3,0-0.5,0-0.6V9C6.6,9.2,6.5,9.2,6.3,9.3z M14.5,0v5.1h0
	c0.3-0.5,0.8-0.9,1.4-1.1c0.6-0.2,1.2-0.4,1.8-0.4c0.5,0,1,0.1,1.5,0.3c0.5,0.2,0.9,0.5,1.3,1c0.4,0.4,0.7,1,1,1.7
	c0.2,0.7,0.4,1.5,0.4,2.4c0,0.9-0.1,1.7-0.4,2.4c-0.2,0.7-0.6,1.2-1,1.7c-0.4,0.4-0.8,0.8-1.3,1c-0.5,0.2-1,0.3-1.5,0.3
	c-0.7,0-1.4-0.1-2-0.4c-0.6-0.2-1-0.6-1.3-1.2h0V14h-2.6V0H14.5z M19,7.7c-0.1-0.4-0.2-0.7-0.4-1c-0.2-0.3-0.4-0.5-0.7-0.7
	c-0.3-0.2-0.7-0.3-1.1-0.3c-0.4,0-0.8,0.1-1.1,0.3c-0.3,0.2-0.5,0.4-0.7,0.7c-0.2,0.3-0.3,0.6-0.4,1c-0.1,0.4-0.1,0.8-0.1,1.2
	c0,0.4,0,0.8,0.1,1.2s0.2,0.7,0.4,1c0.2,0.3,0.4,0.5,0.7,0.7c0.3,0.2,0.7,0.3,1.1,0.3c0.4,0,0.8-0.1,1.1-0.3
	c0.3-0.2,0.5-0.4,0.7-0.7c0.2-0.3,0.3-0.6,0.4-1c0.1-0.4,0.1-0.8,0.1-1.2C19.1,8.5,19.1,8.1,19,7.7z"/>
<path class="Blue" d="M19,17.3L16.3,20c-0.4,0.4-0.4,1.2,0,1.6l4,4c0.4,0.4,1.2,0.4,1.6,0l2.7-2.7L19,17.3z"/>
<path class="Red" d="M31.7,14.4l-4-4c-0.4-0.4-1.2-0.4-1.6,0l-6.1,6.1l5.6,5.6l6.1-6.1C32.1,15.5,32.1,14.8,31.7,14.4z"/>
</svg>
