<?xml version="1.0" encoding="utf-8"?>
<!-- Generator: Adobe Illustrator 21.0.2, SVG Export Plug-In . SVG Version: 6.00 Build 0)  -->
<svg version="1.1" id="RulerHorizontal" xmlns="http://www.w3.org/2000/svg" xmlns:xlink="http://www.w3.org/1999/xlink" x="0px"
	 y="0px" viewBox="0 0 32 32" style="enable-background:new 0 0 32 32;" xml:space="preserve">
<style type="text/css">
	.Black{fill:#727272;}
	.Yellow{fill:#FFB115;}
</style>
<path class="Yellow" d="M29,22H1c-0.6,0-1-0.5-1-1V9c0-0.6,0.4-1,1-1h28c0.5,0,1,0.4,1,1v12C30,21.5,29.5,22,29,22z"/>
<path class="Black" d="M4,22H2v-6h2V22z M8,18H6v4h2V18z M12,16h-2v6h2V16z M16,18h-2v4h2V18z M20,16h-2v6h2V16z M24,18h-2v4h2V18z
	 M28,16h-2v6h2V16z"/>
</svg>
