<?xml version="1.0" encoding="utf-8"?>
<!-- Generator: Adobe Illustrator 22.1.0, SVG Export Plug-In . SVG Version: 6.00 Build 0)  -->
<svg version="1.1" id="Shading" xmlns="http://www.w3.org/2000/svg" xmlns:xlink="http://www.w3.org/1999/xlink" x="0px" y="0px"
	 viewBox="0 0 32 32" style="enable-background:new 0 0 32 32;" xml:space="preserve">
<style type="text/css">
	.Black{fill:#727272;}
	.Blue{fill:#1177D7;}
	.st0{fill:none;}
	.st1{opacity:0.25;}
</style>
<path class="Blue" d="M18,8c2.7,0,5,4.3,5,9.6c0,1.3,1.1,2.4,2.5,2.4s2.5-1.1,2.5-2.4C28,12.3,23.5,8,18,8z"/>
<path class="Black" d="M17,9.3l3,3L13.3,19c-1.4,1.4-3.7,1.4-5.1,0l-5.1-5.1c-1.4-1.4-1.4-3.7,0-5.1L9.7,2l3.1,3l-1.8,1.8
	c-1.2,1.2-1.2,3.1,0,4.2s3.1,1.2,4.2,0L17,9.3z M12.3,9.7c0.4,0.4,1,0.4,1.4,0l6-6c0.4-0.4,0.4-1,0-1.4c-0.4-0.4-1-0.4-1.4,0l-6,6
	C11.9,8.7,11.9,9.3,12.3,9.7z"/>
<rect id="Indicator" y="24" class="st0" width="32" height="8"/>
<g class="st1">
	<path class="Black" d="M0,23.9V32h32v-8.1H0z M30,30H2v-4h28V30z"/>
</g>
</svg>
