<?xml version="1.0" encoding="utf-8"?>
<!-- Generator: Adobe Illustrator 21.0.2, SVG Export Plug-In . SVG Version: 6.00 Build 0)  -->
<svg version="1.1" id="Show_x2F_Hide_Comments" xmlns="http://www.w3.org/2000/svg" xmlns:xlink="http://www.w3.org/1999/xlink"
	 x="0px" y="0px" viewBox="0 0 32 32" style="enable-background:new 0 0 32 32;" xml:space="preserve">
<style type="text/css">
	.Yellow{fill:#FFB115;}
	.Black{fill:#727272;}
</style>
<path class="Yellow" d="M12.1,21.3C12.2,21,15,14,22,14c1.5,0,2.9,0.3,4,0.9V7c0-0.6-0.4-1-1-1H3C2.4,6,2,6.4,2,7v14
	c0,0.6,0.4,1,1,1h3v6l6-6h0C12,21.8,12,21.5,12.1,21.3z"/>
<path class="Black" d="M22,16c5.7,0,8,6,8,6s-2.3,6-8,6c-5.7,0-8-6-8-6S16.3,16,22,16 M22,18c-3.3,0-5.1,2.7-5.8,4
	c0.7,1.3,2.5,4,5.8,4c3.3,0,5.1-2.7,5.8-4C27.1,20.7,25.3,18,22,18L22,18z M22,20c-1.1,0-2,0.9-2,2s0.9,2,2,2c1.1,0,2-0.9,2-2
	S23.1,20,22,20z"/>
</svg>
