<?xml version="1.0" encoding="utf-8"?>
<!-- Generator: Adobe Illustrator 21.0.2, SVG Export Plug-In . SVG Version: 6.00 Build 0)  -->
<svg version="1.1" id="ShowAllFieldResults" xmlns="http://www.w3.org/2000/svg" xmlns:xlink="http://www.w3.org/1999/xlink"
	 x="0px" y="0px" viewBox="0 0 32 32" style="enable-background:new 0 0 32 32;" xml:space="preserve">
<style type="text/css">
	.Black{fill:#727272;}
	.Yellow{fill:#FFB115;}
</style>
<path class="Black" d="M28,24H10v2h18V24z M28,16H10v2h18V16z M16,20h-6v2h6V20z M31,4H7C6.5,4,6,4.5,6,5v26c0,0.5,0.5,1,1,1h24
	c0.5,0,1-0.5,1-1V5C32,4.5,31.5,4,31,4z M30,30H8V6h22V30z"/>
<path class="Yellow" d="M28,22H18v-2h10V22z M24,13V1c0-0.6-0.5-1-1-1H1C0.4,0,0,0.4,0,1v12c0,0.6,0.4,1,1,1h22
	C23.5,14,24,13.6,24,13z"/>
<path class="Black" d="M4.6,5.4c0.2-0.3,0.5-0.6,0.8-0.8c0.3-0.2,0.7-0.3,1.1-0.4C6.9,4.1,7.3,4,7.7,4c0.4,0,0.7,0,1.1,0.1
	c0.4,0.1,0.7,0.2,1,0.3c0.3,0.2,0.6,0.4,0.8,0.7S11,5.8,11,6.2v4c0,0.4,0,0.7,0.1,1c0,0.3,0.1,0.6,0.2,0.7H9.2
	c0-0.1-0.1-0.2-0.1-0.4c0-0.1,0-0.3,0-0.4c-0.3,0.4-0.7,0.6-1.1,0.7c-0.4,0.1-0.9,0.2-1.3,0.2c-0.4,0-0.7,0-1-0.1S5,11.8,4.7,11.6
	c-0.2-0.2-0.4-0.4-0.5-0.7C4.1,10.6,4,10.3,4,9.9c0-0.4,0.1-0.8,0.2-1.1c0.1-0.3,0.3-0.5,0.6-0.7C5,7.9,5.3,7.8,5.6,7.7
	c0.3-0.1,0.6-0.2,0.9-0.2c0.3,0,0.6-0.1,0.9-0.1c0.3,0,0.6-0.1,0.8-0.1C8.4,7.2,8.6,7.1,8.7,7c0.1-0.1,0.2-0.3,0.2-0.5
	c0-0.2,0-0.4-0.1-0.5C8.7,5.8,8.7,5.7,8.5,5.6S8.3,5.5,8.1,5.5c-0.2,0-0.3,0-0.5,0c-0.4,0-0.7,0.1-0.9,0.3C6.4,5.9,6.3,6.2,6.3,6.6
	h-2C4.3,6.1,4.4,5.7,4.6,5.4z M8.6,8.4c-0.1,0-0.3,0.1-0.4,0.1C8,8.5,7.9,8.6,7.7,8.6c-0.2,0-0.3,0-0.5,0.1c-0.2,0-0.3,0.1-0.5,0.1
	C6.6,8.8,6.5,8.9,6.4,9C6.3,9.1,6.2,9.2,6.1,9.3C6.1,9.4,6,9.6,6,9.8c0,0.2,0,0.4,0.1,0.5c0.1,0.1,0.2,0.2,0.3,0.3
	c0.1,0.1,0.2,0.1,0.4,0.2c0.2,0,0.3,0,0.5,0c0.4,0,0.7-0.1,0.9-0.2c0.2-0.1,0.4-0.3,0.5-0.5c0.1-0.2,0.2-0.4,0.2-0.6
	c0-0.2,0-0.4,0-0.5V8.2C8.8,8.3,8.7,8.3,8.6,8.4z M14.6,2v3.2h0c0.2-0.4,0.6-0.7,1-0.9C16,4.1,16.5,4,16.9,4c0.4,0,0.7,0.1,1.1,0.2
	c0.4,0.2,0.7,0.4,1,0.7c0.3,0.3,0.5,0.8,0.7,1.3C19.9,6.8,20,7.4,20,8.1s-0.1,1.3-0.3,1.8c-0.2,0.5-0.4,0.9-0.7,1.3
	c-0.3,0.3-0.6,0.6-1,0.7c-0.4,0.2-0.7,0.2-1.1,0.2c-0.5,0-1-0.1-1.5-0.3c-0.4-0.2-0.8-0.5-1-0.9h0v1h-1.9V2H14.6z M17.9,7.2
	c-0.1-0.3-0.2-0.6-0.3-0.8C17.4,6.2,17.2,6,17,5.8c-0.2-0.1-0.5-0.2-0.8-0.2c-0.3,0-0.6,0.1-0.8,0.2c-0.2,0.1-0.4,0.3-0.5,0.5
	c-0.1,0.2-0.2,0.5-0.3,0.8c-0.1,0.3-0.1,0.6-0.1,0.9c0,0.3,0,0.6,0.1,0.9c0.1,0.3,0.2,0.6,0.3,0.8c0.1,0.2,0.3,0.4,0.5,0.5
	c0.2,0.1,0.5,0.2,0.8,0.2c0.3,0,0.6-0.1,0.8-0.2c0.2-0.1,0.4-0.3,0.5-0.5c0.1-0.2,0.2-0.5,0.3-0.8C17.9,8.8,18,8.4,18,8.1
	C18,7.8,17.9,7.5,17.9,7.2z"/>
</svg>
