<?xml version="1.0" encoding="utf-8"?>
<!-- Generator: Adobe Illustrator 21.0.2, SVG Export Plug-In . SVG Version: 6.00 Build 0)  -->
<svg version="1.1" id="ShowAllFieldCodes" xmlns="http://www.w3.org/2000/svg" xmlns:xlink="http://www.w3.org/1999/xlink" x="0px"
	 y="0px" viewBox="0 0 32 32" style="enable-background:new 0 0 32 32;" xml:space="preserve">
<style type="text/css">
	.Black{fill:#727272;}
	.Yellow{fill:#FFB115;}
</style>
<path class="Black" d="M28,24H10v2h18V24z M28,16H10v2h18V16z M16,20h-6v2h6V20z M31,4H7C6.5,4,6,4.5,6,5v26c0,0.5,0.5,1,1,1h24
	c0.5,0,1-0.5,1-1V5C32,4.5,31.5,4,31,4z M30,30H8V6h22V30z"/>
<path class="Yellow" d="M28,22H18v-2h10V22z M24,13V1c0-0.6-0.5-1-1-1H1C0.4,0,0,0.4,0,1v12c0,0.6,0.4,1,1,1h22
	C23.5,14,24,13.6,24,13z"/>
<path class="Black" d="M19,7.8c0,0-0.1,0-0.1,0c-0.1,0-0.3,0.1-0.4,0.2c-0.1,0.1-0.2,0.2-0.3,0.4C18,8.6,18,8.8,18,9.1v0.7
	c0,0.4-0.1,0.7-0.2,1c-0.1,0.3-0.3,0.5-0.4,0.7c-0.2,0.2-0.4,0.3-0.6,0.4C16.6,12,16.4,12,16.3,12H14v-1.8h1.2c0.2,0,0.3,0,0.4-0.1
	c0.1-0.1,0.2-0.2,0.2-0.3C15.9,9.6,16,9.5,16,9.4c0-0.1,0-0.3,0-0.4V8.8c0-0.4,0.1-0.6,0.2-0.9c0.1-0.2,0.2-0.4,0.4-0.5
	s0.3-0.2,0.5-0.3C17.2,7.1,17.3,7,17.4,7v0c-0.1,0-0.2,0-0.4-0.1c-0.2-0.1-0.3-0.2-0.5-0.3S16.3,6.3,16.2,6S16,5.4,16,5v0
	c0-0.1,0-0.3,0-0.4c0-0.1,0-0.3-0.1-0.4C15.8,4.1,15.7,4,15.6,4c-0.1-0.1-0.2-0.1-0.4-0.1H14V2h2.3c0.2,0,0.3,0,0.5,0.1
	c0.2,0.1,0.4,0.2,0.6,0.4c0.2,0.2,0.3,0.4,0.4,0.7c0.1,0.3,0.2,0.6,0.2,1v0.6c0,0.3,0,0.5,0.1,0.7c0.1,0.2,0.2,0.3,0.3,0.5
	c0.1,0.1,0.3,0.2,0.4,0.2c0,0,0.1,0,0.1,0V7.8z M5,7.8c0,0,0.1,0,0.1,0c0.1,0,0.3,0.1,0.4,0.2c0.1,0.1,0.2,0.2,0.3,0.4
	C6,8.6,6,8.8,6,9.1v0.7c0,0.4,0.1,0.7,0.2,1c0.1,0.3,0.3,0.5,0.4,0.7c0.2,0.2,0.4,0.3,0.6,0.4C7.4,12,7.6,12,7.7,12H10v-1.8H8.8
	c-0.2,0-0.3,0-0.4-0.1C8.3,10,8.2,9.9,8.1,9.8C8.1,9.6,8,9.5,8,9.4C8,9.2,8,9.1,8,9V8.8C8,8.5,7.9,8.2,7.8,8
	C7.7,7.8,7.6,7.6,7.5,7.4S7.2,7.2,7,7.1C6.8,7.1,6.7,7,6.6,7v0c0.1,0,0.2,0,0.4-0.1c0.2-0.1,0.3-0.2,0.5-0.3S7.7,6.3,7.8,6
	S8,5.4,8,5v0c0-0.1,0-0.3,0-0.4c0-0.1,0-0.3,0.1-0.4C8.2,4.1,8.3,4,8.4,4c0.1-0.1,0.2-0.1,0.4-0.1H10V2H7.7C7.6,2,7.4,2,7.2,2.1
	C7,2.2,6.8,2.4,6.6,2.6C6.5,2.7,6.3,3,6.2,3.2C6.1,3.5,6,3.8,6,4.2v0.6c0,0.3,0,0.5-0.1,0.7C5.8,5.7,5.7,5.9,5.5,6
	C5.4,6.1,5.3,6.2,5.1,6.2c0,0-0.1,0-0.1,0V7.8z"/>
</svg>
