<?xml version="1.0" encoding="utf-8"?>
<!-- Generator: Adobe Illustrator 21.0.2, SVG Export Plug-In . SVG Version: 6.00 Build 0)  -->
<svg version="1.1" id="ShowPrevious" xmlns="http://www.w3.org/2000/svg" xmlns:xlink="http://www.w3.org/1999/xlink" x="0px"
	 y="0px" viewBox="0 0 32 32" style="enable-background:new 0 0 32 32;" xml:space="preserve">
<style type="text/css">
	.Green{fill:#039C23;}
	.Black{fill:#727272;}
	.Yellow{fill:#FFB115;}
	.st0{opacity:0.75;}
</style>
<g class="st0">
	<path class="Black" d="M18,14H8v-2h10V14z M18,16H8v2h10V16z M18,20H8v2h10V20z"/>
</g>
<rect x="10" y="4" class="Yellow" width="18" height="6"/>
<path class="Black" d="M20,10v16H6V8h4V6H5C4.5,6,4,6.5,4,7v20c0,0.5,0.5,1,1,1h16c0.5,0,1-0.5,1-1V10H20z"/>
<polygon class="Green" points="30,20 30,32 24,26 "/>
</svg>
