<?xml version="1.0" encoding="utf-8"?>
<!-- Generator: Adobe Illustrator 21.0.2, SVG Export Plug-In . SVG Version: 6.00 Build 0)  -->
<svg version="1.1" id="SpellCheckAsYouType" xmlns="http://www.w3.org/2000/svg" xmlns:xlink="http://www.w3.org/1999/xlink"
	 x="0px" y="0px" viewBox="0 0 32 32" style="enable-background:new 0 0 32 32;" xml:space="preserve">
<style type="text/css">
	.Black{fill:#727272;}
	.Red{fill:#D11C1C;}
</style>
<path class="Red" d="M32,24c-1.4,0-2.2-0.7-2.7-1.3C28.8,22.2,28.6,22,28,22s-0.8,0.2-1.3,0.7C26.2,23.3,25.4,24,24,24
	s-2.2-0.7-2.7-1.3C20.8,22.2,20.6,22,20,22s-0.8,0.2-1.3,0.7C18.2,23.3,17.4,24,16,24s-2.2-0.7-2.7-1.3C12.8,22.2,12.6,22,12,22
	s-0.8,0.2-1.3,0.7C10.2,23.3,9.4,24,8,24s-2.2-0.7-2.7-1.3C4.8,22.2,4.6,22,4,22s-0.8,0.2-1.3,0.7C2.2,23.3,1.4,24,0,24v-2
	c0.6,0,0.8-0.2,1.3-0.7C1.8,20.7,2.6,20,4,20s2.2,0.7,2.7,1.3C7.2,21.8,7.4,22,8,22s0.8-0.2,1.3-0.7C9.8,20.7,10.6,20,12,20
	s2.2,0.7,2.7,1.3c0.5,0.5,0.7,0.7,1.3,0.7s0.8-0.2,1.3-0.7c0.5-0.5,1.3-1.3,2.7-1.3s2.2,0.7,2.7,1.3c0.5,0.5,0.7,0.7,1.3,0.7
	s0.8-0.2,1.3-0.7c0.5-0.5,1.3-1.3,2.7-1.3s2.2,0.7,2.7,1.3c0.5,0.5,0.7,0.7,1.3,0.7V24z"/>
<path class="Black" d="M12.1,18H9.6l-0.7-2.2H5.2L4.5,18H2L5.7,8h2.7L12.1,18z M8.3,14l-1.1-3.3C7.1,10.4,7.1,10.1,7,9.8H7
	c0,0.3-0.1,0.6-0.2,0.9L5.7,14H8.3z M13.3,18l0-10h3.7c1.1,0,2,0.2,2.6,0.6c0.6,0.4,0.9,1,0.9,1.7c0,0.5-0.2,1-0.6,1.4
	c-0.4,0.4-0.8,0.7-1.4,0.8v0c0.7,0.1,1.3,0.3,1.7,0.8c0.4,0.4,0.7,1,0.7,1.6c0,0.9-0.3,1.6-1,2.2c-0.7,0.5-1.6,0.8-2.7,0.8H13.3z
	 M15.6,9.7V12h1c0.5,0,0.8-0.1,1.1-0.3c0.3-0.2,0.4-0.5,0.4-0.9c0-0.7-0.6-1.1-1.7-1.1H15.6z M15.6,13.7v2.6h1.2
	c0.5,0,0.9-0.1,1.2-0.4c0.3-0.2,0.5-0.6,0.5-1c0-0.4-0.1-0.7-0.4-0.9c-0.3-0.2-0.7-0.3-1.2-0.3H15.6z M30,17.6
	c-0.7,0.4-1.7,0.5-2.9,0.5c-1.6,0-2.8-0.4-3.7-1.3c-0.9-0.9-1.3-2.1-1.3-3.6c0-1.6,0.5-2.9,1.5-3.9c1-1,2.3-1.5,3.9-1.5
	c1,0,1.8,0.1,2.5,0.4v2.2c-0.7-0.4-1.5-0.6-2.3-0.6c-1,0-1.7,0.3-2.3,0.9c-0.6,0.6-0.9,1.4-0.9,2.4c0,1,0.3,1.7,0.8,2.3
	c0.6,0.6,1.3,0.9,2.2,0.9c0.9,0,1.7-0.2,2.5-0.6V17.6z"/>
</svg>
