<?xml version="1.0" encoding="utf-8"?>
<!-- Generator: Adobe Illustrator 21.0.2, SVG Export Plug-In . SVG Version: 6.00 Build 0)  -->
<svg version="1.1" id="SpellCheck" xmlns="http://www.w3.org/2000/svg" xmlns:xlink="http://www.w3.org/1999/xlink" x="0px" y="0px"
	 viewBox="0 0 32 32" style="enable-background:new 0 0 32 32;" xml:space="preserve">
<style type="text/css">
	.Black{fill:#727272;}
	.Blue{fill:#1177D7;}
</style>
<polygon class="Blue" points="27,7 12,22 7,17 4,20 12,28 30,10 "/>
<path class="Black" d="M7.9,10H6L5.4,8.2H2.6L2,10h-2L3,2h2.1L7.9,10z M5,6.8L4.1,4.1C4.1,3.9,4,3.7,4,3.4h0c0,0.2-0.1,0.5-0.1,0.7
	L3,6.8H5z M8.9,10V2h2.9c0.9,0,1.6,0.2,2.1,0.5c0.5,0.3,0.7,0.8,0.7,1.4c0,0.4-0.1,0.8-0.4,1.1c-0.3,0.3-0.7,0.5-1.1,0.7v0
	c0.6,0.1,1,0.3,1.4,0.6S15,7.1,15,7.6c0,0.7-0.3,1.3-0.8,1.7C13.6,9.8,12.9,10,12,10H8.9z M10.7,3.3v1.9h0.8c0.4,0,0.7-0.1,0.9-0.3
	s0.3-0.4,0.3-0.7c0-0.6-0.4-0.9-1.3-0.9H10.7z M10.7,6.6v2.1h1c0.4,0,0.7-0.1,1-0.3c0.2-0.2,0.4-0.5,0.4-0.8c0-0.3-0.1-0.6-0.3-0.8
	c-0.2-0.2-0.6-0.3-1-0.3H10.7z M22,9.7c-0.6,0.3-1.3,0.4-2.3,0.4c-1.2,0-2.2-0.4-2.9-1.1c-0.7-0.7-1.1-1.7-1.1-2.9
	c0-1.3,0.4-2.3,1.2-3.1c0.8-0.8,1.8-1.2,3.1-1.2c0.8,0,1.4,0.1,2,0.3v1.7c-0.5-0.3-1.1-0.5-1.8-0.5c-0.8,0-1.4,0.2-1.8,0.7
	c-0.5,0.5-0.7,1.1-0.7,1.9c0,0.8,0.2,1.4,0.7,1.8s1,0.7,1.8,0.7c0.7,0,1.3-0.2,1.9-0.5V9.7z"/>
</svg>
