<?xml version="1.0" encoding="utf-8"?>
<!-- Generator: Adobe Illustrator 21.0.2, SVG Export Plug-In . SVG Version: 6.00 Build 0)  -->
<svg version="1.1" id="SplitTable" xmlns="http://www.w3.org/2000/svg" xmlns:xlink="http://www.w3.org/1999/xlink" x="0px" y="0px"
	 viewBox="0 0 32 32" style="enable-background:new 0 0 32 32;" xml:space="preserve">
<style type="text/css">
	.Black{fill:#727272;}
	.st0{opacity:0.5;}
</style>
<g id="SplitTable_1_" class="st0">
	<path class="Black" d="M10,8H2v6h8V8z M20,8h-8v6h8V8z M30,8h-8v6h8V8z M10,0H2v6h8V0z M20,0h-8v6h8V0z M30,0h-8v6h8V0z M30,18h-8
		v6h8V18z M20,18h-8v6h8V18z M10,18H2v6h8V18z M10,26H2v6h8V26z M20,26h-8v6h8V26z M30,26h-8v6h8V26z"/>
</g>
</svg>
