<?xml version="1.0" encoding="utf-8"?>
<!-- Generator: Adobe Illustrator 21.0.2, SVG Export Plug-In . SVG Version: 6.00 Build 0)  -->
<svg version="1.1" id="Strikeout" xmlns="http://www.w3.org/2000/svg" xmlns:xlink="http://www.w3.org/1999/xlink" x="0px" y="0px"
	 viewBox="0 0 32 32" style="enable-background:new 0 0 32 32;" xml:space="preserve">
<style type="text/css">
	.Black{fill:#727272;}
</style>
<path class="Black" d="M24,14h-6.9c-0.2-0.1-0.4-0.2-0.7-0.4c-0.7-0.3-1.4-0.6-2-0.9c-0.6-0.3-1-0.6-1.4-0.8c-0.4-0.3-0.7-0.6-0.9-1
	c-0.2-0.3-0.3-0.8-0.3-1.2c0-0.5,0.1-0.9,0.4-1.3c0.3-0.4,0.6-0.6,1-0.9c0.4-0.2,0.9-0.4,1.4-0.5c0.5-0.1,1.1-0.1,1.6-0.1
	c2,0,3.5,0.4,4.8,1.3V4.8c-1-0.5-2.7-0.8-5-0.8c-1,0-2,0.1-3,0.3c-1,0.2-1.8,0.6-2.6,1.1C9.8,5.9,9.2,6.5,8.7,7.2C8.2,8,8,8.8,8,9.8
	c0,0.8,0.1,1.5,0.4,2.1c0.3,0.6,0.6,1.1,1.1,1.6c0.1,0.1,0.3,0.3,0.5,0.4H6v2h7.1c0.1,0,0.1,0.1,0.2,0.1c0.7,0.3,1.3,0.6,1.9,0.9
	c0.6,0.3,1.1,0.6,1.6,0.9c0.4,0.3,0.8,0.6,1,1c0.2,0.4,0.4,0.8,0.4,1.3c0,0.9-0.4,1.7-1.1,2.2c-0.7,0.5-1.9,0.7-3.4,0.7
	c-0.4,0-0.9,0-1.4-0.1c-0.5-0.1-1-0.2-1.6-0.4c-0.5-0.2-1-0.4-1.5-0.6c-0.5-0.2-0.9-0.5-1.2-0.8v3.6c0.3,0.2,0.7,0.4,1.2,0.5
	c0.5,0.1,1,0.3,1.6,0.4c0.6,0.1,1.1,0.2,1.6,0.2c0.5,0.1,1,0.1,1.4,0.1c1.1,0,2.1-0.1,3.1-0.3c1-0.2,1.9-0.5,2.6-1
	c0.8-0.5,1.4-1.1,1.8-1.8c0.4-0.7,0.7-1.7,0.7-2.7c0-0.8-0.2-1.5-0.5-2.1c-0.3-0.6-0.7-1.2-1.2-1.7c-0.1-0.1-0.2-0.2-0.3-0.3h4V14z"
	/>
</svg>
