<?xml version="1.0" encoding="utf-8"?>
<!-- Generator: Adobe Illustrator 21.0.2, SVG Export Plug-In . SVG Version: 6.00 Build 0)  -->
<svg version="1.1" id="Superscript" xmlns="http://www.w3.org/2000/svg" xmlns:xlink="http://www.w3.org/1999/xlink" x="0px"
	 y="0px" viewBox="0 0 32 32" style="enable-background:new 0 0 32 32;" xml:space="preserve">
<style type="text/css">
	.Red{fill:#D11C1C;}
	.Black{fill:#727272;}
</style>
<path class="Black" d="M2.6,6h5.4l4.1,7l4.3-7h5.1l-6.8,10.5L22,28h-5.5l-4.6-7.6L7.2,28H2l7.3-11.5L2.6,6z"/>
<path class="Red" d="M25.2,2.4c0.1-0.5,0.4-0.9,0.7-1.3c0.3-0.4,0.7-0.6,1.1-0.8S28,0,28.6,0c0.4,0,0.9,0.1,1.3,0.2
	c0.4,0.1,0.8,0.3,1.1,0.6c0.3,0.3,0.6,0.6,0.7,1c0.2,0.4,0.3,0.8,0.3,1.3c0,0.5-0.1,0.9-0.2,1.3c-0.2,0.4-0.4,0.7-0.6,0.9
	c-0.3,0.3-0.6,0.5-0.9,0.7c-0.3,0.2-0.7,0.4-1,0.7c-0.3,0.2-0.7,0.5-1,0.7c-0.3,0.3-0.6,0.5-0.8,0.9H32V10h-7.2
	c0-0.6,0.1-1.1,0.2-1.5c0.2-0.4,0.4-0.8,0.7-1.1c0.3-0.3,0.6-0.6,1-0.9c0.4-0.3,0.8-0.6,1.2-0.9c0.2-0.1,0.4-0.3,0.7-0.5
	C28.8,5,29,4.8,29.2,4.6c0.2-0.2,0.4-0.4,0.5-0.6C29.9,3.8,30,3.5,30,3.2c0-0.5-0.1-0.8-0.4-1.1c-0.3-0.3-0.6-0.4-1.1-0.4
	c-0.3,0-0.5,0.1-0.7,0.2c-0.2,0.1-0.4,0.3-0.5,0.5c-0.1,0.2-0.2,0.5-0.3,0.7C27,3.4,26.9,3.7,26.9,4H25C25,3.4,25.1,2.9,25.2,2.4z"
	/>
</svg>
