<?xml version="1.0" encoding="utf-8"?>
<!-- Generator: Adobe Illustrator 21.0.2, SVG Export Plug-In . SVG Version: 6.00 Build 0)  -->
<svg version="1.1" id="Symbol" xmlns="http://www.w3.org/2000/svg" xmlns:xlink="http://www.w3.org/1999/xlink" x="0px" y="0px"
	 viewBox="0 0 32 32" style="enable-background:new 0 0 32 32;" xml:space="preserve">
<style type="text/css">
	.Blue{fill:#1177D7;}
</style>
<path class="Blue" d="M28,14c0-6.6-5.4-12-12-12C9.4,2,4,7.4,4,14c0,2.9,2.3,6.7,4.8,10H4v4h8.2H14v-4v-0.1c-2.4-2.6-6-7-6-9.9
	c0-4.4,3.6-8,8-8c4.4,0,8,3.6,8,8c0,3-3.6,7.4-6,9.9V24v4h1.8H28v-4h-4.8C25.7,20.7,28,16.9,28,14z"/>
</svg>
