<?xml version="1.0" encoding="utf-8"?>
<!-- Generator: Adobe Illustrator 21.0.2, SVG Export Plug-In . SVG Version: 6.00 Build 0)  -->
<svg version="1.1" id="TableFixedColumnWidth" xmlns="http://www.w3.org/2000/svg" xmlns:xlink="http://www.w3.org/1999/xlink"
	 x="0px" y="0px" viewBox="0 0 32 32" style="enable-background:new 0 0 32 32;" xml:space="preserve">
<style type="text/css">
	.Black{fill:#727272;}
	.Blue{fill:#1177D7;}
	.st0{opacity:0.5;}
</style>
<path class="Blue" d="M10,22H2v-6h8V22z M20,16h-8v6h8V16z M30,16h-8v6h8V16z"/>
<g class="st0">
	<path class="Black" d="M10,30H2v-6h8V30z M20,24h-8v6h8V24z M30,24h-8v6h8V24z M4,8h4v2H4v4H2v-4V8V4h2V8z M28,4v4h-4v2h4v4h2v-4V8
		V4H28z"/>
</g>
<path class="Black" d="M21,6h-1V3c0-1.7-1.3-3-3-3h-2c-1.7,0-3,1.3-3,3v3h-1c-0.6,0-1,0.4-1,1v6c0,0.6,0.4,1,1,1h10c0.6,0,1-0.4,1-1
	V7C22,6.4,21.6,6,21,6z M14,3c0-0.6,0.4-1,1-1h2c0.6,0,1,0.4,1,1v3h-4V3z"/>
</svg>
