<?xml version="1.0" encoding="utf-8"?>
<!-- Generator: Adobe Illustrator 21.0.2, SVG Export Plug-In . SVG Version: 6.00 Build 0)  -->
<svg version="1.1" id="TableAutoFitContents" xmlns="http://www.w3.org/2000/svg" xmlns:xlink="http://www.w3.org/1999/xlink"
	 x="0px" y="0px" viewBox="0 0 32 32" style="enable-background:new 0 0 32 32;" xml:space="preserve">
<style type="text/css">
	.Black{fill:#727272;}
	.Blue{fill:#1177D7;}
	.st0{opacity:0.5;}
</style>
<path class="Blue" d="M10,22H2v-6h8V22z M20,16h-8v6h8V16z M30,16h-8v6h8V16z"/>
<g class="st0">
	<path class="Black" d="M10,30H2v-6h8V30z M20,24h-8v6h8V24z M30,24h-8v6h8V24z M4,8h4v2H4v4H2v-4V8V4h2V8z M28,4v4h-4v2h4v4h2v-4V8
		V4H28z"/>
</g>
<polygon class="Black" points="20.7,4.7 22,6 22,2 18,2 19.3,3.3 16,6.6 12.7,3.3 14,2 10,2 10,6 11.3,4.7 14.6,8 11.3,11.3 10,10 
	10,14 14,14 12.7,12.7 16,9.4 19.3,12.7 18,14 22,14 22,10 20.7,11.3 17.4,8 "/>
</svg>
