<?xml version="1.0" encoding="utf-8"?>
<!-- Generator: Adobe Illustrator 21.0.2, SVG Export Plug-In . SVG Version: 6.00 Build 0)  -->
<svg version="1.1" id="TableAutoFitWindow" xmlns="http://www.w3.org/2000/svg" xmlns:xlink="http://www.w3.org/1999/xlink" x="0px"
	 y="0px" viewBox="0 0 32 32" style="enable-background:new 0 0 32 32;" xml:space="preserve">
<style type="text/css">
	.Black{fill:#727272;}
	.Blue{fill:#1177D7;}
	.st0{opacity:0.5;}
</style>
<path class="Blue" d="M10,22H2v-6h8V22z M20,16h-8v6h8V16z M30,16h-8v6h8V16z"/>
<g class="st0">
	<path class="Black" d="M10,30H2v-6h8V30z M20,24h-8v6h8V24z M30,24h-8v6h8V24z M4,8h4v2H4v4H2v-4V8V4h2V8z M28,4v4h-4v2h4v4h2v-4V8
		V4H28z"/>
</g>
<path class="Black" d="M12.6,9.1c-0.8,0-1.4-0.2-1.9-0.7C10.2,8,10,7.4,10,6.6c0-0.8,0.2-1.5,0.7-1.9c0.5-0.5,1.2-0.7,2-0.7
	c0.8,0,1.4,0.2,1.9,0.6c0.4,0.4,0.7,1,0.7,1.8c0,0.8-0.2,1.4-0.7,1.9C14,8.8,13.4,9.1,12.6,9.1z M20,4l-6.2,10H12l6.2-10H20z
	 M12.7,5.2c-0.7,0-1.1,0.5-1.1,1.4c0,0.9,0.3,1.3,1,1.3c0.7,0,1.1-0.5,1.1-1.4C13.7,5.6,13.4,5.2,12.7,5.2z M19.3,14
	c-0.8,0-1.4-0.2-1.9-0.7c-0.5-0.4-0.7-1-0.7-1.8c0-0.8,0.2-1.5,0.7-1.9s1.2-0.7,2-0.7c0.8,0,1.4,0.2,1.9,0.6s0.7,1,0.7,1.8
	c0,0.8-0.2,1.4-0.7,1.9S20.1,14,19.3,14z M19.4,10.1c-0.7,0-1.1,0.5-1.1,1.4c0,0.9,0.4,1.3,1.1,1.3c0.7,0,1.1-0.5,1.1-1.4
	c0-0.4-0.1-0.7-0.3-1C20,10.2,19.7,10.1,19.4,10.1z"/>
</svg>
