<?xml version="1.0" encoding="utf-8"?>
<!-- Generator: Adobe Illustrator 21.0.2, SVG Export Plug-In . SVG Version: 6.00 Build 0)  -->
<svg version="1.1" id="TableProperties" xmlns="http://www.w3.org/2000/svg" xmlns:xlink="http://www.w3.org/1999/xlink" x="0px"
	 y="0px" viewBox="0 0 32 32" style="enable-background:new 0 0 32 32;" xml:space="preserve">
<style type="text/css">
	.Black{fill:#727272;}
	.Blue{fill:#1177D7;}
	.Yellow{fill:#FFB115;}
	.st0{opacity:0.5;}
</style>
<g class="st0">
	<path class="Black" d="M10,18.1V22H2v-6h4.2c0.2,0.5,0.4,0.9,0.7,1.2c0.6,0.6,1.4,0.9,2.3,0.9C9.5,18.2,9.8,18.1,10,18.1z M12,30h8
		v-6h-8V30z M2,30h8v-6H2V30z M27.3,16l-3,3c-0.6,0.6-1.4,1-2.3,1v2h8v-6h-1H27.3z M22,30h8v-6h-8V30z M19.6,19
		c-0.4-0.4-0.7-1-0.9-1.5c-0.6-0.1-1.1-0.4-1.5-0.9c-0.2-0.2-0.3-0.4-0.5-0.6h-3.9L12,16.8V22h8v-2.7C19.9,19.2,19.7,19.1,19.6,19z"
		/>
</g>
<path class="Yellow" d="M29,2h-7v0c-1,0-2,0.4-2.8,1.1L16,6.4L8.4,14c-0.5,0.5-0.5,1.3,0,1.8c0.5,0.5,1.3,0.5,1.8,0l7.7-7.7
	c0.6-0.6,1.2,0,0.6,0.6L16.2,11c-0.5,0.5-0.5,1.3,0,1.8c0.5,0.5,1.3,0.5,1.8,0l2.3-2.3c0.6-0.6,1.2,0,0.6,0.6l-2.3,2.3
	c-0.5,0.5-0.5,1.3,0,1.8s1.3,0.5,1.8,0l2.3-2.3c0.6-0.6,1.2,0,0.6,0.6L21,15.8c-0.5,0.5-0.5,1.3,0,1.8c0.5,0.5,1.3,0.5,1.8,0
	l3.6-3.6H29c1.7,0,3-1.4,3-3V5C32,3.3,30.7,2,29,2z"/>
<path class="Blue" d="M6.9,12.6L10,9.5V8H2v6h4.1C6.3,13.5,6.6,13,6.9,12.6z"/>
</svg>
