<?xml version="1.0" encoding="utf-8"?>
<!-- Generator: Adobe Illustrator 21.0.2, SVG Export Plug-In . SVG Version: 6.00 Build 0)  -->
<svg version="1.1" id="TextWrapTight" xmlns="http://www.w3.org/2000/svg" xmlns:xlink="http://www.w3.org/1999/xlink" x="0px"
	 y="0px" viewBox="0 0 32 32" style="enable-background:new 0 0 32 32;" xml:space="preserve">
<style type="text/css">
	.Black{fill:#727272;}
	.Blue{fill:#1177D7;}
</style>
<path class="Black" d="M31,0H1C0.5,0,0,0.5,0,1v28c0,0.5,0.5,1,1,1h30c0.5,0,1-0.5,1-1V1C32,0.5,31.5,0,31,0z M30,28H2V2h28V28z
	 M8,22H4v-2h4V22z M8,16H4v2h4V16z M6,8H4v2h2V8z M4,26h24v-2H4V26z M6,12H4v2h2V12z M4,4v2h24V4H4z M24,22h4v-2h-4V22z M26,10h2V8
	h-2V10z M26,14h2v-2h-2V14z M24,18h4v-2h-4V18z"/>
<path class="Blue" d="M20.1,16.2C21.8,14.5,24,11.6,24,8c-6,0-8,6-8,6s-2-6-8-6c0,3.6,2.2,6.5,3.9,8.2C10.8,16.7,10,17.7,10,19
	c0,1.7,1.3,3,3,3s3-1.3,3-3c0,1.7,1.3,3,3,3s3-1.3,3-3C22,17.7,21.2,16.7,20.1,16.2z"/>
</svg>
