<?xml version="1.0" encoding="utf-8"?>
<!-- Generator: Adobe Illustrator 21.0.2, SVG Export Plug-In . SVG Version: 6.00 Build 0)  -->
<svg version="1.1" id="TextWrapThrough" xmlns="http://www.w3.org/2000/svg" xmlns:xlink="http://www.w3.org/1999/xlink" x="0px"
	 y="0px" viewBox="0 0 32 32" style="enable-background:new 0 0 32 32;" xml:space="preserve">
<style type="text/css">
	.Black{fill:#727272;}
	.Blue{fill:#1177D7;}
</style>
<path class="Black" d="M6,6H4V4h24v2h-2h-2H8H6z M26,14h2v-2h-2V14z M24,18h4v-2h-4V18z M16,10c0.5-0.7,1.2-1.4,2-2h-4
	C14.8,8.6,15.5,9.3,16,10z M24,22h4v-2h-4V22z M26,10h2V8h-2V10z M8,20H4v2h4V20z M28,24H4v2h24V24z M6,8H4v2h2V8z M32,1v28
	c0,0.5-0.5,1-1,1H1c-0.5,0-1-0.5-1-1V1c0-0.5,0.5-1,1-1h30C31.5,0,32,0.5,32,1z M30,2H2v26h28V2z M8,16H4v2h4V16z M6,12H4v2h2V12z"
	/>
<path class="Blue" d="M20.1,16.2C21.8,14.5,24,11.6,24,8c-6,0-8,6-8,6s-2-6-8-6c0,3.6,2.2,6.5,3.9,8.2C10.8,16.7,10,17.7,10,19
	c0,1.7,1.3,3,3,3s3-1.3,3-3c0,1.7,1.3,3,3,3s3-1.3,3-3C22,17.7,21.2,16.7,20.1,16.2z"/>
</svg>
