<?xml version="1.0" encoding="utf-8"?>
<!-- Generator: Adobe Illustrator 21.1.0, SVG Export Plug-In . SVG Version: 6.00 Build 0)  -->
<svg version="1.1" id="TextWrapThrough" xmlns="http://www.w3.org/2000/svg" xmlns:xlink="http://www.w3.org/1999/xlink" x="0px"
	 y="0px" viewBox="0 0 32 32" style="enable-background:new 0 0 32 32;" xml:space="preserve">
<style type="text/css">
	.Black{fill:#727272;}
	.Blue{fill:#1177D7;}
</style>
<path class="Blue" d="M16.1,16.2C17.8,14.5,20,11.6,20,8c-6,0-8,6-8,6s-2-6-8-6c0,3.6,2.2,6.5,3.9,8.2C6.8,16.7,6,17.7,6,19
	c0,1.7,1.3,3,3,3s3-1.3,3-3c0,1.7,1.3,3,3,3s3-1.3,3-3C18,17.7,17.2,16.7,16.1,16.2z"/>
<path class="Black" d="M31,0H1C0.4,0,0,0.4,0,1v28c0,0.6,0.4,1,1,1h30c0.6,0,1-0.4,1-1V1C32,0.4,31.6,0,31,0z M30,28H2V2h28V28z"/>
<rect x="4" y="4" class="Black" width="24" height="2"/>
<rect x="4" y="24" class="Black" width="24" height="2"/>
<rect x="20" y="20" class="Black" width="8" height="2"/>
</svg>
