<?xml version="1.0" encoding="utf-8"?>
<!-- Generator: Adobe Illustrator 21.0.2, SVG Export Plug-In . SVG Version: 6.00 Build 0)  -->
<svg version="1.1" id="ToggleFieldCodes" xmlns="http://www.w3.org/2000/svg" xmlns:xlink="http://www.w3.org/1999/xlink" x="0px"
	 y="0px" viewBox="0 0 32 32" style="enable-background:new 0 0 32 32;" xml:space="preserve">
<style type="text/css">
	.Black{fill:#727272;}
	.Yellow{fill:#FFB115;}
	.st0{opacity:0.75;}
</style>
<path class="Yellow" d="M32,31V15c0-0.6-0.5-1-1-1H9c-0.6,0-1,0.4-1,1v16c0,0.5,0.4,1,1,1h22C31.5,32,32,31.5,32,31z"/>
<g class="st0">
	<path class="Yellow" d="M24,17V1c0-0.6-0.5-1-1-1H1C0.4,0,0,0.4,0,1v16c0,0.5,0.4,1,1,1h22C23.5,18,24,17.5,24,17z"/>
</g>
<path class="Black" d="M12.6,21.4c0.2-0.3,0.5-0.6,0.8-0.8c0.3-0.2,0.7-0.3,1.1-0.4c0.4-0.1,0.8-0.1,1.2-0.1c0.4,0,0.7,0,1.1,0.1
	c0.4,0.1,0.7,0.2,1,0.3c0.3,0.2,0.6,0.4,0.8,0.7c0.2,0.3,0.3,0.7,0.3,1.1v4c0,0.4,0,0.7,0.1,1c0,0.3,0.1,0.6,0.2,0.7h-2.1
	c0-0.1-0.1-0.2-0.1-0.4c0-0.1,0-0.3,0-0.4c-0.3,0.4-0.7,0.6-1.1,0.7c-0.4,0.1-0.9,0.2-1.3,0.2c-0.4,0-0.7,0-1-0.1
	c-0.3-0.1-0.6-0.2-0.8-0.4c-0.2-0.2-0.4-0.4-0.5-0.7s-0.2-0.6-0.2-1c0-0.4,0.1-0.8,0.2-1.1c0.1-0.3,0.3-0.5,0.6-0.7s0.5-0.3,0.8-0.4
	c0.3-0.1,0.6-0.2,0.9-0.2c0.3,0,0.6-0.1,0.9-0.1c0.3,0,0.6-0.1,0.8-0.1c0.2-0.1,0.4-0.1,0.5-0.3c0.1-0.1,0.2-0.3,0.2-0.5
	c0-0.2,0-0.4-0.1-0.5c-0.1-0.1-0.2-0.2-0.3-0.3c-0.1-0.1-0.3-0.1-0.4-0.1c-0.2,0-0.3,0-0.5,0c-0.4,0-0.7,0.1-0.9,0.3
	c-0.2,0.2-0.4,0.5-0.4,0.9h-2C12.3,22.1,12.4,21.7,12.6,21.4z M16.6,24.4c-0.1,0-0.3,0.1-0.4,0.1c-0.1,0-0.3,0.1-0.5,0.1
	c-0.2,0-0.3,0-0.5,0.1c-0.2,0-0.3,0.1-0.5,0.1c-0.1,0.1-0.3,0.1-0.4,0.2c-0.1,0.1-0.2,0.2-0.3,0.3c-0.1,0.1-0.1,0.3-0.1,0.5
	c0,0.2,0,0.4,0.1,0.5c0.1,0.1,0.2,0.2,0.3,0.3c0.1,0.1,0.2,0.1,0.4,0.2c0.2,0,0.3,0,0.5,0c0.4,0,0.7-0.1,0.9-0.2
	c0.2-0.1,0.4-0.3,0.5-0.5c0.1-0.2,0.2-0.4,0.2-0.6c0-0.2,0-0.4,0-0.5v-0.8C16.8,24.3,16.7,24.3,16.6,24.4z M22.6,18v3.2h0
	c0.2-0.4,0.6-0.7,1-0.9c0.4-0.2,0.9-0.3,1.3-0.3c0.4,0,0.7,0.1,1.1,0.2c0.4,0.2,0.7,0.4,1,0.7c0.3,0.3,0.5,0.8,0.7,1.3
	c0.2,0.5,0.3,1.1,0.3,1.8s-0.1,1.3-0.3,1.8c-0.2,0.5-0.4,0.9-0.7,1.3c-0.3,0.3-0.6,0.6-1,0.7c-0.4,0.2-0.7,0.2-1.1,0.2
	c-0.5,0-1-0.1-1.5-0.3c-0.4-0.2-0.8-0.5-1-0.9h0v1h-1.9V18H22.6z M25.9,23.2c-0.1-0.3-0.2-0.6-0.3-0.8c-0.1-0.2-0.3-0.4-0.5-0.5
	c-0.2-0.1-0.5-0.2-0.8-0.2c-0.3,0-0.6,0.1-0.8,0.2c-0.2,0.1-0.4,0.3-0.5,0.5c-0.1,0.2-0.2,0.5-0.3,0.8c-0.1,0.3-0.1,0.6-0.1,0.9
	c0,0.3,0,0.6,0.1,0.9c0.1,0.3,0.2,0.6,0.3,0.8c0.1,0.2,0.3,0.4,0.5,0.5c0.2,0.1,0.5,0.2,0.8,0.2c0.3,0,0.6-0.1,0.8-0.2
	c0.2-0.1,0.4-0.3,0.5-0.5c0.1-0.2,0.2-0.5,0.3-0.8c0.1-0.3,0.1-0.6,0.1-0.9C26,23.8,25.9,23.5,25.9,23.2z M19,9.8c0,0-0.1,0-0.1,0
	c-0.1,0-0.3,0.1-0.4,0.2c-0.1,0.1-0.2,0.2-0.3,0.4C18,10.6,18,10.8,18,11.1v0.7c0,0.4-0.1,0.7-0.2,1c-0.1,0.3-0.3,0.5-0.4,0.7
	c-0.2,0.2-0.4,0.3-0.6,0.4C16.6,14,16.4,14,16.3,14H14v-1.8h1.2c0.2,0,0.3,0,0.4-0.1c0.1-0.1,0.2-0.2,0.2-0.3
	c0.1-0.1,0.1-0.2,0.1-0.4c0-0.1,0-0.3,0-0.4v-0.1c0-0.4,0.1-0.6,0.2-0.9c0.1-0.2,0.2-0.4,0.4-0.5s0.3-0.2,0.5-0.3
	C17.2,9.1,17.3,9,17.4,9v0c-0.1,0-0.2,0-0.4-0.1c-0.2-0.1-0.3-0.2-0.5-0.3S16.3,8.3,16.2,8S16,7.4,16,7v0c0-0.1,0-0.3,0-0.4
	c0-0.1,0-0.3-0.1-0.4C15.8,6.1,15.7,6,15.6,6c-0.1-0.1-0.2-0.1-0.4-0.1H14V4h2.3c0.2,0,0.3,0,0.5,0.1c0.2,0.1,0.4,0.2,0.6,0.4
	c0.2,0.2,0.3,0.4,0.4,0.7c0.1,0.3,0.2,0.6,0.2,1v0.6c0,0.3,0,0.5,0.1,0.7c0.1,0.2,0.2,0.3,0.3,0.5c0.1,0.1,0.3,0.2,0.4,0.2
	c0,0,0.1,0,0.1,0V9.8z M5,9.8c0,0,0.1,0,0.1,0c0.1,0,0.3,0.1,0.4,0.2c0.1,0.1,0.2,0.2,0.3,0.4C6,10.6,6,10.8,6,11.1v0.7
	c0,0.4,0.1,0.7,0.2,1c0.1,0.3,0.3,0.5,0.4,0.7c0.2,0.2,0.4,0.3,0.6,0.4C7.4,14,7.6,14,7.7,14H10v-1.8H8.8c-0.2,0-0.3,0-0.4-0.1
	c-0.1-0.1-0.2-0.2-0.2-0.3C8.1,11.6,8,11.5,8,11.4c0-0.1,0-0.3,0-0.4v-0.1c0-0.4-0.1-0.6-0.2-0.9C7.7,9.8,7.6,9.6,7.5,9.4
	S7.2,9.2,7,9.1C6.8,9.1,6.7,9,6.6,9v0c0.1,0,0.2,0,0.4-0.1c0.2-0.1,0.3-0.2,0.5-0.3S7.7,8.3,7.8,8S8,7.4,8,7v0c0-0.1,0-0.3,0-0.4
	c0-0.1,0-0.3,0.1-0.4C8.2,6.1,8.3,6,8.4,6c0.1-0.1,0.2-0.1,0.4-0.1H10V4H7.7C7.6,4,7.4,4,7.2,4.1C7,4.2,6.8,4.4,6.6,4.6
	C6.5,4.7,6.3,5,6.2,5.2C6.1,5.5,6,5.8,6,6.2v0.6c0,0.3,0,0.5-0.1,0.7C5.8,7.7,5.7,7.9,5.5,8C5.4,8.1,5.3,8.2,5.1,8.2
	c0,0-0.1,0-0.1,0V9.8z"/>
</svg>
