<?xml version="1.0" encoding="utf-8"?>
<!-- Generator: Adobe Illustrator 21.0.2, SVG Export Plug-In . SVG Version: 6.00 Build 0)  -->
<svg version="1.1" id="UnprotectDocument" xmlns="http://www.w3.org/2000/svg" xmlns:xlink="http://www.w3.org/1999/xlink" x="0px"
	 y="0px" viewBox="0 0 32 32" style="enable-background:new 0 0 32 32;" xml:space="preserve">
<style type="text/css">
	.Yellow{fill:#FFB115;}
	.Black{fill:#727272;}
	.Red{fill:#D11C1C;}
</style>
<path class="Yellow" d="M31,24h-1v-3c0-1.7-1.3-3-3-3h-2c-1.7,0-3,1.3-3,3v3h-1c-0.6,0-1,0.4-1,1v6c0,0.6,0.4,1,1,1h10
	c0.6,0,1-0.4,1-1v-6C32,24.4,31.6,24,31,24z M24,21c0-0.6,0.4-1,1-1h2c0.6,0,1,0.4,1,1v3h-4V21z"/>
<path class="Black" d="M10,18h11c-0.4,0.6-0.8,1.3-0.9,2H10V18z M10,24h8.2c0.3-0.9,1-1.5,1.8-1.8V22H10V24z M6,10.8l-2,2V29
	c0,0.6,0.4,1,1,1h13v-2H6V10.8z M27,4H12.8l-2,2H26v10h1c0.3,0,0.7,0,1,0.1V5C28,4.4,27.6,4,27,4z M10,14v2h12v-2H10z M12.8,12H22
	v-2h-7.2L12.8,12z"/>
<polygon class="Red" points="12,2 10,0 6,4 2,0 0,2 4,6 0,10 2,12 6,8 10,12 12,10 8,6 "/>
</svg>
