<?xml version="1.0" encoding="utf-8"?>
<!-- Generator: Adobe Illustrator 21.0.2, SVG Export Plug-In . SVG Version: 6.00 Build 0)  -->
<svg version="1.1" id="UpdateTableOfContents" xmlns="http://www.w3.org/2000/svg" xmlns:xlink="http://www.w3.org/1999/xlink"
	 x="0px" y="0px" viewBox="0 0 32 32" style="enable-background:new 0 0 32 32;" xml:space="preserve">
<style type="text/css">
	.Black{fill:#727272;}
	.Blue{fill:#1177D7;}
	.Green{fill:#039C23;}
	.st0{opacity:0.5;}
</style>
<g class="st0">
	<path class="Black" d="M20,8h-2V6h2V8z M20,10h-2v2h2V10z M20,14h-2v2h2V14z M16,8h-2V6h2V8z M16,10h-2v2h2V10z M16,18h-2v2h2V18z
		 M16,22h-2v2h2V22z M16,14h-2v2h2V14z"/>
</g>
<path class="Blue" d="M24,8h-2V6h2V8z M24,10h-2v2h2V10z M24,14h-2v2h2V14z"/>
<path class="Black" d="M12,8H6V6h6V8z M12,18H6v2h6V18z M16,28H4V2h22v14.1c0.7,0.1,1.4,0.2,2,0.5V1c0-0.6-0.4-1-1-1H3
	C2.4,0,2,0.4,2,1v28c0,0.6,0.4,1,1,1h13V28z M6,24h6v-2H6V24z M12,10H6v2h6V10z M12,14H6v2h6V14z"/>
<path class="Green" d="M32,18v6h-0.1h-2H26l2.5-2.5C27.6,20.6,26.4,20,25,20c-2.4,0-4.4,1.7-4.9,4h-2c0.5-3.4,3.4-6,6.9-6
	c1.9,0,3.7,0.8,4.9,2.1L32,18z M25,30c-1.4,0-2.6-0.6-3.5-1.5L24,26h-3.9h-2H18v6l2.1-2.1c1.3,1.3,3,2.1,4.9,2.1
	c3.5,0,6.4-2.6,6.9-6h-2C29.4,28.3,27.4,30,25,30z"/>
</svg>
