<?xml version="1.0" encoding="utf-8"?>
<!-- Generator: Adobe Illustrator 21.0.2, SVG Export Plug-In . SVG Version: 6.00 Build 0)  -->
<svg version="1.1" id="ViewMergedData" xmlns="http://www.w3.org/2000/svg" xmlns:xlink="http://www.w3.org/1999/xlink" x="0px"
	 y="0px" viewBox="0 0 32 32" style="enable-background:new 0 0 32 32;" xml:space="preserve">
<style type="text/css">
	.Black{fill:#727272;}
	.Blue{fill:#1177D7;}
	.Yellow{fill:#FFB115;}
</style>
<path class="Black" d="M6,6h18v2H6V6z M21.4,28H4V2h22v21.4l2,2V1c0-0.5-0.5-1-1-1H3C2.5,0,2,0.5,2,1v28c0,0.5,0.5,1,1,1h20.4
	L21.4,28z M12,14H6v2h6V14z M10,18H6v2h4V18z M10,22H6v2h4V22z"/>
<rect x="6" y="10" class="Yellow" width="18" height="2"/>
<path class="Blue" d="M27.6,27.9L23,23.3c0.6-0.9,1-2.1,1-3.3c0-3.3-2.7-6-6-6c-3.3,0-6,2.7-6,6s2.7,6,6,6c1.2,0,2.3-0.4,3.3-1
	l4.6,4.6c0.5,0.5,1.3,0.5,1.7,0C28.1,29.2,28.1,28.4,27.6,27.9z M18,24c-2.2,0-4-1.8-4-4c0-2.2,1.8-4,4-4s4,1.8,4,4
	C22,22.2,20.2,24,18,24z"/>
</svg>
