<?xml version="1.0" encoding="utf-8"?>
<!-- Generator: Adobe Illustrator 21.0.2, SVG Export Plug-In . SVG Version: 6.00 Build 0)  -->
<svg version="1.1" id="ViewTableGridlines" xmlns="http://www.w3.org/2000/svg" xmlns:xlink="http://www.w3.org/1999/xlink" x="0px"
	 y="0px" viewBox="0 0 32 32" style="enable-background:new 0 0 32 32;" xml:space="preserve">
<style type="text/css">
	.Black{fill:#727272;}
</style>
<g>
	<path class="Black" d="M8,10H6v2h2V10z M16,10h-2v2h2V10z M24,10h-2v2h2V10z M8,18H6v2h2V18z M16,18h-2v2h2V18z M24,18h-2v2h2V18z
		 M12,6h-2v2h2V6z M12,10h-2v2h2V10z M12,14h-2v2h2V14z M12,18h-2v2h2V18z M12,22h-2v2h2V22z M20,6h-2v2h2V6z M20,10h-2v2h2V10z
		 M20,14h-2v2h2V14z M20,18h-2v2h2V18z M20,22h-2v2h2V22z"/>
</g>
<path class="Black" d="M27,2H3C2.5,2,2,2.5,2,3v24c0,0.5,0.5,1,1,1h24c0.5,0,1-0.5,1-1V3C28,2.5,27.5,2,27,2z M26,26H4V4h22V26z"/>
</svg>
