<?xml version="1.0" encoding="utf-8"?>
<!-- Generator: Adobe Illustrator 20.1.0, SVG Export Plug-In . SVG Version: 6.00 Build 0)  -->
<svg version="1.1" id="Слой_1" xmlns="http://www.w3.org/2000/svg" xmlns:xlink="http://www.w3.org/1999/xlink" x="0px" y="0px"
	 viewBox="0 0 32 32" style="enable-background:new 0 0 32 32;" xml:space="preserve">
<style type="text/css">
	.White{fill:#FFFFFF;}
	.Red{fill:#D11C1C;}
</style>
<circle class="Red" cx="16" cy="16" r="12"/>
<g>
	<g>
		<path class="White" d="M12,11h4c0.8,0,1.4,0,1.8,0.1c0.4,0.1,0.7,0.2,1,0.4s0.6,0.5,0.8,0.8c0.2,0.3,0.3,0.7,0.3,1.2
			c0,0.5-0.1,0.9-0.4,1.3s-0.6,0.7-1,0.9c0.6,0.2,1.1,0.5,1.4,0.9s0.5,0.9,0.5,1.5c0,0.5-0.1,0.9-0.3,1.3c-0.2,0.4-0.5,0.8-0.9,1
			c-0.4,0.3-0.8,0.4-1.4,0.5c-0.3,0-1.2,0.1-2.4,0.1H12V11z M14,12.7V15h1.3c0.8,0,1.3,0,1.5,0c0.3,0,0.6-0.2,0.8-0.4
			c0.2-0.2,0.3-0.5,0.3-0.8c0-0.3-0.1-0.6-0.3-0.8c-0.2-0.2-0.4-0.3-0.8-0.4c-0.2,0-0.8,0-1.7,0H14z M14,16.7v2.7h1.9
			c0.7,0,1.2,0,1.4-0.1c0.3-0.1,0.5-0.2,0.7-0.4c0.2-0.2,0.3-0.5,0.3-0.9c0-0.3-0.1-0.6-0.2-0.8s-0.4-0.4-0.6-0.5s-0.9-0.1-1.8-0.1
			H14z"/>
	</g>
</g>
</svg>
