<?xml version="1.0" encoding="utf-8"?>
<!-- Generator: Adobe Illustrator 20.1.0, SVG Export Plug-In . SVG Version: 6.00 Build 0)  -->
<svg version="1.1" id="Слой_1" xmlns="http://www.w3.org/2000/svg" xmlns:xlink="http://www.w3.org/1999/xlink" x="0px" y="0px"
	 viewBox="0 0 32 32" style="enable-background:new 0 0 32 32;" xml:space="preserve">
<style type="text/css">
	.White{fill:#FFFFFF;}
	.Red{fill:#D11C1C;}
</style>
<path class="Red" d="M16,30L16,30L16,30C14.5,28.3,6,13.5,6,11C6,5.5,10.5,0,16,0s10,5.5,10,11C26,13.5,17.5,28.3,16,30z"/>
<path class="White" d="M16,26L16,26L16,26c-1.2-1.4-8-13.2-8-15.2C8,6.4,11.6,2,16,2s8,4.4,8,8.8C24,12.8,17.2,24.6,16,26z"/>
<circle class="Red" cx="16" cy="10" r="4"/>
</svg>
