<?xml version="1.0" encoding="utf-8"?>
<!-- Generator: Adobe Illustrator 20.1.0, SVG Export Plug-In . SVG Version: 6.00 Build 0)  -->
<svg version="1.1" id="Слой_1" xmlns="http://www.w3.org/2000/svg" xmlns:xlink="http://www.w3.org/1999/xlink" x="0px" y="0px"
	 viewBox="0 0 32 32" style="enable-background:new 0 0 32 32;" xml:space="preserve">
<style type="text/css">
	.Black{fill:#727272;}
	.White{fill:#FFFFFF;}
	.Blue{fill:#1177D7;}
	.st0{opacity:0.6;}
</style>
<path class="Black" d="M0,6h32v22H0V6z"/>
<path class="White" d="M2,8h28v18H2V8z"/>
<path class="Blue" d="M13,19.2c2.5,0.7,3,1.6,3,4.8h-3.7H4c0-3.2,0.5-4.1,3-4.8c1.3-0.4,1.5-1.3,1.5-1.7C7.7,16.6,7,15,7,13.2
	c0-0.1,0-0.3,0-0.5C7,11.3,8.4,10,9.9,10c0,0,0,0,0.1,0c0,0,0,0,0.1,0c1.5,0,2.9,1.3,2.9,2.7c0,0.3,0,0.4,0,0.5
	c0,1.8-0.7,3.4-1.5,4.3C11.5,17.9,11.7,18.8,13,19.2z"/>
<g id="Слой_2" class="st0">
	<rect x="18" y="22" class="Black" width="10" height="2"/>
	<rect x="18" y="18" class="Black" width="10" height="2"/>
	<rect x="18" y="14" class="Black" width="10" height="2"/>
	<rect x="18" y="10" class="Black" width="10" height="2"/>
</g>
</svg>
