<?xml version="1.0" encoding="utf-8"?>
<!-- Generator: Adobe Illustrator 20.1.0, SVG Export Plug-In . SVG Version: 6.00 Build 0)  -->
<svg version="1.1" id="Слой_1" xmlns="http://www.w3.org/2000/svg" xmlns:xlink="http://www.w3.org/1999/xlink" x="0px" y="0px"
	 viewBox="0 0 32 32" style="enable-background:new 0 0 32 32;" xml:space="preserve">
<style type="text/css">
	.White{fill:#FFFFFF;}
	.Black{fill:#727272;}
	.Blue{fill:#1177D7;}
	.Red{fill:#D11C1C;}
	.st0{opacity:0.6;}
</style>
<polygon class="Black" points="24,4 24,8 18,8 18,4 8,4 8,8 2,8 2,4 0,4 0,28 26,28 26,4 "/>
<polygon class="White" points="26,12 2,12 2,26 14,26 14,28 26,28 "/>
<path class="Black" d="M4,6h2V2H4V6z M20,2v4h2V2H20z"/>
<g id="Слой_2" class="st0">
	<path class="Black" d="M16,24h2v-2h-2V24z M16,20h2v-2h-2V20z M16,14v2h2v-2H16z"/>
	<path class="Black" d="M4,24h2v-2H4V24z M4,20h2v-2H4V20z M4,16h2v-2H4V16z M8,24h2v-2H8V24z M12,22v2h2v-2H12z"/>
</g>
<path class="Red" d="M8,20v-6h6v6H8z M10,16v2h2v-2H10z"/>
<path class="Blue" d="M28,25.8c3.3,0.9,4,2.1,4,6.2h-5H16c0-4.1,0.7-5.3,4-6.2c1.7-0.5,2-1.7,2-2.1c-1.1-1.1-2-3.2-2-5.5
	c0-0.1,0-0.4,0-0.7c0-1.7,1.9-3.5,3.9-3.5c0,0,0,0,0.1,0c0,0,0,0,0.1,0c2.1,0,3.9,1.7,3.9,3.5c0,0.3,0,0.6,0,0.7
	c0,2.3-0.9,4.4-2,5.5C26,24.1,26.3,25.3,28,25.8z"/>
</svg>
