<?xml version="1.0" encoding="utf-8"?>
<!-- Generator: Adobe Illustrator 20.1.0, SVG Export Plug-In . SVG Version: 6.00 Build 0)  -->
<svg version="1.1" id="Слой_1" xmlns="http://www.w3.org/2000/svg" xmlns:xlink="http://www.w3.org/1999/xlink" x="0px" y="0px"
	 viewBox="0 0 32 32" style="enable-background:new 0 0 32 32;" xml:space="preserve">
<style type="text/css">
	.White{fill:#FFFFFF;}
	.Black{fill:#727272;}
	.Red{fill:#D11C1C;}
</style>
<g id="Слой_2">
	<g>
		<g>
			<path class="Black" d="M11,22c-1.7,0-3,1.3-3,3c0,1.7,1.3,3,3,3c1.7,0,3-1.3,3-3C14,23.3,12.7,22,11,22z M23,22c-1.7,0-3,1.3-3,3
				c0,1.7,1.3,3,3,3c1.7,0,3-1.3,3-3C26,23.3,24.7,22,23,22z"/>
		</g>
	</g>
	<g>
		<g>
			<path class="Red" d="M10,8L5,3L4,4l4,4v12h18l2-2l-18,0L10,8z M12,6v10h16V6H12z"/>
		</g>
	</g>
	<path class="White" d="M22,8h4v2h-4V8z"/>
</g>
</svg>
