<?xml version="1.0" encoding="utf-8"?>
<!-- Generator: Adobe Illustrator 21.1.0, SVG Export Plug-In . SVG Version: 6.00 Build 0)  -->
<svg version="1.1" id="Layer_1" xmlns="http://www.w3.org/2000/svg" xmlns:xlink="http://www.w3.org/1999/xlink" x="0px" y="0px"
	 viewBox="0 0 32 32" style="enable-background:new 0 0 32 32;" xml:space="preserve">
<style type="text/css">
	.Green{fill:#039C23;}
</style>
<path class="Green" d="M19.7,12c0.2-0.6,0.3-1.3,0.3-2c0-4.4-3.6-8-8-8s-8,3.6-8,8c0,4,3,7.4,6.9,7.9C12.4,14.5,15.8,12.1,19.7,12z
	 M9,12l-2-2l2-2l2,2l4-4l2,2l-4,4l-2,2L9,12z"/>
<path class="Green" d="M20,14c-4.4,0-8,3.6-8,8s3.6,8,8,8s8-3.6,8-8S24.4,14,20,14z M21,24l-2,2l-2-2l-2-2l2-2l2,2l4-4l2,2L21,24z"
	/>
</svg>
