<?xml version="1.0" encoding="utf-8"?>
<!-- Generator: Adobe Illustrator 21.1.0, SVG Export Plug-In . SVG Version: 6.00 Build 0)  -->
<svg version="1.1" id="Layer_1" xmlns="http://www.w3.org/2000/svg" xmlns:xlink="http://www.w3.org/1999/xlink" x="0px" y="0px"
	 viewBox="0 0 32 32" style="enable-background:new 0 0 32 32;" xml:space="preserve">
<style type="text/css">
	.Black{fill:#727272;}
	.Red{fill:#D11C1C;}
</style>
<path class="Black" d="M8,16V6H5C4.4,6,4,6.4,4,7v22c0,0.6,0.4,1,1,1h22c0.6,0,1-0.4,1-1V16H8z M8,26v-6h16v6H8z"/>
<path class="Black" d="M18,6h-8v8h8V6z M14,12h-2V8h2V12z"/>
<path class="Red" d="M31,2H21c-0.5,0-1,0.5-1,1v10c0,0.5,0.5,1,1,1h10c0.5,0,1-0.5,1-1V3C32,2.5,31.5,2,31,2z M29.8,10.5
	c0.2,0.2,0.2,0.5,0,0.7l-0.7,0.7c-0.2,0.2-0.5,0.2-0.7,0L26,9.4l-2.5,2.5c-0.2,0.2-0.5,0.2-0.7,0l-0.7-0.7c-0.2-0.2-0.2-0.5,0-0.7
	L24.6,8l-2.4-2.5C22,5.3,22,5,22.2,4.8l0.7-0.7C23,4,23.3,4,23.5,4.1L26,6.6l2.5-2.5C28.7,4,29,4,29.2,4.1l0.7,0.7
	C30,5,30,5.3,29.8,5.5L27.4,8L29.8,10.5z"/>
</svg>
