<?xml version="1.0" encoding="utf-8"?>
<!-- Generator: Adobe Illustrator 21.1.0, SVG Export Plug-In . SVG Version: 6.00 Build 0)  -->
<svg version="1.1" id="Layer_1" xmlns="http://www.w3.org/2000/svg" xmlns:xlink="http://www.w3.org/1999/xlink" x="0px" y="0px"
	 viewBox="0 0 32 32" style="enable-background:new 0 0 32 32;" xml:space="preserve">
<style type="text/css">
	.Blue{fill:#1177D7;}
	.Yellow{fill:#FFB115;}
	.Green{fill:#039C23;}
	.Red{fill:#D11C1C;}
</style>
<rect y="14" class="Green" width="6" height="12"/>
<rect x="8" y="8" class="Yellow" width="6" height="18"/>
<path class="Blue" d="M32,23v-2l-2.2-0.4c-0.2-0.6-0.4-1.3-0.8-1.8l1.3-1.8l-1.4-1.4l-1.8,1.3c-0.5-0.3-1.2-0.6-1.8-0.7L25,14h-2
	l-0.4,2.2c-0.6,0.2-1.3,0.4-1.8,0.7L19,15.6L17.6,17l1.3,1.8c-0.3,0.5-0.6,1.2-0.8,1.8L16,21v2l2.2,0.4c0.2,0.6,0.4,1.3,0.8,1.8
	L17.7,27l1.4,1.4l1.8-1.3c0.5,0.3,1.2,0.6,1.8,0.7L23,30h2l0.4-2.2c0.6-0.2,1.3-0.4,1.8-0.7l1.8,1.3l1.4-1.4l-1.3-1.8
	c0.3-0.5,0.6-1.2,0.8-1.8L32,23z M24,24c-1.1,0-2-0.9-2-2s0.9-2,2-2s2,0.9,2,2S25.1,24,24,24z"/>
<path class="Red" d="M22,12.2V2h-6v14C17.4,14.1,19.6,12.7,22,12.2z"/>
</svg>
