<?xml version="1.0" encoding="utf-8"?>
<!-- Generator: Adobe Illustrator 21.1.0, SVG Export Plug-In . SVG Version: 6.00 Build 0)  -->
<svg version="1.1" id="Layer_1" xmlns="http://www.w3.org/2000/svg" xmlns:xlink="http://www.w3.org/1999/xlink" x="0px" y="0px"
	 viewBox="0 0 32 32" style="enable-background:new 0 0 32 32;" xml:space="preserve">
<style type="text/css">
	.Red{fill:#D11C1C;}
</style>
<path class="Red" d="M20,4.7v4.4c2.4,1.4,4,4,4,6.9c0,4.4-3.6,8-8,8s-8-3.6-8-8c0-3,1.6-5.5,4-6.9V4.7C7.3,6.3,4,10.8,4,16
	c0,6.6,5.4,12,12,12c6.6,0,12-5.4,12-12C28,10.8,24.7,6.3,20,4.7z"/>
<path class="Red" d="M17,14h-2c-0.6,0-1-0.4-1-1V3c0-0.6,0.4-1,1-1h2c0.6,0,1,0.4,1,1v10C18,13.6,17.6,14,17,14z"/>
</svg>
