<?xml version="1.0" encoding="utf-8"?>
<!-- Generator: Adobe Illustrator 21.1.0, SVG Export Plug-In . SVG Version: 6.00 Build 0)  -->
<svg version="1.1" id="Layer_1" xmlns="http://www.w3.org/2000/svg" xmlns:xlink="http://www.w3.org/1999/xlink" x="0px" y="0px"
	 viewBox="0 0 32 32" style="enable-background:new 0 0 32 32;" xml:space="preserve">
<style type="text/css">
	.Green{fill:#039C23;}
	.Blue{fill:#1177D7;}
	.Red_x0020_2{fill:#D11C1C;}
	.Yellow{fill:#FFB115;}
	.White{fill:#FFFFFF;}
	.st0{opacity:0.2;}
</style>
<polygon class="Blue" points="2,14 0,16 0,26 10,26 12,24 12,14 "/>
<g class="st0">
	<polygon class="White" points="10,16 0,16 2,14 12,14 	"/>
</g>
<polygon class="Green" points="16,14 14,16 14,26 24,26 26,24 26,14 "/>
<g class="st0">
	<polygon class="White" points="24,16 14,16 16,14 26,14 	"/>
</g>
<polygon class="Red_x0020_2" points="18,6 8,6 6,8 6,12 18,12 "/>
<g class="st0">
	<polygon class="White" points="16,8 6,8 8,6 18,6 	"/>
</g>
<polygon class="Yellow" points="22,6 20,8 20,12 28,12 28,18 30,18 32,16 32,6 "/>
<g class="st0">
	<polygon class="White" points="30,8 20,8 22,6 32,6 	"/>
</g>
<g class="st0">
	<polygon class="Red_x0020_2" points="12,24 10,26 10,16 12,14 	"/>
</g>
<g class="st0">
	<polygon class="Red_x0020_2" points="26,24 24,26 24,16 26,14 	"/>
</g>
<g class="st0">
	<polygon class="Blue" points="18,12 16,12 16,8 18,6 	"/>
</g>
<g class="st0">
	<polygon class="Red_x0020_2" points="32,16 30,18 30,8 32,6 	"/>
</g>
</svg>
