<?xml version="1.0" encoding="utf-8"?>
<!-- Generator: Adobe Illustrator 21.1.0, SVG Export Plug-In . SVG Version: 6.00 Build 0)  -->
<svg version="1.1" id="Layer_1" xmlns="http://www.w3.org/2000/svg" xmlns:xlink="http://www.w3.org/1999/xlink" x="0px" y="0px"
	 viewBox="0 0 32 32" style="enable-background:new 0 0 32 32;" xml:space="preserve">
<style type="text/css">
	.Green{fill:#039C23;}
</style>
<path class="Green" d="M11,12h9V3c0-0.6-0.4-1-1-1H5C4.4,2,4,2.4,4,3v14c0,0.6,0.4,1,1,1h5v-5C10,12.4,10.4,12,11,12z"/>
<path class="Green" d="M27,30H13c-0.6,0-1-0.4-1-1V15c0-0.6,0.4-1,1-1h14c0.6,0,1,0.4,1,1v14C28,29.6,27.6,30,27,30z"/>
</svg>
