<?xml version="1.0" encoding="utf-8"?>
<!-- Generator: Adobe Illustrator 21.1.0, SVG Export Plug-In . SVG Version: 6.00 Build 0)  -->
<svg version="1.1" id="Layer_1" xmlns="http://www.w3.org/2000/svg" xmlns:xlink="http://www.w3.org/1999/xlink" x="0px" y="0px"
	 viewBox="0 0 32 32" style="enable-background:new 0 0 32 32;" xml:space="preserve">
<style type="text/css">
	.Black{fill:#727272;}
	.Blue{fill:#1177D7;}
	.Green{fill:#039C23;}
</style>
<path class="Green" d="M29,30H19c-0.6,0-1-0.4-1-1V19c0-0.6,0.4-1,1-1h10c0.6,0,1,0.4,1,1v10C30,29.6,29.6,30,29,30z"/>
<g>
	<path class="Black" d="M4,26V12H2v15c0,0.5,0.5,1,1,1h13v-2H4z"/>
	<rect x="26" y="12" class="Black" width="2" height="4"/>
	<path class="Blue" d="M26,12h2V5c0-0.5-0.5-1-1-1H3C2.5,4,2,4.5,2,5v7h2H26z"/>
</g>
</svg>
