<?xml version="1.0" encoding="utf-8"?>
<!-- Generator: Adobe Illustrator 21.1.0, SVG Export Plug-In . SVG Version: 6.00 Build 0)  -->
<svg version="1.1" id="Layer_1" xmlns="http://www.w3.org/2000/svg" xmlns:xlink="http://www.w3.org/1999/xlink" x="0px" y="0px"
	 viewBox="0 0 32 32" style="enable-background:new 0 0 32 32;" xml:space="preserve">
<style type="text/css">
	.Green{fill:#039C23;}
	.Black{fill:#727272;}
	.Red{fill:#D11C1C;}
</style>
<rect x="6" y="4" class="Black" width="16" height="2"/>
<rect x="6" y="8" class="Black" width="16" height="2"/>
<rect x="6" y="12" class="Black" width="16" height="2"/>
<rect x="6" y="16" class="Black" width="8" height="2"/>
<path class="Black" d="M4,26V2h20v12.2c0.7,0.1,1.4,0.4,2,0.6V1c0-0.6-0.4-1-1-1H3C2.4,0,2,0.4,2,1v26c0,0.6,0.4,1,1,1h9.8
	c-0.3-0.6-0.5-1.3-0.6-2H4z"/>
<path class="Red" d="M22,30c-3.3,0-6-2.7-6-6c0-1.7,0.7-3.2,1.8-4.2l-1.4-1.4C14.9,19.8,14,21.8,14,24c0,4.4,3.6,8,8,8
	c2.2,0,4.2-0.9,5.7-2.3l-1.4-1.4C25.2,29.3,23.7,30,22,30z"/>
<polygon class="Black" points="30,16 22,24 20,22 18,24 20,26 22,28 24,26 32,18 "/>
<path class="Green" d="M26.2,28.2l1.4,1.4c1.4-1.4,2.3-3.4,2.3-5.7l-2.6,2.6C27.1,27.2,26.7,27.8,26.2,28.2z"/>
<path class="Green" d="M22,16c-2.2,0-4.2,0.9-5.7,2.3l1.4,1.4c1.1-1.1,2.6-1.8,4.2-1.8c0.6,0,1.2,0.1,1.7,0.3l1.5-1.5
	C24.3,16.3,23.2,16,22,16z"/>
</svg>
