<?xml version="1.0" encoding="utf-8"?>
<!-- Generator: Adobe Illustrator 21.1.0, SVG Export Plug-In . SVG Version: 6.00 Build 0)  -->
<svg version="1.1" id="Layer_1" xmlns="http://www.w3.org/2000/svg" xmlns:xlink="http://www.w3.org/1999/xlink" x="0px" y="0px"
	 viewBox="0 0 32 32" style="enable-background:new 0 0 32 32;" xml:space="preserve">
<style type="text/css">
	.Red{fill:#D11C1C;}
	.Yellow{fill:#FFB115;}
	.Blue{fill:#1177D7;}
	.Green{fill:#039C23;}
	.Black{fill:#727272;}
	.st0{opacity:0.3;}
	.st1{opacity:0.5;}
</style>
<g>
	<g>
		<path class="Black" d="M15,0C6.7,0,0,6.7,0,15c0,8.3,6.7,15,15,15s15-6.7,15-15C30,6.7,23.3,0,15,0z M15,28C7.8,28,2,22.2,2,15
			S7.8,2,15,2s13,5.8,13,13S22.2,28,15,28z"/>
	</g>
	<g>
		<path class="Black" d="M15,0C6.7,0,0,6.7,0,15c0,8.3,6.7,15,15,15s15-6.7,15-15C30,6.7,23.3,0,15,0z M15,28C7.8,28,2,22.2,2,15
			S7.8,2,15,2s13,5.8,13,13S22.2,28,15,28z"/>
	</g>
</g>
<g>
	<path class="Red" d="M17.7,10.8L22,6.5c-1.7-1.4-3.8-2.3-6-2.5v6.1C16.6,10.2,17.2,10.4,17.7,10.8z"/>
	<path class="Yellow" d="M13.9,10.1V4c-2.3,0.2-4.4,1.1-6,2.5l4.3,4.3C12.7,10.4,13.3,10.2,13.9,10.1z"/>
	<path class="Blue" d="M19.8,13.9h6.1c-0.2-2.3-1.1-4.4-2.5-6l-4.3,4.3C19.5,12.7,19.7,13.3,19.8,13.9z"/>
	<path class="Blue" d="M15.9,19.8v6.1c2.3-0.2,4.4-1.1,6-2.5l-4.3-4.3C17.2,19.5,16.6,19.7,15.9,19.8z"/>
	<path class="Green" d="M12.2,19.1l-4.3,4.3c1.7,1.4,3.8,2.3,6,2.5v-6.1C13.3,19.7,12.7,19.5,12.2,19.1z"/>
	<path class="Blue" d="M19.8,15.9c-0.1,0.6-0.4,1.2-0.7,1.8l4.3,4.3c1.4-1.7,2.3-3.8,2.5-6H19.8z"/>
	<path class="Yellow" d="M10.8,12.2L6.5,7.9c-1.4,1.7-2.3,3.8-2.5,6h6.1C10.2,13.3,10.4,12.7,10.8,12.2z"/>
	<path class="Green" d="M10.1,15.9H4c0.2,2.3,1.1,4.4,2.5,6l4.3-4.3C10.4,17.2,10.2,16.6,10.1,15.9z"/>
</g>
<g class="st0">
	<path class="Red" d="M13.9,10.1V4c-2.3,0.2-4.4,1.1-6,2.5l4.3,4.3C12.7,10.4,13.3,10.2,13.9,10.1z"/>
</g>
<g class="st1">
	<path class="Yellow" d="M10.1,15.9H4c0.2,2.3,1.1,4.4,2.5,6l4.3-4.3C10.4,17.2,10.2,16.6,10.1,15.9z"/>
</g>
<g class="st0">
	<path class="Red" d="M19.8,15.9c-0.1,0.6-0.4,1.2-0.7,1.8l4.3,4.3c1.4-1.7,2.3-3.8,2.5-6H19.8z"/>
</g>
<g class="st1">
	<path class="Red" d="M19.8,13.9h6.1c-0.2-2.3-1.1-4.4-2.5-6l-4.3,4.3C19.5,12.7,19.7,13.3,19.8,13.9z"/>
</g>
</svg>
