<?xml version="1.0" encoding="utf-8"?>
<!-- Generator: Adobe Illustrator 21.1.0, SVG Export Plug-In . SVG Version: 6.00 Build 0)  -->
<svg version="1.1" id="Layer_1" xmlns="http://www.w3.org/2000/svg" xmlns:xlink="http://www.w3.org/1999/xlink" x="0px" y="0px"
	 viewBox="0 0 32 32" style="enable-background:new 0 0 32 32;" xml:space="preserve">
<style type="text/css">
	.Black{fill:#727272;}
	.Yellow{fill:#FFB115;}
</style>
<path class="Black" d="M31,0H15c-0.6,0-1,0.4-1,1v16c0,0.6,0.4,1,1,1h16c0.6,0,1-0.4,1-1V1C32,0.4,31.6,0,31,0z M30,16H16V2h14V16z
	 M18,20v4H4v-6h8v-4H4V4H1C0.4,4,0,4.4,0,5v22c0,0.6,0.4,1,1,1h20c0.6,0,1-0.4,1-1v-7H18z M12,4H6v8h6V4z M10,10H8V6h2V10z"/>
<polygon class="Yellow" points="28,4 18,4 18,6 21,9 18,12 18,14 28,14 28,12 21,12 24,9 21,6 28,6 "/>
</svg>
