<?xml version="1.0" encoding="utf-8"?>
<!-- Generator: Adobe Illustrator 21.1.0, SVG Export Plug-In . SVG Version: 6.00 Build 0)  -->
<svg version="1.1" id="Layer_1" xmlns="http://www.w3.org/2000/svg" xmlns:xlink="http://www.w3.org/1999/xlink" x="0px" y="0px"
	 viewBox="0 0 32 32" style="enable-background:new 0 0 32 32;" xml:space="preserve">
<style type="text/css">
	.Black{fill:#727272;}
	.Blue{fill:#1177D7;}
</style>
<path class="Black" d="M18,28L18,28L18,28"/>
<path class="Black" d="M21.4,28H18l0,0l0,0H6V4h14v5c0,0.6,0.4,1,1,1h5v13.4l2,2V9l-7-7H5C4.4,2,4,2.4,4,3v26c0,0.6,0.4,1,1,1h18.4
	L21.4,28z"/>
<path class="Blue" d="M29,29l-5.9-5.9c0.6-0.9,0.9-2,0.9-3.1c0-3.3-2.7-6-6-6c-0.9,0-1.7,0.2-2.5,0.5l4,4c0.8,0.8,0.8,2.2,0,3
	s-2.2,0.8-3,0l-4-4C12.2,18.3,12,19.1,12,20c0,3.3,2.7,6,6,6c1.1,0,2.2-0.3,3.1-0.9L27,31c0.6,0.6,1.4,0.6,2,0
	C29.6,30.4,29.6,29.6,29,29z"/>
</svg>
