<?xml version="1.0" encoding="utf-8"?>
<!-- Generator: Adobe Illustrator 21.1.0, SVG Export Plug-In . SVG Version: 6.00 Build 0)  -->
<svg version="1.1" id="Layer_1" xmlns="http://www.w3.org/2000/svg" xmlns:xlink="http://www.w3.org/1999/xlink" x="0px" y="0px"
	 viewBox="0 0 32 32" style="enable-background:new 0 0 32 32;" xml:space="preserve">
<style type="text/css">
	.Black{fill:#727272;}
</style>
<path class="Black" d="M29,8h-1V3c0-0.5-0.5-1-1-1H7C6.5,2,6,2.5,6,3v5H5C4.4,8,4,8.4,4,9v10c0,0.6,0.4,1,1,1h1v9c0,0.5,0.5,1,1,1
	h20c0.5,0,1-0.5,1-1v-9h1c0.6,0,1-0.4,1-1V9C30,8.4,29.6,8,29,8z M26,4v4H8V4 M20.2,11.5C20.1,12,20,12.3,20,12.6L18.4,18h-1.2
	l-1.6-5.4c0-0.1-0.1-0.5-0.2-1.1l0,0c0,0.8,0.1,1.5,0.1,2.1V18H14v-8h2.2l1.4,4.7c0.1,0.4,0.2,0.8,0.2,1.1l0,0
	c0.1-0.4,0.2-0.8,0.3-1.2l1.4-4.7h2.1v8h-1.5v-4.8C20.1,12.7,20.2,12.1,20.2,11.5L20.2,11.5z M6,18l2.1-4l-1.9-4H8l1,2.4
	c0.1,0.2,0.1,0.4,0.2,0.7l0,0c0-0.2,0.1-0.4,0.2-0.7l1.1-2.4h1.7l-2,4l2,4h-1.8l-1.1-2.6c0-0.1-0.1-0.3-0.1-0.5l0,0
	c0,0.1-0.1,0.3-0.2,0.6L7.8,18H6z M26,28H8v-8h18V28z M28,18h-4v-8h1.5v6.5H28V18z"/>
</svg>
