<?xml version="1.0" encoding="utf-8"?>
<!-- Generator: Adobe Illustrator 21.1.0, SVG Export Plug-In . SVG Version: 6.00 Build 0)  -->
<svg version="1.1" id="Layer_1" xmlns="http://www.w3.org/2000/svg" xmlns:xlink="http://www.w3.org/1999/xlink" x="0px" y="0px"
	 viewBox="0 0 32 32" style="enable-background:new 0 0 32 32;" xml:space="preserve">
<style type="text/css">
	.Black{fill:#727272;}
	.Blue{fill:#1177D7;}
</style>
<polygon class="Black" points="15,12 15,9 13,9 13,12 8,12 8,14 8,18 10,18 10,14 18,14 18,18 20,18 20,14 20,12 "/>
<g>
	<path class="Black" d="M4,26V2h20v16.2c0.7,0.1,1.4,0.3,2,0.5V1c0-0.6-0.4-1-1-1H3C2.4,0,2,0.4,2,1v26c0,0.6,0.4,1,1,1h9.3
		c-0.2-0.6-0.3-1.3-0.3-2H4z"/>
	<g>
		<g>
			<path class="Blue" d="M22,17c0-0.6-0.4-1-1-1h-4c-0.6,0-1,0.4-1,1v2.6c1.7-1,3.7-1.6,6-1.6V17z"/>
		</g>
		<g>
			<path class="Blue" d="M22,17c0-0.6-0.4-1-1-1h-4c-0.6,0-1,0.4-1,1v2.6c1.7-1,3.7-1.6,6-1.6V17z"/>
		</g>
	</g>
</g>
<g>
	<g>
		<path class="Black" d="M22,20c-4.4,0-8,6-8,6s3.6,6,8,6s8-6,8-6S26.4,20,22,20z M22,30c-2.2,0-4-1.8-4-4s1.8-4,4-4
			c2.2,0,4,1.8,4,4S24.2,30,22,30z"/>
	</g>
	<g>
		<path class="Black" d="M22,20c-4.4,0-8,6-8,6s3.6,6,8,6s8-6,8-6S26.4,20,22,20z M22,30c-2.2,0-4-1.8-4-4s1.8-4,4-4
			c2.2,0,4,1.8,4,4S24.2,30,22,30z"/>
	</g>
</g>
<circle class="Black" cx="22" cy="26" r="2"/>
<path class="Blue" d="M19,10H9c-0.6,0-1-0.4-1-1V5c0-0.6,0.4-1,1-1h10c0.6,0,1,0.4,1,1v4C20,9.6,19.6,10,19,10z"/>
<path class="Blue" d="M11,22H7c-0.6,0-1-0.4-1-1v-4c0-0.6,0.4-1,1-1h4c0.6,0,1,0.4,1,1v4C12,21.6,11.6,22,11,22z"/>
</svg>
