<?xml version="1.0" encoding="utf-8"?>
<!-- Generator: Adobe Illustrator 21.1.0, SVG Export Plug-In . SVG Version: 6.00 Build 0)  -->
<svg version="1.1" id="Layer_1" xmlns="http://www.w3.org/2000/svg" xmlns:xlink="http://www.w3.org/1999/xlink" x="0px" y="0px"
	 viewBox="0 0 32 32" style="enable-background:new 0 0 32 32;" xml:space="preserve">
<style type="text/css">
	.Black{fill:#727272;}
	.Blue{fill:#1177D7;}
</style>
<path class="Black" d="M8,4h18v6h2V3c0-0.5-0.5-1-1-1H7C6.5,2,6,2.5,6,3v7h2V4z"/>
<path class="Black" d="M26,28H8V18H6v11c0,0.5,0.5,1,1,1h20c0.5,0,1-0.5,1-1V18h-2V28z"/>
<path class="Blue" d="M29,8h-1h-2H8H6H5C4.4,8,4,8.4,4,9v10c0,0.6,0.4,1,1,1h1h2h18h2h1c0.6,0,1-0.4,1-1V9C30,8.4,29.6,8,29,8z
	 M12.9,12c-0.5-0.3-1-0.5-1.6-0.5c-0.7,0-1.2,0.2-1.6,0.7C9.2,12.6,9,13.3,9,14c0,0.7,0.2,1.3,0.6,1.8s0.9,0.7,1.6,0.7
	c0.6,0,1.2-0.2,1.7-0.5v1.6c-0.5,0.3-1.2,0.4-2,0.4c-1.1,0-2-0.3-2.6-1c-0.1-0.1-0.2-0.2-0.2-0.3c-0.5-0.6-0.7-1.5-0.7-2.4
	c0-1,0.2-1.8,0.7-2.5c0.1-0.2,0.2-0.3,0.4-0.5C9.1,10.4,10,10,11.1,10c0.7,0,1.3,0.1,1.8,0.3V12z M19.2,16.8
	c-0.2,0.3-0.4,0.5-0.6,0.7c-0.3,0.2-0.6,0.3-0.9,0.4C17.4,17.9,17,18,16.6,18c-0.4,0-0.8,0-1.1-0.1c-0.4-0.1-0.7-0.2-0.9-0.3v-1.7
	c0.3,0.3,0.6,0.5,0.9,0.6c0.3,0.1,0.7,0.2,1,0.2c0.2,0,0.4,0,0.5-0.1c0.2,0,0.3-0.1,0.4-0.2c0.1-0.1,0.2-0.2,0.2-0.2
	c0.1-0.1,0.1-0.2,0.1-0.3c0-0.2,0-0.3-0.1-0.4s-0.2-0.2-0.3-0.3s-0.3-0.2-0.5-0.3s-0.4-0.2-0.6-0.3c-0.6-0.3-1-0.6-1.2-0.9
	s-0.4-0.8-0.4-1.3c0-0.4,0.1-0.7,0.2-1c0.1-0.3,0.4-0.5,0.6-0.7s0.6-0.3,0.9-0.4c0.3-0.1,0.7-0.1,1.1-0.1c0.4,0,0.7,0,1,0.1
	c0.3,0,0.6,0.1,0.8,0.2v1.6c-0.1-0.1-0.3-0.2-0.4-0.2c-0.1-0.1-0.3-0.1-0.4-0.2c-0.1,0-0.3-0.1-0.4-0.1c-0.1,0-0.3,0-0.4,0
	c-0.2,0-0.3,0-0.5,0.1c-0.1,0-0.3,0.1-0.4,0.2c-0.1,0.1-0.2,0.1-0.2,0.2c-0.1,0.1-0.1,0.2-0.1,0.3c0,0.1,0,0.2,0.1,0.3
	c0.1,0.1,0.2,0.2,0.3,0.3c0.1,0.1,0.3,0.2,0.4,0.3c0.2,0.1,0.4,0.2,0.6,0.3c0.3,0.1,0.5,0.3,0.8,0.4c0.2,0.1,0.4,0.3,0.6,0.5
	c0.2,0.2,0.3,0.4,0.4,0.6c0.1,0.2,0.1,0.5,0.1,0.8C19.5,16.1,19.4,16.5,19.2,16.8z M26,13.2l-1.5,4.7h-1.8L20.3,10H22l1.5,5.5
	c0.1,0.3,0.1,0.5,0.1,0.8h0c0-0.2,0.1-0.5,0.2-0.8l1.5-5.5H26h1L26,13.2z"/>
</svg>
