<?xml version="1.0" encoding="utf-8"?>
<!-- Generator: Adobe Illustrator 21.1.0, SVG Export Plug-In . SVG Version: 6.00 Build 0)  -->
<svg version="1.1" id="Layer_1" xmlns="http://www.w3.org/2000/svg" xmlns:xlink="http://www.w3.org/1999/xlink" x="0px" y="0px"
	 viewBox="0 0 32 32" style="enable-background:new 0 0 32 32;" xml:space="preserve">
<style type="text/css">
	.Green{fill:#039C23;}
	.Black{fill:#727272;}
</style>
<path class="Black" d="M31,2H1C0.4,2,0,2.4,0,3v26c0,0.6,0.4,1,1,1h30c0.6,0,1-0.4,1-1V3C32,2.4,31.6,2,31,2z M30,28H2V4h28V28z"/>
<path class="Green" d="M22,23c0,0.6-0.4,1-1,1h-3v2h3c1.7,0,3-1.3,3-3v-5c0-0.6,0.4-1,1-1h1v-2h-1c-0.6,0-1-0.4-1-1V9
	c0-1.7-1.3-3-3-3h-3v2h3c0.6,0,1,0.4,1,1v5c0,0.8,0.3,1.5,0.8,2c-0.5,0.5-0.8,1.2-0.8,2V23z"/>
<path class="Green" d="M10,9c0-0.6,0.4-1,1-1h3V6h-3C9.3,6,8,7.3,8,9v5c0,0.6-0.4,1-1,1H6v2h1c0.6,0,1,0.4,1,1v5c0,1.7,1.3,3,3,3h3
	v-2h-3c-0.6,0-1-0.4-1-1v-5c0-0.8-0.3-1.5-0.8-2c0.5-0.5,0.8-1.2,0.8-2V9z"/>
</svg>
