<?xml version="1.0" encoding="utf-8"?>
<!-- Generator: Adobe Illustrator 21.1.0, SVG Export Plug-In . SVG Version: 6.00 Build 0)  -->
<svg version="1.1" id="Layer_1" xmlns="http://www.w3.org/2000/svg" xmlns:xlink="http://www.w3.org/1999/xlink" x="0px" y="0px"
	 viewBox="0 0 32 32" style="enable-background:new 0 0 32 32;" xml:space="preserve">
<style type="text/css">
	.Blue{fill:#1177D7;}
</style>
<path class="Blue" d="M22,6l-6-6v4C9.4,4,4,9.4,4,16c0,3.6,1.6,6.8,4.1,9l2.8-2.8c-1.8-1.5-3-3.7-3-6.2c0-4.4,3.6-8,8-8v4L22,6z"/>
<path class="Blue" d="M23.9,7L21,9.8c1.8,1.5,3,3.7,3,6.2c0,4.4-3.6,8-8,8v-4l-6,6l6,6v-4c6.6,0,12-5.4,12-12
	C28,12.4,26.4,9.2,23.9,7z"/>
</svg>
