<?xml version="1.0" encoding="utf-8"?>
<!-- Generator: Adobe Illustrator 21.1.0, SVG Export Plug-In . SVG Version: 6.00 Build 0)  -->
<svg version="1.1" id="Layer_1" xmlns="http://www.w3.org/2000/svg" xmlns:xlink="http://www.w3.org/1999/xlink" x="0px" y="0px"
	 viewBox="0 0 32 32" style="enable-background:new 0 0 32 32;" xml:space="preserve">
<style type="text/css">
	.Green{fill:#039C23;}
	.Blue{fill:#1177D7;}
	.Red_x0020_2{fill:#D11C1C;}
	.Yellow{fill:#FFB115;}
</style>
<polygon class="Yellow" points="10,2 0,2 0,4 3,7 0,10 0,12 10,12 10,10 3,10 6,7 3,4 10,4 "/>
<rect x="6" y="14" class="Green" width="4" height="6"/>
<rect x="12" y="8" class="Red_x0020_2" width="4" height="12"/>
<path class="Blue" d="M22,14.3V4h-4v12C18,15.3,19.6,14.6,22,14.3z"/>
<path class="Yellow" d="M26,28c-3.3,0-6-0.9-6-2v2c0,1.1,2.7,2,6,2s6-0.9,6-2v-2C32,27.1,29.3,28,26,28z M26,24c-3.3,0-6-0.9-6-2v2
	c0,1.1,2.7,2,6,2s6-0.9,6-2v-2C32,23.1,29.3,24,26,24z M26,16c-3.3,0-6,0.9-6,2v2c0,1.1,2.7,2,6,2s6-0.9,6-2v-2
	C32,16.9,29.3,16,26,16z"/>
<path class="Red_x0020_2" d="M28,8V6l-4,3l4,3v-2c1.1,0,2,0.9,2,2v2h2v-2C32,9.8,30.2,8,28,8z"/>
</svg>
