<?xml version="1.0" encoding="utf-8"?>
<!-- Generator: Adobe Illustrator 21.1.0, SVG Export Plug-In . SVG Version: 6.00 Build 0)  -->
<svg version="1.1" id="Layer_1" xmlns="http://www.w3.org/2000/svg" xmlns:xlink="http://www.w3.org/1999/xlink" x="0px" y="0px"
	 viewBox="0 0 32 32" style="enable-background:new 0 0 32 32;" xml:space="preserve">
<style type="text/css">
	.Red{fill:#D11C1C;}
</style>
<path class="Red" d="M12,16c-1.4,0-2.7-0.5-3.7-1.3l8.4-8.4c0.8,1,1.3,2.3,1.3,3.7c0,0.8-0.2,1.6-0.5,2.3c0.7-0.2,1.4-0.3,2.2-0.3
	c0.2-0.6,0.3-1.3,0.3-2c0-4.4-3.6-8-8-8s-8,3.6-8,8c0,4,3,7.4,6.9,7.9C11.2,17.2,11.6,16.6,12,16C12,16,12,16,12,16z M6,10
	c0-3.3,2.7-6,6-6c1.1,0,2.2,0.3,3.1,0.9l-8.2,8.2C6.3,12.2,6,11.1,6,10z"/>
<path class="Red" d="M20,14c-4.4,0-8,3.6-8,8s3.6,8,8,8s8-3.6,8-8S24.4,14,20,14z M20,16c1.1,0,2.2,0.3,3.1,0.9l-8.2,8.2
	c-0.6-0.9-0.9-2-0.9-3.1C14,18.7,16.7,16,20,16z M20,28c-1.4,0-2.7-0.5-3.7-1.3l8.4-8.4c0.8,1,1.3,2.3,1.3,3.7
	C26,25.3,23.3,28,20,28z"/>
</svg>
