<?xml version="1.0" encoding="utf-8"?>
<!-- Generator: Adobe Illustrator 21.1.0, SVG Export Plug-In . SVG Version: 6.00 Build 0)  -->
<svg version="1.1" id="Layer_1" xmlns="http://www.w3.org/2000/svg" xmlns:xlink="http://www.w3.org/1999/xlink" x="0px" y="0px"
	 viewBox="0 0 32 32" style="enable-background:new 0 0 32 32;" xml:space="preserve">
<style type="text/css">
	.Black{fill:#727272;}
	.Blue{fill:#1177D7;}
</style>
<path class="Black" d="M26,14v12H10v-4v-2v-6H8v6H6V6h16v8h2V5c0-0.6-0.4-1-1-1H5C4.4,4,4,4.4,4,5v16c0,0.6,0.4,1,1,1h3v5
	c0,0.5,0.5,1,1,1h18c0.5,0,1-0.5,1-1V14H26z"/>
<path class="Blue" d="M28,11c0-0.6-0.4-1-1-1H9c-0.6,0-1,0.4-1,1v2v1v2h20V11z"/>
</svg>
