<?xml version="1.0" encoding="utf-8"?>
<!-- Generator: Adobe Illustrator 21.1.0, SVG Export Plug-In . SVG Version: 6.00 Build 0)  -->
<svg version="1.1" id="Layer_1" xmlns="http://www.w3.org/2000/svg" xmlns:xlink="http://www.w3.org/1999/xlink" x="0px" y="0px"
	 viewBox="0 0 32 32" style="enable-background:new 0 0 32 32;" xml:space="preserve">
<style type="text/css">
	.Black{fill:#727272;}
</style>
<path class="Black" d="M31,0H21c-0.6,0-1,0.4-1,1v14c0,0.6,0.4,1,1,1h10c0.6,0,1-0.4,1-1V1C32,0.4,31.6,0,31,0z M30,14h-8V2h8V14z
	 M24,18v6H8v-6h10v-4H8V4H5C4.4,4,4,4.4,4,5v22c0,0.6,0.4,1,1,1h22c0.6,0,1-0.4,1-1v-9H24z M18,4h-8v8h8V4z M14,10h-2V6h2V10z"/>
<path class="Black" d="M31,0H21c-0.6,0-1,0.4-1,1v14c0,0.6,0.4,1,1,1h10c0.6,0,1-0.4,1-1V1C32,0.4,31.6,0,31,0z M30,14h-8V2h8V14z
	 M24,18v6H8v-6h10v-4H8V4H5C4.4,4,4,4.4,4,5v22c0,0.6,0.4,1,1,1h22c0.6,0,1-0.4,1-1v-9H24z M18,4h-8v8h8V4z M14,10h-2V6h2V10z"/>
<path class="Black" d="M31,0H21c-0.6,0-1,0.4-1,1v14c0,0.6,0.4,1,1,1h10c0.6,0,1-0.4,1-1V1C32,0.4,31.6,0,31,0z M30,14h-8V2h8V14z
	 M24,18v6H8v-6h10v-4H8V4H5C4.4,4,4,4.4,4,5v22c0,0.6,0.4,1,1,1h22c0.6,0,1-0.4,1-1v-9H24z M18,4h-8v8h8V4z M14,10h-2V6h2V10z"/>
</svg>
