<?xml version="1.0" encoding="utf-8"?>
<!-- Generator: Adobe Illustrator 21.1.0, SVG Export Plug-In . SVG Version: 6.00 Build 0)  -->
<svg version="1.1" id="Layer_1" xmlns="http://www.w3.org/2000/svg" xmlns:xlink="http://www.w3.org/1999/xlink" x="0px" y="0px"
	 viewBox="0 0 32 32" style="enable-background:new 0 0 32 32;" xml:space="preserve">
<style type="text/css">
	.Black{fill:#727272;}
	.Red{fill:#D11C1C;}
	.Blue{fill:#1177D7;}
	.Yellow{fill:#FFB115;}
</style>
<path class="Blue" d="M16,0v10h10C26,4.5,21.5,0,16,0z"/>
<path class="Red" d="M14,12V2C8.5,2,4,6.5,4,12c0,0.8,0.1,1.5,0.3,2.2C4.8,14.1,5.4,14,6,14c4.4,0,8,3.6,8,8c5.5,0,10-4.5,10-10H14z
	"/>
<path class="Yellow" d="M10,32h22V10L10,32z M28,28h-8l8-8V28z"/>
<path class="Black" d="M6,16c-3.3,0-6,2.7-6,6s2.7,6,6,6s6-2.7,6-6S9.3,16,6,16z M9.4,24H8l-4-4v4H2.6C2.2,23.4,2,22.7,2,22
	c0-2.2,1.8-4,4-4s4,1.8,4,4C10,22.7,9.8,23.4,9.4,24z"/>
</svg>
