<?xml version="1.0" encoding="utf-8"?>
<!-- Generator: Adobe Illustrator 21.1.0, SVG Export Plug-In . SVG Version: 6.00 Build 0)  -->
<svg version="1.1" id="Layer_1" xmlns="http://www.w3.org/2000/svg" xmlns:xlink="http://www.w3.org/1999/xlink" x="0px" y="0px"
	 viewBox="0 0 32 32" style="enable-background:new 0 0 32 32;" xml:space="preserve">
<style type="text/css">
	.Black{fill:#727272;}
	.Yellow{fill:#FFB115;}
</style>
<polygon class="Yellow" points="26,3 28,1 28,4 31,4 29,6 31,8 28,8 28,11 26,9 24,11 24,8 21,8 23,6 21,4 24,4 24,1 "/>
<path class="Black" d="M28,12v17c0,0.5-0.5,1-1,1H3c-0.5,0-1-0.5-1-1V5c0-0.5,0.5-1,1-1h17v2H4v22h22V12H28z"/>
<rect x="6" y="20" class="Black" width="18" height="6"/>
<rect x="6" y="8" class="Black" width="8" height="10"/>
<path class="Black" d="M22,10h-1c-0.6,0-1-0.4-1-1V8h-4v10h8v-6h-1c-0.6,0-1-0.4-1-1V10z"/>
</svg>
