<?xml version="1.0" encoding="utf-8"?>
<!-- Generator: Adobe Illustrator 21.1.0, SVG Export Plug-In . SVG Version: 6.00 Build 0)  -->
<svg version="1.1" id="Layer_1" xmlns="http://www.w3.org/2000/svg" xmlns:xlink="http://www.w3.org/1999/xlink" x="0px" y="0px"
	 viewBox="0 0 32 32" style="enable-background:new 0 0 32 32;" xml:space="preserve">
<style type="text/css">
	.Green{fill:#039C23;}
	.Black{fill:#727272;}
</style>
<path class="Black" d="M8,4h18v6h2V3c0-0.5-0.5-1-1-1H7C6.5,2,6,2.5,6,3v7h2V4z"/>
<path class="Black" d="M26,28H8v-9.2H6V29c0,0.5,0.5,1,1,1h20c0.5,0,1-0.5,1-1V18.8h-2V28z"/>
<path class="Green" d="M29,8H5C4.4,8,4,8.4,4,9v10c0,0.6,0.4,1,1,1h24c0.6,0,1-0.4,1-1V9C30,8.4,29.6,8,29,8z M11.6,18l-1.2-2.6
	c0-0.1-0.1-0.3-0.1-0.5l0,0c0,0.1-0.1,0.3-0.2,0.6L8.8,18H6.9l2.3-4l-2.1-4h2l1,2.4c0.1,0.2,0.2,0.4,0.2,0.7l0,0
	c0-0.2,0.1-0.4,0.2-0.7l1.1-2.4h1.8l-2.2,4l2.2,4H11.6z M19.8,18h-4.3v-8h1.6v6.5h2.7V18z M25.8,16.8c-0.2,0.3-0.4,0.5-0.6,0.7
	s-0.6,0.3-0.9,0.4C23.9,18,23.5,18,23.1,18s-0.8,0-1.1-0.1c-0.4-0.1-0.7-0.2-0.9-0.3v-1.7c0.3,0.3,0.6,0.5,1,0.6
	c0.3,0.1,0.7,0.2,1,0.2c0.2,0,0.4,0,0.5-0.1c0.2,0,0.3-0.1,0.4-0.2s0.2-0.2,0.2-0.2c0-0.1,0.1-0.2,0.1-0.3c0-0.2,0-0.3-0.1-0.4
	c-0.1-0.1-0.2-0.2-0.3-0.3s-0.3-0.2-0.5-0.3s-0.4-0.2-0.6-0.3c-0.6-0.3-1-0.6-1.3-0.9c-0.3-0.4-0.4-0.8-0.4-1.3c0-0.4,0.1-0.7,0.2-1
	c0.2-0.3,0.4-0.5,0.6-0.7c0.3-0.2,0.6-0.3,0.9-0.4s0.7-0.1,1.1-0.1s0.7,0,1,0.1c0.3,0,0.6,0.1,0.8,0.2v1.6c-0.1-0.1-0.3-0.2-0.4-0.2
	s-0.3-0.1-0.4-0.2c-0.2,0-0.3-0.1-0.5-0.1c-0.1,0-0.3,0-0.4,0c-0.2,0-0.4,0-0.5,0.1c-0.2,0-0.3,0.1-0.4,0.2
	c-0.1,0.1-0.2,0.2-0.2,0.2c-0.1,0.1-0.1,0.2-0.1,0.3s0,0.2,0.1,0.3s0.2,0.2,0.3,0.3c0.1,0.1,0.3,0.2,0.4,0.3
	c0.2,0.1,0.4,0.2,0.6,0.3c0.3,0.1,0.5,0.3,0.8,0.4c0.2,0.1,0.4,0.3,0.6,0.5s0.3,0.4,0.4,0.6c0.1,0.2,0.1,0.5,0.1,0.8
	C26,16.1,25.9,16.5,25.8,16.8z"/>
</svg>
