<?xml version="1.0" encoding="utf-8"?>
<!-- Generator: Adobe Illustrator 21.1.0, SVG Export Plug-In . SVG Version: 6.00 Build 0)  -->
<svg version="1.1" id="Layer_1" xmlns="http://www.w3.org/2000/svg" xmlns:xlink="http://www.w3.org/1999/xlink" x="0px" y="0px"
	 viewBox="0 0 32 32" style="enable-background:new 0 0 32 32;" xml:space="preserve">
<style type="text/css">
	.Black{fill:#727272;}
	.Blue{fill:#1177D7;}
</style>
<path class="Black" d="M24,20v6H8v-6h10v-4H8V6H5C4.4,6,4,6.4,4,7v22c0,0.6,0.4,1,1,1h22c0.6,0,1-0.4,1-1v-9H24z M18,6h-8v8h8V6z
	 M14,12h-2V8h2V12z"/>
<path class="Blue" d="M31,2h-5h-2l-4,4v2v9c0,0.6,0.4,1,1,1h10c0.6,0,1-0.4,1-1V3C32,2.4,31.6,2,31,2z M30,16h-8V8h3
	c0.6,0,1-0.4,1-1V4h4V16z"/>
</svg>
