<?xml version="1.0" encoding="utf-8"?>
<!-- Generator: Adobe Illustrator 21.1.0, SVG Export Plug-In . SVG Version: 6.00 Build 0)  -->
<svg version="1.1" id="Layer_1" xmlns="http://www.w3.org/2000/svg" xmlns:xlink="http://www.w3.org/1999/xlink" x="0px" y="0px"
	 viewBox="0 0 32 32" style="enable-background:new 0 0 32 32;" xml:space="preserve">
<style type="text/css">
	.Yellow{fill:#FFB115;}
</style>
<path class="Yellow" d="M16,30c1.1,0,2-0.9,2-2h-4C14,29.1,14.9,30,16,30z"/>
<path class="Yellow" d="M24,18v-6c0-3.7-2.6-6.9-6-7.7c0-0.1,0-0.2,0-0.3c0-1.1-0.9-2-2-2s-2,0.9-2,2c0,0.1,0,0.2,0,0.3
	c-3.5,0.9-6,4-6,7.7v6l-4,4v4h24v-4L24,18z"/>
</svg>
