<?xml version="1.0" encoding="utf-8"?>
<!-- Generator: Adobe Illustrator 21.1.0, SVG Export Plug-In . SVG Version: 6.00 Build 0)  -->
<svg version="1.1" id="Layer_1" xmlns="http://www.w3.org/2000/svg" xmlns:xlink="http://www.w3.org/1999/xlink" x="0px" y="0px"
	 viewBox="0 0 32 32" style="enable-background:new 0 0 32 32;" xml:space="preserve">
<style type="text/css">
	.Yellow{fill:#FFB115;}
</style>
<path class="Yellow" d="M0.2,27.2l5.5-14C6,12.5,6.7,12,7.5,12H24V9c0-0.6-0.4-1-1-1H10V5c0-0.6-0.4-1-1-1H1C0.4,4,0,4.4,0,5v22
	c0,0.2,0,0.3,0.1,0.4C0.1,27.3,0.2,27.3,0.2,27.2z"/>
<path class="Yellow" d="M31.3,14H7.6L2,28h21.8c0.5,0,1.1-0.3,1.3-0.7L32,14.7C32.1,14.3,31.8,14,31.3,14z"/>
</svg>
