<?xml version="1.0" encoding="utf-8"?>
<!-- Generator: Adobe Illustrator 21.1.0, SVG Export Plug-In . SVG Version: 6.00 Build 0)  -->
<svg version="1.1" id="Layer_1" xmlns="http://www.w3.org/2000/svg" xmlns:xlink="http://www.w3.org/1999/xlink" x="0px" y="0px"
	 viewBox="0 0 32 32" style="enable-background:new 0 0 32 32;" xml:space="preserve">
<style type="text/css">
	.Green{fill:#039C23;}
	.Blue{fill:#1177D7;}
	.Black{fill:#727272;}
	.Yellow{fill:#FFB115;}
	.White{fill:#FFFFFF;}
	.Red{fill:#D11C1C;}
	.st0{opacity:0.2;}
</style>
<g>
	<path class="Black" d="M4,24V8h4h2v5c0,0.6,0.4,1,1,1h5v2h2v-2v-2l-6-6h-2V2h6v5c0,0.6,0.4,1,1,1h5v8h2V8V6l-6-6h-2H9
		C8.4,0,8,0.4,8,1v5H3C2.4,6,2,6.4,2,7v18c0,0.6,0.4,1,1,1h3v-2H4z"/>
</g>
<polygon class="Blue" points="10,24 8,26 8,32 14,32 16,30 16,24 "/>
<g class="st0">
	<polygon class="White" points="14,26 8,26 10,24 16,24 	"/>
</g>
<g class="st0">
	<polygon class="Red" points="16,30 14,32 14,26 16,24 	"/>
</g>
<polygon class="Green" points="20,24 18,26 18,32 24,32 26,30 26,24 "/>
<g class="st0">
	<polygon class="White" points="24,26 18,26 20,24 26,24 	"/>
</g>
<g class="st0">
	<polygon class="Red" points="26,30 24,32 24,26 26,24 	"/>
</g>
<polygon class="Red" points="20,18 14,18 12,20 12,22 20,22 "/>
<g class="st0">
	<polygon class="White" points="18,20 12,20 14,18 20,18 	"/>
</g>
<g class="st0">
	<polygon class="Blue" points="20,22 18,22 18,20 20,18 	"/>
</g>
<polygon class="Yellow" points="24,18 22,20 22,22 28,22 28,26 30,24 30,18 "/>
<g class="st0">
	<polygon class="White" points="28,20 22,20 24,18 30,18 	"/>
</g>
<g class="st0">
	<polygon class="Red" points="30,24 28,26 28,20 30,18 	"/>
</g>
</svg>
