<?xml version="1.0" encoding="utf-8"?>
<!-- Generator: Adobe Illustrator 21.1.0, SVG Export Plug-In . SVG Version: 6.00 Build 0)  -->
<svg version="1.1" id="Hyperlink_1_" xmlns="http://www.w3.org/2000/svg" xmlns:xlink="http://www.w3.org/1999/xlink" x="0px"
	 y="0px" viewBox="0 0 32 32" style="enable-background:new 0 0 32 32;" xml:space="preserve">
<style type="text/css">
	.Black{fill:#727272;}
</style>
<path class="Black" d="M15.4,22.2l-5.2,5.2c-0.8,0.8-2,0.8-2.8,0l-2.8-2.8c-0.8-0.8-0.8-2,0-2.8l5.2-5.2c0.6-0.6,1.4-0.7,2.2-0.4
	c0.4,0.2,0.8,0.1,1.1-0.2l0.1-0.1c0.5-0.5,0.3-1.3-0.3-1.6c-1.5-0.7-3.3-0.4-4.5,0.8l-5.2,5.2c-1.6,1.6-1.6,4.1,0,5.7L6,28.8
	c1.6,1.6,4.1,1.6,5.7,0l5.2-5.2c1.2-1.2,1.5-3,0.8-4.5c-0.3-0.6-1.1-0.7-1.6-0.3L16,19c-0.3,0.3-0.3,0.7-0.2,1.1
	C16.1,20.8,16,21.7,15.4,22.2z"/>
<path class="Black" d="M28.8,6L26,3.2c-1.6-1.6-4.1-1.6-5.7,0l-5.2,5.2c-1.2,1.2-1.5,3-0.8,4.5c0.3,0.6,1.1,0.7,1.6,0.3L16,13
	c0.3-0.3,0.3-0.7,0.2-1.1c-0.3-0.7-0.2-1.6,0.4-2.2l5.2-5.2c0.8-0.8,2-0.8,2.8,0l2.8,2.8c0.8,0.8,0.8,2,0,2.8l-5.2,5.2
	c-0.6,0.6-1.4,0.7-2.2,0.4c-0.4-0.2-0.8-0.1-1.1,0.2l-0.1,0.1c-0.5,0.5-0.3,1.3,0.3,1.6c1.5,0.7,3.3,0.4,4.5-0.8l5.2-5.2
	C30.4,10.1,30.4,7.6,28.8,6z"/>
<path class="Black" d="M7.7,6.3l4,4c0.4,0.4,0.4,1,0,1.4l0,0c-0.4,0.4-1,0.4-1.4,0l-4-4c-0.4-0.4-0.4-1,0-1.4l0,0
	C6.7,5.9,7.3,5.9,7.7,6.3z"/>
<path class="Black" d="M21.7,20.3l4,4c0.4,0.4,0.4,1,0,1.4l0,0c-0.4,0.4-1,0.4-1.4,0l-4-4c-0.4-0.4-0.4-1,0-1.4l0,0
	C20.7,19.9,21.3,19.9,21.7,20.3z"/>
</svg>
