<?xml version="1.0" encoding="utf-8"?>
<!-- Generator: Adobe Illustrator 21.1.0, SVG Export Plug-In . SVG Version: 6.00 Build 0)  -->
<svg version="1.1" id="Layer_1" xmlns="http://www.w3.org/2000/svg" xmlns:xlink="http://www.w3.org/1999/xlink" x="0px" y="0px"
	 viewBox="0 0 32 32" style="enable-background:new 0 0 32 32;" xml:space="preserve">
<style type="text/css">
	.Black{fill:#727272;}
	.Red{fill:#D11C1C;}
</style>
<path class="Red" d="M16.8,14c-1.5,0.2-2.6,1.2-2.8,2.7c0,0,0,0.1,0,0.1L10,24l7.2-4c0.1,0,0.1,0,0.2,0c0.9-0.1,1.7-0.6,2.2-1.4
	c0.1-0.2,0.2-0.3,0.2-0.5c0-0.1,0.1-0.2,0.1-0.3c0,0,0,0,0-0.1c0-0.2,0.1-0.3,0.1-0.5l4-7.2L16.8,14z M17,18c-0.6,0-1-0.4-1-1
	c0-0.6,0.4-1,1-1c0.6,0,1,0.4,1,1C18,17.6,17.6,18,17,18z"/>
<path class="Black" d="M17,2C8.7,2,2,8.7,2,17c0,8.3,6.7,15,15,15c8.3,0,15-6.7,15-15C32,8.7,25.3,2,17,2z M18,29.9V28h-2v1.9
	C9.6,29.5,4.5,24.4,4.1,18H6v-2H4.1C4.5,9.6,9.6,4.5,16,4.1V6h2V4.1C24.4,4.5,29.5,9.6,29.9,16H28v2h1.9
	C29.5,24.4,24.4,29.5,18,29.9z"/>
</svg>
