<?xml version="1.0" encoding="utf-8"?>
<!-- Generator: Adobe Illustrator 21.1.0, SVG Export Plug-In . SVG Version: 6.00 Build 0)  -->
<svg version="1.1" id="Layer_1" xmlns="http://www.w3.org/2000/svg" xmlns:xlink="http://www.w3.org/1999/xlink" x="0px" y="0px"
	 viewBox="0 0 32 32" style="enable-background:new 0 0 32 32;" xml:space="preserve">
<style type="text/css">
	.Black{fill:#727272;}
	.Green{fill:#039C23;}
</style>
<path class="Black" d="M8,16V6H5C4.4,6,4,6.4,4,7v22c0,0.6,0.4,1,1,1h22c0.6,0,1-0.4,1-1V16H8z M8,26v-6h16v6H8z"/>
<path class="Black" d="M18,6h-8v8h8V6z M14,12h-2V8h2V12z"/>
<path class="Green" d="M26,2c-3.3,0-6,2.7-6,6s2.7,6,6,6s6-2.7,6-6S29.3,2,26,2z M26,11.8c-0.4,0-0.7-0.3-0.7-0.7
	c0-0.4,0.3-0.7,0.7-0.7s0.7,0.3,0.7,0.7C26.7,11.5,26.4,11.8,26,11.8z M26.7,9.4v0.3h-1.4V9.5c0-0.3,0.1-1.1,0.6-1.5
	c0.2-0.2,1.4-0.6,1.6-1.7c0-0.3-0.1-0.5-0.3-0.7s-0.5-0.3-0.9-0.3c-0.9,0-1.4,1-1.4,1.4h-1.4c0-0.8,0.3-1.4,0.8-1.9s1.2-0.7,2-0.7
	s1.5,0.2,1.9,0.6c0.5,0.4,0.7,0.9,0.7,1.6C28.6,8.2,26.7,8.5,26.7,9.4z"/>
</svg>
