<?xml version="1.0" encoding="utf-8"?>
<!-- Generator: Adobe Illustrator 21.1.0, SVG Export Plug-In . SVG Version: 6.00 Build 0)  -->
<svg version="1.1" id="Layer_1" xmlns="http://www.w3.org/2000/svg" xmlns:xlink="http://www.w3.org/1999/xlink" x="0px" y="0px"
	 viewBox="0 0 32 32" style="enable-background:new 0 0 32 32;" xml:space="preserve">
<style type="text/css">
	.Black{fill:#727272;}
	.Yellow{fill:#FFB115;}
</style>
<path class="Yellow" d="M10,24l-4,4H3c-0.6,0-1-0.4-1-1V5c0-0.6,0.4-1,1-1h3v20H10z M23,4h-3v10l4-4V4.8C24,4.4,23.6,4,23,4z"/>
<path class="Black" d="M16,4V3c0-0.6-0.4-1-1-1h-4c-0.6,0-1,0.4-1,1v1H8v3c0,0.6,0.4,1,1,1h8c0.6,0,1-0.4,1-1V4H16z"/>
<path class="Yellow" d="M8,30h22V8L8,30z M26,26h-8l8-8V26z"/>
<rect x="8" y="10" class="Black" width="10" height="2"/>
<rect x="8" y="14" class="Black" width="10" height="2"/>
<polygon class="Black" points="14,20 8,20 8,18 16,18 "/>
</svg>
