<?xml version="1.0" encoding="utf-8"?>
<!-- Generator: Adobe Illustrator 21.1.0, SVG Export Plug-In . SVG Version: 6.00 Build 0)  -->
<svg version="1.1" id="Layer_1" xmlns="http://www.w3.org/2000/svg" xmlns:xlink="http://www.w3.org/1999/xlink" x="0px" y="0px"
	 viewBox="0 0 32 32" style="enable-background:new 0 0 32 32;" xml:space="preserve">
<style type="text/css">
	.Black{fill:#727272;}
	.Yellow{fill:#FFB115;}
	.Blue{fill:#1177D7;}
	.Green{fill:#039C23;}
	.Red{fill:#D11C1C;}
</style>
<path class="Blue" d="M29,29l-5.9-5.9c0.6-0.9,0.9-2,0.9-3.1c0-3.3-2.7-6-6-6s-6,2.7-6,6s2.7,6,6,6c1.1,0,2.2-0.3,3.1-0.9L27,31
	c0.6,0.6,1.4,0.6,2,0S29.6,29.6,29,29z M14,20c0-2.2,1.8-4,4-4s4,1.8,4,4s-1.8,4-4,4S14,22.2,14,20z"/>
<path class="Black" d="M27,2H5C4.4,2,4,2.4,4,3v26c0,0.6,0.4,1,1,1h18l-2-2H6V4h20v19l2,2V3C28,2.4,27.6,2,27,2z"/>
<path class="Green" d="M12,10H8v8h2.3c0.3-1.2,0.9-2.3,1.7-3.2V10z"/>
<path class="Yellow" d="M18,8h-4v5.1c1.2-0.7,2.5-1.1,4-1.1V8z"/>
<path class="Red" d="M24,14.7V6h-4v6.3C21.6,12.7,23,13.5,24,14.7z"/>
</svg>
