<?xml version="1.0" encoding="utf-8"?>
<!-- Generator: Adobe Illustrator 21.1.0, SVG Export Plug-In . SVG Version: 6.00 Build 0)  -->
<svg version="1.1" id="Hyperlink_1_" xmlns="http://www.w3.org/2000/svg" xmlns:xlink="http://www.w3.org/1999/xlink" x="0px"
	 y="0px" viewBox="0 0 32 32" style="enable-background:new 0 0 32 32;" xml:space="preserve">
<style type="text/css">
	.Black{fill:#727272;}
</style>
<path id="Hyperlink_2_" class="Black" d="M21.7,11.7c0.4-0.4,0.4-1,0-1.4l0,0c-0.4-0.4-1-0.4-1.4,0l-10,10c-0.4,0.4-0.4,1,0,1.4l0,0
	c0.4,0.4,1,0.4,1.4,0L21.7,11.7z"/>
<path class="Black" d="M15.4,22.2l-5.2,5.2c-0.8,0.8-2,0.8-2.8,0l-2.8-2.8c-0.8-0.8-0.8-2,0-2.8l5.2-5.2c0.8-0.8,1.9-0.8,2.7-0.1
	l1.4-1.4c-1.6-1.5-4-1.5-5.6,0.1l-5.2,5.2c-1.6,1.6-1.6,4.1,0,5.7L6,28.8c1.6,1.6,4.1,1.6,5.7,0l5.2-5.2c1.5-1.5,1.6-4,0.1-5.6
	l-1.4,1.4C16.2,20.3,16.2,21.5,15.4,22.2z"/>
<path class="Black" d="M28.8,6L26,3.2c-1.6-1.6-4.1-1.6-5.7,0l-5.2,5.2c-1.5,1.5-1.6,4-0.1,5.6l1.4-1.4c-0.7-0.8-0.7-2,0.1-2.7
	l5.2-5.2c0.8-0.8,2-0.8,2.8,0l2.8,2.8c0.8,0.8,0.8,2,0,2.8l-5.2,5.2c-0.8,0.8-1.9,0.8-2.7,0.1l-1.4,1.4c1.6,1.5,4,1.5,5.6-0.1
	l5.2-5.2C30.4,10.1,30.4,7.6,28.8,6z"/>
</svg>
