<?xml version="1.0" encoding="utf-8"?>
<!-- Generator: Adobe Illustrator 21.1.0, SVG Export Plug-In . SVG Version: 6.00 Build 0)  -->
<svg version="1.1" id="Layer_1" xmlns="http://www.w3.org/2000/svg" xmlns:xlink="http://www.w3.org/1999/xlink" x="0px" y="0px"
	 viewBox="0 0 32 32" style="enable-background:new 0 0 32 32;" xml:space="preserve">
<style type="text/css">
	.Black{fill:#727272;}
	.Yellow{fill:#FFB115;}
</style>
<path class="Black" d="M23,12c-3.9,0-7,3.1-7,7c0,0.9,0.2,1.7,0.5,2.5L10,28v4h4v-2h2v-2h2l2.5-2.5c0.8,0.3,1.6,0.5,2.5,0.5
	c3.9,0,7-3.1,7-7S26.9,12,23,12z M24,20c-1.1,0-2-0.9-2-2s0.9-2,2-2s2,0.9,2,2S25.1,20,24,20z"/>
<path class="Yellow" d="M14,19c0-3.9,2.5-7.2,5.9-8.4C19.7,10.2,19.4,10,19,10h-1V6c0-3.3-2.7-6-6-6h-2C6.7,0,4,2.7,4,6v4H3
	c-0.5,0-1,0.5-1,1v12c0,0.5,0.5,1,1,1h7l4.1-4.1C14,19.6,14,19.3,14,19z M6,6c0-2.2,1.8-4,4-4h2c2.2,0,4,1.8,4,4v4H6V6z"/>
</svg>
