<?xml version="1.0" encoding="utf-8"?>
<!-- Generator: Adobe Illustrator 21.1.0, SVG Export Plug-In . SVG Version: 6.00 Build 0)  -->
<svg version="1.1" id="Layer_1" xmlns="http://www.w3.org/2000/svg" xmlns:xlink="http://www.w3.org/1999/xlink" x="0px" y="0px"
	 viewBox="0 0 32 32" style="enable-background:new 0 0 32 32;" xml:space="preserve">
<style type="text/css">
	.Black{fill:#727272;}
	.Green{fill:#039C23;}
</style>
<path class="Black" d="M23,10c-3.9,0-7,3.1-7,7c0,0.9,0.2,1.7,0.5,2.5L10,26v4h4v-2h2v-2h2l2.5-2.5c0.8,0.3,1.6,0.5,2.5,0.5
	c3.9,0,7-3.1,7-7S26.9,10,23,10z M24,18c-1.1,0-2-0.9-2-2s0.9-2,2-2s2,0.9,2,2S25.1,18,24,18z"/>
<path class="Green" d="M16,2v6h-0.1h-2H10l2.5-2.5C11.6,4.6,10.4,4,9,4C6.6,4,4.6,5.7,4.1,8h-2C2.6,4.6,5.5,2,9,2
	c1.9,0,3.7,0.8,4.9,2.1L16,2z M9,14c-1.4,0-2.6-0.6-3.5-1.5L8,10H4.1h-2H2v6l2.1-2.1C5.4,15.2,7.1,16,9,16c3.5,0,6.4-2.6,6.9-6h-2
	C13.4,12.3,11.4,14,9,14z"/>
</svg>
