<?xml version="1.0" encoding="utf-8"?>
<!-- Generator: Adobe Illustrator 21.1.0, SVG Export Plug-In . SVG Version: 6.00 Build 0)  -->
<svg version="1.1" id="Layer_1" xmlns="http://www.w3.org/2000/svg" xmlns:xlink="http://www.w3.org/1999/xlink" x="0px" y="0px"
	 viewBox="0 0 32 32" style="enable-background:new 0 0 32 32;" xml:space="preserve">
<style type="text/css">
	.Black{fill:#727272;}
	.Red_x0020_2{fill:#D11C1C;}
</style>
<path class="Black" d="M28,14v15c0,0.5-0.5,1-1,1H3c-0.5,0-1-0.5-1-1V5c0-0.5,0.5-1,1-1h15l2,2H4v22h22V12L28,14z"/>
<rect x="6" y="20" class="Black" width="18" height="6"/>
<rect x="6" y="8" class="Black" width="8" height="10"/>
<polygon class="Red_x0020_2" points="30,4 28,2 25,5 22,2 20,4 23,7 20,10 22,12 25,9 28,12 30,10 27,7 "/>
<polygon class="Black" points="22,14 18,10 20,8 16,8 16,10 16,12 16,18 24,18 24,18 24,18 24,15 24,12 "/>
</svg>
