<?xml version="1.0" encoding="utf-8"?>
<!-- Generator: Adobe Illustrator 21.1.0, SVG Export Plug-In . SVG Version: 6.00 Build 0)  -->
<svg version="1.1" id="Layer_1" xmlns="http://www.w3.org/2000/svg" xmlns:xlink="http://www.w3.org/1999/xlink" x="0px" y="0px"
	 viewBox="0 0 32 32" style="enable-background:new 0 0 32 32;" xml:space="preserve">
<style type="text/css">
	.Black{fill:#727272;}
</style>
<path class="Black" d="M21,2H11c-0.5,0-1,0.5-1,1v5H5C4.5,8,4,8.5,4,9v20c0,0.5,0.5,1,1,1h16c0.5,0,1-0.5,1-1v-5h5c0.5,0,1-0.5,1-1
	V9L21,2z M20,28H6V10h8v5c0,0.5,0.5,1,1,1h5V28z M26,22h-4v-7l-7-7h-3V4h8v5c0,0.5,0.5,1,1,1h5V22z"/>
</svg>
