<?xml version="1.0" encoding="utf-8"?>
<!-- Generator: Adobe Illustrator 21.1.0, SVG Export Plug-In . SVG Version: 6.00 Build 0)  -->
<svg version="1.1" id="Layer_1" xmlns="http://www.w3.org/2000/svg" xmlns:xlink="http://www.w3.org/1999/xlink" x="0px" y="0px"
	 viewBox="0 0 32 32" style="enable-background:new 0 0 32 32;" xml:space="preserve">
<style type="text/css">
	.Yellow{fill:#FFB115;}
	.Black{fill:#727272;}
</style>
<path class="Yellow" d="M12,24v4H5c-0.6,0-1-0.4-1-1V5c0-0.6,0.4-1,1-1h3v20H12z M25,4h-3v6h4V4.8C26,4.4,25.6,4,25,4z"/>
<path class="Black" d="M27,12H15c-0.6,0-1,0.4-1,1v16c0,0.6,0.4,1,1,1h12c0.6,0,1-0.4,1-1V13C28,12.4,27.6,12,27,12z M26,28H16V14
	h10V28z M24,20h-6v-2h6V20z M24,24h-6v-2h6V24z"/>
<path class="Black" d="M18,4V3c0-0.6-0.4-1-1-1h-4c-0.6,0-1,0.4-1,1v1h-2v3c0,0.6,0.4,1,1,1h8c0.6,0,1-0.4,1-1V4H18z"/>
</svg>
