<?xml version="1.0" encoding="utf-8"?>
<!-- Generator: Adobe Illustrator 21.1.0, SVG Export Plug-In . SVG Version: 6.00 Build 0)  -->
<svg version="1.1" id="Layer_1" xmlns="http://www.w3.org/2000/svg" xmlns:xlink="http://www.w3.org/1999/xlink" x="0px" y="0px"
	 viewBox="0 0 32 32" style="enable-background:new 0 0 32 32;" xml:space="preserve">
<style type="text/css">
	.Green{fill:#039C23;}
	.Black{fill:#727272;}
	.Blue{fill:#1177D7;}
</style>
<path class="Blue" d="M30,16v6h-0.1h-2H24l2.5-2.5C25.6,18.6,24.4,18,23,18c-2.4,0-4.4,1.7-4.9,4h-2c0.5-3.4,3.4-6,6.9-6
	c1.9,0,3.7,0.8,4.9,2.1L30,16z M23,28c-1.4,0-2.6-0.6-3.5-1.5L22,24h-3.9h-2H16v6l2.1-2.1c1.3,1.3,3,2.1,4.9,2.1
	c3.5,0,6.4-2.6,6.9-6h-2C27.4,26.3,25.4,28,23,28z"/>
<path class="Green" d="M23,14c0.3,0,0.7,0,1,0.1V4L14,14l-4-4l-4,4v6h8.1l0.4,0C15.7,16.5,19.1,14,23,14z"/>
<path class="Black" d="M14.1,22H4V2H2v20v2h2h10.1c0-0.3-0.1-0.7-0.1-1S14,22.3,14.1,22z"/>
</svg>
