<?xml version="1.0" encoding="utf-8"?>
<!-- Generator: Adobe Illustrator 21.1.0, SVG Export Plug-In . SVG Version: 6.00 Build 0)  -->
<svg version="1.1" id="Layer_1" xmlns="http://www.w3.org/2000/svg" xmlns:xlink="http://www.w3.org/1999/xlink" x="0px" y="0px"
	 viewBox="0 0 32 32" style="enable-background:new 0 0 32 32;" xml:space="preserve">
<style type="text/css">
	.Black{fill:#727272;}
	.Blue{fill:#1177D7;}
	.Green{fill:#039C23;}
</style>
<path class="Blue" d="M31,29l-5.9-5.9c0.6-0.9,0.9-2,0.9-3.1c0-3.3-2.7-6-6-6s-6,2.7-6,6s2.7,6,6,6c1.1,0,2.2-0.3,3.1-0.9L29,31
	c0.6,0.6,1.4,0.6,2,0S31.6,29.6,31,29z M16,20c0-2.2,1.8-4,4-4s4,1.8,4,4s-1.8,4-4,4S16,22.2,16,20z"/>
<path class="Green" d="M20,12c1.5,0,2.8,0.4,4,1.1V2L14,12l-4-4l-4,4v6h6.3C13.2,14.6,16.3,12,20,12z"/>
<path class="Black" d="M4,20V0H2v20v2h2h8.3c-0.2-0.6-0.3-1.3-0.3-2H4z"/>
</svg>
