<?xml version="1.0" encoding="utf-8"?>
<!-- Generator: Adobe Illustrator 21.1.0, SVG Export Plug-In . SVG Version: 6.00 Build 0)  -->
<svg version="1.1" id="Layer_1" xmlns="http://www.w3.org/2000/svg" xmlns:xlink="http://www.w3.org/1999/xlink" x="0px" y="0px"
	 viewBox="0 0 32 32" style="enable-background:new 0 0 32 32;" xml:space="preserve">
<style type="text/css">
	.Black{fill:#727272;}
	.Red{fill:#D11C1C;}
	.Yellow{fill:#FFB115;}
	.st0{opacity:0.4;}
</style>
<path class="Black" d="M8,4h18v4h2V3c0-0.5-0.5-1-1-1H7C6.5,2,6,2.5,6,3v5h2V4z"/>
<path class="Black" d="M26,28H8V18H6v11c0,0.5,0.5,1,1,1h20c0.5,0,1-0.5,1-1V18h-2V28z"/>
<path class="Yellow" d="M29,8H5C4.4,8,4,8.4,4,9v10c0,0.6,0.4,1,1,1h24c0.6,0,1-0.4,1-1V9C30,8.4,29.6,8,29,8z M13.9,18h-1.5v-4.6
	c0-0.5,0-1,0.1-1.6l0,0c-0.1,0.5-0.2,0.8-0.2,1L10.5,18H9.3l-1.7-5.2c0-0.1-0.1-0.5-0.2-1.1l0,0c0,0.8,0.1,1.4,0.1,2V18H6v-7.7h2.3
	l1.4,4.6c0.1,0.4,0.2,0.7,0.2,1.1l0,0c0.1-0.4,0.2-0.8,0.3-1.1l1.4-4.6h2.2V18H13.9z M21.5,18H20v-3.1h-2.9V18h-1.6v-7.7h1.6v3.1H20
	v-3.1h1.6V18H21.5z M28,11.7h-2V18h-1.6v-6.3h-2v-1.4H28V11.7z"/>
<g class="st0">
	<path class="Red" d="M29,8H5C4.4,8,4,8.4,4,9v10c0,0.6,0.4,1,1,1h24c0.6,0,1-0.4,1-1V9C30,8.4,29.6,8,29,8z M13.9,18h-1.5v-4.6
		c0-0.5,0-1,0.1-1.6l0,0c-0.1,0.5-0.2,0.8-0.2,1L10.5,18H9.3l-1.7-5.2c0-0.1-0.1-0.5-0.2-1.1l0,0c0,0.8,0.1,1.4,0.1,2V18H6v-7.7h2.3
		l1.4,4.6c0.1,0.4,0.2,0.7,0.2,1.1l0,0c0.1-0.4,0.2-0.8,0.3-1.1l1.4-4.6h2.2V18H13.9z M21.5,18H20v-3.1h-2.9V18h-1.6v-7.7h1.6v3.1
		H20v-3.1h1.6V18H21.5z M28,11.7h-2V18h-1.6v-6.3h-2v-1.4H28V11.7z"/>
</g>
</svg>
