<?xml version="1.0" encoding="utf-8"?>
<!-- Generator: Adobe Illustrator 21.1.0, SVG Export Plug-In . SVG Version: 6.00 Build 0)  -->
<svg version="1.1" id="Layer_1" xmlns="http://www.w3.org/2000/svg" xmlns:xlink="http://www.w3.org/1999/xlink" x="0px" y="0px"
	 viewBox="0 0 32 32" style="enable-background:new 0 0 32 32;" xml:space="preserve">
<style type="text/css">
	.Yellow{fill:#FFB115;}
	.Black{fill:#727272;}
</style>
<path class="Yellow" d="M8,30h22V8L8,30z M26,26h-8l8-8V26z"/>
<path class="Black" d="M4,22V4h18v7l2-2V3c0-0.6-0.4-1-1-1H3C2.4,2,2,2.4,2,3v20c0,0.6,0.4,1,1,1h6l2-2H4z"/>
<polygon class="Yellow" points="18,8 8,8 8,10 11,13 8,16 8,18 14,18 16,16 11,16 14,13 11,10 18,10 "/>
</svg>
