<?xml version="1.0" encoding="utf-8"?>
<!-- Generator: Adobe Illustrator 21.1.0, SVG Export Plug-In . SVG Version: 6.00 Build 0)  -->
<svg version="1.1" id="Layer_1" xmlns="http://www.w3.org/2000/svg" xmlns:xlink="http://www.w3.org/1999/xlink" x="0px" y="0px"
	 viewBox="0 0 32 32" style="enable-background:new 0 0 32 32;" xml:space="preserve">
<style type="text/css">
	.Black{fill:#727272;}
	.Green{fill:#039C23;}
</style>
<path class="Black" d="M18,20c0-2.2,1.8-4,4-4s4,1.8,4,4h2c0-0.8-0.2-1.6-0.5-2.3L21.8,4c-0.4-1.2-1.5-2-2.8-2c-1.7,0-3,1.3-3,3v3
	h-4V5c0-1.7-1.3-3-3-3C7.7,2,6.6,2.9,6.2,4L0.5,17.7C0.2,18.4,0,19.2,0,20c0,3.3,2.7,6,6,6s6-2.7,6-6v-4h4v4c0,3.3,2.7,6,6,6v-2
	C19.8,24,18,22.2,18,20z M6,24c-2.2,0-4-1.8-4-4s1.8-4,4-4s4,1.8,4,4S8.2,24,6,24z"/>
<path class="Green" d="M31,30h-6c-0.6,0-1-0.4-1-1v-6c0-0.6,0.4-1,1-1h6c0.6,0,1,0.4,1,1v6C32,29.6,31.6,30,31,30z"/>
</svg>
