<?xml version="1.0" encoding="utf-8"?>
<!-- Generator: Adobe Illustrator 21.1.0, SVG Export Plug-In . SVG Version: 6.00 Build 0)  -->
<svg version="1.1" id="Layer_1" xmlns="http://www.w3.org/2000/svg" xmlns:xlink="http://www.w3.org/1999/xlink" x="0px" y="0px"
	 viewBox="0 0 32 32" style="enable-background:new 0 0 32 32;" xml:space="preserve">
<style type="text/css">
	.Black{fill:#727272;}
	.Blue{fill:#1177D7;}
</style>
<path class="Black" d="M6,28V4h14v5c0,0.6,0.4,1,1,1h5v2h2V9l-7-7H5C4.4,2,4,2.4,4,3v26c0,0.6,0.4,1,1,1h7v-2"/>
<path class="Black" d="M18,28L18,28L18,28"/>
<path class="Blue" d="M27,21l-8,8l-4-4l8-8L27,21z M28,20l1.7-1.7c0.4-0.4,0.4-1,0-1.3L27,14.3c-0.4-0.4-1-0.4-1.3,0L24,16L28,20z
	 M14,26v4h4L14,26z"/>
</svg>
