<?xml version="1.0" encoding="utf-8"?>
<!-- Generator: Adobe Illustrator 21.1.0, SVG Export Plug-In . SVG Version: 6.00 Build 0)  -->
<svg version="1.1" id="Layer_1" xmlns="http://www.w3.org/2000/svg" xmlns:xlink="http://www.w3.org/1999/xlink" x="0px" y="0px"
	 viewBox="0 0 32 32" style="enable-background:new 0 0 32 32;" xml:space="preserve">
<style type="text/css">
	.Black{fill:#727272;}
	.Green{fill:#039C23;}
	.Red{fill:#D11C1C;}
	.Yellow{fill:#FFB115;}
</style>
<rect y="14" class="Green" width="6" height="12"/>
<rect x="8" y="8" class="Yellow" width="6" height="18"/>
<path class="Red" d="M22,16V2h-6v17.8C17.4,17.9,19.6,16.5,22,16z"/>
<g>
	<g>
		<path class="Black" d="M24,18c-4.4,0-8,6-8,6s3.6,6,8,6s8-6,8-6S28.4,18,24,18z M24,28c-2.2,0-4-1.8-4-4s1.8-4,4-4
			c2.2,0,4,1.8,4,4S26.2,28,24,28z"/>
	</g>
	<g>
		<path class="Black" d="M24,18c-4.4,0-8,6-8,6s3.6,6,8,6s8-6,8-6S28.4,18,24,18z M24,28c-2.2,0-4-1.8-4-4s1.8-4,4-4
			c2.2,0,4,1.8,4,4S26.2,28,24,28z"/>
	</g>
</g>
<circle class="Black" cx="24" cy="24" r="2"/>
</svg>
