<?xml version="1.0" encoding="utf-8"?>
<!-- Generator: Adobe Illustrator 21.1.0, SVG Export Plug-In . SVG Version: 6.00 Build 0)  -->
<svg version="1.1" id="Layer_1" xmlns="http://www.w3.org/2000/svg" xmlns:xlink="http://www.w3.org/1999/xlink" x="0px" y="0px"
	 viewBox="0 0 32 32" style="enable-background:new 0 0 32 32;" xml:space="preserve">
<style type="text/css">
	.Black{fill:#727272;}
	.Blue{fill:#1177D7;}
	.Red{fill:#D11C1C;}
</style>
<polygon class="Red" points="30,22 28,20 24,24 20,20 18,22 22,26 18,30 20,32 24,28 28,32 30,30 26,26 "/>
<g>
	<path class="Black" d="M8,26v-4v-2v-6H6v6H4V6h16v8h2V5c0-0.6-0.4-1-1-1H3C2.4,4,2,4.4,2,5v16c0,0.6,0.4,1,1,1h3v5c0,0.5,0.5,1,1,1
		h9l2-2H8z"/>
	<polygon class="Black" points="26,14 24,14 24,20 26,18 	"/>
</g>
<path class="Blue" d="M26,11c0-0.6-0.4-1-1-1H7c-0.6,0-1,0.4-1,1v2v1v2h20V11z"/>
</svg>
