<?xml version="1.0" encoding="utf-8"?>
<!-- Generator: Adobe Illustrator 21.1.0, SVG Export Plug-In . SVG Version: 6.00 Build 0)  -->
<svg version="1.1" id="Layer_1" xmlns="http://www.w3.org/2000/svg" xmlns:xlink="http://www.w3.org/1999/xlink" x="0px" y="0px"
	 viewBox="0 0 32 32" style="enable-background:new 0 0 32 32;" xml:space="preserve">
<style type="text/css">
	.Black{fill:#727272;}
	.Blue{fill:#1177D7;}
	.st0{opacity:0.5;}
</style>
<rect x="6" y="12" class="Black" width="6" height="2"/>
<rect x="8" y="16" class="Black" width="4" height="2"/>
<path class="Blue" d="M29,4H3C2.4,4,2,4.4,2,5v22c0,0.6,0.4,1,1,1h26c0.6,0,1-0.4,1-1V5C30,4.4,29.6,4,29,4z M14,26H4v-2h10V26z
	 M14,22H4V10h10V22z M14,8H4V6h10V8z M28,26H16V6h12V26z"/>
<g class="st0">
	<rect x="4" y="4" class="Blue" width="10" height="4"/>
	<rect x="4" y="24" class="Blue" width="10" height="2"/>
</g>
</svg>
