<?xml version="1.0" encoding="utf-8"?>
<!-- Generator: Adobe Illustrator 21.1.0, SVG Export Plug-In . SVG Version: 6.00 Build 0)  -->
<svg version="1.1" id="Layer_1" xmlns="http://www.w3.org/2000/svg" xmlns:xlink="http://www.w3.org/1999/xlink" x="0px" y="0px"
	 viewBox="0 0 32 32" style="enable-background:new 0 0 32 32;" xml:space="preserve">
<style type="text/css">
	.Yellow{fill:#FFB115;}
	.Green{fill:#039C23;}
</style>
<path class="Green" d="M25.8,14c0.1-0.7,0.2-1.4,0.2-2c0-6,0-6,0-6L14,0L2,6c0,0,0,0,0,6c0,5.4,4.1,12.1,9.9,15.2
	c0.1,0,0.1,0.1,0.2,0.1L14,28l4-2l-6-6v-6H25.8z"/>
<polygon class="Yellow" points="14,16 30,16 30,18 24,24 24,28 20,32 20,24 14,18 "/>
</svg>
