<?xml version="1.0" encoding="utf-8"?>
<!-- Generator: Adobe Illustrator 21.1.0, SVG Export Plug-In . SVG Version: 6.00 Build 0)  -->
<svg version="1.1" id="Layer_1" xmlns="http://www.w3.org/2000/svg" xmlns:xlink="http://www.w3.org/1999/xlink" x="0px" y="0px"
	 viewBox="0 0 32 32" style="enable-background:new 0 0 32 32;" xml:space="preserve">
<style type="text/css">
	.Green{fill:#039C23;}
	.White{fill:#FFFFFF;}
	.Red{fill:#D11C1C;}
	.st0{opacity:0.2;}
</style>
<path class="Green" d="M22,12V2H4L2,4v18h10C12,16.5,16.5,12,22,12z"/>
<path class="Red" d="M22,14c-4.4,0-8,3.6-8,8s3.6,8,8,8s8-3.6,8-8S26.4,14,22,14z M22,16c1.1,0,2.2,0.3,3.1,0.9l-8.2,8.2
	c-0.6-0.9-0.9-2-0.9-3.1C16,18.7,18.7,16,22,16z M22,28c-1.4,0-2.7-0.5-3.7-1.3l8.4-8.4c0.8,1,1.3,2.3,1.3,3.7
	C28,25.3,25.3,28,22,28z"/>
<g class="st0">
	<path class="Red" d="M22,12c0,0-0.9,0-2,0.2V4l2-2V12z"/>
</g>
<g class="st0">
	<polygon class="White" points="20,4 2,4 4,2 22,2 	"/>
</g>
</svg>
