<?xml version="1.0" encoding="utf-8"?>
<!-- Generator: Adobe Illustrator 21.1.0, SVG Export Plug-In . SVG Version: 6.00 Build 0)  -->
<svg version="1.1" id="Layer_1" xmlns="http://www.w3.org/2000/svg" xmlns:xlink="http://www.w3.org/1999/xlink" x="0px" y="0px"
	 viewBox="0 0 32 32" style="enable-background:new 0 0 32 32;" xml:space="preserve">
<style type="text/css">
	.Black{fill:#727272;}
	.Blue{fill:#1177D7;}
	.Red{fill:#D11C1C;}
</style>
<path class="Blue" d="M16,0v10h10C26,4.5,21.5,0,16,0z"/>
<path class="Black" d="M6,16c-3.3,0-6,2.7-6,6s2.7,6,6,6s6-2.7,6-6S9.3,16,6,16z M9.4,24H8l-4-4v4H2.6C2.2,23.4,2,22.7,2,22
	c0-2.2,1.8-4,4-4c2.2,0,4,1.8,4,4C10,22.7,9.8,23.4,9.4,24z"/>
<g>
	<g>
		<path class="Red" d="M23.8,14c0.1-0.6,0.2-1.3,0.2-2H14V2C8.5,2,4,6.5,4,12c0,0.8,0.1,1.5,0.3,2.2C4.8,14.1,5.4,14,6,14
			c4.4,0,8,3.6,8,8c0.1,0,0.1,0,0.2,0C15.1,17.5,19.1,14.1,23.8,14z"/>
	</g>
	<g>
		<path class="Red" d="M23.8,14c0.1-0.6,0.2-1.3,0.2-2H14V2C8.5,2,4,6.5,4,12c0,0.8,0.1,1.5,0.3,2.2C4.8,14.1,5.4,14,6,14
			c4.4,0,8,3.6,8,8c0.1,0,0.1,0,0.2,0C15.1,17.5,19.1,14.1,23.8,14z"/>
	</g>
</g>
<path class="Blue" d="M24,16c-4.4,0-8,3.6-8,8s3.6,8,8,8s8-3.6,8-8S28.4,16,24,16z M29.9,23h-1c-0.1-1.2-0.3-2.3-0.7-3.3
	C29.1,20.6,29.7,21.7,29.9,23z M23,18.3V23h-2C21.2,20.8,22,19.1,23,18.3z M23,25v4.7c-1-0.7-1.8-2.5-2-4.7H23z M25,29.7V25h2
	C26.8,27.2,26,28.9,25,29.7z M25,23v-4.7c1,0.7,1.8,2.5,2,4.7H25z M19.8,19.7c-0.4,1-0.6,2.1-0.7,3.3h-1
	C18.3,21.7,18.9,20.6,19.8,19.7z M18.1,25h1c0.1,1.2,0.3,2.3,0.7,3.3C18.9,27.4,18.3,26.3,18.1,25z M28.2,28.3
	c0.4-1,0.6-2.1,0.7-3.3h1C29.7,26.3,29.1,27.4,28.2,28.3z"/>
</svg>
