<?xml version="1.0" encoding="utf-8"?>
<!-- Generator: Adobe Illustrator 21.1.0, SVG Export Plug-In . SVG Version: 6.00 Build 0)  -->
<svg version="1.1" id="Layer_1" xmlns="http://www.w3.org/2000/svg" xmlns:xlink="http://www.w3.org/1999/xlink" x="0px" y="0px"
	 viewBox="0 0 32 32" style="enable-background:new 0 0 32 32;" xml:space="preserve">
<style type="text/css">
	.Black{fill:#727272;}
	.Red{fill:#D11C1C;}
</style>
<path class="Red" d="M22,14c-4.4,0-8,3.6-8,8s3.6,8,8,8s8-3.6,8-8S26.4,14,22,14z M22,16c1.1,0,2.2,0.3,3.1,0.9l-8.2,8.2
	c-0.6-0.9-0.9-2-0.9-3.1C16,18.7,18.7,16,22,16z M22,28c-1.4,0-2.7-0.5-3.7-1.3l8.4-8.4c0.8,1,1.3,2.3,1.3,3.7
	C28,25.3,25.3,28,22,28z"/>
<path class="Black" d="M16.5,13.7L14.8,12l6.9-6.9c0.4-0.4,0.4-1,0-1.4l-1.4-1.4c-0.4-0.4-1-0.4-1.4,0L12,9.2L5.1,2.3
	c-0.4-0.4-1-0.4-1.4,0L2.3,3.7c-0.4,0.4-0.4,1,0,1.4L9.2,12l-6.9,6.9c-0.4,0.4-0.4,1,0,1.4l1.4,1.4c0.4,0.4,1,0.4,1.4,0l6.9-6.9
	l1.7,1.7C14.4,15.4,15.4,14.4,16.5,13.7z"/>
</svg>
