<?xml version="1.0" encoding="utf-8"?>
<!-- Generator: Adobe Illustrator 21.1.0, SVG Export Plug-In . SVG Version: 6.00 Build 0)  -->
<svg version="1.1" id="Layer_1" xmlns="http://www.w3.org/2000/svg" xmlns:xlink="http://www.w3.org/1999/xlink" x="0px" y="0px"
	 viewBox="0 0 32 32" style="enable-background:new 0 0 32 32;" xml:space="preserve">
<style type="text/css">
	.Black{fill:#727272;}
	.Blue{fill:#1177D7;}
	.Yellow{fill:#FFB115;}
</style>
<path class="Black" d="M29,14H13c-0.6,0-1,0.4-1,1v14c0,0.6,0.4,1,1,1h16c0.6,0,1-0.4,1-1V15C30,14.4,29.6,14,29,14z M28,28H14V16
	h14V28z"/>
<polygon class="Yellow" points="2,0 18,0 18,2 12,8 12,12 8,16 8,8 2,2 "/>
<polygon class="Blue" points="20,20 20,18 16,18 16,20 16,24 16,26 18,26 20,26 20,24 18,24 18,20 "/>
<polygon class="Blue" points="22,24 22,26 26,26 26,24 26,20 26,18 24,18 22,18 22,20 24,20 24,24 "/>
</svg>
