<?xml version="1.0" encoding="utf-8"?>
<!-- Generator: Adobe Illustrator 21.1.0, SVG Export Plug-In . SVG Version: 6.00 Build 0)  -->
<svg version="1.1" id="Layer_1" xmlns="http://www.w3.org/2000/svg" xmlns:xlink="http://www.w3.org/1999/xlink" x="0px" y="0px"
	 viewBox="0 0 32 32" style="enable-background:new 0 0 32 32;" xml:space="preserve">
<style type="text/css">
	.Green{fill:#039C23;}
	.Black{fill:#727272;}
	.Blue{fill:#1177D7;}
	.Red{fill:#D11C1C;}
</style>
<path class="Blue" d="M16,0v10h10C26,4.5,21.5,0,16,0z"/>
<path class="Black" d="M6,16c-3.3,0-6,2.7-6,6s2.7,6,6,6s6-2.7,6-6S9.3,16,6,16z M9.4,24H8l-4-4v4H2.6C2.2,23.4,2,22.7,2,22
	c0-2.2,1.8-4,4-4c2.2,0,4,1.8,4,4C10,22.7,9.8,23.4,9.4,24z"/>
<g>
	<g>
		<path class="Red" d="M23.8,14c0.1-0.6,0.2-1.3,0.2-2H14V2C8.5,2,4,6.5,4,12c0,0.8,0.1,1.5,0.3,2.2C4.8,14.1,5.4,14,6,14
			c4.4,0,8,3.6,8,8c0.1,0,0.1,0,0.2,0C15.1,17.5,19.1,14.1,23.8,14z"/>
	</g>
	<g>
		<path class="Red" d="M23.8,14c0.1-0.6,0.2-1.3,0.2-2H14V2C8.5,2,4,6.5,4,12c0,0.8,0.1,1.5,0.3,2.2C4.8,14.1,5.4,14,6,14
			c4.4,0,8,3.6,8,8c0.1,0,0.1,0,0.2,0C15.1,17.5,19.1,14.1,23.8,14z"/>
	</g>
</g>
<g>
	<g>
		<path class="Green" d="M24,16c-4.4,0-8,3.6-8,8s3.6,8,8,8s8-3.6,8-8S28.4,16,24,16z M26.9,26.4c-0.2,0.3-0.4,0.6-0.8,0.8
			s-0.8,0.4-1.3,0.5v1.3h-1.5V28c-0.5,0-1-0.1-1.5-0.2c-0.5-0.1-0.8-0.2-1-0.3v-2.2c0.9,0.6,1.8,0.9,2.6,0.9c0.2,0,0.4-0.1,0.5-0.2
			c0.1-0.1,0.2-0.2,0.2-0.4c0-0.1,0-0.3-0.1-0.4c-0.1-0.1-0.2-0.2-0.4-0.3s-0.5-0.2-0.8-0.3c-1.4-0.5-2.1-1.3-2.1-2.4
			c0-0.6,0.2-1.2,0.7-1.6c0.5-0.4,1.1-0.7,1.9-0.8v-1.2h1.5v1.1c0.8,0,1.4,0.1,1.9,0.3v2.1c-0.3-0.2-0.7-0.3-1.1-0.5
			s-0.8-0.2-1.2-0.2c-0.2,0-0.4,0-0.6,0.1s-0.2,0.2-0.2,0.4c0,0.2,0.1,0.3,0.3,0.5c0.2,0.1,0.5,0.3,0.9,0.4c0.9,0.3,1.5,0.7,1.9,1.1
			s0.6,0.9,0.6,1.4C27.2,25.8,27.1,26.1,26.9,26.4z"/>
	</g>
	<g>
		<path class="Green" d="M24,16c-4.4,0-8,3.6-8,8s3.6,8,8,8s8-3.6,8-8S28.4,16,24,16z M26.9,26.4c-0.2,0.3-0.4,0.6-0.8,0.8
			s-0.8,0.4-1.3,0.5v1.3h-1.5V28c-0.5,0-1-0.1-1.5-0.2c-0.5-0.1-0.8-0.2-1-0.3v-2.2c0.9,0.6,1.8,0.9,2.6,0.9c0.2,0,0.4-0.1,0.5-0.2
			c0.1-0.1,0.2-0.2,0.2-0.4c0-0.1,0-0.3-0.1-0.4c-0.1-0.1-0.2-0.2-0.4-0.3s-0.5-0.2-0.8-0.3c-1.4-0.5-2.1-1.3-2.1-2.4
			c0-0.6,0.2-1.2,0.7-1.6c0.5-0.4,1.1-0.7,1.9-0.8v-1.2h1.5v1.1c0.8,0,1.4,0.1,1.9,0.3v2.1c-0.3-0.2-0.7-0.3-1.1-0.5
			s-0.8-0.2-1.2-0.2c-0.2,0-0.4,0-0.6,0.1s-0.2,0.2-0.2,0.4c0,0.2,0.1,0.3,0.3,0.5c0.2,0.1,0.5,0.3,0.9,0.4c0.9,0.3,1.5,0.7,1.9,1.1
			s0.6,0.9,0.6,1.4C27.2,25.8,27.1,26.1,26.9,26.4z"/>
	</g>
</g>
</svg>
