<?xml version="1.0" encoding="utf-8"?>
<!-- Generator: Adobe Illustrator 21.1.0, SVG Export Plug-In . SVG Version: 6.00 Build 0)  -->
<svg version="1.1" id="Layer_1" xmlns="http://www.w3.org/2000/svg" xmlns:xlink="http://www.w3.org/1999/xlink" x="0px" y="0px"
	 viewBox="0 0 32 32" style="enable-background:new 0 0 32 32;" xml:space="preserve">
<style type="text/css">
	.Green{fill:#039C23;}
	.Black{fill:#727272;}
	.Blue{fill:#1177D7;}
</style>
<path class="Black" d="M29,16H13c-0.6,0-1,0.4-1,1v14c0,0.6,0.4,1,1,1h16c0.6,0,1-0.4,1-1V17C30,16.4,29.6,16,29,16z M28,30H14V18
	h14V30z"/>
<polygon class="Blue" points="20,22 20,20 16,20 16,22 16,26 16,28 18,28 20,28 20,26 18,26 18,22 "/>
<polygon class="Blue" points="22,26 22,28 26,28 26,26 26,22 26,20 24,20 22,20 22,22 24,22 24,26 "/>
<path class="Green" d="M23.8,14c0.1-0.7,0.2-1.4,0.2-2c0-6,0-6,0-6L12,0L0,6c0,0,0,0,0,6c0,5.4,4.1,12.2,10,15.2V14H23.8z"/>
</svg>
