<?xml version="1.0" encoding="utf-8"?>
<!-- Generator: Adobe Illustrator 21.1.0, SVG Export Plug-In . SVG Version: 6.00 Build 0)  -->
<svg version="1.1" id="Layer_1" xmlns="http://www.w3.org/2000/svg" xmlns:xlink="http://www.w3.org/1999/xlink" x="0px" y="0px"
	 viewBox="0 0 32 32" style="enable-background:new 0 0 32 32;" xml:space="preserve">
<style type="text/css">
	.Yellow{fill:#FFB115;}
</style>
<path class="Yellow" d="M25,12h-3v-2c0-3.3-2.7-6-6-6s-6,2.7-6,6v2H7c-0.6,0-1,0.5-1,1v14c0,0.5,0.4,1,1,1h18c0.6,0,1-0.5,1-1V13
	C26,12.5,25.6,12,25,12z M18,24h-4l1.4-4.1c-0.8-0.3-1.4-1-1.4-1.9c0-1.1,0.9-2,2-2s2,0.9,2,2c0,0.9-0.6,1.6-1.4,1.9L18,24z M12,12
	v-2c0-2.2,1.8-4,4-4s4,1.8,4,4v2H12z"/>
</svg>
