<?xml version="1.0" encoding="utf-8"?>
<!-- Generator: Adobe Illustrator 21.1.0, SVG Export Plug-In . SVG Version: 6.00 Build 0)  -->
<svg version="1.1" id="Layer_1" xmlns="http://www.w3.org/2000/svg" xmlns:xlink="http://www.w3.org/1999/xlink" x="0px" y="0px"
	 viewBox="0 0 32 32" style="enable-background:new 0 0 32 32;" xml:space="preserve">
<style type="text/css">
	.Blue{fill:#1177D7;}
	.Red{fill:#D11C1C;}
</style>
<path class="Blue" d="M25.6,6.2l-3.8-3.8c-0.5-0.5-1.4-0.5-1.9,0l-2.5,2.5l5.8,5.8l2.5-2.5C26.1,7.6,26.1,6.8,25.6,6.2z"/>
<polygon class="Blue" points="2,26 8,26 2,20 "/>
<path class="Blue" d="M21.7,12L16,6.3L3.5,18.8l5.8,5.8l2.7-2.7C12.1,16.5,16.4,12.2,21.7,12z"/>
<path class="Red" d="M22,14c-4.4,0-8,3.6-8,8s3.6,8,8,8s8-3.6,8-8S26.4,14,22,14z M22,16c1.1,0,2.2,0.3,3.1,0.9l-8.2,8.2
	c-0.6-0.9-0.9-2-0.9-3.1C16,18.7,18.7,16,22,16z M22,28c-1.4,0-2.7-0.5-3.7-1.3l8.4-8.4c0.8,1,1.3,2.3,1.3,3.7
	C28,25.3,25.3,28,22,28z"/>
</svg>
