<?xml version="1.0" encoding="utf-8"?>
<!-- Generator: Adobe Illustrator 21.1.0, SVG Export Plug-In . SVG Version: 6.00 Build 0)  -->
<svg version="1.1" id="Layer_1" xmlns="http://www.w3.org/2000/svg" xmlns:xlink="http://www.w3.org/1999/xlink" x="0px" y="0px"
	 viewBox="0 0 32 32" style="enable-background:new 0 0 32 32;" xml:space="preserve">
<style type="text/css">
	.Blue{fill:#1177D7;}
	.st0{opacity:0.5;}
</style>
<polygon class="Blue" points="12,8 8,8 8,4 6,4 6,8 2,8 2,10 6,10 6,14 8,14 8,10 12,10 "/>
<g class="st0">
	<path class="Blue" d="M16,8h14v2H16V8z M16,14h14v-2H16V14z M16,24h14v-2H16V24z M16,28h14v-2H16V28z"/>
</g>
<path class="Blue" d="M16,4h14v2H16V4z M16,20h14v-2H16V20z"/>
<polygon class="Blue" points="12,22 8,22 8,18 6,18 6,22 2,22 2,24 6,24 6,28 8,28 8,24 12,24 "/>
</svg>
