<?xml version="1.0" encoding="utf-8"?>
<!-- Generator: Adobe Illustrator 21.1.0, SVG Export Plug-In . SVG Version: 6.00 Build 0)  -->
<svg version="1.1" id="Layer_1" xmlns="http://www.w3.org/2000/svg" xmlns:xlink="http://www.w3.org/1999/xlink" x="0px" y="0px"
	 viewBox="0 0 32 32" style="enable-background:new 0 0 32 32;" xml:space="preserve">
<style type="text/css">
	.Black{fill:#727272;}
</style>
<path class="Black" d="M26,10h-2c-3,0-5.4,2.2-5.9,5h-4.2c-0.5-2.8-2.9-5-5.9-5H6c-3.3,0-6,2.7-6,6s2.7,6,6,6h2c3,0,5.4-2.2,5.9-5
	h4.2c0.5,2.8,2.9,5,5.9,5h2c3.3,0,6-2.7,6-6S29.3,10,26,10z M8,20H6c-2.2,0-4-1.8-4-4c0-2.2,1.8-4,4-4h2c1.9,0,3.4,1.3,3.9,3H7
	c-0.6,0-1,0.4-1,1c0,0.6,0.4,1,1,1h4.9C11.4,18.7,9.9,20,8,20z M26,20h-2c-1.9,0-3.4-1.3-3.9-3H25c0.6,0,1-0.4,1-1c0-0.6-0.4-1-1-1
	h-4.9c0.4-1.7,2-3,3.9-3h2c2.2,0,4,1.8,4,4C30,18.2,28.2,20,26,20z"/>
</svg>
