<?xml version="1.0" encoding="utf-8"?>
<!-- Generator: Adobe Illustrator 21.1.0, SVG Export Plug-In . SVG Version: 6.00 Build 0)  -->
<svg version="1.1" id="Layer_1" xmlns="http://www.w3.org/2000/svg" xmlns:xlink="http://www.w3.org/1999/xlink" x="0px" y="0px"
	 viewBox="0 0 32 32" style="enable-background:new 0 0 32 32;" xml:space="preserve">
<style type="text/css">
	.Blue{fill:#1177D7;}
</style>
<g>
	<g>
		<path class="Blue" d="M29,8H3C2.4,8,2,8.4,2,9v14c0,0.6,0.4,1,1,1h26c0.6,0,1-0.4,1-1V9C30,8.4,29.6,8,29,8z M28,22H4V10h24V22z"
			/>
	</g>
	<g>
		<path class="Blue" d="M29,8H3C2.4,8,2,8.4,2,9v14c0,0.6,0.4,1,1,1h26c0.6,0,1-0.4,1-1V9C30,8.4,29.6,8,29,8z M28,22H4V10h24V22z"
			/>
	</g>
</g>
<path class="Blue" d="M10.1,20l-0.8-2.2c0-0.1-0.1-0.3-0.1-0.4c0-0.1,0-0.2,0-0.3h0c0,0.1,0,0.2-0.1,0.4c0,0.1-0.1,0.3-0.1,0.4
	L8.3,20H6l1.9-4l-1.7-4h2.3l0.6,2.1c0.1,0.2,0.1,0.5,0.2,0.8h0c0-0.4,0.1-0.6,0.2-0.8l0.7-2.1h2.1l-1.8,4l1.9,4H10.1z"/>
<path class="Blue" d="M18.7,20v-4.4c0-0.4,0-0.9,0-1.4l0-0.4h-0.1c-0.1,0.6-0.2,1.1-0.2,1.3L17.6,20h-1.8l-1-4.8
	c0-0.1-0.1-0.6-0.2-1.4h-0.1c0,1.2,0.1,2,0.1,2.3V20h-1.7v-8h2.8l0.9,4.3c0,0.1,0,0.3,0.1,0.5c0,0.3,0.1,0.5,0.1,0.6h0
	c0-0.3,0.1-0.7,0.2-1.2l0.8-4.3h2.8v8H18.7z"/>
<path class="Blue" d="M21.8,20v-8h1.9v6.1h2.2V20H21.8z"/>
</svg>
