<?xml version="1.0" encoding="utf-8"?>
<!-- Generator: Adobe Illustrator 21.1.0, SVG Export Plug-In . SVG Version: 6.00 Build 0)  -->
<svg version="1.1" id="Layer_1" xmlns="http://www.w3.org/2000/svg" xmlns:xlink="http://www.w3.org/1999/xlink" x="0px" y="0px"
	 viewBox="0 0 32 32" style="enable-background:new 0 0 32 32;" xml:space="preserve">
<style type="text/css">
	.Blue{fill:#1177D7;}
	.Green{fill:#039C23;}
</style>
<path class="Blue" d="M32,23v-2l-2.2-0.4c-0.2-0.6-0.4-1.3-0.8-1.8l1.3-1.8l-1.4-1.4l-1.8,1.3c-0.5-0.3-1.2-0.6-1.8-0.7L25,14h-2
	l-0.4,2.2c-0.6,0.2-1.3,0.4-1.8,0.7L19,15.6L17.6,17l1.3,1.8c-0.3,0.5-0.6,1.2-0.8,1.8L16,21v2l2.2,0.4c0.2,0.6,0.4,1.3,0.8,1.8
	L17.7,27l1.4,1.4l1.8-1.3c0.5,0.3,1.2,0.6,1.8,0.7L23,30h2l0.4-2.2c0.6-0.2,1.3-0.4,1.8-0.7l1.8,1.3l1.4-1.4l-1.3-1.8
	c0.3-0.5,0.6-1.2,0.8-1.8L32,23z M24,24c-1.1,0-2-0.9-2-2c0-1.1,0.9-2,2-2s2,0.9,2,2C26,23.1,25.1,24,24,24z"/>
<path class="Green" d="M10,2C4.5,2,0,6.5,0,12c0,5.5,4.5,10,10,10c1.4,0,2.8-0.3,4-0.9c0.3-3.7,2.7-6.8,5.9-8.3c0-0.3,0-0.6,0-0.9
	C20,6.5,15.5,2,10,2z M8,16V8l6,4L8,16z"/>
</svg>
