<?xml version="1.0" encoding="utf-8"?>
<!-- Generator: Adobe Illustrator 21.1.0, SVG Export Plug-In . SVG Version: 6.00 Build 0)  -->
<svg version="1.1" id="Layer_1" xmlns="http://www.w3.org/2000/svg" xmlns:xlink="http://www.w3.org/1999/xlink" x="0px" y="0px"
	 viewBox="0 0 32 32" style="enable-background:new 0 0 32 32;" xml:space="preserve">
<style type="text/css">
	.Black{fill:#727272;}
	.Blue{fill:#1177D7;}
</style>
<path class="Black" d="M30,18H9c-0.6,0-1,0.4-1,1v8c0,0.6,0.4,1,1,1h21V18z M28,26H10v-6h18V26z"/>
<path class="Blue" d="M18,18v10h13c0.6,0,1-0.4,1-1v-8c0-0.6-0.4-1-1-1H18z M22,22h6l-3,3L22,22z"/>
<path class="Black" d="M2,22V8H0v15c0,0.5,0.5,1,1,1h5v-2H2z"/>
<rect x="22" y="8" class="Black" width="2" height="8"/>
<path class="Blue" d="M24,10V5c0-0.5-0.5-1-1-1H1C0.5,4,0,4.5,0,5v5H24z"/>
</svg>
