<?xml version="1.0" encoding="utf-8"?>
<!-- Generator: Adobe Illustrator 21.1.0, SVG Export Plug-In . SVG Version: 6.00 Build 0)  -->
<svg version="1.1" id="Layer_1" xmlns="http://www.w3.org/2000/svg" xmlns:xlink="http://www.w3.org/1999/xlink" x="0px" y="0px"
	 viewBox="0 0 32 32" style="enable-background:new 0 0 32 32;" xml:space="preserve">
<style type="text/css">
	.Blue{fill:#1177D7;}
	.Red{fill:#D11C1C;}
	.Green{fill:#039C23;}
	.Yellow{fill:#FFB115;}
	.White{fill:#FFFFFF;}
	.st0{opacity:0.2;}
</style>
<polygon class="Blue" points="10,22 8,24 8,30 14,30 16,28 16,22 "/>
<polygon class="Green" points="20,22 18,24 18,30 24,30 26,28 26,22 "/>
<polygon class="Red" points="20,16 14,16 12,18 12,20 20,20 "/>
<g class="st0">
	<polygon class="Blue" points="20,20 18,20 18,18 20,16 	"/>
</g>
<polygon class="Yellow" points="24,16 22,18 22,20 28,20 28,24 30,22 30,16 "/>
<g class="st0">
	<polygon class="White" points="14,24 8,24 10,22 16,22 	"/>
	<polygon class="White" points="24,24 18,24 20,22 26,22 	"/>
	<polygon class="White" points="18,18 12,18 14,16 20,16 	"/>
	<polygon class="White" points="28,18 22,18 24,16 30,16 	"/>
</g>
<g class="st0">
	<polygon class="Red" points="16,28 14,30 14,24 16,22 	"/>
	<polygon class="Red" points="26,28 24,30 24,24 26,22 	"/>
	<polygon class="Red" points="30,22 28,24 28,18 30,16 	"/>
</g>
<polygon class="Green" points="2,10 10,10 10,14 18,8 10,2 10,6 2,6 "/>
</svg>
