<?xml version="1.0" encoding="utf-8"?>
<!-- Generator: Adobe Illustrator 21.1.0, SVG Export Plug-In . SVG Version: 6.00 Build 0)  -->
<svg version="1.1" id="Layer_1" xmlns="http://www.w3.org/2000/svg" xmlns:xlink="http://www.w3.org/1999/xlink" x="0px" y="0px"
	 viewBox="0 0 32 32" style="enable-background:new 0 0 32 32;" xml:space="preserve">
<style type="text/css">
	.Yellow{fill:#FFB115;}
</style>
<path class="Yellow" d="M12.5,15H5.5c-0.3,0-0.6-0.2-0.8-0.4l-3.3-5c-0.2-0.3-0.2-0.8,0-1.1l3.3-5C4.9,3.2,5.2,3,5.5,3h6.9
	c0.3,0,0.6,0.2,0.8,0.4l3.3,5c0.2,0.3,0.2,0.8,0,1.1l-3.3,5C13.1,14.8,12.8,15,12.5,15z"/>
<path class="Yellow" d="M26.5,23h-6.9c-0.3,0-0.6-0.2-0.8-0.4l-3.3-5c-0.2-0.3-0.2-0.8,0-1.1l3.3-5c0.2-0.3,0.5-0.4,0.8-0.4h6.9
	c0.3,0,0.6,0.2,0.8,0.4l3.3,5c0.2,0.3,0.2,0.8,0,1.1l-3.3,5C27.1,22.8,26.8,23,26.5,23z"/>
<path class="Yellow" d="M12.5,29H5.5c-0.3,0-0.6-0.2-0.8-0.4l-3.3-5c-0.2-0.3-0.2-0.8,0-1.1l3.3-5C4.9,17.2,5.2,17,5.5,17h6.9
	c0.3,0,0.6,0.2,0.8,0.4l3.3,5c0.2,0.3,0.2,0.8,0,1.1l-3.3,5C13.1,28.8,12.8,29,12.5,29z"/>
</svg>
