<?xml version="1.0" encoding="utf-8"?>
<!-- Generator: Adobe Illustrator 21.1.0, SVG Export Plug-In . SVG Version: 6.00 Build 0)  -->
<svg version="1.1" id="Layer_1" xmlns="http://www.w3.org/2000/svg" xmlns:xlink="http://www.w3.org/1999/xlink" x="0px" y="0px"
	 viewBox="0 0 32 32" style="enable-background:new 0 0 32 32;" xml:space="preserve">
<style type="text/css">
	.Black{fill:#727272;}
	.Yellow{fill:#FFB115;}
</style>
<polygon class="Yellow" points="21.9,0 24.4,5 29.9,5.8 25.9,9.7 26.9,15.2 21.9,12.6 17,15.2 17.9,9.7 13.9,5.8 19.4,5 "/>
<path class="Black" d="M21.6,31.7L8.1,18.1c-0.4-0.4-0.4-1,0-1.4l3.3-3.3l14.3,14.3c0.4,0.4,0.4,1,0,1.4l-2.6,2.6
	C22.7,32.1,22,32.1,21.6,31.7z"/>
<path class="Yellow" d="M8,18l-5.3-5.3c-0.4-0.4-0.4-1,0-1.4l2.6-2.6c0.4-0.4,1-0.4,1.4,0L12,14L8,18z"/>
</svg>
