<?xml version="1.0" encoding="utf-8"?>
<!-- Generator: Adobe Illustrator 21.1.0, SVG Export Plug-In . SVG Version: 6.00 Build 0)  -->
<svg version="1.1" id="Layer_1" xmlns="http://www.w3.org/2000/svg" xmlns:xlink="http://www.w3.org/1999/xlink" x="0px" y="0px"
	 viewBox="0 0 32 32" style="enable-background:new 0 0 32 32;" xml:space="preserve">
<style type="text/css">
	.Yellow{fill:#FFB115;}
</style>
<path class="Yellow" d="M32,19V13l-4.6-0.8c-0.2-0.6-0.4-1.1-0.7-1.7l2.7-3.8l-4.2-4.2l-3.8,2.7c-0.5-0.3-1.1-0.5-1.7-0.7L18.9,0H13
	l-0.8,4.6c-0.6,0.2-1.1,0.4-1.6,0.7L6.8,2.6L2.6,6.8l2.7,3.8c-0.3,0.5-0.5,1.1-0.7,1.6L0,13V19l4.6,0.8c0.2,0.6,0.4,1.1,0.7,1.7
	l-2.7,3.8l4.2,4.2l3.8-2.7c0.5,0.3,1.1,0.5,1.7,0.7L13,32h5.9l0.8-4.6c0.6-0.2,1.2-0.4,1.7-0.7l3.8,2.7l4.2-4.2l-2.7-3.8
	c0.3-0.6,0.5-1.1,0.7-1.7L32,19z M13,20c-1.7,0-3-0.7-3-1.5s1.3-1.5,3-1.5s3,0.7,3,1.5S14.7,20,13,20z M13,15c-1.7,0-3-0.7-3-1.5
	s1.3-1.5,3-1.5s3,0.7,3,1.5S14.7,15,13,15z M18.3,23.3c-0.6,0.3-1.3-0.1-1.3-0.8v-0.2c0-0.4,0.2-0.7,0.6-0.8c2-1,3.4-3,3.4-5.4
	c0-2.4-1.4-4.5-3.4-5.4c-0.3-0.2-0.6-0.5-0.6-0.8V9.6c0-0.7,0.7-1.1,1.3-0.8c2.8,1.3,4.7,4,4.7,7.3S21.1,22,18.3,23.3z"/>
</svg>
