<?xml version="1.0" encoding="utf-8"?>
<!-- Generator: Adobe Illustrator 21.1.0, SVG Export Plug-In . SVG Version: 6.00 Build 0)  -->
<svg version="1.1" id="Layer_1" xmlns="http://www.w3.org/2000/svg" xmlns:xlink="http://www.w3.org/1999/xlink" x="0px" y="0px"
	 viewBox="0 0 32 32" style="enable-background:new 0 0 32 32;" xml:space="preserve">
<style type="text/css">
	.Black{fill:#727272;}
	.Green{fill:#039C23;}
	.Yellow{fill:#FFB115;}
	.st0{opacity:0.5;}
</style>
<rect y="24" class="Yellow" width="26" height="8"/>
<polygon class="Yellow" points="32,30 28,32 28,24 32,22 "/>
<circle class="Yellow" cx="19" cy="11" r="3"/>
<polygon class="Green" points="16,22 8,14 6,16 6,22 "/>
<g class="st0">
	<polygon class="Green" points="18,22 14,18 16,16 22,22 	"/>
</g>
<path class="Black" d="M6,1v1h22v18h2V2V1c0-0.6-0.4-1-1-1H7C6.4,0,6,0.4,6,1z"/>
<path class="Black" d="M4,6h20v16h2V5c0-0.5-0.5-1-1-1H3C2.5,4,2,4.5,2,5v17h2V6z"/>
</svg>
