<?xml version="1.0" encoding="utf-8"?>
<!-- Generator: Adobe Illustrator 21.1.0, SVG Export Plug-In . SVG Version: 6.00 Build 0)  -->
<svg version="1.1" id="Layer_1" xmlns="http://www.w3.org/2000/svg" xmlns:xlink="http://www.w3.org/1999/xlink" x="0px" y="0px"
	 viewBox="0 0 32 32" style="enable-background:new 0 0 32 32;" xml:space="preserve">
<style type="text/css">
	.Black{fill:#727272;}
</style>
<circle class="Black" cx="10" cy="12" r="2"/>
<path class="Black" d="M31.8,22.9L30,11.4c0-0.4-0.1-0.9-0.2-1.3l0-0.1l0,0c-0.9-3.5-4-6-7.7-6c-0.3,0-0.6,0-1,0.1l0,0l-0.1,0
	c-0.3,0-0.7,0.1-1,0.2l-1.7,0.3c-0.7,0.1-1.5,0.2-2.2,0.2s-1.5-0.1-2.2-0.2l-1.7-0.3c-0.3-0.1-0.7-0.2-1-0.2l-0.1,0l0,0
	C10.6,4,10.3,4,10,4c-3.7,0-6.9,2.6-7.7,6l0,0l0,0.1c-0.1,0.4-0.2,0.8-0.2,1.3L0.2,22.9C0.1,23.3,0,23.6,0,24c0,2.2,1.8,4,4,4
	c1.1,0,2.1-0.4,2.8-1.1c0,0,0,0,0,0l4.7-4.9c1.2-1.2,2.8-1.9,4.5-2c1.7,0,3.3,0.7,4.5,2l4.7,4.9c0,0,0,0,0,0
	c0.7,0.7,1.7,1.1,2.8,1.1c2.2,0,4-1.8,4-4C32,23.6,31.9,23.3,31.8,22.9z M10,16c-2.2,0-4-1.8-4-4c0-2.2,1.8-4,4-4s4,1.8,4,4
	C14,14.2,12.2,16,10,16z M18,14c-1.1,0-2-0.9-2-2c0-1.1,0.9-2,2-2s2,0.9,2,2C20,13.1,19.1,14,18,14z M24,14c-1.1,0-2-0.9-2-2
	c0-1.1,0.9-2,2-2s2,0.9,2,2C26,13.1,25.1,14,24,14z"/>
</svg>
