<?xml version="1.0" encoding="utf-8"?>
<!-- Generator: Adobe Illustrator 21.1.0, SVG Export Plug-In . SVG Version: 6.00 Build 0)  -->
<svg version="1.1" id="Layer_1" xmlns="http://www.w3.org/2000/svg" xmlns:xlink="http://www.w3.org/1999/xlink" x="0px" y="0px"
	 viewBox="0 0 32 32" style="enable-background:new 0 0 32 32;" xml:space="preserve">
<style type="text/css">
	.Black{fill:#727272;}
	.Blue{fill:#1177D7;}
	.st0{opacity:0.5;}
</style>
<path class="Blue" d="M31,18H9c-0.6,0-1,0.4-1,1v12c0,0.6,0.4,1,1,1h22c0.6,0,1-0.4,1-1V19C32,18.4,31.6,18,31,18z M30,30H10V20h20
	V30z"/>
<path class="Black" d="M2,24V2h20v14h2V1c0-0.5-0.5-1-1-1H1C0.5,0,0,0.5,0,1v24c0,0.5,0.5,1,1,1h5v-2H2z"/>
<path class="Black" d="M2,24V2h20v14h2V1c0-0.5-0.5-1-1-1H1C0.5,0,0,0.5,0,1v24c0,0.5,0.5,1,1,1h5v-2H2z"/>
<g class="st0">
	<path class="Black" d="M20,6H4V4h16V6z M20,8H4v2h16V8z M20,12H4v2h16V12z"/>
</g>
<path class="Blue" d="M15.3,28l-0.6-1.6c0-0.1-0.1-0.2-0.1-0.3s0-0.2,0-0.2h0c0,0.1,0,0.2,0,0.3c0,0.1,0,0.2-0.1,0.3L13.8,28H12
	l1.5-3l-1.4-3H14l0.5,1.6c0,0.1,0.1,0.3,0.1,0.6h0c0-0.3,0.1-0.5,0.1-0.6l0.6-1.6H17l-1.4,3l1.5,3H15.3z"/>
<path class="Blue" d="M22.2,28v-3.3c0-0.3,0-0.6,0-1l0-0.3h0c-0.1,0.5-0.1,0.8-0.2,1L21.3,28h-1.4l-0.8-3.6c0-0.1-0.1-0.4-0.2-1h0
	c0,0.9,0,1.5,0,1.8V28h-1.3v-6h2.3l0.7,3.3c0,0.1,0,0.2,0.1,0.4c0,0.2,0,0.4,0.1,0.5h0c0-0.3,0.1-0.6,0.1-0.9l0.7-3.2h2.3v6H22.2z"
	/>
<path class="Blue" d="M24.7,28v-6h1.5v4.6H28V28H24.7z"/>
</svg>
