<?xml version="1.0" encoding="utf-8"?>
<!-- Generator: Adobe Illustrator 21.1.0, SVG Export Plug-In . SVG Version: 6.00 Build 0)  -->
<svg version="1.1" id="Layer_1" xmlns="http://www.w3.org/2000/svg" xmlns:xlink="http://www.w3.org/1999/xlink" x="0px" y="0px"
	 viewBox="0 0 32 32" style="enable-background:new 0 0 32 32;" xml:space="preserve">
<style type="text/css">
	.Green{fill:#039C23;}
	.Blue{fill:#1177D7;}
</style>
<path class="Blue" d="M29,18H7c-0.6,0-1,0.4-1,1v12c0,0.6,0.4,1,1,1h22c0.6,0,1-0.4,1-1V19C30,18.4,29.6,18,29,18z M28,30H8V20h20
	V30z"/>
<path class="Blue" d="M13.3,28l-0.6-1.6c0-0.1-0.1-0.2-0.1-0.3s0-0.2,0-0.2h0c0,0.1,0,0.2,0,0.3c0,0.1,0,0.2-0.1,0.3L11.8,28H10
	l1.5-3l-1.4-3H12l0.5,1.6c0,0.1,0.1,0.3,0.1,0.6h0c0-0.3,0.1-0.5,0.1-0.6l0.6-1.6H15l-1.4,3l1.5,3H13.3z"/>
<path class="Blue" d="M20.2,28v-3.3c0-0.3,0-0.6,0-1l0-0.3h0c-0.1,0.5-0.1,0.8-0.2,1L19.3,28h-1.4l-0.8-3.6c0-0.1-0.1-0.4-0.2-1h0
	c0,0.9,0,1.5,0,1.8V28h-1.3v-6h2.3l0.7,3.3c0,0.1,0,0.2,0.1,0.4c0,0.2,0,0.4,0.1,0.5h0c0-0.3,0.1-0.6,0.1-0.9l0.7-3.2h2.3v6H20.2z"
	/>
<path class="Blue" d="M22.7,28v-6h1.5v4.6H26V28H22.7z"/>
<path class="Blue" d="M29,18H7c-0.6,0-1,0.4-1,1v12c0,0.6,0.4,1,1,1h22c0.6,0,1-0.4,1-1V19C30,18.4,29.6,18,29,18z M28,30H8V20h20
	V30z"/>
<path class="Green" d="M2,24V14h20v2h2v-3c0-0.6-0.4-1-1-1H1c-0.6,0-1,0.4-1,1v12c0,0.6,0.4,1,1,1h3v-2H2z"/>
<path class="Green" d="M16,10c0,0,0.2-4,8-4v2l8-4l-8-4v2C16.2,2,16,10,16,10z"/>
</svg>
