<?xml version="1.0" encoding="utf-8"?>
<!-- Generator: Adobe Illustrator 21.1.0, SVG Export Plug-In . SVG Version: 6.00 Build 0)  -->
<svg version="1.1" id="Layer_1" xmlns="http://www.w3.org/2000/svg" xmlns:xlink="http://www.w3.org/1999/xlink" x="0px" y="0px"
	 viewBox="0 0 32 32" style="enable-background:new 0 0 32 32;" xml:space="preserve">
<style type="text/css">
	.Black{fill:#727272;}
	.Blue{fill:#1177D7;}
</style>
<path class="Blue" d="M7.6,22.6c0.1-0.2,0.3-0.3,0.4-0.5V14h0h4h2h4h2h4h2c0-0.3,0.1-0.7,0.1-1c0-4.1-1.9-7.8-4.9-10.1
	c-0.5-0.4-1.1-0.8-1.7-1.1C17.5,0.6,15.3,0,13,0S8.5,0.6,6.5,1.7C6,2.1,5.4,2.4,4.9,2.9C1.9,5.2,0,8.9,0,13s1.9,7.8,4.9,10.1
	c0.5,0.4,1.1,0.8,1.7,1.1C7,24.5,7.5,24.8,8,25v-2.2C7.9,22.7,7.7,22.6,7.6,22.6z M20.1,4.6c2.2,1.8,3.6,4.4,3.9,7.4h-4
	c-0.1-2.3-0.5-4.4-1.1-6.2C19.3,5.5,19.7,5,20.1,4.6z M18.4,3.4c-0.1,0.2-0.3,0.3-0.4,0.5c-0.2-0.3-0.4-0.7-0.6-1
	C17.8,3.1,18.1,3.3,18.4,3.4z M14,2.2c0.9,0.4,1.8,1.4,2.5,2.9c-0.7,0.4-1.6,0.7-2.5,0.8V2.2z M14,7.9c1.1-0.1,2.2-0.5,3.2-1
	c0.4,1.5,0.7,3.2,0.8,5h-4V7.9z M12,2.2v3.7c-0.9-0.1-1.7-0.4-2.5-0.8C10.2,3.7,11.1,2.6,12,2.2z M12,7.9V12H8
	c0.1-1.9,0.4-3.6,0.8-5C9.8,7.5,10.9,7.8,12,7.9z M8.6,2.9C8.4,3.2,8.2,3.6,8,3.9C7.9,3.8,7.7,3.6,7.6,3.4C7.9,3.3,8.2,3.1,8.6,2.9z
	 M5.9,4.6C6.3,5,6.7,5.5,7.2,5.8C6.5,7.6,6.1,9.7,6,12h-4C2.3,9,3.8,6.4,5.9,4.6z M5.9,21.4C3.8,19.6,2.3,17,2.1,14h4
	c0.1,2.3,0.5,4.4,1.1,6.2C6.7,20.5,6.3,21,5.9,21.4z"/>
<path class="Black" d="M19.4,27.9h-1.8V27h0c-0.4,0.7-1,1-1.8,1c-0.6,0-1-0.2-1.4-0.5S14,26.7,14,26.2c0-1.2,0.7-1.8,2.1-2l1.6-0.2
	c0-0.7-0.4-1-1.1-1c-0.7,0-1.4,0.2-2,0.6v-1.4c0.3-0.1,0.6-0.3,1.1-0.4s0.9-0.2,1.2-0.2c1.7,0,2.6,0.9,2.6,2.6V27.9z M17.7,25.4V25
	l-1.1,0.1c-0.6,0.1-0.9,0.3-0.9,0.8c0,0.2,0.1,0.4,0.2,0.5s0.3,0.2,0.6,0.2c0.3,0,0.6-0.1,0.8-0.4S17.7,25.8,17.7,25.4z"/>
<path class="Black" d="M23.2,27.2L23.2,27.2l0,0.7h-1.9V19h1.9v3.8h0c0.5-0.7,1.1-1,2-1c0.8,0,1.4,0.3,1.8,0.8s0.6,1.3,0.6,2.2
	c0,1-0.2,1.8-0.7,2.4s-1.1,0.9-2,0.9C24.1,28,23.6,27.7,23.2,27.2z M23.1,24.6v0.6c0,0.4,0.1,0.7,0.3,1s0.5,0.4,0.9,0.4
	c0.4,0,0.7-0.2,1-0.5s0.3-0.8,0.3-1.4c0-0.5-0.1-0.9-0.3-1.2s-0.5-0.4-0.9-0.4c-0.4,0-0.7,0.1-0.9,0.4S23.1,24.2,23.1,24.6z"/>
<g>
	<g>
		<path class="Black" d="M31,16H11c-0.6,0-1,0.4-1,1v14c0,0.6,0.4,1,1,1h20c0.6,0,1-0.4,1-1V17C32,16.4,31.6,16,31,16z M30,30H12V18
			h18V30z"/>
	</g>
	<g>
		<path class="Black" d="M31,16H11c-0.6,0-1,0.4-1,1v14c0,0.6,0.4,1,1,1h20c0.6,0,1-0.4,1-1V17C32,16.4,31.6,16,31,16z M30,30H12V18
			h18V30z"/>
	</g>
</g>
</svg>
