<?xml version="1.0" encoding="utf-8"?>
<!-- Generator: Adobe Illustrator 21.1.0, SVG Export Plug-In . SVG Version: 6.00 Build 0)  -->
<svg version="1.1" id="Layer_1" xmlns="http://www.w3.org/2000/svg" xmlns:xlink="http://www.w3.org/1999/xlink" x="0px" y="0px"
	 viewBox="0 0 32 32" style="enable-background:new 0 0 32 32;" xml:space="preserve">
<style type="text/css">
	.Green{fill:#039C23;}
	.Blue{fill:#1177D7;}
</style>
<path class="Blue" d="M31,16H9c-0.6,0-1,0.4-1,1v12c0,0.6,0.4,1,1,1h22c0.6,0,1-0.4,1-1V17C32,16.4,31.6,16,31,16z M30,28H10V18h20
	V28z"/>
<path class="Blue" d="M15.3,26l-0.6-1.6c0-0.1-0.1-0.2-0.1-0.3s0-0.2,0-0.2h0c0,0.1,0,0.2,0,0.3c0,0.1,0,0.2-0.1,0.3L13.8,26H12
	l1.5-3l-1.4-3H14l0.5,1.6c0,0.1,0.1,0.3,0.1,0.6h0c0-0.3,0.1-0.5,0.1-0.6l0.6-1.6H17l-1.4,3l1.5,3H15.3z"/>
<path class="Blue" d="M22.2,26v-3.3c0-0.3,0-0.6,0-1l0-0.3h0c-0.1,0.5-0.1,0.8-0.2,1L21.3,26h-1.4l-0.8-3.6c0-0.1-0.1-0.4-0.2-1h0
	c0,0.9,0,1.5,0,1.8V26h-1.3v-6h2.3l0.7,3.3c0,0.1,0,0.2,0.1,0.4c0,0.2,0,0.4,0.1,0.5h0c0-0.3,0.1-0.6,0.1-0.9l0.7-3.2h2.3v6H22.2z"
	/>
<path class="Blue" d="M24.7,26v-6h1.5v4.6H28V26H24.7z"/>
<path class="Green" d="M7.3,12l-0.6-1.6c0-0.1-0.1-0.2-0.1-0.3c0-0.1,0-0.2,0-0.2h0c0,0.1,0,0.2,0,0.3s0,0.2-0.1,0.3L5.8,12H4l1.5-3
	L4.1,6H6l0.5,1.6c0,0.1,0.1,0.3,0.1,0.6h0c0-0.3,0.1-0.5,0.1-0.6L7.3,6H9L7.6,9l1.5,3H7.3z"/>
<path class="Green" d="M14.2,12V8.7c0-0.3,0-0.6,0-1l0-0.3h0c-0.1,0.5-0.1,0.8-0.2,1L13.3,12h-1.4l-0.8-3.6c0-0.1-0.1-0.4-0.2-1h0
	c0,0.9,0,1.5,0,1.8V12H9.6V6h2.3l0.7,3.3c0,0.1,0,0.2,0.1,0.4c0,0.2,0,0.4,0.1,0.5h0c0-0.3,0.1-0.6,0.1-0.9L13.5,6h2.3v6H14.2z"/>
<path class="Green" d="M16.7,12V6h1.5v4.6H20V12H16.7z"/>
<path class="Green" d="M2,14V4h20v10h2V3c0-0.6-0.4-1-1-1H1C0.4,2,0,2.4,0,3v12c0,0.6,0.4,1,1,1h5v-2H2z"/>
</svg>
