<?xml version="1.0" encoding="utf-8"?>
<!-- Generator: Adobe Illustrator 21.1.0, SVG Export Plug-In . SVG Version: 6.00 Build 0)  -->
<svg version="1.1" id="Layer_1" xmlns="http://www.w3.org/2000/svg" xmlns:xlink="http://www.w3.org/1999/xlink" x="0px" y="0px"
	 viewBox="0 0 32 32" style="enable-background:new 0 0 32 32;" xml:space="preserve">
<style type="text/css">
	.Red{fill:#D11C1C;}
</style>
<path class="Red" d="M27,14h-6l4.3-4.3c0.4-0.4,0.4-1,0-1.4l-1.6-1.6c-0.4-0.4-1-0.4-1.4,0L18,11V5c0-0.6-0.4-1-1-1h-2
	c-0.6,0-1,0.4-1,1v6L9.7,6.7c-0.4-0.4-1-0.4-1.4,0L6.7,8.3c-0.4,0.4-0.4,1,0,1.4L11,14H5c-0.6,0-1,0.4-1,1v2c0,0.6,0.4,1,1,1h6
	l-4.3,4.3c-0.4,0.4-0.4,1,0,1.4l1.6,1.6c0.4,0.4,1,0.4,1.4,0L14,21v6c0,0.6,0.4,1,1,1h2c0.6,0,1-0.4,1-1v-6l4.3,4.3
	c0.4,0.4,1,0.4,1.4,0l1.6-1.6c0.4-0.4,0.4-1,0-1.4L21,18h6c0.6,0,1-0.4,1-1v-2C28,14.4,27.6,14,27,14z"/>
</svg>
