<?xml version="1.0" encoding="utf-8"?>
<!-- Generator: Adobe Illustrator 21.1.0, SVG Export Plug-In . SVG Version: 6.00 Build 0)  -->
<svg version="1.1" id="Layer_1" xmlns="http://www.w3.org/2000/svg" xmlns:xlink="http://www.w3.org/1999/xlink" x="0px" y="0px"
	 viewBox="0 0 32 32" style="enable-background:new 0 0 32 32;" xml:space="preserve">
<style type="text/css">
	.Blue{fill:#1177D7;}
</style>
<g>
	<g>
		<path class="Blue" d="M25.1,4.9c-0.5-0.4-1.1-0.8-1.7-1.1C21.5,2.6,19.3,2,17,2s-4.5,0.6-6.5,1.7C10,4.1,9.4,4.4,8.9,4.9
			C5.9,7.2,4,10.9,4,15s1.9,7.8,4.9,10.1c0.5,0.4,1.1,0.8,1.7,1.1c1.9,1.1,4.1,1.7,6.5,1.7s4.5-0.6,6.5-1.7c0.6-0.3,1.1-0.7,1.7-1.1
			c3-2.4,4.9-6,4.9-10.1S28.1,7.2,25.1,4.9z M12.6,4.9c-0.2,0.3-0.4,0.6-0.6,1c-0.1-0.1-0.3-0.3-0.4-0.5C11.9,5.3,12.2,5.1,12.6,4.9
			z M9.9,23.4C7.8,21.6,6.3,19,6.1,16h4c0.1,2.3,0.5,4.4,1.1,6.2C10.7,22.5,10.3,23,9.9,23.4z M10,14h-4c0.3-3,1.7-5.6,3.9-7.4
			c0.4,0.5,0.8,0.9,1.2,1.3C10.5,9.6,10.1,11.7,10,14z M11.6,24.6c0.1-0.2,0.3-0.3,0.4-0.5c0.2,0.3,0.4,0.7,0.6,1
			C12.2,24.9,11.9,24.7,11.6,24.6z M16,25.8c-0.9-0.4-1.8-1.4-2.5-2.9c0.7-0.4,1.6-0.7,2.5-0.8V25.8z M16,20.1
			c-1.1,0.1-2.2,0.5-3.2,1c-0.4-1.5-0.7-3.2-0.8-5h4V20.1z M16,14h-4c0.1-1.9,0.4-3.6,0.8-5c1,0.5,2,0.9,3.2,1V14z M16,7.9
			c-0.9-0.1-1.7-0.4-2.5-0.8c0.7-1.4,1.5-2.4,2.5-2.9V7.9z M27.9,14h-4c-0.1-2.3-0.5-4.4-1.1-6.2c0.4-0.4,0.9-0.8,1.2-1.3
			C26.2,8.4,27.7,11,27.9,14z M18,4.2c0.9,0.4,1.8,1.4,2.5,2.9c-0.7,0.4-1.6,0.7-2.5,0.8V4.2z M18,9.9c1.1-0.1,2.2-0.5,3.2-1
			c0.4,1.5,0.7,3.2,0.8,5h-4V9.9z M18,25.8v-3.7c0.9,0.1,1.7,0.4,2.5,0.8C19.8,24.3,18.9,25.4,18,25.8z M18,20.1V16h4
			c-0.1,1.8-0.3,3.6-0.8,5C20.2,20.5,19.1,20.2,18,20.1z M21.4,25.1c0.2-0.3,0.4-0.6,0.6-1c0.1,0.1,0.3,0.3,0.4,0.5
			C22.1,24.7,21.8,24.9,21.4,25.1z M22,5.9c-0.2-0.3-0.4-0.7-0.6-1c0.3,0.1,0.7,0.3,1,0.5C22.3,5.6,22.1,5.8,22,5.9z M24.1,23.4
			c-0.4-0.5-0.8-0.9-1.2-1.3c0.6-1.8,1-3.9,1.1-6.2h4C27.7,19,26.2,21.6,24.1,23.4z"/>
	</g>
	<g>
		<path class="Blue" d="M25.1,4.9c-0.5-0.4-1.1-0.8-1.7-1.1C21.5,2.6,19.3,2,17,2s-4.5,0.6-6.5,1.7C10,4.1,9.4,4.4,8.9,4.9
			C5.9,7.2,4,10.9,4,15s1.9,7.8,4.9,10.1c0.5,0.4,1.1,0.8,1.7,1.1c1.9,1.1,4.1,1.7,6.5,1.7s4.5-0.6,6.5-1.7c0.6-0.3,1.1-0.7,1.7-1.1
			c3-2.4,4.9-6,4.9-10.1S28.1,7.2,25.1,4.9z M12.6,4.9c-0.2,0.3-0.4,0.6-0.6,1c-0.1-0.1-0.3-0.3-0.4-0.5C11.9,5.3,12.2,5.1,12.6,4.9
			z M9.9,23.4C7.8,21.6,6.3,19,6.1,16h4c0.1,2.3,0.5,4.4,1.1,6.2C10.7,22.5,10.3,23,9.9,23.4z M10,14h-4c0.3-3,1.7-5.6,3.9-7.4
			c0.4,0.5,0.8,0.9,1.2,1.3C10.5,9.6,10.1,11.7,10,14z M11.6,24.6c0.1-0.2,0.3-0.3,0.4-0.5c0.2,0.3,0.4,0.7,0.6,1
			C12.2,24.9,11.9,24.7,11.6,24.6z M16,25.8c-0.9-0.4-1.8-1.4-2.5-2.9c0.7-0.4,1.6-0.7,2.5-0.8V25.8z M16,20.1
			c-1.1,0.1-2.2,0.5-3.2,1c-0.4-1.5-0.7-3.2-0.8-5h4V20.1z M16,14h-4c0.1-1.9,0.4-3.6,0.8-5c1,0.5,2,0.9,3.2,1V14z M16,7.9
			c-0.9-0.1-1.7-0.4-2.5-0.8c0.7-1.4,1.5-2.4,2.5-2.9V7.9z M27.9,14h-4c-0.1-2.3-0.5-4.4-1.1-6.2c0.4-0.4,0.9-0.8,1.2-1.3
			C26.2,8.4,27.7,11,27.9,14z M18,4.2c0.9,0.4,1.8,1.4,2.5,2.9c-0.7,0.4-1.6,0.7-2.5,0.8V4.2z M18,9.9c1.1-0.1,2.2-0.5,3.2-1
			c0.4,1.5,0.7,3.2,0.8,5h-4V9.9z M18,25.8v-3.7c0.9,0.1,1.7,0.4,2.5,0.8C19.8,24.3,18.9,25.4,18,25.8z M18,20.1V16h4
			c-0.1,1.8-0.3,3.6-0.8,5C20.2,20.5,19.1,20.2,18,20.1z M21.4,25.1c0.2-0.3,0.4-0.6,0.6-1c0.1,0.1,0.3,0.3,0.4,0.5
			C22.1,24.7,21.8,24.9,21.4,25.1z M22,5.9c-0.2-0.3-0.4-0.7-0.6-1c0.3,0.1,0.7,0.3,1,0.5C22.3,5.6,22.1,5.8,22,5.9z M24.1,23.4
			c-0.4-0.5-0.8-0.9-1.2-1.3c0.6-1.8,1-3.9,1.1-6.2h4C27.7,19,26.2,21.6,24.1,23.4z"/>
	</g>
</g>
</svg>
