<?xml version="1.0" encoding="utf-8"?>
<!-- Generator: Adobe Illustrator 21.1.0, SVG Export Plug-In . SVG Version: 6.00 Build 0)  -->
<svg version="1.1" id="Layer_1" xmlns="http://www.w3.org/2000/svg" xmlns:xlink="http://www.w3.org/1999/xlink" x="0px" y="0px"
	 viewBox="0 0 32 32" style="enable-background:new 0 0 32 32;" xml:space="preserve">
<style type="text/css">
	.Black{fill:#727272;}
</style>
<path class="Black" d="M20,4c-4.4,0-8,3.6-8,8c0,1.2,0.3,2.3,0.7,3.3L4,24v4h4l2-2v-2h2v-2h2l2.7-2.7c1,0.5,2.1,0.7,3.3,0.7
	c4.4,0,8-3.6,8-8S24.4,4,20,4z M22,12c-1.1,0-2-0.9-2-2c0-1.1,0.9-2,2-2s2,0.9,2,2C24,11.1,23.1,12,22,12z"/>
</svg>
