<?xml version="1.0" encoding="utf-8"?>
<!-- Generator: Adobe Illustrator 21.1.0, SVG Export Plug-In . SVG Version: 6.00 Build 0)  -->
<svg version="1.1" id="Layer_1" xmlns="http://www.w3.org/2000/svg" xmlns:xlink="http://www.w3.org/1999/xlink" x="0px" y="0px"
	 viewBox="0 0 32 32" style="enable-background:new 0 0 32 32;" xml:space="preserve">
<style type="text/css">
	.Blue{fill:#1177D7;}
	.Red{fill:#D11C1C;}
	.Green{fill:#039C23;}
	.White{fill:#FFFFFF;}
	.st0{opacity:0.2;}
</style>
<polygon class="Green" points="20,16 18,18 18,28 28,28 30,26 30,16 "/>
<g class="st0">
	<polygon class="White" points="28,18 18,18 20,16 30,16 	"/>
</g>
<g class="st0">
	<polygon class="Red" points="30,26 28,28 28,18 30,16 	"/>
</g>
<polygon class="Red" points="6,16 4,18 4,28 14,28 16,26 16,16 "/>
<g class="st0">
	<polygon class="White" points="14,18 4,18 6,16 16,16 	"/>
</g>
<g class="st0">
	<polygon class="Blue" points="16,26 14,28 14,18 16,16 	"/>
</g>
<polygon class="Blue" points="14,2 12,4 12,14 22,14 24,12 24,2 "/>
<g class="st0">
	<polygon class="White" points="22,4 12,4 14,2 24,2 	"/>
</g>
<g class="st0">
	<polygon class="Red" points="24,12 22,14 22,4 24,2 	"/>
</g>
</svg>
