<?xml version="1.0" encoding="utf-8"?>
<!-- Generator: Adobe Illustrator 21.1.0, SVG Export Plug-In . SVG Version: 6.00 Build 0)  -->
<svg version="1.1" id="Layer_1" xmlns="http://www.w3.org/2000/svg" xmlns:xlink="http://www.w3.org/1999/xlink" x="0px" y="0px"
	 viewBox="0 0 32 32" style="enable-background:new 0 0 32 32;" xml:space="preserve">
<style type="text/css">
	.Black{fill:#727272;}
	.Yellow{fill:#FFB115;}
</style>
<path class="Yellow" d="M25,4h-3v22H8V4H5C4.4,4,4,4.4,4,5v24c0,0.6,0.4,1,1,1h17h3c0.6,0,1-0.4,1-1V4.8C26,4.4,25.6,4,25,4z"/>
<path class="Black" d="M18,4V3c0-0.6-0.4-1-1-1h-4c-0.6,0-1,0.4-1,1v1h-2v3c0,0.6,0.4,1,1,1h8c0.6,0,1-0.4,1-1V4H18z"/>
<rect x="10" y="10" class="Black" width="10" height="2"/>
<rect x="10" y="14" class="Black" width="10" height="2"/>
<rect x="10" y="18" class="Black" width="10" height="2"/>
<rect x="10" y="22" class="Black" width="10" height="2"/>
</svg>
