<?xml version="1.0" encoding="utf-8"?>
<!-- Generator: Adobe Illustrator 21.1.0, SVG Export Plug-In . SVG Version: 6.00 Build 0)  -->
<svg version="1.1" id="Layer_1" xmlns="http://www.w3.org/2000/svg" xmlns:xlink="http://www.w3.org/1999/xlink" x="0px" y="0px"
	 viewBox="0 0 32 32" style="enable-background:new 0 0 32 32;" xml:space="preserve">
<style type="text/css">
	.Black{fill:#727272;}
	.Blue{fill:#1177D7;}
</style>
<path class="Blue" d="M29,4H3C2.4,4,2,4.4,2,5v22c0,0.6,0.4,1,1,1h26c0.6,0,1-0.4,1-1V5C30,4.4,29.6,4,29,4z M4,26V8h10v18H4z
	 M28,26H16V8h12V26z"/>
<rect x="6" y="10" class="Black" width="6" height="2"/>
<rect x="6" y="14" class="Black" width="6" height="2"/>
<rect x="6" y="18" class="Black" width="6" height="2"/>
<rect x="6" y="22" class="Black" width="6" height="2"/>
</svg>
