<?xml version="1.0" encoding="utf-8"?>
<!-- Generator: Adobe Illustrator 21.1.0, SVG Export Plug-In . SVG Version: 6.00 Build 0)  -->
<svg version="1.1" id="Layer_1" xmlns="http://www.w3.org/2000/svg" xmlns:xlink="http://www.w3.org/1999/xlink" x="0px" y="0px"
	 viewBox="0 0 32 32" style="enable-background:new 0 0 32 32;" xml:space="preserve">
<style type="text/css">
	.Black{fill:#727272;}
	.Blue{fill:#1177D7;}
	.st0{opacity:0.5;}
</style>
<g class="st0">
	<path class="Blue" d="M29,17H15V3h0C22.7,3,29,9.3,29,17L29,17z"/>
</g>
<path class="Black" d="M16,2C8.3,2,2,8.3,2,16s6.3,14,14,14s14-6.3,14-14S23.7,2,16,2z M17,27.9V26h-2v1.9C9.2,27.5,4.5,22.8,4.1,17
	H6v-2H4.1C4.5,9.2,9.2,4.5,15,4.1V6h2V4.1C22.8,4.5,27.5,9.2,27.9,15H26v2h1.9C27.5,22.8,22.8,27.5,17,27.9z"/>
<path class="Black" d="M24,15h-6.3c-0.2-0.3-0.4-0.5-0.7-0.7V8h-2v6.3c-0.6,0.3-1,1-1,1.7c0,1.1,0.9,2,2,2c0.7,0,1.4-0.4,1.7-1H24
	V15z"/>
</svg>
