<?xml version="1.0" encoding="utf-8"?>
<!-- Generator: Adobe Illustrator 21.1.0, SVG Export Plug-In . SVG Version: 6.00 Build 0)  -->
<svg version="1.1" id="Layer_1" xmlns="http://www.w3.org/2000/svg" xmlns:xlink="http://www.w3.org/1999/xlink" x="0px" y="0px"
	 viewBox="0 0 32 32" style="enable-background:new 0 0 32 32;" xml:space="preserve">
<style type="text/css">
	.Black{fill:#727272;}
	.Red{fill:#D11C1C;}
	.Yellow{fill:#FFB115;}
</style>
<rect x="20" y="16" class="Black" width="2" height="14"/>
<polygon class="Red" points="22,16 22,24 30,24 28,20 30,16 "/>
<path class="Yellow" d="M2,2v3c0,0.6,0.4,1,1,1h1c0,4.1,2.5,8.2,6,10c-3.5,1.8-6,5.9-6,10H3c-0.6,0-1,0.4-1,1v3h16v-2v-2H6
	c0-4.4,3.6-9,8-9c1.5,0,2.8,0.5,4,1.3V16c3.5-1.8,6-5.9,6-10h1c0.6,0,1-0.4,1-1V2H2z M14,15c-4.4,0-8-4.6-8-9h16
	C22,10.4,18.4,15,14,15z"/>
</svg>
