<?xml version="1.0" encoding="utf-8"?>
<!-- Generator: Adobe Illustrator 21.1.0, SVG Export Plug-In . SVG Version: 6.00 Build 0)  -->
<svg version="1.1" id="Layer_1" xmlns="http://www.w3.org/2000/svg" xmlns:xlink="http://www.w3.org/1999/xlink" x="0px" y="0px"
	 viewBox="0 0 32 32" style="enable-background:new 0 0 32 32;" xml:space="preserve">
<style type="text/css">
	.Black{fill:#727272;}
</style>
<path class="Black" d="M16,2C8.3,2,2,8.3,2,16s6.3,14,14,14s14-6.3,14-14S23.7,2,16,2z M17,27.9V26h-2v1.9C9.2,27.5,4.5,22.8,4.1,17
	H6v-2H4.1C4.5,9.2,9.2,4.5,15,4.1V6h2V4.1C22.8,4.5,27.5,9.2,27.9,15H26v2h1.9C27.5,22.8,22.8,27.5,17,27.9z"/>
<path class="Black" d="M17,14.3V8h-2v6.3c-0.6,0.3-1,1-1,1.7c0,1.1,0.9,2,2,2s2-0.9,2-2C18,15.3,17.6,14.6,17,14.3z"/>
</svg>
