<?xml version="1.0" encoding="utf-8"?>
<!-- Generator: Adobe Illustrator 21.1.0, SVG Export Plug-In . SVG Version: 6.00 Build 0)  -->
<svg version="1.1" id="Layer_1" xmlns="http://www.w3.org/2000/svg" xmlns:xlink="http://www.w3.org/1999/xlink" x="0px" y="0px"
	 viewBox="0 0 32 32" style="enable-background:new 0 0 32 32;" xml:space="preserve">
<style type="text/css">
	.Yellow{fill:#FFB115;}
</style>
<path class="Yellow" d="M4,2v3c0,0.5,0.5,1,1,1h1c0,4.1,2.5,8.2,6,10c-3.5,1.8-6,5.9-6,10H5c-0.5,0-1,0.5-1,1v3h24v-3
	c0-0.5-0.5-1-1-1h-1c0-4.1-2.5-8.2-6-10c3.5-1.8,6-5.9,6-10h1c0.5,0,1-0.5,1-1V2H4z M24,26H8c0-4.4,3.6-9,8-9S24,21.6,24,26z M16,15
	c-4.4,0-8-4.6-8-9h16C24,10.4,20.4,15,16,15z"/>
</svg>
