<?xml version="1.0" encoding="utf-8"?>
<!-- Generator: Adobe Illustrator 19.1.1, SVG Export Plug-In . SVG Version: 6.00 Build 0)  -->
<svg version="1.1" id="Layer_1" xmlns="http://www.w3.org/2000/svg" xmlns:xlink="http://www.w3.org/1999/xlink" x="0px" y="0px"
	 viewBox="0 0 32 32" enable-background="new 0 0 32 32" xml:space="preserve">
<g>
	<path d="M27,4h-3v2c0,1.1-0.9,2-2,2s-2-0.9-2-2V4h-8v2c0,1.1-0.9,2-2,2S8,7.1,8,6V4H5C4.4,4,4,4.4,4,5v5h24V5C28,4.4,27.6,4,27,4z"
		/>
	<path d="M10,7c0.6,0,1-0.4,1-1V3c0-0.6-0.4-1-1-1S9,2.4,9,3v3C9,6.6,9.4,7,10,7z"/>
	<path d="M22,7c0.6,0,1-0.4,1-1V3c0-0.6-0.4-1-1-1s-1,0.4-1,1v3C21,6.6,21.4,7,22,7z"/>
	<path d="M4,29c0,0.6,0.4,1,1,1h22c0.6,0,1-0.4,1-1V11H4V29z M22.7,17.4l-7.6,7.6c-0.2,0.2-0.5,0.3-0.7,0.3c-0.3,0-0.5-0.1-0.7-0.3
		l-4.5-4.5c-0.4-0.4-0.4-1,0-1.4l0.7-0.7c0.4-0.4,1-0.4,1.4,0l3.1,3.1l6.2-6.2c0.4-0.4,1-0.4,1.4,0l0.7,0.7
		C23.1,16.3,23.1,17,22.7,17.4z"/>
</g>
</svg>
