<?xml version="1.0" encoding="utf-8"?>
<!-- Generator: Adobe Illustrator 19.1.1, SVG Export Plug-In . SVG Version: 6.00 Build 0)  -->
<svg version="1.1" id="Layer_1" xmlns="http://www.w3.org/2000/svg" xmlns:xlink="http://www.w3.org/1999/xlink" x="0px" y="0px"
	 viewBox="0 0 32 32" enable-background="new 0 0 32 32" xml:space="preserve">
<g>
	<path d="M28,2H4C3.4,2,3,2.4,3,3v26c0,0.6,0.4,1,1,1h24c0.6,0,1-0.4,1-1V3C29,2.4,28.6,2,28,2z M7.5,28C6.7,28,6,27.3,6,26.5
		S6.7,25,7.5,25S9,25.7,9,26.5S8.3,28,7.5,28z M7.5,17C6.7,17,6,16.3,6,15.5S6.7,14,7.5,14S9,14.7,9,15.5S8.3,17,7.5,17z M7.5,7
		C6.7,7,6,6.3,6,5.5S6.7,4,7.5,4S9,4.7,9,5.5S8.3,7,7.5,7z M26,27H13v-1h13V27z M26,24H13v-1h13V24z M26,21H13v-1h13V21z M26,18H13
		v-1h13V18z M26,15H13v-1h13V15z M26,12H13v-1h13V12z M26,9H13V8h13V9z M26,6H13V5h13V6z"/>
</g>
</svg>
