<?xml version="1.0" encoding="utf-8"?>
<!-- Generator: Adobe Illustrator 19.1.1, SVG Export Plug-In . SVG Version: 6.00 Build 0)  -->
<svg version="1.1" id="Layer_1" xmlns="http://www.w3.org/2000/svg" xmlns:xlink="http://www.w3.org/1999/xlink" x="0px" y="0px"
	 viewBox="0 0 32 32" enable-background="new 0 0 32 32" xml:space="preserve">
<g>
	<path d="M16,2L16,2L16,2C10.8,2,6,6.5,6,12c0,1.9,0.6,3.7,1.6,5.2L16,30l0,0l8.4-12.8c0.9-1.5,1.6-3.3,1.6-5.2C26,6.5,21.2,2,16,2z
		 M19.1,16.1C18.6,16.6,18,16.9,17,17v1h-1.6H15v-1.1c-1.4-0.2-2.3-0.9-2.6-1.9h2.2c0.3,0.4,0.9,0.6,1.6,0.6c1.7,0,1.8-1.5-0.1-1.8
		c-0.7-0.1-3.2-0.3-3.2-2.4c0-0.6,0.2-1.2,0.7-1.6c0.4-0.4,0.9-0.6,1.5-0.7V8h0.4h1.2H17v1c1.2,0.2,1.9,0.6,2.5,2h-2
		c-0.3-0.4-0.7-0.7-1.4-0.7c-0.8,0-1.1,0.3-1.1,0.7c0,0.4,0.4,0.7,1.1,0.8c3.5,0.4,3.6,2.2,3.6,2.6C19.7,15.1,19.6,15.6,19.1,16.1z"
		/>
</g>
</svg>
