<?xml version="1.0" encoding="utf-8"?>
<!-- Generator: Adobe Illustrator 19.1.1, SVG Export Plug-In . SVG Version: 6.00 Build 0)  -->
<svg version="1.1" id="Layer_1" xmlns="http://www.w3.org/2000/svg" xmlns:xlink="http://www.w3.org/1999/xlink" x="0px" y="0px"
	 viewBox="0 0 32 32" enable-background="new 0 0 32 32" xml:space="preserve">
<g>
	<path d="M20,3H6C5.4,3,5,3.4,5,4v24c0,0.6,0.4,1,1,1h20c0.6,0,1-0.4,1-1V10h-7V3z M17.7,17.7l-6,6c0,0,0,0,0,0
		c-0.3,0.3-0.7,0.4-1.1,0.2c-0.1,0-0.2-0.1-0.3-0.2c0,0,0,0,0,0l-3.1-3.1c-0.4-0.4-0.4-1,0-1.4c0.4-0.4,1-0.4,1.4,0l2.4,2.4l5.3-5.3
		c0.4-0.4,1-0.4,1.4,0C18.1,16.7,18.1,17.4,17.7,17.7z M17.7,9.7l-6,6c0,0,0,0,0,0c-0.3,0.3-0.7,0.4-1.1,0.2c-0.1,0-0.2-0.1-0.3-0.2
		c0,0,0,0,0,0l-3.1-3.1c-0.4-0.4-0.4-1,0-1.4c0.4-0.4,1-0.4,1.4,0l2.4,2.4l5.3-5.3c0.4-0.4,1-0.4,1.4,0C18.1,8.7,18.1,9.4,17.7,9.7z
		"/>
	<polygon points="21,3 21,9 27,9 	"/>
</g>
</svg>
