<?xml version="1.0" encoding="utf-8"?>
<!-- Generator: Adobe Illustrator 19.1.1, SVG Export Plug-In . SVG Version: 6.00 Build 0)  -->
<svg version="1.1" id="Layer_1" xmlns="http://www.w3.org/2000/svg" xmlns:xlink="http://www.w3.org/1999/xlink" x="0px" y="0px"
	 viewBox="0 0 32 32" enable-background="new 0 0 32 32" xml:space="preserve">
<g>
	<path d="M7.3,3L3,14l2.6,0l0.7-2h4.4l0.7,2H14L9.7,3H7.3z M7,10l1.5-4.4L10,10H7z"/>
	<polygon points="4,20 10,20 4,27 4,29 13,29 13,27 7,27 13,20 13,18 4,18 	"/>
</g>
<path d="M23,30l-6-9h4V3c0-0.6,0.4-1,1-1h2c0.6,0,1,0.4,1,1v18h4L23,30z"/>
</svg>
