<?xml version="1.0" encoding="utf-8"?>
<!-- Generator: Adobe Illustrator 19.1.1, SVG Export Plug-In . SVG Version: 6.00 Build 0)  -->
<svg version="1.1" id="Layer_1" xmlns="http://www.w3.org/2000/svg" xmlns:xlink="http://www.w3.org/1999/xlink" x="0px" y="0px"
	 viewBox="0 0 32 32" enable-background="new 0 0 32 32" xml:space="preserve">
<g>
	<path d="M27,9h-1v6H6V9H5c-1.7,0-3,1.3-3,3v11c0,1.7,1.3,3,3,3h2v-3H6v-2v-1h20v1v2h-1v3h2c1.7,0,3-1.3,3-3V12C30,10.3,28.7,9,27,9
		z"/>
	<path d="M24,3c0-0.6-0.4-1-1-1H9C8.4,2,8,2.4,8,3v10h16V3z"/>
	<path d="M8,29c0,0.6,0.4,1,1,1h14c0.6,0,1-0.4,1-1v-7H8V29z M11,24h10v1H11V24z M11,26h10v1H11V26z"/>
</g>
</svg>
