<?xml version="1.0" encoding="utf-8"?>
<!-- Generator: Adobe Illustrator 19.1.1, SVG Export Plug-In . SVG Version: 6.00 Build 0)  -->
<svg version="1.1" id="Layer_1" xmlns="http://www.w3.org/2000/svg" xmlns:xlink="http://www.w3.org/1999/xlink" x="0px" y="0px"
	 viewBox="1 -1 32 32" enable-background="new 1 -1 32 32" xml:space="preserve">
<g>
	<path d="M27.1,19.2c0.1-0.2,0.2-0.4,0.2-0.7c0.1-0.2,0.1-0.4,0.2-0.5l3.4-1v-4l-3.4-1c-0.1-0.2-0.1-0.4-0.2-0.5
		c-0.1-0.2-0.1-0.5-0.2-0.7c-0.1-0.2-0.2-0.4-0.3-0.6c-0.1-0.2-0.2-0.3-0.2-0.5l1.7-3.1l-2.8-2.8l-3.1,1.7c-0.2-0.1-0.3-0.2-0.5-0.2
		c-0.2-0.1-0.4-0.2-0.6-0.3c-0.2-0.1-0.4-0.2-0.7-0.2c-0.2-0.1-0.3-0.1-0.5-0.2L19,1h-4l-1,3.4c-0.2,0.1-0.4,0.1-0.5,0.2
		c-0.2,0.1-0.5,0.1-0.7,0.2c-0.2,0.1-0.4,0.2-0.6,0.3c-0.2,0.1-0.3,0.2-0.5,0.2L8.5,3.7L5.7,6.5l1.7,3.1C7.3,9.8,7.2,10,7.2,10.2
		c-0.1,0.2-0.2,0.4-0.3,0.6c-0.1,0.2-0.2,0.4-0.2,0.7c-0.1,0.2-0.1,0.3-0.2,0.5L3,13v4l3.4,1c0.1,0.2,0.1,0.4,0.2,0.5
		c0.1,0.2,0.1,0.4,0.2,0.7c0.1,0.2,0.2,0.4,0.3,0.6c0.1,0.2,0.2,0.3,0.2,0.5l-1.7,3.1l2.8,2.8l3.1-1.7c0.2,0.1,0.3,0.2,0.5,0.2
		c0.2,0.1,0.4,0.2,0.6,0.3c0.2,0.1,0.4,0.2,0.7,0.2c0.2,0.1,0.3,0.1,0.5,0.2l1,3.4h4l1-3.4c0.2-0.1,0.4-0.1,0.5-0.2
		c0.2-0.1,0.5-0.1,0.7-0.2c0.2-0.1,0.4-0.2,0.6-0.3c0.2-0.1,0.3-0.2,0.5-0.2l3.1,1.7l2.8-2.8l-1.7-3.1c0.1-0.2,0.2-0.3,0.2-0.5
		C26.9,19.6,27.1,19.4,27.1,19.2z M17,22c-3.9,0-7-3.1-7-7c0-3.9,3.1-7,7-7s7,3.1,7,7C24,18.9,20.9,22,17,22z"/>
	<circle cx="17" cy="15" r="4"/>
</g>
</svg>
