<?xml version="1.0" encoding="utf-8"?>
<!-- Generator: Adobe Illustrator 18.1.1, SVG Export Plug-In . SVG Version: 6.00 Build 0)  -->
<!DOCTYPE svg PUBLIC "-//W3C//DTD SVG 1.1//EN" "http://www.w3.org/Graphics/SVG/1.1/DTD/svg11.dtd">
<svg version="1.1" id="Layer_1" xmlns="http://www.w3.org/2000/svg" xmlns:xlink="http://www.w3.org/1999/xlink" x="0px" y="0px"
	 viewBox="0 0 32 32" enable-background="new 0 0 32 32" xml:space="preserve">
<path d="M5,27l4-1l-3-3L5,27z M8,20l-1-1L17.4,8.7l1,1L8,20z M21.3,12.6L11,23l-2-2l10.3-10.3L21.3,12.6z M22.3,13.6l1,1L13,25l-1-1
	L22.3,13.6z M26.4,8.8l-3.2-3.2c-0.8-0.8-2-0.8-2.8,0l-2.1,2.1l6,6l2.1-2.1C27.2,10.8,27.2,9.5,26.4,8.8z"/>
</svg>
