<?xml version="1.0" encoding="utf-8"?>
<!-- Generator: Adobe Illustrator 19.1.1, SVG Export Plug-In . SVG Version: 6.00 Build 0)  -->
<svg version="1.1" id="Layer_1" xmlns="http://www.w3.org/2000/svg" xmlns:xlink="http://www.w3.org/1999/xlink" x="0px" y="0px"
	 viewBox="0 0 32 32" enable-background="new 0 0 32 32" xml:space="preserve">
<path d="M16,19.1"/>
<path d="M12.9,16"/>
<path d="M16,12.9"/>
<path d="M19.1,16"/>
<g>
	<path d="M28,5.5C28,3,22.6,1,16,1S4,3,4,5.5C4,6,4.2,6.5,4.7,7L14,19l0,12l4-2l0-10l9.4-12.1C27.8,6.5,28,6,28,5.5z M16,8
		C10.5,8,6,6.9,6,5.5C6,4.1,10.5,3,16,3s10,1.1,10,2.5C26,6.9,21.5,8,16,8z"/>
</g>
</svg>
