<?xml version="1.0" encoding="utf-8"?>
<!-- Generator: Adobe Illustrator 19.1.1, SVG Export Plug-In . SVG Version: 6.00 Build 0)  -->
<svg version="1.1" id="Layer_1" xmlns="http://www.w3.org/2000/svg" xmlns:xlink="http://www.w3.org/1999/xlink" x="0px" y="0px"
	 viewBox="0 0 32 32" enable-background="new 0 0 32 32" xml:space="preserve">
<g>
	<path d="M26,4h-3v2c0,1.1-0.9,2-2,2H11C9.9,8,9,7.1,9,6V4H6C5.4,4,5,4.4,5,5v24c0,0.6,0.4,1,1,1h20c0.6,0,1-0.4,1-1V5
		C27,4.4,26.6,4,26,4z"/>
	<path d="M11,7h10c0.6,0,1-0.4,1-1V4h-3V3c0-0.6-0.4-1-1-1h-4c-0.6,0-1,0.4-1,1v1h-3v2C10,6.6,10.4,7,11,7z"/>
</g>
</svg>
