<?xml version="1.0" encoding="utf-8"?>
<!-- Generator: Adobe Illustrator 19.1.1, SVG Export Plug-In . SVG Version: 6.00 Build 0)  -->
<svg version="1.1" id="Layer_1" xmlns="http://www.w3.org/2000/svg" xmlns:xlink="http://www.w3.org/1999/xlink" x="0px" y="0px"
	 viewBox="0 0 32 32" enable-background="new 0 0 32 32" xml:space="preserve">
<path d="M16,19.1"/>
<path d="M12.9,16"/>
<path d="M16,12.9"/>
<path d="M19.1,16"/>
<path d="M27,8c0.6,0,1-0.4,1-1V5c0-0.6-0.4-1-1-1H5C4.5,4,4,4.4,4,5v3l8,8l-8,8h0l0,0l0,3c0,0.6,0.4,1,1,1h22c0.6,0,1-0.4,1-1v-2
	c0-0.6-0.4-1-1-1h-1H10l8-8l-1-1l-2-2l-5-5h16H27z"/>
</svg>
