<?xml version="1.0" encoding="utf-8"?>
<!-- Generator: Adobe Illustrator 19.1.1, SVG Export Plug-In . SVG Version: 6.00 Build 0)  -->
<svg version="1.1" id="Layer_1" xmlns="http://www.w3.org/2000/svg" xmlns:xlink="http://www.w3.org/1999/xlink" x="0px" y="0px"
	 viewBox="0 0 32 32" enable-background="new 0 0 32 32" xml:space="preserve">
<path d="M19.1,16l6.6-6.6c0.4-0.4,0.4-1,0-1.4L24,6.3c-0.4-0.4-1-0.4-1.4,0L16,12.9L9.4,6.3C9,5.9,8.4,5.9,8,6.3L6.3,8
	c-0.4,0.4-0.4,1,0,1.4l6.6,6.6l-6.6,6.6c-0.4,0.4-0.4,1,0,1.4L8,25.7c0.4,0.4,1,0.4,1.4,0l6.6-6.6l6.6,6.6c0.4,0.4,1,0.4,1.4,0
	l1.7-1.7c0.4-0.4,0.4-1,0-1.4L19.1,16z"/>
</svg>
