<?xml version="1.0" encoding="utf-8"?>
<!-- Generator: Adobe Illustrator 19.1.1, SVG Export Plug-In . SVG Version: 6.00 Build 0)  -->
<svg version="1.1" id="Layer_1" xmlns="http://www.w3.org/2000/svg" xmlns:xlink="http://www.w3.org/1999/xlink" x="0px" y="0px"
	 viewBox="0 0 32 32" enable-background="new 0 0 32 32" xml:space="preserve">
<g>
	<path d="M29.7,18.3C29.5,18.1,29.3,18,29,18H15c-0.3,0-0.5,0.1-0.7,0.3L22,25L29.7,18.3z"/>
	<path d="M22,27l-7.7-8.7C14.1,18.5,14,18.7,14,19v10c0,0.6,0.4,1,1,1h14c0.6,0,1-0.4,1-1V19c0-0.3-0.1-0.5-0.3-0.7L22,27z"/>
</g>
<g>
	<path d="M22,2H3C2.4,2,2,2.4,2,3v22c0,0.6,0.4,1,1,1h8h1v-8c0-1.1,0.9-2,2-2h9V3C23,2.4,22.6,2,22,2z M5,5h6v1H5V5z M11,15H5v-3h6
		V15z M20,14h-6v-1h6V14z M20,10H5V9h15V10z M20,7h-6V4h6V7z"/>
</g>
</svg>
