<?xml version="1.0" encoding="utf-8"?>
<!-- Generator: Adobe Illustrator 19.1.1, SVG Export Plug-In . SVG Version: 6.00 Build 0)  -->
<svg version="1.1" id="Layer_1" xmlns="http://www.w3.org/2000/svg" xmlns:xlink="http://www.w3.org/1999/xlink" x="0px" y="0px"
	 viewBox="0 0 32 32" enable-background="new 0 0 32 32" xml:space="preserve">
<g>
	<path d="M13,3C7.5,3,3,7.5,3,13s4.5,10,10,10s10-4.5,10-10S18.5,3,13,3z M13,20c-3.9,0-7-3.1-7-7s3.1-7,7-7s7,3.1,7,7
		S16.9,20,13,20z"/>
</g>
<path d="M28.7,27.1l-1.6,1.6c-0.4,0.4-1,0.4-1.4,0l-6.1-6.1c-0.4-0.4-0.4-1,0-1.4l1.6-1.6c0.4-0.4,1-0.4,1.4,0l6.1,6.1
	C29.1,26.1,29.1,26.7,28.7,27.1z"/>
<rect x="9" y="12" width="8" height="2"/>
</svg>
