<?xml version="1.0" encoding="utf-8"?>
<!-- Generator: Adobe Illustrator 19.1.1, SVG Export Plug-In . SVG Version: 6.00 Build 0)  -->
<svg version="1.1" id="Layer_1" xmlns="http://www.w3.org/2000/svg" xmlns:xlink="http://www.w3.org/1999/xlink" x="0px" y="0px"
	 viewBox="0 0 32 32" enable-background="new 0 0 32 32" xml:space="preserve">
<g>
	<path d="M23,17V4c0-0.6-0.4-1-1-1H3C2.4,3,2,3.4,2,4v13c0,0.6,0.4,1,1,1h3v5l5-5h11C22.6,18,23,17.6,23,17z M14,14H6v-1h8V14z
		 M19,11H6v-1h13V11z M19,8H6V7h13V8z"/>
	<path d="M29,11h-4v7c0,1.1-0.9,2-2,2h-1H12v3c0,0.6,0.4,1,1,1h8l5,5v-5h3c0.6,0,1-0.4,1-1V12C30,11.4,29.6,11,29,11z"/>
</g>
</svg>
