<?xml version="1.0" encoding="utf-8"?>
<!-- Generator: Adobe Illustrator 20.1.0, SVG Export Plug-In . SVG Version: 6.00 Build 0)  -->
<svg version="1.1" id="Слой_1" xmlns="http://www.w3.org/2000/svg" xmlns:xlink="http://www.w3.org/1999/xlink" x="0px" y="0px"
	 viewBox="0 0 32 32" style="enable-background:new 0 0 32 32;" xml:space="preserve">
<style type="text/css">
	.Black{fill:#727272;}
	.Red{fill:#D11C1C;}
	.White{fill:#FFFFFF;}
	.st0{opacity:0.6;}
</style>
<path class="Black" d="M0,6h32v22H0V6z"/>
<path class="White" d="M2,8h28v18H2V8z"/>
<g class="st0">
	<rect x="20" y="22" class="Black" width="8" height="2"/>
	<rect x="20" y="18" class="Black" width="8" height="2"/>
	<rect x="20" y="14" class="Black" width="8" height="2"/>
	<rect x="20" y="10" class="Black" width="8" height="2"/>
</g>
<path class="Red" d="M8,20c-1.1,0-2,0.9-2,2s0.9,2,2,2s2-0.9,2-2S9.1,20,8,20z M14,20c-1.1,0-2,0.9-2,2s0.9,2,2,2s2-0.9,2-2
	S15.1,20,14,20z"/>
<polygon class="Red" points="8,12 5,9 4,10 6,12 6,18 14,18 18,12 "/>
</svg>
