<?xml version="1.0" encoding="utf-8"?>
<!-- Generator: Adobe Illustrator 20.1.0, SVG Export Plug-In . SVG Version: 6.00 Build 0)  -->
<svg version="1.1" id="Слой_1" xmlns="http://www.w3.org/2000/svg" xmlns:xlink="http://www.w3.org/1999/xlink" x="0px" y="0px"
	 viewBox="0 0 32 32" style="enable-background:new 0 0 32 32;" xml:space="preserve">
<style type="text/css">
	.White{fill:#FFFFFF;}
	.Black{fill:#727272;}
	.Red{fill:#D11C1C;}
</style>
<g id="Слой_2">
	<path class="Black" d="M18.1,21C18,21,18,21,18.1,21c-2.7-0.7-3.1-2.4-3.1-3c1.6-1.6,3-4.7,3-8c0-0.2,0-0.5,0-1c0-2.5-2.8-5-5.9-5
		c0,0-0.1,0-0.1,0c0,0-0.1,0-0.1,0C8.8,4,6,6.5,6,9c0,0.5,0,0.8,0,1c0,3.3,1.4,6.4,3,8c0,0.7-0.4,2.3-3,3c-5,1.4-6,1.1-6,7h12h9.5
		C20,25.4,18.4,22.3,18.1,21z"/>
	<path class="Red" d="M26,32L26,32L26,32c-0.9-1-6-9.9-6-11.4c0-3.3,2.7-6.6,6-6.6s6,3.3,6,6.6C32,22.1,26.9,31,26,32z"/>
	<path class="White" d="M26,16c2.2,0,4,1.8,4,4s-1.8,4-4,4s-4-1.8-4-4S23.8,16,26,16z"/>
</g>
</svg>
