<?xml version="1.0" encoding="utf-8"?>
<!-- Generator: Adobe Illustrator 20.1.0, SVG Export Plug-In . SVG Version: 6.00 Build 0)  -->
<svg version="1.1" id="Слой_1" xmlns="http://www.w3.org/2000/svg" xmlns:xlink="http://www.w3.org/1999/xlink" x="0px" y="0px"
	 viewBox="0 0 32 32" style="enable-background:new 0 0 32 32;" xml:space="preserve">
<style type="text/css">
	.Yellow{fill:#FFB115;}
</style>
<g id="Слой_2">
	<path class="Yellow" d="M24,6h6c0,0-1.5,13-4,13l-3,1h0c-0.5,2.3-2.7,2.2-5,3l1,2c1.9,0,4,0.1,4,2l0,1h0l-7,0l-7,0h0l0-1
		c0-1.9,2.1-2,4-2l1-2c-2.3-0.8-4.5-0.7-5-3l0,0l-3-1C3.5,19,2,6,2,6h6L7,4l0,0l0,0l9,0l9,0l0,0l0,0L24,6z M24,17c2.4,0,4-9,4-9h-3
		l-1,1l-1,8H24z M7,8H4c0,0,1.6,9,4,9h1L8,9L7,8z"/>
</g>
</svg>
