<?xml version="1.0" encoding="utf-8"?>
<!-- Generator: Adobe Illustrator 20.1.0, SVG Export Plug-In . SVG Version: 6.00 Build 0)  -->
<svg version="1.1" id="Слой_1" xmlns="http://www.w3.org/2000/svg" xmlns:xlink="http://www.w3.org/1999/xlink" x="0px" y="0px"
	 viewBox="0 0 32 32" style="enable-background:new 0 0 32 32;" xml:space="preserve">
<style type="text/css">
	.Black{fill:#727272;}
	.Yellow{fill:#FFB115;}
</style>
<g id="Слой_2">
	<path class="Yellow" d="M26,20l-6-4h-2c0,0-4,2-5,2c-0.9,0-2-1.1-2-2c0-0.8,1-1.4,2-2l5-4l6,2h4v7L26,20z M13,12l-4,4l3,4l6-2
		l2,1.3l4,2.7l-6,5l-2-1l-1,1l-5-2l-1-3l-5-2v-8l3,1l5-3c0,0-0.2,0,0.6,0c0.6,0,1.4,0.4,1.4,1C14,11.5,13.5,11.9,13,12z"/>
	<g>
		<g>
			<path class="Black" d="M0,22h4V10H0V22z M28,10v12h4V10H28z"/>
		</g>
	</g>
</g>
</svg>
