<?xml version="1.0" encoding="utf-8"?>
<!-- Generator: Adobe Illustrator 20.1.0, SVG Export Plug-In . SVG Version: 6.00 Build 0)  -->
<svg version="1.1" id="Слой_1" xmlns="http://www.w3.org/2000/svg" xmlns:xlink="http://www.w3.org/1999/xlink" x="0px" y="0px"
	 viewBox="0 0 32 32" style="enable-background:new 0 0 32 32;" xml:space="preserve">
<style type="text/css">
	.White{fill:#FFFFFF;}
	.Yellow{fill:#FFB115;}
	.Red{fill:#D11C1C;}
</style>
<g id="Слой_2">
	<g>
		<g>
			<path class="Red" d="M2,26h4v4l6-6l-4-4L2,26z M24,20l-4,4l6,6v-4h4L24,20z"/>
		</g>
	</g>
	<path class="Yellow" d="M16,2c6.6,0,12,5.4,12,12s-5.4,12-12,12S4,20.6,4,14S9.4,2,16,2z"/>
	<path class="White" d="M16,4c5.5,0,10,4.5,10,10c0,5.5-4.5,10-10,10c-5.5,0-10-4.5-10-10C6,8.5,10.5,4,16,4z"/>
	<path class="Yellow" d="M16,6c4.4,0,8,3.6,8,8s-3.6,8-8,8c-4.4,0-8-3.6-8-8S11.6,6,16,6z"/>
</g>
</svg>
