<?xml version="1.0" encoding="utf-8"?>
<!-- Generator: Adobe Illustrator 20.1.0, SVG Export Plug-In . SVG Version: 6.00 Build 0)  -->
<svg version="1.1" id="Слой_1" xmlns="http://www.w3.org/2000/svg" xmlns:xlink="http://www.w3.org/1999/xlink" x="0px" y="0px"
	 viewBox="0 0 32 32" style="enable-background:new 0 0 32 32;" xml:space="preserve">
<style type="text/css">
	.Green{fill:#039C23;}
</style>
<path class="Green" d="M22,20c5,1.2,6,2.7,6,8h-7.5H4c0-5.3,1-6.8,6-8c2.6-0.6,3-2.3,3-2.9c0,0,0,0,0,0c-4.1,0-5-1-5-1
	c4.4-3,0.4-6.5,4-10.9c1.1-1.3,2.5-1.3,4-1c1.5-0.3,2.9-0.3,4,1c3.6,4.4-0.4,7.9,4,10.9c0,0-0.9,1-5,1c0,0,0,0.3,0,0.3
	C19,17.9,19.4,19.4,22,20z"/>
</svg>
