<?xml version="1.0" encoding="utf-8"?>
<!-- Generator: Adobe Illustrator 20.1.0, SVG Export Plug-In . SVG Version: 6.00 Build 0)  -->
<svg version="1.1" id="Слой_1" xmlns="http://www.w3.org/2000/svg" xmlns:xlink="http://www.w3.org/1999/xlink" x="0px" y="0px"
	 viewBox="0 0 32 32" style="enable-background:new 0 0 32 32;" xml:space="preserve">
<style type="text/css">
	.Blue{fill:#1177D7;}
	.Red{fill:#D11C1C;}
</style>
<g id="Слой_2">
	<path class="Blue" d="M26,16c5,1.2,6,2.7,6,8h-7.5H8c0-5.3,1-6.8,6-8c2.6-0.6,3-2.3,3-2.9c0,0,0,0,0,0c-4.1,0-5-1-5-1
		c4.4-3,0.4-6.5,4-10.9c1.1-1.3,2.5-1.3,4-1c1.5-0.3,2.9-0.3,4,1c3.6,4.4-0.4,7.9,4,10.9c0,0-0.9,1-5,1c0,0,0,0.3,0,0.3
		C23,13.9,23.4,15.4,26,16z"/>
	<path class="Red" d="M18,21c-2.6-0.7-3-2.3-3-3c1.6-1.6,3-4.7,3-8c0-0.2,0-0.5,0-1c0-2.5-2.8-5-5.9-5c0,0-0.1,0-0.1,0
		c0,0-0.1,0-0.1,0C8.8,4,6,6.5,6,9c0,0.5,0,0.8,0,1c0,3.3,1.4,6.4,3,8c0,0.7-0.4,2.3-3,3c-5,1.4-6,1.1-6,7h12h12
		C24,22.1,23,22.4,18,21z"/>
</g>
</svg>
