<?xml version="1.0" encoding="utf-8"?>
<!-- Generator: Adobe Illustrator 20.1.0, SVG Export Plug-In . SVG Version: 6.00 Build 0)  -->
<svg version="1.1" id="Слой_1" xmlns="http://www.w3.org/2000/svg" xmlns:xlink="http://www.w3.org/1999/xlink" x="0px" y="0px"
	 viewBox="0 0 32 32" style="enable-background:new 0 0 32 32;" xml:space="preserve">
<style type="text/css">
	.Black{fill:#727272;}
</style>
<g id="Слой_2">
	<g>
		<path class="Black" d="M8.2,25.7L8.2,25.7c0,0.1-0.1,0.2-0.1,0.3C8,26.2,8,26.3,8,26.5C8,27.3,8.7,28,9.5,28c0.5,0,1-0.3,1.2-0.6
			l0,0L16,21l-3-3L8.2,25.7z"/>
		<path class="Black" d="M22,19l-4-4l0.4-2.6L19,13c0,0,1.5,1.5,2,2c1,1,1.6,0.4,2,0c0.2-0.3,0.2-0.7,0-1c-0.2-0.3-3.8-4.7-4-5
			c-1.1-1-0.7-1.3-0.7-1.3C19.3,7.2,20,6.2,20,5c0-1.7-1.3-3-3-3c-1.7,0-3,1.3-3,3c0,1.2,0.7,2.3,1.8,2.7L15,8c0,0-3.7,1.8-4,2
			c-0.6,0.3-1,1.4-1,2s0,3,0,3c0,0.6,0.4,1,1,1s1-0.4,1-1v-2l2-1v4l5,5l2,7h3L22,19z"/>
	</g>
</g>
</svg>
