<?xml version="1.0" encoding="utf-8"?>
<!-- Generator: Adobe Illustrator 19.1.0, SVG Export Plug-In . SVG Version: 6.00 Build 0)  -->
<svg version="1.1" id="Layer_1" xmlns="http://www.w3.org/2000/svg" xmlns:xlink="http://www.w3.org/1999/xlink" x="0px" y="0px"
	 viewBox="0 0 32 32" enable-background="new 0 0 32 32" xml:space="preserve">
<g id="Layer_2">
</g>
<polygon fill="#FFFFFF" points="24,12 24,16 28,16 "/>
<polygon fill="#3679B4" points="27,11 22,6 26,6 26,4 20,4 20,2 28,2 28,6 32,6 "/>
<g id="Layer_2_1_">
</g>
<g id="Layer_3">
</g>
<g id="Layer_4">
</g>
<path opacity="0.6" enable-background="new    " d="M24,10h-4V6l-6-6H0v24h4v8h26V16L24,10z M14,2l4,4h-4V2z M2,22V2h10v6h6v2H4v12
	H2z M28,30H6v-6V12h14h2v6h6V30z M24,16v-4l4,4H24z"/>
<g>
	<polygon fill="#FFFFFF" points="22,12 20,12 18,12 6,12 6,22 6,24 6,30 28,30 28,18 22,18 	"/>
	<polygon fill="#FFFFFF" points="24,12 24,16 28,16 	"/>
</g>
<g>
	<polygon fill="#FFFFFF" points="12,2 2,2 2,22 4,22 4,10 18,10 18,8 12,8 	"/>
	<polygon fill="#FFFFFF" points="14,2 14,6 18,6 	"/>
</g>
<g>
	<rect x="8" y="16" opacity="0.2" enable-background="new    " width="12" height="2"/>
	<rect x="8" y="20" opacity="0.2" enable-background="new    " width="18" height="2"/>
	<rect x="8" y="24" opacity="0.2" enable-background="new    " width="18" height="2"/>
	<rect x="4" y="6" opacity="0.2" enable-background="new    " width="6" height="2"/>
</g>
</svg>
