<?xml version="1.0" encoding="utf-8"?>
<!-- Generator: Adobe Illustrator 19.1.0, SVG Export Plug-In . SVG Version: 6.00 Build 0)  -->
<svg version="1.1" id="Layer_1" xmlns="http://www.w3.org/2000/svg" xmlns:xlink="http://www.w3.org/1999/xlink" x="0px" y="0px"
	 viewBox="0 0 32 32" enable-background="new 0 0 32 32" xml:space="preserve">
<path opacity="0.4" enable-background="new    " d="M16,27l-3,3L0,17l3-3L16,27z"/>
<path opacity="0.3" enable-background="new    " d="M28,15L16,27L3,14L15,2L28,15z"/>
<path fill="#FFFFFF" d="M17,10c1.7,0,3,1.3,3,3s-1.3,3-3,3s-3-1.3-3-3S15.3,10,17,10z"/>
<path fill="#FFFFFF" d="M7,1l12,12l-2,2L5,3L7,1z"/>
<path fill="#D04D2F" d="M32,26.6L29,16l-3,10.6c0,0.1,0,0.2,0,0.4c0,1.7,1.3,3,3,3s3-1.3,3-3C32,26.9,32,26.8,32,26.6z"/>
<path opacity="0.6" enable-background="new    " d="M7,1l12,12l-2,2L5,3L7,1z"/>
</svg>
