<?xml version="1.0" encoding="utf-8"?>
<!-- Generator: Adobe Illustrator 19.1.0, SVG Export Plug-In . SVG Version: 6.00 Build 0)  -->
<svg version="1.1" id="Layer_1" xmlns="http://www.w3.org/2000/svg" xmlns:xlink="http://www.w3.org/1999/xlink" x="0px" y="0px"
	 viewBox="0 0 32 32" enable-background="new 0 0 32 32" xml:space="preserve">
<path opacity="0.6" fill="#4DAE89" d="M3.4,25.8l4.3-4.3c-0.7-1-1.2-2.2-1.5-3.5H0.1C0.5,20.9,1.7,23.6,3.4,25.8z"/>
<path fill="#4DAE89" d="M14,31.9v-6.1c-1.3-0.3-2.5-0.8-3.5-1.5l-4.3,4.3C8.4,30.3,11.1,31.5,14,31.9z"/>
<path fill="#4DAE89" d="M21.5,24.3c-1,0.7-2.2,1.2-3.5,1.5v6.1c2.9-0.4,5.6-1.5,7.8-3.2L21.5,24.3z"/>
<path fill="#387BB5" d="M18,0.1v6.1c1.3,0.3,2.5,0.8,3.5,1.5l4.3-4.3C23.6,1.7,20.9,0.5,18,0.1z"/>
<path fill="#387BB5" d="M10.5,7.7c1-0.7,2.2-1.2,3.5-1.5V0.1c-2.9,0.4-5.6,1.5-7.8,3.2L10.5,7.7z"/>
<path opacity="0.6" fill="#387BB5" d="M0.1,14h6.1c0.3-1.3,0.8-2.5,1.5-3.5L3.4,6.2C1.7,8.4,0.5,11.1,0.1,14z"/>
<path d="M4.7,4.7C4.7,4.7,4.7,4.7,4.7,4.7L4.7,4.7z"/>
<path fill="#4DAE89" d="M4.7,27.3C4.7,27.3,4.7,27.3,4.7,27.3L4.7,27.3z"/>
<path fill="#4DAE89" d="M27.3,27.3C27.3,27.3,27.3,27.3,27.3,27.3L27.3,27.3z"/>
<path opacity="0.6" fill="#387BB5" d="M28.6,6.2l-4.3,4.3c0.7,1,1.2,2.2,1.5,3.5h6.1C31.5,11.1,30.3,8.4,28.6,6.2z"/>
<path d="M27.3,4.7C27.3,4.7,27.3,4.7,27.3,4.7L27.3,4.7z"/>
<path opacity="0.6" fill="#4DAE89" d="M31.9,18h-6.1c-0.3,1.3-0.8,2.5-1.5,3.5l4.3,4.3C30.3,23.6,31.5,20.9,31.9,18z"/>
</svg>
