<?xml version="1.0" encoding="utf-8"?>
<!-- Generator: Adobe Illustrator 19.1.0, SVG Export Plug-In . SVG Version: 6.00 Build 0)  -->
<svg version="1.1" id="Layer_1" xmlns="http://www.w3.org/2000/svg" xmlns:xlink="http://www.w3.org/1999/xlink" x="0px" y="0px"
	 viewBox="0 0 32 32" enable-background="new 0 0 32 32" xml:space="preserve">
<g id="Layer_2">
</g>
<polygon fill="#FFFFFF" points="14.1,21.2 8.5,26.8 8.5,3.1 26.7,19.5 19,19.5 24.3,28.8 19.2,31.3 "/>
<path fill="#FFFFFF" d="M9,4.2L25.4,19h-5.5h-1.7l0.8,1.5l4.6,8.1l-4.2,2.1l-4.6-9.1l-0.6-1.2l-1,1L9,25.6V4.2 M8,2v26l6-6l5,10l6-3
	l-5.1-9H28L8,2L8,2z"/>
<path opacity="0.6" d="M9,4.2L25.4,19h-5.5h-1.7l0.8,1.5l4.6,8.1l-4.2,2.1l-4.6-9.1l-0.6-1.2l-1,1L9,25.6V4.2 M8,2v26l6-6l5,10l6-3
	l-5.1-9H28L8,2L8,2z"/>
</svg>
