<?xml version="1.0" encoding="utf-8"?>
<!-- Generator: Adobe Illustrator 19.1.0, SVG Export Plug-In . SVG Version: 6.00 Build 0)  -->
<svg version="1.1" id="Layer_1" xmlns="http://www.w3.org/2000/svg" xmlns:xlink="http://www.w3.org/1999/xlink" x="0px" y="0px"
	 viewBox="0 0 32 32" enable-background="new 0 0 32 32" xml:space="preserve">
<g id="Layer_1_2_">
	<polygon fill="#377AB5" points="4,2 4,4 6,4 6,22 4,22 4,24 8,24 8,2 	"/>
	<polygon fill="#377AB5" points="10,30 12,30 12,28 26,28 26,30 28,30 28,26 10,26 	"/>
	<g id="Layer_1_1_">
		<polygon opacity="0.6" points="10,2 10,24 28,24 28,8 22,2 		"/>
		<polygon fill="#FFFFFF" points="12,4 12,22 26,22 26,10 20,10 20,4 		"/>
		<polygon fill="#FFFFFF" points="22,4 22,8 26,8 		"/>
	</g>
	<g id="Layer_2_1_">
	</g>
</g>
<g id="Layer_2">
</g>
</svg>
