<?xml version="1.0" encoding="utf-8"?>
<!-- Generator: Adobe Illustrator 19.1.0, SVG Export Plug-In . SVG Version: 6.00 Build 0)  -->
<svg version="1.1" id="Layer_1" xmlns="http://www.w3.org/2000/svg" xmlns:xlink="http://www.w3.org/1999/xlink" x="0px" y="0px"
	 viewBox="0 0 32 32" enable-background="new 0 0 32 32" xml:space="preserve">
<path opacity="0.3" fill="#010101" enable-background="new    " d="M18,18v6h6v-6H18z M22,22h-2v-2h2V22z"/>
<path fill="#377AB5" d="M18,26v6h6v-6H18z M22,30h-2v-2h2V30z"/>
<path fill="#4DAE89" d="M26,12v6h6v-6H26z M30,16h-2v-2h2V16z"/>
<rect x="18" fill="#D04D2F" width="6" height="6"/>
<rect x="20" y="2" fill="#FFFFFF" width="2" height="2"/>
<polygon fill="#377AB5" points="4,32 4,6 0,6 5,0 10,6 6,6 6,32 "/>
<path fill="#4DAE89" d="M10,12v6h6v-6H10z M14,16h-2v-2h2V16z"/>
<rect x="20" y="24" fill="#7B7B7B" width="2" height="2"/>
<g opacity="0.6">
	<polygon fill="#010101" points="28,20 24,20 24,22 30,22 30,18 28,18 	"/>
	<polygon fill="#010101" points="14,18 12,18 12,22 18,22 18,20 14,20 	"/>
	<polygon fill="#010101" points="22,8 22,6 20,6 20,8 12,8 12,12 14,12 14,10 20,10 28,10 28,12 30,12 30,8 	"/>
</g>
</svg>
