<?xml version="1.0" encoding="utf-8"?>
<!-- Generator: Adobe Illustrator 19.1.0, SVG Export Plug-In . SVG Version: 6.00 Build 0)  -->
<svg version="1.1" id="Layer_1" xmlns="http://www.w3.org/2000/svg" xmlns:xlink="http://www.w3.org/1999/xlink" x="0px" y="0px"
	 viewBox="0 0 32 32" enable-background="new 0 0 32 32" xml:space="preserve">
<path opacity="0.3" fill="#010101" enable-background="new    " d="M8,8v6h6V8H8z M12,12h-2v-2h2V12z"/>
<path fill="#377AB5" d="M0,8v6h6V8H0z M4,12H2v-2h2V12z"/>
<path fill="#4DAE89" d="M14,0v6h6V0H14z M18,4h-2V2h2V4z"/>
<rect x="26" y="8" fill="#D04D2F" width="6" height="6"/>
<rect x="28" y="10" fill="#FFFFFF" width="2" height="2"/>
<polygon fill="#377AB5" points="0,28 26,28 26,32 32,27 26,22 26,26 0,26 "/>
<path fill="#4DAE89" d="M14,16v6h6v-6H14z M18,20h-2v-2h2V20z"/>
<g opacity="0.6">
	<rect x="6" y="10" fill="#010101" width="2" height="2"/>
	<polygon fill="#010101" points="10,8 12,8 12,4 14,4 14,2 10,2 	"/>
	<polygon fill="#010101" points="12,14 10,14 10,20 14,20 14,18 12,18 	"/>
	<polygon fill="#010101" points="24,10 24,2 20,2 20,4 22,4 22,12 22,18 20,18 20,20 24,20 24,12 26,12 26,10 	"/>
</g>
</svg>
