<?xml version="1.0" encoding="utf-8"?>
<!-- Generator: Adobe Illustrator 19.1.0, SVG Export Plug-In . SVG Version: 6.00 Build 0)  -->
<svg version="1.1" id="Layer_1" xmlns="http://www.w3.org/2000/svg" xmlns:xlink="http://www.w3.org/1999/xlink" x="0px" y="0px"
	 viewBox="0 0 32 32" enable-background="new 0 0 32 32" xml:space="preserve">
<polygon fill="#357DB8" points="27,28 22,22 26,22 26,6 2,6 2,30 22,30 22,32 0,32 0,4 28,4 28,22 32,22 "/>
<g opacity="0.6">
	<rect x="6" y="10" fill="#010101" width="4" height="4"/>
	<rect x="12" y="10" fill="#010101" width="4" height="4"/>
	<rect x="18" y="10" fill="#010101" width="4" height="4"/>
	<rect x="6" y="16" fill="#010101" width="4" height="4"/>
	<rect x="12" y="16" fill="#010101" width="4" height="4"/>
	<rect x="18" y="16" fill="#010101" width="4" height="4"/>
	<rect x="6" y="22" fill="#010101" width="4" height="4"/>
	<rect x="12" y="22" fill="#010101" width="4" height="4"/>
</g>
</svg>
