<?xml version="1.0" encoding="utf-8"?>
<!-- Generator: Adobe Illustrator 21.1.0, SVG Export Plug-In . SVG Version: 6.00 Build 0)  -->
<svg version="1.1" id="Layer_1" xmlns="http://www.w3.org/2000/svg" xmlns:xlink="http://www.w3.org/1999/xlink" x="0px" y="0px"
	 viewBox="0 0 32 32" style="enable-background:new 0 0 32 32;" xml:space="preserve">
<style type="text/css">
	.Black{fill:#727272;}
	.Yellow{fill:#FFB115;}
	.Blue{fill:#1177D7;}
	.Green{fill:#039C23;}
	.Red{fill:#D11C1C;}
	.White{fill:#FFFFFF;}
	.st0{opacity:0.75;}
	.st1{opacity:0.5;}
	.st2{opacity:0.25;}
</style>
<g id="Windows">
	<path class="Black" d="M18,18.1V16h2v0.9C19.3,17.2,18.6,17.6,18,18.1z M14.7,26H2V16H0v11c0,0.5,0.5,1,1,1h15.1
		C15.5,27.3,15.1,26.6,14.7,26z M24,18c5.7,0,8,6,8,6s-2.3,6-8,6c-5.7,0-8-6-8-6S18.3,18,24,18 M24,20c-3.3,0-5.1,2.7-5.8,4
		c0.7,1.3,2.5,4,5.8,4c3.3,0,5.1-2.7,5.8-4C29.1,22.7,27.3,20,24,20L24,20z M24,22c-1.1,0-2,0.9-2,2s0.9,2,2,2c1.1,0,2-0.9,2-2
		S25.1,22,24,22z M26,16.2V8h2v8.9C27.4,16.6,26.7,16.4,26,16.2z M10,8H8v2h2V8z"/>
	<path class="Blue" d="M0,16v-5c0-0.5,0.5-1,1-1h18c0.5,0,1,0.5,1,1v5H0z M28,8V3c0-0.5-0.5-1-1-1H9C8.5,2,8,2.5,8,3v5H28z"/>
</g>
</svg>
