<?xml version="1.0" encoding="utf-8"?>
<!-- Generator: Adobe Illustrator 21.1.0, SVG Export Plug-In . SVG Version: 6.00 Build 0)  -->
<svg version="1.1" id="Layer_1" xmlns="http://www.w3.org/2000/svg" xmlns:xlink="http://www.w3.org/1999/xlink" x="0px" y="0px"
	 viewBox="0 0 32 32" style="enable-background:new 0 0 32 32;" xml:space="preserve">
<style type="text/css">
	.Red{fill:#D11C1C;}
	.Black{fill:#727272;}
	.Blue{fill:#1177D7;}
	.Green{fill:#039C23;}
	.Yellow{fill:#FFB115;}
	.White{fill:#FFFFFF;}
	.st0{opacity:0.5;}
	.st1{opacity:0.75;}
	.st2{opacity:0.25;}
</style>
<g id="PageSetup">
	<path class="Black" d="M19.2,26H8V6h10v5c0,0.6,0.4,1,1,1h5v9.2l2,2V11l-7-7H7C6.4,4,6,4.4,6,5v22c0,0.6,0.4,1,1,1h14.2L19.2,26z"
		/>
	<path class="Blue" d="M27.6,27.6l-6.2-6.2c0.4-0.7,0.6-1.5,0.6-2.4c0-2.8-2.2-5-5-5c-0.8,0-1.5,0.2-2.1,0.5l2.7,2.7
		c0.6,0.6,0.6,1.7,0,2.4s-1.7,0.6-2.4,0l-2.7-2.7C12.2,17.5,12,18.2,12,19c0,2.8,2.2,5,5,5c0.9,0,1.7-0.2,2.4-0.6l6.2,6.2
		c0.6,0.6,1.4,0.6,2,0l0,0C28.1,29,28.1,28.1,27.6,27.6z"/>
</g>
</svg>
