<?xml version="1.0" encoding="utf-8"?>
<!-- Generator: Adobe Illustrator 19.1.1, SVG Export Plug-In . SVG Version: 6.00 Build 0)  -->
<svg version="1.1" id="Layer_1" xmlns="http://www.w3.org/2000/svg" xmlns:xlink="http://www.w3.org/1999/xlink" x="0px" y="0px"
	 viewBox="0 0 23 23" enable-background="new 0 0 23 23" xml:space="preserve">
<g>
	<path d="M11.5,2C6.3,2,2,6.3,2,11.5S6.3,21,11.5,21s9.5-4.3,9.5-9.5S16.7,2,11.5,2z M12,17h-2v-2h2V17z M14.6,10.7
		C14,12,12.2,12.2,12,14h-2c0-1.4,1.4-2.4,1.9-2.9c0.5-0.5,0.9-0.9,1-1c0.2-0.3,0.2-0.5,0.2-0.9c0-0.4-0.1-0.8-0.4-1.1
		c-0.3-0.3-0.7-0.5-1.2-0.5c-1.3,0-1.4,0.9-1.6,1.3H8c0.1-1.1,0.5-1.5,1-2c0.6-0.6,1.5-1,2.5-1c1.1,0,1.9,0.3,2.6,1
		c0.6,0.7,1,1.4,1,2.3C15,9.8,14.9,10.2,14.6,10.7z"/>
</g>
</svg>
