<?xml version="1.0" encoding="utf-8"?>
<!-- Generator: Adobe Illustrator 19.1.1, SVG Export Plug-In . SVG Version: 6.00 Build 0)  -->
<svg version="1.1" id="Layer_1" xmlns="http://www.w3.org/2000/svg" xmlns:xlink="http://www.w3.org/1999/xlink" x="0px" y="0px"
	 viewBox="-3 4 23 23" enable-background="new -3 4 23 23" xml:space="preserve">
<circle cx="8.5" cy="17.5" r="1.5"/>
<rect x="8" y="14" width="1" height="3"/>
<path d="M13.9,10.9c0.6-0.2,1.1-0.8,1.1-1.4C15,8.7,14.3,8,13.5,8S12,8.7,12,9.5c0,0,0,0.1,0,0.1l-0.1,0.1c-0.6-0.3-1.2-0.4-1.8-0.6
	V7.9c0.6-0.2,1-0.8,1-1.4C11,5.7,10.3,5,9.5,5h-2C6.7,5,6,5.7,6,6.5c0,0.7,0.4,1.2,1,1.4v1.2c-4,0.7-7,4.2-7,8.4
	C0,22.2,3.8,26,8.5,26s8.5-3.8,8.5-8.5C17,14.9,15.8,12.5,13.9,10.9z M8.5,23c-3,0-5.5-2.5-5.5-5.5c0-3,2.5-5.5,5.5-5.5
	s5.5,2.5,5.5,5.5C14,20.5,11.5,23,8.5,23z"/>
</svg>
