<?xml version="1.0" encoding="utf-8"?>
<!-- Generator: Adobe Illustrator 19.1.1, SVG Export Plug-In . SVG Version: 6.00 Build 0)  -->
<svg version="1.1" id="Layer_1" xmlns="http://www.w3.org/2000/svg" xmlns:xlink="http://www.w3.org/1999/xlink" x="0px" y="0px"
	 viewBox="0 0 23 23" enable-background="new 0 0 23 23" xml:space="preserve">
<g>
	<path d="M17.9,12.3c0-0.3,0.1-0.5,0.1-0.8C18,7.9,15.1,5,11.5,5c-0.3,0-0.5,0-0.8,0.1C10,4.4,9,4,8,4C5.8,4,4,5.8,4,8
		c0,1,0.4,2,1.1,2.7C5,11,5,11.2,5,11.5c0,3.6,2.9,6.5,6.5,6.5c0.3,0,0.5,0,0.8-0.1C13,18.6,14,19,15,19c2.2,0,4-1.8,4-4
		C19,14,18.6,13,17.9,12.3z M14.6,14.7c-0.3,0.4-0.7,0.8-1.2,1c-0.5,0.2-1.1,0.3-1.9,0.3c-1.1,0-1.9-0.3-2.5-0.8
		C8.5,14.7,8.1,14,8,13h2c0.1,1.2,1.1,1.5,1.6,1.5c0.6,0,1-0.1,1.3-0.4c0.3-0.2,0.4-0.5,0.4-0.8c0-0.2-0.1-0.4-0.2-0.5
		c-0.1-0.1-0.3-0.3-0.6-0.4c-0.2-0.1-0.7-0.2-1.4-0.4c-0.9-0.2-1.6-0.5-2-0.9c-0.5-0.5-0.8-1.1-0.8-1.7c0-0.4,0.1-0.9,0.4-1.2
		s0.6-0.7,1.1-0.9c0.5-0.2,1-0.3,1.7-0.3c1.1,0,1.9,0.2,2.4,0.7C14.4,8.2,15,8.9,15,10h-2c0-0.8-0.2-1.1-0.5-1.3
		c-0.2-0.2-0.6-0.3-1.1-0.3c-0.5,0-0.9,0.1-1.2,0.3C10.1,8.9,10,9.1,10,9.3c0,0.2,0.1,0.4,0.3,0.5c0.2,0.2,0.8,0.4,1.6,0.6
		s1.5,0.4,1.9,0.6c0.4,0.2,0.7,0.5,0.9,0.9c0.2,0.4,0.3,0.8,0.3,1.4C15,13.8,14.9,14.3,14.6,14.7z"/>
</g>
</svg>
