<?xml version="1.0" encoding="utf-8"?>
<!-- Generator: Adobe Illustrator 19.1.1, SVG Export Plug-In . SVG Version: 6.00 Build 0)  -->
<svg version="1.1" id="Layer_1" xmlns="http://www.w3.org/2000/svg" xmlns:xlink="http://www.w3.org/1999/xlink" x="0px" y="0px"
	 viewBox="0 0 23 23" enable-background="new 0 0 23 23" xml:space="preserve">
<g>
	<path d="M15,6H9V4H7v2.5V18c0,0.6,0.4,1,1,1h7c0.6,0,1-0.4,1-1V7C16,6.4,15.6,6,15,6z M10,17H9v-1h1V17z M10,15H9v-1h1V15z M12,17
		h-1v-1h1V17z M12,15h-1v-1h1V15z M14,17h-1v-1h1V17z M14,15h-1v-1h1V15z M14,13H9V8h5V13z"/>
</g>
</svg>
