<?xml version="1.0" encoding="utf-8"?>
<!-- Generator: Adobe Illustrator 19.1.1, SVG Export Plug-In . SVG Version: 6.00 Build 0)  -->
<svg version="1.1" id="Layer_1" xmlns="http://www.w3.org/2000/svg" xmlns:xlink="http://www.w3.org/1999/xlink" x="0px" y="0px"
	 viewBox="-3 4 23 23" enable-background="new -3 4 23 23" xml:space="preserve">
<g>
	<rect x="2" y="6" width="1" height="2"/>
	<rect x="14" y="6" width="1" height="2"/>
</g>
<g>
	<g>
		<path d="M16,7v2h-3V7H4v2H1V7h-2v18h19V7H16z M17,24H0V11h17V24z"/>
	</g>
</g>
<rect x="1" y="12" opacity="0.5" enable-background="new    " width="3" height="3"/>
<rect x="5" y="12" width="3" height="3"/>
<rect x="9" y="12" width="3" height="3"/>
<rect x="13" y="12" width="3" height="3"/>
<rect x="1" y="16" width="3" height="3"/>
<rect x="5" y="16" width="3" height="3"/>
<rect x="9" y="16" width="3" height="3"/>
<rect x="13" y="16" width="3" height="3"/>
<rect x="1" y="20" width="3" height="3"/>
<rect x="5" y="20" width="3" height="3"/>
<rect x="9" y="20" opacity="0.5" enable-background="new    " width="3" height="3"/>
<rect x="13" y="20" opacity="0.5" enable-background="new    " width="3" height="3"/>
</svg>
