<?xml version="1.0" encoding="utf-8"?>
<!-- Generator: Adobe Illustrator 19.1.1, SVG Export Plug-In . SVG Version: 6.00 Build 0)  -->
<svg version="1.1" id="Layer_1" xmlns="http://www.w3.org/2000/svg" xmlns:xlink="http://www.w3.org/1999/xlink" x="0px" y="0px"
	 viewBox="0 0 23 23" enable-background="new 0 0 23 23" xml:space="preserve">
<path d="M18.8,16.2l-2.5-2.5c-0.3-0.3-0.9-0.3-1.3,0l-0.3,0.3c-0.5,0.5-1.3,0.5-1.8,0l-3.8-3.8c-0.5-0.5-0.5-1.3,0-1.8L9.4,8
	c0.3-0.3,0.3-0.9,0-1.3L6.8,4.2c-0.3-0.3-0.9-0.3-1.3,0C4.9,5,4.3,5.8,4.1,6.8c-0.4,1.7,0.1,3.6,1.5,5l5.6,5.6
	c1.3,1.3,3.2,1.8,5,1.5c1-0.2,1.9-0.8,2.6-1.5C19.1,17.1,19.1,16.5,18.8,16.2z"/>
</svg>
