<?xml version="1.0" encoding="utf-8"?>
<!-- Generator: Adobe Illustrator 19.1.1, SVG Export Plug-In . SVG Version: 6.00 Build 0)  -->
<svg version="1.1" id="Layer_1" xmlns="http://www.w3.org/2000/svg" xmlns:xlink="http://www.w3.org/1999/xlink" x="0px" y="0px"
	 viewBox="-3 4 23 23" enable-background="new -3 4 23 23" xml:space="preserve">
<polygon points="9,16 9,11 8,11 8,17 13,17 13,16 "/>
<path d="M18,15.5C18,10.3,13.7,6,8.5,6S-1,10.3-1,15.5c0,5.1,4,9.2,9,9.5v-3c-3.4-0.3-6-3.1-6-6.5C2,11.9,4.9,9,8.5,9
	s6.5,2.9,6.5,6.5c0,2.1-1,3.9-2.4,5.1L10,18v3.8v3.1V25h7l-2.3-2.3C16.7,20.9,18,18.4,18,15.5z"/>
</svg>
