<?xml version="1.0" encoding="utf-8"?>
<!-- Generator: Adobe Illustrator 19.1.0, SVG Export Plug-In . SVG Version: 6.00 Build 0)  -->
<svg version="1.1" id="Layer_1" xmlns="http://www.w3.org/2000/svg" xmlns:xlink="http://www.w3.org/1999/xlink" x="0px" y="0px"
	 viewBox="0 0 32 32" enable-background="new 0 0 32 32" xml:space="preserve">
<path opacity="0.3" enable-background="new    " d="M32,0H0v32l0,0h32V0z M30,30H2V2h28V30z"/>
<path opacity="0.6" enable-background="new    " d="M6,6v8h8V6H6z M12,12H8V8h4V12z"/>
<path opacity="0.6" enable-background="new    " d="M18,6v8h8V6H18z M24,12h-4V8h4V12z"/>
<path opacity="0.6" enable-background="new    " d="M6,18v8h8v-8H6z M12,24H8v-4h4V24z"/>
<path opacity="0.6" enable-background="new    " d="M18,18v8h8v-8H18z M24,24h-4v-4h4V24z"/>
</svg>
