<?xml version="1.0" encoding="utf-8"?>
<!-- Generator: Adobe Illustrator 20.1.0, SVG Export Plug-In . SVG Version: 6.00 Build 0)  -->
<svg version="1.1" id="Слой_1" xmlns="http://www.w3.org/2000/svg" xmlns:xlink="http://www.w3.org/1999/xlink" x="0px" y="0px"
	 viewBox="0 0 32 32" style="enable-background:new 0 0 32 32;" xml:space="preserve">
<style type="text/css">
	.White{fill:#FFFFFF;}
	.Black{fill:#727272;}
	.Blue{fill:#1177D7;}
</style>
<path class="Black" d="M4,30V2h24v28H4z"/>
<path class="White" d="M6,28V4h20v24H6z"/>
<path class="Blue" d="M20,19.8c3.3,0.9,4,2.1,4,6.2h-5H8c0-4.1,0.7-5.3,4-6.2c1.7-0.5,2-1.7,2-2.1c-1.1-1.1-2-3.2-2-5.5
	c0-0.1,0-0.4,0-0.7C12,9.7,13.9,8,15.9,8c0,0,0,0,0.1,0c0,0,0,0,0.1,0c2.1,0,3.9,1.7,3.9,3.5c0,0.3,0,0.6,0,0.7c0,2.3-0.9,4.4-2,5.5
	C18,18.1,18.3,19.3,20,19.8z"/>
</svg>
