<?xml version="1.0" encoding="utf-8"?>
<!-- Generator: Adobe Illustrator 20.1.0, SVG Export Plug-In . SVG Version: 6.00 Build 0)  -->
<svg version="1.1" id="Слой_1" xmlns="http://www.w3.org/2000/svg" xmlns:xlink="http://www.w3.org/1999/xlink" x="0px" y="0px"
	 viewBox="0 0 32 32" style="enable-background:new 0 0 32 32;" xml:space="preserve">
<style type="text/css">
	.Blue{fill:#1177D7;}
	.Black{fill:#727272;}
	.White{fill:#FFFFFF;}
	.st0{opacity:0.6;}
</style>
<g id="Слой_2">
	<path class="Black" d="M4,30V2h24v28H4z"/>
	<path class="White" d="M6,28V4h20v24H6z"/>
	<path class="Blue" d="M8,22h2v-2H8V22z M8,18h2v-2H8V18z M8,14h2v-2H8V14z M8,8v2h2V8H8z"/>
</g>
<g id="Слой_2_1_" class="st0">
	<path class="Black" d="M12,22h12v-2H12V22z M12,18h12v-2H12V18z M12,14h12v-2H12V14z M12,8v2h12V8H12z"/>
</g>
</svg>
