<?xml version="1.0" encoding="utf-8"?>
<!-- Generator: Adobe Illustrator 20.1.0, SVG Export Plug-In . SVG Version: 6.00 Build 0)  -->
<svg version="1.1" id="Слой_1" xmlns="http://www.w3.org/2000/svg" xmlns:xlink="http://www.w3.org/1999/xlink" x="0px" y="0px"
	 viewBox="0 0 32 32" style="enable-background:new 0 0 32 32;" xml:space="preserve">
<style type="text/css">
	.White{fill:#FFFFFF;}
	.Black{fill:#727272;}
</style>
<path class="Black" d="M23,0c-0.5,0-1,0.5-1,1v3H12c-1.1,0-2,0.9-2,2v24c0,1.1,0.9,2,2,2h10c1.1,0,2-0.9,2-2V7V6V1
	C24,0.5,23.5,0,23,0z"/>
<g>
	<path class="White" d="M20,6h-6c-1.1,0-2,0.9-2,2v10h10V8C22,6.9,21.1,6,20,6z"/>
	<rect x="12" y="20" class="White" width="2" height="2"/>
	<rect x="16" y="20" class="White" width="2" height="2"/>
	<rect x="20" y="20" class="White" width="2" height="2"/>
	<rect x="12" y="24" class="White" width="2" height="2"/>
	<rect x="16" y="24" class="White" width="2" height="2"/>
	<rect x="20" y="24" class="White" width="2" height="2"/>
	<rect x="20" y="28" class="White" width="2" height="2"/>
	<rect x="16" y="28" class="White" width="2" height="2"/>
	<rect x="12" y="28" class="White" width="2" height="2"/>
</g>
</svg>
