<?xml version="1.0" encoding="utf-8"?>
<!-- Generator: Adobe Illustrator 20.1.0, SVG Export Plug-In . SVG Version: 6.00 Build 0)  -->
<svg version="1.1" id="Слой_1" xmlns="http://www.w3.org/2000/svg" xmlns:xlink="http://www.w3.org/1999/xlink" x="0px" y="0px"
	 viewBox="0 0 32 32" style="enable-background:new 0 0 32 32;" xml:space="preserve">
<style type="text/css">
	.White{fill:#FFFFFF;}
	.Black{fill:#727272;}
</style>
<path class="Black" d="M22,30H10c-1.1,0-2-0.9-2-2V4c0-1.1,0.9-2,2-2h12c1.1,0,2,0.9,2,2v24C24,29.1,23.1,30,22,30z"/>
<rect x="10" y="4" class="White" width="12" height="20"/>
<path class="White" d="M17,26h-2c-0.6,0-1,0.5-1,1c0,0.6,0.5,1,1,1h2c0.6,0,1-0.4,1-1S17.5,26,17,26z"/>
</svg>
