<?xml version="1.0" encoding="utf-8"?>
<!-- Generator: Adobe Illustrator 20.1.0, SVG Export Plug-In . SVG Version: 6.00 Build 0)  -->
<svg version="1.1" id="Слой_1" xmlns="http://www.w3.org/2000/svg" xmlns:xlink="http://www.w3.org/1999/xlink" x="0px" y="0px"
	 viewBox="0 0 32 32" style="enable-background:new 0 0 32 32;" xml:space="preserve">
<style type="text/css">
	.Black{fill:#727272;}
</style>
<path id="Phone3" class="Black" d="M22,20c0,0-1.8,1.5-3,1.8c-1,0.3-1.8-0.4-2.2-0.8c-1.6-1.1-3-2.7-4.1-4.4
	c-0.4-0.7-1.2-1.4-0.7-2.7c0.3-0.8,2-2,2-2l-4-8c-3.2,1.8-5.1,6.2-3.3,11c1.8,4.7,6.2,9.9,10.5,12c2.6,1.3,5.9,1.4,8.2-0.1
	c0.8-0.5,2.2-1.9,2.6-2.9L22,20z"/>
</svg>
