<?xml version="1.0" encoding="utf-8"?>
<!-- Generator: Adobe Illustrator 20.1.0, SVG Export Plug-In . SVG Version: 6.00 Build 0)  -->
<svg version="1.1" id="Слой_1" xmlns="http://www.w3.org/2000/svg" xmlns:xlink="http://www.w3.org/1999/xlink" x="0px" y="0px"
	 viewBox="0 0 32 32" style="enable-background:new 0 0 32 32;" xml:space="preserve">
<style type="text/css">
	.Black{fill:#727272;}
</style>
<path id="Phone2" class="Black" d="M10.7,4c1.6,0.1,4.7,4.4,3.9,6.5c-0.5,1.3-2.3,1.6-2.8,2.9c-0.4,1.2,0.4,2.6,0.9,3.3
	c1,1.7,2.5,3.3,4.1,4.4c0.5,0.3,1.2,1,2.2,0.8c1.6-0.4,2.1-3.1,4.4-2.4c1.1,0.4,4.9,3.1,4.5,4.8c-0.2,1-1.8,2.2-2.6,2.7
	c-2.4,1.5-5.7,1.4-8.2,0.1c-4.3-2.1-8.7-7.3-10.5-12C4.7,9.9,7.2,5.6,10.7,4z"/>
</svg>
