<?xml version="1.0" encoding="utf-8"?>
<!-- Generator: Adobe Illustrator 20.1.0, SVG Export Plug-In . SVG Version: 6.00 Build 0)  -->
<svg version="1.1" id="Слой_1" xmlns="http://www.w3.org/2000/svg" xmlns:xlink="http://www.w3.org/1999/xlink" x="0px" y="0px"
	 viewBox="0 0 32 32" style="enable-background:new 0 0 32 32;" xml:space="preserve">
<style type="text/css">
	.Blue{fill:#1177D7;}
</style>
<path id="Phone" class="Blue" d="M18,28c-4.4,0-8-3.6-8-8v-4v-4c0-4.4,3.6-8,8-8c0,0,2,0,2,2v2c0,0.3,0,0.6,0,1c0,1.7-0.8,3-2.5,3
	c0,0-3.5,0-3.5,4s3.5,4,3.5,4c1.7,0,2.5,1.3,2.5,3c0,0.4,0,0.7,0,1v2C20,28,18,28,18,28z"/>
</svg>
