<?xml version="1.0" encoding="utf-8"?>
<!-- Generator: Adobe Illustrator 20.1.0, SVG Export Plug-In . SVG Version: 6.00 Build 0)  -->
<svg version="1.1" id="Слой_1" xmlns="http://www.w3.org/2000/svg" xmlns:xlink="http://www.w3.org/1999/xlink" x="0px" y="0px"
	 viewBox="0 0 32 32" style="enable-background:new 0 0 32 32;" xml:space="preserve">
<style type="text/css">
	.Black{fill:#727272;}
	.Red{fill:#D11C1C;}
</style>
<g id="Слой_2">
	<path class="Red" d="M30,8l-4,8L8,16v2l18,0l-2,2H6V8L2,4l1-1l5,5H30z"/>
	<g>
		<g>
			<path class="Black" d="M9,22c-1.7,0-3,1.3-3,3c0,1.7,1.3,3,3,3c1.7,0,3-1.3,3-3C12,23.3,10.7,22,9,22z M21,22c-1.7,0-3,1.3-3,3
				c0,1.7,1.3,3,3,3c1.7,0,3-1.3,3-3C24,23.3,22.7,22,21,22z"/>
		</g>
	</g>
</g>
</svg>
