<?xml version="1.0" encoding="utf-8"?>
<!-- Generator: Adobe Illustrator 20.1.0, SVG Export Plug-In . SVG Version: 6.00 Build 0)  -->
<svg version="1.1" id="Слой_2" xmlns="http://www.w3.org/2000/svg" xmlns:xlink="http://www.w3.org/1999/xlink" x="0px" y="0px"
	 viewBox="0 0 32 32" style="enable-background:new 0 0 32 32;" xml:space="preserve">
<style type="text/css">
	.Yellow{fill:#FFB115;}
	.Black{fill:#727272;}
</style>
<polygon class="Yellow" points="12,22 10,30 30,30 28,22 "/>
<path class="Black" d="M24,16h-2V4c0-1.1-0.9-2-2-2s-2,0.9-2,2v12h-2c-2.2,0-4,1.8-4,4h16C28,17.8,26.2,16,24,16z"/>
<path class="Black" d="M3.4,14L2,12.6L12.6,2L14,3.4L3.4,14z"/>
<path class="Black" d="M5,2C3.3,2,2,3.3,2,5s1.3,3,3,3s3-1.3,3-3S6.7,2,5,2z M5,6C4.4,6,4,5.6,4,5s0.4-1,1-1s1,0.4,1,1S5.6,6,5,6z"
	/>
<path class="Black" d="M11,8c-1.7,0-3,1.3-3,3s1.3,3,3,3s3-1.3,3-3S12.7,8,11,8z M11,12c-0.6,0-1-0.4-1-1s0.4-1,1-1s1,0.4,1,1
	S11.6,12,11,12z"/>
</svg>
