<?xml version="1.0" encoding="utf-8"?>
<!-- Generator: Adobe Illustrator 20.1.0, SVG Export Plug-In . SVG Version: 6.00 Build 0)  -->
<svg version="1.1" id="Слой_1" xmlns="http://www.w3.org/2000/svg" xmlns:xlink="http://www.w3.org/1999/xlink" x="0px" y="0px"
	 viewBox="0 0 32 32" style="enable-background:new 0 0 32 32;" xml:space="preserve">
<style type="text/css">
	.White{fill:#FFFFFF;}
	.Black{fill:#727272;}
	.Blue{fill:#1177D7;}
</style>
<g id="Слой_2">
	<path class="Blue" d="M10,28V10c0,0,0,0,0,0L20,0c0,0,0,0,0,0l10,10c0,0,0,0,0,0v18c0,0,0,0,0,0L10,28C10,28,10,28,10,28z"/>
	<g>
		<g>
			<path class="Black" d="M22,10H4c0,0,0,0,0,0V32c0,0,0,0,0,0H22c0,0,0,0,0,0L22,10C22,10,22,10,22,10z M20,30C20,30,20,30,20,30
				L6,30c0,0,0,0,0,0V12c0,0,0,0,0,0H20c0,0,0,0,0,0V30z"/>
		</g>
	</g>
	<path class="White" d="M6,12H20c0,0,0,0,0,0V30c0,0,0,0,0,0H6c0,0,0,0,0,0L6,12C6,12,6,12,6,12z"/>
	<g>
		<g>
			<path class="Blue" d="M18,19H13c0,0,0,0,0,0V14c0,0,0,0,0,0c-2.7,0-5,2.2-5,5c0,2.7,2.3,5,5,5C15.8,24,18,21.8,18,19
				C18,19,18,19,18,19z M17.9,17C18,17,18,17,17.9,17L15,14v3c0,0,0,0,0,0H17.9z"/>
		</g>
	</g>
	<g>
		<g>
			<path class="White" d="M20,4c-1.1,0-2,0.9-2,2s0.9,2,2,2c1.1,0,2-0.9,2-2S21.1,4,20,4z M26,10H22c0,0,0,0,0,0V12c0,0,0,0,0,0H26
				c0,0,0,0,0,0L26,10C26,10,26,10,26,10z M22,14C22,14,22,14,22,14l0,2c0,0,0,0,0,0H26c0,0,0,0,0,0V14c0,0,0,0,0,0H22z M22,18
				C22,18,22,18,22,18l0,2c0,0,0,0,0,0H26c0,0,0,0,0,0V18c0,0,0,0,0,0H22z M22,22C22,22,22,22,22,22l0,2c0,0,0,0,0,0H26c0,0,0,0,0,0
				V22c0,0,0,0,0,0H22z"/>
		</g>
	</g>
	<path class="Black" d="M18,28H8c0,0,0,0,0,0V26c0,0,0,0,0,0H18c0,0,0,0,0,0L18,28C18,28,18,28,18,28z"/>
</g>
</svg>
