<?xml version="1.0" encoding="utf-8"?>
<!-- Generator: Adobe Illustrator 20.1.0, SVG Export Plug-In . SVG Version: 6.00 Build 0)  -->
<svg version="1.1" id="Слой_1" xmlns="http://www.w3.org/2000/svg" xmlns:xlink="http://www.w3.org/1999/xlink" x="0px" y="0px"
	 viewBox="0 0 32 32" style="enable-background:new 0 0 32 32;" xml:space="preserve">
<style type="text/css">
	.Blue{fill:#1177D7;}
	.Black{fill:#727272;}
	.White{fill:#FFFFFF;}
	.Red{fill:#D11C1C;}
</style>
<g id="New">
	<path class="Black" d="M4,2v28h24V8h-6V2H4z"/>
	<polygon class="White" points="6,4 6,28 26,28 26,10 20,10 20,4 	"/>
</g>
<g id="Save_and_close">
	<path class="Blue" d="M1-38"/>
	<path class="Blue" d="M29-38"/>
	<path class="Red" d="M25,18c3.9,0,7,3.1,7,7s-3.1,7-7,7s-7-3.1-7-7S21.1,18,25,18z"/>
	<path class="White" d="M28.8,27.3l-1.4,1.4L25,26.4l-2.3,2.3l-1.4-1.4l2.3-2.3l-2.3-2.3l1.4-1.4l2.3,2.3l2.3-2.3l1.4,1.4L26.4,25
		L28.8,27.3z"/>
</g>
</svg>
