<?xml version="1.0" encoding="utf-8"?>
<!-- Generator: Adobe Illustrator 20.1.0, SVG Export Plug-In . SVG Version: 6.00 Build 0)  -->
<svg version="1.1" id="Слой_1" xmlns="http://www.w3.org/2000/svg" xmlns:xlink="http://www.w3.org/1999/xlink" x="0px" y="0px"
	 viewBox="0 0 32 32" style="enable-background:new 0 0 32 32;" xml:space="preserve">
<style type="text/css">
	.White{fill:#FFFFFF;}
	.Black{fill:#727272;}
	.Red{fill:#D11C1C;}
</style>
<g id="Слой_2">
	<path class="Red" d="M31,12L31,12h-2.9L24,8h-0.7H8.7H8l-4.1,4c0,0-2.2,0-2.9,0h0c-0.7,0-1,2-1,2s0.5,1,1,1h0c0.5,0,1.9,0,1.9,0
		L2,16v10l0,0h0h0h28l0,0l0,0V16l-0.9-1l0,0H31h0c0.5,0,1-1,1-1S31.7,12,31,12z M23,10l3,4c0,0-5,0-10,0c-5,0-10,0-10,0l3-4H23z"/>
	<g>
		<g>
			<path class="White" d="M23,22H9c-0.6,0-1,0.4-1,1c0,0.6,0.4,1,1,1h14c0.6,0,1-0.4,1-1C24,22.4,23.6,22,23,22z M9,19
				c0-1.1-1.9-3-3-3c-1.1,0-2,0.9-2,2c0,1.1,0.9,2,2,2C7.1,20,9,20.1,9,19z M26,16c-1.1,0-3,1.9-3,3s1.9,1,3,1c1.1,0,2-0.9,2-2
				C28,16.9,27.1,16,26,16z M23,10H9l-3,4h20L23,10z"/>
		</g>
	</g>
	<path class="Black" d="M30,26v1c0,0.6-0.4,1-1,1h-4c-0.6,0-1-0.4-1-1v-1H8v1c0,0.6-0.4,1-1,1H3c-0.6,0-1-0.4-1-1v-1H30z"/>
</g>
</svg>
