<?xml version="1.0" encoding="utf-8"?>
<!-- Generator: Adobe Illustrator 20.1.0, SVG Export Plug-In . SVG Version: 6.00 Build 0)  -->
<svg version="1.1" id="Слой_1" xmlns="http://www.w3.org/2000/svg" xmlns:xlink="http://www.w3.org/1999/xlink" x="0px" y="0px"
	 viewBox="0 0 32 32" style="enable-background:new 0 0 32 32;" xml:space="preserve">
<style type="text/css">
	.White{fill:#FFFFFF;}
	.Blue{fill:#1177D7;}
</style>
<g id="Слой_2">
	<g>
		<g>
			<path class="Blue" d="M2,2v28h28V2H2z M28,28H4V4h24V28z"/>
		</g>
	</g>
	<rect x="4" y="4" class="White" width="24" height="24"/>
	<path class="Blue" d="M20,26l2.3-2.3l-3-3l1.4-1.4l3,3L26,20v6H20z M20.7,12.7l-1.4-1.4l3-3L20,6h6v6l-2.3-2.3L20.7,12.7z M12,26H6
		v-6l2.3,2.3l3-3l1.4,1.4l-3,3L12,26z M11.3,12.7l-3-3L6,12V6h6L9.7,8.3l3,3L11.3,12.7z"/>
</g>
</svg>
