<?xml version="1.0" encoding="utf-8"?>
<!-- Generator: Adobe Illustrator 20.1.0, SVG Export Plug-In . SVG Version: 6.00 Build 0)  -->
<svg version="1.1" id="Слой_2" xmlns="http://www.w3.org/2000/svg" xmlns:xlink="http://www.w3.org/1999/xlink" x="0px" y="0px"
	 viewBox="0 0 32 32" style="enable-background:new 0 0 32 32;" xml:space="preserve">
<style type="text/css">
	.Blue{fill:#1177D7;}
	.White{fill:#FFFFFF;}
</style>
<polygon class="White" points="18,14 18,4 18,4 4,4 4,16 4,18 14,18 14,28 28,28 28,14 "/>
<path class="Blue" d="M20,2H2v18h10v10h18V12H20V2z M12,18H4v-2V4h14l0,0v8l0,0h-6V18z M28,14v14H14V14H28z"/>
<polygon class="Blue" points="22,2 22,4 28,4 28,10 30,10 30,2 "/>
<polygon class="Blue" points="4,22 2,22 2,30 10,30 10,28 4,28 "/>
</svg>
