<?xml version="1.0" encoding="utf-8"?>
<!-- Generator: Adobe Illustrator 20.1.0, SVG Export Plug-In . SVG Version: 6.00 Build 0)  -->
<svg version="1.1" id="Слой_1" xmlns="http://www.w3.org/2000/svg" xmlns:xlink="http://www.w3.org/1999/xlink" x="0px" y="0px"
	 viewBox="0 0 32 32" style="enable-background:new 0 0 32 32;" xml:space="preserve">
<style type="text/css">
	.White{fill:#FFFFFF;}
	.Blue{fill:#1177D7;}
</style>
<path class="Blue" d="M24,22v8H0V12h8V4h24v18H24z"/>
<path class="White" d="M22,20v8H2V14h8V6h20v14H22z"/>
<rect x="10" y="12" class="Blue" width="2" height="2"/>
<polygon class="Blue" points="16,16 18,16 18,14 20,14 20,12 18,12 18,10 16,10 16,12 14,12 14,14 16,14 "/>
<polygon class="Blue" points="24,20 24,12 22,12 22,16 12,22 2,16 2,18 6,20.4 1,25 2,27 7.8,21.5 12,24 16.2,21.5 22,27 23,25 
	18,20.4 22,18 22,20 "/>
</svg>
