<?xml version="1.0" encoding="utf-8"?>
<!-- Generator: Adobe Illustrator 20.1.0, SVG Export Plug-In . SVG Version: 6.00 Build 0)  -->
<svg version="1.1" id="Слой_2" xmlns="http://www.w3.org/2000/svg" xmlns:xlink="http://www.w3.org/1999/xlink" x="0px" y="0px"
	 viewBox="0 0 32 32" style="enable-background:new 0 0 32 32;" xml:space="preserve">
<style type="text/css">
	.White{fill:#FFFFFF;}
	.Green{fill:#039C23;}
</style>
<polygon class="White" points="18,12 18,10 20,10 20,4 16,4 4,4 4,16 4,20 10,20 10,18 12,18 12,28 28,28 28,12 "/>
<path class="Green" d="M22,10V2H2v20h8v8h20V10H22z M28,28H12V18h-2v2H4v-4V4h12h4v6h-2v2h10V28z"/>
<polygon class="Green" points="16,10 12,10 12,6 10,6 10,10 6,10 6,12 10,12 10,16 12,16 12,12 16,12 "/>
</svg>
