<?xml version="1.0" encoding="utf-8"?>
<!-- Generator: Adobe Illustrator 20.1.0, SVG Export Plug-In . SVG Version: 6.00 Build 0)  -->
<svg version="1.1" id="Слой_1" xmlns="http://www.w3.org/2000/svg" xmlns:xlink="http://www.w3.org/1999/xlink" x="0px" y="0px"
	 viewBox="0 0 32 32" style="enable-background:new 0 0 32 32;" xml:space="preserve">
<style type="text/css">
	.White{fill:#FFFFFF;}
	.Black{fill:#727272;}
	.Red{fill:#D11C1C;}
</style>
<g id="Слой_2">
	<path class="Black" d="M15,4c7.2,0,13,5.8,13,13c0,7.2-5.8,13-13,13S2,24.2,2,17C2,9.8,7.8,4,15,4z"/>
	<path class="White" d="M15,6c6.1,0,11,4.9,11,11s-4.9,11-11,11C8.9,28,4,23.1,4,17S8.9,6,15,6z"/>
	<path class="Red" d="M12,17c0,1.7,1.3,3,3,3c1.6,0,2.8-1.2,3-2.8l4-7.2l-7.2,4C13.2,14.2,12,15.4,12,17z"/>
	<path class="Red" d="M17.9,16.4c-0.2-1.2-1.2-2.1-2.3-2.3c-1.8-0.4-3.4,1-3.6,2.7L8,24l7.2-4C17,19.8,18.3,18.2,17.9,16.4z"/>
	<circle class="White" cx="15" cy="17" r="1"/>
	<g>
		<g>
			<path class="Black" d="M14,8h2V4h-2V8z M14,30h2v-4h-2L14,30z M24,16v2h4v-2H24z M2,18h4v-2H2V18z"/>
		</g>
	</g>
</g>
</svg>
