<?xml version="1.0" encoding="utf-8"?>
<!-- Generator: Adobe Illustrator 20.1.0, SVG Export Plug-In . SVG Version: 6.00 Build 0)  -->
<svg version="1.1" id="Слой_1" xmlns="http://www.w3.org/2000/svg" xmlns:xlink="http://www.w3.org/1999/xlink" x="0px" y="0px"
	 viewBox="0 0 32 32" style="enable-background:new 0 0 32 32;" xml:space="preserve">
<style type="text/css">
	.White{fill:#FFFFFF;}
	.Black{fill:#727272;}
	.Green{fill:#039C23;}
</style>
<g id="Слой_2">
	<path class="Black" d="M20,21c-2.6-0.7-3-2.3-3-3c1.6-1.6,3-4.7,3-8c0-0.2,0-0.5,0-1c0-2.5-2.8-5-5.9-5c0,0-0.1,0-0.1,0
		c0,0-0.1,0-0.1,0C10.8,4,8,6.5,8,9c0,0.5,0,0.8,0,1c0,3.3,1.4,6.4,3,8c0,0.7-0.4,2.3-3,3c-5,1.4-6,1.1-6,7h12h12
		C26,22.1,25,22.4,20,21z"/>
	<path class="Green" d="M23,18c3.9,0,7,3.1,7,7s-3.1,7-7,7s-7-3.1-7-7S19.1,18,23,18z"/>
	<circle class="White" cx="19" cy="25" r="1"/>
	<circle class="White" cx="23" cy="25" r="1"/>
	<circle class="White" cx="27" cy="25" r="1"/>
</g>
</svg>
