<?xml version="1.0" encoding="utf-8"?>
<!-- Generator: Adobe Illustrator 20.1.0, SVG Export Plug-In . SVG Version: 6.00 Build 0)  -->
<svg version="1.1" id="Слой_1" xmlns="http://www.w3.org/2000/svg" xmlns:xlink="http://www.w3.org/1999/xlink" x="0px" y="0px"
	 viewBox="0 0 32 32" style="enable-background:new 0 0 32 32;" xml:space="preserve">
<style type="text/css">
	.White{fill:#FFFFFF;}
	.Black{fill:#727272;}
	.Green{fill:#039C23;}
	.Blue{fill:#1177D7;}
</style>
<path class="Blue" d="M28,10v18H4V10H28z"/>
<path class="White" d="M6,12h8v6H6V12z"/>
<path class="Black" d="M4,8V4h24v4H4z"/>
<path class="Green" d="M23.6,18.1c4.9-0.9,9.2,3.3,8.2,8.2c-0.5,2.8-2.7,5-5.5,5.5c-4.9,0.9-9.2-3.3-8.2-8.2
	C18.7,20.9,20.9,18.7,23.6,18.1z"/>
<path class="White" d="M30,26h-4v4h-2v-4h-4v-2h4v-4h2v4h4V26z"/>
</svg>
