<?xml version="1.0" encoding="utf-8"?>
<!-- Generator: Adobe Illustrator 20.1.0, SVG Export Plug-In . SVG Version: 6.00 Build 0)  -->
<svg version="1.1" id="Слой_1" xmlns="http://www.w3.org/2000/svg" xmlns:xlink="http://www.w3.org/1999/xlink" x="0px" y="0px"
	 viewBox="0 0 32 32" style="enable-background:new 0 0 32 32;" xml:space="preserve">
<style type="text/css">
	.Green{fill:#039C23;}
	.White{fill:#FFFFFF;}
	.Red{fill:#D11C1C;}
	.Black{fill:#727272;}
</style>
<path class="Black" d="M9,24c-1.7,0-3,1.3-3,3s1.3,3,3,3s3-1.3,3-3S10.7,24,9,24z M21,24c-1.7,0-3,1.3-3,3s1.3,3,3,3s3-1.3,3-3
	S22.7,24,21,24z"/>
<polygon class="Red" points="8,20.2 8,10.2 3,5.2 2,6.2 6,10.2 6,22.2 26,22.2 26,20.2 "/>
<path class="Red" d="M25,16c-4.6,0-8.4-3.5-8.9-8H10v10h16v-2.1C25.7,16,25.3,16,25,16z"/>
<path class="Green" d="M25,0c3.9,0,7,3.1,7,7s-3.1,7-7,7s-7-3.1-7-7S21.1,0,25,0z"/>
<path class="White" d="M30,8h-4v4h-2V8h-4V6h4V2h2v4h4V8z"/>
</svg>
