<?xml version="1.0" encoding="utf-8"?>
<!-- Generator: Adobe Illustrator 20.1.0, SVG Export Plug-In . SVG Version: 6.00 Build 0)  -->
<svg version="1.1" xmlns="http://www.w3.org/2000/svg" xmlns:xlink="http://www.w3.org/1999/xlink" x="0px" y="0px"
	 viewBox="0 0 32 32" style="enable-background:new 0 0 32 32;" xml:space="preserve">
<style type="text/css">
	.White{fill:#FFFFFF;}
	.Black{fill:#727272;}
	.st0{opacity:0.6;}
</style>
<g id="Слой_3" class="st0">
	<rect x="2" y="8" class="Black" width="30" height="20"/>
</g>
<g id="Слой_2">
	<path class="Black" d="M26,4h-6c-1,0-2,1-3,2c-1-1-2-2-3-2H8C5.8,4,4,4,4,4v22h26V4H26z"/>
	<g>
		<path class="White" d="M12,6H6v18h10V10C16,8,14,6,12,6z"/>
		<path class="White" d="M22,6c-2,0-4,2-4,4v14h10V6H22z"/>
	</g>
	<rect x="8" y="10" class="Black" width="6" height="2"/>
	<rect x="8" y="14" class="Black" width="6" height="2"/>
	<rect x="8" y="18" class="Black" width="6" height="2"/>
	<rect x="20" y="18" class="Black" width="6" height="2"/>
	<rect x="20" y="14" class="Black" width="6" height="2"/>
	<rect x="20" y="10" class="Black" width="6" height="2"/>
</g>
</svg>
