<?xml version="1.0" encoding="utf-8"?>
<!-- Generator: Adobe Illustrator 20.1.0, SVG Export Plug-In . SVG Version: 6.00 Build 0)  -->
<svg version="1.1" id="Слой_1" xmlns="http://www.w3.org/2000/svg" xmlns:xlink="http://www.w3.org/1999/xlink" x="0px" y="0px"
	 viewBox="0 0 32 32" style="enable-background:new 0 0 32 32;" xml:space="preserve">
<style type="text/css">
	.Green{fill:#039C23;}
</style>
<g id="Слой_2">
</g>
<path id="Refresh" class="Green" d="M2,14V4l3.2,3.2c3-3.7,7.8-5.8,13-5c6.2,0.9,11,6,11.7,12.2C30.9,22.8,24.3,30,16,30
	C8.8,30,2.8,24.5,2.1,17.5l4-0.5c0.5,5.2,5.1,9.3,10.5,9c5.1-0.3,9.3-4.6,9.4-9.7C26.2,10.6,21.6,6,16,6c-3.3,0-6.2,1.6-8,4l4,4H2z"
	/>
</svg>
