<?xml version="1.0" encoding="utf-8"?>
<!-- Generator: Adobe Illustrator 20.1.0, SVG Export Plug-In . SVG Version: 6.00 Build 0)  -->
<svg version="1.1" id="Слой_1" xmlns="http://www.w3.org/2000/svg" xmlns:xlink="http://www.w3.org/1999/xlink" x="0px" y="0px"
	 viewBox="0 0 32 32" style="enable-background:new 0 0 32 32;" xml:space="preserve">
<style type="text/css">
	.White{fill:#FFFFFF;}
	.Black{fill:#727272;}
	.Green{fill:#039C23;}
	.Blue{fill:#1177D7;}
	.st0{opacity:0.5;}
</style>
<g id="Слой_2">
	<g id="Save_as">
		<polygon class="Blue" points="30,2 2,2 2,30 2,30 6,30 6,20 26,20 26,30 30,30 		"/>
		<rect x="6" y="2" class="White" width="20" height="14"/>
		<path class="Black" d="M6,20v10h20V20H6z M24,28h-4v-6h4V28z"/>
		<g class="st0">
			<rect x="8" y="4" class="Black" width="8" height="2"/>
			<rect x="8" y="8" class="Black" width="8" height="2"/>
		</g>
		<path class="Green" d="M25,0c3.9,0,7,3.1,7,7s-3.1,7-7,7c-3.9,0-7-3.1-7-7S21.1,0,25,0z"/>
		<g>
			<circle class="White" cx="21" cy="7" r="1"/>
			<circle class="White" cx="25" cy="7" r="1"/>
			<circle class="White" cx="29" cy="7" r="1"/>
		</g>
	</g>
</g>
</svg>
