<?xml version="1.0" encoding="utf-8"?>
<!-- Generator: Adobe Illustrator 20.1.0, SVG Export Plug-In . SVG Version: 6.00 Build 0)  -->
<svg version="1.1" id="Слой_2" xmlns="http://www.w3.org/2000/svg" xmlns:xlink="http://www.w3.org/1999/xlink" x="0px" y="0px"
	 viewBox="0 0 32 32" style="enable-background:new 0 0 32 32;" xml:space="preserve">
<style type="text/css">
	.Blue{fill:#1177D7;}
	.White{fill:#FFFFFF;}
	.Black{fill:#727272;}
</style>
<rect x="8" y="6" class="Blue" width="18" height="18"/>
<polygon class="Black" points="6,22 4,22 4,28 10,28 10,26 6,26 "/>
<polygon class="Black" points="4,8 6,8 6,4 10,4 10,2 4,2 "/>
<polygon class="Black" points="28,26 24,26 24,28 30,28 30,22 28,22 "/>
<polygon class="Black" points="24,2 24,4 28,4 28,8 30,8 30,2 "/>
<rect x="4" y="10" class="Black" width="2" height="4"/>
<rect x="4" y="16" class="Black" width="2" height="4"/>
<rect x="12" y="2" class="Black" width="4" height="2"/>
<rect x="18" y="2" class="Black" width="4" height="2"/>
<rect x="28" y="10" class="Black" width="2" height="4"/>
<rect x="28" y="16" class="Black" width="2" height="4"/>
<rect x="12" y="26" class="Black" width="4" height="2"/>
<rect x="18" y="26" class="Black" width="4" height="2"/>
<rect x="10" y="8" class="White" width="14" height="2"/>
<rect x="10" y="12" class="White" width="14" height="2"/>
<rect x="10" y="16" class="White" width="14" height="2"/>
<rect x="10" y="20" class="White" width="14" height="2"/>
</svg>
