<?xml version="1.0" encoding="utf-8"?>
<!-- Generator: Adobe Illustrator 20.1.0, SVG Export Plug-In . SVG Version: 6.00 Build 0)  -->
<svg version="1.1" id="Слой_1" xmlns="http://www.w3.org/2000/svg" xmlns:xlink="http://www.w3.org/1999/xlink" x="0px" y="0px"
	 viewBox="0 0 32 32" style="enable-background:new 0 0 32 32;" xml:space="preserve">
<style type="text/css">
	.Black{fill:#727272;}
</style>
<path class="Black" d="M16,8C9.4,8,4,14,4,16s5.4,8,12,8s12-6,12-8S22.6,8,16,8z M16,22c-3.3,0-6-2.7-6-6s2.7-6,6-6s6,2.7,6,6
	S19.3,22,16,22z"/>
<path class="Black" d="M18,16c-1.1,0-2-0.9-2-2c0-0.8,0.5-1.5,1.2-1.8C16.8,12.1,16.4,12,16,12c-2.2,0-4,1.8-4,4c0,2.2,1.8,4,4,4
	s4-1.8,4-4c0-0.4-0.1-0.8-0.2-1.2C19.5,15.5,18.8,16,18,16z"/>
</svg>
