<?xml version="1.0" encoding="utf-8"?>
<!-- Generator: Adobe Illustrator 20.1.0, SVG Export Plug-In . SVG Version: 6.00 Build 0)  -->
<svg version="1.1" id="Слой_1" xmlns="http://www.w3.org/2000/svg" xmlns:xlink="http://www.w3.org/1999/xlink" x="0px" y="0px"
	 viewBox="0 0 32 32" style="enable-background:new 0 0 32 32;" xml:space="preserve">
<style type="text/css">
	.Black{fill:#727272;}
	.Red{fill:#D11C1C;}
	.White{fill:#FFFFFF;}
	.st0{opacity:0.6;}
</style>
<polygon class="Black" points="26,4 26,8 20,8 20,4 10,4 10,8 4,8 4,4 2,4 2,28 28,28 28,4 "/>
<path class="White" d="M4,12h22v14H4V12z"/>
<path class="Black" d="M6,6h2V2H6V6z M22,2v4h2V2H22z"/>
<path class="Red" d="M10,20v-6h6v6H10z M12,16v2h2v-2H12z"/>
<g id="Слой_2" class="st0">
	<path class="Black" d="M6,24h2v-2H6V24z M6,20h2v-2H6V20z M6,16h2v-2H6V16z M10,24h2v-2h-2V24z M14,24h2v-2h-2V24z M18,20h2v-2h-2
		V20z M18,16h2v-2h-2V16z M22,14v2h2v-2H22z"/>
	<rect x="18" y="22" class="Black" width="2" height="2"/>
	<rect x="22" y="18" class="Black" width="2" height="2"/>
	<rect x="22" y="22" class="Black" width="2" height="2"/>
</g>
</svg>
