<?xml version="1.0" encoding="utf-8"?>
<!-- Generator: Adobe Illustrator 20.1.0, SVG Export Plug-In . SVG Version: 6.00 Build 0)  -->
<svg version="1.1" id="Слой_1" xmlns="http://www.w3.org/2000/svg" xmlns:xlink="http://www.w3.org/1999/xlink" x="0px" y="0px"
	 viewBox="0 0 32 32" style="enable-background:new 0 0 32 32;" xml:space="preserve">
<style type="text/css">
	.Blue{fill:#1177D7;}
	.White{fill:#FFFFFF;}
</style>
<g id="Слой_2">
	<path class="Blue" d="M6,4h20c2.2,0,4,1.8,4,4v14c0,2.2-1.8,4-4,4H14l-6,6v-6H6c-2.2,0-4-1.8-4-4V8C2,5.8,3.8,4,6,4z"/>
	<path class="White" d="M17.1,17c0.1-0.3,0.2-0.5,0.7-0.9c1-0.8,1.7-1.5,2-2s0.5-1,0.5-1.5c0-1-0.4-1.8-1.3-2.6c-0.8-0.7-2-1-3.4-1
		c-1.3,0-2.4,0.2-3.3,1c-0.8,0.7-1.3,1.6-1.3,2.7l2.3,0.3c0.2-0.7,0.4-1.3,0.9-1.6c0.4-0.4,0.9-0.5,1.6-0.5c0.7,0,1.2,0.2,1.6,0.5
		s0.6,0.8,0.6,1.2c0,0.3-0.1,0.7-0.3,0.9c-0.1,0.2-0.6,0.6-1.3,1.2c-0.7,0.6-0.9,0.9-1.2,1.4c-0.2,0.5-0.1,2-0.1,2h2
		C17,18,16.9,17.3,17.1,17z"/>
	<circle class="White" cx="16" cy="21" r="1"/>
</g>
</svg>
