<?xml version="1.0" encoding="utf-8"?>
<!-- Generator: Adobe Illustrator 20.1.0, SVG Export Plug-In . SVG Version: 6.00 Build 0)  -->
<svg version="1.1" id="Слой_1" xmlns="http://www.w3.org/2000/svg" xmlns:xlink="http://www.w3.org/1999/xlink" x="0px" y="0px"
	 viewBox="0 0 32 32" style="enable-background:new 0 0 32 32;" xml:space="preserve">
<style type="text/css">
	.White{fill:#FFFFFF;}
	.Black{fill:#727272;}
	.Yellow{fill:#FFB115;}
	.Red{fill:#D11C1C;}
</style>
<g id="Слой_2">
	<g id="Task">
		<rect x="4" y="4" class="Yellow" width="24" height="28"/>
		<polygon class="Black" points="26,30 6,30 6,6 22,6 26,6 26,10 		"/>
		<polyline class="White" points="24,28 8,28 8,8 20,8 24,8 24,12 		"/>
		<path class="Black" d="M24,6H8V2h4l0.6-0.6C13.5,0.5,14.7,0,16,0h0c1.3,0,2.5,0.5,3.4,1.4L20,2h4V6z"/>
		<path class="Red" d="M12,18l-2,2l4,4l8-8l-2-2l-6,6L12,18"/>
	</g>
</g>
</svg>
