<?xml version="1.0" encoding="utf-8"?>
<!-- Generator: Adobe Illustrator 20.1.0, SVG Export Plug-In . SVG Version: 6.00 Build 0)  -->
<svg version="1.1" id="Слой_1" xmlns="http://www.w3.org/2000/svg" xmlns:xlink="http://www.w3.org/1999/xlink" x="0px" y="0px"
	 viewBox="0 0 32 32" style="enable-background:new 0 0 32 32;" xml:space="preserve">
<style type="text/css">
	.Black{fill:#727272;}
</style>
<path class="Black" d="M32,8V6l-2.5-0.2C29.4,5.3,29.3,5,29,4.6l1.5-1.5L29,1.5L27.3,3c-0.4-0.2-0.8-0.3-1.2-0.5L26,0h-2l-0.2,2.5
	C23.3,2.6,23,2.7,22.6,3l-1.5-1.5L19.5,3L21,4.7c-0.2,0.4-0.3,0.8-0.5,1.2L18,6v2l2.5,0.2C20.6,8.7,20.7,9,21,9.4l-1.5,1.5l1.6,1.6
	l1.6-1.5c0.4,0.2,0.8,0.4,1.2,0.5L24,14h2l0.2-2.4c0.5-0.1,0.8-0.2,1.2-0.5l1.5,1.5l1.6-1.6L29,9.3c0.2-0.3,0.3-0.8,0.5-1.2L32,8z
	 M25,9.3c-1.3,0-2.3-1.1-2.3-2.3s1.1-2.3,2.3-2.3s2.3,1.1,2.3,2.3S26.3,9.3,25,9.3z"/>
<path class="Black" d="M20,24v-4h-4.3c-0.1-0.2-0.2-0.4-0.2-0.6L18,16l-2-2l-3.4,2.6c-0.2-0.1-0.4-0.2-0.6-0.2V12H8v4.3
	c-0.2,0.1-0.4,0.2-0.6,0.2L4,14l-2,2l2.6,3.4c-0.1,0.2-0.2,0.4-0.2,0.6H0v4h4.3c0.1,0.2,0.1,0.4,0.2,0.6L2,28l2,2l3.4-2.6
	c0.2,0.1,0.4,0.2,0.6,0.2V32h4v-4.3c0.2-0.1,0.4-0.2,0.6-0.2L16,30l2-2l-2.6-3.4c0.1-0.2,0.2-0.4,0.2-0.6H20z M10,25
	c-1.7,0-3-1.3-3-3s1.3-3,3-3s3,1.3,3,3S11.7,25,10,25z"/>
</svg>
