<?xml version="1.0" encoding="utf-8"?>
<!-- Generator: Adobe Illustrator 21.1.0, SVG Export Plug-In . SVG Version: 6.00 Build 0)  -->
<svg version="1.1" id="Layer_1" xmlns="http://www.w3.org/2000/svg" xmlns:xlink="http://www.w3.org/1999/xlink" x="0px" y="0px"
	 viewBox="0 0 16 16" style="enable-background:new 0 0 16 16;" xml:space="preserve">
<style type="text/css">
	.Red{fill:#D11C1C;}
	.Black{fill:#727272;}
	.Blue{fill:#1177D7;}
	.Green{fill:#039C23;}
	.Yellow{fill:#FFB115;}
	.White{fill:#FFFFFF;}
	.st0{opacity:0.5;}
	.st1{opacity:0.75;}
	.st2{opacity:0.25;}
</style>
<g id="RecurrentAppointment_1_">
	<path class="Black" d="M14,2v5H9l1.8-1.8C10.1,4.5,9.1,4,8,4C6.1,4,4.6,5.3,4.1,7H2.1C2.6,4.2,5,2,8,2c1.7,0,3.1,0.7,4.2,1.8L14,2z
		 M8,12c-1.1,0-2.1-0.5-2.8-1.2L7,9H2.1H2v5l1.8-1.8C4.9,13.3,6.3,14,8,14c3,0,5.4-2.2,5.9-5h-2.1C11.4,10.7,9.9,12,8,12z"/>
</g>
</svg>
