<?xml version="1.0" encoding="utf-8"?>
<!-- Generator: Adobe Illustrator 21.1.0, SVG Export Plug-In . SVG Version: 6.00 Build 0)  -->
<svg version="1.1" id="Layer_1" xmlns="http://www.w3.org/2000/svg" xmlns:xlink="http://www.w3.org/1999/xlink" x="0px" y="0px"
	 viewBox="0 0 32 32" style="enable-background:new 0 0 32 32;" xml:space="preserve">
<style type="text/css">
	.Black{fill:#727272;}
	.st0{opacity:0.5;}
</style>
<g id="Calendar">
	<path class="Black" d="M0,5v24c0,0.6,0.4,1,1,1h28c0.6,0,1-0.4,1-1V5c0-0.6-0.4-1-1-1H1C0.4,4,0,4.4,0,5z M28,28H2V8h26V28z"/>
	<g class="st0">
		<path class="Black" d="M8,26H4v-4h4V26z M14,22h-4v4h4V22z M20,22h-4v4h4V22z M20,10h-4v4h4V10z M14,10h-4v4h4V10z M8,16H4v4h4V16
			z M14,16h-4v4h4V16z M20,16h-4v4h4V16z M26,10h-4v4h4V10z M26,16h-4v4h4V16z"/>
	</g>
</g>
</svg>
