<?xml version="1.0" encoding="utf-8"?>
<!-- Generator: Adobe Illustrator 21.1.0, SVG Export Plug-In . SVG Version: 6.00 Build 0)  -->
<svg version="1.1" id="Layer_1" xmlns="http://www.w3.org/2000/svg" xmlns:xlink="http://www.w3.org/1999/xlink" x="0px" y="0px"
	 viewBox="0 0 32 32" style="enable-background:new 0 0 32 32;" xml:space="preserve">
<style type="text/css">
	.Red{fill:#D11C1C;}
	.Black{fill:#727272;}
	.Blue{fill:#1177D7;}
	.Green{fill:#039C23;}
	.Yellow{fill:#FFB115;}
	.White{fill:#FFFFFF;}
	.st0{opacity:0.5;}
	.st1{opacity:0.75;}
</style>
<g id="CellAutoHeight">
	<path class="Black" d="M6,20h3l-4,4l-4-4h3V10H1l4-4l4,4H6V20z M32,2H0v2h32V2z M32,28H0v-2h32V28z"/>
	<path class="Blue" d="M25,14H13c-0.6,0-1-0.4-1-1V7c0-0.6,0.4-1,1-1h12c0.5,0,1,0.4,1,1v6C26,13.6,25.5,14,25,14z"/>
	<path class="Green" d="M31,24H19c-0.5,0-1-0.5-1-1v-6c0-0.5,0.5-1,1-1h12c0.5,0,1,0.5,1,1v6C32,23.5,31.5,24,31,24z"/>
</g>
</svg>
