<?xml version="1.0" encoding="utf-8"?>
<!-- Generator: Adobe Illustrator 21.1.0, SVG Export Plug-In . SVG Version: 6.00 Build 0)  -->
<svg version="1.1" id="Layer_1" xmlns="http://www.w3.org/2000/svg" xmlns:xlink="http://www.w3.org/1999/xlink" x="0px" y="0px"
	 viewBox="0 0 32 32" style="enable-background:new 0 0 32 32;" xml:space="preserve">
<style type="text/css">
	.Blue{fill:#1177D7;}
	.Green{fill:#039C23;}
	.Black{fill:#727272;}
	.st0{opacity:0.5;}
</style>
<g id="GroupByDate">
	<rect x="10" y="16" class="Green" width="4" height="4"/>
	<g class="st0">
		<path class="Black" d="M16.9,26H16v-4h2.1c0.1,0.2,0.2,0.4,0.3,0.6c0.1,0.7,0.4,1.2,0.8,1.6c0.1,0.3,0.2,0.5,0.3,0.8
			c-0.2,0.2-0.7,0.3-1.2,0.5C17.9,25.6,17.4,25.7,16.9,26z M26,14v-4h-4v4H26z M14,10h-4v4h4V10z M20,10h-4v4h4V10z M18.9,16H16v4
			h2.1C17.9,18.5,18.1,17.1,18.9,16z M14,22h-4v4h4V22z M4,14h4v-4H4V14z M4,26h4v-4H4V26z M4,20h4v-4H4V20z"/>
	</g>
	<path class="Black" d="M14.7,28H2V8h26v7.7c0.1,0.1,0.2,0.3,0.3,0.4c0.5,0.2,0.9,0.6,1.1,1c0.4,0.6,0.6,1.3,0.6,1.9l0,0V5
		c0-0.6-0.4-1-1-1H1C0.4,4,0,4.4,0,5v24c0,0.6,0.4,1,1,1h13.1C14.2,29.2,14.4,28.5,14.7,28z"/>
	<path id="User" class="Blue" d="M20,20.9c-0.1,0.4,0.1,0.6,0.3,0.9c0.2,0.3-0.1,1,0.6,1v0.1c0.4,1.5,1.3,3.1,3.1,3.1
		s2.8-1.6,3.2-3.1v-0.1c0.7,0,0.4-0.7,0.6-1s0.3-0.5,0.2-0.9c-0.1-0.3-0.3-0.2-0.4-0.2c1.2-3.1-0.7-2.9-0.7-2.9S26.7,16,23.2,16
		c-3.2,0-3.6,2.5-2.9,4.7C20.3,20.8,20.1,20.8,20,20.9z M26.7,26c-0.5,0.9-1.4,2-2.7,2s-2.1-1.1-2.7-2c-1.5,2.1-5.3,0.6-5.3,5.1V32
		h16v-0.9C32,26.6,28.2,28.1,26.7,26z"/>
</g>
</svg>
