<?xml version="1.0" encoding="utf-8"?>
<!-- Generator: Adobe Illustrator 21.1.0, SVG Export Plug-In . SVG Version: 6.00 Build 0)  -->
<svg version="1.1" id="Layer_1" xmlns="http://www.w3.org/2000/svg" xmlns:xlink="http://www.w3.org/1999/xlink" x="0px" y="0px"
	 viewBox="0 0 32 32" style="enable-background:new 0 0 32 32;" xml:space="preserve">
<style type="text/css">
	.Red{fill:#D11C1C;}
	.Black{fill:#727272;}
	.Blue{fill:#1177D7;}
	.Green{fill:#039C23;}
	.Yellow{fill:#FFB115;}
	.White{fill:#FFFFFF;}
	.st0{opacity:0.5;}
	.st1{opacity:0.75;}
</style>
<g id="GroupByResource_1_">
	<path class="Blue" d="M6.5,7.6C5.4,4,6,0,10.8,0c5.2,0,5.5,2.9,5.5,2.9s2.9-0.2,1.1,4.7c0.1,0,0.5-0.1,0.5,0.3
		c0.1,0.5,0,0.9-0.3,1.4c-0.1,0.2-0.1,0.4-0.1,0.7H13c-0.5,0-1,0.5-1,1v5c-2.6,0-4.1-2.6-4.7-4.9c0-0.1,0-0.1,0-0.2
		c-1,0.1-0.6-1.1-0.9-1.6C6.2,8.8,5.9,8.4,6,7.9C6.1,7.7,6.4,7.6,6.5,7.6z M12,20c-1.9,0-3.2-2.5-4-4c-2.3,3.5-8,1-8,8.5V26h12V20z"
		/>
	<path class="Black" d="M14,13v18c0,0.6,0.4,1,1,1h16c0.6,0,1-0.4,1-1V13c0-0.6-0.4-1-1-1H15C14.4,12,14,12.4,14,13z M30,30H16V16
		h14V30z"/>
	<g class="st0">
		<path class="Black" d="M28,18h-4v4h4V18z M22,24h-4v4h4V24z M28,24h-4v4h4V24z"/>
	</g>
	<rect x="18" y="18" class="Green" width="4" height="4"/>
</g>
</svg>
