<?xml version="1.0" encoding="utf-8"?>
<!-- Generator: Adobe Illustrator 21.1.0, SVG Export Plug-In . SVG Version: 6.00 Build 0)  -->
<svg version="1.1" id="Layer_1" xmlns="http://www.w3.org/2000/svg" xmlns:xlink="http://www.w3.org/1999/xlink" x="0px" y="0px"
	 viewBox="0 0 32 32" style="enable-background:new 0 0 32 32;" xml:space="preserve">
<style type="text/css">
	.Red{fill:#D11C1C;}
	.Black{fill:#727272;}
	.Blue{fill:#1177D7;}
	.Green{fill:#039C23;}
	.Yellow{fill:#FFB115;}
	.White{fill:#FFFFFF;}
	.st0{opacity:0.5;}
	.st1{opacity:0.75;}
	.st2{opacity:0.25;}
</style>
<g id="iCalendarImport">
	<path class="Red" d="M21,12h-1v4h-6v-4H8v4H2v-4H1c-0.5,0-1,0.5-1,1v5h2h18h2v-5C22,12.5,21.5,12,21,12z"/>
	<path class="Black" d="M22,18v13c0,0.5-0.5,1-1,1H1c-0.5,0-1-0.5-1-1V18h2v12h18V18H22z M6,10H4v4h2V10z M18,10h-2v4h2V10z M9,21v1
		h1v6h2v-8h-1L9,21z"/>
	<polygon class="Green" points="32,4 24,4 24,0 16,6 24,12 24,8 32,8 	"/>
</g>
</svg>
