<?xml version="1.0" encoding="utf-8"?>
<!-- Generator: Adobe Illustrator 21.1.0, SVG Export Plug-In . SVG Version: 6.00 Build 0)  -->
<svg version="1.1" id="ListView" xmlns="http://www.w3.org/2000/svg" xmlns:xlink="http://www.w3.org/1999/xlink" x="0px" y="0px"
	 viewBox="0 0 32 32" style="enable-background:new 0 0 32 32;" xml:space="preserve">
<style type="text/css">
	.Black{fill:#727272;}
	.st0{opacity:0.75;}
</style>
<path class="Black" d="M0,3v26c0,0.6,0.4,1,1,1h30c0.6,0,1-0.4,1-1V3c0-0.6-0.4-1-1-1H1C0.4,2,0,2.4,0,3z M30,28H2V6h28V28z"/>
<g class="st0">
	<path class="Black" d="M26,12H6v-2h20V12z M26,20H6v-2h20V20z M26,24H6v-2h20V24z M26,16H6v-2h20V16z"/>
</g>
</svg>
