<?xml version="1.0" encoding="utf-8"?>
<!-- Generator: Adobe Illustrator 21.1.0, SVG Export Plug-In . SVG Version: 6.00 Build 0)  -->
<svg version="1.1" id="RecurrentAppointment" xmlns="http://www.w3.org/2000/svg" xmlns:xlink="http://www.w3.org/1999/xlink"
	 x="0px" y="0px" viewBox="0 0 32 32" style="enable-background:new 0 0 32 32;" xml:space="preserve">
<style type="text/css">
	.Black{fill:#727272;}
	.Red{fill:#D11C1C;}
	.st0{opacity:0.5;}
</style>
<path class="Black" d="M16,26H2V6h26v10.5c0.6,0.2,1.2,0.5,1.8,0.8l0.2-0.2V3c0-0.6-0.4-1-1-1H1C0.4,2,0,2.4,0,3v24c0,0.6,0.4,1,1,1
	h15V26z"/>
<g class="st0">
	<path class="Black" d="M22,16.5V14h4v2.1c-0.3,0-0.7-0.1-1-0.1C24,16,22.9,16.2,22,16.5z M20,8h-4v4h4V8z M20,17.5V14h-4v4h3.4
		C19.6,17.8,19.8,17.7,20,17.5z M26,8h-4v4h4V8z M4,24h4v-4H4V24z M10,12h4V8h-4V12z M10,24h4v-4h-4V24z M4,18h4v-4H4V18z M4,12h4V8
		H4V12z M16.1,23.7c0.2-1.4,0.7-2.6,1.4-3.7H16v4h0.1L16.1,23.7z"/>
</g>
<rect x="10" y="14" class="Red" width="4" height="4"/>
<path class="Black" d="M29.9,20.1c-1.3-1.3-3-2.1-4.9-2.1c-3.5,0-6.4,2.6-6.9,6h2c0.5-2.3,2.5-4,4.9-4c1.4,0,2.6,0.6,3.5,1.5L26,24
	h3.9h2H32v-6L29.9,20.1z M29.9,26h2c-0.5,3.4-3.4,6-6.9,6c-1.9,0-3.7-0.8-4.9-2.1L18,32v-6h0.1h2H24l-2.5,2.5
	c0.9,0.9,2.1,1.5,3.5,1.5C27.4,30,29.4,28.3,29.9,26z"/>
</svg>
