<?xml version="1.0" encoding="utf-8"?>
<!-- Generator: Adobe Illustrator 21.1.0, SVG Export Plug-In . SVG Version: 6.00 Build 0)  -->
<svg version="1.1" id="RecurrentChanged_x5F_Appointment"
	 xmlns="http://www.w3.org/2000/svg" xmlns:xlink="http://www.w3.org/1999/xlink" x="0px" y="0px" viewBox="0 0 32 32"
	 style="enable-background:new 0 0 32 32;" xml:space="preserve">
<style type="text/css">
	.Black{fill:#727272;}
	.Red{fill:#D11C1C;}
	.st0{opacity:0.5;}
</style>
<path class="Black" d="M16,26H2V6h26v10.5c0.6,0.2,1.2,0.5,1.8,0.8l0.2-0.2V3c0-0.6-0.4-1-1-1H1C0.4,2,0,2.4,0,3v24c0,0.6,0.4,1,1,1
	h15V26z"/>
<rect x="10" y="14" class="Red" width="4" height="4"/>
<g class="st0">
	<path class="Black" d="M16.6,18H16v-4h4v0.6L16.6,18z M26,8h-4v4h4V8z M20,8h-4v4h4V8z M25,16c0.3,0,0.7,0,1,0.1V14h-4v2.5
		C23,16.2,24,16,25,16z M4,24h4v-4H4V24z M10,12h4V8h-4V12z M4,18h4v-4H4V18z M10,24h4v-4h-4V24z M4,12h4V8H4V12z"/>
</g>
<path class="Black" d="M29.9,20.1c-1.3-1.3-3-2.1-4.9-2.1c-1.6,0-3,0.5-4.2,1.4L19.4,18L18,19.4l1.4,1.4c-0.7,0.9-1.2,2-1.3,3.2h2
	c0.1-0.6,0.4-1.2,0.7-1.7l6.9,6.9C27,29.7,26,30,25,30c-1.4,0-2.6-0.6-3.5-1.5L24,26h-3.9h-2H18v6l2.1-2.1c1.3,1.3,3,2.1,4.9,2.1
	c1.6,0,3-0.5,4.2-1.4l1.4,1.4l1.4-1.4l-1.4-1.4c0.7-0.9,1.2-2,1.3-3.2h-2c-0.1,0.6-0.4,1.2-0.7,1.7l-6.9-6.9C23,20.3,24,20,25,20
	c1.4,0,2.6,0.6,3.5,1.5L26,24h3.9h2H32v-6L29.9,20.1z"/>
</svg>
