<?xml version="1.0" encoding="utf-8"?>
<!-- Generator: Adobe Illustrator 21.1.0, SVG Export Plug-In . SVG Version: 6.00 Build 0)  -->
<svg version="1.1" id="Layer_1" xmlns="http://www.w3.org/2000/svg" xmlns:xlink="http://www.w3.org/1999/xlink" x="0px" y="0px"
	 viewBox="0 0 32 32" style="enable-background:new 0 0 32 32;" xml:space="preserve">
<style type="text/css">
	.Red{fill:#D11C1C;}
	.Black{fill:#727272;}
	.Blue{fill:#1177D7;}
	.Green{fill:#039C23;}
	.Yellow{fill:#FFB115;}
	.White{fill:#FFFFFF;}
	.st0{opacity:0.5;}
	.st1{opacity:0.75;}
	.st2{opacity:0.25;}
</style>
<g id="OutlookImport">
	<polygon class="Green" points="32,4 24,4 24,0 16,6 24,12 24,8 32,8 	"/>
	<path class="Blue" d="M25,14H14V8L0,12.2V28l14,4v-6h11c0.5,0,1-0.5,1-1V15C26,14.5,25.5,14,25,14z M9.2,22.9C8.6,23.6,7.9,24,7,24
		c-0.9,0-1.6-0.4-2.2-1.1C4.3,22.2,4,21.3,4,20.1c0-1.2,0.3-2.2,0.8-3C5.4,16.4,6.1,16,7.1,16c0.9,0,1.6,0.4,2.1,1.1
		c0.5,0.7,0.8,1.7,0.8,2.8C10,21.2,9.7,22.2,9.2,22.9z M14,16h9l-6,4l-3-2V16z M24,24H14v-4l3,2l7-4.6V24z M8.4,17.9
		c0.3,0.5,0.5,1.2,0.5,2.1c0,0.9-0.2,1.6-0.5,2.1c-0.3,0.5-0.8,0.8-1.4,0.8c-0.6,0-1-0.3-1.4-0.8S5.1,20.9,5.1,20
		c0-0.9,0.2-1.6,0.5-2.1C6,17.4,6.5,17.1,7,17.1C7.6,17.1,8.1,17.4,8.4,17.9z"/>
</g>
</svg>
