<?xml version="1.0" encoding="utf-8"?>
<!-- Generator: Adobe Illustrator 21.1.0, SVG Export Plug-In . SVG Version: 6.00 Build 0)  -->
<svg version="1.1" id="Layer_1" xmlns="http://www.w3.org/2000/svg" xmlns:xlink="http://www.w3.org/1999/xlink" x="0px" y="0px"
	 viewBox="0 0 32 32" style="enable-background:new 0 0 32 32;" xml:space="preserve">
<style type="text/css">
	.Red{fill:#D11C1C;}
	.Black{fill:#727272;}
	.Blue{fill:#1177D7;}
	.Green{fill:#039C23;}
	.Yellow{fill:#FFB115;}
	.White{fill:#FFFFFF;}
	.st0{opacity:0.5;}
	.st1{opacity:0.75;}
	.st2{opacity:0.25;}
</style>
<g id="NewRecurringAppointment_1_">
	<polygon class="Yellow" points="26,3 28,1 28,4 31,4 29,6 31,8 28,8 28,11 26,9 24,11 24,8 21,8 23,6 21,4 24,4 24,1 	"/>
	<path class="Black" d="M28,12v17c0,0.5-0.5,1-1,1H3c-0.5,0-1-0.5-1-1V5c0-0.5,0.5-1,1-1h17v2H4v22h22V12H28z M19.9,12.1
		c-1.3-1.3-3-2.1-4.9-2.1c-3.5,0-6.4,2.6-6.9,6h2c0.5-2.3,2.5-4,4.9-4c1.4,0,2.6,0.6,3.5,1.5L16,16h3.9h2H22v-6L19.9,12.1z M19.9,18
		h2c-0.5,3.4-3.4,6-6.9,6c-1.9,0-3.7-0.8-4.9-2.1L8,24v-6h0.1h2H14l-2.5,2.5c0.9,0.9,2.1,1.5,3.5,1.5C17.4,22,19.4,20.3,19.9,18z"/>
</g>
</svg>
