<?xml version="1.0" encoding="utf-8"?>
<!-- Generator: Adobe Illustrator 21.1.0, SVG Export Plug-In . SVG Version: 6.00 Build 0)  -->
<svg version="1.1" id="Layer_1" xmlns="http://www.w3.org/2000/svg" xmlns:xlink="http://www.w3.org/1999/xlink" x="0px" y="0px"
	 viewBox="0 0 32 32" style="enable-background:new 0 0 32 32;" xml:space="preserve">
<style type="text/css">
	.Red{fill:#D11C1C;}
	.Black{fill:#727272;}
	.Blue{fill:#1177D7;}
	.Green{fill:#039C23;}
	.Yellow{fill:#FFB115;}
	.White{fill:#FFFFFF;}
	.st0{opacity:0.5;}
	.st1{opacity:0.75;}
</style>
<g id="SnapToCell">
	<rect x="4" y="14" class="Green" width="14" height="14"/>
	<path class="Black" d="M31,0H1C0.5,0,0,0.5,0,1v30c0,0.5,0.5,1,1,1h30c0.5,0,1-0.5,1-1V1C32,0.5,31.5,0,31,0z M30,30H2V2h28V30z
		 M24,17l4,4l-4,4v-3h-4v-2h4V17z M7,8l4-4l4,4h-3v4h-2V8H7z"/>
</g>
</svg>
