<?xml version="1.0" encoding="utf-8"?>
<!-- Generator: Adobe Illustrator 21.1.0, SVG Export Plug-In . SVG Version: 6.00 Build 0)  -->
<svg version="1.1" id="Layer_1" xmlns="http://www.w3.org/2000/svg" xmlns:xlink="http://www.w3.org/1999/xlink" x="0px" y="0px"
	 viewBox="0 0 32 32" style="enable-background:new 0 0 32 32;" xml:space="preserve">
<style type="text/css">
	.Red{fill:#D11C1C;}
	.Black{fill:#727272;}
	.Blue{fill:#1177D7;}
	.Green{fill:#039C23;}
	.Yellow{fill:#FFB115;}
	.White{fill:#FFFFFF;}
	.st0{opacity:0.5;}
	.st1{opacity:0.75;}
</style>
<g id="TimeZones">
	<path class="Blue" d="M15,2C7.8,2,2,7.8,2,15s5.8,13,13,13s13-5.8,13-13S22.2,2,15,2z M10.6,4.9c-0.5,0.7-0.9,1.6-1.3,2.5
		C8.7,7.2,8.1,7.1,7.6,6.9C8.5,6.1,9.5,5.4,10.6,4.9z M6.2,8.5c0.7,0.3,1.6,0.6,2.5,0.8c-0.4,1.4-0.6,3-0.7,4.7h-4
		C4.2,11.9,5,10,6.2,8.5z M4.1,16h4c0.1,1.7,0.3,3.3,0.7,4.7c-1,0.2-1.8,0.5-2.5,0.8C5,20,4.2,18.1,4.1,16z M7.6,23.1
		c0.5-0.2,1.1-0.4,1.7-0.5c0.4,0.9,0.8,1.8,1.3,2.5C9.5,24.6,8.5,23.9,7.6,23.1z M14,25.8c-1.1-0.5-2-1.8-2.8-3.5
		c0.8-0.1,1.7-0.2,2.8-0.2V25.8z M14,20c-1.2,0-2.3,0.1-3.4,0.3C10.3,19,10.1,17.6,10,16h4V20z M14,14h-4c0.1-1.6,0.3-3,0.6-4.3
		c1.1,0.2,2.2,0.3,3.4,0.3V14z M14,8c-1,0-1.9-0.1-2.8-0.2C12,6,12.9,4.7,14,4.2V8z M25.9,14h-4c-0.1-1.7-0.3-3.3-0.7-4.7
		c1-0.2,1.8-0.5,2.5-0.8C25,10,25.8,11.9,25.9,14z M22.4,6.9c-0.5,0.2-1.1,0.4-1.7,0.5c-0.4-0.9-0.8-1.8-1.3-2.5
		C20.5,5.4,21.5,6.1,22.4,6.9z M16,4.2c1.1,0.5,2,1.8,2.8,3.5C17.9,7.9,17,7.9,16,8V4.2z M16,10c1.2,0,2.3-0.1,3.4-0.3
		c0.3,1.3,0.5,2.8,0.6,4.3h-4V10z M16,25.8V22c1,0,1.9,0.1,2.8,0.2C18,24,17.1,25.3,16,25.8z M16,20v-4h4c-0.1,1.6-0.3,3-0.6,4.3
		C18.3,20.2,17.2,20.1,16,20z M19.4,25.1c0.5-0.7,0.9-1.6,1.3-2.5c0.7,0.2,1.3,0.3,1.7,0.5C21.5,23.9,20.5,24.6,19.4,25.1z
		 M23.8,21.5c-0.7-0.3-1.6-0.6-2.5-0.8c0.4-1.4,0.6-3,0.7-4.7h4C25.8,18.1,25,20,23.8,21.5z"/>
</g>
</svg>
