<?xml version="1.0" encoding="utf-8"?>
<!-- Generator: Adobe Illustrator 22.1.0, SVG Export Plug-In . SVG Version: 6.00 Build 0)  -->
<svg version="1.1" id="Layer_1" xmlns="http://www.w3.org/2000/svg" xmlns:xlink="http://www.w3.org/1999/xlink" x="0px" y="0px"
	 viewBox="0 0 32 32" style="enable-background:new 0 0 32 32;" xml:space="preserve">
<style type="text/css">
	.Blue{fill:#1177D7;}
	.Yellow{fill:#FFB115;}
	.Red{fill:#D11C1C;}
	.Green{fill:#039C23;}
	.Black{fill:#727272;}
	.White{fill:#FFFFFF;}
	.st0{opacity:0.5;}
	.st1{opacity:0.75;}
	.st2{display:none;}
	.st3{display:inline;fill:#FFB115;}
	.st4{display:inline;}
	.st5{display:inline;opacity:0.75;}
	.st6{display:inline;opacity:0.5;}
	.st7{display:inline;fill:#039C23;}
	.st8{display:inline;fill:#D11C1C;}
	.st9{display:inline;fill:#1177D7;}
	.st10{display:inline;fill:#FFFFFF;}
</style>
<g id="Audit_x5F_ChangeHistory">
	<polygon class="Black" points="16,16 16,10 14,10 14,18 22,18 22,16 	"/>
	<path class="Blue" d="M16,2C11.6,2,7.7,4,5.2,7.2L2,4v10h0.2h4H12l-4-4c1.8-2.4,4.7-4,8-4c5.5,0,10,4.5,10,10c0,5.5-4.5,10-10,10
		c-4.8,0-8.9-3.4-9.8-8h-4c1,6.8,6.8,12,13.8,12c7.7,0,14-6.3,14-14S23.7,2,16,2z"/>
</g>
</svg>
