<?xml version="1.0" encoding="utf-8"?>
<!-- Generator: Adobe Illustrator 22.1.0, SVG Export Plug-In . SVG Version: 6.00 Build 0)  -->
<svg version="1.1" id="Layer_1" xmlns="http://www.w3.org/2000/svg" xmlns:xlink="http://www.w3.org/1999/xlink" x="0px" y="0px"
	 viewBox="0 0 32 32" style="enable-background:new 0 0 32 32;" xml:space="preserve">
<style type="text/css">
	.Blue{fill:#1177D7;}
	.Yellow{fill:#FFB115;}
	.Red{fill:#D11C1C;}
	.Green{fill:#039C23;}
	.Black{fill:#727272;}
	.White{fill:#FFFFFF;}
	.st0{opacity:0.5;}
	.st1{opacity:0.75;}
	.st2{display:none;}
	.st3{display:inline;fill:#FFB115;}
	.st4{display:inline;}
	.st5{display:inline;opacity:0.75;}
	.st6{display:inline;opacity:0.5;}
	.st7{display:inline;fill:#039C23;}
	.st8{display:inline;fill:#D11C1C;}
	.st9{display:inline;fill:#1177D7;}
	.st10{display:inline;fill:#FFFFFF;}
</style>
<g id="Address_1_">
	<g class="st1">
		<path class="Black" d="M26,12H16v-2h10V12z M26,14H16v2h10V14z M26,18H16v2h10V18z"/>
	</g>
	<path class="Black" d="M29,4H1C0.4,4,0,4.5,0,5v20c0,0.5,0.4,1,1,1h28c0.6,0,1-0.5,1-1V5C30,4.5,29.6,4,29,4z M28,24H2V6h26V24z"/>
	<path class="Blue" d="M9,8c1.7,0,3,1.3,3,3s-1.3,3-3,3s-3-1.3-3-3S7.3,8,9,8z M12.2,14.8c-0.9,0.7-2,1.2-3.2,1.2s-2.3-0.5-3.2-1.2
		C4,16.5,4,22,4,22h10C14,22,14,16.5,12.2,14.8z"/>
</g>
</svg>
