<?xml version="1.0" encoding="utf-8"?>
<!-- Generator: Adobe Illustrator 22.1.0, SVG Export Plug-In . SVG Version: 6.00 Build 0)  -->
<svg version="1.1" id="Layer_1" xmlns="http://www.w3.org/2000/svg" xmlns:xlink="http://www.w3.org/1999/xlink" x="0px" y="0px"
	 viewBox="0 0 32 32" style="enable-background:new 0 0 32 32;" xml:space="preserve">
<style type="text/css">
	.Blue{fill:#1177D7;}
	.Yellow{fill:#FFB115;}
	.Red{fill:#D11C1C;}
	.Green{fill:#039C23;}
	.Black{fill:#727272;}
	.White{fill:#FFFFFF;}
	.st0{opacity:0.5;}
	.st1{opacity:0.75;}
	.st2{display:none;}
	.st3{display:inline;fill:#FFB115;}
	.st4{display:inline;}
	.st5{display:inline;opacity:0.75;}
	.st6{display:inline;opacity:0.5;}
	.st7{display:inline;fill:#039C23;}
	.st8{display:inline;fill:#D11C1C;}
	.st9{display:inline;fill:#1177D7;}
	.st10{display:inline;fill:#FFFFFF;}
</style>
<g id="Category">
	<path class="Blue" d="M19,12h-8c-0.6,0-1-0.4-1-1V5c0-0.6,0.4-1,1-1h8c0.5,0,1,0.4,1,1v6C20,11.6,19.5,12,19,12z"/>
	<path class="Blue" d="M11,26H3c-0.5,0-1-0.5-1-1v-6c0-0.5,0.5-1,1-1h8c0.6,0,1,0.5,1,1v6C12,25.5,11.6,26,11,26z"/>
	<path class="Blue" d="M27,26h-8c-0.5,0-1-0.5-1-1v-6c0-0.5,0.5-1,1-1h8c0.5,0,1,0.5,1,1v6C28,25.5,27.5,26,27,26z"/>
	<g class="st1">
		<path class="Black" d="M16,14v-2h-2v2H7c-0.6,0-1,0.4-1,1v3h2v-2h14v2h2v-3c0-0.6-0.4-1-1-1H16z"/>
	</g>
</g>
</svg>
