<?xml version="1.0" encoding="utf-8"?>
<!-- Generator: Adobe Illustrator 22.1.0, SVG Export Plug-In . SVG Version: 6.00 Build 0)  -->
<svg version="1.1" id="Layer_1" xmlns="http://www.w3.org/2000/svg" xmlns:xlink="http://www.w3.org/1999/xlink" x="0px" y="0px"
	 viewBox="0 0 32 32" style="enable-background:new 0 0 32 32;" xml:space="preserve">
<style type="text/css">
	.Blue{fill:#1177D7;}
	.Yellow{fill:#FFB115;}
	.Red{fill:#D11C1C;}
	.Green{fill:#039C23;}
	.Black{fill:#727272;}
	.White{fill:#FFFFFF;}
	.st0{opacity:0.5;}
	.st1{opacity:0.75;}
	.st2{display:none;}
	.st3{display:inline;fill:#FFB115;}
	.st4{display:inline;}
	.st5{display:inline;opacity:0.75;}
	.st6{display:inline;opacity:0.5;}
	.st7{display:inline;fill:#039C23;}
	.st8{display:inline;fill:#D11C1C;}
	.st9{display:inline;fill:#1177D7;}
	.st10{display:inline;fill:#FFFFFF;}
</style>
<g id="Document_1_">
	<path class="Blue" d="M15,20l9-9l5,5l-9,9L15,20z M31.7,11.9l-3.6-3.6c-0.4-0.4-1-0.4-1.4,0L25,10l5,5l1.7-1.7
		C32.1,12.9,32.1,12.3,31.7,11.9z M14,26h5l-5-5V26z"/>
	<path class="Black" d="M24,23.8V28h-4.2H12H6V4h18v4.2l2-2V3c0-0.5-0.5-1-1-1H5C4.4,2,4,2.5,4,3v26c0,0.5,0.5,1,1,1h20
		c0.5,0,1-0.5,1-1v-7.2L24,23.8z"/>
</g>
</svg>
