<?xml version="1.0" encoding="utf-8"?>
<!-- Generator: Adobe Illustrator 22.1.0, SVG Export Plug-In . SVG Version: 6.00 Build 0)  -->
<svg version="1.1" id="Layer_1" xmlns="http://www.w3.org/2000/svg" xmlns:xlink="http://www.w3.org/1999/xlink" x="0px" y="0px"
	 viewBox="0 0 32 32" style="enable-background:new 0 0 32 32;" xml:space="preserve">
<style type="text/css">
	.Blue{fill:#1177D7;}
	.Yellow{fill:#FFB115;}
	.Red{fill:#D11C1C;}
	.Green{fill:#039C23;}
	.Black{fill:#727272;}
	.White{fill:#FFFFFF;}
	.st0{opacity:0.5;}
	.st1{opacity:0.75;}
	.st2{display:none;}
	.st3{display:inline;fill:#FFB115;}
	.st4{display:inline;}
	.st5{display:inline;opacity:0.75;}
	.st6{display:inline;opacity:0.5;}
	.st7{display:inline;fill:#039C23;}
	.st8{display:inline;fill:#D11C1C;}
	.st9{display:inline;fill:#1177D7;}
	.st10{display:inline;fill:#FFFFFF;}
</style>
<g id="Department">
	<g class="st1">
		<path class="Black" d="M16.3,9.7C16.2,9.3,15.9,9,16,8.6c0.1-0.2,0.3-0.2,0.4-0.2C15.5,5.3,16,2,20,2c4.3,0,4.6,2.5,4.6,2.5
			s2.4-0.2,0.9,3.9c0.1-0.1,0.3-0.1,0.4,0.2c0.1,0.4-0.1,0.7-0.2,1.2c-0.2,0.4,0.1,1.4-0.7,1.3v0.1c-0.4,1.9-1.7,4.1-3.9,4.1
			c-2.2,0-3.4-2.2-3.9-4.1c0-0.1,0-0.2,0-0.2C16.3,11.2,16.5,10.2,16.3,9.7z M24,16c-0.6,1-1.6,2.7-3,2.7S18.6,17,18,16
			c-0.1,0.2-0.3,0.3-0.4,0.4c0,0,0,0,0,0l0,0.1l0,0c-0.1,1-0.5,1.7-0.9,2c-0.3,0.8-0.6,1.5-1.1,2.2l0,0c0.3,0.3,0.9,0.5,1.6,0.8
			c1.1,0.4,2.8,0.9,3.8,2.4h9v-2.3C30,16.7,25.7,18.3,24,16z"/>
	</g>
	<path class="Black" d="M6.3,15.7C6.2,15.3,5.9,15,6,14.6c0.1-0.2,0.3-0.2,0.4-0.2C5.5,11.3,6,8,10,8c4.3,0,4.6,2.5,4.6,2.5
		s2.4-0.2,0.9,3.9c0.1-0.1,0.3-0.1,0.4,0.2c0.1,0.4-0.1,0.7-0.2,1.2c-0.2,0.4,0.1,1.4-0.7,1.3v0.1c-0.4,1.9-1.7,4.1-3.9,4.1
		c-2.2,0-3.4-2.2-3.9-4.1c0-0.1,0-0.2,0-0.2C6.3,17.2,6.5,16.2,6.3,15.7z M14,22c-0.6,1-1.6,2.7-3,2.7S8.6,23,8,22
		c-1.7,2.3-6,0.7-6,5.7V30h18v-2.3C20,22.7,15.7,24.3,14,22z"/>
</g>
</svg>
