<?xml version="1.0" encoding="utf-8"?>
<!-- Generator: Adobe Illustrator 22.1.0, SVG Export Plug-In . SVG Version: 6.00 Build 0)  -->
<svg version="1.1" id="Layer_1" xmlns="http://www.w3.org/2000/svg" xmlns:xlink="http://www.w3.org/1999/xlink" x="0px" y="0px"
	 viewBox="0 0 32 32" style="enable-background:new 0 0 32 32;" xml:space="preserve">
<style type="text/css">
	.Blue{fill:#1177D7;}
	.Yellow{fill:#FFB115;}
	.Red{fill:#D11C1C;}
	.Green{fill:#039C23;}
	.Black{fill:#727272;}
	.White{fill:#FFFFFF;}
	.st0{opacity:0.5;}
	.st1{opacity:0.75;}
	.st2{display:none;}
	.st3{display:inline;fill:#FFB115;}
	.st4{display:inline;}
	.st5{display:inline;opacity:0.75;}
	.st6{display:inline;opacity:0.5;}
	.st7{display:inline;fill:#039C23;}
	.st8{display:inline;fill:#D11C1C;}
	.st9{display:inline;fill:#1177D7;}
	.st10{display:inline;fill:#FFFFFF;}
</style>
<g id="Localization">
	<path class="Blue" d="M16,2C8.3,2,2,8.3,2,16s6.3,14,14,14s14-6.3,14-14S23.8,2,16,2z M20.3,19.1c-0.5,0.1-0.5-0.3-0.1-0.4
		C20.3,18.9,20.4,18.8,20.3,19.1z M8.6,13.3c0-0.1,0-0.1,0-0.2C8.6,13.2,8.6,13.3,8.6,13.3z M22.3,21.9c0-0.1-0.1-0.1-0.1-0.1
		c0.1,0.3-0.1,0.9-0.1,1.2c-0.1,0.4-0.4,1.3-0.7,1.3c0,0.2-0.4,0-0.3,0.2c-0.5,0.1-0.8,0.5-0.8,0.8c0,0.1-0.3,1.1-0.4,1.1
		c0-0.1,0.1-0.2,0.1-0.3c0,0.1-0.1,0.1-0.1,0c0,0.2-0.3,0.8-0.4,0.9s-0.3,0.3-0.5,0.2c-0.1,0-0.3-0.2-0.3-0.4c0,0.3,0.2,0.6,0.2,0.8
		c-0.9,0.2-1.8,0.3-2.7,0.3c-0.1,0-0.2,0-0.3,0c0.1-0.3,0.1-0.5,0.2-0.8c0.2-0.7,0.2-1.5,0.3-2.2c0.1-0.4,0.3-1.5,0.1-1.9
		c-0.1-0.2-0.3-0.2-0.5-0.4c-0.6-0.4-0.6-0.7-0.8-1.3c-0.1-0.4-0.3-0.5-0.5-0.9c-0.1-0.2-0.2-0.2-0.2-0.5c0-0.2,0.2-0.4,0.2-0.6
		l-0.1,0.1l-0.1-0.1c0-0.1,0-0.4,0.1-0.4c0-0.2,0.1-0.7,0.3-0.7c0-0.3,0.2-0.3,0.1-0.5c0.3-0.2,0-0.9,0-1c-0.2,0-0.1-0.1-0.3-0.2
		c0,0.1-0.2,0.1-0.2,0.2s0.1,0,0.1,0.1c-0.3,0-0.4-0.2-0.6-0.3c0,0.2-0.1-0.2-0.3-0.3c0.1,0.2-0.2-0.2-0.2-0.3
		c-0.1-0.2-0.2-0.3-0.2-0.5c-0.5,0-0.6-0.1-1-0.4c-0.4-0.3-0.7-0.1-1.2-0.3c-0.3-0.1-0.7-0.3-0.9-0.5c-0.4-0.3-0.3-0.6-0.5-1
		c-0.1-0.3-0.7-0.7-0.6-1c-0.6,0-0.5-1.3-1.1-1.3c0,0.2,0.6,1.5,0.8,2c-0.2-0.4-0.8-0.6-0.9-1c0.5,0-0.2-0.8-0.4-1
		c-0.2-0.3-0.2-0.6-0.7-0.6c0-0.2-0.2-0.4-0.2-0.7c-0.1,0-0.2-0.1-0.2-0.2h0.1c0-0.1-0.1-0.1,0-0.2c-0.1,0,0,0-0.1,0c0,0,0,0,0,0.1
		C6.2,9.5,6.1,9.3,6,9.2c1.1-1.6,2.6-3,4.4-3.9c0.1,0.1,0.1,0.3,0.2,0.3c0-0.1,0-0.2,0-0.3c0.7-0.4,1.5-0.7,2.4-0.9
		c0.1,0,0.1,0.1,0.2,0.1c0.2,0.1,0.4,0.1,0.6,0.2C14,4.8,13.9,4.8,14,5.1c0,0.1,0.1,0.2,0.1,0.3c0.1,0,0.1,0,0.2,0
		c0,0.1-0.1,0.1-0.1,0c0,0.3,0.2,0.6,0.4,0.2c0.1-0.2-0.2-0.4-0.1-0.7C14.6,4.7,15,4.5,15,4.3l0,0c0-0.1,0-0.2-0.1-0.3
		c0.3,0,0.7,0,1,0c0.7,0,1.3,0.1,2,0.2c0,0,0,0,0,0.1c0,0-0.1,0-0.2,0c0,0,0,0.2,0,0.1c0.1,0,0.4,0.2,0.3,0.4c0.1,0,0.1,0.1,0.2,0.1
		c0-0.2,0.3,0.3,0.3,0c-0.1,0,0.1,0.1,0.1,0.1c0,0.1-0.5,0.3-0.6,0.3c0,0.3,0.8-0.5,0.8,0c0,0,0,0,0.1-0.1c0,0.6-0.8,0.9-1.1,0.9
		c-0.2,0-0.6,0-0.8,0c-0.2,0.1-0.4,0.6-0.7,0.6c0,0.3-0.1,0.3-0.2,0.4c0,0,1.3-1.3,1.3-0.6c0,0-0.1,0.2-0.3,0.3V6.7
		c-0.1,0.1,0,0.1,0,0.2c0.1,0,0.2-0.1,0.2-0.1c0,0.1,0,0.2-0.1,0.2h0.1c0,0.1-0.1,0.3,0.1,0.3l0,0c0,0,0,0.1-0.1,0.1l0,0
		c0.2,0,0.2,0,0.4,0c0,0.3,0,0,0.1,0.2c-0.1,0-0.4,0.3-0.4,0.3s0-0.1-0.1-0.1l-0.2,0.3c0,0,0,0,0-0.1c-0.7,0,0.3-0.5,0.3-0.5
		c-0.5,0-0.2,0.1-0.2-0.2h-0.1c0,0.1-0.1,0.2-0.2,0.2V7.4c-0.1,0.1-0.1,0.1,0,0.1c-0.1,0.1-0.1,0-0.2,0c-0.1,0.1,0.1,0.4-0.2,0.2
		c0,0.1,0,0,0,0.1c-0.1,0,0-0.1-0.1-0.1c0,0.3-0.6,0.2-0.3,0.7c-0.1,0-0.1,0-0.2,0c0,0.1,0,0.1,0,0.1c-0.1,0-0.2,0.1-0.3,0.2
		c0.1,0,0.3,0,0.2,0c0,0.1-0.2,0.1-0.3,0.1c0,0.2-0.1,0.4-0.3,0.3c0,0.2,0.1,0.3-0.1,0.5c0,0.1,0-0.4,0-0.5
		c-0.1,0.1-0.3,0.4-0.2,0.4c0,0.2,0.1,0.1,0.1,0.2c-0.2,0,0,0.2,0.1,0.3C15,10,15,10,15,10.1c0.1,0,0.2,0.1,0.2,0.1
		c-0.1,0-0.1,0-0.2,0c0,0.5-0.9,0.7-0.8,1.4c0,0.3,0.4,1,0.1,1.2c0-0.3-0.3-0.4-0.3-0.7c-0.1,0,0,0.1-0.1,0.1
		c-0.1-0.1,0-0.3-0.1-0.5c-0.1-0.1-0.2,0-0.4-0.1c-0.1,0-0.5-0.2-0.5-0.2c-0.1,0-0.3,0-0.4,0.1c0.1,0.2,0.2,0,0.1,0.2
		c0.1,0,0.1,0,0.1,0.1c-0.1,0-0.2-0.1-0.3-0.2c0,0.1,0,0.1,0,0.1c-0.1,0-0.1,0-0.2,0c0-0.1,0-0.1,0-0.1h-0.7c0,0.2-0.4,0.5-0.5,0.8
		s0,0.9,0,1.3c0.1,0,0.2,0.4,0.4,0.6c0.2,0.1,0.7,0.2,0.9,0.1c0.2-0.2,0.2-0.8,0.6-0.8c0.4,0,0,0.5,0.1,0.9c-0.1,0-0.1-0.1-0.1-0.1
		c0,0.2-0.1,0.5-0.1,0.7c0.4,0,0.9-0.2,1.1,0.2c0.1,0.2-0.2,0.5-0.1,0.8c0,0.2,0.2,0.5,0.4,0.5c0.2,0.1,0.2-0.1,0.3-0.1
		c0.2,0,0.2,0.1,0.4,0.1c0.1,0,0.1,0.2,0.2,0.2c0.1-0.5,0.3-0.7,0.7-0.9c0.3-0.1,0.2-0.3,0.1,0.1c0.2,0-0.1,0.5,0.1,0.5
		c0-0.2,0-0.5,0.3-0.6c0-0.1-0.1,0-0.1-0.1c0.1-0.1,0.5,0.3,0.4,0.3c0,0.1,0.9,0.1,0.9,0h0.3c0,0.1,0,0-0.1,0.1
		c0,0.1,0.3,0.2,0.3,0.1c-0.1,0.3-0.1,0.1-0.3,0.4c0.6,0,0.6-0.2,0.7,0.4c0.1,0,0,0,0.1,0c0-0.3,0.3-0.1,0.3,0.1c0,0,0.5-0.2,0.5,0
		c0.6,0,0.4,0.7,0.7,0.9c0.1,0-0.1,0,0.1,0L20,18.4c0.1,0,0-0.1,0.1-0.1c0,0.1,0,0.1,0,0.1s0,0,0,0.1l0,0c-0.2,0-0.1,0-0.1-0.1
		c0,0-0.5,0.5-0.8,0.7c0.2-0.1,0.3-0.2,0.6-0.2c0,0.3,0,0.1,0,0.3c0.1,0,0-0.3,0.2-0.3c0,0.4,0.4,0.1,0.5,0.1c0,0,0.6-0.3,0.5,0.1
		c0.2,0,0.1,0.3,0.3,0.3c0.3-0.3,1.2,0.3,1.5,0.5C23.4,20.7,22.6,21.1,22.3,21.9z M17.7,7.3l-0.1-0.1c-0.1,0-0.4-0.1-0.1-0.2
		l0.1,0.2L17.7,7.3C17.6,7.3,17.6,7.3,17.7,7.3z M17.3,6.2c0.1,0,0.4,0.1,0.5,0.2c0,0,0,0,0,0.1C17.7,6.5,17.3,6.3,17.3,6.2z
		 M12.5,11.8C12.4,11.8,12.4,11.7,12.5,11.8C12.5,11.7,12.5,11.7,12.5,11.8z M19.8,18.9C19.8,18.9,19.7,19,19.8,18.9L19.8,18.9z
		 M19.7,19C19.8,19,19.7,19.1,19.7,19L19.7,19z"/>
</g>
</svg>
