<?xml version="1.0" encoding="utf-8"?>
<!-- Generator: Adobe Illustrator 22.1.0, SVG Export Plug-In . SVG Version: 6.00 Build 0)  -->
<svg version="1.1" id="Layer_1" xmlns="http://www.w3.org/2000/svg" xmlns:xlink="http://www.w3.org/1999/xlink" x="0px" y="0px"
	 viewBox="0 0 32 32" style="enable-background:new 0 0 32 32;" xml:space="preserve">
<style type="text/css">
	.Blue{fill:#1177D7;}
	.Yellow{fill:#FFB115;}
	.Red{fill:#D11C1C;}
	.Green{fill:#039C23;}
	.Black{fill:#727272;}
	.White{fill:#FFFFFF;}
	.st0{opacity:0.5;}
	.st1{opacity:0.75;}
	.st2{display:none;}
	.st3{display:inline;fill:#FFB115;}
	.st4{display:inline;}
	.st5{display:inline;opacity:0.75;}
	.st6{display:inline;opacity:0.5;}
	.st7{display:inline;fill:#039C23;}
	.st8{display:inline;fill:#D11C1C;}
	.st9{display:inline;fill:#1177D7;}
	.st10{display:inline;fill:#FFFFFF;}
</style>
<g id="Lead_1_">
	<path id="Lead" class="Black" d="M10.5,9.6C9.4,6,10,2,14.8,2c5.2,0,5.5,3,5.5,3s2.9-0.2,1.1,4.7c0.1-0.1,0.4-0.1,0.5,0.3
		c0.1,0.5-0.1,0.9-0.3,1.4c-0.3,0.5,0.1,1.7-0.9,1.6v0.1c-0.5,2.3-2,4.9-4.7,4.9s-4.1-2.6-4.7-4.9c0-0.1,0-0.2,0-0.2
		c-1,0.1-0.7-1.1-0.9-1.6S9.9,10.4,10,9.9C10.1,9.7,10.4,9.6,10.5,9.6z M20,18l-2.4,7.9L17,22l0.6-2h-3.2l0.6,2l-0.6,3.9L12,18
		c-2.3,3.5-8,1-8,8.5V30h10h1h2h1h10v-3.5C28,19.1,22.3,21.4,20,18z"/>
</g>
</svg>
