<?xml version="1.0" encoding="utf-8"?>
<!-- Generator: Adobe Illustrator 22.1.0, SVG Export Plug-In . SVG Version: 6.00 Build 0)  -->
<svg version="1.1" id="Layer_1" xmlns="http://www.w3.org/2000/svg" xmlns:xlink="http://www.w3.org/1999/xlink" x="0px" y="0px"
	 viewBox="0 0 32 32" style="enable-background:new 0 0 32 32;" xml:space="preserve">
<style type="text/css">
	.Blue{fill:#1177D7;}
	.Yellow{fill:#FFB115;}
	.Red{fill:#D11C1C;}
	.Green{fill:#039C23;}
	.Black{fill:#727272;}
	.White{fill:#FFFFFF;}
	.st0{opacity:0.5;}
	.st1{opacity:0.75;}
	.st2{display:none;}
	.st3{display:inline;fill:#FFB115;}
	.st4{display:inline;}
	.st5{display:inline;opacity:0.75;}
	.st6{display:inline;opacity:0.5;}
	.st7{display:inline;fill:#039C23;}
	.st8{display:inline;fill:#D11C1C;}
	.st9{display:inline;fill:#1177D7;}
	.st10{display:inline;fill:#FFFFFF;}
</style>
<g id="MyDetails">
	<path class="Black" d="M8.4,11.3C8.2,10.8,7.9,10.4,8,9.9c0.1-0.2,0.4-0.3,0.5-0.3C7.4,6,8,2,12.8,2c5.2,0,5.5,3,5.5,3
		s2.9-0.2,1.1,4.7c0.1-0.1,0.4-0.1,0.5,0.3c0.1,0.5-0.1,0.9-0.3,1.4c-0.3,0.5,0.1,1.7-0.9,1.6v0.1c-0.5,2.3-2,4.9-4.7,4.9
		s-4.1-2.6-4.7-4.9c0-0.1,0-0.2,0-0.2C8.3,13,8.6,11.8,8.4,11.3z M14,25c0-1.1,0.2-2.1,0.6-3.1C14.4,22,14.2,22,14,22
		c-1.9,0-3.2-2.5-4-4c-2.3,3.5-8,1-8,8.5V28h12.5C14.2,27.1,14,26.1,14,25z"/>
	<path class="Blue" d="M23,18c-3.9,0-7,3.1-7,7c0,3.9,3.1,7,7,7s7-3.1,7-7C30,21.1,26.9,18,23,18z M24,30h-2v-6h2V30z M24,22h-2v-2
		h2V22z"/>
</g>
</svg>
