<?xml version="1.0" encoding="utf-8"?>
<!-- Generator: Adobe Illustrator 22.1.0, SVG Export Plug-In . SVG Version: 6.00 Build 0)  -->
<svg version="1.1" id="Layer_1" xmlns="http://www.w3.org/2000/svg" xmlns:xlink="http://www.w3.org/1999/xlink" x="0px" y="0px"
	 viewBox="0 0 32 32" style="enable-background:new 0 0 32 32;" xml:space="preserve">
<style type="text/css">
	.Blue{fill:#1177D7;}
	.Yellow{fill:#FFB115;}
	.Red{fill:#D11C1C;}
	.Green{fill:#039C23;}
	.Black{fill:#727272;}
	.White{fill:#FFFFFF;}
	.st0{opacity:0.5;}
	.st1{opacity:0.75;}
	.st2{display:none;}
	.st3{display:inline;fill:#FFB115;}
	.st4{display:inline;}
	.st5{display:inline;opacity:0.75;}
	.st6{display:inline;opacity:0.5;}
	.st7{display:inline;fill:#039C23;}
	.st8{display:inline;fill:#D11C1C;}
	.st9{display:inline;fill:#1177D7;}
	.st10{display:inline;fill:#FFFFFF;}
</style>
<g id="Notifications_1_">
	<path class="Yellow" d="M28,24v2H4v-2l4-4v-8c0-3.7,2.6-6.9,6-7.7c0-0.1,0-0.2,0-0.3c0-1.1,0.9-2,2-2s2,0.9,2,2c0,0.1,0,0.2,0,0.3
		c3.5,0.9,6,4,6,7.7v8L28,24z M16,30c1.1,0,2-0.9,2-2h-4C14,29.1,14.9,30,16,30z"/>
</g>
</svg>
