<?xml version="1.0" encoding="utf-8"?>
<!-- Generator: Adobe Illustrator 22.1.0, SVG Export Plug-In . SVG Version: 6.00 Build 0)  -->
<svg version="1.1" id="Layer_1" xmlns="http://www.w3.org/2000/svg" xmlns:xlink="http://www.w3.org/1999/xlink" x="0px" y="0px"
	 viewBox="0 0 32 32" style="enable-background:new 0 0 32 32;" xml:space="preserve">
<style type="text/css">
	.Red{fill:#D11C1C;}
	.Yellow{fill:#FFB115;}
	.st0{opacity:0.5;}
	.st1{opacity:0.75;}
</style>
<g id="Sale_x5F_Item_1_">
	<g class="st0">
		<polygon class="Yellow" points="6,0 2,4 18.6,4 22.6,0 		"/>
	</g>
	<g class="st1">
		<polygon class="Yellow" points="18,15.5 18,6 2,6 2,22 11.5,22 		"/>
	</g>
	<path class="Yellow" d="M20.6,12.9c0.6-0.6,1.3-0.9,2.1-0.9H24V1.4l-4,4v8L20.6,12.9z"/>
	<path class="Red" d="M29,14h-6.3c-0.3,0-0.5,0.1-0.7,0.3L12.3,24c-0.4,0.4-0.4,1,0,1.4l6.3,6.3c0.4,0.4,1,0.4,1.4,0l9.7-9.7
		c0.2-0.2,0.3-0.4,0.3-0.7V15C30,14.4,29.6,14,29,14z M26,20c-1.1,0-2-0.9-2-2c0-1.1,0.9-2,2-2c1.1,0,2,0.9,2,2
		C28,19.1,27.1,20,26,20z"/>
</g>
</svg>
