<?xml version="1.0" encoding="utf-8"?>
<!-- Generator: Adobe Illustrator 22.1.0, SVG Export Plug-In . SVG Version: 6.00 Build 0)  -->
<svg version="1.1" id="Layer_1" xmlns="http://www.w3.org/2000/svg" xmlns:xlink="http://www.w3.org/1999/xlink" x="0px" y="0px"
	 viewBox="0 0 32 32" style="enable-background:new 0 0 32 32;" xml:space="preserve">
<style type="text/css">
	.Blue{fill:#1177D7;}
	.Yellow{fill:#FFB115;}
	.Red{fill:#D11C1C;}
	.Green{fill:#039C23;}
	.Black{fill:#727272;}
	.White{fill:#FFFFFF;}
	.st0{opacity:0.5;}
	.st1{opacity:0.75;}
	.st2{display:none;}
	.st3{display:inline;fill:#FFB115;}
	.st4{display:inline;}
	.st5{display:inline;opacity:0.75;}
	.st6{display:inline;opacity:0.5;}
	.st7{display:inline;fill:#039C23;}
	.st8{display:inline;fill:#D11C1C;}
	.st9{display:inline;fill:#1177D7;}
	.st10{display:inline;fill:#FFFFFF;}
</style>
<g id="Position">
	<path class="Black" d="M6.1,18c0.2-5.2,4.3-3.5,6-6c0.6,1.1,1.6,3,3,3s2.4-1.9,3-3c1.7,2.5,5.8,0.9,6,6H6.1z M11.5,8.1
		c0,0,0,0.1,0,0.1C12,10,13,12,15,12s3.1-1.9,3.5-3.7V8.2C19.3,8.3,19,7.4,19.2,7c0.1-0.4,0.3-0.7,0.2-1c-0.1-0.3-0.3-0.3-0.4-0.2
		c1.3-3.7-0.8-3.5-0.8-3.5S18,0,14.1,0c-3.6,0-4,3-3.2,5.7c-0.1,0-0.3,0.1-0.4,0.2c-0.1,0.4,0.1,0.7,0.3,1C11,7.3,10.8,8.2,11.5,8.1
		z"/>
	<polygon class="Yellow" points="2,20 2,32 6,32 6,24 18,24 18,32 30,32 30,20 	"/>
</g>
</svg>
