<?xml version="1.0" encoding="utf-8"?>
<!-- Generator: Adobe Illustrator 22.1.0, SVG Export Plug-In . SVG Version: 6.00 Build 0)  -->
<svg version="1.1" id="Layer_1" xmlns="http://www.w3.org/2000/svg" xmlns:xlink="http://www.w3.org/1999/xlink" x="0px" y="0px"
	 viewBox="0 0 32 32" style="enable-background:new 0 0 32 32;" xml:space="preserve">
<style type="text/css">
	.Blue{fill:#1177D7;}
	.Yellow{fill:#FFB115;}
	.Red{fill:#D11C1C;}
	.Green{fill:#039C23;}
	.Black{fill:#727272;}
	.White{fill:#FFFFFF;}
	.st0{opacity:0.5;}
	.st1{opacity:0.75;}
	.st2{display:none;}
	.st3{display:inline;fill:#FFB115;}
	.st4{display:inline;}
	.st5{display:inline;opacity:0.75;}
	.st6{display:inline;opacity:0.5;}
	.st7{display:inline;fill:#039C23;}
	.st8{display:inline;fill:#D11C1C;}
	.st9{display:inline;fill:#1177D7;}
	.st10{display:inline;fill:#FFFFFF;}
</style>
<g id="Sale2">
	<path class="Red" d="M17.7,2.3L2.3,17.7c-0.4,0.4-0.4,1,0,1.4l10.6,10.6c0.4,0.4,1,0.4,1.4,0l15.4-15.4c0.2-0.2,0.3-0.4,0.3-0.7V3
		c0-0.6-0.4-1-1-1H18.4C18.1,2,17.9,2.1,17.7,2.3z M24,10c-1.1,0-2-0.9-2-2c0-1.1,0.9-2,2-2s2,0.9,2,2C26,9.1,25.1,10,24,10z"/>
</g>
</svg>
