<?xml version="1.0" encoding="utf-8"?>
<!-- Generator: Adobe Illustrator 22.1.0, SVG Export Plug-In . SVG Version: 6.00 Build 0)  -->
<svg version="1.1" id="Layer_1" xmlns="http://www.w3.org/2000/svg" xmlns:xlink="http://www.w3.org/1999/xlink" x="0px" y="0px"
	 viewBox="0 0 32 32" style="enable-background:new 0 0 32 32;" xml:space="preserve">
<style type="text/css">
	.Blue{fill:#1177D7;}
	.Yellow{fill:#FFB115;}
	.Red{fill:#D11C1C;}
	.Green{fill:#039C23;}
	.Black{fill:#727272;}
	.White{fill:#FFFFFF;}
	.st0{opacity:0.5;}
	.st1{opacity:0.75;}
	.st2{display:none;}
	.st3{display:inline;fill:#FFB115;}
	.st4{display:inline;}
	.st5{display:inline;opacity:0.75;}
	.st6{display:inline;opacity:0.5;}
	.st7{display:inline;fill:#039C23;}
	.st8{display:inline;fill:#D11C1C;}
	.st9{display:inline;fill:#1177D7;}
	.st10{display:inline;fill:#FFFFFF;}
</style>
<g id="Order_1_">
	<path class="Yellow" d="M11,14h14c0.6,0,1-0.5,1-1V3c0-0.5-0.4-1-1-1H11c-0.6,0-1,0.5-1,1v10C10,13.5,10.4,14,11,14z"/>
	<path class="Black" d="M14,23c0,1.7-1.3,3-3,3s-3-1.3-3-3s1.3-3,3-3S14,21.3,14,23z M17.5,18c0.5-0.8,1.1-1.4,1.8-2H8V6H2v2h4v10
		H17.5z"/>
	<path class="Green" d="M25,16c-3.9,0-7,3.1-7,7c0,3.9,3.1,7,7,7s7-3.1,7-7C32,19.1,28.9,16,25,16z M26,28h-2v-2h2V28z M27.8,21.7
		c-0.1,0.3-0.2,0.5-0.4,0.7c-0.2,0.2-0.3,0.4-0.5,0.5c-0.2,0.1-0.4,0.3-0.5,0.4c-0.2,0.1-0.3,0.3-0.4,0.5c-0.1,0.2-0.2,0.4-0.2,0.7
		V25h-1.7v-0.6c0-0.4,0.1-0.7,0.2-1c0.1-0.3,0.2-0.5,0.4-0.7c0.1-0.2,0.3-0.3,0.5-0.5c0.2-0.1,0.3-0.3,0.5-0.4
		c0.1-0.1,0.3-0.3,0.3-0.4c0.1-0.2,0.1-0.4,0.1-0.6c0-0.4-0.1-0.7-0.3-0.9c-0.2-0.2-0.4-0.3-0.8-0.3c-0.2,0-0.4,0-0.6,0.1
		c-0.2,0.1-0.3,0.2-0.4,0.4c-0.1,0.2-0.2,0.3-0.2,0.6c0,0.1,0,0.2,0,0.3H22c0-0.4,0.1-0.7,0.2-1c0.1-0.4,0.3-0.8,0.6-1.1
		c0.3-0.3,0.6-0.5,0.9-0.7c0.4-0.2,0.8-0.3,1.2-0.3c0.6,0,1.1,0.1,1.5,0.3c0.4,0.2,0.7,0.4,0.9,0.7c0.2,0.3,0.4,0.5,0.5,0.8
		c0.1,0.3,0.2,0.6,0.2,0.8C28,21,27.9,21.4,27.8,21.7z"/>
</g>
</svg>
