<?xml version="1.0" encoding="utf-8"?>
<!-- Generator: Adobe Illustrator 22.1.0, SVG Export Plug-In . SVG Version: 6.00 Build 0)  -->
<svg version="1.1" id="Layer_1" xmlns="http://www.w3.org/2000/svg" xmlns:xlink="http://www.w3.org/1999/xlink" x="0px" y="0px"
	 viewBox="0 0 32 32" style="enable-background:new 0 0 32 32;" xml:space="preserve">
<style type="text/css">
	.Blue{fill:#1177D7;}
	.Yellow{fill:#FFB115;}
	.Red{fill:#D11C1C;}
	.Green{fill:#039C23;}
	.Black{fill:#727272;}
	.White{fill:#FFFFFF;}
	.st0{opacity:0.5;}
	.st1{opacity:0.75;}
	.st2{display:none;}
	.st3{display:inline;fill:#FFB115;}
	.st4{display:inline;}
	.st5{display:inline;opacity:0.75;}
	.st6{display:inline;opacity:0.5;}
	.st7{display:inline;fill:#039C23;}
	.st8{display:inline;fill:#D11C1C;}
	.st9{display:inline;fill:#1177D7;}
	.st10{display:inline;fill:#FFFFFF;}
</style>
<g id="Resume">
	<path class="Black" d="M25,2H5C4.5,2,4,2.5,4,3v26c0,0.5,0.5,1,1,1h20c0.5,0,1-0.5,1-1V3C26,2.5,25.5,2,25,2z M24,28H6V4h18V28z"/>
	<g class="st1">
		<path class="Black" d="M22,22H8v-2h14V22z M22,24H8v2h14V24z"/>
	</g>
	<path class="Blue" d="M15,6c1.7,0,3,1.3,3,3s-1.3,3-3,3s-3-1.3-3-3S13.3,6,15,6z M18.2,12.8c-0.9,0.7-2,1.2-3.2,1.2
		s-2.3-0.5-3.2-1.2C10,14.5,10,18,10,18h10C20,18,20,14.5,18.2,12.8z"/>
</g>
</svg>
