<?xml version="1.0" encoding="utf-8"?>
<!-- Generator: Adobe Illustrator 22.1.0, SVG Export Plug-In . SVG Version: 6.00 Build 0)  -->
<svg version="1.1" id="Layer_1" xmlns="http://www.w3.org/2000/svg" xmlns:xlink="http://www.w3.org/1999/xlink" x="0px" y="0px"
	 viewBox="0 0 32 32" style="enable-background:new 0 0 32 32;" xml:space="preserve">
<style type="text/css">
	.Blue{fill:#1177D7;}
	.Yellow{fill:#FFB115;}
	.Red{fill:#D11C1C;}
	.Green{fill:#039C23;}
	.Black{fill:#727272;}
	.White{fill:#FFFFFF;}
	.st0{opacity:0.5;}
	.st1{opacity:0.75;}
	.st2{display:none;}
	.st3{display:inline;fill:#FFB115;}
	.st4{display:inline;}
	.st5{display:inline;opacity:0.75;}
	.st6{display:inline;opacity:0.5;}
	.st7{display:inline;fill:#039C23;}
	.st8{display:inline;fill:#D11C1C;}
	.st9{display:inline;fill:#1177D7;}
	.st10{display:inline;fill:#FFFFFF;}
</style>
<g id="Rules">
	<path class="Red" d="M10.4,18c-1.4-0.1-2.6-0.6-3.6-1.4l9.8-9.8c0.8,1,1.2,2.3,1.4,3.6c0.6-0.2,1.3-0.3,2-0.4C19.5,5.5,15.7,2,11,2
		c-5,0-9,4-9,9c0,4.7,3.5,8.5,8.1,8.9C10.1,19.3,10.3,18.6,10.4,18z M4,11c0-3.9,3.1-7,7-7c1.6,0,3,0.5,4.2,1.4l-9.8,9.8
		C4.5,14,4,12.6,4,11z"/>
	<path class="Green" d="M21,12c-5,0-9,4-9,9c0,5,4,9,9,9s9-4,9-9C30,16,26,12,21,12z M20,25l-4-4l1.4-1.4l2.6,2.6l5.6-5.6L27,18
		L20,25z"/>
</g>
</svg>
