<?xml version="1.0" encoding="utf-8"?>
<!-- Generator: Adobe Illustrator 22.1.0, SVG Export Plug-In . SVG Version: 6.00 Build 0)  -->
<svg version="1.1" id="Layer_1" xmlns="http://www.w3.org/2000/svg" xmlns:xlink="http://www.w3.org/1999/xlink" x="0px" y="0px"
	 viewBox="0 0 32 32" style="enable-background:new 0 0 32 32;" xml:space="preserve">
<style type="text/css">
	.Blue{fill:#1177D7;}
	.Yellow{fill:#FFB115;}
	.Red{fill:#D11C1C;}
	.Green{fill:#039C23;}
	.Black{fill:#727272;}
	.White{fill:#FFFFFF;}
	.st0{opacity:0.5;}
	.st1{opacity:0.75;}
	.st2{display:none;}
	.st3{display:inline;fill:#FFB115;}
	.st4{display:inline;}
	.st5{display:inline;opacity:0.75;}
	.st6{display:inline;opacity:0.5;}
	.st7{display:inline;fill:#039C23;}
	.st8{display:inline;fill:#D11C1C;}
	.st9{display:inline;fill:#1177D7;}
	.st10{display:inline;fill:#FFFFFF;}
</style>
<g id="Security_x5F_Permission">
	<path class="Yellow" d="M27,10h-3V8c0-4.4-3.6-8-8-8S8,3.6,8,8v2H5c-0.6,0-1,0.5-1,1v18c0,0.5,0.4,1,1,1h22c0.6,0,1-0.5,1-1V11
		C28,10.5,27.6,10,27,10z M18,24h-4l1.4-4.1c-0.8-0.3-1.4-1-1.4-1.9c0-1.1,0.9-2,2-2s2,0.9,2,2c0,0.9-0.6,1.6-1.4,1.9L18,24z M12,10
		V8c0-2.2,1.8-4,4-4s4,1.8,4,4v2H12z"/>
</g>
</svg>
