<?xml version="1.0" encoding="utf-8"?>
<!-- Generator: Adobe Illustrator 22.1.0, SVG Export Plug-In . SVG Version: 6.00 Build 0)  -->
<svg version="1.1" id="Layer_1" xmlns="http://www.w3.org/2000/svg" xmlns:xlink="http://www.w3.org/1999/xlink" x="0px" y="0px"
	 viewBox="0 0 32 32" style="enable-background:new 0 0 32 32;" xml:space="preserve">
<style type="text/css">
	.Blue{fill:#1177D7;}
	.Yellow{fill:#FFB115;}
	.Red{fill:#D11C1C;}
	.Green{fill:#039C23;}
	.Black{fill:#727272;}
	.White{fill:#FFFFFF;}
	.st0{opacity:0.5;}
	.st1{opacity:0.75;}
	.st2{display:none;}
	.st3{display:inline;fill:#FFB115;}
	.st4{display:inline;}
	.st5{display:inline;opacity:0.75;}
	.st6{display:inline;opacity:0.5;}
	.st7{display:inline;fill:#039C23;}
	.st8{display:inline;fill:#D11C1C;}
	.st9{display:inline;fill:#1177D7;}
	.st10{display:inline;fill:#FFFFFF;}
</style>
<g id="Sale">
	<path class="Black" d="M4,18V8H0V6h6v10h8.5c-0.5,0.6-0.9,1.3-1.3,2H4z M9,20c-1.7,0-3,1.3-3,3s1.3,3,3,3s3-1.3,3-3S10.7,20,9,20z"
		/>
	<path class="Green" d="M23,14c-5,0-9,4-9,9c0,5,4,9,9,9c5,0,9-4,9-9C32,18,28,14,23,14z M23,22c1.7,0,3,1.3,3,3
		c0,1.3-0.8,2.4-2,2.8V29h-2v-1.2c-1.2-0.4-2-1.5-2-2.8h2c0,0.6,0.4,1,1,1c0.6,0,1-0.4,1-1s-0.4-1-1-1c-1.7,0-3-1.3-3-3
		c0-1.3,0.8-2.4,2-2.8V17h2v1.2c1.2,0.4,2,1.5,2,2.8h-2c0-0.6-0.4-1-1-1c-0.6,0-1,0.4-1,1S22.4,22,23,22z"/>
	<path class="Yellow" d="M23,12c0.3,0,0.7,0,1,0.1V3c0-0.5-0.4-1-1-1H9C8.4,2,8,2.5,8,3v10c0,0.5,0.4,1,1,1h7.7
		C18.5,12.7,20.6,12,23,12z"/>
</g>
</svg>
