<?xml version="1.0" encoding="utf-8"?>
<!-- Generator: Adobe Illustrator 22.1.0, SVG Export Plug-In . SVG Version: 6.00 Build 0)  -->
<svg version="1.1" id="Layer_1" xmlns="http://www.w3.org/2000/svg" xmlns:xlink="http://www.w3.org/1999/xlink" x="0px" y="0px"
	 viewBox="0 0 32 32" style="enable-background:new 0 0 32 32;" xml:space="preserve">
<style type="text/css">
	.Blue{fill:#1177D7;}
	.Yellow{fill:#FFB115;}
	.Red{fill:#D11C1C;}
	.Green{fill:#039C23;}
	.Black{fill:#727272;}
	.White{fill:#FFFFFF;}
	.st0{opacity:0.5;}
	.st1{opacity:0.75;}
	.st2{display:none;}
	.st3{display:inline;fill:#FFB115;}
	.st4{display:inline;}
	.st5{display:inline;opacity:0.75;}
	.st6{display:inline;opacity:0.5;}
	.st7{display:inline;fill:#039C23;}
	.st8{display:inline;fill:#D11C1C;}
	.st9{display:inline;fill:#1177D7;}
	.st10{display:inline;fill:#FFFFFF;}
</style>
<g id="StateMachine">
	<path class="Black" d="M16,6h-2L4,22l2,2h18l2-2L16,6z M23.2,22H6.8l-0.3-0.3L15,8.2l8.5,13.5L23.2,22z"/>
	<path class="Blue" d="M5,28c-2.8,0-5-2.2-5-5s2.2-5,5-5s5,2.2,5,5S7.8,28,5,28z M30,23c0-2.8-2.2-5-5-5s-5,2.2-5,5s2.2,5,5,5
		S30,25.8,30,23z M20,7c0-2.8-2.2-5-5-5s-5,2.2-5,5s2.2,5,5,5S20,9.8,20,7z"/>
</g>
</svg>
