<?xml version="1.0" encoding="utf-8"?>
<!-- Generator: Adobe Illustrator 22.1.0, SVG Export Plug-In . SVG Version: 6.00 Build 0)  -->
<svg version="1.1" id="Layer_1" xmlns="http://www.w3.org/2000/svg" xmlns:xlink="http://www.w3.org/1999/xlink" x="0px" y="0px"
	 viewBox="0 0 32 32" style="enable-background:new 0 0 32 32;" xml:space="preserve">
<style type="text/css">
	.Blue{fill:#1177D7;}
	.Yellow{fill:#FFB115;}
	.Red{fill:#D11C1C;}
	.Green{fill:#039C23;}
	.Black{fill:#727272;}
	.White{fill:#FFFFFF;}
	.st0{opacity:0.5;}
	.st1{opacity:0.75;}
	.st2{display:none;}
	.st3{display:inline;fill:#FFB115;}
	.st4{display:inline;}
	.st5{display:inline;opacity:0.75;}
	.st6{display:inline;opacity:0.5;}
	.st7{display:inline;fill:#039C23;}
	.st8{display:inline;fill:#D11C1C;}
	.st9{display:inline;fill:#1177D7;}
	.st10{display:inline;fill:#FFFFFF;}
</style>
<g id="Skull">
	<path class="Black" d="M21.7,24c0.2,0.6,0.3,1.3,0.3,2c0,3.3-2.7,6-6,6s-6-2.7-6-6c0-0.7,0.1-1.4,0.3-2c0.8,2.3,3,4,5.7,4
		S20.8,26.3,21.7,24z M27.2,17.6c0.5,0.7,0.8,1.5,0.8,2.4c0,2.2-1.8,4-4,4c-1.1,0-2-0.4-2.7-1.1c-1,1.8-3,3.1-5.3,3.1
		s-4.2-1.3-5.3-3.1C10,23.6,9.1,24,8,24c-2.2,0-4-1.8-4-4c0-0.9,0.3-1.7,0.8-2.4C3.1,15.8,2,13.5,2,11C2,4.9,8.3,0,16,0
		s14,4.9,14,11C30,13.5,28.9,15.8,27.2,17.6z M13.3,12.7c-1.1-1.1-3-0.9-4.2,0.3s-1.4,3.2-0.3,4.2s3,0.9,4.2-0.3
		C14.2,15.7,14.4,13.8,13.3,12.7z M18,21c0-0.1,0-0.3-0.1-0.4L16,16l-1.9,4.6c0,0.1-0.1,0.2-0.1,0.4c0,0.6,0.4,1,1,1s1-0.4,1-1
		c0,0.6,0.4,1,1,1S18,21.6,18,21z M23,13c-1.3-1.3-3.2-1.4-4.2-0.3s-0.9,3,0.3,4.2c1.3,1.3,3.2,1.4,4.2,0.3S24.2,14.3,23,13z"/>
</g>
</svg>
