<?xml version="1.0" encoding="utf-8"?>
<!-- Generator: Adobe Illustrator 22.1.0, SVG Export Plug-In . SVG Version: 6.00 Build 0)  -->
<svg version="1.1" id="Layer_1" xmlns="http://www.w3.org/2000/svg" xmlns:xlink="http://www.w3.org/1999/xlink" x="0px" y="0px"
	 viewBox="0 0 32 32" style="enable-background:new 0 0 32 32;" xml:space="preserve">
<style type="text/css">
	.Blue{fill:#1177D7;}
	.Yellow{fill:#FFB115;}
	.Red{fill:#D11C1C;}
	.Green{fill:#039C23;}
	.Black{fill:#727272;}
	.White{fill:#FFFFFF;}
	.st0{opacity:0.5;}
	.st1{opacity:0.75;}
	.st2{display:none;}
	.st3{display:inline;fill:#FFB115;}
	.st4{display:inline;}
	.st5{display:inline;opacity:0.75;}
	.st6{display:inline;opacity:0.5;}
	.st7{display:inline;fill:#039C23;}
	.st8{display:inline;fill:#D11C1C;}
	.st9{display:inline;fill:#1177D7;}
	.st10{display:inline;fill:#FFFFFF;}
</style>
<g id="Navigation">
	<path class="Blue" d="M14.8,28c-0.3,0-0.5,0-0.8,0C6.3,28,0,21.7,0,14S6.3,0,14,0s14,6.3,14,14c0,0.3,0,0.5,0,0.8
		c-0.6-0.3-1.3-0.5-2-0.6c0-0.1,0-0.1,0-0.2c0-6.6-5.4-12-12-12S2,7.4,2,14c0,6.6,5.4,12,12,12c0.1,0,0.1,0,0.2,0
		C14.3,26.7,14.5,27.3,14.8,28z M15.4,15.4C15.1,15.8,14.6,16,14,16c-1.1,0-2-0.9-2-2c0-0.6,0.2-1.1,0.6-1.4L10,10L6,22l9.4-3.1
		c0.4-0.7,0.9-1.4,1.5-1.9L15.4,15.4z"/>
	<path class="Green" d="M24,16c-4.4,0-8,3.6-8,8s3.6,8,8,8s8-3.6,8-8S28.4,16,24,16z M22.5,28L19,24.5l1.5-1.5l2,2l5-5l1.5,1.5
		L22.5,28z"/>
	<path class="Red" d="M16,14c0,0.6-0.2,1.1-0.6,1.4l1.5,1.5c0.6-0.6,1.2-1.1,1.9-1.5L22,6l-12,4l2.6,2.6C13,12.2,13.5,12,14,12
		C15.1,12,16,12.9,16,14z"/>
</g>
</svg>
