<?xml version="1.0" encoding="utf-8"?>
<!-- Generator: Adobe Illustrator 22.1.0, SVG Export Plug-In . SVG Version: 6.00 Build 0)  -->
<svg version="1.1" id="Layer_1" xmlns="http://www.w3.org/2000/svg" xmlns:xlink="http://www.w3.org/1999/xlink" x="0px" y="0px"
	 viewBox="0 0 32 32" style="enable-background:new 0 0 32 32;" xml:space="preserve">
<style type="text/css">
	.Blue{fill:#1177D7;}
	.Yellow{fill:#FFB115;}
	.Red{fill:#D11C1C;}
	.Green{fill:#039C23;}
	.Black{fill:#727272;}
	.White{fill:#FFFFFF;}
	.st0{opacity:0.5;}
	.st1{opacity:0.75;}
	.st2{display:none;}
	.st3{display:inline;fill:#FFB115;}
	.st4{display:inline;}
	.st5{display:inline;opacity:0.75;}
	.st6{display:inline;opacity:0.5;}
	.st7{display:inline;fill:#039C23;}
	.st8{display:inline;fill:#D11C1C;}
	.st9{display:inline;fill:#1177D7;}
	.st10{display:inline;fill:#FFFFFF;}
</style>
<g id="Security_x5F_Permission_x5F_Member">
	<path class="Black" d="M18,6h4v6.2c-0.7,0.1-1.4,0.4-2,0.6V8h-2V6z M14.8,18H2V4h22v8c0.7,0,1.4,0.1,2,0.2V3c0-0.5-0.5-1-1-1H1
		C0.5,2,0,2.5,0,3v16c0,0.5,0.5,1,1,1h13.2C14.3,19.3,14.6,18.6,14.8,18z M8,8V6H4v10h4v-2H6V8H8z"/>
	<path class="Green" d="M24,14c-4.4,0-8,3.6-8,8s3.6,8,8,8s8-3.6,8-8S28.4,14,24,14z M22.5,26L19,22.5l1.5-1.5l2,2l5-5l1.5,1.5
		L22.5,26z"/>
</g>
</svg>
