<?xml version="1.0" encoding="utf-8"?>
<!-- Generator: Adobe Illustrator 22.1.0, SVG Export Plug-In . SVG Version: 6.00 Build 0)  -->
<svg version="1.1" id="Layer_1" xmlns="http://www.w3.org/2000/svg" xmlns:xlink="http://www.w3.org/1999/xlink" x="0px" y="0px"
	 viewBox="0 0 32 32" style="enable-background:new 0 0 32 32;" xml:space="preserve">
<style type="text/css">
	.Blue{fill:#1177D7;}
	.Yellow{fill:#FFB115;}
	.Red{fill:#D11C1C;}
	.Green{fill:#039C23;}
	.Black{fill:#727272;}
	.White{fill:#FFFFFF;}
	.st0{opacity:0.5;}
	.st1{opacity:0.75;}
	.st2{display:none;}
	.st3{display:inline;fill:#FFB115;}
	.st4{display:inline;}
	.st5{display:inline;opacity:0.75;}
	.st6{display:inline;opacity:0.5;}
	.st7{display:inline;fill:#039C23;}
	.st8{display:inline;fill:#D11C1C;}
	.st9{display:inline;fill:#1177D7;}
	.st10{display:inline;fill:#FFFFFF;}
</style>
<g id="Security_x5F_Permission_x5F_Type">
	<g class="st1">
		<path class="Blue" d="M18,14V8H4v14h10C14,18.7,15.6,15.8,18,14z"/>
	</g>
	<g class="st0">
		<polygon class="Blue" points="8,2 4,6 18.6,6 22.6,2 		"/>
	</g>
	<path class="Blue" d="M24,12V3.4l-4,4v5.4C21.2,12.3,22.6,12,24,12z"/>
	<path class="Green" d="M24,14c-4.4,0-8,3.6-8,8s3.6,8,8,8s8-3.6,8-8S28.4,14,24,14z M22.5,26L19,22.5l1.5-1.5l2,2l5-5l1.5,1.5
		L22.5,26z"/>
</g>
</svg>
