<?xml version="1.0" encoding="utf-8"?>
<!-- Generator: Adobe Illustrator 22.1.0, SVG Export Plug-In . SVG Version: 6.00 Build 0)  -->
<svg version="1.1" id="Layer_1" xmlns="http://www.w3.org/2000/svg" xmlns:xlink="http://www.w3.org/1999/xlink" x="0px" y="0px"
	 viewBox="0 0 32 32" style="enable-background:new 0 0 32 32;" xml:space="preserve">
<style type="text/css">
	.Blue{fill:#1177D7;}
	.Yellow{fill:#FFB115;}
	.Red{fill:#D11C1C;}
	.Green{fill:#039C23;}
	.Black{fill:#727272;}
	.White{fill:#FFFFFF;}
	.st0{opacity:0.5;}
	.st1{opacity:0.75;}
	.st2{display:none;}
	.st3{display:inline;fill:#FFB115;}
	.st4{display:inline;}
	.st5{display:inline;opacity:0.75;}
	.st6{display:inline;opacity:0.5;}
	.st7{display:inline;fill:#039C23;}
	.st8{display:inline;fill:#D11C1C;}
	.st9{display:inline;fill:#1177D7;}
	.st10{display:inline;fill:#FFFFFF;}
</style>
<g id="Sale_x5F_Item">
	<g class="st1">
		<path class="Yellow" d="M2,12v18h18V12H2z M11,20c1.7,0,3,1.3,3,3c0,1.3-0.8,2.4-2,2.8V27h-2v-1.2c-1.2-0.4-2-1.5-2-2.8h2
			c0,0.6,0.4,1,1,1c0.6,0,1-0.4,1-1s-0.4-1-1-1c-1.7,0-3-1.3-3-3c0-1.3,0.8-2.4,2-2.8V15h2v1.2c1.2,0.4,2,1.5,2,2.8h-2
			c0-0.6-0.4-1-1-1c-0.6,0-1,0.4-1,1S10.4,20,11,20z"/>
	</g>
	<polygon class="Yellow" points="22,11.4 22,30 30,22 30,3.4 	"/>
	<g class="st0">
		<path class="Yellow" d="M9.9,10H2l8-8h7.9L9.9,10z M20.7,2l-8,8h7.9l8-8H20.7z"/>
	</g>
</g>
</svg>
