<?xml version="1.0" encoding="utf-8"?>
<!-- Generator: Adobe Illustrator 22.1.0, SVG Export Plug-In . SVG Version: 6.00 Build 0)  -->
<svg version="1.1" id="Layer_1" xmlns="http://www.w3.org/2000/svg" xmlns:xlink="http://www.w3.org/1999/xlink" x="0px" y="0px"
	 viewBox="0 0 32 32" style="enable-background:new 0 0 32 32;" xml:space="preserve">
<style type="text/css">
	.Blue{fill:#1177D7;}
	.Yellow{fill:#FFB115;}
	.Red{fill:#D11C1C;}
	.Green{fill:#039C23;}
	.Black{fill:#727272;}
	.White{fill:#FFFFFF;}
	.st0{opacity:0.5;}
	.st1{opacity:0.75;}
	.st2{display:none;}
	.st3{display:inline;fill:#FFB115;}
	.st4{display:inline;}
	.st5{display:inline;opacity:0.75;}
	.st6{display:inline;opacity:0.5;}
	.st7{display:inline;fill:#039C23;}
	.st8{display:inline;fill:#D11C1C;}
	.st9{display:inline;fill:#1177D7;}
	.st10{display:inline;fill:#FFFFFF;}
</style>
<g id="User">
	<path class="Black" d="M16.2,26H2v-1.5c0-7.5,5.7-5,8-8.5c0.8,1.5,2.1,4,4,4s3.2-2.5,4-4c0.7,1,1.7,1.5,2.7,1.9l0,0
		c-0.5,0.9-0.7,2-0.7,3.1c0,0.4,0,0.7,0.1,1.1L16.2,26L16.2,26z M9.3,10.9c0,0,0,0.1,0,0.2c0.6,2.3,2,4.9,4.7,4.9s4.2-2.6,4.7-4.9
		V11c1,0.1,0.6-1.1,0.9-1.6C19.8,8.9,20,8.5,19.9,8c-0.1-0.4-0.4-0.4-0.5-0.3C21.2,2.8,18.3,3,18.3,3S18,0,12.8,0C8,0,7.4,4,8.5,7.6
		C8.4,7.6,8.1,7.7,8,7.9C7.9,8.4,8.2,8.8,8.4,9.3C8.6,9.8,8.3,11,9.3,10.9z"/>
	<path class="Yellow" d="M27,16c-2.8,0-5,2.2-5,5c0,0.6,0.1,1.2,0.3,1.7L16,29v3h4v-2h2v-2h2l2.1-2.1C26.4,26,26.7,26,27,26
		c2.8,0,5-2.2,5-5S29.8,16,27,16z M27,22c-0.6,0-1-0.4-1-1c0-0.6,0.4-1,1-1s1,0.4,1,1C28,21.6,27.6,22,27,22z"/>
</g>
</svg>
