<?xml version="1.0" encoding="utf-8"?>
<!-- Generator: Adobe Illustrator 22.1.0, SVG Export Plug-In . SVG Version: 6.00 Build 0)  -->
<svg version="1.1" id="Layer_1" xmlns="http://www.w3.org/2000/svg" xmlns:xlink="http://www.w3.org/1999/xlink" x="0px" y="0px"
	 viewBox="0 0 32 32" style="enable-background:new 0 0 32 32;" xml:space="preserve">
<style type="text/css">
	.Blue{fill:#1177D7;}
	.Yellow{fill:#FFB115;}
	.Red{fill:#D11C1C;}
	.Green{fill:#039C23;}
	.Black{fill:#727272;}
	.White{fill:#FFFFFF;}
	.st0{opacity:0.5;}
	.st1{opacity:0.75;}
	.st2{display:none;}
	.st3{display:inline;fill:#FFB115;}
	.st4{display:inline;}
	.st5{display:inline;opacity:0.75;}
	.st6{display:inline;opacity:0.5;}
	.st7{display:inline;fill:#039C23;}
	.st8{display:inline;fill:#D11C1C;}
	.st9{display:inline;fill:#1177D7;}
	.st10{display:inline;fill:#FFFFFF;}
</style>
<g id="Unknown">
	<path class="Yellow" d="M28,17v-4l-4.4-0.6c-0.2-0.6-0.4-1.1-0.7-1.6l2.7-3.6l-2.8-2.8l-3.6,2.7c-0.5-0.3-1-0.5-1.6-0.7L17,2h-4
		l-0.6,4.4c-0.6,0.2-1.1,0.4-1.6,0.7L7.2,4.4L4.4,7.2l2.7,3.6c-0.3,0.5-0.5,1-0.7,1.6L2,13v4l4.4,0.6c0.2,0.6,0.4,1.1,0.7,1.6
		l-2.7,3.6l2.8,2.8l3.6-2.7c0.5,0.3,1,0.5,1.6,0.7L13,28h4l0.6-4.4c0.6-0.2,1.1-0.4,1.6-0.7l3.6,2.7l2.8-2.8l-2.7-3.6
		c0.3-0.5,0.5-1,0.7-1.6L28,17z M16,20h-2v-2h2V20z M17.8,13.7c-0.1,0.3-0.2,0.5-0.4,0.7c-0.2,0.2-0.3,0.4-0.5,0.5
		c-0.2,0.1-0.4,0.3-0.5,0.4c-0.2,0.1-0.3,0.3-0.4,0.5c-0.1,0.2-0.2,0.4-0.2,0.7V17h-1.7v-0.6c0-0.4,0.1-0.7,0.2-1
		c0.1-0.3,0.2-0.5,0.4-0.7c0.1-0.2,0.3-0.3,0.5-0.5c0.2-0.1,0.3-0.3,0.5-0.4c0.1-0.1,0.3-0.3,0.3-0.4c0.1-0.2,0.1-0.4,0.1-0.6
		c0-0.4-0.1-0.7-0.3-0.9c-0.2-0.2-0.4-0.3-0.8-0.3c-0.2,0-0.4,0-0.6,0.1c-0.2,0.1-0.3,0.2-0.4,0.4c-0.1,0.2-0.2,0.3-0.2,0.6
		c0,0.1,0,0.2,0,0.3H12c0-0.4,0.1-0.7,0.2-1c0.1-0.4,0.3-0.8,0.6-1.1c0.3-0.3,0.6-0.5,0.9-0.7c0.4-0.2,0.8-0.3,1.2-0.3
		c0.6,0,1.1,0.1,1.5,0.3c0.4,0.2,0.7,0.4,0.9,0.7c0.2,0.3,0.4,0.5,0.5,0.8c0.1,0.3,0.2,0.6,0.2,0.8C18,13,17.9,13.4,17.8,13.7z"/>
</g>
</svg>
