<?xml version="1.0" encoding="utf-8"?>
<!-- Generator: Adobe Illustrator 22.1.0, SVG Export Plug-In . SVG Version: 6.00 Build 0)  -->
<svg version="1.1" id="Layer_1" xmlns="http://www.w3.org/2000/svg" xmlns:xlink="http://www.w3.org/1999/xlink" x="0px" y="0px"
	 viewBox="0 0 32 32" style="enable-background:new 0 0 32 32;" xml:space="preserve">
<style type="text/css">
	.Blue{fill:#1177D7;}
	.Yellow{fill:#FFB115;}
	.Red{fill:#D11C1C;}
	.Green{fill:#039C23;}
	.Black{fill:#727272;}
	.White{fill:#FFFFFF;}
	.st0{opacity:0.5;}
	.st1{opacity:0.75;}
	.st2{display:none;}
	.st3{display:inline;fill:#FFB115;}
	.st4{display:inline;}
	.st5{display:inline;opacity:0.75;}
	.st6{display:inline;opacity:0.5;}
	.st7{display:inline;fill:#039C23;}
	.st8{display:inline;fill:#D11C1C;}
	.st9{display:inline;fill:#1177D7;}
	.st10{display:inline;fill:#FFFFFF;}
</style>
<g id="WorkflowDefinition">
	<path class="Blue" d="M17,8H9C8.4,8,8,7.6,8,7V1c0-0.6,0.4-1,1-1h8c0.5,0,1,0.4,1,1v6C18,7.6,17.5,8,17,8z M10,21v-6
		c0-0.6-0.4-1-1-1H1c-0.6,0-1,0.4-1,1v6c0,0.5,0.4,1,1,1h8C9.6,22,10,21.5,10,21z"/>
	<g class="st1">
		<path class="Black" d="M6,12h13.2l2-2c0,0-0.1,0-0.1,0h-7V8h-2v2H5c-0.6,0-1,0.4-1,1v3h2V12z"/>
	</g>
	<path class="Yellow" d="M4,30h26V4L4,30z M24,24h-5.5l5.5-5.5V24z"/>
</g>
</svg>
