<?xml version="1.0" encoding="utf-8"?>
<!-- Generator: Adobe Illustrator 19.1.0, SVG Export Plug-In . SVG Version: 6.00 Build 0)  -->
<svg version="1.1" id="Layer_1" xmlns="http://www.w3.org/2000/svg" xmlns:xlink="http://www.w3.org/1999/xlink" x="0px" y="0px"
	 viewBox="0 0 32 32" enable-background="new 0 0 32 32" xml:space="preserve">
<path opacity="0.3" enable-background="new    " d="M18,18v14h14V18H18z M30,30H20V20h10V30z"/>
<path opacity="0.3" enable-background="new    " d="M0,0v14h14V0H0z M12,12H2V2h10V12z"/>
<polygon opacity="0.6" fill="#FFFFFF" enable-background="new    " points="18,18 24,18 24,8 14,8 14,14 8,14 8,24 18,24 "/>
<polygon fill="#3F79B4" points="18,18 26,18 26,6 14,6 14,14 6,14 6,26 18,26 "/>
<polygon opacity="0.7" fill="#FFFFFF" points="18,18 24,18 24,8 14,8 14,14 8,14 8,24 18,24 "/>
</svg>
