<?xml version="1.0" encoding="utf-8"?>
<!-- Generator: Adobe Illustrator 19.1.1, SVG Export Plug-In . SVG Version: 6.00 Build 0)  -->
<svg version="1.1" id="Layer_1" xmlns="http://www.w3.org/2000/svg" xmlns:xlink="http://www.w3.org/1999/xlink" x="0px" y="0px"
	 viewBox="0 0 24 24" enable-background="new 0 0 24 24" xml:space="preserve">
<g>
	<polygon points="13,0 11,0 11,1 9,1 9,2 15,2 15,1 13,1 	"/>
</g>
<rect x="1" y="19" width="22" height="1"/>
<polygon points="8,24 6,24 8,20 10,20 "/>
<polygon points="16,24 18,24 16,20 14,20 "/>
<g>
	<path d="M22,3H2C1.4,3,1,3.4,1,4v14h22V4C23,3.5,22.5,3,22,3z M19,12l-2-2l-4,4l-4-4l-3,3l-1-1l4-4l4,4l3-3l-2-2h5V12z"/>
</g>
</svg>
