<?xml version="1.0" encoding="utf-8"?>
<!-- Generator: Adobe Illustrator 19.1.1, SVG Export Plug-In . SVG Version: 6.00 Build 0)  -->
<svg version="1.1" id="Layer_1" xmlns="http://www.w3.org/2000/svg" xmlns:xlink="http://www.w3.org/1999/xlink" x="0px" y="0px"
	 viewBox="0 0 48 48" enable-background="new 0 0 48 48" xml:space="preserve">
<path d="M35,27.3V20h-2v7.3c-0.6,0.3-1,1-1,1.7c0,1.1,0.9,2,2,2s2-0.9,2-2C36,28.3,35.6,27.6,35,27.3z"/>
<g>
	<path d="M26,9c0-1.1-0.9-2-2-2h-2v2c0,0.6-0.4,1-1,1h-2c-0.6,0-1-0.4-1-1V7H8v2c0,0.6-0.4,1-1,1H5c-0.6,0-1-0.4-1-1V7H2
		C0.9,7,0,7.9,0,9v5h26V9z"/>
	<path d="M5.5,9h1C6.8,9,7,8.8,7,8.5v-3C7,5.2,6.8,5,6.5,5h-1C5.2,5,5,5.2,5,5.5v3C5,8.8,5.2,9,5.5,9z"/>
	<path d="M19.5,9h1C20.8,9,21,8.8,21,8.5v-3C21,5.2,20.8,5,20.5,5h-1C19.2,5,19,5.2,19,5.5v3C19,8.8,19.2,9,19.5,9z"/>
	<path d="M26,15.2V15h-1H12H0v16c0,1.1,0.9,2,2,2h3h3h1h1h2h5h1.5c-0.3-1.3-0.5-2.6-0.5-4C18,23.1,21.2,17.9,26,15.2z"/>
</g>
<path d="M43.1,18.4l0.3-0.4c1.1-0.2,1.9-1.3,1.6-2.4c-0.2-0.7-0.8-1.3-1.5-1.5c-1.3-0.3-2.4,0.7-2.4,2c0,0.1,0,0.2,0,0.3l-0.3,0.5
	c-1.2-0.6-2.4-1.1-3.7-1.4V14h0c1.1,0,2-0.9,2-2v0c0-1.1-0.9-2-2-2h-6c-1.1,0-2,0.9-2,2v0c0,1.1,0.9,2,2,2h0v1.3
	c-6.7,1.5-11.7,7.8-10.9,15.1c0.7,6.8,6.4,12.2,13.2,12.6c8,0.4,14.7-6,14.7-14C48,24.7,46.1,20.9,43.1,18.4z M34,40
	c-6.1,0-11-4.9-11-11s4.9-11,11-11s11,4.9,11,11S40.1,40,34,40z"/>
</svg>
