<?xml version="1.0" encoding="utf-8"?>
<!-- Generator: Adobe Illustrator 19.1.1, SVG Export Plug-In . SVG Version: 6.00 Build 0)  -->
<svg version="1.1" id="Layer_1" xmlns="http://www.w3.org/2000/svg" xmlns:xlink="http://www.w3.org/1999/xlink" x="0px" y="0px"
	 viewBox="0 0 48 48" enable-background="new 0 0 48 48" xml:space="preserve">
<polygon points="3,29 3,24 8,24 "/>
<g>
	<polygon points="12,16 17,11 12,11 	"/>
	<path d="M31,39h-0.5H29v-5H19v5h-1.5H17c-0.5,0-1,0.5-1,1v0.5V41h16v-0.5V40C32,39.5,31.5,39,31,39z"/>
	<path d="M47,26h-6v2.2c2.3,0.6,3.9,2.7,4,5.2c0.1,3-2.4,5.6-5.4,5.6c-2.9,0.1-5.4-2.1-5.6-5h-4v4h2c0.5,0,1,0.5,1,1v1.5V41h14
		c0.6,0,1-0.4,1-1V27C48,26.4,47.6,26,47,26z"/>
	<path d="M36.1,34c0.3,1.9,2.1,3.4,4.2,2.9c1.3-0.3,2.4-1.3,2.7-2.6c0.4-1.7-0.5-3.3-1.9-4v2.6c0,0.6-0.5,1.1-1.1,1.1H36.1z"/>
	<path d="M2,38V23h6v9c0,0.6,0.4,1,1,1h30c0.6,0,1-0.4,1-1V8c0-0.6-0.4-1-1-1H9C8.4,7,8,7.4,8,8v13H1c-0.5,0-1,0.5-1,1v18
		c0,0.5,0.5,1,1,1h14v-2c0-0.5,0.5-1,1-1H2z M25,31h-2v-2h2V31z M11,10h26v17H11V10z"/>
</g>
</svg>
