<?xml version="1.0" encoding="utf-8"?>
<!-- Generator: Adobe Illustrator 19.1.1, SVG Export Plug-In . SVG Version: 6.00 Build 0)  -->
<svg version="1.1" id="Layer_1" xmlns="http://www.w3.org/2000/svg" xmlns:xlink="http://www.w3.org/1999/xlink" x="0px" y="0px"
	 viewBox="0 0 48 48" enable-background="new 0 0 48 48" xml:space="preserve">
<g>
	<circle cx="36.5" cy="23.5" r="4.5"/>
	<path d="M46,12H2c-1.1,0-2,0.9-2,2v18c0,1.1,0.9,2,2,2h1v0.9C3,35.5,3.5,36,4.1,36h3.6C8.4,36,9,35.4,9,34.7V34h30v0.9
		c0,0.6,0.5,1.1,1.1,1.1h3.5c0.8,0,1.4-0.6,1.4-1.4V34h1c1.1,0,2-0.9,2-2V14C48,12.9,47.1,12,46,12z M25,27H5v-7h20V27z M36.5,30
		c-3.6,0-6.5-2.9-6.5-6.5s2.9-6.5,6.5-6.5s6.5,2.9,6.5,6.5S40.1,30,36.5,30z"/>
	<rect x="7" y="22" width="16" height="3"/>
</g>
</svg>
