<?xml version="1.0" encoding="utf-8"?>
<!-- Generator: Adobe Illustrator 19.1.1, SVG Export Plug-In . SVG Version: 6.00 Build 0)  -->
<svg version="1.1" id="Layer_1" xmlns="http://www.w3.org/2000/svg" xmlns:xlink="http://www.w3.org/1999/xlink" x="0px" y="0px"
	 viewBox="0 0 48 48" enable-background="new 0 0 48 48" xml:space="preserve">
<g>
	<path d="M0,36c0,1.1,0.9,2,2,2h8V24H0V36z"/>
	<path d="M7,19c0,0.6-0.4,1-1,1H4c-0.6,0-1-0.4-1-1v-2H2c-1.1,0-2,0.9-2,2v4h10v-6H7V19z"/>
	<path d="M4.5,19h1C5.8,19,6,18.8,6,18.5v-3C6,15.2,5.8,15,5.5,15h-1C4.2,15,4,15.2,4,15.5v3C4,18.8,4.2,19,4.5,19z"/>
	<path d="M38,38h8c1.1,0,2-0.9,2-2V24H38V38z"/>
	<path d="M46,17h-1v2c0,0.6-0.4,1-1,1h-2c-0.6,0-1-0.4-1-1v-2h-3v6h10v-4C48,17.9,47.1,17,46,17z"/>
	<path d="M42.5,19h1c0.3,0,0.5-0.2,0.5-0.5v-3c0-0.3-0.2-0.5-0.5-0.5h-1c-0.3,0-0.5,0.2-0.5,0.5v3C42,18.8,42.2,19,42.5,19z"/>
	<path d="M16.5,14h1c0.3,0,0.5-0.2,0.5-0.5v-3c0-0.3-0.2-0.5-0.5-0.5h-1c-0.3,0-0.5,0.2-0.5,0.5v3C16,13.8,16.2,14,16.5,14z"/>
	<path d="M30.5,14h1c0.3,0,0.5-0.2,0.5-0.5v-3c0-0.3-0.2-0.5-0.5-0.5h-1c-0.3,0-0.5,0.2-0.5,0.5v3C30,13.8,30.2,14,30.5,14z"/>
	<path d="M11,36c0,1.1,0.9,2,2,2h22c1.1,0,2-0.9,2-2V20H11V36z M18.3,27.6l0.7-0.7c0.4-0.4,1-0.4,1.4,0l2.2,2.2l5.9-5.9
		c0.4-0.4,1-0.4,1.4,0l0.7,0.7c0.4,0.4,0.4,1,0,1.4l-7.3,7.3c-0.2,0.2-0.5,0.3-0.7,0.3c-0.3,0-0.5-0.1-0.7-0.3l-3.6-3.6
		C17.9,28.7,17.9,28,18.3,27.6z"/>
	<path d="M35,12h-2v2c0,0.6-0.4,1-1,1h-2c-0.6,0-1-0.4-1-1v-2H19v2c0,0.6-0.4,1-1,1h-2c-0.6,0-1-0.4-1-1v-2h-2c-1.1,0-2,0.9-2,2v5
		h26v-5C37,12.9,36.1,12,35,12z"/>
</g>
</svg>
