<?xml version="1.0" encoding="utf-8"?>
<!-- Generator: Adobe Illustrator 19.1.1, SVG Export Plug-In . SVG Version: 6.00 Build 0)  -->
<svg version="1.1" id="Layer_1" xmlns="http://www.w3.org/2000/svg" xmlns:xlink="http://www.w3.org/1999/xlink" x="0px" y="0px"
	 viewBox="0 0 48 48" enable-background="new 0 0 48 48" xml:space="preserve">
<g>
	<path d="M34,16c-7.7,0-14,6.3-14,14s6.3,14,14,14s14-6.3,14-14S41.7,16,34,16z M34,41c-6.1,0-11-4.9-11-11s4.9-11,11-11
		s11,4.9,11,11S40.1,41,34,41z"/>
	<path d="M18.9,12c1-0.7,0.7-4.1-0.9-6c-1.7-2-5.3-2.8-6.8-1.2C9.6,4.9,7.8,5.6,7,7C6.3,8.2,6,10.6,6.6,12c-0.5,0.2-0.8,1.1-0.5,2
		c0.4,1.1,0.4,2.1,1,2c0,0,0.1,0,0.2,0c0.2,1,0.4,2,0.7,3c0.4,2,3,4,5,4c0,0,0.1,0,0.1,0c2,0,4.5-2,5-4c0.2-1.1,0.5-2,0.7-3
		c0.1,0,0.1,0,0.2,0c0.6,0.1,0.6-0.9,1-2C20.3,12.8,19.7,11.6,18.9,12z"/>
	<path d="M17,24l-4,8l-4-8c-4.6,1.1-9,4.2-9,6v3c0,0.6,0.4,1,1,1h17.5c-0.3-1.3-0.5-2.6-0.5-4c0-1.9,0.3-3.6,0.9-5.3
		C18.4,24.4,18,24.2,17,24z"/>
	<path d="M40.5,24.6l-5.6,3.6C34.6,28.1,34.3,28,34,28c-0.3,0-0.5,0.1-0.8,0.2L30,26.1c-0.5-0.3-1.1-0.2-1.4,0.3
		c-0.3,0.5-0.2,1.1,0.3,1.4l3.1,2c0,0.1,0,0.1,0,0.2c0,1.1,0.9,2,2,2s2-0.9,2-2c0,0,0-0.1,0-0.1l5.6-3.6c0.5-0.3,0.6-0.9,0.3-1.4
		C41.6,24.4,41,24.3,40.5,24.6z"/>
	<path d="M26.6,17c-0.7-0.6-1.6-1-2.6-1c-2.2,0-4,1.8-4,4c0,1,0.4,1.9,1,2.6C22.3,20.2,24.2,18.3,26.6,17z"/>
	<path d="M47,22.6c0.6-0.7,1-1.6,1-2.6c0-2.2-1.8-4-4-4c-1,0-1.9,0.4-2.6,1C43.8,18.3,45.7,20.2,47,22.6z"/>
</g>
</svg>
