<?xml version="1.0" encoding="utf-8"?>
<!-- Generator: Adobe Illustrator 19.1.1, SVG Export Plug-In . SVG Version: 6.00 Build 0)  -->
<svg version="1.1" id="Layer_1" xmlns="http://www.w3.org/2000/svg" xmlns:xlink="http://www.w3.org/1999/xlink" x="0px" y="0px"
	 viewBox="0 0 48 48" enable-background="new 0 0 48 48" xml:space="preserve">
<g>
	<path d="M30,24h7v2h2v-3c0-0.5-0.4-1-1-1h-9c-0.5,0-1,0.5-1,1v3h2V24z"/>
</g>
<rect x="30" y="33" width="7" height="4"/>
<g>
	<path d="M47,26H20c-0.5,0-1,0.5-1,1v7h10v-2h9v2h10v-7C48,26.5,47.6,26,47,26z"/>
	<path d="M38,36v1v1h-9v-1v-1v-1H19v8c0,0.5,0.4,1,1,1h27c0.5,0,1-0.5,1-1v-8H38V36z"/>
</g>
<g>
	<path d="M18,24.3c-0.3-0.1-0.6-0.2-1-0.3l-4,8l-4-8c-4.6,1.1-9,4.2-9,6v3c0,0.6,0.4,1,1,1h16l0-8C17,25.3,17.4,24.6,18,24.3z"/>
	<path d="M6.1,14c0.4,1.1,0.4,2.1,1,2c0,0,0.1,0,0.2,0c0.2,1,0.4,2,0.7,3c0.4,2,3,4,5,4c0,0,0.1,0,0.1,0c2,0,4.5-2,5-4
		c0.2-1.1,0.5-2,0.7-3c0.1,0,0.1,0,0.2,0c0.6,0.1,0.6-0.9,1-2c0.4-1.2-0.1-2.4-1-2c1-0.7,0.7-4.1-0.9-6c-1.7-2-5.3-2.8-6.8-1.2
		C9.6,4.9,7.9,5.6,7,7C6.3,8.2,6,10.6,6.6,12C6.1,12.2,5.8,13.1,6.1,14z"/>
</g>
</svg>
