<?xml version="1.0" encoding="utf-8"?>
<!-- Generator: Adobe Illustrator 19.1.1, SVG Export Plug-In . SVG Version: 6.00 Build 0)  -->
<svg version="1.1" id="Layer_1" xmlns="http://www.w3.org/2000/svg" xmlns:xlink="http://www.w3.org/1999/xlink" x="0px" y="0px"
	 viewBox="0 0 48 48" enable-background="new 0 0 48 48" xml:space="preserve">
<g>
	<path d="M46,3H2C0.9,3,0,3.9,0,5v31c0,1.1,0.9,2,2,2h44c1.1,0,2-0.9,2-2V5C48,3.9,47.1,3,46,3z M25,36h-2v-2h2V36z M44,31
		c0,0.6-0.4,1-1,1H5c-0.6,0-1-0.4-1-1V8c0-0.6,0.4-1,1-1h38c0.6,0,1,0.4,1,1V31z"/>
	<polygon points="6,15 12,9 6,9 	"/>
	<path d="M35,43h-3v-4H16v4h-3c-0.5,0-1,0.5-1,1v1h4h16h4v-1C36,43.5,35.5,43,35,43z"/>
</g>
</svg>
