<?xml version="1.0" encoding="utf-8"?>
<!-- Generator: Adobe Illustrator 19.1.1, SVG Export Plug-In . SVG Version: 6.00 Build 0)  -->
<svg version="1.1" id="Layer_1" xmlns="http://www.w3.org/2000/svg" xmlns:xlink="http://www.w3.org/1999/xlink" x="0px" y="0px"
	 viewBox="0 0 24 24" enable-background="new 0 0 24 24" xml:space="preserve">
<g>
	<rect x="5" y="1" width="2" height="4"/>
	<rect x="17" y="1" width="2" height="4"/>
	<path d="M22,3h-2v2c0,0.6-0.4,1-1,1h-2c-0.6,0-1-0.4-1-1V3H8v2c0,0.6-0.4,1-1,1H5C4.4,6,4,5.6,4,5V3H2C1.4,3,1,3.4,1,4v3v1h22V7V4
		C23,3.4,22.6,3,22,3z"/>
	<path d="M1,11v11c0,0.6,0.4,1,1,1h20c0.6,0,1-0.4,1-1V11V9H1V11z M7.3,15c0.4-0.4,1-0.4,1.4,0l1.6,1.6l4.9-4.9c0.4-0.4,1-0.4,1.4,0
		c0.4,0.4,0.4,1,0,1.4l-5.6,5.6c-0.4,0.4-1,0.4-1.4,0c0,0,0,0,0,0c0,0-0.1,0-0.1-0.1l-2.2-2.2C6.9,16,6.9,15.4,7.3,15z"/>
</g>
</svg>
