<?xml version="1.0" encoding="utf-8"?>
<!-- Generator: Adobe Illustrator 19.1.1, SVG Export Plug-In . SVG Version: 6.00 Build 0)  -->
<svg version="1.1" id="Layer_1" xmlns="http://www.w3.org/2000/svg" xmlns:xlink="http://www.w3.org/1999/xlink" x="0px" y="0px"
	 viewBox="0 0 48 48" enable-background="new 0 0 48 48" xml:space="preserve">
<g>
	<path d="M18.9,12c1-0.7,0.7-4.1-0.9-6c-1.7-2-5.3-2.8-6.8-1.2C9.6,4.9,7.8,5.6,7,7C6.3,8.2,6,10.6,6.6,12c-0.5,0.2-0.8,1.1-0.5,2
		c0.4,1.1,0.4,2.1,1,2c0,0,0.1,0,0.2,0c0.2,1,0.4,2,0.7,3c0.4,2,3,4,5,4c0,0,0.1,0,0.1,0c2,0,4.5-2,5-4c0.2-1.1,0.5-2,0.7-3
		c0.1,0,0.1,0,0.2,0c0.6,0.1,0.6-0.9,1-2C20.3,12.8,19.7,11.6,18.9,12z"/>
	<path d="M17,24l-4,8l-4-8c-4.6,1.1-9,4.2-9,6v3c0,0.6,0.4,1,1,1h17.5c-0.3-1.3-0.5-2.6-0.5-4c0-1.9,0.3-3.6,0.9-5.3
		C18.4,24.4,18,24.2,17,24z"/>
</g>
<g>
	<path d="M34,16c-7.7,0-14,6.3-14,14c0,7.7,6.3,14,14,14s14-6.3,14-14C48,22.3,41.7,16,34,16z M32.3,27.7c0.3,0.2,1.1,0.5,2.6,0.9
		c1.5,0.4,2.6,0.8,3.2,1.4c0.6,0.5,0.9,1.3,0.9,2.3c0,1.1-0.4,2-1.2,2.7c-0.7,0.6-1.8,1-2.8,1.1V37h-2v-1.1c-2.6-0.4-3.6-2-4-2.9h3
		c0,0,0.9,0.9,2.1,0.8c0.7,0,1.3-0.1,1.7-0.4c0.2-0.2,0.4-0.5,0.4-0.8c0-0.2-0.1-0.4-0.2-0.6c-0.1-0.1-0.5-0.3-0.9-0.4
		c-2.3-0.5-3.7-1-4.3-1.5c-0.8-0.6-1.3-1.5-1.3-2.6c0-1,0.4-1.8,1.1-2.5c0.6-0.5,1.5-0.9,2.5-1V23h2v1.1c2.6,0.4,3.8,2,4,2.9h-3
		c0,0-0.5-0.8-2.1-0.8c-0.7,0-1.3,0.1-1.6,0.3c-0.2,0.2-0.3,0.4-0.3,0.6C32,27.4,32.1,27.5,32.3,27.7z"/>
</g>
</svg>
