<?xml version="1.0" encoding="utf-8"?>
<!-- Generator: Adobe Illustrator 19.1.1, SVG Export Plug-In . SVG Version: 6.00 Build 0)  -->
<svg version="1.1" id="Layer_1" xmlns="http://www.w3.org/2000/svg" xmlns:xlink="http://www.w3.org/1999/xlink" x="0px" y="0px"
	 viewBox="0 0 48 48" enable-background="new 0 0 48 48" xml:space="preserve">
<g>
	<path d="M26,9c0-1.1-0.9-2-2-2h-2v2c0,0.6-0.4,1-1,1h-2c-0.6,0-1-0.4-1-1V7H8v2c0,0.6-0.4,1-1,1H5c-0.6,0-1-0.4-1-1V7H2
		C0.9,7,0,7.9,0,9v5h26V9z"/>
	<path d="M5.5,9h1C6.8,9,7,8.8,7,8.5v-3C7,5.2,6.8,5,6.5,5h-1C5.2,5,5,5.2,5,5.5v3C5,8.8,5.2,9,5.5,9z"/>
	<path d="M19.5,9h1C20.8,9,21,8.8,21,8.5v-3C21,5.2,20.8,5,20.5,5h-1C19.2,5,19,5.2,19,5.5v3C19,8.8,19.2,9,19.5,9z"/>
	<path d="M26,15.2V15h-1H12H0v16c0,1.1,0.9,2,2,2h3h3h1h1h2h5h1.5c-0.3-1.3-0.5-2.6-0.5-4C18,23.1,21.2,17.9,26,15.2z"/>
</g>
<path d="M48,29c0-7.7-6.3-14-14-14s-14,6.3-14,14c0,7.4,5.7,13.4,13,14v-3c-5.6-0.5-10-5.2-10-11c0-6.1,4.9-11,11-11s11,4.9,11,11
	c0,3.5-1.7,6.7-4.3,8.7L37,34v9h9l-3.2-3.2C46,37.3,48,33.4,48,29z"/>
<circle cx="34" cy="30" r="2"/>
<path d="M34.5,30.2L34.5,30.2c-0.3,0.5-0.9,0.6-1.4,0.3l-4.2-2.7c-0.5-0.3-0.6-0.9-0.3-1.4l0,0c0.3-0.5,0.9-0.6,1.4-0.3l4.2,2.7
	C34.6,29.1,34.8,29.7,34.5,30.2z"/>
<path d="M34.6,29.6L34.6,29.6c0.3,0.5,0.9,0.6,1.4,0.3l5.7-3.7c0.5-0.3,0.6-0.9,0.3-1.4v0c-0.3-0.5-0.9-0.6-1.4-0.3l-5.7,3.7
	C34.4,28.6,34.3,29.2,34.6,29.6z"/>
</svg>
