<?xml version="1.0" encoding="utf-8"?>
<!-- Generator: Adobe Illustrator 19.1.1, SVG Export Plug-In . SVG Version: 6.00 Build 0)  -->
<svg version="1.1" id="Layer_1" xmlns="http://www.w3.org/2000/svg" xmlns:xlink="http://www.w3.org/1999/xlink" x="0px" y="0px"
	 viewBox="0 0 48 48" enable-background="new 0 0 48 48" xml:space="preserve">
<g>
	<path d="M18,23h8v-2v-2v-1v-3H0v16c0,1.1,0.9,2,2,2h3h3h1h1h6v-8C16,23.9,16.9,23,18,23z"/>
	<path d="M26,9c0-1.1-0.9-2-2-2h-2v2c0,0.6-0.4,1-1,1h-2c-0.6,0-1-0.4-1-1V7H8v2c0,0.6-0.4,1-1,1H5c-0.6,0-1-0.4-1-1V7H2
		C0.9,7,0,7.9,0,9v5h26V9z"/>
	<path d="M5.5,9h1C6.8,9,7,8.8,7,8.5v-3C7,5.2,6.8,5,6.5,5h-1C5.2,5,5,5.2,5,5.5v3C5,8.8,5.2,9,5.5,9z"/>
	<path d="M19.5,9h1C20.8,9,21,8.8,21,8.5v-3C21,5.2,20.8,5,20.5,5h-1C19.2,5,19,5.2,19,5.5v3C19,8.8,19.2,9,19.5,9z"/>
</g>
<g>
	<path d="M47,25H19c-0.5,0-1,0.5-1,1v16c0,0.5,0.5,1,1,1h28c0.5,0,1-0.5,1-1V26C48,25.5,47.5,25,47,25z M46,41H20V27h26V41z"/>
	<rect x="22" y="29" width="6" height="10"/>
	<rect x="30" y="29" width="6" height="10"/>
</g>
</svg>
