<?xml version="1.0" encoding="utf-8"?>
<!-- Generator: Adobe Illustrator 19.1.1, SVG Export Plug-In . SVG Version: 6.00 Build 0)  -->
<svg version="1.1" id="Layer_1" xmlns="http://www.w3.org/2000/svg" xmlns:xlink="http://www.w3.org/1999/xlink" x="0px" y="0px"
	 viewBox="-2 4 24 24" enable-background="new -2 4 24 24" xml:space="preserve">
<g>
	<path d="M5.4,13.1L5.4,13.1c0.3,0.8,0.4,1.5,0.6,2.3c0.4,1.4,2.4,3.6,4,3.6l0,0c1.6,0,3.6-1.8,3.9-3.3c0.2-0.8,0.4-1.7,0.5-2.5h0.1
		c0.5,0,0.5-0.7,0.8-1.5c0.3-0.8,0.1-1.5-0.3-1.7l0,0c0.1-0.4,0.1-1.4,0.1-1.8l0,0l0,0C15,7.3,14.6,6.3,14,5.6
		c-1.3-1.5-4.1-2.1-5.3-0.9C7.3,4.7,6,5.2,5.3,6.3C4.8,7.2,4.5,8.9,5,10c-0.5,0.1-0.6,0.9-0.4,1.6C4.9,12.4,4.9,13.1,5.4,13.1z"/>
	<path d="M13,20l-3,6l-3-6c-4.2,0.8-8,2.9-8,4.3V27c0,0.5,0.5,1,1,1h20c0.5,0,1-0.5,1-1v-2.7C21,22.9,17.2,20.8,13,20z"/>
</g>
</svg>
