<?xml version="1.0" encoding="utf-8"?>
<!-- Generator: Adobe Illustrator 19.1.1, SVG Export Plug-In . SVG Version: 6.00 Build 0)  -->
<svg version="1.1" id="Layer_1" xmlns="http://www.w3.org/2000/svg" xmlns:xlink="http://www.w3.org/1999/xlink" x="0px" y="0px"
	 viewBox="0 0 48 48" enable-background="new 0 0 48 48" xml:space="preserve">
<g>
	<path d="M47.9,40.9L34.7,13.7c-0.5-1-1.9-1-2.4,0l-13.2,27c-0.4,0.9,0.2,2.2,1.2,2.2h26.3C47.7,43,48.3,41.8,47.9,40.9z M33.5,37
		c-0.8,0-1.5-0.7-1.5-1.5s0.7-1.5,1.5-1.5s1.5,0.7,1.5,1.5S34.3,37,33.5,37z M34.3,32h-1.5L32,25.8c0-0.4,0.3-0.8,0.8-0.8h1.5
		c0.4,0,0.8,0.4,0.8,0.8L34.3,32z"/>
</g>
<g>
	<path d="M24,7h-2v2c0,0.6-0.4,1-1,1h-2c-0.6,0-1-0.4-1-1V7H8v2c0,0.6-0.4,1-1,1H5c-0.6,0-1-0.4-1-1V7H2C0.9,7,0,7.9,0,9v5h26V9
		C26,7.9,25.1,7,24,7z"/>
	<path d="M5.5,9h1C6.8,9,7,8.8,7,8.5v-3C7,5.2,6.8,5,6.5,5h-1C5.2,5,5,5.2,5,5.5v3C5,8.8,5.2,9,5.5,9z"/>
	<path d="M19.5,9h1C20.8,9,21,8.8,21,8.5v-3C21,5.2,20.8,5,20.5,5h-1C19.2,5,19,5.2,19,5.5v3C19,8.8,19.2,9,19.5,9z"/>
	<path d="M12,15H9H0v16c0,1.1,0.9,2,2,2h3h3h1h1h2h5h3l6-11v-6.8V15h-1H12z"/>
</g>
</svg>
