<?xml version="1.0" encoding="utf-8"?>
<!-- Generator: Adobe Illustrator 19.1.1, SVG Export Plug-In . SVG Version: 6.00 Build 0)  -->
<svg version="1.1" id="Layer_1" xmlns="http://www.w3.org/2000/svg" xmlns:xlink="http://www.w3.org/1999/xlink" x="0px" y="0px"
	 viewBox="-2 4 24 24" enable-background="new -2 4 24 24" xml:space="preserve">
<g>
	<circle cx="1" cy="25" r="2"/>
	<circle cx="13" cy="25" r="2"/>
	<path d="M13,19l2-9H-2l2,9H13z M10,12h1v5h-1V12z M8,12h1v5H8V12z M6,12h1v5H6V12z M4,12h1v5H4V12z M2,12h1v5H2V12z"/>
	<polygon points="17.4,5 13.5,20 -1,20 -1,22 15,22 15,22 15,22 15,22 18.9,7 22,7 22,5 	"/>
</g>
</svg>
