<?xml version="1.0" encoding="utf-8"?>
<!-- Generator: Adobe Illustrator 19.1.1, SVG Export Plug-In . SVG Version: 6.00 Build 0)  -->
<svg version="1.1" id="Layer_1" xmlns="http://www.w3.org/2000/svg" xmlns:xlink="http://www.w3.org/1999/xlink" x="0px" y="0px"
	 viewBox="9 -9 48 48" enable-background="new 9 -9 48 48" xml:space="preserve">
<g>
	<path d="M55,3H11C9.9,3,9,3.9,9,5v18c0,1.1,0.9,2,2,2h1v0.9c0,0.6,0.5,1.1,1.1,1.1h3.6c0.7,0,1.3-0.6,1.3-1.3V25h30v0.9
		c0,0.6,0.5,1.1,1.1,1.1h3.5c0.8,0,1.4-0.6,1.4-1.4V25h1c1.1,0,2-0.9,2-2V5C57,3.9,56.1,3,55,3z M16,20h-1V9h1V20z M19,20h-1V9h1V20
		z M22,20h-1V9h1V20z M25,20h-1V9h1V20z M28,20h-1V9h1V20z M31,20h-1V9h1V20z M44.5,21c-3.6,0-6.5-2.9-6.5-6.5S40.9,8,44.5,8
		s6.5,2.9,6.5,6.5S48.1,21,44.5,21z"/>
	<path d="M44.5,10C42,10,40,12,40,14.5s2,4.5,4.5,4.5s4.5-2,4.5-4.5S47,10,44.5,10z M42,12c0-0.6,0.4-1,1-1s1,0.4,1,1s-0.4,1-1,1
		S42,12.6,42,12z M45,18c-1.1,0-2-0.9-2-2s0.9-2,2-2s2,0.9,2,2S46.1,18,45,18z"/>
</g>
</svg>
