<?xml version="1.0" encoding="utf-8"?>
<!-- Generator: Adobe Illustrator 19.1.1, SVG Export Plug-In . SVG Version: 6.00 Build 0)  -->
<svg version="1.1" id="Layer_1" xmlns="http://www.w3.org/2000/svg" xmlns:xlink="http://www.w3.org/1999/xlink" x="0px" y="0px"
	 viewBox="0 0 48 48" enable-background="new 0 0 48 48" xml:space="preserve">
<path d="M48,33L34,19L20,33h8v9.2c0,0.4,0.3,0.8,0.8,0.8h9.5c0.4,0,0.8-0.3,0.8-0.8V33H48z"/>
<g>
	<path d="M0,31c0,1.1,0.9,2,2,2h3h3h1h1h7l9-9v-3v-1v-1v-1v-3H0V31z"/>
	<path d="M24,7h-2v2c0,0.6-0.4,1-1,1h-2c-0.6,0-1-0.4-1-1V7H8v2c0,0.6-0.4,1-1,1H5c-0.6,0-1-0.4-1-1V7H2C0.9,7,0,7.9,0,9v5h26V9
		C26,7.9,25.1,7,24,7z"/>
	<path d="M5.5,9h1C6.8,9,7,8.8,7,8.5v-3C7,5.2,6.8,5,6.5,5h-1C5.2,5,5,5.2,5,5.5v3C5,8.8,5.2,9,5.5,9z"/>
	<path d="M19.5,9h1C20.8,9,21,8.8,21,8.5v-3C21,5.2,20.8,5,20.5,5h-1C19.2,5,19,5.2,19,5.5v3C19,8.8,19.2,9,19.5,9z"/>
</g>
</svg>
