<?xml version="1.0" encoding="utf-8"?>
<!-- Generator: Adobe Illustrator 19.1.1, SVG Export Plug-In . SVG Version: 6.00 Build 0)  -->
<svg version="1.1" id="Layer_1" xmlns="http://www.w3.org/2000/svg" xmlns:xlink="http://www.w3.org/1999/xlink" x="0px" y="0px"
	 viewBox="0 0 48 48" enable-background="new 0 0 48 48" xml:space="preserve">
<g>
	<path d="M28,30l-4,7.2L20,30c-5.3,0.9-9,3.6-9,5.3v2.8c0,0.5,0.4,0.9,1,0.9h24c0.6,0,1-0.4,1-0.9v-2.8C37,33.6,33.3,30.9,28,30z"/>
	<path d="M17.1,19c0.4,1.1,0.4,2.1,1,2c0,0,0.1,0,0.2,0c0.2,1,0.4,2,0.7,3c0.4,2,3,4,5,4c0,0,0.1,0,0.1,0c2,0,4.5-2,5-4
		c0.2-1.1,0.5-2,0.7-3c0.1,0,0.1,0,0.2,0c0.6,0.1,0.6-0.9,1-2c0.4-1.2-0.1-2.4-1-2c1-0.7,0.7-4.1-0.9-6c-1.7-2-5.3-2.8-6.8-1.2
		c-1.6,0-3.3,0.7-4.2,2.2c-0.7,1.2-1,3.5-0.4,4.9C17.1,17.2,16.8,18.1,17.1,19z"/>
	<path d="M0,36.1V38c0,0.6,0.4,1,1,1h9l-3-7C3.1,32.7,0,34.8,0,36.1z"/>
	<path d="M13.6,28.1c0.2-0.8,0.3-1.5,0.5-2.2c0,0,0.1,0,0.1,0c0.5,0,0.4-0.7,0.7-1.5c0.3-0.8,0-1.7-0.6-1.5c0.4-1.2,0.2-3.3-0.7-4.4
		c-1.2-1.5-3.8-2-4.9-0.9c-1.2,0-2.4,0.6-3,1.6c-0.5,0.9-0.7,2.5-0.3,3.6C5,23,4.9,23.7,5.1,24.3c0.3,0.8,0.3,1.5,0.7,1.5
		c0,0,0.1,0,0.1,0c0.2,0.7,0.3,1.4,0.5,2.2c0.3,1.4,2.1,3,3.6,3c0,0,0,0,0,0C11.5,31,13.3,29.5,13.6,28.1z"/>
	<path d="M41,32L38,39h9c0.5,0,1-0.4,1-1v-1.9C48,34.8,45,32.7,41,32z"/>
	<path d="M41.6,28c0.2-0.8,0.3-1.4,0.5-2.2c0,0,0.1,0,0.1,0c0.5,0,0.4-0.7,0.7-1.5c0.2-0.7,0.1-1.4-0.3-1.5c0.4-1,0.2-2.7-0.3-3.6
		c-0.6-1.1-1.8-1.6-3-1.6c-1.1-1.1-3.7-0.6-4.9,0.9c-0.9,1.1-1.1,3.2-0.7,4.4c-0.6-0.2-0.9,0.7-0.6,1.5c0.3,0.8,0.3,1.5,0.7,1.5
		c0,0,0.1,0,0.1,0c0.2,0.7,0.3,1.5,0.5,2.2c0.3,1.4,2.1,2.9,3.6,2.9c0,0,0,0,0,0C39.5,31,41.3,29.4,41.6,28z"/>
</g>
</svg>
