<?xml version="1.0" encoding="utf-8"?>
<!-- Generator: Adobe Illustrator 19.1.1, SVG Export Plug-In . SVG Version: 6.00 Build 0)  -->
<svg version="1.1" id="Layer_1" xmlns="http://www.w3.org/2000/svg" xmlns:xlink="http://www.w3.org/1999/xlink" x="0px" y="0px"
	 viewBox="0 0 24 24" enable-background="new 0 0 24 24" xml:space="preserve">
<g>
	<path d="M13,16h-2c-0.6,0-1,0.4-1,1v5c0,0.6,0.4,1,1,1h2c0.6,0,1-0.4,1-1v-5C14,16.4,13.6,16,13,16z"/>
	<path d="M18,11h-2c-0.6,0-1,0.4-1,1v10c0,0.6,0.4,1,1,1h2c0.6,0,1-0.4,1-1V12C19,11.4,18.6,11,18,11z"/>
	<path d="M23,6h-2c-0.6,0-1,0.4-1,1v15c0,0.6,0.4,1,1,1h2c0.6,0,1-0.4,1-1V7C24,6.4,23.6,6,23,6z"/>
</g>
<g>
	<path d="M11,15h3v-3c0-1.1,0.9-2,2-2h1c0-0.2,0-0.3,0-0.5C17,5,13.5,1.3,9,1v5c1.7,0.2,3,1.7,3,3.4c0,1.9-1.6,3.5-3.5,3.5
		c-1.8,0-3.2-1.3-3.4-3H0c0.3,4.5,3.9,8,8.5,8c0.2,0,0.3,0,0.5,0v-1C9,15.9,9.9,15,11,15z"/>
	<path d="M8,6.1V1C3.7,1.3,0.3,4.7,0,9h5C5.3,7.5,6.5,6.3,8,6.1z"/>
</g>
</svg>
