<?xml version="1.0" encoding="utf-8"?>
<!-- Generator: Adobe Illustrator 21.0.2, SVG Export Plug-In . SVG Version: 6.00 Build 0)  -->
<svg version="1.1" id="Print" xmlns="http://www.w3.org/2000/svg" xmlns:xlink="http://www.w3.org/1999/xlink" x="0px" y="0px"
	 viewBox="0 0 32 32" style="enable-background:new 0 0 32 32;" xml:space="preserve">
<style type="text/css">
	.Black{fill:#727272;}
	.Green{fill:#039C23;}
</style>
<path class="Green" d="M25,0c-3.9,0-7,3.1-7,7c0,3.9,3.1,7,7,7c3.9,0,7-3.1,7-7C32,3.1,28.9,0,25,0z M26,12h-2v-2h2V12z M27.9,5.5
	c-0.1,0.2-0.1,0.5-0.2,0.6c-0.1,0.2-0.2,0.3-0.3,0.5C27.2,6.8,27.1,6.9,27,7c-0.1,0.1-0.3,0.2-0.4,0.3c-0.1,0.1-0.3,0.2-0.4,0.3
	c-0.1,0.1-0.2,0.3-0.3,0.4c-0.1,0.2-0.1,0.3-0.2,0.5V9h-1.7V8.5c0-0.3,0.1-0.6,0.1-0.8c0.1-0.2,0.2-0.4,0.3-0.6
	c0.1-0.2,0.2-0.3,0.3-0.4c0.1-0.1,0.2-0.2,0.4-0.4c0.1-0.1,0.2-0.2,0.3-0.3c0.1-0.1,0.2-0.2,0.3-0.3c0.1-0.1,0.1-0.2,0.2-0.4
	c0-0.1,0.1-0.3,0.1-0.5c0-0.4-0.1-0.7-0.3-0.9c-0.2-0.2-0.4-0.3-0.8-0.3c-0.2,0-0.4,0-0.6,0.1C24.3,3.9,24.1,4,24,4.1
	c-0.1,0.2-0.2,0.3-0.2,0.6c0,0.1,0,0.2,0,0.3H22c0-0.4,0.1-0.7,0.2-1c0.1-0.4,0.3-0.8,0.6-1.1c0.3-0.3,0.6-0.5,0.9-0.7
	C24.1,2.1,24.5,2,24.9,2c0.6,0,1.1,0.1,1.5,0.3c0.4,0.2,0.7,0.4,0.9,0.7c0.2,0.3,0.4,0.6,0.5,0.9C27.9,4.1,28,4.4,28,4.7
	C28,5,28,5.3,27.9,5.5z"/>
<path class="Black" d="M16,20h-6v2h6V20z M16,24h-6v2h6V24z M25,16c-2.1,0-4.1-0.8-5.7-2H5c-0.6,0-1-0.4-1-1v-3H2c-1.1,0-2,0.9-2,2
	v10c0,1.1,0.9,2,2,2h4v6h14v-6h4c1.1,0,2-0.9,2-2v-6.1C25.7,16,25.3,16,25,16z M18,28H8V18h10V28z M8,4h8.5c0.3-0.7,0.6-1.4,1-2H6
	v10h2V4z"/>
</svg>
