<?xml version="1.0" encoding="utf-8"?>
<!-- Generator: Adobe Illustrator 21.1.0, SVG Export Plug-In . SVG Version: 6.00 Build 0)  -->
<svg version="1.1" id="Layer_1" xmlns="http://www.w3.org/2000/svg" xmlns:xlink="http://www.w3.org/1999/xlink" x="0px" y="0px"
	 viewBox="0 0 32 32" style="enable-background:new 0 0 32 32;" xml:space="preserve">
<style type="text/css">
	.Blue{fill:#1177D7;}
	.Yellow{fill:#FFB115;}
	.Black{fill:#727272;}
	.Green{fill:#039C23;}
	.Red{fill:#D11C1C;}
	.st0{opacity:0.75;}
	.st1{opacity:0.5;}
</style>
<g id="Calendar">
	<path class="Red" d="M29,4h-3v3c0,0.5-0.5,1-1,1h-4c-0.5,0-1-0.5-1-1V4h-8v3c0,0.5-0.5,1-1,1H7C6.5,8,6,7.5,6,7V4H3
		C2.4,4,2,4.4,2,5v5h28V5C30,4.4,29.6,4,29,4z"/>
	<g class="st1">
		<rect x="8" y="14" class="Black" width="4" height="4"/>
		<rect x="14" y="20" class="Black" width="4" height="4"/>
		<rect x="8" y="20" class="Black" width="4" height="4"/>
		<rect x="20" y="14" class="Black" width="4" height="4"/>
		<rect x="14" y="14" class="Black" width="4" height="4"/>
		<rect x="20" y="20" class="Black" width="4" height="4"/>
	</g>
	<path class="Black" d="M28,10v18H4V10H2v19c0,0.6,0.4,1,1,1h26c0.6,0,1-0.4,1-1V10H28z"/>
	<rect x="22" y="2" class="Black" width="2" height="4"/>
	<rect x="8" y="2" class="Black" width="2" height="4"/>
</g>
</svg>
