<?xml version="1.0" encoding="utf-8"?>
<!-- Generator: Adobe Illustrator 21.1.0, SVG Export Plug-In . SVG Version: 6.00 Build 0)  -->
<svg version="1.1" id="Layer_1" xmlns="http://www.w3.org/2000/svg" xmlns:xlink="http://www.w3.org/1999/xlink" x="0px" y="0px"
	 viewBox="0 0 32 32" style="enable-background:new 0 0 32 32;" xml:space="preserve">
<style type="text/css">
	.Blue{fill:#1177D7;}
	.Yellow{fill:#FFB115;}
	.Black{fill:#727272;}
	.Green{fill:#039C23;}
	.Red{fill:#D11C1C;}
	.st0{opacity:0.75;}
	.st1{opacity:0.5;}
</style>
<g id="Hyperlink">
	<path class="Black" d="M10.3,21.7c0.4,0.4,1,0.4,1.4,0l10-10c0.4-0.4,0.4-1,0-1.4c-0.4-0.4-1-0.4-1.4,0l-10,10
		C9.9,20.7,9.9,21.3,10.3,21.7z"/>
	<path class="Black" d="M15.4,19.5c0.5,1.1,0.3,2.5-0.6,3.4l-4.2,4.2c-1.2,1.2-3.1,1.2-4.2,0l-1.4-1.4c-1.2-1.2-1.2-3.1,0-4.2
		l4.2-4.2c0.9-0.9,2.3-1.1,3.4-0.6l1.5-1.5c-1.9-1.3-4.6-1.1-6.3,0.6l-4.2,4.2c-2,2-2,5.1,0,7.1l1.4,1.4c2,2,5.1,2,7.1,0l4.2-4.2
		c1.7-1.7,1.9-4.3,0.6-6.3L15.4,19.5z"/>
	<path class="Black" d="M28.5,4.9l-1.4-1.4c-2-2-5.1-2-7.1,0l-4.2,4.2c-1.7,1.7-1.9,4.3-0.6,6.3l1.5-1.5c-0.5-1.1-0.3-2.5,0.6-3.4
		l4.2-4.2c1.2-1.2,3.1-1.2,4.2,0l1.4,1.4c1.2,1.2,1.2,3.1,0,4.2l-4.2,4.2c-0.9,0.9-2.3,1.1-3.4,0.6L18,16.8c1.9,1.3,4.6,1.1,6.3-0.6
		l4.2-4.2C30.5,10,30.5,6.8,28.5,4.9z"/>
</g>
</svg>
