<?xml version="1.0" encoding="utf-8"?>
<!-- Generator: Adobe Illustrator 21.1.0, SVG Export Plug-In . SVG Version: 6.00 Build 0)  -->
<svg version="1.1" id="Layer_1" xmlns="http://www.w3.org/2000/svg" xmlns:xlink="http://www.w3.org/1999/xlink" x="0px" y="0px"
	 viewBox="0 0 32 32" style="enable-background:new 0 0 32 32;" xml:space="preserve">
<style type="text/css">
	.Blue{fill:#1177D7;}
	.Yellow{fill:#FFB115;}
	.Black{fill:#727272;}
	.Green{fill:#039C23;}
	.Red{fill:#D11C1C;}
	.st0{opacity:0.75;}
	.st1{opacity:0.5;}
</style>
<g id="Delete">
	<g>
		<path class="Red" d="M18.8,16l6.9-6.9c0.4-0.4,0.4-1,0-1.4l-1.4-1.4c-0.4-0.4-1-0.4-1.4,0L16,13.2L9.1,6.3c-0.4-0.4-1-0.4-1.4,0
			L6.3,7.7c-0.4,0.4-0.4,1,0,1.4l6.9,6.9l-6.9,6.9c-0.4,0.4-0.4,1,0,1.4l1.4,1.4c0.4,0.4,1,0.4,1.4,0l6.9-6.9l6.9,6.9
			c0.4,0.4,1,0.4,1.4,0l1.4-1.4c0.4-0.4,0.4-1,0-1.4L18.8,16z"/>
	</g>
	<g>
		<path class="Red" d="M18.8,16l6.9-6.9c0.4-0.4,0.4-1,0-1.4l-1.4-1.4c-0.4-0.4-1-0.4-1.4,0L16,13.2L9.1,6.3c-0.4-0.4-1-0.4-1.4,0
			L6.3,7.7c-0.4,0.4-0.4,1,0,1.4l6.9,6.9l-6.9,6.9c-0.4,0.4-0.4,1,0,1.4l1.4,1.4c0.4,0.4,1,0.4,1.4,0l6.9-6.9l6.9,6.9
			c0.4,0.4,1,0.4,1.4,0l1.4-1.4c0.4-0.4,0.4-1,0-1.4L18.8,16z"/>
	</g>
</g>
</svg>
