<?xml version="1.0" encoding="utf-8"?>
<!-- Generator: Adobe Illustrator 21.1.0, SVG Export Plug-In . SVG Version: 6.00 Build 0)  -->
<svg version="1.1" id="Layer_1" xmlns="http://www.w3.org/2000/svg" xmlns:xlink="http://www.w3.org/1999/xlink" x="0px" y="0px"
	 viewBox="0 0 32 32" style="enable-background:new 0 0 32 32;" xml:space="preserve">
<style type="text/css">
	.Blue{fill:#1177D7;}
	.Yellow{fill:#FFB115;}
	.Black{fill:#727272;}
	.Green{fill:#039C23;}
	.Red{fill:#D11C1C;}
	.st0{opacity:0.75;}
	.st1{opacity:0.5;}
</style>
<g id="Zoom">
	<path class="Black" d="M27.7,25.3L20.5,18c1-1.4,1.5-3.2,1.5-5c0-5-4-9-9-9s-9,4-9,9c0,5,4,9,9,9c1.9,0,3.6-0.6,5-1.5l7.3,7.3
		c0.3,0.3,0.9,0.3,1.2,0l1.2-1.2C28.1,26.2,28.1,25.6,27.7,25.3z M6,13c0-3.9,3.1-7,7-7s7,3.1,7,7c0,3.9-3.1,7-7,7S6,16.9,6,13z"/>
</g>
</svg>
