<?xml version="1.0" encoding="utf-8"?>
<!-- Generator: Adobe Illustrator 21.1.0, SVG Export Plug-In . SVG Version: 6.00 Build 0)  -->
<svg version="1.1" id="Layer_1" xmlns="http://www.w3.org/2000/svg" xmlns:xlink="http://www.w3.org/1999/xlink" x="0px" y="0px"
	 viewBox="0 0 32 32" style="enable-background:new 0 0 32 32;" xml:space="preserve">
<style type="text/css">
	.Blue{fill:#1177D7;}
	.Yellow{fill:#FFB115;}
	.Black{fill:#727272;}
	.Green{fill:#039C23;}
	.Red{fill:#D11C1C;}
	.st0{opacity:0.75;}
	.st1{opacity:0.5;}
</style>
<g id="Options_1_">
	<path class="Blue" d="M27.3,23.8l-8.2-8.2c0.6-1.1,0.9-2.3,0.9-3.7c0-4.4-3.6-8-8-8c-1.3,0-2.5,0.3-3.6,0.9l4.9,4.9
		c1,1,1,2.6,0,3.6c-1,1-2.6,1-3.6,0L4.9,8.4C4.3,9.5,4,10.7,4,12c0,4.4,3.6,8,8,8c1.3,0,2.6-0.3,3.7-0.9l8.2,8.2
		c0.9,0.9,2.5,0.9,3.4,0C28.2,26.3,28.2,24.8,27.3,23.8z"/>
</g>
</svg>
