<?xml version="1.0" encoding="utf-8"?>
<!-- Generator: Adobe Illustrator 21.1.0, SVG Export Plug-In . SVG Version: 6.00 Build 0)  -->
<svg version="1.1" id="Layer_1" xmlns="http://www.w3.org/2000/svg" xmlns:xlink="http://www.w3.org/1999/xlink" x="0px" y="0px"
	 viewBox="0 0 32 32" style="enable-background:new 0 0 32 32;" xml:space="preserve">
<style type="text/css">
	.Blue{fill:#1177D7;}
	.Yellow{fill:#FFB115;}
	.Black{fill:#727272;}
	.Green{fill:#039C23;}
	.Red{fill:#D11C1C;}
	.st0{opacity:0.75;}
	.st1{opacity:0.5;}
</style>
<g id="FolderClose">
	<g>
		<path class="Yellow" d="M27,10H14V7c0-0.5-0.5-1-1-1H5C4.5,6,4,6.5,4,7v18c0,0.5,0.5,1,1,1h22c0.5,0,1-0.5,1-1V11
			C28,10.5,27.5,10,27,10z"/>
	</g>
	<g>
		<path class="Yellow" d="M27,10H14V7c0-0.5-0.5-1-1-1H5C4.5,6,4,6.5,4,7v18c0,0.5,0.5,1,1,1h22c0.5,0,1-0.5,1-1V11
			C28,10.5,27.5,10,27,10z"/>
	</g>
</g>
</svg>
