<?xml version="1.0" encoding="utf-8"?>
<!-- Generator: Adobe Illustrator 21.1.0, SVG Export Plug-In . SVG Version: 6.00 Build 0)  -->
<svg version="1.1" id="Layer_1" xmlns="http://www.w3.org/2000/svg" xmlns:xlink="http://www.w3.org/1999/xlink" x="0px" y="0px"
	 viewBox="0 0 32 32" style="enable-background:new 0 0 32 32;" xml:space="preserve">
<style type="text/css">
	.Blue{fill:#1177D7;}
	.Yellow{fill:#FFB115;}
	.Black{fill:#727272;}
	.Green{fill:#039C23;}
	.Red{fill:#D11C1C;}
	.st0{opacity:0.75;}
	.st1{opacity:0.5;}
</style>
<g id="Database">
	<path class="Yellow" d="M16,24c-5.5,0-10-1.8-10-4v4c0,2.2,4.5,4,10,4s10-1.8,10-4v-4C26,22.2,21.5,24,16,24z"/>
	<path class="Yellow" d="M16,18c-5.5,0-10-1.8-10-4v4c0,2.2,4.5,4,10,4s10-1.8,10-4v-4C26,16.2,21.5,18,16,18z"/>
	<path class="Yellow" d="M16,4C10.5,4,6,5.8,6,8v4c0,2.2,4.5,4,10,4s10-1.8,10-4V8C26,5.8,21.5,4,16,4z"/>
</g>
</svg>
