<?xml version="1.0" encoding="utf-8"?>
<!-- Generator: Adobe Illustrator 21.1.0, SVG Export Plug-In . SVG Version: 6.00 Build 0)  -->
<svg version="1.1" id="Layer_1" xmlns="http://www.w3.org/2000/svg" xmlns:xlink="http://www.w3.org/1999/xlink" x="0px" y="0px"
	 viewBox="0 0 32 32" style="enable-background:new 0 0 32 32;" xml:space="preserve">
<style type="text/css">
	.Blue{fill:#1177D7;}
	.Yellow{fill:#FFB115;}
	.Black{fill:#727272;}
	.Green{fill:#039C23;}
	.Red{fill:#D11C1C;}
	.st0{opacity:0.75;}
	.st1{opacity:0.5;}
</style>
<g id="Cut">
	<path class="Black" d="M9,18c-2.8,0-5,2.2-5,5s2.2,5,5,5s5-2.2,5-5S11.8,18,9,18z M9,26c-1.7,0-3-1.3-3-3s1.3-3,3-3s3,1.3,3,3
		S10.7,26,9,26z"/>
	<polygon class="Black" points="20.7,14.8 26,4 17.4,11.6 	"/>
	<path class="Black" d="M23,18c-0.6,0-1.2,0.1-1.7,0.3L6,4l7,14l3,0l2.6,2.6C18.2,21.3,18,22.1,18,23c0,2.8,2.2,5,5,5
		c2.8,0,5-2.2,5-5C28,20.2,25.8,18,23,18z M23,26c-1.7,0-3-1.3-3-3c0-1.7,1.3-3,3-3s3,1.3,3,3C26,24.7,24.7,26,23,26z"/>
</g>
</svg>
