<?xml version="1.0" encoding="utf-8"?>
<!-- Generator: Adobe Illustrator 21.1.0, SVG Export Plug-In . SVG Version: 6.00 Build 0)  -->
<svg version="1.1" id="Layer_1" xmlns="http://www.w3.org/2000/svg" xmlns:xlink="http://www.w3.org/1999/xlink" x="0px" y="0px"
	 viewBox="0 0 32 32" style="enable-background:new 0 0 32 32;" xml:space="preserve">
<style type="text/css">
	.Blue{fill:#1177D7;}
	.Yellow{fill:#FFB115;}
	.Black{fill:#727272;}
	.Green{fill:#039C23;}
	.Red{fill:#D11C1C;}
	.st0{opacity:0.75;}
	.st1{opacity:0.5;}
</style>
<g id="Add">
	<path class="Green" d="M27,14h-9V5c0-0.5-0.5-1-1-1h-2c-0.5,0-1,0.5-1,1v9H5c-0.5,0-1,0.5-1,1v2c0,0.5,0.5,1,1,1h9v9
		c0,0.5,0.5,1,1,1h2c0.5,0,1-0.5,1-1v-9h9c0.5,0,1-0.5,1-1v-2C28,14.5,27.5,14,27,14z"/>
</g>
</svg>
