<?xml version="1.0" encoding="utf-8"?>
<!-- Generator: Adobe Illustrator 21.1.0, SVG Export Plug-In . SVG Version: 6.00 Build 0)  -->
<svg version="1.1" id="Layer_1" xmlns="http://www.w3.org/2000/svg" xmlns:xlink="http://www.w3.org/1999/xlink" x="0px" y="0px"
	 viewBox="0 0 32 32" style="enable-background:new 0 0 32 32;" xml:space="preserve">
<style type="text/css">
	.Blue{fill:#1177D7;}
	.Green{fill:#039C23;}
	.Yellow{fill:#FFB115;}
	.Black{fill:#727272;}
	.White{fill:#FFFFFF;}
	.Red{fill:#D11C1C;}
	.st0{opacity:0.75;}
</style>
<g id="Dollar_1_">
	<path class="Green" d="M25.2,17.5c-0.6-0.8-1.2-1.5-2-2c-0.8-0.5-1.6-0.9-2.3-1.1c-0.8-0.2-1.4-0.4-1.8-0.5
		c-0.3-0.1-0.7-0.2-0.9-0.2V8.4c0.2,0.1,0.3,0.1,0.4,0.2c0.4,0.3,0.8,0.6,1,1.1c0.3,0.4,0.4,1.2,0.4,2.3H25c0-1.9-0.3-3.1-0.8-4
		c-0.5-0.9-1.2-1.7-2.1-2.3c-0.9-0.6-1.9-1-3-1.3c-0.4-0.1-0.7-0.1-1-0.2V2h-4v2.1c-0.4,0.1-0.8,0.2-1.3,0.3c-1.1,0.3-2,0.7-2.9,1.3
		C9,6.3,8.3,7,7.8,7.9C7.3,8.7,7,9.8,7,10.9c0,1,0.2,1.9,0.6,2.7C8,14.4,8.6,15,9.2,15.5c0.7,0.5,1.4,0.9,2.3,1.2
		c0.8,0.3,1.7,0.6,2.5,0.8v6.3c-0.5-0.2-1-0.4-1.4-0.6c-0.5-0.3-0.9-0.8-1.1-1.3c-0.3-0.5-0.4-1.1-0.4-1.8H6c0,1.4,0.3,2.5,0.8,3.5
		c0.6,1,1.3,1.9,2.2,2.5c0.9,0.7,2,1.2,3.3,1.5c0.6,0.1,1.1,0.2,1.7,0.3V30h4v-2.1c0.9-0.1,1.7-0.2,2.4-0.4c1.2-0.4,2.3-0.9,3.1-1.5
		c0.8-0.7,1.5-1.4,1.9-2.3c0.4-0.9,0.6-1.9,0.6-2.9C26,19.4,25.7,18.3,25.2,17.5z M13.4,12.4c-0.5-0.2-0.9-0.5-1-0.8
		c-0.2-0.3-0.3-0.6-0.3-1.1c0-0.5,0.1-0.9,0.3-1.2c0.2-0.3,0.5-0.6,0.8-0.8c0.2-0.1,0.5-0.3,0.8-0.3v4.5
		C13.8,12.5,13.6,12.5,13.4,12.4z M20.5,22.7c-0.3,0.4-0.7,0.7-1.2,0.9c-0.4,0.2-0.9,0.3-1.3,0.4v-5.4c0.2,0.1,0.5,0.2,0.7,0.2
		c0.7,0.3,1.2,0.6,1.6,1c0.4,0.4,0.6,0.9,0.6,1.5C20.9,21.8,20.8,22.3,20.5,22.7z"/>
</g>
</svg>
