<?xml version="1.0" encoding="utf-8"?>
<!-- Generator: Adobe Illustrator 21.1.0, SVG Export Plug-In . SVG Version: 6.00 Build 0)  -->
<svg version="1.1" id="Layer_1" xmlns="http://www.w3.org/2000/svg" xmlns:xlink="http://www.w3.org/1999/xlink" x="0px" y="0px"
	 viewBox="0 0 32 32" style="enable-background:new 0 0 32 32;" xml:space="preserve">
<style type="text/css">
	.Blue{fill:#1177D7;}
	.Green{fill:#039C23;}
	.Yellow{fill:#FFB115;}
	.Black{fill:#727272;}
	.White{fill:#FFFFFF;}
	.Red{fill:#D11C1C;}
	.st0{opacity:0.75;}
</style>
<g id="Presentation">
	<path class="Black" d="M29,2H3C2.5,2,2,2.5,2,3v2c0,0.5,0.5,1,1,1h1v15c0,0.5,0.5,1,1,1h9v2.6l-3.7,3.7c-0.4,0.4-0.4,1,0,1.4
		s1,0.4,1.4,0l4.3-4.3l4.3,4.3c0.4,0.4,1,0.4,1.4,0s0.4-1,0-1.4L18,24.6V22h9c0.5,0,1-0.5,1-1V6h1c0.5,0,1-0.5,1-1V3
		C30,2.5,29.5,2,29,2z M26,20H6V6h20V20z"/>
</g>
</svg>
