<?xml version="1.0" encoding="utf-8"?>
<!-- Generator: Adobe Illustrator 21.1.0, SVG Export Plug-In . SVG Version: 6.00 Build 0)  -->
<svg version="1.1" id="Layer_1" xmlns="http://www.w3.org/2000/svg" xmlns:xlink="http://www.w3.org/1999/xlink" x="0px" y="0px"
	 viewBox="0 0 32 32" style="enable-background:new 0 0 32 32;" xml:space="preserve">
<style type="text/css">
	.Blue{fill:#1177D7;}
	.Green{fill:#039C23;}
	.Yellow{fill:#FFB115;}
	.Black{fill:#727272;}
	.White{fill:#FFFFFF;}
	.Red{fill:#D11C1C;}
	.st0{opacity:0.75;}
</style>
<g id="DollarCircled">
	<path class="Green" d="M13.9,10C14,10,14,10,13.9,10l0.1,3.4c-0.2-0.1-0.3-0.1-0.4-0.2c-0.4-0.2-0.7-0.4-0.9-0.6
		c-0.2-0.3-0.4-0.6-0.4-0.9c0-0.3,0.1-0.6,0.2-0.8c0.2-0.2,0.3-0.4,0.6-0.5C13.4,10.2,13.6,10.1,13.9,10z M17.4,16.8
		c-0.4-0.3-0.8-0.5-1.4-0.7V20c0,0,0,0,0.1,0c0.3-0.1,0.6-0.1,0.9-0.3s0.5-0.3,0.7-0.6c0.2-0.3,0.3-0.6,0.3-1
		C17.9,17.5,17.8,17.1,17.4,16.8z M28,15c0,7.2-5.8,13-13,13S2,22.2,2,15S7.8,2,15,2S28,7.8,28,15z M20,17.8c0-0.6-0.1-1.2-0.3-1.6
		c-0.2-0.4-0.5-0.8-0.9-1.1c-0.4-0.3-0.8-0.5-1.2-0.7c-0.5-0.2-0.9-0.3-1.4-0.4c-0.1,0-0.1,0-0.2,0v-3.8c0.2,0.1,0.4,0.2,0.6,0.3
		c0.3,0.2,0.5,0.4,0.6,0.7c0.1,0.2,0.2,0.5,0.3,0.9h1.9c-0.1-0.7-0.2-1.3-0.4-1.8c-0.3-0.5-0.6-1-1-1.3s-0.9-0.5-1.5-0.7
		c-0.2,0-0.3-0.1-0.5-0.1V6h-2v2c-0.3,0-0.6,0.1-0.9,0.2c-0.5,0.1-1,0.4-1.4,0.7c-0.4,0.3-0.8,0.7-1,1.2c-0.3,0.5-0.4,1.1-0.4,1.7
		c0,0.9,0.2,1.5,0.6,2c0.4,0.5,0.9,0.9,1.4,1.1c0.5,0.3,1.1,0.5,1.8,0.6V20c0,0,0,0,0,0c-0.4-0.1-0.7-0.2-1-0.4
		c-0.3-0.2-0.5-0.5-0.7-0.8C12.1,18.5,12,18.3,12,18h-1.9c0.1,0.6,0.2,1.2,0.4,1.6c0.3,0.6,0.6,1,1.1,1.4c0.5,0.4,1,0.6,1.6,0.8
		c0.3,0.1,0.6,0.1,0.9,0.2v2h2v-2c0.3,0,0.5-0.1,0.8-0.1c0.6-0.1,1.1-0.4,1.6-0.7c0.5-0.3,0.9-0.8,1.2-1.3
		C19.9,19.3,20,18.6,20,17.8z"/>
</g>
</svg>
