<?xml version="1.0" encoding="utf-8"?>
<!-- Generator: Adobe Illustrator 21.1.0, SVG Export Plug-In . SVG Version: 6.00 Build 0)  -->
<svg version="1.1" id="Layer_1" xmlns="http://www.w3.org/2000/svg" xmlns:xlink="http://www.w3.org/1999/xlink" x="0px" y="0px"
	 viewBox="0 0 32 32" style="enable-background:new 0 0 32 32;" xml:space="preserve">
<style type="text/css">
	.Blue{fill:#1177D7;}
	.Green{fill:#039C23;}
	.Yellow{fill:#FFB115;}
	.Black{fill:#727272;}
	.White{fill:#FFFFFF;}
	.Red{fill:#D11C1C;}
	.st0{opacity:0.75;}
</style>
<g id="Euro_1_">
	<path class="Blue" d="M20,24c-3,0-5.5-1.6-6.9-4H20v-2h-7.7c-0.2-0.6-0.3-1.3-0.3-2s0.1-1.4,0.3-2H20v-2h-6.9c1.4-2.4,4-4,6.9-4
		c2,0,3.8,0.7,5.2,1.9L28,7.1C25.9,5.2,23.1,4,20,4c-5.2,0-9.7,3.3-11.3,8H4v2h4.2C8.1,14.7,8,15.3,8,16s0.1,1.3,0.2,2H4v2h4.7
		c1.6,4.7,6.1,8,11.3,8c3.1,0,5.9-1.2,8-3.1l-2.8-2.8C23.8,23.3,22,24,20,24z"/>
</g>
</svg>
