<?xml version="1.0" encoding="utf-8"?>
<!-- Generator: Adobe Illustrator 21.1.0, SVG Export Plug-In . SVG Version: 6.00 Build 0)  -->
<svg version="1.1" id="Layer_1" xmlns="http://www.w3.org/2000/svg" xmlns:xlink="http://www.w3.org/1999/xlink" x="0px" y="0px"
	 viewBox="0 0 32 32" style="enable-background:new 0 0 32 32;" xml:space="preserve">
<style type="text/css">
	.Blue{fill:#1177D7;}
	.Green{fill:#039C23;}
	.Yellow{fill:#FFB115;}
	.Black{fill:#727272;}
	.White{fill:#FFFFFF;}
	.Red{fill:#D11C1C;}
	.st0{opacity:0.75;}
</style>
<g id="Report">
	<path class="Yellow" d="M27,4h-3v22H8V4H5C4.4,4,4,4.4,4,5v24c0,0.6,0.4,1,1,1h22c0.6,0,1-0.4,1-1V5C28,4.4,27.6,4,27,4z"/>
	<path class="Black" d="M20,4V3c0-0.6-0.4-1-1-1h-6c-0.6,0-1,0.4-1,1v1h-2v4h3h6h3V4H20z"/>
	<g class="st0">
		<rect x="10" y="20" class="Black" width="12" height="2"/>
		<rect x="10" y="12" class="Black" width="12" height="2"/>
		<rect x="10" y="16" class="Black" width="12" height="2"/>
	</g>
</g>
</svg>
