<?xml version="1.0" encoding="utf-8"?>
<!-- Generator: Adobe Illustrator 21.1.0, SVG Export Plug-In . SVG Version: 6.00 Build 0)  -->
<svg version="1.1" id="Layer_1" xmlns="http://www.w3.org/2000/svg" xmlns:xlink="http://www.w3.org/1999/xlink" x="0px" y="0px"
	 viewBox="0 0 32 32" style="enable-background:new 0 0 32 32;" xml:space="preserve">
<style type="text/css">
	.Blue{fill:#1177D7;}
	.Green{fill:#039C23;}
	.Yellow{fill:#FFB115;}
	.Black{fill:#727272;}
	.White{fill:#FFFFFF;}
	.Red{fill:#D11C1C;}
	.st0{opacity:0.75;}
</style>
<g id="Money">
	<path class="Yellow" d="M16,24c-4.4,0-8-1.3-8-3v2c0,1.7,3.6,3,8,3s8-1.3,8-3v-2C24,22.7,20.4,24,16,24z"/>
	<path class="Yellow" d="M16,28c-4.4,0-8-1.3-8-3v2c0,1.7,3.6,3,8,3s8-1.3,8-3v-2C24,26.7,20.4,28,16,28z"/>
	<path class="Yellow" d="M16,20c-4.4,0-8-1.3-8-3v2c0,1.7,3.6,3,8,3s8-1.3,8-3v-2C24,18.7,20.4,20,16,20z"/>
	<path class="Yellow" d="M16,16c-4.4,0-8-1.3-8-3v2c0,1.7,3.6,3,8,3s8-1.3,8-3v-2C24,14.7,20.4,16,16,16z"/>
	<path class="Yellow" d="M16,12c-4.4,0-8-1.3-8-3v2c0,1.7,3.6,3,8,3s8-1.3,8-3V9C24,10.7,20.4,12,16,12z"/>
	<path class="Yellow" d="M16,2c-4.4,0-8,1.3-8,3v2c0,1.7,3.6,3,8,3s8-1.3,8-3V5C24,3.3,20.4,2,16,2z"/>
</g>
</svg>
