<?xml version="1.0" encoding="utf-8"?>
<!-- Generator: Adobe Illustrator 21.1.0, SVG Export Plug-In . SVG Version: 6.00 Build 0)  -->
<svg version="1.1" id="Layer_1" xmlns="http://www.w3.org/2000/svg" xmlns:xlink="http://www.w3.org/1999/xlink" x="0px" y="0px"
	 viewBox="0 0 32 32" style="enable-background:new 0 0 32 32;" xml:space="preserve">
<style type="text/css">
	.Blue{fill:#1177D7;}
	.Green{fill:#039C23;}
	.Yellow{fill:#FFB115;}
	.Black{fill:#727272;}
	.White{fill:#FFFFFF;}
	.Red{fill:#D11C1C;}
	.st0{opacity:0.75;}
</style>
<g id="EuroCircled">
	<path class="Blue" d="M15,2C7.8,2,2,7.8,2,15s5.8,13,13,13s13-5.8,13-13S22.2,2,15,2z M16,12v2h-5.6c0,0.3-0.1,0.7-0.1,1
		c0,0.3,0,0.7,0.1,1H16v2h-5c0.9,2.2,2.8,3.7,5.1,3.7c1.9,0,3.6-1.1,4.7-2.9l0.1-0.2l1.7,1.7l-0.1,0.1C20.9,22.7,18.5,24,16,24
		c-3.5,0-6.4-2.5-7.5-6H6v-2h2c0-0.3,0-0.6,0-1c0-0.3,0-0.7,0.1-1H6v-2h2.5c1.1-3.5,4.1-6,7.5-6c2.5,0,4.9,1.3,6.4,3.6l0.1,0.1
		l-1.7,1.7l-0.1-0.2c-1.1-1.8-2.8-2.9-4.7-2.9c-2.2,0-4.1,1.5-5,3.6H16z"/>
</g>
</svg>
