<?xml version="1.0" encoding="utf-8"?>
<!-- Generator: Adobe Illustrator 21.1.0, SVG Export Plug-In . SVG Version: 6.00 Build 0)  -->
<svg version="1.1" id="Layer_1" xmlns="http://www.w3.org/2000/svg" xmlns:xlink="http://www.w3.org/1999/xlink" x="0px" y="0px"
	 viewBox="0 0 32 32" style="enable-background:new 0 0 32 32;" xml:space="preserve">
<style type="text/css">
	.Blue{fill:#1177D7;}
	.Green{fill:#039C23;}
	.Yellow{fill:#FFB115;}
	.Black{fill:#727272;}
	.White{fill:#FFFFFF;}
	.Red{fill:#D11C1C;}
	.st0{opacity:0.75;}
</style>
<g id="Safe_1_">
	<path class="Black" d="M29,2H3C2.5,2,2,2.5,2,3v26c0,0.5,0.5,1,1,1h26c0.5,0,1-0.5,1-1V3C30,2.5,29.5,2,29,2z M26,26H6V6h20V26z"/>
	<path class="Black" d="M8,8v16h16V8H8z M20,16c0,0.7-0.2,1.4-0.6,2l2.3,2.3c0.4,0.4,0.4,1,0,1.4c-0.4,0.4-1,0.4-1.4,0L18,19.4
		c-0.6,0.4-1.3,0.6-2,0.6s-1.4-0.2-2-0.6l-2.3,2.3c-0.4,0.4-1,0.4-1.4,0c-0.4-0.4-0.4-1,0-1.4l2.3-2.3c-0.4-0.6-0.6-1.3-0.6-2
		s0.2-1.4,0.6-2l-2.3-2.3c-0.4-0.4-0.4-1,0-1.4c0.4-0.4,1-0.4,1.4,0l2.3,2.3c0.6-0.4,1.3-0.6,2-0.6s1.4,0.2,2,0.6l2.3-2.3
		c0.4-0.4,1-0.4,1.4,0c0.4,0.4,0.4,1,0,1.4L19.4,14C19.8,14.6,20,15.3,20,16z"/>
	<circle class="Black" cx="16" cy="16" r="2"/>
</g>
</svg>
