<?xml version="1.0" encoding="utf-8"?>
<!-- Generator: Adobe Illustrator 21.1.0, SVG Export Plug-In . SVG Version: 6.00 Build 0)  -->
<svg version="1.1" id="Layer_1" xmlns="http://www.w3.org/2000/svg" xmlns:xlink="http://www.w3.org/1999/xlink" x="0px" y="0px"
	 viewBox="0 0 32 32" style="enable-background:new 0 0 32 32;" xml:space="preserve">
<style type="text/css">
	.Blue{fill:#1177D7;}
	.Green{fill:#039C23;}
	.Yellow{fill:#FFB115;}
	.Black{fill:#727272;}
	.White{fill:#FFFFFF;}
	.Red{fill:#D11C1C;}
	.st0{opacity:0.75;}
</style>
<g id="World_1_">
	<path class="Blue" d="M15.8,2c-7.7,0-14,6.3-14,14s6.3,14,14,14s14-6.3,14-14S23.6,2,15.8,2z M20.1,19.1c-0.5,0.1-0.5-0.3-0.1-0.4
		C20.1,18.9,20.2,18.8,20.1,19.1z M8.4,13.3c0-0.1,0-0.1,0-0.2C8.4,13.2,8.4,13.3,8.4,13.3z M22.1,21.9c0-0.1-0.1-0.1-0.1-0.1
		c0.1,0.3-0.1,0.9-0.1,1.2c-0.1,0.4-0.4,1.3-0.7,1.3c0,0.2-0.4,0-0.3,0.2c-0.5,0.1-0.8,0.5-0.8,0.8c0,0.1-0.3,1.1-0.4,1.1
		c0-0.1,0.1-0.2,0.1-0.3c0,0.1-0.1,0.1-0.1,0c0,0.2-0.3,0.8-0.4,0.9c-0.1,0.1-0.3,0.3-0.5,0.2c-0.1,0-0.3-0.2-0.3-0.4
		c0,0.3,0.2,0.6,0.2,0.8c-0.9,0.2-1.8,0.3-2.7,0.3c-0.1,0-0.2,0-0.3,0c0.1-0.3,0.1-0.5,0.2-0.8c0.2-0.7,0.2-1.5,0.3-2.2
		c0.1-0.4,0.3-1.5,0.1-1.9c-0.1-0.2-0.3-0.2-0.5-0.4c-0.6-0.4-0.6-0.7-0.8-1.3c-0.1-0.4-0.3-0.5-0.5-0.9c-0.1-0.2-0.2-0.2-0.2-0.5
		c0-0.2,0.2-0.4,0.2-0.6c0,0-0.1,0.1-0.1,0.1c0,0-0.1-0.1-0.1-0.1c0-0.1,0-0.4,0.1-0.4c0-0.2,0.1-0.7,0.3-0.7c0-0.3,0.2-0.3,0.1-0.5
		c0.3-0.2,0-0.9,0-1c-0.2,0-0.1-0.1-0.3-0.2c0,0.1-0.2,0.1-0.2,0.2c0,0.1,0.1,0,0.1,0.1c-0.3,0-0.4-0.2-0.6-0.3
		c0,0.2-0.1-0.2-0.3-0.3c0.1,0.2-0.2-0.2-0.2-0.3c-0.1-0.2-0.2-0.3-0.2-0.5c-0.5,0-0.6-0.1-1-0.4c-0.4-0.3-0.7-0.1-1.2-0.3
		c-0.3-0.1-0.7-0.3-0.9-0.5c-0.4-0.3-0.3-0.6-0.5-1c-0.1-0.3-0.7-0.7-0.6-1c-0.6,0-0.5-1.3-1.1-1.3c0,0.2,0.6,1.5,0.8,2
		c-0.2-0.4-0.8-0.6-0.9-1c0.5,0-0.2-0.8-0.4-1c-0.2-0.3-0.2-0.6-0.7-0.6c0-0.2-0.2-0.4-0.2-0.7c-0.1,0-0.2-0.1-0.2-0.2
		c0,0,0.1,0,0.1,0c0-0.1-0.1-0.1,0-0.2c-0.1,0,0,0-0.1,0c0,0,0,0,0,0.1C6,9.5,5.9,9.3,5.8,9.2c1.1-1.6,2.6-3,4.4-3.9
		c0.1,0.1,0.1,0.3,0.2,0.3c0-0.1,0-0.2,0-0.3c0.7-0.4,1.5-0.7,2.4-0.9c0.1,0,0.1,0.1,0.2,0.1c0.2,0.1,0.4,0.1,0.6,0.2
		c0.2,0.1,0.1,0.1,0.2,0.4c0,0.1,0.1,0.2,0.1,0.3c0.1,0,0.1,0,0.2,0c0,0.1-0.1,0.1-0.1,0C14,5.7,14.2,6,14.4,5.6
		c0.1-0.2-0.2-0.4-0.1-0.7c0.1-0.2,0.5-0.4,0.5-0.6c0,0,0,0,0,0c0-0.1,0-0.2-0.1-0.3C15,4,15.4,4,15.7,4c0.7,0,1.3,0.1,2,0.2
		c0,0,0,0,0,0.1c0,0-0.1,0-0.2,0c0,0,0,0.2,0,0.1c0.1,0,0.4,0.2,0.3,0.4c0.1,0,0.1,0.1,0.2,0.1c0-0.2,0.3,0.3,0.3,0
		c-0.1,0,0.1,0.1,0.1,0.1c0,0.1-0.5,0.3-0.6,0.3c0,0.3,0.8-0.5,0.8,0c0,0,0,0,0.1-0.1c0,0.6-0.8,0.9-1.1,0.9c-0.2,0-0.6,0-0.8,0
		c-0.2,0.1-0.4,0.6-0.7,0.6c0,0.3-0.1,0.3-0.2,0.4c0,0,1.3-1.3,1.3-0.6c0,0-0.1,0.2-0.3,0.3c0,0,0-0.1,0-0.1c-0.1,0.1,0,0.1,0,0.2
		c0.1,0,0.2-0.1,0.2-0.1c0,0.1,0,0.2-0.1,0.2c0,0,0.1,0,0.1,0c0,0.1-0.1,0.3,0.1,0.3c0,0,0,0,0,0c0,0,0,0.1-0.1,0.1c0,0,0,0,0,0
		c0.2,0,0.2,0,0.4,0c0,0.3,0,0,0.1,0.2c-0.1,0-0.4,0.3-0.4,0.3c0,0,0-0.1-0.1-0.1c0,0-0.2,0.3-0.2,0.3c0,0,0,0,0-0.1
		c-0.7,0,0.3-0.5,0.3-0.5c-0.5,0-0.2,0.1-0.2-0.2c0,0-0.1,0-0.1,0c0,0.1-0.1,0.2-0.2,0.2c0,0,0-0.1,0-0.1c-0.1,0.1-0.1,0.1,0,0.1
		c-0.1,0.1-0.1,0-0.2,0c-0.1,0.1,0.1,0.4-0.2,0.2c0,0.1,0,0,0,0.1c-0.1,0,0-0.1-0.1-0.1c0,0.3-0.6,0.2-0.3,0.7c-0.1,0-0.1,0-0.2,0
		c0,0.1,0,0.1,0,0.1c-0.1,0-0.2,0.1-0.3,0.2c0.1,0,0.3,0,0.2,0c0,0.1-0.2,0.1-0.3,0.1C15.3,9,15.2,9.2,15,9.1c0,0.2,0.1,0.3-0.1,0.5
		c0,0.1,0-0.4,0-0.5c-0.1,0.1-0.3,0.4-0.2,0.4c0,0.2,0.1,0.1,0.1,0.2c-0.2,0,0,0.2,0.1,0.3c-0.1,0-0.1,0-0.1,0.1
		c0.1,0,0.2,0.1,0.2,0.1c-0.1,0-0.1,0-0.2,0c0,0.5-0.9,0.7-0.8,1.4c0,0.3,0.4,1,0.1,1.2c0-0.3-0.3-0.4-0.3-0.7c-0.1,0,0,0.1-0.1,0.1
		c-0.1-0.1,0-0.3-0.1-0.5c-0.1-0.1-0.2,0-0.4-0.1c-0.1,0-0.5-0.2-0.5-0.2c-0.1,0-0.3,0-0.4,0.1c0.1,0.2,0.2,0,0.1,0.2
		c0.1,0,0.1,0,0.1,0.1c-0.1,0-0.2-0.1-0.3-0.2c0,0.1,0,0.1,0,0.1c-0.1,0-0.1,0-0.2,0c0-0.1,0-0.1,0-0.1c0,0-0.7,0-0.7,0
		c0,0.2-0.4,0.5-0.5,0.8c-0.1,0.3,0,0.9,0,1.3c0.1,0,0.2,0.4,0.4,0.6c0.2,0.1,0.7,0.2,0.9,0.1c0.2-0.2,0.2-0.8,0.6-0.8
		c0.4,0,0,0.5,0.1,0.9c-0.1,0-0.1-0.1-0.1-0.1c0,0.2-0.1,0.5-0.1,0.7c0.4,0,0.9-0.2,1.1,0.2c0.1,0.2-0.2,0.5-0.1,0.8
		c0,0.2,0.2,0.5,0.4,0.5c0.2,0.1,0.2-0.1,0.3-0.1c0.2,0,0.2,0.1,0.4,0.1c0.1,0,0.1,0.2,0.2,0.2c0.1-0.5,0.3-0.7,0.7-0.9
		c0.3-0.1,0.2-0.3,0.1,0.1c0.2,0-0.1,0.5,0.1,0.5c0-0.2,0-0.5,0.3-0.6c0-0.1-0.1,0-0.1-0.1c0.1-0.1,0.5,0.3,0.4,0.3
		c0,0.1,0.9,0.1,0.9,0c0,0,0.3,0,0.3,0c0,0.1,0,0-0.1,0.1c0,0.1,0.3,0.2,0.3,0.1c-0.1,0.3-0.1,0.1-0.3,0.4c0.6,0,0.6-0.2,0.7,0.4
		c0.1,0,0,0,0.1,0c0-0.3,0.3-0.1,0.3,0.1c0,0,0.5-0.2,0.5,0c0.6,0,0.4,0.7,0.7,0.9c0.1,0-0.1,0,0.1,0c0,0-0.1,0.3-0.1,0.3
		c0.1,0,0-0.1,0.1-0.1c0,0.1,0,0.1,0,0.1c0,0,0,0,0,0.1c0,0,0,0,0,0c-0.2,0-0.1,0-0.1-0.1c0,0-0.5,0.5-0.8,0.7
		c0.2-0.1,0.3-0.2,0.6-0.2c0,0.3,0,0.1,0,0.3c0.1,0,0-0.3,0.2-0.3c0,0.4,0.4,0.1,0.5,0.1c0,0,0.6-0.3,0.5,0.1c0.2,0,0.1,0.3,0.3,0.3
		c0.3-0.3,1.2,0.3,1.5,0.5C23.2,20.7,22.4,21.1,22.1,21.9z M17.5,7.3l-0.1-0.1c-0.1,0-0.4-0.1-0.1-0.2l0.1,0.2c0,0,0.1,0,0.1,0
		C17.4,7.3,17.4,7.3,17.5,7.3z M17.1,6.2c0.1,0,0.4,0.1,0.5,0.2c0,0,0,0,0,0.1C17.5,6.5,17.1,6.3,17.1,6.2z M12.3,11.8
		C12.2,11.8,12.2,11.7,12.3,11.8C12.3,11.7,12.3,11.7,12.3,11.8z M19.6,18.9C19.6,18.9,19.5,19,19.6,18.9L19.6,18.9z M19.5,19
		C19.6,19,19.5,19.1,19.5,19L19.5,19z"/>
</g>
</svg>
