<?xml version="1.0" encoding="utf-8"?>
<!-- Generator: Adobe Illustrator 21.1.0, SVG Export Plug-In . SVG Version: 6.00 Build 0)  -->
<svg version="1.1" id="Layer_1" xmlns="http://www.w3.org/2000/svg" xmlns:xlink="http://www.w3.org/1999/xlink" x="0px" y="0px"
	 viewBox="0 0 32 32" style="enable-background:new 0 0 32 32;" xml:space="preserve">
<style type="text/css">
	.Blue{fill:#1177D7;}
	.Green{fill:#039C23;}
	.Yellow{fill:#FFB115;}
	.Black{fill:#727272;}
	.White{fill:#FFFFFF;}
	.Red{fill:#D11C1C;}
	.st0{opacity:0.75;}
</style>
<g id="DoughnutChart">
	<path class="Yellow" d="M19.5,20.9c-1,0.7-2.2,1.1-3.5,1.1s-2.5-0.4-3.5-1.1l-5.7,5.7C9.3,28.7,12.5,30,16,30s6.7-1.3,9.2-3.4
		L19.5,20.9z"/>
	<path class="Blue" d="M26.6,6.8l-5.7,5.7c0.7,1,1.1,2.2,1.1,3.5s-0.4,2.5-1.1,3.5l5.7,5.7c2.1-2.5,3.4-5.7,3.4-9.2
		S28.7,9.3,26.6,6.8z"/>
	<path class="Red" d="M10,16c0-3.3,2.7-6,6-6c1.3,0,2.5,0.4,3.5,1.1l5.7-5.7C22.7,3.3,19.5,2,16,2C8.3,2,2,8.3,2,16
		c0,3.5,1.3,6.7,3.4,9.2l5.7-5.7C10.4,18.5,10,17.3,10,16z"/>
</g>
</svg>
