<?xml version="1.0" encoding="utf-8"?>
<!-- Generator: Adobe Illustrator 21.1.0, SVG Export Plug-In . SVG Version: 6.00 Build 0)  -->
<svg version="1.1" id="Layer_1" xmlns="http://www.w3.org/2000/svg" xmlns:xlink="http://www.w3.org/1999/xlink" x="0px" y="0px"
	 viewBox="0 0 32 32" style="enable-background:new 0 0 32 32;" xml:space="preserve">
<style type="text/css">
	.Blue{fill:#1177D7;}
	.Green{fill:#039C23;}
	.Yellow{fill:#FFB115;}
	.Black{fill:#727272;}
	.White{fill:#FFFFFF;}
	.Red{fill:#D11C1C;}
	.st0{opacity:0.75;}
</style>
<g id="Cash">
	<path class="Green" d="M29,8H3C2.5,8,2,8.5,2,9v14c0,0.5,0.5,1,1,1h26c0.5,0,1-0.5,1-1V9C30,8.5,29.5,8,29,8z M28,18
		c-2.2,0-4,1.8-4,4H8c0-2.2-1.8-4-4-4v-4c2.2,0,4-1.8,4-4h16c0,2.2,1.8,4,4,4V18z"/>
	<circle class="Green" cx="16" cy="16" r="4"/>
</g>
</svg>
