<?xml version="1.0" encoding="utf-8"?>
<!-- Generator: Adobe Illustrator 21.1.0, SVG Export Plug-In . SVG Version: 6.00 Build 0)  -->
<svg version="1.1" id="Layer_1" xmlns="http://www.w3.org/2000/svg" xmlns:xlink="http://www.w3.org/1999/xlink" x="0px" y="0px"
	 viewBox="0 0 32 32" style="enable-background:new 0 0 32 32;" xml:space="preserve">
<style type="text/css">
	.Blue{fill:#1177D7;}
	.Green{fill:#039C23;}
	.Yellow{fill:#FFB115;}
	.Black{fill:#727272;}
	.White{fill:#FFFFFF;}
	.Red{fill:#D11C1C;}
	.st0{opacity:0.75;}
</style>
<g id="PieChart">
	<path class="Red" d="M25.2,5.4C22.7,3.3,19.5,2,16,2C8.3,2,2,8.3,2,16c0,3.5,1.3,6.7,3.4,9.2l9.2-9.2L25.2,5.4z"/>
	<path class="Yellow" d="M16,30c3.5,0,6.7-1.3,9.2-3.4L16,17.4l-9.2,9.2C9.3,28.7,12.5,30,16,30z"/>
	<path class="Blue" d="M17.4,16l9.2,9.2c2.1-2.5,3.4-5.7,3.4-9.2s-1.3-6.7-3.4-9.2L17.4,16z"/>
</g>
</svg>
