<?xml version="1.0" encoding="utf-8"?>
<!-- Generator: Adobe Illustrator 21.1.0, SVG Export Plug-In . SVG Version: 6.00 Build 0)  -->
<svg version="1.1" id="Layer_1" xmlns="http://www.w3.org/2000/svg" xmlns:xlink="http://www.w3.org/1999/xlink" x="0px" y="0px"
	 viewBox="0 0 32 32" style="enable-background:new 0 0 32 32;" xml:space="preserve">
<style type="text/css">
	.Blue{fill:#1177D7;}
	.Green{fill:#039C23;}
	.Yellow{fill:#FFB115;}
	.Black{fill:#727272;}
	.White{fill:#FFFFFF;}
	.Red{fill:#D11C1C;}
	.st0{opacity:0.75;}
</style>
<g id="Calculator">
	<path class="Black" d="M29,0H16v14h14V1C30,0.5,29.5,0,29,0z M28,8H18V6h10V8z"/>
	<path class="Black" d="M0,29c0,0.5,0.5,1,1,1h13V16H0V29z M2.8,20.2l1.4-1.4L7,21.6l2.8-2.8l1.4,1.4L8.4,23l2.8,2.8l-1.4,1.4
		L7,24.4l-2.8,2.8l-1.4-1.4L5.6,23L2.8,20.2z"/>
	<path class="Black" d="M0,1v13h14V0H1C0.5,0,0,0.5,0,1z M2,6h4V2h2v4h4v2H8v4H6V8H2V6z"/>
	<path class="Yellow" d="M16,16v14h13c0.5,0,1-0.5,1-1V16H16z M28,26H18v-2h10V26z M28,22H18v-2h10V22z"/>
</g>
</svg>
