<?xml version="1.0" encoding="utf-8"?>
<!-- Generator: Adobe Illustrator 21.1.0, SVG Export Plug-In . SVG Version: 6.00 Build 0)  -->
<svg version="1.1" id="Layer_1" xmlns="http://www.w3.org/2000/svg" xmlns:xlink="http://www.w3.org/1999/xlink" x="0px" y="0px"
	 viewBox="0 0 32 32" style="enable-background:new 0 0 32 32;" xml:space="preserve">
<style type="text/css">
	.Black{fill:#727272;}
</style>
<g id="LaptopWindows">
	<path class="Black" d="M29,22h-3c1.1,0,2-0.9,2-2V8c0-1.1-0.9-2-2-2H6C4.9,6,4,6.9,4,8v12c0,1.1,0.9,2,2,2H3c-0.6,0-1,0.5-1,1v2
		c0,0.5,0.4,1,1,1h26c0.6,0,1-0.5,1-1v-2C30,22.5,29.6,22,29,22z M6,8h20v12H6V8z"/>
</g>
</svg>
