<?xml version="1.0" encoding="utf-8"?>
<!-- Generator: Adobe Illustrator 21.1.0, SVG Export Plug-In . SVG Version: 6.00 Build 0)  -->
<svg version="1.1" id="Layer_1" xmlns="http://www.w3.org/2000/svg" xmlns:xlink="http://www.w3.org/1999/xlink" x="0px" y="0px"
	 viewBox="0 0 32 32" style="enable-background:new 0 0 32 32;" xml:space="preserve">
<style type="text/css">
	.Black{fill:#727272;}
</style>
<g id="Router">
	<path class="Black" d="M29,16h-5v-4h-2v4H3c-0.6,0-1,0.5-1,1v10c0,0.5,0.4,1,1,1h26c0.6,0,1-0.5,1-1V17C30,16.5,29.6,16,29,16z
		 M8,24c-1.1,0-2-0.9-2-2c0-1.1,0.9-2,2-2s2,0.9,2,2C10,23.1,9.1,24,8,24z M14,24c-1.1,0-2-0.9-2-2c0-1.1,0.9-2,2-2s2,0.9,2,2
		C16,23.1,15.1,24,14,24z"/>
	<path class="Black" d="M17.5,7.5C19.1,6.5,21,6,23,6s3.9,0.5,5.5,1.5L30,6c-2-1.3-4.4-2-7-2s-5,0.8-7,2L17.5,7.5z"/>
	<path class="Black" d="M19,9l1.5,1.5c0.8-0.3,1.6-0.5,2.5-0.5s1.7,0.2,2.5,0.5L27,9c-1.2-0.6-2.6-1-4-1S20.2,8.3,19,9z"/>
</g>
</svg>
