<?xml version="1.0" encoding="utf-8"?>
<!-- Generator: Adobe Illustrator 21.1.0, SVG Export Plug-In . SVG Version: 6.00 Build 0)  -->
<svg version="1.1" id="Layer_1" xmlns="http://www.w3.org/2000/svg" xmlns:xlink="http://www.w3.org/1999/xlink" x="0px" y="0px"
	 viewBox="0 0 32 32" style="enable-background:new 0 0 32 32;" xml:space="preserve">
<style type="text/css">
	.Black{fill:#727272;}
</style>
<g id="Microphone">
	<path class="Black" d="M16,20L16,20c-2.2,0-4-1.8-4-4V6c0-2.2,1.8-4,4-4h0c2.2,0,4,1.8,4,4v10C20,18.2,18.2,20,16,20z"/>
	<path class="Black" d="M24,16v-2h-2v2c0,3.3-2.7,6-6,6s-6-2.7-6-6v-2H8v2c0,3.7,2.6,6.8,6,7.7V28h-4v2h12v-2h-4v-4.3
		C21.4,22.8,24,19.7,24,16z"/>
</g>
</svg>
