<?xml version="1.0" encoding="utf-8"?>
<!-- Generator: Adobe Illustrator 21.1.0, SVG Export Plug-In . SVG Version: 6.00 Build 0)  -->
<svg version="1.1" id="Layer_1" xmlns="http://www.w3.org/2000/svg" xmlns:xlink="http://www.w3.org/1999/xlink" x="0px" y="0px"
	 viewBox="0 0 32 32" style="enable-background:new 0 0 32 32;" xml:space="preserve">
<style type="text/css">
	.Black{fill:#727272;}
</style>
<g id="Keyboard">
	<path class="Black" d="M26,6H4C2.9,6,2,6.9,2,8v14c0,1.1,0.9,2,2,2h22c1.1,0,2-0.9,2-2V8C28,6.9,27.1,6,26,6z M14,10h2v2h-2V10z
		 M14,14h2v2h-2V14z M10,10h2v2h-2V10z M10,14h2v2h-2V14z M6,10h2v2H6V10z M6,14h2v2H6V14z M20,20H10v-2h10V20z M20,16h-2v-2h2V16z
		 M20,12h-2v-2h2V12z M24,16h-2v-2h2V16z M24,12h-2v-2h2V12z"/>
</g>
</svg>
