<?xml version="1.0" encoding="utf-8"?>
<!-- Generator: Adobe Illustrator 21.1.0, SVG Export Plug-In . SVG Version: 6.00 Build 0)  -->
<svg version="1.1" id="Layer_1" xmlns="http://www.w3.org/2000/svg" xmlns:xlink="http://www.w3.org/1999/xlink" x="0px" y="0px"
	 viewBox="0 0 32 32" style="enable-background:new 0 0 32 32;" xml:space="preserve">
<style type="text/css">
	.Black{fill:#727272;}
</style>
<g id="Scanner">
	<rect x="6" y="14" class="Black" width="12" height="2"/>
	<path class="Black" d="M12.3,2.3c-0.4-0.4-1-0.4-1.4,0L10.2,3l15,15H4v11c0,0.6,0.4,1,1,1h22c0.6,0,1-0.4,1-1V18L12.3,2.3z M10,26
		c-1.1,0-2-0.9-2-2c0-1.1,0.9-2,2-2s2,0.9,2,2C12,25.1,11.1,26,10,26z"/>
</g>
</svg>
