<?xml version="1.0" encoding="utf-8"?>
<!-- Generator: Adobe Illustrator 21.1.0, SVG Export Plug-In . SVG Version: 6.00 Build 0)  -->
<svg version="1.1" id="Layer_1" xmlns="http://www.w3.org/2000/svg" xmlns:xlink="http://www.w3.org/1999/xlink" x="0px" y="0px"
	 viewBox="0 0 32 32" style="enable-background:new 0 0 32 32;" xml:space="preserve">
<style type="text/css">
	.Black{fill:#727272;}
	.Red{fill:#D11C1C;}
	.Yellow{fill:#FFB115;}
	.Green{fill:#039C23;}
</style>
<g id="Assistance">
	<path class="Red" d="M24,16c0,1.5-0.4,2.9-1.1,4.1l4.3,4.3C29,22,30,19.1,30,16c0-3.1-1-6-2.8-8.4l-4.3,4.3
		C23.6,13.1,24,14.5,24,16z"/>
	<path class="Red" d="M8,16c0-1.5,0.4-2.9,1.1-4.1L4.8,7.6C3,10,2,12.9,2,16c0,3.1,1,6,2.8,8.4l4.3-4.3C8.4,18.9,8,17.5,8,16z"/>
	<path class="Red" d="M11.9,9.1C13.1,8.4,14.5,8,16,8s2.9,0.4,4.1,1.1l4.3-4.3C22,3,19.1,2,16,2s-6,1-8.4,2.8L11.9,9.1z"/>
	<path class="Red" d="M20.1,22.9C18.9,23.6,17.5,24,16,24s-2.9-0.4-4.1-1.1l-4.3,4.3C10,29,12.9,30,16,30s6-1,8.4-2.8L20.1,22.9z"/>
</g>
</svg>
