<?xml version="1.0" encoding="utf-8"?>
<!-- Generator: Adobe Illustrator 21.1.0, SVG Export Plug-In . SVG Version: 6.00 Build 0)  -->
<svg version="1.1" id="Layer_1" xmlns="http://www.w3.org/2000/svg" xmlns:xlink="http://www.w3.org/1999/xlink" x="0px" y="0px"
	 viewBox="0 0 32 32" style="enable-background:new 0 0 32 32;" xml:space="preserve">
<style type="text/css">
	.Black{fill:#727272;}
	.Red{fill:#D11C1C;}
	.Yellow{fill:#FFB115;}
	.Green{fill:#039C23;}
</style>
<g id="Unlock">
	<path class="Yellow" d="M22,4c-3.3,0-6,2.7-6,6v2H5c-0.6,0-1,0.5-1,1v14c0,0.5,0.4,1,1,1h18c0.6,0,1-0.5,1-1V13c0-0.5-0.4-1-1-1h-5
		v-2c0-2.2,1.8-4,4-4s4,1.8,4,4v2h2v-2C28,6.7,25.3,4,22,4z M16,24h-4l1.4-4.1c-0.8-0.3-1.4-1-1.4-1.9c0-1.1,0.9-2,2-2s2,0.9,2,2
		c0,0.9-0.6,1.6-1.4,1.9L16,24z"/>
</g>
</svg>
