<?xml version="1.0" encoding="utf-8"?>
<!-- Generator: Adobe Illustrator 21.1.0, SVG Export Plug-In . SVG Version: 6.00 Build 0)  -->
<svg version="1.1" id="Layer_1" xmlns="http://www.w3.org/2000/svg" xmlns:xlink="http://www.w3.org/1999/xlink" x="0px" y="0px"
	 viewBox="0 0 32 32" style="enable-background:new 0 0 32 32;" xml:space="preserve">
<style type="text/css">
	.Black{fill:#727272;}
	.Red{fill:#D11C1C;}
	.Yellow{fill:#FFB115;}
	.Green{fill:#039C23;}
</style>
<g id="Fingerprint">
	<path class="Black" d="M23,6c-0.2,0-0.4-0.1-0.5-0.2c-0.3-0.2-6.6-4.1-15,0C7,6.1,6.4,5.9,6.1,5.4c-0.2-0.5,0-1.1,0.5-1.3
		C16-0.6,23.2,4,23.5,4.2c0.5,0.3,0.6,0.9,0.3,1.4C23.6,5.8,23.3,6,23,6z M3.7,13.7c10.9-11.4,22.2-2.3,22.6-1.9
		c0.4,0.4,1.1,0.3,1.4-0.1c0.4-0.4,0.3-1.1-0.1-1.4c-0.1-0.1-13.1-10.7-25.4,2.1c-0.4,0.4-0.4,1,0,1.4C2.5,13.9,2.8,14,3,14
		C3.3,14,3.5,13.9,3.7,13.7z M24,27c0-0.6-0.4-1-1-1c-5.3,0-7-3.3-7.1-3.4c-0.2-0.5-0.8-0.7-1.3-0.4c-0.5,0.2-0.7,0.8-0.4,1.3
		c0.1,0.2,2.4,4.6,8.9,4.6C23.6,28,24,27.6,24,27z M15.9,29.4c0.2-0.5,0-1.1-0.4-1.3c0,0-3.5-1.8-3.5-5.1c0-1.7,1.3-3,3-3
		c1.6,0,2.3,0.8,3.3,1.7c1,1,2.3,2.3,4.7,2.3c2.8,0,5-2.2,5-5c0-3.2-4-9-12-9C7.6,10,2,16,2,25c0,0.6,0.4,1,1,1s1-0.4,1-1
		c0-7.9,4.7-13,12-13c6.6,0,10,4.6,10,7c0,1.7-1.3,3-3,3c-1.6,0-2.3-0.8-3.3-1.7c-1-1-2.3-2.3-4.7-2.3c-2.8,0-5,2.2-5,5
		c0,4.6,4.4,6.8,4.6,6.9C14.7,30,14.8,30,15,30C15.4,30,15.7,29.8,15.9,29.4z M9.7,29.8c0.4-0.4,0.5-1,0.1-1.4c0,0-1.8-2.1-1.8-5.3
		c0-2.4,2.3-7,8-7c4.3,0,6,3.3,6.1,3.5c0.2,0.5,0.8,0.7,1.3,0.4c0.5-0.2,0.7-0.8,0.4-1.3C23.8,18.4,21.6,14,16,14
		c-6.5,0-10,5.2-10,9c0,4,2.1,6.5,2.2,6.7C8.4,29.9,8.7,30,9,30C9.2,30,9.5,29.9,9.7,29.8z"/>
</g>
</svg>
