<?xml version="1.0" encoding="utf-8"?>
<!-- Generator: Adobe Illustrator 21.1.0, SVG Export Plug-In . SVG Version: 6.00 Build 0)  -->
<svg version="1.1" id="Layer_1" xmlns="http://www.w3.org/2000/svg" xmlns:xlink="http://www.w3.org/1999/xlink" x="0px" y="0px"
	 viewBox="0 0 32 32" style="enable-background:new 0 0 32 32;" xml:space="preserve">
<style type="text/css">
	.Black{fill:#727272;}
	.Red{fill:#D11C1C;}
	.Yellow{fill:#FFB115;}
	.Green{fill:#039C23;}
</style>
<g id="Bug">
	<path class="Black" d="M27,20c0.6,0,1-0.4,1-1c0-0.6-0.4-1-1-1h-3c0-0.7-0.1-1.4-0.3-2h1.7l2.3-2.3c0.4-0.4,0.4-1,0-1.4
		s-1-0.4-1.4,0L24.6,14h-1.5c-0.3-0.7-0.6-1.4-0.9-2h-0.2H16h-5.9H9.8c-0.4,0.6-0.7,1.3-0.9,2H7.4l-1.7-1.7c-0.4-0.4-1-0.4-1.4,0
		s-0.4,1,0,1.4L6.6,16h1.7c-0.1,0.6-0.2,1.3-0.3,2H5c-0.6,0-1,0.4-1,1c0,0.6,0.4,1,1,1h3c0,0.7,0.1,1.4,0.3,2H6.6l-2.3,2.3
		c-0.4,0.4-0.4,1,0,1.4s1,0.4,1.4,0L7.4,24h1.5c1.3,3.6,4,6,7.1,6s5.8-2.4,7.1-6h1.5l1.7,1.7c0.4,0.4,1,0.4,1.4,0s0.4-1,0-1.4
		L25.4,22h-1.7c0.1-0.6,0.2-1.3,0.3-2H27z"/>
	<path class="Black" d="M19.9,5.5C19.9,5.5,19.9,5.5,19.9,5.5l1.8-1.8c0.4-0.4,0.4-1,0-1.4s-1-0.4-1.4,0l-2.1,2.1
		C17.5,4.1,16.8,4,16,4s-1.5,0.1-2.2,0.4l-2.1-2.1c-0.4-0.4-1-0.4-1.4,0s-0.4,1,0,1.4l1.8,1.8C10.8,6.6,10,8.2,10,10h12
		C22,8.2,21.2,6.6,19.9,5.5z"/>
</g>
</svg>
