<?xml version="1.0" encoding="utf-8"?>
<!-- Generator: Adobe Illustrator 21.1.0, SVG Export Plug-In . SVG Version: 6.00 Build 0)  -->
<svg version="1.1" id="Layer_1" xmlns="http://www.w3.org/2000/svg" xmlns:xlink="http://www.w3.org/1999/xlink" x="0px" y="0px"
	 viewBox="0 0 32 32" style="enable-background:new 0 0 32 32;" xml:space="preserve">
<style type="text/css">
	.Yellow{fill:#FFB115;}
	.Red{fill:#D11C1C;}
	.Black{fill:#727272;}
	.Green{fill:#039C23;}
	.Blue{fill:#1177D7;}
</style>
<g id="Percent">
	<path class="Black" d="M13.1,13.6c1-1,1.5-2.4,1.5-4.2c0-1.7-0.4-3-1.3-4C12.3,4.5,11.1,4,9.5,4c-1.7,0-3,0.5-4,1.6
		C4.5,6.6,4,8,4,9.8c0,1.6,0.5,2.9,1.4,3.9c0.9,1,2.2,1.4,3.7,1.4C10.8,15.1,12.1,14.6,13.1,13.6z M7.2,9.7c0-2,0.7-3,2.2-3
		c1.4,0,2,1,2,2.9c0,2-0.7,3-2.1,3C7.9,12.5,7.2,11.6,7.2,9.7z"/>
	<polygon class="Black" points="22,4 6,28 10,28 26,4 	"/>
	<path class="Black" d="M26.7,18.3c-0.9-0.9-2.1-1.4-3.7-1.4c-1.7,0-3,0.5-4,1.6c-1,1-1.5,2.5-1.5,4.2c0,1.6,0.5,2.9,1.4,3.9
		c0.9,1,2.2,1.4,3.7,1.4c1.7,0,3-0.5,4-1.6c1-1,1.5-2.4,1.5-4.2C28,20.5,27.6,19.2,26.7,18.3z M22.7,25.4c-1.4,0-2.1-1-2.1-2.9
		c0-2,0.7-3,2.2-3c0.6,0,1.1,0.3,1.5,0.8c0.4,0.5,0.6,1.2,0.6,2.1C24.9,24.4,24.1,25.4,22.7,25.4z"/>
</g>
</svg>
