<?xml version="1.0" encoding="utf-8"?>
<!-- Generator: Adobe Illustrator 21.1.0, SVG Export Plug-In . SVG Version: 6.00 Build 0)  -->
<svg version="1.1" id="Layer_1" xmlns="http://www.w3.org/2000/svg" xmlns:xlink="http://www.w3.org/1999/xlink" x="0px" y="0px"
	 viewBox="0 0 32 32" style="enable-background:new 0 0 32 32;" xml:space="preserve">
<style type="text/css">
	.Yellow{fill:#FFB115;}
	.Red{fill:#D11C1C;}
	.Black{fill:#727272;}
	.Green{fill:#039C23;}
	.Blue{fill:#1177D7;}
</style>
<g id="Delivery">
	<path class="Blue" d="M29.7,15.7l-5.4-5.4c-0.2-0.2-0.4-0.3-0.7-0.3H22V7c0-0.5-0.4-1-1-1H3C2.4,6,2,6.5,2,7v15h2c0,2.2,1.8,4,4,4
		s4-1.8,4-4h8c0,2.2,1.8,4,4,4s4-1.8,4-4h2v-5.6C30,16.1,29.9,15.9,29.7,15.7z M8,24c-1.1,0-2-0.9-2-2c0-1.1,0.9-2,2-2s2,0.9,2,2
		C10,23.1,9.1,24,8,24z M24,24c-1.1,0-2-0.9-2-2c0-1.1,0.9-2,2-2s2,0.9,2,2C26,23.1,25.1,24,24,24z M22,16v-4h1.2l4,4H22z"/>
</g>
</svg>
