<?xml version="1.0" encoding="utf-8"?>
<!-- Generator: Adobe Illustrator 21.1.0, SVG Export Plug-In . SVG Version: 6.00 Build 0)  -->
<svg version="1.1" id="Layer_1" xmlns="http://www.w3.org/2000/svg" xmlns:xlink="http://www.w3.org/1999/xlink" x="0px" y="0px"
	 viewBox="0 0 32 32" style="enable-background:new 0 0 32 32;" xml:space="preserve">
<style type="text/css">
	.Yellow{fill:#FFB115;}
	.Red{fill:#D11C1C;}
	.Black{fill:#727272;}
	.Green{fill:#039C23;}
	.Blue{fill:#1177D7;}
</style>
<g id="Promotion_1_">
	<path class="Black" d="M24,2h-0.3c-1.1,0-2.1,0.4-2.8,1.2L16,8H8c-3.3,0-6,2.7-6,6s2.7,6,6,6v9c0,0.5,0.4,1,1,1h4c0.6,0,1-0.5,1-1
		v-9h2l4.8,4.8c0.8,0.8,1.8,1.2,2.8,1.2H24c3.3,0,6-5.4,6-12C30,7.4,27.3,2,24,2z M24,24c-1.2,0-2.9-2.3-3.6-6H22c2.2,0,4-1.8,4-4
		c0-2.2-1.8-4-4-4h-1.6c0.7-3.7,2.4-6,3.6-6c1.6,0,4,3.9,4,10S25.6,24,24,24z"/>
</g>
</svg>
