<?xml version="1.0" encoding="utf-8"?>
<!-- Generator: Adobe Illustrator 21.1.0, SVG Export Plug-In . SVG Version: 6.00 Build 0)  -->
<svg version="1.1" id="Layer_1" xmlns="http://www.w3.org/2000/svg" xmlns:xlink="http://www.w3.org/1999/xlink" x="0px" y="0px"
	 viewBox="0 0 32 32" style="enable-background:new 0 0 32 32;" xml:space="preserve">
<style type="text/css">
	.Yellow{fill:#FFB115;}
	.Red{fill:#D11C1C;}
	.Black{fill:#727272;}
	.Green{fill:#039C23;}
	.Blue{fill:#1177D7;}
</style>
<g id="ShoppingBasket">
	<path class="Green" d="M15.7,13.7l8-8c0.4-0.4,0.4-1,0-1.4c-0.4-0.4-1-0.4-1.4,0l-8,8c-0.4,0.4-0.4,1,0,1.4S15.3,14.1,15.7,13.7z"
		/>
	<path class="Green" d="M27,12h-6.8l-3.1,3.1C16.6,15.7,15.8,16,15,16s-1.6-0.3-2.1-0.9C12.3,14.6,12,13.8,12,13
		c0-0.3,0.1-0.7,0.2-1H5c-0.6,0-1,0.5-1,1v2c0,0.5,0.4,1,1,1h1v11c0,0.5,0.4,1,1,1h18c0.6,0,1-0.5,1-1V16h1c0.6,0,1-0.5,1-1v-2
		C28,12.5,27.6,12,27,12z"/>
</g>
</svg>
