<?xml version="1.0" encoding="utf-8"?>
<!-- Generator: Adobe Illustrator 21.1.0, SVG Export Plug-In . SVG Version: 6.00 Build 0)  -->
<svg version="1.1" id="Layer_1" xmlns="http://www.w3.org/2000/svg" xmlns:xlink="http://www.w3.org/1999/xlink" x="0px" y="0px"
	 viewBox="0 0 32 32" style="enable-background:new 0 0 32 32;" xml:space="preserve">
<style type="text/css">
	.Yellow{fill:#FFB115;}
	.Red{fill:#D11C1C;}
	.Black{fill:#727272;}
	.Green{fill:#039C23;}
	.Blue{fill:#1177D7;}
</style>
<g id="Gift">
	<path class="Blue" d="M5,10c-0.6,0-1,0.5-1,1v3h10v-4c-0.7,0-1.4,0-2,0H5z"/>
	<path class="Blue" d="M18,30h7c0.6,0,1-0.5,1-1V16h-8V30z"/>
	<path class="Blue" d="M6,29c0,0.5,0.4,1,1,1h7V16H6V29z"/>
	<path class="Blue" d="M27,10h-7c-0.6,0-1.3,0-2,0v4h10v-3C28,10.5,27.6,10,27,10z"/>
	<path class="Blue" d="M20,2c-2.2,0-4,1.8-4,4c0-2.2-1.8-4-4-4S8,3.8,8,6c0,2.2,1.8,4,4,4c0.6,0,1.3,0,2,0c1.1,0,2,0,2,0s0.9,0,2,0
		c0.7,0,1.4,0,2,0c2.2,0,4-1.8,4-4C24,3.8,22.2,2,20,2z M14,8h-2c-1.1,0-2-0.9-2-2s0.9-2,2-2s2,0.9,2,2V8z M20,8h-2V6
		c0-1.1,0.9-2,2-2s2,0.9,2,2S21.1,8,20,8z"/>
</g>
</svg>
