<?xml version="1.0" encoding="utf-8"?>
<!-- Generator: Adobe Illustrator 21.1.0, SVG Export Plug-In . SVG Version: 6.00 Build 0)  -->
<svg version="1.1" id="Layer_1" xmlns="http://www.w3.org/2000/svg" xmlns:xlink="http://www.w3.org/1999/xlink" x="0px" y="0px"
	 viewBox="0 0 32 32" style="enable-background:new 0 0 32 32;" xml:space="preserve">
<style type="text/css">
	.Black{fill:#727272;}
	.Green{fill:#039C23;}
	.Yellow{fill:#FFB115;}
	.Blue{fill:#1177D7;}
	.Red{fill:#D11C1C;}
</style>
<g id="Anchor">
	<path class="Blue" d="M27,17l-3,3h2c0,2.2-1.8,4-4,4s-4-1.8-4-4v-6h3c0.6,0,1-0.5,1-1s-0.4-1-1-1h-3V9.4c1.2-0.7,2-2,2-3.4
		c0-2.2-1.8-4-4-4s-4,1.8-4,4c0,1.5,0.8,2.8,2,3.4V12h-3c-0.6,0-1,0.5-1,1s0.4,1,1,1h3v6c0,2.2-1.8,4-4,4s-4-1.8-4-4h2l-3-3l-3,3h2
		c0,5.5,5.4,10,12,10s12-4.5,12-10h2L27,17z M16,4c1.1,0,2,0.9,2,2c0,1.1-0.9,2-2,2s-2-0.9-2-2C14,4.9,14.9,4,16,4z"/>
</g>
</svg>
