<?xml version="1.0" encoding="utf-8"?>
<!-- Generator: Adobe Illustrator 21.1.0, SVG Export Plug-In . SVG Version: 6.00 Build 0)  -->
<svg version="1.1" id="Layer_1" xmlns="http://www.w3.org/2000/svg" xmlns:xlink="http://www.w3.org/1999/xlink" x="0px" y="0px"
	 viewBox="0 0 32 32" style="enable-background:new 0 0 32 32;" xml:space="preserve">
<style type="text/css">
	.Black{fill:#727272;}
	.Green{fill:#039C23;}
	.Yellow{fill:#FFB115;}
	.Blue{fill:#1177D7;}
	.Red{fill:#D11C1C;}
</style>
<g id="Cafe">
	<path class="Green" d="M23,24H5c-0.5,0-1,0.5-1,1s0.5,1,1,1h18c0.5,0,1-0.5,1-1S23.5,24,23,24z"/>
	<path class="Green" d="M24,6h-2H6v12c0,2.2,1.8,4,4,4h8c2.2,0,4-1.8,4-4v-2h2c2.2,0,4-1.8,4-4v-2C28,7.8,26.2,6,24,6z M26,12
		c0,1.1-0.9,2-2,2h-2V8h2c1.1,0,2,0.9,2,2V12z"/>
</g>
</svg>
