<?xml version="1.0" encoding="utf-8"?>
<!-- Generator: Adobe Illustrator 21.1.0, SVG Export Plug-In . SVG Version: 6.00 Build 0)  -->
<svg version="1.1" id="Layer_1" xmlns="http://www.w3.org/2000/svg" xmlns:xlink="http://www.w3.org/1999/xlink" x="0px" y="0px"
	 viewBox="0 0 32 32" style="enable-background:new 0 0 32 32;" xml:space="preserve">
<style type="text/css">
	.Black{fill:#727272;}
	.Green{fill:#039C23;}
	.Yellow{fill:#FFB115;}
	.Blue{fill:#1177D7;}
	.Red{fill:#D11C1C;}
</style>
<g id="Suitcase">
	<path class="Blue" d="M2,9v18c0,0.5,0.4,1,1,1h3V8H3C2.4,8,2,8.5,2,9z"/>
	<path class="Blue" d="M29,8h-3v20h3c0.6,0,1-0.5,1-1V9C30,8.5,29.6,8,29,8z"/>
	<path class="Blue" d="M22,5c0-0.5-0.4-1-1-1H11c-0.6,0-1,0.5-1,1v3H8v20h16V8h-2V5z M20,8h-8V6h8V8z"/>
</g>
</svg>
