<?xml version="1.0" encoding="utf-8"?>
<!-- Generator: Adobe Illustrator 21.1.0, SVG Export Plug-In . SVG Version: 6.00 Build 0)  -->
<svg version="1.1" id="Layer_1" xmlns="http://www.w3.org/2000/svg" xmlns:xlink="http://www.w3.org/1999/xlink" x="0px" y="0px"
	 viewBox="0 0 32 32" style="enable-background:new 0 0 32 32;" xml:space="preserve">
<style type="text/css">
	.Black{fill:#727272;}
	.Green{fill:#039C23;}
	.Yellow{fill:#FFB115;}
	.Blue{fill:#1177D7;}
	.Red{fill:#D11C1C;}
</style>
<g id="Swim">
	<path class="Blue" d="M7,10h5.6l1.4,1.4L11.4,14c0.2,0,0.4,0,0.6,0c2.1,0,3.4,1.1,4,1.8c0.6-0.6,1.7-1.5,3.5-1.7l-5.7-5.7
		c0,0-0.1-0.1-0.1-0.1c-0.1,0-0.1-0.1-0.2-0.1C13.3,8,13.1,8,13,8c0,0,0,0,0,0H7C6.4,8,6,8.5,6,9S6.4,10,7,10z"/>
	<ellipse transform="matrix(0.7071 -0.7071 0.7071 0.7071 -0.2131 17.4854)" class="Blue" cx="21" cy="9" rx="3" ry="3"/>
	<path class="Blue" d="M25.3,17.3C24.8,17.8,24.6,18,24,18s-0.8-0.2-1.3-0.7C22.2,16.7,21.4,16,20,16s-2.2,0.7-2.7,1.3
		C16.8,17.8,16.6,18,16,18s-0.8-0.2-1.3-0.7C14.2,16.7,13.4,16,12,16s-2.2,0.7-2.7,1.3C8.8,17.8,8.6,18,8,18s-0.8-0.2-1.3-0.7
		C6.2,16.7,5.4,16,4,16v2c0.6,0,0.8,0.2,1.3,0.7C5.8,19.3,6.6,20,8,20s2.2-0.7,2.7-1.3c0.5-0.5,0.7-0.7,1.3-0.7s0.8,0.2,1.3,0.7
		c0.5,0.5,1.3,1.3,2.7,1.3s2.2-0.7,2.7-1.3c0.5-0.5,0.7-0.7,1.3-0.7s0.8,0.2,1.3,0.7c0.5,0.5,1.3,1.3,2.7,1.3s2.2-0.7,2.7-1.3
		c0.5-0.5,0.7-0.7,1.3-0.7v-2C26.6,16,25.8,16.7,25.3,17.3z"/>
	<path class="Blue" d="M24,24c-0.6,0-0.8-0.2-1.3-0.7C22.2,22.7,21.4,22,20,22s-2.2,0.7-2.7,1.3C16.8,23.8,16.6,24,16,24
		s-0.8-0.2-1.3-0.7C14.2,22.7,13.4,22,12,22s-2.2,0.7-2.7,1.3C8.8,23.8,8.6,24,8,24s-0.8-0.2-1.3-0.7C6.2,22.7,5.4,22,4,22v2
		c0.6,0,0.8,0.2,1.3,0.7C5.8,25.3,6.6,26,8,26s2.2-0.7,2.7-1.3c0.5-0.5,0.7-0.7,1.3-0.7s0.8,0.2,1.3,0.7c0.5,0.5,1.3,1.3,2.7,1.3
		s2.2-0.7,2.7-1.3c0.5-0.5,0.7-0.7,1.3-0.7s0.8,0.2,1.3,0.7c0.5,0.5,1.3,1.3,2.7,1.3s2.2-0.7,2.7-1.3c0.5-0.5,0.7-0.7,1.3-0.7v-2
		c-1.4,0-2.2,0.7-2.7,1.3C24.8,23.8,24.6,24,24,24z"/>
</g>
</svg>
