<?xml version="1.0" encoding="utf-8"?>
<!-- Generator: Adobe Illustrator 21.1.0, SVG Export Plug-In . SVG Version: 6.00 Build 0)  -->
<svg version="1.1" id="Layer_1" xmlns="http://www.w3.org/2000/svg" xmlns:xlink="http://www.w3.org/1999/xlink" x="0px" y="0px"
	 viewBox="0 0 32 32" style="enable-background:new 0 0 32 32;" xml:space="preserve">
<style type="text/css">
	.Black{fill:#727272;}
	.Green{fill:#039C23;}
	.Yellow{fill:#FFB115;}
	.Blue{fill:#1177D7;}
	.Red{fill:#D11C1C;}
</style>
<g id="Restaurant">
	<path class="Black" d="M14,10h-2V2h-2v8H8V2H6v8v1c0,2.4,1.7,4.4,4,4.9C9.1,20.2,8,26,8,27c0,1.7,1.3,3,3,3s3-1.3,3-3
		c0-1-1.1-6.8-2-11.1c2.3-0.5,4-2.5,4-4.9v-1V2h-2V10z"/>
	<path class="Black" d="M18,18h4v10c0,1.1,0.9,2,2,2s2-0.9,2-2V17v-1V8V2.8c0,0,0-0.2,0-0.8C18,2,18,18,18,18z"/>
</g>
</svg>
