<?xml version="1.0" encoding="utf-8"?>
<!-- Generator: Adobe Illustrator 21.1.0, SVG Export Plug-In . SVG Version: 6.00 Build 0)  -->
<svg version="1.1" id="Layer_1" xmlns="http://www.w3.org/2000/svg" xmlns:xlink="http://www.w3.org/1999/xlink" x="0px" y="0px"
	 viewBox="0 0 32 32" style="enable-background:new 0 0 32 32;" xml:space="preserve">
<style type="text/css">
	.Black{fill:#727272;}
	.Green{fill:#039C23;}
	.Yellow{fill:#FFB115;}
	.Blue{fill:#1177D7;}
	.Red{fill:#D11C1C;}
</style>
<g id="Ship">
	<path class="Blue" d="M12,22c2.1,0,3.4,1.1,4,1.8c0.6-0.6,1.9-1.8,4-1.8c2.1,0,3.4,1.1,4,1.8c0,0,4-9.8,4-9.8l-4-1.3V7
		c0-0.5-0.4-1-1-1h-3V5c0-0.5-0.4-1-1-1h-6c-0.6,0-1,0.5-1,1v1H9C8.4,6,8,6.5,8,7v5.7L4,14c0,0,4,9.7,4,9.8C8.6,23.1,9.9,22,12,22z
		 M10,8h3h6h3v4l-6-2l-6,2V8z"/>
	<path class="Blue" d="M24,26c-0.6,0-0.8-0.2-1.3-0.7C22.2,24.7,21.4,24,20,24s-2.2,0.7-2.7,1.3C16.8,25.8,16.6,26,16,26
		s-0.8-0.2-1.3-0.7C14.2,24.7,13.4,24,12,24s-2.2,0.7-2.7,1.3C8.8,25.8,8.6,26,8,26s-0.8-0.2-1.3-0.7C6.2,24.7,5.4,24,4,24v2
		c0.6,0,0.8,0.2,1.3,0.7C5.8,27.3,6.6,28,8,28s2.2-0.7,2.7-1.3c0.5-0.5,0.7-0.7,1.3-0.7s0.8,0.2,1.3,0.7c0.5,0.5,1.3,1.3,2.7,1.3
		s2.2-0.7,2.7-1.3c0.5-0.5,0.7-0.7,1.3-0.7s0.8,0.2,1.3,0.7c0.5,0.5,1.3,1.3,2.7,1.3s2.2-0.7,2.7-1.3c0.5-0.5,0.7-0.7,1.3-0.7v-2
		c-1.4,0-2.2,0.7-2.7,1.3C24.8,25.8,24.6,26,24,26z"/>
</g>
</svg>
