<?xml version="1.0" encoding="utf-8"?>
<!-- Generator: Adobe Illustrator 21.1.0, SVG Export Plug-In . SVG Version: 6.00 Build 0)  -->
<svg version="1.1" id="Layer_1" xmlns="http://www.w3.org/2000/svg" xmlns:xlink="http://www.w3.org/1999/xlink" x="0px" y="0px"
	 viewBox="0 0 32 32" style="enable-background:new 0 0 32 32;" xml:space="preserve">
<style type="text/css">
	.Black{fill:#727272;}
	.Green{fill:#039C23;}
	.Yellow{fill:#FFB115;}
	.Blue{fill:#1177D7;}
	.Red{fill:#D11C1C;}
</style>
<g id="Passport">
	<path class="Blue" d="M18,18h-2c0.1,1.4,0.5,2.8,1,4C17.5,20.8,17.9,19.4,18,18z"/>
	<path class="Blue" d="M17,12c-0.5,1.2-0.9,2.6-1,4h2C17.9,14.6,17.5,13.2,17,12z"/>
	<path class="Blue" d="M21.9,16c-0.3-1.5-1.3-2.7-2.6-3.4c0.3,1.1,0.6,2.2,0.7,3.4H21.9z"/>
	<path class="Blue" d="M21.9,18H20c-0.1,1.2-0.3,2.3-0.7,3.4C20.6,20.7,21.6,19.5,21.9,18z"/>
	<path class="Blue" d="M7,4h21V3c0-0.6-0.4-1-1-1H7C5.3,2,4,3.3,4,5v22c0,1.7,1.3,3,3,3h20c0.6,0,1-0.4,1-1V6H7C6.4,6,6,5.6,6,5
		C6,4.4,6.4,4,7,4z M17,10c3.9,0,7,3.1,7,7c0,3.9-3.1,7-7,7s-7-3.1-7-7C10,13.1,13.1,10,17,10z"/>
	<path class="Blue" d="M14.7,12.6c-1.3,0.7-2.3,1.9-2.6,3.4H14C14.1,14.8,14.4,13.7,14.7,12.6z"/>
	<path class="Blue" d="M14.7,21.4c-0.3-1.1-0.6-2.2-0.7-3.4h-1.9C12.4,19.5,13.4,20.7,14.7,21.4z"/>
</g>
</svg>
