<?xml version="1.0" encoding="utf-8"?>
<!-- Generator: Adobe Illustrator 21.1.0, SVG Export Plug-In . SVG Version: 6.00 Build 0)  -->
<svg version="1.1" id="Layer_1" xmlns="http://www.w3.org/2000/svg" xmlns:xlink="http://www.w3.org/1999/xlink" x="0px" y="0px"
	 viewBox="0 0 32 32" style="enable-background:new 0 0 32 32;" xml:space="preserve">
<style type="text/css">
	.Black{fill:#727272;}
	.Green{fill:#039C23;}
	.Yellow{fill:#FFB115;}
	.Blue{fill:#1177D7;}
	.Red{fill:#D11C1C;}
</style>
<g id="Pub">
	<path class="Black" d="M7,10c0.9,0,1.7-0.4,2.3-1.1C10,9.6,10.9,10,12,10s2-0.4,2.7-1.1C15.3,9.6,16.1,10,17,10
		c0.6,0,1.2-0.2,1.7-0.5C19,9.8,19.5,10,20,10c1.1,0,2-0.9,2-2c0-1.1-0.9-2-2-2c-0.1,0-0.1,0-0.2,0c-0.4-1.2-1.5-2-2.8-2
		c-0.5,0-1,0.1-1.4,0.3C15,3,13.6,2,12,2S9,3,8.4,4.3C8,4.1,7.5,4,7,4C5.3,4,4,5.3,4,7S5.3,10,7,10z"/>
	<path class="Black" d="M24,14h-2v-2H4v14c0,2.2,1.8,4,4,4h10c2.2,0,4-1.8,4-4l0,0l0,0l2,0l0,0c2.2,0,4-1.8,4-4v-4
		C28,15.8,26.2,14,24,14z M10,26H8V16h2V26z M14,26h-2V16h2V26z M18,26h-2V16h2V26z M26,22c0,1.1-0.9,2-2,2h-2v-8h2c1.1,0,2,0.9,2,2
		V22z"/>
</g>
</svg>
