<?xml version="1.0" encoding="utf-8"?>
<!-- Generator: Adobe Illustrator 21.1.0, SVG Export Plug-In . SVG Version: 6.00 Build 0)  -->
<svg version="1.1" id="Layer_1" xmlns="http://www.w3.org/2000/svg" xmlns:xlink="http://www.w3.org/1999/xlink" x="0px" y="0px"
	 viewBox="0 0 32 32" style="enable-background:new 0 0 32 32;" xml:space="preserve">
<style type="text/css">
	.Black{fill:#727272;}
	.Green{fill:#039C23;}
	.Yellow{fill:#FFB115;}
	.Blue{fill:#1177D7;}
	.Red{fill:#D11C1C;}
</style>
<g id="DoorHanger">
	<path class="Green" d="M16,2c-4.4,0-8,3.6-8,8c0,1.1,0.9,2,2,2s2-0.9,2-2c0-2.2,1.8-4,4-4s4,1.8,4,4c0,2.2-1.8,4-4,4
		c-4.4,0-8,3.6-8,8v7c0,0.5,0.4,1,1,1h14c0.6,0,1-0.5,1-1V10C24,5.6,20.4,2,16,2z M20,26h-8v-2h8V26z M20,22h-8v-2h8V22z"/>
</g>
</svg>
