<?xml version="1.0" encoding="utf-8"?>
<!-- Generator: Adobe Illustrator 21.1.0, SVG Export Plug-In . SVG Version: 6.00 Build 0)  -->
<svg version="1.1" id="Layer_1" xmlns="http://www.w3.org/2000/svg" xmlns:xlink="http://www.w3.org/1999/xlink" x="0px" y="0px"
	 viewBox="0 0 32 32" style="enable-background:new 0 0 32 32;" xml:space="preserve">
<style type="text/css">
	.Black{fill:#727272;}
	.Green{fill:#039C23;}
	.Yellow{fill:#FFB115;}
	.Blue{fill:#1177D7;}
	.Red{fill:#D11C1C;}
</style>
<g id="Car">
	<path class="Green" d="M24,4H8L4,14v9v1v3c0,0.5,0.4,1,1,1h2c0.6,0,1-0.5,1-1v-3h16v3c0,0.5,0.4,1,1,1h2c0.6,0,1-0.5,1-1v-3v-1v-9
		L24,4z M9.4,6h13.3l3.2,8H6.2L9.4,6z M10,20c-1.1,0-2-0.9-2-2c0-1.1,0.9-2,2-2s2,0.9,2,2C12,19.1,11.1,20,10,20z M22,20
		c-1.1,0-2-0.9-2-2c0-1.1,0.9-2,2-2s2,0.9,2,2C24,19.1,23.1,20,22,20z"/>
</g>
</svg>
