<?xml version="1.0" encoding="utf-8"?>
<!-- Generator: Adobe Illustrator 21.1.0, SVG Export Plug-In . SVG Version: 6.00 Build 0)  -->
<svg version="1.1" id="Layer_1" xmlns="http://www.w3.org/2000/svg" xmlns:xlink="http://www.w3.org/1999/xlink" x="0px" y="0px"
	 viewBox="0 0 32 32" style="enable-background:new 0 0 32 32;" xml:space="preserve">
<style type="text/css">
	.Blue{fill:#1177D7;}
	.Black{fill:#727272;}
	.Yellow{fill:#FFB115;}
	.Red{fill:#D11C1C;}
</style>
<g id="SnowfallLight">
	<polygon class="Blue" points="18,23.1 16,24.3 16,22 14,22 14,24.3 12,23.1 11,24.9 13,26 11,27.1 12,28.9 14,27.7 14,30 16,30 
		16,27.7 18,28.9 19,27.1 17,26 19,24.9 	"/>
	<path class="Blue" d="M26,12c0,0-0.1,0-0.1,0c0.1-0.3,0.1-0.7,0.1-1c0-2.8-2.2-5-5-5c-0.5,0-1.1,0.1-1.6,0.3C18.4,3.8,15.9,2,13,2
		C9.1,2,6,5.1,6,9c0,0.4,0,0.7,0.1,1.1C3.8,10.5,2,12.5,2,15c0,2.8,2.2,5,5,5h19c2.2,0,4-1.8,4-4C30,13.8,28.2,12,26,12z"/>
</g>
</svg>
