<?xml version="1.0" encoding="utf-8"?>
<!-- Generator: Adobe Illustrator 21.1.0, SVG Export Plug-In . SVG Version: 6.00 Build 0)  -->
<svg version="1.1" id="PartlyCloudyDay" xmlns="http://www.w3.org/2000/svg" xmlns:xlink="http://www.w3.org/1999/xlink" x="0px"
	 y="0px" viewBox="0 0 32 32" style="enable-background:new 0 0 32 32;" xml:space="preserve">
<style type="text/css">
	.Blue{fill:#1177D7;}
	.Yellow{fill:#FFB115;}
</style>
<rect x="23.4" y="9.6" transform="matrix(0.7071 -0.7071 0.7071 0.7071 -5.630518e-02 21.0355)" class="Yellow" width="4" height="2"/>
<rect x="11.6" y="8.6" transform="matrix(0.7071 -0.7071 0.7071 0.7071 -3.8345 12.014)" class="Yellow" width="2" height="4"/>
<rect x="18" y="6" class="Yellow" width="2" height="4"/>
<rect x="26" y="16" class="Yellow" width="4" height="2"/>
<rect x="24.4" y="21.4" transform="matrix(0.7071 -0.7071 0.7071 0.7071 -9.0771 24.814)" class="Yellow" width="2" height="4"/>
<path class="Yellow" d="M19,12c-1.4,0-2.7,0.6-3.6,1.6c0.8,0.7,1.5,1.5,1.9,2.5c2.6,0.2,4.7,2.3,4.7,4.9c1.2-0.9,2-2.3,2-4
	C24,14.2,21.8,12,19,12z"/>
<path class="Blue" d="M20,22h-0.2c0.1-0.3,0.2-0.6,0.2-1c0-1.7-1.3-3-3-3c-0.4,0-0.7,0.1-1.1,0.2C15.5,15.8,13.5,14,11,14
	c-2.4,0-4.4,1.7-4.9,4H6c-2.2,0-4,1.8-4,4s1.8,4,4,4h4h7h3c1.1,0,2-0.9,2-2S21.1,22,20,22z"/>
</svg>
