<?xml version="1.0" encoding="utf-8"?>
<!-- Generator: Adobe Illustrator 21.1.0, SVG Export Plug-In . SVG Version: 6.00 Build 0)  -->
<svg version="1.1" id="Layer_1" xmlns="http://www.w3.org/2000/svg" xmlns:xlink="http://www.w3.org/1999/xlink" x="0px" y="0px"
	 viewBox="0 0 32 32" style="enable-background:new 0 0 32 32;" xml:space="preserve">
<style type="text/css">
	.Blue{fill:#1177D7;}
	.Black{fill:#727272;}
	.Yellow{fill:#FFB115;}
	.Red{fill:#D11C1C;}
</style>
<g id="Water">
	<path class="Blue" d="M24,22c-0.6,0-0.8-0.2-1.3-0.7C22.2,20.7,21.4,20,20,20s-2.2,0.7-2.7,1.3C16.8,21.8,16.6,22,16,22
		s-0.8-0.2-1.3-0.7C14.2,20.7,13.4,20,12,20s-2.2,0.7-2.7,1.3C8.8,21.8,8.6,22,8,22s-0.8-0.2-1.3-0.7C6.2,20.7,5.4,20,4,20v2
		c0.6,0,0.8,0.2,1.3,0.7C5.8,23.3,6.6,24,8,24s2.2-0.7,2.7-1.3c0.5-0.5,0.7-0.7,1.3-0.7s0.8,0.2,1.3,0.7c0.5,0.5,1.3,1.3,2.7,1.3
		s2.2-0.7,2.7-1.3c0.5-0.5,0.7-0.7,1.3-0.7s0.8,0.2,1.3,0.7c0.5,0.5,1.3,1.3,2.7,1.3s2.2-0.7,2.7-1.3c0.5-0.5,0.7-0.7,1.3-0.7v-2
		c-1.4,0-2.2,0.7-2.7,1.3C24.8,21.8,24.6,22,24,22z"/>
	<path class="Blue" d="M24,16c-0.6,0-0.8-0.2-1.3-0.7C22.2,14.7,21.4,14,20,14s-2.2,0.7-2.7,1.3C16.8,15.8,16.6,16,16,16
		s-0.8-0.2-1.3-0.7C14.2,14.7,13.4,14,12,14s-2.2,0.7-2.7,1.3C8.8,15.8,8.6,16,8,16s-0.8-0.2-1.3-0.7C6.2,14.7,5.4,14,4,14v2
		c0.6,0,0.8,0.2,1.3,0.7C5.8,17.3,6.6,18,8,18s2.2-0.7,2.7-1.3c0.5-0.5,0.7-0.7,1.3-0.7s0.8,0.2,1.3,0.7c0.5,0.5,1.3,1.3,2.7,1.3
		s2.2-0.7,2.7-1.3c0.5-0.5,0.7-0.7,1.3-0.7s0.8,0.2,1.3,0.7c0.5,0.5,1.3,1.3,2.7,1.3s2.2-0.7,2.7-1.3c0.5-0.5,0.7-0.7,1.3-0.7v-2
		c-1.4,0-2.2,0.7-2.7,1.3C24.8,15.8,24.6,16,24,16z"/>
	<path class="Blue" d="M25.3,9.3C24.8,9.8,24.6,10,24,10s-0.8-0.2-1.3-0.7C22.2,8.7,21.4,8,20,8s-2.2,0.7-2.7,1.3
		C16.8,9.8,16.6,10,16,10s-0.8-0.2-1.3-0.7C14.2,8.7,13.4,8,12,8S9.8,8.7,9.3,9.3C8.8,9.8,8.6,10,8,10S7.2,9.8,6.7,9.3
		C6.2,8.7,5.4,8,4,8v2c0.6,0,0.8,0.2,1.3,0.7C5.8,11.3,6.6,12,8,12s2.2-0.7,2.7-1.3c0.5-0.5,0.7-0.7,1.3-0.7s0.8,0.2,1.3,0.7
		c0.5,0.5,1.3,1.3,2.7,1.3s2.2-0.7,2.7-1.3c0.5-0.5,0.7-0.7,1.3-0.7s0.8,0.2,1.3,0.7c0.5,0.5,1.3,1.3,2.7,1.3s2.2-0.7,2.7-1.3
		c0.5-0.5,0.7-0.7,1.3-0.7V8C26.6,8,25.8,8.7,25.3,9.3z"/>
</g>
</svg>
