<?xml version="1.0" encoding="utf-8"?>
<!-- Generator: Adobe Illustrator 21.1.0, SVG Export Plug-In . SVG Version: 6.00 Build 0)  -->
<svg version="1.1" id="Layer_1" xmlns="http://www.w3.org/2000/svg" xmlns:xlink="http://www.w3.org/1999/xlink" x="0px" y="0px"
	 viewBox="0 0 32 32" style="enable-background:new 0 0 32 32;" xml:space="preserve">
<style type="text/css">
	.Blue{fill:#1177D7;}
	.Black{fill:#727272;}
	.Yellow{fill:#FFB115;}
	.Red{fill:#D11C1C;}
</style>
<g id="RainLight">
	<polygon class="Blue" points="10,28 12,28 14,22 12,22 	"/>
	<polygon class="Blue" points="16,28 18,28 20,22 18,22 	"/>
	<path class="Blue" d="M27,14c-0.4,0-0.8,0.1-1.2,0.2c0.1-0.4,0.2-0.8,0.2-1.2c0-2.8-2.2-5-5-5c-0.5,0-1.1,0.1-1.6,0.3
		C18.4,5.8,15.9,4,13,4c-3.9,0-7,3.1-7,7c0,0.3,0,0.7,0.1,1c0,0-0.1,0-0.1,0c-2.2,0-4,1.8-4,4c0,2.2,1.8,4,4,4h21c1.7,0,3-1.3,3-3
		S28.7,14,27,14z"/>
</g>
</svg>
