<?xml version="1.0" encoding="utf-8"?>
<!-- Generator: Adobe Illustrator 21.1.0, SVG Export Plug-In . SVG Version: 6.00 Build 0)  -->
<svg version="1.1" id="Layer_1" xmlns="http://www.w3.org/2000/svg" xmlns:xlink="http://www.w3.org/1999/xlink" x="0px" y="0px"
	 viewBox="0 0 32 32" style="enable-background:new 0 0 32 32;" xml:space="preserve">
<style type="text/css">
	.Blue{fill:#1177D7;}
	.Black{fill:#727272;}
	.Yellow{fill:#FFB115;}
	.Red{fill:#D11C1C;}
</style>
<g id="Temperature">
	<path class="Black" d="M22,16.7V8c0-3.3-2.7-6-6-6s-6,2.7-6,6v8.7C8.8,18.1,8,20,8,22c0,4.4,3.6,8,8,8s8-3.6,8-8
		C24,20,23.2,18.1,22,16.7z M16,28c-3.3,0-6-2.7-6-6c0-1.8,0.8-3.4,2-4.5V8c0-2.2,1.8-4,4-4s4,1.8,4,4v9.5c1.2,1.1,2,2.7,2,4.5
		C22,25.3,19.3,28,16,28z"/>
	<path class="Blue" d="M18,18.6V8c0-1.1-0.9-2-2-2s-2,0.9-2,2v10.6c-1.2,0.7-2,2-2,3.4c0,2.2,1.8,4,4,4s4-1.8,4-4
		C20,20.5,19.2,19.2,18,18.6z"/>
</g>
</svg>
