<?xml version="1.0" encoding="utf-8"?>
<!-- Generator: Adobe Illustrator 21.1.0, SVG Export Plug-In . SVG Version: 6.00 Build 0)  -->
<svg version="1.1" id="Layer_1" xmlns="http://www.w3.org/2000/svg" xmlns:xlink="http://www.w3.org/1999/xlink" x="0px" y="0px"
	 viewBox="0 0 32 32" style="enable-background:new 0 0 32 32;" xml:space="preserve">
<style type="text/css">
	.Blue{fill:#1177D7;}
	.Black{fill:#727272;}
	.Yellow{fill:#FFB115;}
	.Red{fill:#D11C1C;}
</style>
<g id="DegreeCelsius">
	<path class="Blue" d="M8,4C5.8,4,4,5.8,4,8c0,2.2,1.8,4,4,4s4-1.8,4-4C12,5.8,10.2,4,8,4z M8,10c-1.1,0-2-0.9-2-2c0-1.1,0.9-2,2-2
		s2,0.9,2,2C10,9.1,9.1,10,8,10z"/>
	<path class="Blue" d="M23.8,20c0,0.1,0,0.3-0.1,0.4c-0.2,0.7-0.5,1.4-0.8,1.9c-0.4,0.5-0.8,1-1.3,1.3c-0.5,0.3-1,0.4-1.5,0.4
		c-0.6,0-1.1-0.2-1.5-0.4c-0.5-0.3-1-0.7-1.3-1.3c-0.4-0.5-0.6-1.2-0.8-1.9c-0.2-0.7-0.3-1.5-0.3-2.3c0,0,0,0,0-0.1c0,0,0,0,0-0.1
		c0-0.8,0.1-1.6,0.3-2.3c0.2-0.7,0.5-1.4,0.8-1.9c0.4-0.5,0.8-1,1.3-1.3c0.5-0.3,1-0.4,1.5-0.4c0.6,0,1.1,0.2,1.5,0.4
		c0.5,0.3,1,0.7,1.3,1.3c0.4,0.5,0.6,1.2,0.8,1.9c0,0.1,0,0.3,0.1,0.4h4.1c-0.1-0.7-0.2-1.4-0.4-2c-0.4-1.2-0.9-2.3-1.7-3.1
		C25,10,24.1,9.3,23.1,8.7c-0.9-0.4-2-0.7-3.1-0.7c-1.1,0.1-2.2,0.3-3.1,0.7c-1.1,0.5-1.9,1.2-2.7,2.1c-0.7,0.9-1.3,1.9-1.7,3.1
		c-0.4,1.2-0.6,2.5-0.6,3.9c0,0,0,0.1,0,0.1c0,0,0,0.1,0,0.1c0,1.4,0.2,2.7,0.6,3.9c0.4,1.2,0.9,2.3,1.7,3.1
		c0.7,0.9,1.6,1.6,2.7,2.1c0.9,0.4,2,0.7,3.1,0.7c1.1-0.1,2.2-0.3,3.1-0.7c1.1-0.5,1.9-1.2,2.7-2.1c0.7-0.9,1.3-1.9,1.7-3.1
		c0.2-0.6,0.3-1.3,0.4-2H23.8z"/>
</g>
</svg>
