<?xml version="1.0" encoding="utf-8"?>
<!-- Generator: Adobe Illustrator 21.1.0, SVG Export Plug-In . SVG Version: 6.00 Build 0)  -->
<svg version="1.1" id="Layer_1" xmlns="http://www.w3.org/2000/svg" xmlns:xlink="http://www.w3.org/1999/xlink" x="0px" y="0px"
	 viewBox="0 0 32 32" style="enable-background:new 0 0 32 32;" xml:space="preserve">
<style type="text/css">
	.Blue{fill:#1177D7;}
	.Black{fill:#727272;}
	.Yellow{fill:#FFB115;}
	.Red{fill:#D11C1C;}
</style>
<g id="Snowfall">
	<polygon class="Blue" points="12,23.1 10,24.3 10,22 8,22 8,24.3 6,23.1 5,24.9 7,26 5,27.1 6,28.9 8,27.7 8,30 10,30 10,27.7 
		12,28.9 13,27.1 11,26 13,24.9 	"/>
	<polygon class="Blue" points="24,23.1 22,24.3 22,22 20,22 20,24.3 18,23.1 17,24.9 19,26 17,27.1 18,28.9 20,27.7 20,30 22,30 
		22,27.7 24,28.9 25,27.1 23,26 25,24.9 	"/>
	<path class="Blue" d="M26,12c0,0-0.1,0-0.1,0c0.1-0.3,0.1-0.7,0.1-1c0-2.8-2.2-5-5-5c-0.5,0-1.1,0.1-1.6,0.3C18.4,3.8,15.9,2,13,2
		C9.1,2,6,5.1,6,9c0,0.4,0,0.7,0.1,1.1C3.8,10.5,2,12.5,2,15c0,2.8,2.2,5,5,5h19c2.2,0,4-1.8,4-4C30,13.8,28.2,12,26,12z"/>
</g>
</svg>
