<?xml version="1.0" encoding="utf-8"?>
<!-- Generator: Adobe Illustrator 21.1.0, SVG Export Plug-In . SVG Version: 6.00 Build 0)  -->
<svg version="1.1" id="Layer_1" xmlns="http://www.w3.org/2000/svg" xmlns:xlink="http://www.w3.org/1999/xlink" x="0px" y="0px"
	 viewBox="0 0 32 32" style="enable-background:new 0 0 32 32;" xml:space="preserve">
<style type="text/css">
	.Blue{fill:#1177D7;}
	.Black{fill:#727272;}
	.Yellow{fill:#FFB115;}
	.Red{fill:#D11C1C;}
</style>
<g id="DegreeFahrenheit">
	<path class="Blue" d="M8,4C5.8,4,4,5.8,4,8c0,2.2,1.8,4,4,4s4-1.8,4-4C12,5.8,10.2,4,8,4z M8,10c-1.1,0-2-0.9-2-2c0-1.1,0.9-2,2-2
		s2,0.9,2,2C10,9.1,9.1,10,8,10z"/>
	<polygon class="Blue" points="28,12 28,8 18,8 14,8 14,28 18,28 18,20 26,20 26,16 18,16 18,12 	"/>
</g>
</svg>
