<?xml version="1.0" encoding="utf-8"?>
<!-- Generator: Adobe Illustrator 21.1.0, SVG Export Plug-In . SVG Version: 6.00 Build 0)  -->
<svg version="1.1" id="Layer_1" xmlns="http://www.w3.org/2000/svg" xmlns:xlink="http://www.w3.org/1999/xlink" x="0px" y="0px"
	 viewBox="0 0 32 32" style="enable-background:new 0 0 32 32;" xml:space="preserve">
<style type="text/css">
	.Blue{fill:#1177D7;}
	.Black{fill:#727272;}
	.Yellow{fill:#FFB115;}
	.Red{fill:#D11C1C;}
</style>
<g id="Snow_3_">
	<polygon class="Blue" points="26.5,15.9 21.1,17.4 17,15 21.1,12.6 26.5,14.1 27,12.1 23.5,11.2 26.6,9.5 25.6,7.7 22.5,9.5 
		23.5,6 21.6,5.5 20.1,10.9 16,13.3 16,8.4 20,4.4 18.6,3 16,5.6 16,2 14,2 14,5.6 11.4,3 10,4.4 14,8.4 14,13.3 9.9,10.9 8.4,5.5 
		6.5,6 7.5,9.5 4.4,7.7 3.4,9.5 6.5,11.2 3,12.1 3.5,14.1 8.9,12.6 13,15 8.9,17.4 3.5,15.9 3,17.9 6.5,18.8 3.4,20.5 4.4,22.3 
		7.5,20.5 6.5,24 8.4,24.5 9.9,19.1 14,16.7 14,21.6 10,25.6 11.4,27 14,24.4 14,28 16,28 16,24.4 18.6,27 20,25.6 16,21.6 16,16.7 
		20.1,19.1 21.6,24.5 23.5,24 22.5,20.5 25.6,22.3 26.6,20.5 23.5,18.8 27,17.9 	"/>
</g>
</svg>
