<?xml version="1.0" encoding="utf-8"?>
<!-- Generator: Adobe Illustrator 21.1.0, SVG Export Plug-In . SVG Version: 6.00 Build 0)  -->
<svg version="1.1" id="Layer_1" xmlns="http://www.w3.org/2000/svg" xmlns:xlink="http://www.w3.org/1999/xlink" x="0px" y="0px"
	 viewBox="0 0 32 32" style="enable-background:new 0 0 32 32;" xml:space="preserve">
<style type="text/css">
	.Blue{fill:#1177D7;}
	.Black{fill:#727272;}
	.Yellow{fill:#FFB115;}
	.Red{fill:#D11C1C;}
</style>
<g id="Umbrella">
	<path class="Red" d="M27.9,16c0-0.3,0.1-0.7,0.1-1c0-7.2-5.8-13-13-13S2,7.8,2,15c0,0.3,0,0.7,0.1,1H27.9z"/>
	<path class="Black" d="M14,16v10c0,1.1-0.9,2-2,2s-2-0.9-2-2v-1c0-0.6-0.4-1-1-1s-1,0.4-1,1v1c0,2.2,1.8,4,4,4s4-1.8,4-4V16H14z"/>
</g>
</svg>
