<?xml version="1.0" encoding="utf-8"?>
<!-- Generator: Adobe Illustrator 21.1.0, SVG Export Plug-In . SVG Version: 6.00 Build 0)  -->
<svg version="1.1" id="Layer_1" xmlns="http://www.w3.org/2000/svg" xmlns:xlink="http://www.w3.org/1999/xlink" x="0px" y="0px"
	 viewBox="0 0 32 32" style="enable-background:new 0 0 32 32;" xml:space="preserve">
<style type="text/css">
	.Blue{fill:#1177D7;}
	.Black{fill:#727272;}
	.Yellow{fill:#FFB115;}
	.Red{fill:#D11C1C;}
</style>
<g id="Storm">
	<path class="Blue" d="M27,12c-0.4,0-0.8,0.1-1.2,0.2c0.1-0.4,0.2-0.8,0.2-1.2c0-2.8-2.2-5-5-5c-0.5,0-1.1,0.1-1.6,0.3
		C18.4,3.8,15.9,2,13,2C9.1,2,6,5.1,6,9c0,0.3,0,0.7,0.1,1c0,0-0.1,0-0.1,0c-2.2,0-4,1.8-4,4c0,2.2,1.8,4,4,4h1.8l3-6h11l-4,6h5.1
		H27c1.7,0,3-1.3,3-3S28.7,12,27,12z"/>
	<polygon class="Yellow" points="18,14 12,14 8,22 12,22 8,30 18,20 14,20 	"/>
</g>
</svg>
