<?xml version="1.0" encoding="utf-8"?>
<!-- Generator: Adobe Illustrator 21.1.0, SVG Export Plug-In . SVG Version: 6.00 Build 0)  -->
<svg version="1.1" id="Layer_1" xmlns="http://www.w3.org/2000/svg" xmlns:xlink="http://www.w3.org/1999/xlink" x="0px" y="0px"
	 viewBox="0 0 32 32" style="enable-background:new 0 0 32 32;" xml:space="preserve">
<style type="text/css">
	.Blue{fill:#1177D7;}
	.Black{fill:#727272;}
	.Yellow{fill:#FFB115;}
	.Red{fill:#D11C1C;}
</style>
<g id="SnowfallHeavy">
	<polygon class="Blue" points="11,24.9 10,23.1 8,24.3 8,22 6,22 6,24.3 4,23.1 3,24.9 5,26 3,27.1 4,28.9 6,27.7 6,30 8,30 8,27.7 
		10,28.9 11,27.1 9,26 	"/>
	<polygon class="Blue" points="20,24.9 19,23.1 17,24.3 17,22 15,22 15,24.3 13,23.1 12,24.9 14,26 12,27.1 13,28.9 15,27.7 15,30 
		17,30 17,27.7 19,28.9 20,27.1 18,26 	"/>
	<polygon class="Blue" points="29,24.9 28,23.1 26,24.3 26,22 24,22 24,24.3 22,23.1 21,24.9 23,26 21,27.1 22,28.9 24,27.7 24,30 
		26,30 26,27.7 28,28.9 29,27.1 27,26 	"/>
	<path class="Blue" d="M30,16c0,2.2-1.8,4-4,4H7c-2.8,0-5-2.2-5-5c0-2.5,1.8-4.5,4.1-4.9C6,9.7,6,9.4,6,9c0-3.9,3.1-7,7-7
		c2.9,0,5.4,1.8,6.4,4.3C19.9,6.1,20.5,6,21,6c2.8,0,5,2.2,5,5c0,0.3,0,0.7-0.1,1c0,0,0.1,0,0.1,0C28.2,12,30,13.8,30,16z"/>
</g>
</svg>
