<?xml version="1.0" encoding="utf-8"?>
<!-- Generator: Adobe Illustrator 21.1.0, SVG Export Plug-In . SVG Version: 6.00 Build 0)  -->
<svg version="1.1" id="PartlyCloudyNight" xmlns="http://www.w3.org/2000/svg" xmlns:xlink="http://www.w3.org/1999/xlink" x="0px"
	 y="0px" viewBox="0 0 32 32" style="enable-background:new 0 0 32 32;" xml:space="preserve">
<style type="text/css">
	.Blue{fill:#1177D7;}
	.Yellow{fill:#FFB115;}
</style>
<path class="Yellow" d="M29.8,12.3C29.2,14.4,27.3,16,25,16c-2.8,0-5-2.2-5-5c0-2.3,1.6-4.2,3.7-4.8C23.2,6.1,22.6,6,22,6
	c-4,0-7.3,2.9-7.9,6.7c1.4,0.7,2.5,1.8,3.2,3.3c2.5,0.2,4.4,2.1,4.7,4.5c0.6,0.3,1.1,0.8,1.4,1.3c3.8-0.7,6.6-3.9,6.6-7.9
	C30,13.4,29.9,12.8,29.8,12.3z"/>
<path class="Blue" d="M20,22h-0.2c0.1-0.3,0.2-0.6,0.2-1c0-1.7-1.3-3-3-3c-0.4,0-0.7,0.1-1.1,0.2C15.5,15.8,13.5,14,11,14
	c-2.4,0-4.4,1.7-4.9,4H6c-2.2,0-4,1.8-4,4s1.8,4,4,4h4h7h3c1.1,0,2-0.9,2-2S21.1,22,20,22z"/>
</svg>
