<?xml version="1.0" encoding="utf-8"?>
<!-- Generator: Adobe Illustrator 21.1.0, SVG Export Plug-In . SVG Version: 6.00 Build 0)  -->
<svg version="1.1" id="Layer_1" xmlns="http://www.w3.org/2000/svg" xmlns:xlink="http://www.w3.org/1999/xlink" x="0px" y="0px"
	 viewBox="0 0 32 32" style="enable-background:new 0 0 32 32;" xml:space="preserve">
<style type="text/css">
	.Black{fill:#727272;}
	.Yellow{fill:#FFB115;}
	.Blue{fill:#1177D7;}
	.Red{fill:#D11C1C;}
	.White{fill:#FFFFFF;}
	.Green{fill:#039C23;}
	.st0{fill:#727272;}
	.st1{opacity:0.5;}
	.st2{opacity:0.75;}
</style>
<g id="A">
	<path class="Green" d="M16.3,12l1,4h-2.7l1-4.1c0.1-0.3,0.2-0.9,0.3-1.7h0.1c0,0,0,0.1,0.1,0.3C16.2,11.2,16.3,11.7,16.3,12z
		 M30,16c0,7.7-6.3,14-14,14S2,23.7,2,16S8.3,2,16,2S30,8.3,30,16z M22,22L17.8,8h-3.5L10,22h3.2l1-4l3.6,0l1,4H22z"/>
</g>
</svg>
