<?xml version="1.0" encoding="utf-8"?>
<!-- Generator: Adobe Illustrator 21.1.0, SVG Export Plug-In . SVG Version: 6.00 Build 0)  -->
<svg version="1.1" id="Layer_1" xmlns="http://www.w3.org/2000/svg" xmlns:xlink="http://www.w3.org/1999/xlink" x="0px" y="0px"
	 viewBox="0 0 32 32" style="enable-background:new 0 0 32 32;" xml:space="preserve">
<style type="text/css">
	.Yellow{fill:#FFB115;}
	.Red{fill:#D11C1C;}
	.Blue{fill:#1177D7;}
	.Green{fill:#039C23;}
	.Black{fill:#727272;}
	.White{fill:#FFFFFF;}
	.st0{opacity:0.5;}
	.st1{display:none;}
	.st2{display:inline;fill:#039C23;}
	.st3{display:inline;fill:#D11C1C;}
	.st4{display:inline;fill:#727272;}
</style>
<g id="AssignTask">
	<path class="Black" d="M18,2V1c0-0.6-0.4-1-1-1h-4c-0.6,0-1,0.4-1,1v1h-2v4h10V2H18z"/>
	<path class="Blue" d="M30,29.1V30H18v-0.9c0-4,2.3-3.3,3.6-4.6c0.5,0.8,1.3,1.5,2.4,1.5c1.1,0,1.9-0.6,2.5-1.4
		C27.8,25.8,30,25.1,30,29.1z M20.9,20.8v0.1c0.4,1.5,1.3,3.1,3.1,3.1s2.8-1.6,3.2-3.1v-0.1c0.7,0,0.4-0.7,0.6-1s0.3-0.5,0.2-0.9
		c-0.1-0.3-0.3-0.2-0.4-0.2c1.2-3.1-0.7-2.9-0.7-2.9S26.7,14,23.2,14c-3.2,0-3.6,2.5-2.9,4.7c0,0.1-0.2,0.1-0.3,0.2
		c-0.1,0.4,0.1,0.6,0.3,0.9S20.2,20.8,20.9,20.8z"/>
	<path class="Yellow" d="M4,12V3c0-0.6,0.4-1,1-1h3v10H4z M23.2,12c1.1,0,2,0.2,2.8,0.4V3c0-0.6-0.4-1-1-1h-3v10.1
		C22.4,12,22.8,12,23.2,12z M18.4,24H8v-4H4v7c0,0.6,0.4,1,1,1h11.1C16.3,25.7,17.3,24.7,18.4,24z"/>
	<polygon class="Green" points="10,10 16,16 10,22 10,18 2,18 2,14 10,14 	"/>
</g>
</svg>
