<?xml version="1.0" encoding="utf-8"?>
<!-- Generator: Adobe Illustrator 21.1.0, SVG Export Plug-In . SVG Version: 6.00 Build 0)  -->
<svg version="1.1" id="Layer_1" xmlns="http://www.w3.org/2000/svg" xmlns:xlink="http://www.w3.org/1999/xlink" x="0px" y="0px"
	 viewBox="0 0 32 32" style="enable-background:new 0 0 32 32;" xml:space="preserve">
<style type="text/css">
	.Black{fill:#727272;}
	.Yellow{fill:#FFB115;}
	.Blue{fill:#1177D7;}
	.Red{fill:#D11C1C;}
	.White{fill:#FFFFFF;}
	.Green{fill:#039C23;}
	.st0{fill:#727272;}
	.st1{opacity:0.5;}
	.st2{opacity:0.75;}
</style>
<g id="B">
	<path class="Red" d="M16.4,13.7h-1.3v-3.4h1.1c1.4,0,2.1,0.5,2.1,1.6c0,0.5-0.2,0.9-0.5,1.3C17.4,13.5,16.9,13.7,16.4,13.7z
		 M16.7,16h-1.6v3.7h1.6c0.7,0,1.2-0.2,1.5-0.5c0.4-0.3,0.5-0.8,0.5-1.4c0-0.6-0.2-1-0.6-1.3C17.8,16.1,17.3,16,16.7,16z M30,16
		c0,7.7-6.3,14-14,14S2,23.7,2,16S8.3,2,16,2S30,8.3,30,16z M22,17.8c0-0.8-0.3-1.6-0.9-2.2s-1.3-1-2.2-1.1v0
		c0.8-0.2,1.4-0.6,1.9-1.1c0.5-0.6,0.7-1.2,0.7-2C21.5,9.1,20,8,16.9,8H12v14h5.2c1.5,0,2.7-0.4,3.6-1.1C21.6,20.1,22,19.1,22,17.8z
		"/>
</g>
</svg>
