<?xml version="1.0" encoding="utf-8"?>
<!-- Generator: Adobe Illustrator 21.1.0, SVG Export Plug-In . SVG Version: 6.00 Build 0)  -->
<svg version="1.1" id="Layer_1" xmlns="http://www.w3.org/2000/svg" xmlns:xlink="http://www.w3.org/1999/xlink" x="0px" y="0px"
	 viewBox="0 0 32 32" style="enable-background:new 0 0 32 32;" xml:space="preserve">
<style type="text/css">
	.Yellow{fill:#FFB115;}
	.Red{fill:#D11C1C;}
	.Blue{fill:#1177D7;}
	.Green{fill:#039C23;}
	.Black{fill:#727272;}
	.White{fill:#FFFFFF;}
	.st0{opacity:0.5;}
	.st1{display:none;}
	.st2{display:inline;fill:#039C23;}
	.st3{display:inline;fill:#D11C1C;}
	.st4{display:inline;fill:#727272;}
</style>
<g id="Bold">
	<path class="Black" d="M8,26V4h8c2.5,0,4.3,0.5,5.7,1.4c1.3,0.9,2,2.2,2,3.8c0,1.2-0.4,2.2-1.2,3.1c-0.8,0.9-1.8,1.5-3.1,1.9v0.1
		c1.6,0.2,2.8,0.8,3.8,1.7c0.9,1,1.4,2.1,1.4,3.5c0,2-0.7,3.6-2.2,4.8C20.9,25.4,19,26,16.5,26H8z M13,7.7v5.2h2.2
		c1,0,1.8-0.2,2.4-0.7s0.9-1.2,0.9-2c0-1.6-1.2-2.4-3.6-2.4L13,7.7L13,7.7z M13,16.6v5.8h2.7c1.1,0,2-0.3,2.7-0.8
		c0.6-0.5,1-1.3,1-2.2c0-0.9-0.3-1.6-1-2.1c-0.6-0.5-1.5-0.8-2.7-0.8L13,16.6L13,16.6z"/>
</g>
</svg>
