<?xml version="1.0" encoding="utf-8"?>
<!-- Generator: Adobe Illustrator 21.1.0, SVG Export Plug-In . SVG Version: 6.00 Build 0)  -->
<svg version="1.1" id="Layer_1" xmlns="http://www.w3.org/2000/svg" xmlns:xlink="http://www.w3.org/1999/xlink" x="0px" y="0px"
	 viewBox="0 0 32 32" style="enable-background:new 0 0 32 32;" xml:space="preserve">
<style type="text/css">
	.Yellow{fill:#FFB115;}
	.Red{fill:#D11C1C;}
	.Blue{fill:#1177D7;}
	.Green{fill:#039C23;}
	.Black{fill:#727272;}
	.White{fill:#FFFFFF;}
	.st0{opacity:0.5;}
	.st1{display:none;}
	.st2{display:inline;fill:#039C23;}
	.st3{display:inline;fill:#D11C1C;}
	.st4{display:inline;fill:#727272;}
</style>
<g id="BuyNow">
	<path class="Red" d="M13,24c1.7,0,3,1.3,3,3s-1.3,3-3,3s-3-1.3-3-3S11.3,24,13,24z M16.3,18h7.9c0.4,0,0.7-0.2,0.9-0.5l4.8-8
		C30.3,8.8,29.8,8,29,8H10.4L6.8,2l0,0H2v2h3.7l7.8,13.2L10.6,20l-0.4,0.4C9.7,21,10.1,22,11,22h0.5H28v-2H13.5l2-2H16.3z M25,24
		c1.7,0,3,1.3,3,3s-1.3,3-3,3s-3-1.3-3-3S23.3,24,25,24z"/>
</g>
</svg>
