<?xml version="1.0" encoding="utf-8"?>
<!-- Generator: Adobe Illustrator 21.1.0, SVG Export Plug-In . SVG Version: 6.00 Build 0)  -->
<svg version="1.1" id="Layer_1" xmlns="http://www.w3.org/2000/svg" xmlns:xlink="http://www.w3.org/1999/xlink" x="0px" y="0px"
	 viewBox="0 0 32 32" style="enable-background:new 0 0 32 32;" xml:space="preserve">
<style type="text/css">
	.Yellow{fill:#FFB115;}
	.Red{fill:#D11C1C;}
	.Blue{fill:#1177D7;}
	.Green{fill:#039C23;}
	.Black{fill:#727272;}
	.White{fill:#FFFFFF;}
	.st0{opacity:0.5;}
	.st1{display:none;}
	.st2{display:inline;fill:#039C23;}
	.st3{display:inline;fill:#D11C1C;}
	.st4{display:inline;fill:#727272;}
</style>
<g id="ClearFormatting">
	<path class="Black" d="M1.1,11.2c0-0.6,0.2-1.2,0.5-1.6c0.3-0.4,0.6-0.8,1.1-1C3,8.4,3.5,8.2,4.1,8.1C4.6,8,5.1,7.9,5.7,7.9
		c0.5,0,1,0,1.5,0.1c0.5,0.1,1,0.2,1.4,0.4c0.4,0.2,0.8,0.5,1,0.8s0.4,0.8,0.4,1.4v5.1c0,0.4,0,0.9,0.1,1.3c0.1,0.4,0.1,0.7,0.3,0.9
		H7.6c-0.1-0.2-0.1-0.3-0.1-0.5c0-0.2-0.1-0.3-0.1-0.5C7,17.5,6.5,17.8,5.9,18c-0.6,0.2-1.2,0.3-1.8,0.3c-0.5,0-0.9-0.1-1.3-0.2
		C2.4,18,2,17.8,1.7,17.5C1.4,17.3,1.2,17,1,16.6c-0.2-0.4-0.3-0.8-0.3-1.3c0-0.6,0.1-1,0.3-1.4s0.4-0.6,0.8-0.9
		c0.3-0.2,0.7-0.4,1.1-0.5s0.8-0.2,1.2-0.3c0.4-0.1,0.8-0.1,1.2-0.2c0.4,0,0.7-0.1,1-0.2c0.3-0.1,0.5-0.2,0.7-0.3
		c0.2-0.1,0.3-0.4,0.2-0.6c0-0.3,0-0.5-0.1-0.7C7.1,10.2,6.9,10,6.8,10C6.6,9.9,6.4,9.8,6.2,9.8s-0.4,0-0.7,0c-0.5,0-1,0.1-1.3,0.3
		c-0.3,0.2-0.5,0.6-0.5,1.1H1.1z M7.3,13.2c-0.1,0.1-0.3,0.2-0.4,0.2c-0.2,0.1-0.4,0.1-0.6,0.1c-0.2,0-0.4,0.1-0.6,0.1
		s-0.4,0.1-0.6,0.1c-0.2,0-0.4,0.1-0.6,0.2c-0.2,0.1-0.4,0.1-0.5,0.3c-0.1,0.1-0.3,0.2-0.4,0.4c-0.1,0.2-0.1,0.4-0.1,0.6
		c0,0.2,0,0.4,0.1,0.6C3.7,16,3.8,16.1,4,16.2c0.2,0.1,0.3,0.2,0.5,0.2s0.4,0.1,0.6,0.1c0.5,0,0.9-0.1,1.2-0.3
		C6.6,16,6.9,15.8,7,15.6s0.2-0.5,0.3-0.8c0-0.3,0-0.5,0-0.6V13.2z"/>
	<path class="Black" d="M14.7,4v5.4h0c0.3-0.5,0.8-0.9,1.3-1.1c0.6-0.2,1.1-0.4,1.8-0.4c0.5,0,1,0.1,1.5,0.3
		c0.5,0.2,0.9,0.5,1.3,0.9c0.4,0.4,0.7,1,0.9,1.6s0.4,1.4,0.4,2.3s-0.1,1.7-0.4,2.3S21,16.6,20.6,17c-0.4,0.4-0.8,0.7-1.3,0.9
		c-0.5,0.2-1,0.3-1.5,0.3c-0.7,0-1.4-0.1-1.9-0.3c-0.6-0.2-1-0.6-1.3-1.2h0V18H12V4H14.7z M19.1,11.9c-0.1-0.4-0.2-0.7-0.4-1
		c-0.2-0.3-0.4-0.5-0.7-0.7c-0.3-0.2-0.6-0.3-1-0.3c-0.4,0-0.7,0.1-1,0.3c-0.3,0.2-0.5,0.4-0.7,0.7c-0.2,0.3-0.3,0.6-0.4,1
		c-0.1,0.4-0.1,0.8-0.1,1.2c0,0.4,0,0.8,0.1,1.2c0.1,0.4,0.2,0.7,0.4,1s0.4,0.5,0.7,0.7c0.3,0.2,0.6,0.3,1,0.3c0.4,0,0.8-0.1,1-0.3
		c0.3-0.2,0.5-0.4,0.7-0.7c0.2-0.3,0.3-0.6,0.4-1c0.1-0.4,0.1-0.8,0.1-1.2C19.2,12.7,19.2,12.3,19.1,11.9z"/>
	<path class="Blue" d="M19,21.3L16.3,24c-0.4,0.4-0.4,1.2,0,1.6l4,4c0.4,0.4,1.2,0.4,1.6,0l2.7-2.7L19,21.3z"/>
	<path class="Red" d="M31.7,18.4l-4-4c-0.4-0.4-1.2-0.4-1.6,0L20,20.5l5.6,5.6l6.1-6.1C32.1,19.5,32.1,18.8,31.7,18.4z"/>
</g>
</svg>
