<?xml version="1.0" encoding="utf-8"?>
<!-- Generator: Adobe Illustrator 21.1.0, SVG Export Plug-In . SVG Version: 6.00 Build 0)  -->
<svg version="1.1" id="Layer_1" xmlns="http://www.w3.org/2000/svg" xmlns:xlink="http://www.w3.org/1999/xlink" x="0px" y="0px"
	 viewBox="0 0 32 32" style="enable-background:new 0 0 32 32;" xml:space="preserve">
<style type="text/css">
	.Black{fill:#727272;}
	.Yellow{fill:#FFB115;}
	.Blue{fill:#1177D7;}
	.Red{fill:#D11C1C;}
	.White{fill:#FFFFFF;}
	.Green{fill:#039C23;}
	.st0{fill:#727272;}
	.st1{opacity:0.5;}
	.st2{opacity:0.75;}
</style>
<g id="CostAnalysis">
	<path class="Green" d="M16,25c0-3.1,1.6-5.9,4-7.5V9l-9-9L2,9v18c0,0.6,0.4,1,1,1h13.5C16.2,27.1,16,26.1,16,25z M14.7,21
		c-0.5,0.3-1.1,0.6-1.7,0.7c-0.3,0.1-0.7,0.1-1,0.2V24h-2v-2.1c-0.4,0-0.7-0.1-1.1-0.2c-0.7-0.2-1.3-0.5-1.8-0.9
		C6.7,20.5,6.3,20,6,19.4c-0.3-0.6-0.5-1.3-0.5-2.1h2.3c0,0.5,0.1,0.9,0.3,1.3c0.2,0.4,0.4,0.7,0.7,0.9c0.3,0.2,0.7,0.4,1.1,0.5
		c0,0,0.1,0,0.1,0v-4.4c-0.3-0.1-0.7-0.2-1-0.3c-0.6-0.1-1.1-0.3-1.4-0.6c-0.4-0.2-0.7-0.5-0.9-0.8c-0.2-0.3-0.4-0.6-0.5-1
		C6,12.6,6,12.3,6,11.9c0-0.7,0.1-1.3,0.4-1.8C6.7,9.7,7.1,9.3,7.5,9c0.5-0.3,1-0.6,1.6-0.7C9.4,8.2,9.7,8.1,10,8.1V6h2v2.1
		c0.3,0,0.6,0.1,0.9,0.2c0.6,0.2,1.2,0.5,1.6,0.8c0.5,0.4,0.8,0.8,1.1,1.3c0.3,0.5,0.4,1.1,0.4,1.8h-2.3c-0.1-0.9-0.4-1.5-0.9-1.8
		c-0.2-0.2-0.5-0.3-0.8-0.4v3.8c0.3,0.1,0.6,0.2,0.9,0.2c0.4,0.1,0.7,0.2,0.9,0.2c0.4,0.1,0.8,0.3,1.1,0.6c0.3,0.2,0.6,0.5,0.8,0.8
		c0.2,0.3,0.4,0.6,0.5,1c0.1,0.3,0.2,0.7,0.2,1c0,0.7-0.2,1.4-0.5,1.9C15.6,20.3,15.2,20.7,14.7,21z M9.9,10C10,10,10,10,9.9,10
		l0.1,3.4c0,0-0.1,0-0.1,0c-0.5-0.1-0.9-0.3-1.2-0.6c-0.3-0.3-0.4-0.6-0.4-1.1c0-0.3,0.1-0.6,0.2-0.8c0.2-0.2,0.4-0.4,0.6-0.5
		C9.4,10.1,9.7,10,9.9,10z M13.7,16.9c0.2,0.2,0.3,0.6,0.3,1.1c0,0.2,0,0.5-0.2,0.7c-0.1,0.2-0.3,0.5-0.5,0.6
		c-0.2,0.2-0.5,0.3-0.9,0.5C12.4,20,12.2,20,12,20v-3.9c0.3,0.1,0.7,0.2,0.9,0.3C13.2,16.5,13.5,16.7,13.7,16.9z"/>
	<path class="Blue" d="M26,18.1c3.1,0.4,5.5,2.9,5.9,5.9H26V18.1z M26,26h-2v-2v-5.9c-3.4,0.5-6,3.4-6,6.9c0,3.9,3.1,7,7,7
		c3.5,0,6.4-2.6,6.9-6H26z"/>
</g>
</svg>
