<?xml version="1.0" encoding="utf-8"?>
<!-- Generator: Adobe Illustrator 21.1.0, SVG Export Plug-In . SVG Version: 6.00 Build 0)  -->
<svg version="1.1" id="Layer_1" xmlns="http://www.w3.org/2000/svg" xmlns:xlink="http://www.w3.org/1999/xlink" x="0px" y="0px"
	 viewBox="0 0 32 32" style="enable-background:new 0 0 32 32;" xml:space="preserve">
<style type="text/css">
	.Black{fill:#727272;}
	.Yellow{fill:#FFB115;}
	.Blue{fill:#1177D7;}
	.Red{fill:#D11C1C;}
	.White{fill:#FFFFFF;}
	.Green{fill:#039C23;}
	.st0{fill:#727272;}
	.st1{opacity:0.5;}
	.st2{opacity:0.75;}
</style>
<g id="DefaultPrinter">
	<path class="Black" d="M8,16H6V6h8v2H8V16z M26,18v8c0,1.1-0.9,2-2,2h-4v4H6v-4H2c-1.1,0-2-0.9-2-2V16c0-1.1,0.9-2,2-2h2v3
		c0,0.6,0.4,1,1,1H26z M18,22H8v8h10V22z"/>
	<path class="Green" d="M31,0H17c-0.5,0-1,0.5-1,1v14c0,0.5,0.5,1,1,1h14c0.5,0,1-0.5,1-1V1C32,0.5,31.5,0,31,0z M30,5l-8,8l-4-4V6
		l4,4l8-8V5z"/>
</g>
</svg>
