<?xml version="1.0" encoding="utf-8"?>
<!-- Generator: Adobe Illustrator 21.1.0, SVG Export Plug-In . SVG Version: 6.00 Build 0)  -->
<svg version="1.1" id="Deferred" xmlns="http://www.w3.org/2000/svg" xmlns:xlink="http://www.w3.org/1999/xlink" x="0px" y="0px"
	 viewBox="0 0 32 32" style="enable-background:new 0 0 32 32;" xml:space="preserve">
<style type="text/css">
	.Green{fill:#039C23;}
	.Black{fill:#727272;}
	.Blue{fill:#1177D7;}
</style>
<path class="Blue" d="M29,18c0-6.3-4.4-11.5-10.3-12.7C18.9,4.9,19,4.5,19,4c0-1.7-1.3-3-3-3s-3,1.3-3,3c0,0.5,0.1,0.9,0.3,1.3
	C7.4,6.5,3,11.7,3,18c0,7.2,5.8,13,13,13c0.3,0,0.7,0,1-0.1v-2c-0.3,0-0.7,0.1-1,0.1C9.9,29,5,24.1,5,18S9.9,7,16,7s11,4.9,11,11
	c0,3.5-1.7,6.7-4.3,8.7L19,23v5.6v2.1V31h8l-2.9-2.9C27.1,25.7,29,22.1,29,18z"/>
<polygon class="Black" points="17,17 17,9 15,9 15,17 15,19 17,19 25,19 25,17 "/>
</svg>
