<?xml version="1.0" encoding="utf-8"?>
<!-- Generator: Adobe Illustrator 21.1.0, SVG Export Plug-In . SVG Version: 6.00 Build 0)  -->
<svg version="1.1" id="Layer_1" xmlns="http://www.w3.org/2000/svg" xmlns:xlink="http://www.w3.org/1999/xlink" x="0px" y="0px"
	 viewBox="0 0 32 32" style="enable-background:new 0 0 32 32;" xml:space="preserve">
<style type="text/css">
	.Black{fill:#727272;}
	.Yellow{fill:#FFB115;}
	.Blue{fill:#1177D7;}
	.Red{fill:#D11C1C;}
	.White{fill:#FFFFFF;}
	.Green{fill:#039C23;}
	.st0{fill:#727272;}
	.st1{opacity:0.5;}
	.st2{opacity:0.75;}
</style>
<g id="Doctor">
	<path class="Black" d="M4,30v-1.5c0-7.5,5.7-5,8-8.5c0.8,1.5,2.1,4,4,4c1.9,0,3.2-2.5,4-4c2.3,3.4,8,1.1,8,8.5V30H4z M21.4,11.7
		c0.2-0.7,0.4-1.2,0.5-1.7H10.1c0.1,0.5,0.2,1.1,0.4,1.6c-0.1,0-0.4,0.1-0.5,0.3c-0.1,0.5,0.2,0.9,0.4,1.4s-0.1,1.7,0.9,1.6
		c0,0,0,0.1,0,0.2c0.6,2.3,2,4.9,4.7,4.9s4.2-2.6,4.7-4.9V15c1,0.1,0.6-1.1,0.9-1.6c0.2-0.5,0.4-0.9,0.3-1.4
		C21.8,11.6,21.5,11.6,21.4,11.7z M6,2v2h4v4h12V4h2v6h2V4V2H6z"/>
</g>
</svg>
