<?xml version="1.0" encoding="utf-8"?>
<!-- Generator: Adobe Illustrator 21.1.0, SVG Export Plug-In . SVG Version: 6.00 Build 0)  -->
<svg version="1.1" id="Layer_1" xmlns="http://www.w3.org/2000/svg" xmlns:xlink="http://www.w3.org/1999/xlink" x="0px" y="0px"
	 viewBox="0 0 32 32" style="enable-background:new 0 0 32 32;" xml:space="preserve">
<style type="text/css">
	.Yellow{fill:#FFB115;}
	.Red{fill:#D11C1C;}
	.Blue{fill:#1177D7;}
	.Green{fill:#039C23;}
	.Black{fill:#727272;}
	.White{fill:#FFFFFF;}
	.st0{opacity:0.5;}
	.st1{display:none;}
	.st2{display:inline;fill:#039C23;}
	.st3{display:inline;fill:#D11C1C;}
	.st4{display:inline;fill:#727272;}
</style>
<g id="EmployeeQuickWelcome">
	<path class="Black" d="M3,24H0V10h3c0.6,0,1,0.4,1,1v12C4,23.6,3.6,24,3,24z M32,10h-3c-0.6,0-1,0.4-1,1v12c0,0.6,0.4,1,1,1h3V10z"
		/>
	<path class="Yellow" d="M21.9,19.1c0.8,0.8,0.8,2,0,2.8l-5.5,5.5c-0.8,0.8-2,0.8-2.8,0l-4.8-4.8C8.3,22.2,7.8,22,7.3,22H6V12h3.2
		L9,12.2c-0.6,0.6-1,1.5-1,2.4s0.4,1.8,1,2.4c0.6,0.6,1.5,1,2.4,1c0.9,0,1.8-0.4,2.4-1l3-3L21.9,19.1z M10.4,15.6L10.4,15.6
		c0.6,0.6,1.4,0.6,2,0c0.8-0.8,2.1-2.1,3-3c0.8-0.8,2-0.8,2.8,0l7.8,7.8V12h-1.2c-0.5,0-1-0.2-1.4-0.6l-2-2C20.5,8.5,19.3,8,18,8h0
		c-1.3,0-2.5,0.5-3.4,1.4l-4.2,4.2C9.9,14.1,9.9,15,10.4,15.6z"/>
</g>
</svg>
