<?xml version="1.0" encoding="utf-8"?>
<!-- Generator: Adobe Illustrator 21.1.0, SVG Export Plug-In . SVG Version: 6.00 Build 0)  -->
<svg version="1.1" id="Layer_1" xmlns="http://www.w3.org/2000/svg" xmlns:xlink="http://www.w3.org/1999/xlink" x="0px" y="0px"
	 viewBox="0 0 32 32" style="enable-background:new 0 0 32 32;" xml:space="preserve">
<style type="text/css">
	.Yellow{fill:#FFB115;}
	.Red{fill:#D11C1C;}
	.Blue{fill:#1177D7;}
	.Green{fill:#039C23;}
	.Black{fill:#727272;}
	.White{fill:#FFFFFF;}
	.st0{opacity:0.5;}
	.st1{display:none;}
	.st2{display:inline;fill:#039C23;}
	.st3{display:inline;fill:#D11C1C;}
	.st4{display:inline;fill:#727272;}
</style>
<g id="EmployeeQuickProbationNotice">
	<path class="Red" d="M17.7,4.3C17.9,3.9,18,3.5,18,3c0-1.7-1.3-3-3-3s-3,1.3-3,3c0,0.5,0.1,0.9,0.3,1.3C6.4,5.5,2,10.7,2,17
		c0,7.2,5.8,13,13,13s13-5.8,13-13C28,10.7,23.6,5.5,17.7,4.3z M15,28C8.9,28,4,23.1,4,17S8.9,6,15,6s11,4.9,11,11S21.1,28,15,28z"
		/>
	<polygon class="Black" points="16,16 16,8 14,8 14,16 14,18 16,18 24,18 24,16 	"/>
	<g class="st0">
		<path class="Black" d="M14,18h9.9c0-0.3,0.1-0.7,0.1-1c0-5-4-9-9-9c-0.3,0-0.7,0-1,0.1V18z"/>
	</g>
</g>
</svg>
