<?xml version="1.0" encoding="utf-8"?>
<!-- Generator: Adobe Illustrator 21.1.0, SVG Export Plug-In . SVG Version: 6.00 Build 0)  -->
<svg version="1.1" id="Layer_1" xmlns="http://www.w3.org/2000/svg" xmlns:xlink="http://www.w3.org/1999/xlink" x="0px" y="0px"
	 viewBox="0 0 32 32" style="enable-background:new 0 0 32 32;" xml:space="preserve">
<style type="text/css">
	.Black{fill:#727272;}
	.Yellow{fill:#FFB115;}
	.Blue{fill:#1177D7;}
	.Red{fill:#D11C1C;}
	.White{fill:#FFFFFF;}
	.Green{fill:#039C23;}
	.st0{fill:#727272;}
	.st1{opacity:0.5;}
	.st2{opacity:0.75;}
</style>
<g id="EmployeeDirectory">
	<path class="Black" d="M29,0H3C2.5,0,2,0.5,2,1v30c0,0.5,0.5,1,1,1h26c0.5,0,1-0.5,1-1V1C30,0.5,29.5,0,29,0z M28,30H4V2h24V30z"/>
	<path class="Yellow" d="M23,12h-9v-1c0-0.6-0.5-1-1-1H9c-0.5,0-1,0.4-1,1v10c0,0.6,0.5,1,1,1h14c0.5,0,1-0.4,1-1v-8
		C24,12.4,23.5,12,23,12z"/>
</g>
</svg>
