<?xml version="1.0" encoding="utf-8"?>
<!-- Generator: Adobe Illustrator 21.1.0, SVG Export Plug-In . SVG Version: 6.00 Build 0)  -->
<svg version="1.1" id="Layer_1" xmlns="http://www.w3.org/2000/svg" xmlns:xlink="http://www.w3.org/1999/xlink" x="0px" y="0px"
	 viewBox="0 0 32 32" style="enable-background:new 0 0 32 32;" xml:space="preserve">
<style type="text/css">
	.Yellow{fill:#FFB115;}
	.Red{fill:#D11C1C;}
	.Blue{fill:#1177D7;}
	.Green{fill:#039C23;}
	.Black{fill:#727272;}
	.White{fill:#FFFFFF;}
	.st0{opacity:0.5;}
	.st1{display:none;}
	.st2{display:inline;fill:#039C23;}
	.st3{display:inline;fill:#D11C1C;}
	.st4{display:inline;fill:#727272;}
</style>
<g id="EmployeeProfile">
	<path class="Black" d="M29,0H3C2.5,0,2,0.5,2,1v30c0,0.5,0.5,1,1,1h26c0.5,0,1-0.5,1-1V1C30,0.5,29.5,0,29,0z M28,30H4V2h24V30z"/>
	<path class="Blue" d="M12.3,13.8c-0.1-0.3-0.3-0.6-0.3-0.9c0.1-0.1,0.3-0.2,0.3-0.2C11.6,10.5,12,8,15.2,8c3.5,0,3.7,1.9,3.7,1.9
		s1.9-0.1,0.7,2.9c0.1-0.1,0.3-0.1,0.3,0.2c0.1,0.3-0.1,0.6-0.2,0.9c-0.2,0.3,0.1,1.1-0.6,1v0.1C18.8,16.4,17.8,18,16,18
		s-2.7-1.6-3.1-3.1c0-0.1,0-0.1,0-0.1C12.2,14.9,12.4,14.1,12.3,13.8z M18.7,18c-0.5,1-1.4,1.9-2.7,1.9c-1.3,0-2.2-0.9-2.7-2
		C11.7,20.3,8,18.7,8,23.7V24h16v-0.3C24,18.7,20.3,20.2,18.7,18z"/>
</g>
</svg>
