<?xml version="1.0" encoding="utf-8"?>
<!-- Generator: Adobe Illustrator 21.1.0, SVG Export Plug-In . SVG Version: 6.00 Build 0)  -->
<svg version="1.1" id="Layer_1" xmlns="http://www.w3.org/2000/svg" xmlns:xlink="http://www.w3.org/1999/xlink" x="0px" y="0px"
	 viewBox="0 0 32 32" style="enable-background:new 0 0 32 32;" xml:space="preserve">
<style type="text/css">
	.Yellow{fill:#FFB115;}
	.Red{fill:#D11C1C;}
	.Blue{fill:#1177D7;}
	.Green{fill:#039C23;}
	.Black{fill:#727272;}
	.White{fill:#FFFFFF;}
	.st0{opacity:0.5;}
	.st1{display:none;}
	.st2{display:inline;fill:#039C23;}
	.st3{display:inline;fill:#D11C1C;}
	.st4{display:inline;fill:#727272;}
</style>
<g id="EmployeeQuickAward">
	<path class="Yellow" d="M24,4h-6h-4H8H2c0,5.5,2.7,10,6,10c0,3.7,2.6,6.8,6,7.7V26h-1c-0.6,0-1,0.4-1,1v1h-1c-0.5,0-1,0.5-1,1v1h12
		v-1c0-0.5-0.5-1-1-1h-1v-1c0-0.6-0.4-1-1-1h-1v-4.3c3.4-0.9,6-4,6-7.7c3.3,0,6-4.5,6-10H24z M8,12c-1.4,0-3.5-2.3-3.9-6H8V12z
		 M24,12V6h3.9C27.5,9.7,25.4,12,24,12z"/>
</g>
</svg>
