<?xml version="1.0" encoding="utf-8"?>
<!-- Generator: Adobe Illustrator 21.1.0, SVG Export Plug-In . SVG Version: 6.00 Build 0)  -->
<svg version="1.1" id="Layer_1" xmlns="http://www.w3.org/2000/svg" xmlns:xlink="http://www.w3.org/1999/xlink" x="0px" y="0px"
	 viewBox="0 0 32 32" style="enable-background:new 0 0 32 32;" xml:space="preserve">
<style type="text/css">
	.Yellow{fill:#FFB115;}
	.Red{fill:#D11C1C;}
	.Blue{fill:#1177D7;}
	.Green{fill:#039C23;}
	.Black{fill:#727272;}
	.White{fill:#FFFFFF;}
	.st0{opacity:0.5;}
	.st1{display:none;}
	.st2{display:inline;fill:#039C23;}
	.st3{display:inline;fill:#D11C1C;}
	.st4{display:inline;fill:#727272;}
</style>
<g id="ServiceExcellence">
	<path class="Blue" d="M24.8,24.8L28,28l-4,4l-4.5-4.5C21.5,27,23.3,26.1,24.8,24.8z M7.2,24.8L4,28l4,4l4.5-4.5
		C10.5,27,8.7,26.1,7.2,24.8z"/>
	<path class="Yellow" d="M16,2C9.4,2,4,7.4,4,14c0,6.6,5.4,12,12,12s12-5.4,12-12C28,7.4,22.6,2,16,2z M16,22c-4.4,0-8-3.6-8-8
		s3.6-8,8-8s8,3.6,8,8S20.4,22,16,22z M22,14c0,3.3-2.7,6-6,6s-6-2.7-6-6s2.7-6,6-6S22,10.7,22,14z"/>
</g>
</svg>
