<?xml version="1.0" encoding="utf-8"?>
<!-- Generator: Adobe Illustrator 21.1.0, SVG Export Plug-In . SVG Version: 6.00 Build 0)  -->
<svg version="1.1" id="Layer_1" xmlns="http://www.w3.org/2000/svg" xmlns:xlink="http://www.w3.org/1999/xlink" x="0px" y="0px"
	 viewBox="0 0 32 32" style="enable-background:new 0 0 32 32;" xml:space="preserve">
<style type="text/css">
	.Black{fill:#727272;}
	.Yellow{fill:#FFB115;}
	.Blue{fill:#1177D7;}
	.Red{fill:#D11C1C;}
	.White{fill:#FFFFFF;}
	.Green{fill:#039C23;}
	.st0{fill:#727272;}
	.st1{opacity:0.5;}
	.st2{opacity:0.75;}
</style>
<g id="Fax">
	<path class="Black" d="M18,8h-2V2h10v6h-2V4h-6V8z M8,26V8c0-1.1-0.9-2-2-2H2C0.9,6,0,6.9,0,8v18c0,1.1,0.9,2,2,2h4
		C7.1,28,8,27.1,8,26z M32,8v18c0,1.1-0.9,2-2,2H12c-1.1,0-2-0.9-2-2V8c0-1.1,0.9-2,2-2h2v3c0,0.6,0.4,1,1,1h12c0.6,0,1-0.4,1-1V6h2
		C31.1,6,32,6.9,32,8z M18,22h-2v2h2V22z M18,18h-2v2h2V18z M18,14h-2v2h2V14z M22,22h-2v2h2V22z M22,18h-2v2h2V18z M22,14h-2v2h2
		V14z M26,22h-2v2h2V22z M26,18h-2v2h2V18z M26,14h-2v2h2V14z"/>
</g>
</svg>
