<?xml version="1.0" encoding="utf-8"?>
<!-- Generator: Adobe Illustrator 21.1.0, SVG Export Plug-In . SVG Version: 6.00 Build 0)  -->
<svg version="1.1" id="Layer_1" xmlns="http://www.w3.org/2000/svg" xmlns:xlink="http://www.w3.org/1999/xlink" x="0px" y="0px"
	 viewBox="0 0 32 32" style="enable-background:new 0 0 32 32;" xml:space="preserve">
<style type="text/css">
	.Black{fill:#727272;}
	.Yellow{fill:#FFB115;}
	.Blue{fill:#1177D7;}
	.Red{fill:#D11C1C;}
	.White{fill:#FFFFFF;}
	.Green{fill:#039C23;}
	.st0{fill:#727272;}
	.st1{opacity:0.5;}
	.st2{opacity:0.75;}
</style>
<g id="FitToPage">
	<path class="Black" d="M29,2H3C2.5,2,2,2.5,2,3v26c0,0.5,0.5,1,1,1h26c0.5,0,1-0.5,1-1V3C30,2.5,29.5,2,29,2z M28,28H4V4h24V28z
		 M14,26H6v-8l3,3l3-3l2,2l-3,3L14,26z M18,26l3-3l-3-3l2-2l3,3l3-3v8H18z M9,11l-3,3V6h8l-3,3l3,3l-2,2L9,11z M18,12l3-3l-3-3h8v8
		l-3-3l-3,3L18,12z"/>
</g>
</svg>
