<?xml version="1.0" encoding="utf-8"?>
<!-- Generator: Adobe Illustrator 21.1.0, SVG Export Plug-In . SVG Version: 6.00 Build 0)  -->
<svg version="1.1" id="Layer_1" xmlns="http://www.w3.org/2000/svg" xmlns:xlink="http://www.w3.org/1999/xlink" x="0px" y="0px"
	 viewBox="0 0 32 32" style="enable-background:new 0 0 32 32;" xml:space="preserve">
<style type="text/css">
	.Black{fill:#727272;}
	.Yellow{fill:#FFB115;}
	.Blue{fill:#1177D7;}
	.Red{fill:#D11C1C;}
	.White{fill:#FFFFFF;}
	.Green{fill:#039C23;}
	.st0{fill:#727272;}
	.st1{opacity:0.5;}
	.st2{opacity:0.75;}
</style>
<g id="Phone">
	<path class="Black" d="M27.7,23.6l-5.3-5.3c-0.4-0.4-1-0.4-1.4,0l-2.8,2.8c-3.2-1.5-5.8-4.1-7.3-7.3l2.8-2.8c0.4-0.4,0.4-1,0-1.4
		L8.4,4.3c-0.4-0.4-1-0.4-1.5,0L4.3,6.9C4.1,7.2,4,7.4,4,7.7C4,18.9,13.1,28,24.3,28c0.3,0,0.5-0.1,0.7-0.3l2.6-2.6
		C28.1,24.6,28.1,24,27.7,23.6z"/>
</g>
</svg>
