<?xml version="1.0" encoding="utf-8"?>
<!-- Generator: Adobe Illustrator 21.1.0, SVG Export Plug-In . SVG Version: 6.00 Build 0)  -->
<svg version="1.1" id="Layer_1" xmlns="http://www.w3.org/2000/svg" xmlns:xlink="http://www.w3.org/1999/xlink" x="0px" y="0px"
	 viewBox="0 0 32 32" style="enable-background:new 0 0 32 32;" xml:space="preserve">
<style type="text/css">
	.Yellow{fill:#FFB115;}
	.Red{fill:#D11C1C;}
	.Blue{fill:#1177D7;}
	.Green{fill:#039C23;}
	.Black{fill:#727272;}
	.White{fill:#FFFFFF;}
	.st0{opacity:0.5;}
	.st1{display:none;}
	.st2{display:inline;fill:#039C23;}
	.st3{display:inline;fill:#D11C1C;}
	.st4{display:inline;fill:#727272;}
</style>
<g id="Highlight">
	<path class="Blue" d="M29,15l-8,8l-4-4l8-8L29,15z M30,14l1.7-1.7c0.4-0.4,0.4-1,0-1.3L29,8.3c-0.4-0.4-1-0.4-1.3,0L26,10L30,14z
		 M16,20v4h4L16,20z"/>
	<path class="Black" d="M1.1,7.2c0-0.6,0.2-1.2,0.5-1.6c0.3-0.4,0.6-0.8,1.1-1C3,4.4,3.5,4.2,4.1,4.1C4.6,4,5.1,3.9,5.7,3.9
		c0.5,0,1,0,1.5,0.1c0.5,0.1,1,0.2,1.4,0.4c0.4,0.2,0.8,0.5,1,0.8S10,6.1,10,6.7v5.1c0,0.4,0,0.9,0.1,1.3c0.1,0.4,0.1,0.7,0.3,0.9
		H7.6c-0.1-0.2-0.1-0.3-0.1-0.5c0-0.2-0.1-0.3-0.1-0.5C7,13.5,6.5,13.8,5.9,14c-0.6,0.2-1.2,0.3-1.8,0.3c-0.5,0-0.9-0.1-1.3-0.2
		C2.4,14,2,13.8,1.7,13.5C1.4,13.3,1.2,13,1,12.6c-0.2-0.4-0.3-0.8-0.3-1.3c0-0.6,0.1-1,0.3-1.4s0.4-0.6,0.8-0.9
		c0.3-0.2,0.7-0.4,1.1-0.5s0.8-0.2,1.2-0.3c0.4-0.1,0.8-0.1,1.2-0.2c0.4,0,0.7-0.1,1-0.2c0.3-0.1,0.5-0.2,0.7-0.3
		C7.2,7.5,7.3,7.3,7.3,7c0-0.3,0-0.5-0.1-0.7C7.1,6.2,6.9,6,6.8,6C6.6,5.9,6.4,5.8,6.2,5.8s-0.4,0-0.7,0c-0.5,0-1,0.1-1.3,0.3
		C4,6.3,3.8,6.7,3.8,7.2H1.1z M7.3,9.2C7.2,9.3,7,9.4,6.9,9.4C6.7,9.5,6.5,9.5,6.3,9.6c-0.2,0-0.4,0.1-0.6,0.1S5.3,9.7,5.1,9.8
		c-0.2,0-0.4,0.1-0.6,0.2c-0.2,0.1-0.4,0.1-0.5,0.3c-0.1,0.1-0.3,0.2-0.4,0.4c-0.1,0.2-0.1,0.4-0.1,0.6c0,0.2,0,0.4,0.1,0.6
		C3.7,12,3.8,12.1,4,12.2c0.2,0.1,0.3,0.2,0.5,0.2s0.4,0.1,0.6,0.1c0.5,0,0.9-0.1,1.2-0.3C6.6,12,6.9,11.8,7,11.6s0.2-0.5,0.3-0.8
		c0-0.3,0-0.5,0-0.6V9.2z M14.7,0v5.4h0c0.3-0.5,0.8-0.9,1.3-1.1c0.6-0.2,1.1-0.4,1.8-0.4c0.5,0,1,0.1,1.5,0.3
		c0.5,0.2,0.9,0.5,1.3,0.9c0.4,0.4,0.7,1,0.9,1.6s0.4,1.4,0.4,2.3s-0.1,1.7-0.4,2.3S21,12.6,20.6,13c-0.4,0.4-0.8,0.7-1.3,0.9
		c-0.5,0.2-1,0.3-1.5,0.3c-0.7,0-1.4-0.1-1.9-0.3c-0.6-0.2-1-0.6-1.3-1.2h0V14H12V0H14.7z M19.1,7.9c-0.1-0.4-0.2-0.7-0.4-1
		c-0.2-0.3-0.4-0.5-0.7-0.7c-0.3-0.2-0.6-0.3-1-0.3c-0.4,0-0.7,0.1-1,0.3s-0.5,0.4-0.7,0.7c-0.2,0.3-0.3,0.6-0.4,1
		c-0.1,0.4-0.1,0.8-0.1,1.2c0,0.4,0,0.8,0.1,1.2c0.1,0.4,0.2,0.7,0.4,1s0.4,0.5,0.7,0.7s0.6,0.3,1,0.3c0.4,0,0.8-0.1,1-0.3
		c0.3-0.2,0.5-0.4,0.7-0.7c0.2-0.3,0.3-0.6,0.4-1c0.1-0.4,0.1-0.8,0.1-1.2C19.2,8.7,19.2,8.3,19.1,7.9z"/>
</g>
</svg>
