<?xml version="1.0" encoding="utf-8"?>
<!-- Generator: Adobe Illustrator 21.1.0, SVG Export Plug-In . SVG Version: 6.00 Build 0)  -->
<svg version="1.1" id="Layer_1" xmlns="http://www.w3.org/2000/svg" xmlns:xlink="http://www.w3.org/1999/xlink" x="0px" y="0px"
	 viewBox="0 0 32 32" style="enable-background:new 0 0 32 32;" xml:space="preserve">
<style type="text/css">
	.Yellow{fill:#FFB115;}
	.Red{fill:#D11C1C;}
	.Blue{fill:#1177D7;}
	.Green{fill:#039C23;}
	.Black{fill:#727272;}
	.White{fill:#FFFFFF;}
	.st0{opacity:0.5;}
	.st1{display:none;}
	.st2{display:inline;fill:#039C23;}
	.st3{display:inline;fill:#D11C1C;}
	.st4{display:inline;fill:#727272;}
</style>
<g id="ListBullets">
	<path class="Black" d="M30,10H12V8h18V10z M30,18H12v-2h18V18z M30,26H12v-2h18V26z"/>
	<path class="Blue" d="M8,9c0,1.7-1.3,3-3,3s-3-1.3-3-3s1.3-3,3-3S8,7.3,8,9z M5,14c-1.7,0-3,1.3-3,3s1.3,3,3,3s3-1.3,3-3
		S6.7,14,5,14z M5,22c-1.7,0-3,1.3-3,3s1.3,3,3,3s3-1.3,3-3S6.7,22,5,22z"/>
</g>
</svg>
