<?xml version="1.0" encoding="utf-8"?>
<!-- Generator: Adobe Illustrator 21.1.0, SVG Export Plug-In . SVG Version: 6.00 Build 0)  -->
<svg version="1.1" id="Layer_1" xmlns="http://www.w3.org/2000/svg" xmlns:xlink="http://www.w3.org/1999/xlink" x="0px" y="0px"
	 viewBox="0 0 32 32" style="enable-background:new 0 0 32 32;" xml:space="preserve">
<style type="text/css">
	.Yellow{fill:#FFB115;}
	.Red{fill:#D11C1C;}
	.Blue{fill:#1177D7;}
	.Green{fill:#039C23;}
	.Black{fill:#727272;}
	.White{fill:#FFFFFF;}
	.st0{opacity:0.5;}
	.st1{display:none;}
	.st2{display:inline;fill:#039C23;}
	.st3{display:inline;fill:#D11C1C;}
	.st4{display:inline;fill:#727272;}
</style>
<g id="ListMultilevel">
	<path class="Black" d="M24,8H6V6h18V8z M28,18H10v-2h18V18z M32,28H14v-2h18V28z"/>
	<path class="Red" d="M4,2v8H2V5H0V4c1.1,0,2-0.9,2-2H4z M10,24H8v-2h2V24z M10,25.1H8V30h2V25.1z M8,20H6.1v-1.1h0
		c-0.4,0.9-1.1,1.3-2,1.3c-0.6,0-1.1-0.2-1.5-0.6c-0.4-0.4-0.6-1-0.6-1.7c0-1.5,0.8-2.4,2.3-2.6l1.8-0.3c0-0.9-0.4-1.3-1.2-1.3
		c-0.8,0-1.5,0.3-2.2,0.8v-1.8c0.3-0.2,0.7-0.3,1.2-0.5C4.3,12.1,4.8,12,5.2,12C7.1,12,8,13.1,8,15.3V20z M6.1,16.8v-0.5l-1.2,0.2
		c-0.7,0.1-1,0.5-1,1.1c0,0.3,0.1,0.5,0.2,0.7c0.2,0.2,0.4,0.3,0.7,0.3c0.4,0,0.7-0.2,0.9-0.5C6,17.7,6.1,17.3,6.1,16.8z"/>
</g>
</svg>
