<?xml version="1.0" encoding="utf-8"?>
<!-- Generator: Adobe Illustrator 21.1.0, SVG Export Plug-In . SVG Version: 6.00 Build 0)  -->
<svg version="1.1" id="Layer_1" xmlns="http://www.w3.org/2000/svg" xmlns:xlink="http://www.w3.org/1999/xlink" x="0px" y="0px"
	 viewBox="0 0 32 32" style="enable-background:new 0 0 32 32;" xml:space="preserve">
<style type="text/css">
	.Black{fill:#727272;}
	.Yellow{fill:#FFB115;}
	.Blue{fill:#1177D7;}
	.Red{fill:#D11C1C;}
	.White{fill:#FFFFFF;}
	.Green{fill:#039C23;}
	.st0{fill:#727272;}
	.st1{opacity:0.5;}
	.st2{opacity:0.75;}
</style>
<g id="Miss">
	<path class="Green" d="M12.3,17.8c-2.9-0.4-5.2-1.3-6.2-2.4c1-0.7,1.8-1.7,1.9-2.9c0-0.2,0-0.3,0-0.5v-2c0-4.4,3.5-8,7.9-8
		C18.1,2,20,3.8,20,6c2.2,0,4,1.8,4,4v2c0,0.2,0,0.3,0,0.5c0.2,1.2,0.7,2.3,1.7,2.9c-1,1.1-3.3,2-6.1,2.4C18.8,19,17.6,20,16,20
		S13.2,19,12.3,17.8z M28,30v-1.5c0-7.4-5.7-5.1-8-8.5c-0.8,1.5-2.1,4-4,4c-1.9,0-3.2-2.5-4-4c-2.3,3.5-8,1-8,8.5V30H28z"/>
</g>
</svg>
