<?xml version="1.0" encoding="utf-8"?>
<!-- Generator: Adobe Illustrator 21.1.0, SVG Export Plug-In . SVG Version: 6.00 Build 0)  -->
<svg version="1.1" id="Layer_1" xmlns="http://www.w3.org/2000/svg" xmlns:xlink="http://www.w3.org/1999/xlink" x="0px" y="0px"
	 viewBox="0 0 32 32" style="enable-background:new 0 0 32 32;" xml:space="preserve">
<style type="text/css">
	.Yellow{fill:#FFB115;}
	.Red{fill:#D11C1C;}
	.Blue{fill:#1177D7;}
	.Green{fill:#039C23;}
	.Black{fill:#727272;}
	.White{fill:#FFFFFF;}
	.st0{opacity:0.5;}
	.st1{display:none;}
	.st2{display:inline;fill:#039C23;}
	.st3{display:inline;fill:#D11C1C;}
	.st4{display:inline;fill:#727272;}
</style>
<g id="MoreColors">
	<path class="Black" d="M32,15.2C31.5,7.8,25,2,17,2C8.7,2,2,8.3,2,16c0,8.8,6.7,16,15,16c1.7,0,3-1.3,3-3c0-1.1-0.6-2-1.4-2.6
		c-0.4-0.2-0.6-0.6-0.6-1.1c0-0.7,0.6-1.3,1.3-1.3l0,0H24c4.4,0,8-3.6,8-8C32,15.7,32,15.4,32,15.2z M8,16c-1.1,0-2-0.9-2-2
		c0-1.1,0.9-2,2-2s2,0.9,2,2C10,15.1,9.1,16,8,16z M15,12c-1.7,0-3-1.3-3-3s1.3-3,3-3s3,1.3,3,3S16.7,12,15,12z M24,18
		c-2.2,0-4-1.8-4-4c0-2.2,1.8-4,4-4s4,1.8,4,4C28,16.2,26.2,18,24,18z"/>
</g>
</svg>
