<?xml version="1.0" encoding="utf-8"?>
<!-- Generator: Adobe Illustrator 21.1.0, SVG Export Plug-In . SVG Version: 6.00 Build 0)  -->
<svg version="1.1" id="Layer_1" xmlns="http://www.w3.org/2000/svg" xmlns:xlink="http://www.w3.org/1999/xlink" x="0px" y="0px"
	 viewBox="0 0 32 32" style="enable-background:new 0 0 32 32;" xml:space="preserve">
<style type="text/css">
	.Black{fill:#727272;}
	.Yellow{fill:#FFB115;}
	.Blue{fill:#1177D7;}
	.Red{fill:#D11C1C;}
	.White{fill:#FFFFFF;}
	.Green{fill:#039C23;}
	.st0{fill:#727272;}
	.st1{opacity:0.5;}
	.st2{opacity:0.75;}
</style>
<g id="NeedAssistance">
	<path class="Green" d="M16,2C8.3,2,2,8.3,2,16s6.3,14,14,14s14-6.3,14-14S23.7,2,16,2z M16,26c-1.1,0-2-0.9-2-2c0-1.1,0.9-2,2-2
		s2,0.9,2,2C18,25.1,17.1,26,16,26z M21.8,12.8c-0.1,0.4-0.3,0.8-0.5,1.1c-0.2,0.3-0.5,0.6-0.7,0.9c-0.3,0.3-0.6,0.5-0.8,0.7
		c-0.3,0.3-0.6,0.5-0.9,0.8S18.2,17,18,17.3c-0.2,0.3-0.4,0.7-0.5,1.1c-0.1,0.4-0.2,1-0.2,1.6h-2.8c0-0.8,0-1.4,0.1-1.9
		c0.1-0.5,0.2-1,0.4-1.4c0.2-0.4,0.4-0.8,0.6-1.1c0.3-0.3,0.6-0.6,0.9-0.9c0.3-0.2,0.5-0.5,0.8-0.7c0.3-0.2,0.5-0.4,0.7-0.7
		c0.2-0.3,0.4-0.5,0.5-0.8c0.1-0.3,0.2-0.7,0.2-1.1c0-0.5-0.1-1-0.3-1.3c-0.2-0.4-0.4-0.7-0.7-0.9s-0.5-0.4-0.8-0.5
		c-0.3-0.1-0.6-0.2-0.8-0.2c-1.1,0-1.9,0.4-2.4,1.1C13.3,10.2,13.1,11,13,12h-3c0-0.8,0.2-1.6,0.4-2.2c0.3-0.8,0.7-1.5,1.3-2
		c0.6-0.6,1.2-1,2-1.3C14.5,6.2,15.3,6,16.3,6c0.8,0,1.5,0.1,2.2,0.4c0.7,0.2,1.3,0.6,1.8,1c0.5,0.4,0.9,1,1.2,1.7
		c0.3,0.7,0.4,1.4,0.4,2.2C22,11.9,21.9,12.4,21.8,12.8z"/>
</g>
</svg>
