<?xml version="1.0" encoding="utf-8"?>
<!-- Generator: Adobe Illustrator 21.1.0, SVG Export Plug-In . SVG Version: 6.00 Build 0)  -->
<svg version="1.1" id="Layer_1" xmlns="http://www.w3.org/2000/svg" xmlns:xlink="http://www.w3.org/1999/xlink" x="0px" y="0px"
	 viewBox="0 0 32 32" style="enable-background:new 0 0 32 32;" xml:space="preserve">
<style type="text/css">
	.Yellow{fill:#FFB115;}
	.Red{fill:#D11C1C;}
	.Blue{fill:#1177D7;}
	.Green{fill:#039C23;}
	.Black{fill:#727272;}
	.White{fill:#FFFFFF;}
	.st0{opacity:0.5;}
	.st1{display:none;}
	.st2{display:inline;fill:#039C23;}
	.st3{display:inline;fill:#D11C1C;}
	.st4{display:inline;fill:#727272;}
</style>
<g id="NoDate">
	<path class="Black" d="M29,0H1C0.5,0,0,0.5,0,1v30c0,0.5,0.5,1,1,1h28c0.5,0,1-0.5,1-1V1C30,0.5,29.5,0,29,0z M28,30H2V4h26V30z"/>
	<g class="st0">
		<path class="Black" d="M10,12H4V6h6V12z M18,6h-6v6h6V6z M26,6h-6v6h6V6z M10,14H4v6h6V14z M10,22H4v6h6V22z M18,22h-6v6h6V22z
			 M26,22h-6v6h6V22z M18,14h-6v6h6V14z M26,14h-6v6h6V14z"/>
	</g>
</g>
</svg>
