<?xml version="1.0" encoding="utf-8"?>
<!-- Generator: Adobe Illustrator 21.1.0, SVG Export Plug-In . SVG Version: 6.00 Build 0)  -->
<svg version="1.1" id="Layer_1" xmlns="http://www.w3.org/2000/svg" xmlns:xlink="http://www.w3.org/1999/xlink" x="0px" y="0px"
	 viewBox="0 0 32 32" style="enable-background:new 0 0 32 32;" xml:space="preserve">
<style type="text/css">
	.Green{fill:#039C23;}
	.Black{fill:#727272;}
</style>
<g id="NotStarted">
	<path class="Black" d="M16,14.2V8h-2v6.2c-1.2,0.4-2,1.5-2,2.8c0,1.7,1.3,3,3,3s3-1.3,3-3C18,15.7,17.2,14.6,16,14.2z"/>
	<path class="Green" d="M17.7,4.3C17.9,3.9,18,3.5,18,3c0-1.7-1.3-3-3-3s-3,1.3-3,3c0,0.5,0.1,0.9,0.3,1.3C6.4,5.5,2,10.7,2,17
		c0,7.2,5.8,13,13,13s13-5.8,13-13C28,10.7,23.6,5.5,17.7,4.3z M15,28C8.9,28,4,23.1,4,17S8.9,6,15,6s11,4.9,11,11S21.1,28,15,28z"
		/>
</g>
</svg>
