<?xml version="1.0" encoding="utf-8"?>
<!-- Generator: Adobe Illustrator 21.1.0, SVG Export Plug-In . SVG Version: 6.00 Build 0)  -->
<svg version="1.1" id="Layer_1" xmlns="http://www.w3.org/2000/svg" xmlns:xlink="http://www.w3.org/1999/xlink" x="0px" y="0px"
	 viewBox="0 0 32 32" style="enable-background:new 0 0 32 32;" xml:space="preserve">
<style type="text/css">
	.Yellow{fill:#FFB115;}
	.Red{fill:#D11C1C;}
	.Blue{fill:#1177D7;}
	.Green{fill:#039C23;}
	.Black{fill:#727272;}
	.White{fill:#FFFFFF;}
	.st0{opacity:0.5;}
	.st1{display:none;}
	.st2{display:inline;fill:#039C23;}
	.st3{display:inline;fill:#D11C1C;}
	.st4{display:inline;fill:#727272;}
</style>
<g id="Private_1_">
	<path class="Yellow" d="M27,12h-3v-2c0-4.4-3.6-8-8-8s-8,3.6-8,8v2H5c-0.5,0-1,0.5-1,1v16c0,0.5,0.5,1,1,1h22c0.5,0,1-0.5,1-1V13
		C28,12.5,27.5,12,27,12z M12,10c0-2.2,1.8-4,4-4c2.2,0,4,1.8,4,4v2h-8V10z M18,26h-4l1.2-6.2c-0.7-0.3-1.2-1-1.2-1.8
		c0-1.1,0.9-2,2-2c1.1,0,2,0.9,2,2c0,0.8-0.5,1.5-1.2,1.8L18,26z"/>
</g>
</svg>
