<?xml version="1.0" encoding="utf-8"?>
<!-- Generator: Adobe Illustrator 21.1.0, SVG Export Plug-In . SVG Version: 6.00 Build 0)  -->
<svg version="1.1" id="Layer_1" xmlns="http://www.w3.org/2000/svg" xmlns:xlink="http://www.w3.org/1999/xlink" x="0px" y="0px"
	 viewBox="0 0 32 32" style="enable-background:new 0 0 32 32;" xml:space="preserve">
<style type="text/css">
	.Black{fill:#727272;}
	.Yellow{fill:#FFB115;}
	.Blue{fill:#1177D7;}
	.Red{fill:#D11C1C;}
	.White{fill:#FFFFFF;}
	.Green{fill:#039C23;}
	.st0{fill:#727272;}
	.st1{opacity:0.5;}
	.st2{opacity:0.75;}
</style>
<g id="ProductOrderDetail_1_">
	<path class="Yellow" d="M14,22v4H3c-0.6,0-1-0.4-1-1V3c0-0.6,0.4-1,1-1h3v20H14z M23,2h-3v10h4V2.8C24,2.4,23.6,2,23,2z"/>
	<path class="Black" d="M18,2v3c0,0.6-0.4,1-1,1H9C8.4,6,8,5.6,8,5V2h2V1c0-0.6,0.4-1,1-1h4c0.6,0,1,0.4,1,1v1H18z M20,28
		c-1.1,0-2,0.9-2,2c0,1.1,0.9,2,2,2c1.1,0,2-0.9,2-2C22,28.9,21.1,28,20,28z M30,30c0,1.1-0.9,2-2,2c-1.1,0-2-0.9-2-2
		c0-1.1,0.9-2,2-2C29.1,28,30,28.9,30,30z M32,24v2H16v-8h-2v-2h4v8H32z M20,21v-6c0-0.5,0.5-1,1-1h8c0.5,0,1,0.5,1,1v6
		c0,0.5-0.5,1-1,1h-8C20.5,22,20,21.5,20,21z"/>
</g>
</svg>
