<?xml version="1.0" encoding="utf-8"?>
<!-- Generator: Adobe Illustrator 21.1.0, SVG Export Plug-In . SVG Version: 6.00 Build 0)  -->
<svg version="1.1" id="Layer_1" xmlns="http://www.w3.org/2000/svg" xmlns:xlink="http://www.w3.org/1999/xlink" x="0px" y="0px"
	 viewBox="0 0 32 32" style="enable-background:new 0 0 32 32;" xml:space="preserve">
<style type="text/css">
	.Black{fill:#727272;}
	.Yellow{fill:#FFB115;}
	.Blue{fill:#1177D7;}
	.Red{fill:#D11C1C;}
	.White{fill:#FFFFFF;}
	.Green{fill:#039C23;}
	.st0{fill:#727272;}
	.st1{opacity:0.5;}
	.st2{opacity:0.75;}
</style>
<g id="ProductQuickTopSalesperson">
	<path class="Blue" d="M0,14h6v12H0V14z M21.4,23.5c0.1,0,0.2-0.1,0.3-0.1c-0.2-0.4-0.4-0.8-0.5-1.2c-0.4-0.4-0.7-0.9-0.8-1.6
		c-0.3-0.4-0.6-1.2-0.4-2.2l0.1-0.2c-0.3-1.6,0-3.2,0.8-4.3c0.3-0.3,0.6-0.7,1.1-1V2h-6v24h2.6C19.2,24.6,20.4,24,21.4,23.5z M8,26
		h6V8H8V26z"/>
	<path class="Black" d="M32,29.1V30H20v-0.9c0-4,2.3-3.3,3.6-4.6c0.5,0.8,1.3,1.5,2.4,1.5c1.1,0,1.9-0.6,2.5-1.4
		C29.8,25.8,32,25.1,32,29.1z M22.9,20.8v0.1c0.4,1.5,1.3,3.1,3.1,3.1s2.8-1.6,3.2-3.1v-0.1c0.7,0,0.4-0.7,0.6-1s0.3-0.5,0.2-0.9
		c-0.1-0.3-0.3-0.2-0.4-0.2c1.2-3.1-0.7-2.9-0.7-2.9S28.7,14,25.2,14c-3.2,0-3.6,2.5-2.9,4.7c0,0.1-0.2,0.1-0.3,0.2
		c-0.1,0.4,0.1,0.6,0.3,0.9S22.2,20.8,22.9,20.8z"/>
</g>
</svg>
