<?xml version="1.0" encoding="utf-8"?>
<!-- Generator: Adobe Illustrator 21.1.0, SVG Export Plug-In . SVG Version: 6.00 Build 0)  -->
<svg version="1.1" id="Layer_1" xmlns="http://www.w3.org/2000/svg" xmlns:xlink="http://www.w3.org/1999/xlink" x="0px" y="0px"
	 viewBox="0 0 32 32" style="enable-background:new 0 0 32 32;" xml:space="preserve">
<style type="text/css">
	.Black{fill:#727272;}
	.Yellow{fill:#FFB115;}
	.Blue{fill:#1177D7;}
	.Red{fill:#D11C1C;}
	.White{fill:#FFFFFF;}
	.Green{fill:#039C23;}
	.st0{fill:#727272;}
	.st1{opacity:0.5;}
	.st2{opacity:0.75;}
</style>
<g id="ProductQuickShippments">
	<path class="Black" d="M3,18H0v14h3c0.6,0,1-0.4,1-1V19C4,18.4,3.6,18,3,18z"/>
	<path class="Blue" d="M12,6V3c0-0.5,0.5-1,1-1h16c0.5,0,1,0.5,1,1v3H12z M14,14c1.7,0,6.1,1,9.6,1.8c1.4,0.3,2.4,1.6,2.4,3
		c0,0.2,0,0.5-0.1,0.7C26.5,19.3,30,18,30,18V8H12v6.4C12.6,14.2,13.3,14,14,14z"/>
	<path class="Yellow" d="M6,20c2,0,4-2,4-2s2-2,4-2c1.6,0,7,1.3,9.1,1.8c0.5,0.1,0.9,0.6,0.9,1.1v0c0,0.6-0.5,1.1-1.1,1.1
		c0,0-2.9,0-4.9,0c0,2,4,2,6,2s5.1-1.7,6.4-2c0.4-0.1,1.2,0,1.5,0.5l0,0c0.3,0.6,0.1,1.2-0.5,1.5C29.4,23.2,25,26,20,26
		c-4,0-6-2-8-2s-6,4-6,4S6,23,6,20z"/>
</g>
</svg>
