<?xml version="1.0" encoding="utf-8"?>
<!-- Generator: Adobe Illustrator 21.1.0, SVG Export Plug-In . SVG Version: 6.00 Build 0)  -->
<svg version="1.1" id="Layer_1" xmlns="http://www.w3.org/2000/svg" xmlns:xlink="http://www.w3.org/1999/xlink" x="0px" y="0px"
	 viewBox="0 0 32 32" style="enable-background:new 0 0 32 32;" xml:space="preserve">
<style type="text/css">
	.Black{fill:#727272;}
	.Yellow{fill:#FFB115;}
	.Blue{fill:#1177D7;}
	.Red{fill:#D11C1C;}
	.White{fill:#FFFFFF;}
	.Green{fill:#039C23;}
	.st0{fill:#727272;}
	.st1{opacity:0.5;}
	.st2{opacity:0.75;}
</style>
<g id="Replace">
	<path class="Red" d="M12,26h-0.2H9.9H9.8v-0.1L9.2,24H4.8l-0.6,1.9V26H4.1H2.2H2l0.1-0.2L6,14.1V14h0.1H8h0.1v0.1l3.8,11.7L12,26
		L12,26z M5.4,22h3.2L7,16.7c0,0,0,0,0-0.1c0,0,0,0,0,0.1L5.4,22z"/>
	<path class="Green" d="M20,14h4.4c1.3,0,2.4,0.2,3.1,0.7c0.7,0.5,1.1,1.2,1.1,2.1c0,0.6-0.2,1.2-0.7,1.7c-0.4,0.5-1,0.8-1.7,1l0,0
		c0.9,0.1,1.5,0.4,2,0.9c0.5,0.5,0.8,1.2,0.8,1.9c0,1.1-0.4,2-1.2,2.6c-0.8,0.6-1.9,1-3.2,1H20V14z M22.7,16v2.8h1.2
		c0.6,0,1-0.1,1.3-0.4c0.3-0.3,0.5-0.6,0.5-1.1c0-0.9-0.7-1.3-2-1.3L22.7,16z M22.7,24.1h1.5c0.6,0,1.1-0.1,1.5-0.4
		c0.4-0.3,0.5-0.7,0.5-1.2s-0.2-0.9-0.5-1.1c-0.3-0.3-0.8-0.4-1.5-0.4h-1.5V24.1z"/>
	<path class="Blue" d="M23.1,6.9C21.3,5.1,18.8,4,16,4c-4.8,0-8.9,3.4-9.8,8h2.1c0.9-3.4,4-6,7.7-6c2.2,0,4.2,0.9,5.6,2.4L18,12h5.7
		h2.1H26V4L23.1,6.9z"/>
</g>
</svg>
