<?xml version="1.0" encoding="utf-8"?>
<!-- Generator: Adobe Illustrator 21.1.0, SVG Export Plug-In . SVG Version: 6.00 Build 0)  -->
<svg version="1.1" id="Layer_1" xmlns="http://www.w3.org/2000/svg" xmlns:xlink="http://www.w3.org/1999/xlink" x="0px" y="0px"
	 viewBox="0 0 32 32" style="enable-background:new 0 0 32 32;" xml:space="preserve">
<style type="text/css">
	.Yellow{fill:#FFB115;}
	.Red{fill:#D11C1C;}
	.Blue{fill:#1177D7;}
	.Green{fill:#039C23;}
	.Black{fill:#727272;}
	.White{fill:#FFFFFF;}
	.st0{opacity:0.5;}
	.st1{display:none;}
	.st2{display:inline;fill:#039C23;}
	.st3{display:inline;fill:#D11C1C;}
	.st4{display:inline;fill:#727272;}
</style>
<g id="Sales">
	<path class="Black" d="M23,24c1.7,0,3,1.3,3,3s-1.3,3-3,3s-3-1.3-3-3S21.3,24,23,24z M8,20V10V8H2v2h4v12h22v-2H8z M11,24
		c1.7,0,3,1.3,3,3s-1.3,3-3,3s-3-1.3-3-3S9.3,24,11,24z"/>
	<path class="Yellow" d="M11,18h14c0.6,0,1-0.5,1-1V5c0-0.5-0.4-1-1-1H11c-0.6,0-1,0.5-1,1v12C10,17.5,10.4,18,11,18z"/>
</g>
</svg>
