<?xml version="1.0" encoding="utf-8"?>
<!-- Generator: Adobe Illustrator 21.1.0, SVG Export Plug-In . SVG Version: 6.00 Build 0)  -->
<svg version="1.1" id="Layer_1" xmlns="http://www.w3.org/2000/svg" xmlns:xlink="http://www.w3.org/1999/xlink" x="0px" y="0px"
	 viewBox="0 0 32 32" style="enable-background:new 0 0 32 32;" xml:space="preserve">
<style type="text/css">
	.Yellow{fill:#FFB115;}
	.Red{fill:#D11C1C;}
	.Blue{fill:#1177D7;}
	.Green{fill:#039C23;}
	.Black{fill:#727272;}
	.White{fill:#FFFFFF;}
	.st0{opacity:0.5;}
	.st1{display:none;}
	.st2{display:inline;fill:#039C23;}
	.st3{display:inline;fill:#D11C1C;}
	.st4{display:inline;fill:#727272;}
</style>
<g id="Shading">
	<path class="Blue" d="M18.4,10c2.6,0,4.8,4.3,4.8,9.6c0,1.3,1.1,2.4,2.4,2.4s2.4-1.1,2.4-2.4C28,14.3,23.7,10,18.4,10z"/>
	<path class="Black" d="M17.1,11.1L20,14l-6.8,6.8c-1.6,1.6-4.1,1.6-5.7,0l-4.3-4.3c-1.6-1.6-1.6-4.1,0-5.7L10,4l2.9,2.9l-2,2
		c-1.2,1.2-1.2,3.1,0,4.2c1.2,1.2,3.1,1.2,4.2,0L17.1,11.1z M19.7,4.3c-0.4-0.4-1.1-0.4-1.5,0l-5.9,5.9c-0.4,0.4-0.4,1.1,0,1.5
		c0.4,0.4,1.1,0.4,1.5,0l5.9-5.9C20.1,5.4,20.1,4.7,19.7,4.3z"/>
</g>
</svg>
