<?xml version="1.0" encoding="utf-8"?>
<!-- Generator: Adobe Illustrator 21.1.0, SVG Export Plug-In . SVG Version: 6.00 Build 0)  -->
<svg version="1.1" id="Layer_1" xmlns="http://www.w3.org/2000/svg" xmlns:xlink="http://www.w3.org/1999/xlink" x="0px" y="0px"
	 viewBox="0 0 32 32" style="enable-background:new 0 0 32 32;" xml:space="preserve">
<style type="text/css">
	.Black{fill:#727272;}
	.Yellow{fill:#FFB115;}
	.Blue{fill:#1177D7;}
	.Red{fill:#D11C1C;}
	.White{fill:#FFFFFF;}
	.Green{fill:#039C23;}
	.st0{fill:#727272;}
	.st1{opacity:0.5;}
	.st2{opacity:0.75;}
</style>
<g id="Shipment">
	<path class="Blue" d="M29.4,15.4L22,8V7c0-0.5-0.5-1-1-1H3C2.5,6,2,6.5,2,7v14c0,0.5,0.5,1,1,1h1c0,2.2,1.8,4,4,4s4-1.8,4-4h4h4
		c0,2.2,1.8,4,4,4s4-1.8,4-4h2v-2v-2v-1.2C30,16.3,29.8,15.8,29.4,15.4z M8,24c-1.1,0-2-0.9-2-2c0-1.1,0.9-2,2-2s2,0.9,2,2
		C10,23.1,9.1,24,8,24z M24,24c-1.1,0-2-0.9-2-2c0-1.1,0.9-2,2-2s2,0.9,2,2C26,23.1,25.1,24,24,24z M22,16v-5.2l5.2,5.2H22z"/>
</g>
</svg>
