<?xml version="1.0" encoding="utf-8"?>
<!-- Generator: Adobe Illustrator 21.1.0, SVG Export Plug-In . SVG Version: 6.00 Build 0)  -->
<svg version="1.1" id="Layer_1" xmlns="http://www.w3.org/2000/svg" xmlns:xlink="http://www.w3.org/1999/xlink" x="0px" y="0px"
	 viewBox="0 0 32 32" style="enable-background:new 0 0 32 32;" xml:space="preserve">
<style type="text/css">
	.Black{fill:#727272;}
	.Yellow{fill:#FFB115;}
	.Blue{fill:#1177D7;}
	.Red{fill:#D11C1C;}
	.White{fill:#FFFFFF;}
	.Green{fill:#039C23;}
	.st0{fill:#727272;}
	.st1{opacity:0.5;}
	.st2{opacity:0.75;}
</style>
<g id="SpellCheck">
	<polygon class="Blue" points="27,9 12,24 7,19 4,22 12,30 30,12 	"/>
	<path class="Black" d="M7.9,12H6l-0.6-1.8H2.6L2,12H0l3-8h2.1L7.9,12z M5,8.8L4.1,6.1C4.1,5.9,4,5.7,4,5.4l0,0
		c0,0.2-0.1,0.5-0.1,0.7L3,8.8H5z M8.9,12V4h2.9c0.9,0,1.6,0.2,2.1,0.5s0.7,0.8,0.7,1.4c0,0.4-0.1,0.8-0.4,1.1
		c-0.3,0.3-0.7,0.5-1.1,0.7l0,0c0.6,0.1,1,0.3,1.4,0.6C14.9,8.6,15,9.1,15,9.6c0,0.7-0.3,1.3-0.8,1.7C13.6,11.8,12.9,12,12,12H8.9z
		 M10.7,5.3v1.9h0.8c0.4,0,0.7-0.1,0.9-0.3s0.3-0.4,0.3-0.7c0-0.6-0.4-0.9-1.3-0.9L10.7,5.3z M10.7,8.6v2.1h1c0.4,0,0.7-0.1,1-0.3
		c0.2-0.2,0.4-0.5,0.4-0.8S13,9,12.8,8.8c-0.2-0.2-0.6-0.3-1-0.3h-1.1V8.6z M22,11.7c-0.6,0.3-1.3,0.4-2.3,0.4
		c-1.2,0-2.2-0.4-2.9-1.1c-0.7-0.7-1.1-1.7-1.1-2.9c0-1.3,0.4-2.3,1.2-3.1c0.8-0.8,1.8-1.2,3.1-1.2c0.8,0,1.4,0.1,2,0.3v1.7
		c-0.5-0.3-1.1-0.5-1.8-0.5c-0.8,0-1.4,0.2-1.8,0.7c-0.5,0.5-0.7,1.1-0.7,1.9s0.2,1.4,0.7,1.8s1,0.7,1.8,0.7c0.7,0,1.3-0.2,1.9-0.5
		v1.8H22z"/>
</g>
</svg>
