<?xml version="1.0" encoding="utf-8"?>
<!-- Generator: Adobe Illustrator 21.1.0, SVG Export Plug-In . SVG Version: 6.00 Build 0)  -->
<svg version="1.1" id="Layer_1" xmlns="http://www.w3.org/2000/svg" xmlns:xlink="http://www.w3.org/1999/xlink" x="0px" y="0px"
	 viewBox="0 0 32 32" style="enable-background:new 0 0 32 32;" xml:space="preserve">
<style type="text/css">
	.Yellow{fill:#FFB115;}
	.Red{fill:#D11C1C;}
	.Blue{fill:#1177D7;}
	.Green{fill:#039C23;}
	.Black{fill:#727272;}
	.White{fill:#FFFFFF;}
	.st0{opacity:0.5;}
	.st1{display:none;}
	.st2{display:inline;fill:#039C23;}
	.st3{display:inline;fill:#D11C1C;}
	.st4{display:inline;fill:#727272;}
</style>
<g id="StrikeoutDouble">
	<path class="Black" d="M24,14h-7c0.5,0.3,1,0.6,1.5,0.9c0.5,0.3,1,0.7,1.5,1.1h4v2h-2.4c0.3,0.6,0.4,1.3,0.4,2.1
		c0,1.1-0.2,2-0.7,2.7s-1,1.3-1.8,1.8c-0.8,0.5-1.6,0.8-2.6,1s-2,0.3-3.1,0.3c-0.4,0-0.8,0-1.3-0.1c-0.5-0.1-1.1-0.1-1.6-0.2
		c-0.6-0.1-1.1-0.2-1.6-0.4C8.7,25.2,8.3,25,8,24.8v-3.6c0.3,0.3,0.7,0.6,1.2,0.8c0.5,0.2,1,0.4,1.5,0.6c0.5,0.2,1,0.3,1.6,0.4
		s1,0.1,1.4,0.1c1.5,0,2.7-0.2,3.4-0.7c0.7-0.5,1.1-1.2,1.1-2.2c0-0.5-0.1-0.9-0.4-1.3c-0.2-0.3-0.5-0.6-0.9-0.9H6v-2h7.1
		c-0.7-0.4-1.3-0.7-1.9-1.1c-0.5-0.3-0.8-0.6-1.2-0.9H6v-2h2.4c0,0,0,0,0,0C8.1,11.4,8,10.7,8,9.8c0-1,0.2-1.9,0.7-2.6
		s1.1-1.3,1.8-1.8c0.8-0.5,1.6-0.8,2.6-1.1c1-0.2,1.9-0.3,3-0.3c2.3,0,4,0.3,5,0.8v3.5c-1.2-0.9-2.8-1.3-4.8-1.3
		c-0.5,0-1.1,0-1.6,0.1c-0.5,0.1-1,0.3-1.4,0.5c-0.4,0.2-0.8,0.5-1,0.9c-0.3,0.4-0.4,0.8-0.4,1.3c0,0.5,0.1,0.9,0.3,1.2
		s0.5,0.7,0.9,1c0,0,0.1,0,0.1,0.1H24V14z"/>
</g>
</svg>
