<?xml version="1.0" encoding="utf-8"?>
<!-- Generator: Adobe Illustrator 21.1.0, SVG Export Plug-In . SVG Version: 6.00 Build 0)  -->
<svg version="1.1" id="Layer_1" xmlns="http://www.w3.org/2000/svg" xmlns:xlink="http://www.w3.org/1999/xlink" x="0px" y="0px"
	 viewBox="0 0 32 32" style="enable-background:new 0 0 32 32;" xml:space="preserve">
<style type="text/css">
	.Yellow{fill:#FFB115;}
	.Red{fill:#D11C1C;}
	.Blue{fill:#1177D7;}
	.Green{fill:#039C23;}
	.Black{fill:#727272;}
	.White{fill:#FFFFFF;}
	.st0{opacity:0.5;}
	.st1{display:none;}
	.st2{display:inline;fill:#039C23;}
	.st3{display:inline;fill:#D11C1C;}
	.st4{display:inline;fill:#727272;}
</style>
<g id="Subscript">
	<path class="Black" d="M2.6,6H8l4.1,7l4.3-7h5.1l-6.8,10.5L22,28h-5.5l-4.6-7.6L7.2,28H2l7.3-11.5L2.6,6z"/>
	<path class="Red" d="M27.4,30.3c0.2-0.3,0.5-0.6,0.8-0.9s0.6-0.5,1-0.7s0.7-0.4,1-0.7s0.6-0.5,0.9-0.7c0.3-0.3,0.5-0.6,0.6-0.9
		c0.2-0.4,0.2-0.8,0.2-1.3c0-0.5-0.1-0.9-0.3-1.3c-0.2-0.4-0.4-0.7-0.7-1c-0.3-0.3-0.7-0.5-1.1-0.6C29.5,22.1,29,22,28.6,22
		c-0.6,0-1.1,0.1-1.6,0.3c-0.5,0.2-0.8,0.5-1.1,0.8c-0.3,0.4-0.5,0.8-0.7,1.3S25,25.4,25,26l0,0h1.9l0,0c0-0.3,0-0.5,0.1-0.8
		c0.1-0.3,0.1-0.5,0.3-0.7c0.1-0.2,0.3-0.4,0.5-0.5c0.2-0.1,0.4-0.2,0.7-0.2c0.4,0,0.8,0.1,1.1,0.4c0.3,0.3,0.4,0.6,0.4,1.1
		c0,0.3-0.1,0.6-0.2,0.8c-0.1,0.2-0.3,0.4-0.5,0.6c-0.2,0.2-0.4,0.4-0.7,0.5c-0.2,0.2-0.5,0.3-0.7,0.5c-0.4,0.3-0.8,0.6-1.2,0.9
		c-0.4,0.3-0.7,0.6-1,0.9c-0.3,0.3-0.5,0.7-0.7,1.1s-0.2,0.9-0.2,1.5H32v-1.7H27.4z"/>
</g>
</svg>
