<?xml version="1.0" encoding="utf-8"?>
<!-- Generator: Adobe Illustrator 21.1.0, SVG Export Plug-In . SVG Version: 6.00 Build 0)  -->
<svg version="1.1" id="Layer_1" xmlns="http://www.w3.org/2000/svg" xmlns:xlink="http://www.w3.org/1999/xlink" x="0px" y="0px"
	 viewBox="0 0 32 32" style="enable-background:new 0 0 32 32;" xml:space="preserve">
<style type="text/css">
	.Yellow{fill:#FFB115;}
	.Red{fill:#D11C1C;}
	.Blue{fill:#1177D7;}
	.Green{fill:#039C23;}
	.Black{fill:#727272;}
	.White{fill:#FFFFFF;}
	.st0{opacity:0.5;}
	.st1{display:none;}
	.st2{display:inline;fill:#039C23;}
	.st3{display:inline;fill:#D11C1C;}
	.st4{display:inline;fill:#727272;}
</style>
<g id="Support">
	<path class="Blue" d="M29,2H3C2.5,2,2,2.5,2,3v22c0,0.5,0.5,1,1,1h5v0v6l6-6h15c0.5,0,1-0.5,1-1V3C30,2.5,29.5,2,29,2z M16,22
		c-1.1,0-2-0.9-2-2c0-1.1,0.9-2,2-2c1.1,0,2,0.9,2,2C18,21.1,17.1,22,16,22z M20.7,11.5c-0.2,0.4-0.4,0.8-0.6,1.1
		c-0.3,0.3-0.5,0.6-0.8,0.8c-0.3,0.2-0.6,0.4-0.9,0.6c-0.3,0.2-0.5,0.5-0.7,0.7c-0.2,0.3-0.3,0.6-0.4,1V16h-2.7v-0.4
		c0-0.6,0.2-1.1,0.3-1.5c0.2-0.4,0.4-0.7,0.6-1c0.2-0.3,0.5-0.5,0.8-0.7c0.3-0.2,0.5-0.4,0.8-0.6c0.2-0.2,0.4-0.4,0.6-0.7
		c0.1-0.2,0.2-0.5,0.2-0.9c0-0.6-0.2-1.1-0.5-1.4c-0.3-0.3-0.7-0.4-1.3-0.4c-0.4,0-0.7,0.1-0.9,0.2c-0.3,0.1-0.5,0.3-0.7,0.6
		c-0.2,0.2-0.3,0.5-0.4,0.8C14,10.3,14,10.7,14,11h-3c0-0.7,0.1-1.4,0.4-2c0.2-0.6,0.6-1.1,1-1.6c0.4-0.4,0.9-0.8,1.5-1
		c0.6-0.3,1.3-0.4,2-0.4c1,0,1.8,0.1,2.4,0.4c0.6,0.3,1.2,0.6,1.6,1c0.4,0.4,0.7,0.8,0.8,1.3C20.9,9.1,21,9.5,21,9.9
		C21,10.6,20.9,11.1,20.7,11.5z"/>
</g>
</svg>
