<?xml version="1.0" encoding="utf-8"?>
<!-- Generator: Adobe Illustrator 21.1.0, SVG Export Plug-In . SVG Version: 6.00 Build 0)  -->
<svg version="1.1" id="Layer_1" xmlns="http://www.w3.org/2000/svg" xmlns:xlink="http://www.w3.org/1999/xlink" x="0px" y="0px"
	 viewBox="0 0 32 32" style="enable-background:new 0 0 32 32;" xml:space="preserve">
<style type="text/css">
	.Yellow{fill:#FFB115;}
	.Red{fill:#D11C1C;}
	.Blue{fill:#1177D7;}
	.Green{fill:#039C23;}
	.Black{fill:#727272;}
	.White{fill:#FFFFFF;}
	.st0{opacity:0.5;}
	.st1{display:none;}
	.st2{display:inline;fill:#039C23;}
	.st3{display:inline;fill:#D11C1C;}
	.st4{display:inline;fill:#727272;}
</style>
<g id="ThankYouNote">
	<path class="Yellow" d="M28,12h-8l2.3-5.5c0.2-0.7,0.1-1.5-0.5-2c-0.6-0.6-1.6-0.6-2.3,0L10,14c0,6.3,0,10,0,10c0,1.1,0.9,2,2,2
		h13.3c0.9,0,1.6-0.6,1.9-1.4l2.7-10C30.3,13.3,29.4,12,28,12z"/>
	<path class="Black" d="M0,12v16h7c0.6,0,1-0.4,1-1V13c0-0.6-0.4-1-1-1H0z M6,26H4v-2h2V26z"/>
</g>
</svg>
