<?xml version="1.0" encoding="utf-8"?>
<!-- Generator: Adobe Illustrator 20.1.0, SVG Export Plug-In . SVG Version: 6.00 Build 0)  -->
<svg version="1.1" id="Layer_1" xmlns="http://www.w3.org/2000/svg" xmlns:xlink="http://www.w3.org/1999/xlink" x="0px" y="0px"
	 viewBox="0 0 32 32" style="enable-background:new 0 0 32 32;" xml:space="preserve">
<style type="text/css">
	.White{fill:#FFFFFF;}
	.Black{fill:#727272;}
	.Blue{fill:#1177D7;}
	.Red{fill:#D11C1C;}
	.st0{opacity:0.5;}
</style>
<g id="Layer_2">
	<g id="Save_and_close">
		<polygon class="Blue" points="30,2 2,2 2,30 2,30 6,30 6,20 26,20 26,30 30,30 		"/>
		<rect x="6" y="2" class="White" width="20" height="14"/>
		<path class="Black" d="M6,20v10h20V20H6z M24,28h-4v-6h4V28z"/>
		<g class="st0">
			<rect x="8" y="4" class="Black" width="8" height="2"/>
			<rect x="8" y="8" class="Black" width="8" height="2"/>
		</g>
		<path class="Red" d="M25,0c3.9,0,7,3.1,7,7s-3.1,7-7,7s-7-3.1-7-7S21.1,0,25,0z"/>
		<path class="White" d="M28.8,9.3l-1.4,1.4L25,8.4l-2.3,2.3l-1.4-1.4L23.6,7l-2.3-2.3l1.4-1.4L25,5.6l2.3-2.3l1.4,1.4L26.4,7
			L28.8,9.3z"/>
	</g>
</g>
</svg>
