<?xml version="1.0" encoding="utf-8"?>
<!-- Generator: Adobe Illustrator 21.1.0, SVG Export Plug-In . SVG Version: 6.00 Build 0)  -->
<svg version="1.1" id="Layer_1" xmlns="http://www.w3.org/2000/svg" xmlns:xlink="http://www.w3.org/1999/xlink" x="0px" y="0px"
	 viewBox="0 0 32 32" style="enable-background:new 0 0 32 32;" xml:space="preserve">
<style type="text/css">
	.Red{fill:#D11C1C;}
	.Black{fill:#727272;}
	.Blue{fill:#1177D7;}
	.Green{fill:#039C23;}
	.Yellow{fill:#FFB115;}
	.White{fill:#FFFFFF;}
	.st0{opacity:0.5;}
	.st1{opacity:0.75;}
	.st2{opacity:0.25;}
</style>
<g>
	<path class="Black" d="M6,16V6H3C2.4,6,2,6.4,2,7v22c0,0.6,0.4,1,1,1h22c0.6,0,1-0.4,1-1V16H6z M6,26v-6h16v6H6z"/>
	<path class="Black" d="M16,6H8v8h8V6z M12,12h-2V8h2V12z"/>
</g>
<path class="Red" d="M29,2H19c-0.5,0-1,0.5-1,1v10c0,0.5,0.5,1,1,1h10c0.5,0,1-0.5,1-1V3C30,2.5,29.5,2,29,2z M27.8,10.5
	c0.2,0.2,0.2,0.5,0,0.7l-0.7,0.7c-0.2,0.2-0.5,0.2-0.7,0L24,9.4l-2.5,2.5c-0.2,0.2-0.5,0.2-0.7,0l-0.7-0.7c-0.2-0.2-0.2-0.5,0-0.7
	L22.6,8l-2.4-2.5C20,5.3,20,5,20.2,4.8l0.7-0.7C21,4,21.3,4,21.5,4.1L24,6.6l2.5-2.5C26.7,4,27,4,27.2,4.1l0.7,0.7
	C28,5,28,5.3,27.8,5.5L25.4,8L27.8,10.5z"/>
</svg>
