<?xml version="1.0" encoding="utf-8"?>
<!-- Generator: Adobe Illustrator 21.0.2, SVG Export Plug-In . SVG Version: 6.00 Build 0)  -->
<svg version="1.1" id="Save" xmlns="http://www.w3.org/2000/svg" xmlns:xlink="http://www.w3.org/1999/xlink" x="0px" y="0px"
	 viewBox="0 0 32 32" style="enable-background:new 0 0 32 32;" xml:space="preserve">
<style type="text/css">
	.Black{fill:#727272;}
</style>
<path class="Black" d="M31,0H19c-0.6,0-1,0.4-1,1v16c0,0.6,0.4,1,1,1h12c0.6,0,1-0.4,1-1V1C32,0.4,31.6,0,31,0z M30,16H20V2h10V16z"
	/>
<path class="Black" d="M22,20v4H6v-6h10v-4H6V4H3C2.4,4,2,4.4,2,5v22c0,0.6,0.4,1,1,1h22c0.6,0,1-0.4,1-1v-7H22z M16,4H8v8h8V4z
	 M12,10h-2V6h2V10z"/>
</svg>
