<?xml version="1.0" encoding="utf-8"?>
<!-- Generator: Adobe Illustrator 21.1.0, SVG Export Plug-In . SVG Version: 6.00 Build 0)  -->
<svg version="1.1" id="Layer_1" xmlns="http://www.w3.org/2000/svg" xmlns:xlink="http://www.w3.org/1999/xlink" x="0px" y="0px"
	 viewBox="0 0 18 18" style="enable-background:new 0 0 18 18;" xml:space="preserve">
<style type="text/css">
	.Black{fill:#727272;}
	.st0{opacity:0.5;}
</style>
<g class="st0">
	<path class="Black" d="M0,1v16c0,0.6,0.4,1,1,1h16c0.6,0,1-0.4,1-1V1c0-0.6-0.4-1-1-1H1C0.4,0,0,0.4,0,1z M16,16H2V2h14V16z"/>
	<path class="Black" d="M13,14H5c-0.6,0-1-0.4-1-1V5c0-0.6,0.4-1,1-1h8c0.6,0,1,0.4,1,1v8C14,13.6,13.6,14,13,14z"/>
</g>
</svg>
