<?xml version="1.0" encoding="utf-8"?>
<!-- Generator: Adobe Illustrator 21.1.0, SVG Export Plug-In . SVG Version: 6.00 Build 0)  -->
<svg version="1.1" id="Layer_1" xmlns="http://www.w3.org/2000/svg" xmlns:xlink="http://www.w3.org/1999/xlink" x="0px" y="0px"
	 viewBox="0 0 18 18" style="enable-background:new 0 0 18 18;" xml:space="preserve">
<style type="text/css">
	.Black{fill:#727272;}
</style>
<path class="Black" d="M13,2c-1.7,0-3.2,0.8-4,2.4v0C8.2,2.8,6.7,2,5,2C2.5,2,1,4.3,1,6.8c0,3.9,6.2,9.5,8,9.6v0
	c1.8-0.1,8-5.7,8-9.6C17,4.3,15.5,2,13,2z M9,14.5L9,14.5C7.8,14.1,3,9.7,3,7c0-2.4,1.5-3,2.4-3c2.2,0,3,2.1,3.4,3
	c0.1,0.2,0.3,0.2,0.4,0c0.3-0.9,1.2-3,3.4-3C13.1,4,15,4.6,15,7C15,9.7,10.2,14.1,9,14.5z"/>
</svg>
