<?xml version="1.0" encoding="utf-8"?>
<!-- Generator: Adobe Illustrator 21.1.0, SVG Export Plug-In . SVG Version: 6.00 Build 0)  -->
<svg version="1.1" id="Layer_1" xmlns="http://www.w3.org/2000/svg" xmlns:xlink="http://www.w3.org/1999/xlink" x="0px" y="0px"
	 viewBox="0 0 18 18" style="enable-background:new 0 0 18 18;" xml:space="preserve">
<style type="text/css">
	.Black{fill:#727272;}
	.st0{opacity:0.5;}
</style>
<g class="st0">
	<path class="Black" d="M18,6.5l-6.2-0.9L9,0L6.2,5.6L0,6.5l4.5,4.4l-1.1,6.2L9,14.2l5.6,2.9l-1.1-6.2L18,6.5z M9,11.9l-3.1,1.6
		l0.6-3.2L4,7.6l3.5-0.5L9,4l1.5,3.1L14,7.6L11.5,10l0.6,3.4L9,11.9z"/>
</g>
<g class="st0">
	<path class="Black" d="M18,6.5l-6.2-0.9L9,0L6.2,5.6L0,6.5l4.5,4.4l-1.1,6.2L9,14.2l5.6,2.9l-1.1-6.2L18,6.5z"/>
</g>
</svg>
