<?xml version="1.0" encoding="utf-8"?>
<!-- Generator: Adobe Illustrator 21.1.0, SVG Export Plug-In . SVG Version: 6.00 Build 0)  -->
<svg version="1.1" id="Layer_1" xmlns="http://www.w3.org/2000/svg" xmlns:xlink="http://www.w3.org/1999/xlink" x="0px" y="0px"
	 viewBox="0 0 18 18" style="enable-background:new 0 0 18 18;" xml:space="preserve">
<style type="text/css">
	.Green{fill:#039C23;}
	.st0{opacity:0.5;}
</style>
<g class="st0">
	<path class="Green" d="M16,8.3C16.1,7.1,15.2,6,13.9,6h0h-2.5h-0.3c0,0,0.5-3,0-3.5c-0.5-0.5-1.8-0.7-2,0C8.4,5.1,7.1,6.6,7.1,6.6
		C6.3,7.4,5.9,8.7,5.9,9.9V12c0,2.2,0.7,4,2.9,4h2.7h1.9c1.1,0,1.9-0.8,2.1-1.8L16,8.3z"/>
	<path class="Green" d="M3,16H2V8h1c0.6,0,1,0.4,1,1v6C4,15.6,3.6,16,3,16z"/>
</g>
</svg>
