<?xml version="1.0" encoding="utf-8"?>
<!-- Generator: Adobe Illustrator 21.1.0, SVG Export Plug-In . SVG Version: 6.00 Build 0)  -->
<svg version="1.1" id="Layer_1" xmlns="http://www.w3.org/2000/svg" xmlns:xlink="http://www.w3.org/1999/xlink" x="0px" y="0px"
	 viewBox="0 0 18 18" style="enable-background:new 0 0 18 18;" xml:space="preserve">
<style type="text/css">
	.Red{fill:#D11C1C;}
</style>
<path class="Red" d="M2,9.7c-0.2,1.2,0.8,2.4,2.1,2.4h0h2.5h0.3c0,0-0.5,3,0,3.5c0.5,0.5,1.8,0.7,2,0c0.7-2.6,1.9-4.1,1.9-4.1
	c0.9-0.8,1.3-2.1,1.3-3.4V6c0-2.2-0.7-4-2.9-4H6.6H4.7C3.6,2,2.7,2.8,2.6,3.8L2,9.7z"/>
<path class="Red" d="M15,2h1v8h-1c-0.6,0-1-0.4-1-1V3C14,2.5,14.4,2,15,2z"/>
</svg>
