<?xml version="1.0" encoding="utf-8"?>
<!-- Generator: Adobe Illustrator 20.1.0, SVG Export Plug-In . SVG Version: 6.00 Build 0)  -->
<svg version="1.1" id="Слой_1" xmlns="http://www.w3.org/2000/svg" xmlns:xlink="http://www.w3.org/1999/xlink" x="0px" y="0px"
	 viewBox="0 0 32 32" style="enable-background:new 0 0 32 32;" xml:space="preserve">
<style type="text/css">
	.Black{fill:#727272;}
	.White{fill:#FFFFFF;}
</style>
<g id="Слой_2">
	<path class="Black" d="M30,6v22H0V6H30z"/>
	<path class="White" d="M28,16v6h-6l2-2l-6-6l-4,4l-8-8l2-2l6,6l4-4l8,8L28,16z"/>
	<rect x="2" y="8" class="White" width="2" height="2"/>
	<rect x="2" y="12" class="White" width="2" height="2"/>
	<rect x="2" y="16" class="White" width="2" height="2"/>
	<rect x="2" y="20" class="White" width="2" height="2"/>
	<rect x="2" y="24" class="White" width="2" height="2"/>
	<rect x="6" y="24" class="White" width="2" height="2"/>
	<rect x="10" y="24" class="White" width="2" height="2"/>
	<rect x="14" y="24" class="White" width="2" height="2"/>
	<rect x="18" y="24" class="White" width="2" height="2"/>
	<rect x="22" y="24" class="White" width="2" height="2"/>
	<rect x="26" y="24" class="White" width="2" height="2"/>
</g>
</svg>
