<?xml version="1.0" encoding="utf-8"?>
<!-- Generator: Adobe Illustrator 21.1.0, SVG Export Plug-In . SVG Version: 6.00 Build 0)  -->
<svg version="1.1" id="Layer_1" xmlns="http://www.w3.org/2000/svg" xmlns:xlink="http://www.w3.org/1999/xlink" x="0px" y="0px"
	 viewBox="0 0 32 32" style="enable-background:new 0 0 32 32;" xml:space="preserve">
<style type="text/css">
	.Yellow{fill:#FFB115;}
	.Red{fill:#D11C1C;}
	.Blue{fill:#1177D7;}
	.Green{fill:#039C23;}
	.Black{fill:#727272;}
	.White{fill:#FFFFFF;}
	.st0{opacity:0.75;}
</style>
<g id="DocumentPDF">
	<path class="Black" d="M22,24v4H2V2h14v5c0,0.6,0.4,1,1,1h5v4h2V7l-7-7H1C0.4,0,0,0.4,0,1v28c0,0.6,0.4,1,1,1h22c0.6,0,1-0.4,1-1
		v-5H22z"/>
	<path class="Red" d="M19.2,16c0.3,0.5,0.4,1.1,0.4,1.9c0,0.9-0.2,1.5-0.5,2c-0.3,0.5-0.7,0.7-1.3,0.7h-0.6v-5.3h0.6
		C18.4,15.3,18.9,15.6,19.2,16z M12.1,15.3h-0.5v2.6h0.5c0.7,0,1.1-0.4,1.1-1.3c0-0.4-0.1-0.8-0.3-1C12.6,15.4,12.4,15.3,12.1,15.3z
		 M30,12v12H6V12H30z M14.8,16.5c0-0.8-0.2-1.5-0.6-1.9c-0.4-0.4-1-0.7-1.8-0.7H10v8h1.6v-2.7h0.6c0.8,0,1.4-0.3,1.9-0.8
		C14.5,18,14.8,17.3,14.8,16.5z M21.2,17.9c0-2.6-1.1-3.9-3.4-3.9h-2.1v8h2.2c1.1,0,1.9-0.4,2.5-1.1C20.9,20.2,21.2,19.2,21.2,17.9z
		 M26,14h-3.7v8h1.6v-3.1h2v-1.3h-2v-2.2H26V14z"/>
</g>
</svg>
