<?xml version="1.0" encoding="utf-8"?>
<!-- Generator: Adobe Illustrator 21.1.0, SVG Export Plug-In . SVG Version: 6.00 Build 0)  -->
<svg version="1.1" id="Layer_1" xmlns="http://www.w3.org/2000/svg" xmlns:xlink="http://www.w3.org/1999/xlink" x="0px" y="0px"
	 viewBox="0 0 32 32" style="enable-background:new 0 0 32 32;" xml:space="preserve">
<style type="text/css">
	.Yellow{fill:#FFB115;}
	.Red{fill:#D11C1C;}
	.Blue{fill:#1177D7;}
	.Green{fill:#039C23;}
	.Black{fill:#727272;}
	.White{fill:#FFFFFF;}
	.st0{opacity:0.75;}
</style>
<g id="EnableScrolling">
	<path class="Black" d="M26,0v12H8V0H6v13c0,0.6,0.4,1,1,1h20c0.6,0,1-0.4,1-1V0H26z M26,32V20H8v12H6V19c0-0.6,0.4-1,1-1h20
		c0.6,0,1,0.4,1,1v13H26z"/>
	<path class="Blue" d="M22,6H12v2h10V6z M22,4H12V2h10V4z M22,30H12v-2h10V30z M22,24H12v2h10V24z"/>
</g>
</svg>
