<?xml version="1.0" encoding="utf-8"?>
<!-- Generator: Adobe Illustrator 21.1.0, SVG Export Plug-In . SVG Version: 6.00 Build 0)  -->
<svg version="1.1" id="Layer_1" xmlns="http://www.w3.org/2000/svg" xmlns:xlink="http://www.w3.org/1999/xlink" x="0px" y="0px"
	 viewBox="0 0 32 32" style="enable-background:new 0 0 32 32;" xml:space="preserve">
<style type="text/css">
	.Yellow{fill:#FFB115;}
	.Red{fill:#D11C1C;}
	.Blue{fill:#1177D7;}
	.Green{fill:#039C23;}
	.Black{fill:#727272;}
	.White{fill:#FFFFFF;}
	.st0{opacity:0.75;}
</style>
<g id="HandTool">
	<path class="Black" d="M31.1,8.3c-1.1-0.7-2.5-0.2-2.9,0.9l-1.9,4.1c-0.2,0.4-0.6,0.6-1,0.6h0c-0.7,0-1.2-0.6-1-1.3L26,4.4
		c0.2-1.1-0.4-2.1-1.5-2.4c-1.1-0.2-2.1,0.4-2.4,1.5l-1.9,7.6c-0.1,0.5-0.5,0.8-1,0.8h-0.1c-0.6,0-1.1-0.5-1.1-1.1V2.1
		c0-1-0.7-1.9-1.6-2.1C15.1-0.2,14,0.8,14,2v8.9c0,0.6-0.5,1.1-1.1,1.1h-0.1c-0.5,0-0.9-0.3-1-0.8L10,3.6C9.7,2.4,8.4,1.7,7.3,2.2
		C6.3,2.5,5.9,3.6,6.1,4.6l2.5,11.3c0.2,0.8-0.7,1.5-1.5,1.1l-4-2.6c-0.8-0.5-1.8-0.4-2.5,0.3c-0.8,0.8-0.8,2.1,0,2.9L10.9,28
		c1.2,1.3,3,2,4.9,2H20c2.9,0,4.7-2,5.9-4.8l5.9-14.3C32.2,10,31.9,8.9,31.1,8.3z"/>
</g>
</svg>
