<?xml version="1.0" encoding="utf-8"?>
<!-- Generator: Adobe Illustrator 21.1.0, SVG Export Plug-In . SVG Version: 6.00 Build 0)  -->
<svg version="1.1" id="Layer_1" xmlns="http://www.w3.org/2000/svg" xmlns:xlink="http://www.w3.org/1999/xlink" x="0px" y="0px"
	 viewBox="0 0 32 32" style="enable-background:new 0 0 32 32;" xml:space="preserve">
<style type="text/css">
	.Yellow{fill:#FFB115;}
	.Red{fill:#D11C1C;}
	.Blue{fill:#1177D7;}
	.Green{fill:#039C23;}
	.Black{fill:#727272;}
	.White{fill:#FFFFFF;}
	.st0{opacity:0.75;}
</style>
<g id="Highlight">
	<path class="Black" d="M0.8,5.4c0.3-0.4,0.7-0.8,1.1-1C2.3,4.1,2.8,4,3.4,3.8C4,3.7,4.5,3.6,5.1,3.6c0.5,0,1,0,1.6,0.1
		c0.5,0.1,1,0.2,1.4,0.4c0.4,0.2,0.7,0.5,1,0.9s0.4,0.9,0.4,1.5v5.3c0,0.5,0,0.9,0.1,1.3c0.1,0.4,0.1,0.7,0.3,0.9H7.1
		C7,13.9,7,13.7,6.9,13.5c0-0.2-0.1-0.3-0.1-0.5c-0.4,0.5-1,0.8-1.6,1S4,14.3,3.4,14.3c-0.5,0-0.9-0.1-1.4-0.2
		c-0.3-0.1-0.7-0.3-1-0.6S0.4,13,0.3,12.6C0.1,12.2,0,11.8,0,11.2s0.1-1,0.3-1.4s0.5-0.7,0.8-0.9s0.7-0.4,1.1-0.5S3,8.2,3.4,8.2
		C3.9,8.1,4.3,8.1,4.7,8c0.4,0,0.8-0.1,1.1-0.2c0.3-0.1,0.6-0.2,0.7-0.3c0.2-0.2,0.3-0.4,0.3-0.7c0-0.3,0-0.5-0.1-0.7
		C6.5,5.9,6.4,5.8,6.2,5.7C6,5.6,5.9,5.5,5.6,5.5c-0.2,0-0.4,0-0.7,0c-0.5,0-1,0.1-1.3,0.4C3.3,6,3.2,6.4,3.1,7H0.3
		C0.4,6.3,0.5,5.8,0.8,5.4z M6.3,9.3C6.1,9.4,5.9,9.4,5.7,9.4c-0.2,0-0.4,0.1-0.6,0.1S4.7,9.6,4.4,9.6C4.2,9.7,4,9.7,3.8,9.8
		C3.6,9.9,3.4,10,3.3,10.1c-0.2,0.1-0.3,0.3-0.4,0.4c-0.1,0.2-0.1,0.4-0.1,0.6c0,0.2,0,0.5,0.1,0.6C3,11.9,3.1,12,3.3,12.1
		c0.2,0.1,0.3,0.2,0.5,0.2s0.4,0.1,0.6,0.1c0.5,0,1-0.1,1.3-0.3c0.3-0.2,0.5-0.4,0.7-0.7c0.1-0.3,0.2-0.5,0.3-0.8c0-0.3,0-0.5,0-0.6
		V9C6.6,9.2,6.5,9.2,6.3,9.3z M14.5,0v5.1l0,0c0.3-0.5,0.8-0.9,1.4-1.1c0.6-0.2,1.2-0.4,1.8-0.4c0.5,0,1,0.1,1.5,0.3s0.9,0.5,1.3,1
		c0.4,0.4,0.7,1,1,1.7c0.2,0.7,0.4,1.5,0.4,2.4c0,0.9-0.1,1.7-0.4,2.4c-0.2,0.7-0.6,1.2-1,1.7c-0.4,0.4-0.8,0.8-1.3,1
		s-1,0.3-1.5,0.3c-0.7,0-1.4-0.1-2-0.4c-0.6-0.2-1-0.6-1.3-1.2l0,0V14h-2.6V0H14.5z M19,7.7c-0.1-0.4-0.2-0.7-0.4-1
		c-0.2-0.3-0.4-0.5-0.7-0.7c-0.3-0.2-0.7-0.3-1.1-0.3S16,5.8,15.7,6c-0.3,0.2-0.5,0.4-0.7,0.7c-0.2,0.3-0.3,0.6-0.4,1
		c-0.1,0.4-0.1,0.8-0.1,1.2s0,0.8,0.1,1.2s0.2,0.7,0.4,1s0.4,0.5,0.7,0.7s0.7,0.3,1.1,0.3s0.8-0.1,1.1-0.3c0.3-0.2,0.5-0.4,0.7-0.7
		s0.3-0.6,0.4-1s0.1-0.8,0.1-1.2S19.1,8.1,19,7.7z"/>
	<path class="Blue" d="M29,15l-8,8l-4-4l8-8L29,15z M30,14l1.7-1.7c0.4-0.4,0.4-1,0-1.3L29,8.3c-0.4-0.4-1-0.4-1.3,0L26,10L30,14z
		 M16,20v4h4L16,20z"/>
	<rect y="26" class="Yellow" width="32" height="6"/>
</g>
</svg>
