<?xml version="1.0" encoding="utf-8"?>
<!-- Generator: Adobe Illustrator 21.1.0, SVG Export Plug-In . SVG Version: 6.00 Build 0)  -->
<svg version="1.1" id="Layer_1" xmlns="http://www.w3.org/2000/svg" xmlns:xlink="http://www.w3.org/1999/xlink" x="0px" y="0px"
	 viewBox="0 0 32 32" style="enable-background:new 0 0 32 32;" xml:space="preserve">
<style type="text/css">
	.Yellow{fill:#FFB115;}
	.Red{fill:#D11C1C;}
	.Blue{fill:#1177D7;}
	.Green{fill:#039C23;}
	.Black{fill:#727272;}
	.White{fill:#FFFFFF;}
	.st0{opacity:0.75;}
</style>
<g id="MarqueeZoom">
	<path class="Black" d="M29.7,27.3L22.5,20c1-1.4,1.5-3.2,1.5-5c0-5-4-9-9-9s-9,4-9,9s4,9,9,9c1.9,0,3.6-0.6,5-1.5l7.3,7.3
		c0.3,0.3,0.9,0.3,1.2,0l1.2-1.2C30.1,28.2,30.1,27.6,29.7,27.3z M8,15c0-3.9,3.1-7,7-7s7,3.1,7,7s-3.1,7-7,7S8,18.9,8,15z"/>
	<path class="Blue" d="M4,2h4v2H4v4H2V2H4z M10,4h4V2h-4V4z M16,4h4V2h-4V4z M22,2v2h4v4h2V4V3V2H22z M26,14h2v-4h-2V14z M26,20h2
		v-4h-2V20z M4,10H2v4h2V10z M4,16H2v4h2V16z M4,22H2v6h2h4v-2H4V22z M10,28h4v-2h-4V28z M16,28h4v-2h-4V28z"/>
</g>
</svg>
