<?xml version="1.0" encoding="utf-8"?>
<!-- Generator: Adobe Illustrator 21.1.0, SVG Export Plug-In . SVG Version: 6.00 Build 0)  -->
<svg version="1.1" id="Layer_1" xmlns="http://www.w3.org/2000/svg" xmlns:xlink="http://www.w3.org/1999/xlink" x="0px" y="0px"
	 viewBox="0 0 32 32" style="enable-background:new 0 0 32 32;" xml:space="preserve">
<style type="text/css">
	.Yellow{fill:#FFB115;}
	.Red{fill:#D11C1C;}
	.Blue{fill:#1177D7;}
	.Green{fill:#039C23;}
	.Black{fill:#727272;}
	.White{fill:#FFFFFF;}
	.st0{opacity:0.75;}
</style>
<g id="Menu">
	<path class="Blue" d="M2,10V3c0-0.5,0.5-1,1-1h26c0.5,0,1,0.5,1,1v7H2z M9,12c-1.7,0-3,1.3-3,3s1.3,3,3,3s3-1.3,3-3S10.7,12,9,12z
		 M9,20c-1.7,0-3,1.3-3,3s1.3,3,3,3s3-1.3,3-3S10.7,20,9,20z"/>
	<path class="Black" d="M30,10v19c0,0.5-0.5,1-1,1H3c-0.5,0-1-0.5-1-1V10h2v18h24V10H30z M24,14H14v2h10V14z M24,22H14v2h10V22z"/>
</g>
</svg>
