<?xml version="1.0" encoding="utf-8"?>
<!-- Generator: Adobe Illustrator 21.1.0, SVG Export Plug-In . SVG Version: 6.00 Build 0)  -->
<svg version="1.1" id="Layer_1" xmlns="http://www.w3.org/2000/svg" xmlns:xlink="http://www.w3.org/1999/xlink" x="0px" y="0px"
	 viewBox="0 0 32 32" style="enable-background:new 0 0 32 32;" xml:space="preserve">
<style type="text/css">
	.Yellow{fill:#FFB115;}
	.Red{fill:#D11C1C;}
	.Blue{fill:#1177D7;}
	.Green{fill:#039C23;}
	.Black{fill:#727272;}
	.White{fill:#FFFFFF;}
	.st0{opacity:0.75;}
</style>
<g id="OpenFromWeb">
	<g class="st0">
		<path class="Yellow" d="M18.3,10H12V7c0-0.6-0.4-1-1-1H3C2.4,6,2,6.5,2,7v18c0,0.2,0,0.3,0.1,0.4c0,0,0.1-0.1,0.1-0.2l5.5-10
			C8,14.5,8.7,14,9.5,14h11.2C19.5,13,18.7,11.6,18.3,10z"/>
	</g>
	<path class="Yellow" d="M29.3,16H9.6L4,26h19.8c0.5,0,1.1-0.2,1.3-0.6l4.9-8.9C30.1,16.2,29.8,16,29.3,16z"/>
	<path class="Blue" d="M26,2c-3.3,0-6,2.7-6,6s2.7,6,6,6s6-2.7,6-6S29.3,2,26,2z M28.8,7.8c-0.2,0.2-0.5,0.4-0.7,0.7
		c-0.3,0.5,0.2,1-0.1,1.5c-0.1,0.1-0.3,0.2-0.4,0.2c-0.1,0.1-0.1,0.3-0.1,0.4c0,0.1,0.1,0.2,0,0.3c0,0-0.1,0-0.2,0.1
		c-0.1,0.2-0.1,0.6-0.3,0.7c-0.7,0.5-0.9,0.1-0.9,0c0-0.1,0-0.2-0.1-0.3c0-0.1-0.1-0.2-0.2-0.3c0-0.1,0-0.2,0-0.3
		c0-0.2-0.2-0.4-0.3-0.6C25.7,9.9,26,9.1,26,8.8c0-0.2,0-0.3-0.1-0.4c-0.3-0.5-1.2,0-1.5-0.4c-0.2-0.2-0.6,0-1-0.4
		c-0.1-0.1-0.1-0.7-0.2-0.8C23.1,6.7,23,6.6,23,6.4c0,0,0.1-0.3,0.1-0.4c0-0.1,0-0.2,0-0.2c0-0.1,0.1-0.3,0.2-0.4
		c0.1-0.2,0.2-0.2,0.3-0.4c0.1-0.2,0-0.3,0.1-0.5c0-0.1,0.1-0.1,0.2-0.1c0,0,0.1-0.3,0.3-0.2c0.1,0.1,1-0.2,1.1-0.2
		c0.4,0,0.3,0.4,0.5,0.5c0,0,0.1,0,0.2,0.1c0.1,0,0.1,0.1,0.2,0.2c0.1,0.1,0.2,0.1,0.3,0c0.1-0.1,0-0.2,0.1-0.2c0.1,0,0.2,0,0.2,0.1
		c0.1,0,0.1,0.1,0.4,0.1c0,0,0.1,0,0.2,0c0.2,0.1,0.3,0.5,0.4,0.7c0.1,0.1,0.1,0.3,0.2,0.4c0,0.1,0.1,0.3,0.1,0.4
		c0.1,0.1,0.1,0.2,0.2,0.4c0,0.1,0.1,0.1,0.2,0.2c0,0,0,0.1,0,0.2c0.1,0.3,0.4-0.3,0.6,0C29.1,7.1,29,7.7,28.8,7.8z"/>
</g>
</svg>
