<?xml version="1.0" encoding="utf-8"?>
<!-- Generator: Adobe Illustrator 21.1.0, SVG Export Plug-In . SVG Version: 6.00 Build 0)  -->
<svg version="1.1" id="Layer_1" xmlns="http://www.w3.org/2000/svg" xmlns:xlink="http://www.w3.org/1999/xlink" x="0px" y="0px"
	 viewBox="0 0 32 32" style="enable-background:new 0 0 32 32;" xml:space="preserve">
<style type="text/css">
	.Yellow{fill:#FFB115;}
	.Red{fill:#D11C1C;}
	.Blue{fill:#1177D7;}
	.Green{fill:#039C23;}
	.Black{fill:#727272;}
	.White{fill:#FFFFFF;}
	.st0{opacity:0.75;}
</style>
<g id="SelectAll">
	<path class="Black" d="M4,2h4v2H4v4H2V4V2H4z M10,4h4V2h-4V4z M16,4h4V2h-4V4z M26,2h-4v2h4v4h2V2H26z M4,10H2v4h2V10z M4,16H2v4h2
		V16z M4,22H2v6h2h4v-2H4V22z M10,28h4v-2h-4V28z M16,28h4v-2h-4V28z M26,26h-4v2h6v-1v-1v-4h-2V26z M26,20h2v-4h-2V20z M26,14h2v-4
		h-2V14z"/>
	<rect x="6" y="6" class="Blue" width="18" height="18"/>
</g>
</svg>
