<?xml version="1.0" encoding="utf-8"?>
<!-- Generator: Adobe Illustrator 21.1.0, SVG Export Plug-In . SVG Version: 6.00 Build 0)  -->
<svg version="1.1" id="Layer_1" xmlns="http://www.w3.org/2000/svg" xmlns:xlink="http://www.w3.org/1999/xlink" x="0px" y="0px"
	 viewBox="0 0 32 32" style="enable-background:new 0 0 32 32;" xml:space="preserve">
<style type="text/css">
	.Yellow{fill:#FFB115;}
	.Red{fill:#D11C1C;}
	.Blue{fill:#1177D7;}
	.Green{fill:#039C23;}
	.Black{fill:#727272;}
	.White{fill:#FFFFFF;}
	.st0{opacity:0.75;}
</style>
<g id="Strikeout">
	<path class="Black" d="M8,26.7v-4.8c1.9,1.5,4,2.2,6.3,2.2c3.1,0,4.6-0.9,4.6-2.8c0-0.5-0.1-1-0.4-1.3c-0.3-0.4-0.6-0.7-1.1-1
		c-0.4-0.3-1-0.5-1.6-0.8c-0.6-0.2-1.3-0.5-2-0.8c-0.9-0.4-1.8-0.8-2.5-1.2c-0.7-0.4-1.4-0.9-1.8-1.4c-0.5-0.5-0.9-1.1-1.1-1.8
		C8.1,12.5,8,11.7,8,10.8c0-1.1,0.3-2.1,0.8-2.9C9.3,7,10,6.3,10.9,5.7c0.9-0.6,1.8-1,2.9-1.3C14.9,4.1,16,4,17.2,4
		c2.1,0,3.9,0.3,5.6,1v4.5c-1.6-1.1-3.4-1.7-5.5-1.7c-0.6,0-1.2,0.1-1.7,0.2c-0.5,0.1-1,0.3-1.3,0.6c-0.4,0.2-0.7,0.5-0.9,0.9
		c-0.2,0.3-0.3,0.7-0.3,1.1c0,0.5,0.1,0.9,0.3,1.3c0.2,0.3,0.5,0.6,0.9,0.9c0.4,0.3,0.9,0.5,1.5,0.7c0.6,0.2,1.2,0.5,1.9,0.7
		c1,0.4,1.8,0.8,2.6,1.2c0.8,0.4,1.4,0.9,2,1.4c0.5,0.5,1,1.1,1.3,1.8c0.3,0.7,0.4,1.5,0.4,2.5c0,1.2-0.3,2.2-0.8,3
		c-0.5,0.9-1.2,1.6-2.1,2.1c-0.9,0.6-1.9,1-3,1.3c-1.2,0.3-2.4,0.4-3.6,0.4C11.9,28,9.8,27.6,8,26.7z"/>
	<rect x="4" y="14" class="Green" width="24" height="4"/>
</g>
</svg>
