<?xml version="1.0" encoding="utf-8"?>
<!-- Generator: Adobe Illustrator 21.1.0, SVG Export Plug-In . SVG Version: 6.00 Build 0)  -->
<svg version="1.1" id="Layer_1" xmlns="http://www.w3.org/2000/svg" xmlns:xlink="http://www.w3.org/1999/xlink" x="0px" y="0px"
	 viewBox="0 0 32 32" style="enable-background:new 0 0 32 32;" xml:space="preserve">
<style type="text/css">
	.Yellow{fill:#FFB115;}
	.Red{fill:#D11C1C;}
	.Blue{fill:#1177D7;}
	.Green{fill:#039C23;}
	.Black{fill:#727272;}
	.White{fill:#FFFFFF;}
	.st0{opacity:0.75;}
</style>
<g id="ZoomOut">
	<path class="Black" d="M29.7,27.3L22,19.6l-0.1-0.1c1.3-1.8,2.1-4.1,2.1-6.5c0-6.1-4.9-11-11-11S2,6.9,2,13s4.9,11,11,11
		c2.4,0,4.7-0.8,6.5-2.1c0,0,0,0.1,0.1,0.1l7.7,7.7c0.3,0.3,0.9,0.3,1.2,0l1.2-1.2C30.1,28.2,30.1,27.6,29.7,27.3z M4,13
		c0-5,4-9,9-9s9,4,9,9s-4,9-9,9S4,18,4,13z"/>
	<rect x="8" y="12" class="Blue" width="10" height="2"/>
</g>
</svg>
