<?xml version="1.0" encoding="utf-8"?>
<!-- Generator: Adobe Illustrator 21.1.0, SVG Export Plug-In . SVG Version: 6.00 Build 0)  -->
<svg version="1.1" id="Layer_1" xmlns="http://www.w3.org/2000/svg" xmlns:xlink="http://www.w3.org/1999/xlink" x="0px" y="0px"
	 viewBox="0 0 32 32" style="enable-background:new 0 0 32 32;" xml:space="preserve">
<style type="text/css">
	.Black{fill:#727272;}
	.Blue{fill:#1177D7;}
	.Green{fill:#039C23;}
	.Yellow{fill:#FFB115;}
	.Red{fill:#D11C1C;}
	.White{fill:#FFFFFF;}
	.st0{opacity:0.5;}
	.st1{opacity:0.75;}
</style>
<g id="ChangeChartType">
	<path class="Yellow" d="M10,30H4v-8h6V30z M18,18h-6v12h6V18z M26,14h-6v16h6V14z"/>
	<path class="Blue" d="M23,2c-1.7,0-3,1.3-3,3c0,0.5,0.1,0.9,0.3,1.3l-4,4C15.9,10.1,15.5,10,15,10c-0.9,0-1.6,0.4-2.2,0.9L10,9.2
		c0-0.1,0-0.1,0-0.2c0-1.7-1.3-3-3-3S4,7.3,4,9s1.3,3,3,3c0.9,0,1.6-0.4,2.2-0.9l2.9,1.7c0,0.1,0,0.1,0,0.2c0,1.7,1.3,3,3,3
		s3-1.3,3-3c0-0.5-0.1-0.9-0.3-1.3l4-4C22.1,7.9,22.5,8,23,8c1.7,0,3-1.3,3-3S24.7,2,23,2z M7,10c-0.6,0-1-0.4-1-1s0.4-1,1-1
		s1,0.4,1,1S7.6,10,7,10z M15,14c-0.6,0-1-0.4-1-1s0.4-1,1-1s1,0.4,1,1S15.6,14,15,14z M23,6c-0.6,0-1-0.4-1-1s0.4-1,1-1s1,0.4,1,1
		S23.6,6,23,6z"/>
</g>
</svg>
