<?xml version="1.0" encoding="utf-8"?>
<!-- Generator: Adobe Illustrator 21.1.0, SVG Export Plug-In . SVG Version: 6.00 Build 0)  -->
<svg version="1.1" id="Layer_1" xmlns="http://www.w3.org/2000/svg" xmlns:xlink="http://www.w3.org/1999/xlink" x="0px" y="0px"
	 viewBox="0 0 32 32" style="enable-background:new 0 0 32 32;" xml:space="preserve">
<style type="text/css">
	.Black{fill:#727272;}
	.Blue{fill:#1177D7;}
	.Green{fill:#039C23;}
	.Yellow{fill:#FFB115;}
	.Red{fill:#D11C1C;}
	.White{fill:#FFFFFF;}
	.st0{opacity:0.5;}
	.st1{opacity:0.75;}
</style>
<g id="DistributeColumnsEvenly">
	<g class="st0">
		<path class="Black" d="M16,14H4V6h12V14z M16,16H4v8h12V16z"/>
	</g>
	<polygon class="Blue" points="28,8 28,6 24,6 24,4 22,4 22,6 18,6 18,8 22,8 22,14 18,14 18,16 22,16 22,22 18,22 18,24 22,24 
		22,26 24,26 24,24 28,24 28,22 24,22 24,16 28,16 28,14 24,14 24,8 	"/>
</g>
</svg>
