<?xml version="1.0" encoding="utf-8"?>
<!-- Generator: Adobe Illustrator 21.1.0, SVG Export Plug-In . SVG Version: 6.00 Build 0)  -->
<svg version="1.1" id="Layer_1" xmlns="http://www.w3.org/2000/svg" xmlns:xlink="http://www.w3.org/1999/xlink" x="0px" y="0px"
	 viewBox="0 0 32 32" style="enable-background:new 0 0 32 32;" xml:space="preserve">
<style type="text/css">
	.Black{fill:#727272;}
	.Blue{fill:#1177D7;}
	.Green{fill:#039C23;}
	.Yellow{fill:#FFB115;}
	.Red{fill:#D11C1C;}
	.White{fill:#FFFFFF;}
	.st0{opacity:0.5;}
	.st1{opacity:0.75;}
</style>
<g id="ExtractStyle">
	<path class="Yellow" d="M10,18c4,4,0,0,4,4c-2,6-7.3,6-12,6C6.5,23.5,6.3,18,10,18z"/>
	<path class="Red" d="M29.7,5.8l-3.5-3.5c-0.4-0.4-1-0.4-1.4,0L15,12.1l4.9,4.9l9.8-9.8C30.1,6.9,30.1,6.2,29.7,5.8z"/>
	<path class="Black" d="M13.6,13.5l-1.9,1.9c-0.4,0.4-0.4,1,0,1.4l3.5,3.5c0.4,0.4,1,0.4,1.4,0l1.9-1.9L13.6,13.5z"/>
</g>
</svg>
