<?xml version="1.0" encoding="utf-8"?>
<!-- Generator: Adobe Illustrator 21.1.0, SVG Export Plug-In . SVG Version: 6.00 Build 0)  -->
<svg version="1.1" id="Layer_1" xmlns="http://www.w3.org/2000/svg" xmlns:xlink="http://www.w3.org/1999/xlink" x="0px" y="0px"
	 viewBox="0 0 32 32" style="enable-background:new 0 0 32 32;" xml:space="preserve">
<style type="text/css">
	.Black{fill:#727272;}
	.Blue{fill:#1177D7;}
	.Green{fill:#039C23;}
	.Yellow{fill:#FFB115;}
	.Red{fill:#D11C1C;}
	.White{fill:#FFFFFF;}
	.st0{opacity:0.5;}
	.st1{opacity:0.75;}
</style>
<g id="FitBoundsToText">
	<path class="Black" d="M25,6H7C6.5,6,6,6.5,6,7v18c0,0.5,0.5,1,1,1h18c0.5,0,1-0.5,1-1V7C26,6.5,25.5,6,25,6z M24,24H8V8h16V24z"/>
	<path class="Blue" d="M16,4l-4-4h8L16,4z M0,20l4-4l-4-4V20z M28,16l4,4v-8L28,16z M12,32h8l-4-4L12,32z M17.7,10H16h-1.7L10,22h3
		l1-3h2h2l1,3h3L17.7,10z M14.6,17l1.2-3.8c0.1-0.3,0.2-0.7,0.2-1.1c0,0.4,0.1,0.8,0.2,1.1l1.2,3.8H14.6z"/>
</g>
</svg>
