<?xml version="1.0" encoding="utf-8"?>
<!-- Generator: Adobe Illustrator 21.1.0, SVG Export Plug-In . SVG Version: 6.00 Build 0)  -->
<svg version="1.1" id="Layer_1" xmlns="http://www.w3.org/2000/svg" xmlns:xlink="http://www.w3.org/1999/xlink" x="0px" y="0px"
	 viewBox="0 0 32 32" style="enable-background:new 0 0 32 32;" xml:space="preserve">
<style type="text/css">
	.Black{fill:#727272;}
	.Blue{fill:#1177D7;}
	.Green{fill:#039C23;}
	.Yellow{fill:#FFB115;}
	.Red{fill:#D11C1C;}
	.White{fill:#FFFFFF;}
	.st0{opacity:0.5;}
	.st1{opacity:0.75;}
</style>
<g id="FitTextToBounds">
	<path class="Black" d="M31,0H1C0.5,0,0,0.5,0,1v30c0,0.5,0.5,1,1,1h30c0.5,0,1-0.5,1-1V1C32,0.5,31.5,0,31,0z M30,30H2V2h28V30z"/>
	<path class="Blue" d="M20,8h-8l4-4L20,8z M8,20v-8l-4,4L8,20z M16,28l4-4h-8L16,28z M24,12v8l4-4L24,12z M17.7,10H16h-1.7L10,22h3
		l1-3h2h2l1,3h3L17.7,10z M14.6,17l1.2-3.8c0.1-0.3,0.2-0.7,0.2-1.1c0,0.4,0.1,0.8,0.2,1.1l1.2,3.8H14.6z"/>
</g>
</svg>
