<?xml version="1.0" encoding="utf-8"?>
<!-- Generator: Adobe Illustrator 21.1.0, SVG Export Plug-In . SVG Version: 6.00 Build 0)  -->
<svg version="1.1" id="Layer_1" xmlns="http://www.w3.org/2000/svg" xmlns:xlink="http://www.w3.org/1999/xlink" x="0px" y="0px"
	 viewBox="0 0 32 32" style="enable-background:new 0 0 32 32;" xml:space="preserve">
<style type="text/css">
	.Black{fill:#727272;}
	.Blue{fill:#1177D7;}
	.Green{fill:#039C23;}
	.Yellow{fill:#FFB115;}
	.Red{fill:#D11C1C;}
	.White{fill:#FFFFFF;}
	.st0{opacity:0.5;}
	.st1{opacity:0.75;}
</style>
<g id="GaugeStyleLeftQuarterCircular">
	<path class="Black" d="M11.7,8.3l6,6c0.4-0.2,0.8-0.3,1.3-0.3c1.7,0,3,1.3,3,3s-1.3,3-3,3s-3-1.3-3-3c0-0.5,0.1-0.9,0.3-1.3l-6-6
		L11.7,8.3z M4,17v7h22V2h-7C10.7,2,4,8.7,4,17z M6,17C6,9.8,11.8,4,19,4h5v18H6V17z"/>
	<path class="Blue" d="M9.4,11.6l3,3C12.1,15.4,12,16.2,12,17v3H8v-3C8,15,8.5,13.2,9.4,11.6z"/>
	<path class="Red" d="M19,6h3v4h-3c-0.8,0-1.6,0.1-2.3,0.4l-3-3C15.2,6.5,17.1,6,19,6z"/>
</g>
</svg>
