<?xml version="1.0" encoding="utf-8"?>
<!-- Generator: Adobe Illustrator 21.1.0, SVG Export Plug-In . SVG Version: 6.00 Build 0)  -->
<svg version="1.1" id="Layer_1" xmlns="http://www.w3.org/2000/svg" xmlns:xlink="http://www.w3.org/1999/xlink" x="0px" y="0px"
	 viewBox="0 0 32 32" style="enable-background:new 0 0 32 32;" xml:space="preserve">
<style type="text/css">
	.Black{fill:#727272;}
	.Blue{fill:#1177D7;}
	.Green{fill:#039C23;}
	.Yellow{fill:#FFB115;}
	.Red{fill:#D11C1C;}
	.White{fill:#FFFFFF;}
	.st0{opacity:0.5;}
	.st1{opacity:0.75;}
</style>
<g id="GaugeStyleThreeForthCircular">
	<path class="Black" d="M15,0C6.7,0,0,6.7,0,15c0,6,3.5,11.1,8.5,13.5L15,22l6.5,6.5C26.5,26.1,30,21,30,15C30,6.7,23.3,0,15,0z
		 M21.9,26L15,19.2L8.1,26C4.3,23.7,2,19.6,2,15C2,7.8,7.8,2,15,2s13,5.8,13,13C28,19.6,25.7,23.7,21.9,26z M17.7,13.7
		c0.2,0.4,0.3,0.8,0.3,1.3c0,1.7-1.3,3-3,3s-3-1.3-3-3s1.3-3,3-3c0.5,0,0.9,0.1,1.3,0.3l6-6l1.4,1.4L17.7,13.7z"/>
	<path class="Blue" d="M8,15c0-3.9,3.1-7,7-7c0.8,0,1.6,0.2,2.4,0.4l3-3C18.8,4.5,16.9,4,15,4C8.9,4,4,8.9,4,15
		c0,3.3,1.4,6.4,3.9,8.4l2.8-2.8C9.1,19.3,8,17.3,8,15z"/>
	<path class="Red" d="M21.6,12.6c0.3,0.7,0.4,1.5,0.4,2.4c0,2.3-1.1,4.3-2.8,5.6l2.8,2.8c2.5-2.1,3.9-5.1,3.9-8.4
		c0-1.9-0.5-3.8-1.4-5.4L21.6,12.6z"/>
</g>
</svg>
