<?xml version="1.0" encoding="utf-8"?>
<!-- Generator: Adobe Illustrator 21.1.0, SVG Export Plug-In . SVG Version: 6.00 Build 0)  -->
<svg version="1.1" id="Layer_1" xmlns="http://www.w3.org/2000/svg" xmlns:xlink="http://www.w3.org/1999/xlink" x="0px" y="0px"
	 viewBox="0 0 32 32" style="enable-background:new 0 0 32 32;" xml:space="preserve">
<style type="text/css">
	.Black{fill:#727272;}
	.Blue{fill:#1177D7;}
	.Green{fill:#039C23;}
	.Yellow{fill:#FFB115;}
	.Red{fill:#D11C1C;}
	.White{fill:#FFFFFF;}
	.st0{opacity:0.5;}
	.st1{opacity:0.75;}
</style>
<g id="GaugeStyleHalfCircular">
	<path class="Black" d="M23.7,9.7l-6,6c0.2,0.4,0.3,0.8,0.3,1.3c0,1.7-1.3,3-3,3s-3-1.3-3-3s1.3-3,3-3c0.5,0,0.9,0.1,1.3,0.3l6-6
		L23.7,9.7z M30,17v7H0v-7C0,8.7,6.7,2,15,2S30,8.7,30,17z M28,17c0-7.2-5.8-13-13-13S2,9.8,2,17v5h26V17z"/>
	<path class="Blue" d="M15,6C8.9,6,4,10.9,4,17v3h4v-3c0-3.9,3.1-7,7-7c0.8,0,1.6,0.1,2.3,0.4l3-3C18.8,6.5,16.9,6,15,6z"/>
	<path class="Red" d="M24.6,11.6l-3,3c0.3,0.7,0.4,1.5,0.4,2.4v3h4v-3C26,15,25.5,13.2,24.6,11.6z"/>
</g>
</svg>
