<?xml version="1.0" encoding="utf-8"?>
<!-- Generator: Adobe Illustrator 21.1.0, SVG Export Plug-In . SVG Version: 6.00 Build 0)  -->
<svg version="1.1" id="Layer_1" xmlns="http://www.w3.org/2000/svg" xmlns:xlink="http://www.w3.org/1999/xlink" x="0px" y="0px"
	 viewBox="0 0 32 32" style="enable-background:new 0 0 32 32;" xml:space="preserve">
<style type="text/css">
	.Black{fill:#727272;}
	.Blue{fill:#1177D7;}
	.Green{fill:#039C23;}
	.Yellow{fill:#FFB115;}
	.Red{fill:#D11C1C;}
	.White{fill:#FFFFFF;}
	.st0{opacity:0.5;}
	.st1{opacity:0.75;}
</style>
<g id="GaugeStyleFullCircular">
	<path class="Blue" d="M15,8c0.8,0,1.6,0.1,2.3,0.4l3-3C18.8,4.5,16.9,4,15,4C8.9,4,4,8.9,4,15c0,3,1.2,5.8,3.2,7.8L10,20
		c-1.2-1.3-2-3.1-2-5C8,11.1,11.1,8,15,8z"/>
	<path class="Red" d="M21.6,12.7c0.3,0.7,0.4,1.5,0.4,2.3c0,1.9-0.8,3.7-2.1,4.9l2.8,2.8c2-2,3.2-4.7,3.2-7.8c0-1.9-0.5-3.8-1.4-5.4
		L21.6,12.7z"/>
	<path class="Black" d="M15,0C6.7,0,0,6.7,0,15s6.7,15,15,15s15-6.7,15-15S23.3,0,15,0z M15,28C7.8,28,2,22.2,2,15S7.8,2,15,2
		s13,5.8,13,13S22.2,28,15,28z M17.7,13.7c0.2,0.4,0.3,0.8,0.3,1.3c0,1.7-1.3,3-3,3s-3-1.3-3-3s1.3-3,3-3c0.5,0,0.9,0.1,1.3,0.3l6-6
		l1.4,1.4L17.7,13.7z"/>
</g>
</svg>
