<?xml version="1.0" encoding="utf-8"?>
<!-- Generator: Adobe Illustrator 21.1.0, SVG Export Plug-In . SVG Version: 6.00 Build 0)  -->
<svg version="1.1" id="Layer_1" xmlns="http://www.w3.org/2000/svg" xmlns:xlink="http://www.w3.org/1999/xlink" x="0px" y="0px"
	 viewBox="0 0 32 32" style="enable-background:new 0 0 32 32;" xml:space="preserve">
<style type="text/css">
	.Black{fill:#727272;}
	.Blue{fill:#1177D7;}
	.Green{fill:#039C23;}
	.Yellow{fill:#FFB115;}
	.Red{fill:#D11C1C;}
	.White{fill:#FFFFFF;}
	.st0{opacity:0.5;}
	.st1{opacity:0.75;}
</style>
<g id="ImageAnnotation">
	<circle class="Yellow" cx="21" cy="9" r="3"/>
	<polygon class="Green" points="20,20 10,10 6,14 6,20 	"/>
	<g class="st0">
		<polygon class="Green" points="22,20 18,16 20,14 26,20 		"/>
	</g>
	<path class="Black" d="M29,2H3C2.5,2,2,2.5,2,3v20c0,0.5,0.5,1,1,1h5v8l8-8h13c0.5,0,1-0.5,1-1V3C30,2.5,29.5,2,29,2z M28,22H15.2
		L10,27.2V22H4V4h24V22z"/>
</g>
</svg>
