<?xml version="1.0" encoding="utf-8"?>
<!-- Generator: Adobe Illustrator 21.1.0, SVG Export Plug-In . SVG Version: 6.00 Build 0)  -->
<svg version="1.1" id="Layer_1" xmlns="http://www.w3.org/2000/svg" xmlns:xlink="http://www.w3.org/1999/xlink" x="0px" y="0px"
	 viewBox="0 0 32 32" style="enable-background:new 0 0 32 32;" xml:space="preserve">
<style type="text/css">
	.Black{fill:#727272;}
	.Blue{fill:#1177D7;}
	.Green{fill:#039C23;}
	.Yellow{fill:#FFB115;}
	.Red{fill:#D11C1C;}
	.White{fill:#FFFFFF;}
	.st0{opacity:0.5;}
	.st1{opacity:0.75;}
</style>
<g id="MergeCells">
	<g class="st0">
		<path class="Black" d="M22,0h8v6h-8V0z M12,0v6h8V0H12z M10,6V0H2v6H10z M20,22v-6h-8v6H20z M30,22v-6h-8v6H30z M10,22v-6H2v6H10z
			 M30,30v-6h-8v6H30z M20,30v-6h-8v6H20z M10,30v-6H2v6H10z"/>
	</g>
	<path class="Green" d="M30,14H2V8h28V14z"/>
</g>
</svg>
