<?xml version="1.0" encoding="utf-8"?>
<!-- Generator: Adobe Illustrator 21.1.0, SVG Export Plug-In . SVG Version: 6.00 Build 0)  -->
<svg version="1.1" id="Layer_1" xmlns="http://www.w3.org/2000/svg" xmlns:xlink="http://www.w3.org/1999/xlink" x="0px" y="0px"
	 viewBox="0 0 32 32" style="enable-background:new 0 0 32 32;" xml:space="preserve">
<style type="text/css">
	.Black{fill:#727272;}
	.Blue{fill:#1177D7;}
	.Green{fill:#039C23;}
	.Yellow{fill:#FFB115;}
	.Red{fill:#D11C1C;}
	.White{fill:#FFFFFF;}
	.st0{opacity:0.5;}
	.st1{opacity:0.75;}
</style>
<g id="PrintCollated">
	<path class="Green" d="M11,4H1C0.5,4,0,4.5,0,5v12c0,0.5,0.5,1,1,1h10c0.5,0,1-0.5,1-1V5C12,4.5,11.5,4,11,4z M10,16H2V6h8V16z
		 M25,16H15c-0.5,0-1,0.5-1,1v12c0,0.5,0.5,1,1,1h10c0.5,0,1-0.5,1-1V17C26,16.5,25.5,16,25,16z M24,28h-8V18h8V28z"/>
	<path class="Black" d="M16,1v12c0,0.5-0.5,1-1,1h-3v-2h2V2H6v2H4V1c0-0.5,0.5-1,1-1h10C15.5,0,16,0.5,16,1z M29,12H19
		c-0.5,0-1,0.5-1,1v3h2v-2h8v10h-2v2h3c0.5,0,1-0.5,1-1V13C30,12.5,29.5,12,29,12z"/>
</g>
</svg>
