<?xml version="1.0" encoding="utf-8"?>
<!-- Generator: Adobe Illustrator 21.1.0, SVG Export Plug-In . SVG Version: 6.00 Build 0)  -->
<svg version="1.1" id="Layer_1" xmlns="http://www.w3.org/2000/svg" xmlns:xlink="http://www.w3.org/1999/xlink" x="0px" y="0px"
	 viewBox="0 0 32 32" style="enable-background:new 0 0 32 32;" xml:space="preserve">
<style type="text/css">
	.Black{fill:#727272;}
	.Blue{fill:#1177D7;}
	.Green{fill:#039C23;}
	.Yellow{fill:#FFB115;}
	.Red{fill:#D11C1C;}
	.White{fill:#FFFFFF;}
	.st0{opacity:0.5;}
	.st1{opacity:0.75;}
</style>
<g id="PrintPageRange">
	<path class="Blue" d="M25,4H9C8.5,4,8,4.5,8,5v3H5C4.5,8,4,8.5,4,9v3h2v-2h14v16h-2v2h3c0.5,0,1-0.5,1-1v-3h3c0.5,0,1-0.5,1-1V5
		C26,4.5,25.5,4,25,4z M24,22h-2V9c0-0.5-0.5-1-1-1H10V6h14V22z"/>
	<path class="Black" d="M30,1v18c0,0.5-0.5,1-1,1h-3v-2h2V2H14v2h-2V1c0-0.5,0.5-1,1-1h16C29.5,0,30,0.5,30,1z M18,13v18
		c0,0.5-0.5,1-1,1H1c-0.5,0-1-0.5-1-1V13c0-0.5,0.5-1,1-1h16C17.5,12,18,12.5,18,13z M16,14H2v16h14V14z"/>
</g>
</svg>
