<?xml version="1.0" encoding="utf-8"?>
<!-- Generator: Adobe Illustrator 21.1.0, SVG Export Plug-In . SVG Version: 6.00 Build 0)  -->
<svg version="1.1" id="Layer_1" xmlns="http://www.w3.org/2000/svg" xmlns:xlink="http://www.w3.org/1999/xlink" x="0px" y="0px"
	 viewBox="0 0 32 32" style="enable-background:new 0 0 32 32;" xml:space="preserve">
<style type="text/css">
	.Black{fill:#727272;}
	.Blue{fill:#1177D7;}
	.Green{fill:#039C23;}
	.Yellow{fill:#FFB115;}
	.Red{fill:#D11C1C;}
	.White{fill:#FFFFFF;}
	.st0{opacity:0.5;}
	.st1{opacity:0.75;}
</style>
<g id="PrintNotCollated">
	<path class="Green" d="M15,0H5C4.5,0,4,0.5,4,1v3H1C0.5,4,0,4.5,0,5v12c0,0.5,0.5,1,1,1h10c0.5,0,1-0.5,1-1v-3h3c0.5,0,1-0.5,1-1V1
		C16,0.5,15.5,0,15,0z M10,16H2V6h8V16z M14,12h-2V5c0-0.5-0.5-1-1-1H6V2h8V12z"/>
	<path class="Black" d="M29,12H19c-0.5,0-1,0.5-1,1v3h-3c-0.5,0-1,0.5-1,1v12c0,0.5,0.5,1,1,1h10c0.5,0,1-0.5,1-1v-3h3
		c0.5,0,1-0.5,1-1V13C30,12.5,29.5,12,29,12z M24,28h-8V18h8V28z M28,24h-2v-7c0-0.5-0.5-1-1-1h-5v-2h8V24z"/>
</g>
</svg>
