<?xml version="1.0" encoding="utf-8"?>
<!-- Generator: Adobe Illustrator 21.1.0, SVG Export Plug-In . SVG Version: 6.00 Build 0)  -->
<svg version="1.1" id="Layer_1" xmlns="http://www.w3.org/2000/svg" xmlns:xlink="http://www.w3.org/1999/xlink" x="0px" y="0px"
	 viewBox="0 0 32 32" style="enable-background:new 0 0 32 32;" xml:space="preserve">
<style type="text/css">
	.Black{fill:#727272;}
	.Blue{fill:#1177D7;}
	.Green{fill:#039C23;}
	.Yellow{fill:#FFB115;}
	.Red{fill:#D11C1C;}
	.White{fill:#FFFFFF;}
	.st0{opacity:0.5;}
	.st1{opacity:0.75;}
	.st2{display:none;}
	.st3{display:inline;fill:#1177D7;}
	.st4{display:inline;fill:#727272;}
</style>
<g id="ShowPrintingWarnings">
	<g class="st0">
		<path class="Red" d="M10,28H6V4h4V28z M26,4h-4v24h4V4z"/>
	</g>
	<path class="Black" d="M12,2h8v2h-8V2z M20,28h-8v2h8V28z M20,8h-8v2h8V8z M20,24h-8v-2h8V24z"/>
	<path class="Red" d="M4,3v26c0,0.6,0.4,1,1,1h7V2H5C4.4,2,4,2.4,4,3z M6,4h4v4H6V4z M6,10h4v12H6V10z M6,24h4v4H6V24z M27,2h-7v28
		h7c0.6,0,1-0.4,1-1V3C28,2.4,27.6,2,27,2z M26,28h-4v-4h4V28z M26,22h-4V10h4V22z M26,8h-4V4h4V8z"/>
</g>
</svg>
