<?xml version="1.0" encoding="utf-8"?>
<!-- Generator: Adobe Illustrator 21.1.0, SVG Export Plug-In . SVG Version: 6.00 Build 0)  -->
<svg version="1.1" id="Layer_1" xmlns="http://www.w3.org/2000/svg" xmlns:xlink="http://www.w3.org/1999/xlink" x="0px" y="0px"
	 viewBox="0 0 32 32" style="enable-background:new 0 0 32 32;" xml:space="preserve">
<style type="text/css">
	.Black{fill:#727272;}
	.Blue{fill:#1177D7;}
	.Green{fill:#039C23;}
	.Yellow{fill:#FFB115;}
	.Red{fill:#D11C1C;}
	.White{fill:#FFFFFF;}
	.st0{opacity:0.5;}
	.st1{opacity:0.75;}
	.st2{display:none;}
	.st3{display:inline;fill:#1177D7;}
	.st4{display:inline;fill:#727272;}
</style>
<g id="SparklineLine">
	<path class="Blue" d="M27,8c-1.7,0-3,1.3-3,3c0,0.5,0.1,0.9,0.3,1.3l-6,6C17.9,18.1,17.5,18,17,18s-0.9,0.1-1.3,0.3l-2-2
		c0.2-0.4,0.3-0.8,0.3-1.3c0-1.7-1.3-3-3-3s-3,1.3-3,3c0,0.5,0.1,0.9,0.3,1.3l-2,2C5.9,18.1,5.5,18,5,18c-1.7,0-3,1.3-3,3s1.3,3,3,3
		s3-1.3,3-3c0-0.5-0.1-0.9-0.3-1.3l2-2c0.4,0.2,0.8,0.3,1.3,0.3s0.9-0.1,1.3-0.3l2,2C14.1,20.1,14,20.5,14,21c0,1.7,1.3,3,3,3
		s3-1.3,3-3c0-0.5-0.1-0.9-0.3-1.3l6-6c0.4,0.2,0.8,0.3,1.3,0.3c1.7,0,3-1.3,3-3S28.7,8,27,8z M5,22c-0.6,0-1-0.4-1-1s0.4-1,1-1
		s1,0.4,1,1S5.6,22,5,22z M11,16c-0.6,0-1-0.4-1-1s0.4-1,1-1s1,0.4,1,1S11.6,16,11,16z M17,22c-0.6,0-1-0.4-1-1s0.4-1,1-1s1,0.4,1,1
		S17.6,22,17,22z M27,12c-0.6,0-1-0.4-1-1s0.4-1,1-1s1,0.4,1,1S27.6,12,27,12z"/>
</g>
</svg>
