<?xml version="1.0" encoding="utf-8"?>
<!-- Generator: Adobe Illustrator 21.0.2, SVG Export Plug-In . SVG Version: 6.00 Build 0)  -->
<svg version="1.1" id="Paste" xmlns="http://www.w3.org/2000/svg" xmlns:xlink="http://www.w3.org/1999/xlink" x="0px" y="0px"
	 viewBox="0 0 32 32" style="enable-background:new 0 0 32 32;" xml:space="preserve">
<style type="text/css">
	.Black{fill:#727272;}
	.Yellow{fill:#FFB115;}
</style>
<path class="Yellow" d="M12,24v4H5c-0.6,0-1-0.4-1-1V3c0-0.6,0.4-1,1-1h3v22H12z M25,2h-3v8h4V2.8C26,2.4,25.6,2,25,2z"/>
<path class="Black" d="M29,12H15c-0.6,0-1,0.4-1,1v16c0,0.6,0.4,1,1,1h14c0.6,0,1-0.4,1-1V13C30,12.4,29.6,12,29,12z M28,28H16V14
	h12V28z M26,20h-8v-2h8V20z M26,24h-8v-2h8V24z"/>
<path class="Black" d="M18,2V1c0-0.6-0.4-1-1-1h-4c-0.6,0-1,0.4-1,1v1h-2v3c0,0.6,0.4,1,1,1h8c0.6,0,1-0.4,1-1V2H18z"/>
</svg>
