<?xml version="1.0" encoding="utf-8"?>
<!-- Generator: Adobe Illustrator 20.1.0, SVG Export Plug-In . SVG Version: 6.00 Build 0)  -->
<svg version="1.1" id="Слой_1" xmlns="http://www.w3.org/2000/svg" xmlns:xlink="http://www.w3.org/1999/xlink" x="0px" y="0px"
	 viewBox="0 0 32 32" style="enable-background:new 0 0 32 32;" xml:space="preserve">
<style type="text/css">
	.Blue{fill:#1177D7;}
</style>
<polygon class="Blue" points="20,18 18,20 24,26 20,30 30,30 30,20 26,24 "/>
<polygon class="Blue" points="20,2 24,6 18,12 20,14 26,8 30,12 30,2 "/>
<polygon class="Blue" points="12,18 6,24 2,20 2,30 12,30 8,26 14,20 "/>
<polygon class="Blue" points="12,14 14,12 8,6 12,2 2,2 2,12 6,8 "/>
<path class="Blue" d="M18,16l-2,2l-2-2l2-2L18,16z"/>
</svg>
