<?xml version="1.0" encoding="utf-8"?>
<!-- Generator: Adobe Illustrator 20.1.0, SVG Export Plug-In . SVG Version: 6.00 Build 0)  -->
<svg version="1.1" id="Слой_1" xmlns="http://www.w3.org/2000/svg" xmlns:xlink="http://www.w3.org/1999/xlink" x="0px" y="0px"
	 viewBox="0 0 32 32" style="enable-background:new 0 0 32 32;" xml:space="preserve">
<style type="text/css">
	.Blue{fill:#1177D7;}
	.Black{fill:#727272;}
</style>
<path class="Black" d="M11,17L0,28l2,2l11-11l1-1l-2-2L11,17z"/>
<g>
	<g>
		<path class="Blue" d="M19,2c-5,0-9,4-9,9s4,9,9,9s9-4,9-9S24,2,19,2z M19,18c-3.9,0-7-3.1-7-7c0-3.9,3.1-7,7-7s7,3.1,7,7
			C26,14.9,22.9,18,19,18z"/>
	</g>
</g>
<polygon class="Blue" points="10,26 10,28 12,26.5 12,32 14,32 14,24 12,24 "/>
<path class="Blue" d="M29.1,24.8C28.6,24.3,27.9,24,27,24c-0.9,0-1.6,0.3-2.1,0.8C24.3,25.5,24,26.5,24,28c0,1.5,0.3,2.5,0.8,3.1
	c0.5,0.6,1.3,0.9,2.2,0.9c0.9,0,1.6-0.3,2.1-0.8c0.6-0.6,0.9-1.7,0.9-3.2C30,26.5,29.7,25.5,29.1,24.8z M28,29.5c0,0.5-0.5,1-1,1
	s-1-0.5-1-1v-3c0-0.5,0.5-1,1-1s1,0.5,1,1V29.5z"/>
<path class="Blue" d="M21.1,24.8C20.6,24.3,19.9,24,19,24c-0.9,0-1.6,0.3-2.1,0.8C16.3,25.5,16,26.5,16,28c0,1.5,0.3,2.5,0.8,3.1
	c0.5,0.6,1.3,0.9,2.2,0.9c0.9,0,1.6-0.3,2.1-0.8c0.6-0.6,0.9-1.7,0.9-3.2C22,26.5,21.7,25.5,21.1,24.8z M20,29.5c0,0.5-0.5,1-1,1
	s-1-0.5-1-1v-3c0-0.5,0.5-1,1-1s1,0.5,1,1V29.5z"/>
<polygon class="Blue" points="24,10 20,10 20,6 18,6 18,10 14,10 14,12 18,12 18,16 20,16 20,12 24,12 "/>
</svg>
