<?xml version="1.0" encoding="utf-8"?>
<!-- Generator: Adobe Illustrator 20.1.0, SVG Export Plug-In . SVG Version: 6.00 Build 0)  -->
<svg version="1.1" id="Слой_1" xmlns="http://www.w3.org/2000/svg" xmlns:xlink="http://www.w3.org/1999/xlink" x="0px" y="0px"
	 viewBox="0 0 32 32" style="enable-background:new 0 0 32 32;" xml:space="preserve">
<style type="text/css">
	.Blue{fill:#1177D7;}
	.Black{fill:#727272;}
</style>
<path class="Black" d="M13,17L2,28l2,2l11-11l1-1l-2-2L13,17z"/>
<g>
	<g>
		<path class="Blue" d="M21,2c-5,0-9,4-9,9s4,9,9,9s9-4,9-9S26,2,21,2z M21,18c-3.9,0-7-3.1-7-7c0-3.9,3.1-7,7-7s7,3.1,7,7
			C28,14.9,24.9,18,21,18z"/>
	</g>
</g>
</svg>
