<?xml version="1.0" encoding="utf-8"?>
<!-- Generator: Adobe Illustrator 19.1.1, SVG Export Plug-In . SVG Version: 6.00 Build 0)  -->
<svg version="1.1" id="Layer_1" xmlns="http://www.w3.org/2000/svg" xmlns:xlink="http://www.w3.org/1999/xlink" x="0px" y="0px"
	 viewBox="0 0 23 23" enable-background="new 0 0 23 23" xml:space="preserve">
<g>
	<path d="M5,14H3c-0.6,0-1,0.4-1,1v5c0,0.6,0.4,1,1,1h2c0.6,0,1-0.4,1-1v-5C6,14.4,5.6,14,5,14z"/>
	<path d="M10,10H8c-0.6,0-1,0.4-1,1v9c0,0.6,0.4,1,1,1h2c0.6,0,1-0.4,1-1v-9C11,10.4,10.6,10,10,10z"/>
	<path d="M15,6h-2c-0.6,0-1,0.4-1,1v13c0,0.6,0.4,1,1,1h2c0.6,0,1-0.4,1-1V7C16,6.4,15.6,6,15,6z"/>
	<path d="M20,2h-2c-0.6,0-1,0.4-1,1v17c0,0.6,0.4,1,1,1h2c0.6,0,1-0.4,1-1V3C21,2.4,20.6,2,20,2z"/>
</g>
</svg>
