<?xml version="1.0" encoding="utf-8"?>
<!-- Generator: Adobe Illustrator 21.1.0, SVG Export Plug-In . SVG Version: 6.00 Build 0)  -->
<svg version="1.1" id="Layer_1" xmlns="http://www.w3.org/2000/svg" xmlns:xlink="http://www.w3.org/1999/xlink" x="0px" y="0px"
	 viewBox="0 0 32 32" style="enable-background:new 0 0 32 32;" xml:space="preserve">
<style type="text/css">
	.Yellow{fill:#FFB115;}
	.Red{fill:#D11C1C;}
	.Black{fill:#727272;}
	.Blue{fill:#1177D7;}
	.White{fill:#FFFFFF;}
	.Green{fill:#039C23;}
	.st0{opacity:0.75;}
	.st1{opacity:0.5;}
	.st2{opacity:0.25;}
	.st3{fill:#FFB115;}
</style>
<g id="AddCalculatedField">
	<path class="Black" d="M18,28H1c-0.5,0-1-0.5-1-1V3c0-0.5,0.5-1,1-1h26c0.5,0,1,0.5,1,1v15h-2V4H2v22h16V28z M7.7,21.9
		c-0.1,0-0.2,0-0.3-0.1c-0.1,0-0.2-0.1-0.3-0.3c-0.3-0.3-0.5-0.5-0.6-0.6c-0.2-0.1-0.3-0.2-0.5-0.3c-0.2-0.1-0.4-0.1-0.5-0.1
		c-0.4,0-0.8,0.1-1.1,0.4S4,21.6,4,22c0,0.5,0.3,1,0.9,1.4C5.4,23.8,6.1,24,7,24c0.9,0,1.7-0.2,2.3-0.5s1.2-0.8,1.7-1.6
		c0.5-0.7,0.9-1.6,1.1-2.6l1.7-5.3h2l0.5-2h-2L15,9.6c0.1-0.6,0.3-1,0.4-1.1c0.2-0.3,0.4-0.4,0.7-0.4c0.1,0,0.3,0,0.4,0.1
		c0.1,0.1,0.3,0.2,0.6,0.5c0.2,0.3,0.4,0.4,0.7,0.5s0.5,0.2,0.8,0.2c0.3,0,0.6-0.1,0.8-0.2c0.2-0.1,0.4-0.3,0.6-0.6
		C19.9,8.5,20,8.2,20,8c0-0.3-0.1-0.7-0.4-1c-0.2-0.3-0.6-0.6-1-0.7c-0.4-0.2-1-0.3-1.7-0.3c-1.5,0-2.7,0.3-3.6,1
		c-0.9,0.7-1.7,2.6-1.9,3.8L11.1,12H9.5l-0.4,2h1.5l-1.8,6.4C8.6,21.4,8.2,21.9,7.7,21.9z M14.4,21.9c0.2,0.1,0.3,0.1,0.5,0.1
		c0.2,0,0.5-0.1,0.7-0.2c0.3-0.1,0.6-0.3,0.9-0.7c0.3-0.3,0.7-0.7,1-1.2l0.3,0.7c0.2,0.4,0.4,0.7,0.6,0.9c0.2,0.2,0.4,0.3,0.6,0.4
		c0.2,0.1,0.5,0.1,0.8,0.1c0.7,0,1.5-0.3,2.2-0.9l-0.7-0.7c-0.3,0.3-0.6,0.4-0.9,0.4c-0.2,0-0.3-0.1-0.5-0.2s-0.4-0.5-0.6-0.9
		L19.1,19c0.4-0.5,0.6-0.8,0.7-0.8c0.1-0.1,0.2-0.2,0.4-0.3c0.1-0.1,0.2-0.1,0.3-0.2c0.1,0,0.2,0,0.5-0.1c0.2,0,0.4,0,0.4,0
		c0.1,0,0.2-0.1,0.3-0.2s0.2-0.2,0.3-0.3c0.1-0.1,0.1-0.2,0.1-0.4c0-0.2-0.1-0.4-0.2-0.5S21.4,16,21.1,16c-0.2,0-0.5,0.1-0.7,0.2
		s-0.5,0.3-0.8,0.5c-0.2,0.2-0.5,0.6-1.1,1.3l-0.9-1.9h-0.5c-0.4,0.3-0.9,0.4-1.4,0.5l-0.2,1.1h0.9l0.6,1.2c-0.4,0.5-0.6,0.9-0.8,1
		c-0.2,0.2-0.3,0.3-0.5,0.4c-0.1,0.1-0.3,0.1-0.6,0.1c-0.3,0-0.6,0.1-0.7,0.1c-0.1,0.1-0.2,0.2-0.3,0.3C14,20.9,14,21.1,14,21.2
		c0,0.1,0,0.3,0.1,0.4C14.2,21.7,14.3,21.8,14.4,21.9z"/>
	<polygon class="Green" points="32,24 28,24 28,20 24,20 24,24 20,24 20,28 24,28 24,32 28,32 28,28 32,28 	"/>
</g>
</svg>
