<?xml version="1.0" encoding="utf-8"?>
<!-- Generator: Adobe Illustrator 21.1.0, SVG Export Plug-In . SVG Version: 6.00 Build 0)  -->
<svg version="1.1" id="Layer_1" xmlns="http://www.w3.org/2000/svg" xmlns:xlink="http://www.w3.org/1999/xlink" x="0px" y="0px"
	 viewBox="0 0 32 32" style="enable-background:new 0 0 32 32;" xml:space="preserve">
<style type="text/css">
	.Yellow{fill:#FFB115;}
	.Red{fill:#D11C1C;}
	.Black{fill:#727272;}
	.Blue{fill:#1177D7;}
	.White{fill:#FFFFFF;}
	.Green{fill:#039C23;}
	.st0{opacity:0.75;}
	.st1{opacity:0.5;}
	.st2{opacity:0.25;}
	.st3{fill:#FFB115;}
</style>
<g>
</g>
<g id="AutoFitToGrid">
	<g id="AutoFitToContents_1_">
		<g class="st1">
			<path class="Black" d="M22,14h8v6h-8V14z M10,20v-6H2v6H10z M22,28h8v-6h-8V28z M10,28v-6H2v6H10z M20,20v-6h-8v6H20z M20,28v-6
				h-8v6H20z"/>
		</g>
		<path class="Black" d="M2,12h2V2H2V12z M28,12h2V2h-2V12z"/>
	</g>
	<path class="Black" d="M12.6,7c-0.8,0-1.4-0.2-1.9-0.6C10.3,6,10,5.4,10,4.6c0-0.8,0.3-1.5,0.8-1.9c0.5-0.5,1.2-0.7,2-0.7
		c0.8,0,1.4,0.2,1.9,0.6c0.5,0.4,0.7,1,0.7,1.8c0,0.8-0.3,1.5-0.8,1.9C14.1,6.8,13.4,7,12.6,7z M20.5,2l-7,10h-1.9l7-10H20.5z
		 M12.7,3.2c-0.8,0-1.1,0.5-1.1,1.4c0,0.9,0.4,1.3,1.1,1.3c0.7,0,1.1-0.5,1.1-1.4C13.7,3.6,13.4,3.2,12.7,3.2z M19.3,12
		c-0.8,0-1.4-0.2-1.9-0.6c-0.5-0.5-0.7-1-0.7-1.8c0-0.8,0.3-1.5,0.8-1.9C18,7.2,18.6,7,19.5,7c0.8,0,1.5,0.2,1.9,0.6
		C21.8,8,22,8.6,22,9.4c0,0.8-0.3,1.5-0.8,1.9C20.8,11.8,20.1,12,19.3,12z M19.4,8.1c-0.8,0-1.1,0.5-1.1,1.4c0,0.9,0.4,1.3,1.1,1.3
		c0.7,0,1.1-0.5,1.1-1.4c0-0.4-0.1-0.7-0.3-1C20,8.2,19.7,8.1,19.4,8.1z M2,6h6v2H2V6z M24,6v2h6V6H24z"/>
</g>
</svg>
