<?xml version="1.0" encoding="utf-8"?>
<!-- Generator: Adobe Illustrator 21.1.0, SVG Export Plug-In . SVG Version: 6.00 Build 0)  -->
<svg version="1.1" id="Layer_1" xmlns="http://www.w3.org/2000/svg" xmlns:xlink="http://www.w3.org/1999/xlink" x="0px" y="0px"
	 viewBox="0 0 32 32" style="enable-background:new 0 0 32 32;" xml:space="preserve">
<style type="text/css">
	.Yellow{fill:#FFB115;}
	.Red{fill:#D11C1C;}
	.Black{fill:#727272;}
	.Blue{fill:#1177D7;}
	.White{fill:#FFFFFF;}
	.Green{fill:#039C23;}
	.st0{opacity:0.75;}
	.st1{opacity:0.5;}
	.st2{opacity:0.25;}
	.st3{fill:#FFB115;}
</style>
<g id="AutoFitToContents">
	<g class="st1">
		<path class="Black" d="M22,14h8v6h-8V14z M10,20v-6H2v6H10z M22,28h8v-6h-8V28z M10,28v-6H2v6H10z"/>
	</g>
	<path class="Black" d="M32,8h-4v4l-5-5l5-5v4h4V8z M4,2v4H0v2h4v4l5-5L4,2z M10,12h2V2h-2V12z M20,12h2V2h-2V12z"/>
	<path class="Blue" d="M20,20h-8v-6h8V20z M20,22h-8v6h8V22z"/>
</g>
</svg>
