<?xml version="1.0" encoding="utf-8"?>
<!-- Generator: Adobe Illustrator 21.1.0, SVG Export Plug-In . SVG Version: 6.00 Build 0)  -->
<svg version="1.1" id="Layer_1" xmlns="http://www.w3.org/2000/svg" xmlns:xlink="http://www.w3.org/1999/xlink" x="0px" y="0px"
	 viewBox="0 0 32 32" style="enable-background:new 0 0 32 32;" xml:space="preserve">
<style type="text/css">
	.Green{fill:#039C23;}
	.Black{fill:#727272;}
	.Red{fill:#D11C1C;}
	.Yellow{fill:#FFB115;}
	.Blue{fill:#1177D7;}
	.White{fill:#FFFFFF;}
	.st0{opacity:0.5;}
	.st1{opacity:0.75;}
</style>
<g id="AutoArrange">
	<path class="Black" d="M29,2H5C4.5,2,4,2.5,4,3v26c0,0.5,0.5,1,1,1h24c0.5,0,1-0.5,1-1V3C30,2.5,29.5,2,29,2z M28,28H6V4h22V28z"/>
	<path class="Blue" d="M24,24h-2.7l-1.2-4H14l-1.2,4H10l5.6-16h2.8L24,24z M19.3,18L17,11c-0.1,0.4-2.3,7-2.3,7H19.3z"/>
</g>
</svg>
