<?xml version="1.0" encoding="utf-8"?>
<!-- Generator: Adobe Illustrator 21.1.0, SVG Export Plug-In . SVG Version: 6.00 Build 0)  -->
<svg version="1.1" id="Layer_1" xmlns="http://www.w3.org/2000/svg" xmlns:xlink="http://www.w3.org/1999/xlink" x="0px" y="0px"
	 viewBox="0 0 32 32" style="enable-background:new 0 0 32 32;" xml:space="preserve">
<style type="text/css">
	.Yellow{fill:#FFB115;}
	.Red{fill:#D11C1C;}
	.Black{fill:#727272;}
	.Blue{fill:#1177D7;}
	.White{fill:#FFFFFF;}
	.Green{fill:#039C23;}
	.st0{opacity:0.75;}
	.st1{opacity:0.5;}
	.st2{opacity:0.25;}
	.st3{fill:#FFB115;}
</style>
<g>
</g>
<g id="AutomaticUpdates">
	<path class="Green" d="M15.6,25.1L14.6,25c-1-0.2-1.6-1-1.6-2v-1.1c-0.3,0-0.7,0.1-1,0.1c-4.4,0-8-3.6-8-8c0-4.4,3.6-8,8-8
		c2.2,0,4.2,0.9,5.6,2.4L14,12h5.7H22h1.8H24V2l-3.5,3.5C18.3,3.3,15.3,2,12,2C5.4,2,0,7.4,0,14c0,6.6,5.4,12,12,12
		c1.1,0,2.2-0.2,3.3-0.5L15.6,25.1z"/>
	<path class="Blue" d="M31,23v-2l-2.2-0.4c-0.2-0.6-0.4-1.3-0.8-1.8l1.3-1.8l-1.4-1.4l-1.8,1.3c-0.5-0.3-1.2-0.6-1.8-0.7L24,14h-2
		l-0.4,2.2c-0.6,0.2-1.3,0.4-1.8,0.7L18,15.6L16.6,17l1.3,1.8c-0.3,0.5-0.6,1.2-0.8,1.8L15,21v2l2.2,0.4c0.2,0.6,0.4,1.3,0.8,1.8
		L16.7,27l1.4,1.4l1.8-1.3c0.5,0.3,1.2,0.6,1.8,0.7L22,30h2l0.4-2.2c0.6-0.2,1.3-0.4,1.8-0.7l1.8,1.3l1.4-1.4l-1.3-1.8
		c0.3-0.5,0.6-1.2,0.8-1.8L31,23z M23,24c-1.1,0-2-0.9-2-2s0.9-2,2-2s2,0.9,2,2S24.1,24,23,24z"/>
</g>
</svg>
