<?xml version="1.0" encoding="utf-8"?>
<!-- Generator: Adobe Illustrator 21.1.0, SVG Export Plug-In . SVG Version: 6.00 Build 0)  -->
<svg version="1.1" id="Layer_1" xmlns="http://www.w3.org/2000/svg" xmlns:xlink="http://www.w3.org/1999/xlink" x="0px" y="0px"
	 viewBox="0 0 32 32" style="enable-background:new 0 0 32 32;" xml:space="preserve">
<style type="text/css">
	.Green{fill:#039C23;}
	.Black{fill:#727272;}
	.Red{fill:#D11C1C;}
	.Yellow{fill:#FFB115;}
	.Blue{fill:#1177D7;}
	.White{fill:#FFFFFF;}
	.st0{opacity:0.5;}
	.st1{opacity:0.75;}
</style>
<g id="ChangeLegendPosition">
	<g class="st0">
		<polygon class="Black" points="20,10 2,10 2,12 20,12 20,30 22,30 22,12 22,10 		"/>
	</g>
	<path class="Red" d="M0,2h6v6H0V2z M24,16h6v-6h-6V16z"/>
	<path class="Blue" d="M8,2h6v6H8V2z M24,24h6v-6h-6V24z"/>
	<path class="Yellow" d="M16,2h6v6h-6V2z M24,32h6v-6h-6V32z"/>
	<path class="Black" d="M2,30V10H0v22h22v-2H2z"/>
</g>
</svg>
