<?xml version="1.0" encoding="utf-8"?>
<!-- Generator: Adobe Illustrator 21.1.0, SVG Export Plug-In . SVG Version: 6.00 Build 0)  -->
<svg version="1.1" id="Layer_1" xmlns="http://www.w3.org/2000/svg" xmlns:xlink="http://www.w3.org/1999/xlink" x="0px" y="0px"
	 viewBox="0 0 32 32" style="enable-background:new 0 0 32 32;" xml:space="preserve">
<style type="text/css">
	.Green{fill:#039C23;}
	.Black{fill:#727272;}
	.Red{fill:#D11C1C;}
	.Yellow{fill:#FFB115;}
	.Blue{fill:#1177D7;}
	.White{fill:#FFFFFF;}
	.st0{opacity:0.5;}
	.st1{opacity:0.75;}
</style>
<g id="ChartFullStackedLine">
	<path class="Red" d="M29,0c-1.3,0-2.4,0.8-2.8,2h-8.4c-0.4-1.2-1.5-2-2.8-2s-2.4,0.8-2.8,2H5.8C5.4,0.8,4.3,0,3,0C1.3,0,0,1.3,0,3
		s1.3,3,3,3c1.3,0,2.4-0.8,2.8-2h6.4c0.4,1.2,1.5,2,2.8,2s2.4-0.8,2.8-2h8.4c0.4,1.2,1.5,2,2.8,2c1.7,0,3-1.3,3-3S30.7,0,29,0z M3,4
		C2.4,4,2,3.6,2,3s0.4-1,1-1s1,0.4,1,1S3.6,4,3,4z M15,4c-0.6,0-1-0.4-1-1s0.4-1,1-1s1,0.4,1,1S15.6,4,15,4z M29,4c-0.6,0-1-0.4-1-1
		s0.4-1,1-1s1,0.4,1,1S29.6,4,29,4z"/>
	<path class="Yellow" d="M29,8c-1.6,0-2.9,1.2-3,2.8l-8.5,2.5C16.9,12.5,16,12,15,12c-1,0-1.8,0.5-2.4,1.2L6,11c0-1.7-1.4-3-3-3
		c-1.7,0-3,1.3-3,3s1.3,3,3,3c1,0,1.8-0.5,2.4-1.2L12,15c0,0,0,0,0,0c0,1.7,1.3,3,3,3c1.6,0,2.9-1.3,3-2.9l8.7-2.5
		C27.1,13.5,28,14,29,14c1.7,0,3-1.3,3-3C32,9.4,30.7,8,29,8z M3,12c-0.6,0-1-0.4-1-1s0.4-1,1-1c0.6,0,1,0.4,1,1S3.6,12,3,12z
		 M15,16c-0.6,0-1-0.4-1-1s0.4-1,1-1c0.6,0,1,0.4,1,1S15.6,16,15,16z M29,12c-0.6,0-1-0.4-1-1s0.4-1,1-1s1,0.4,1,1S29.6,12,29,12z"
		/>
	<path class="Blue" d="M29,24c-1,0-1.9,0.5-2.5,1.3L18,22.8c-0.1-1.5-1.4-2.8-3-2.8c-1.7,0-3,1.3-3,3c0,0.1,0,0.3,0,0.4l-7,3.5
		C4.5,26.3,3.8,26,3,26c-1.7,0-3,1.3-3,3s1.3,3,3,3s3-1.3,3-3c0-0.1,0-0.2,0-0.4l6.9-3.5c0.5,0.5,1.3,0.9,2.1,0.9
		c1.1,0,2-0.6,2.5-1.4l8.5,2.5c0.1,1.6,1.4,2.9,3,2.9c1.7,0,3-1.3,3-3S30.7,24,29,24z M3,30c-0.6,0-1-0.4-1-1s0.4-1,1-1s1,0.4,1,1
		S3.6,30,3,30z M15,24c-0.6,0-1-0.4-1-1s0.4-1,1-1s1,0.4,1,1S15.6,24,15,24z M29,28c-0.6,0-1-0.4-1-1s0.4-1,1-1s1,0.4,1,1
		S29.6,28,29,28z"/>
</g>
</svg>
