<?xml version="1.0" encoding="utf-8"?>
<!-- Generator: Adobe Illustrator 21.1.0, SVG Export Plug-In . SVG Version: 6.00 Build 0)  -->
<svg version="1.1" id="Layer_1" xmlns="http://www.w3.org/2000/svg" xmlns:xlink="http://www.w3.org/1999/xlink" x="0px" y="0px"
	 viewBox="0 0 32 32" style="enable-background:new 0 0 32 32;" xml:space="preserve">
<style type="text/css">
	.Green{fill:#039C23;}
	.Black{fill:#727272;}
	.Red{fill:#D11C1C;}
	.Yellow{fill:#FFB115;}
	.Blue{fill:#1177D7;}
	.White{fill:#FFFFFF;}
	.st0{opacity:0.5;}
	.st1{opacity:0.75;}
</style>
<g id="ChartSplineArea">
	<path class="Yellow" d="M14.1,22c3.1,0,5.6-4.2,7.9-8.3C18.8,9.5,15.8,4,12.1,4c-6,0-8,12-8,12C8.1,16,8.1,22,14.1,22z"/>
	<g class="st0">
		<path class="Blue" d="M21.9,13.7c1.9,2.4,3.8,4.3,6.1,4.3c0-4.2,0-9.1,0-12C26.1,6,24.1,9.8,21.9,13.7z"/>
	</g>
	<path class="Blue" d="M21.9,13.7C19.6,17.8,17.1,22,14,22c-6,0-6-6-10-6v10h24c0,0,0-4,0-8C25.8,18,23.8,16.1,21.9,13.7z"/>
</g>
</svg>
