<?xml version="1.0" encoding="utf-8"?>
<!-- Generator: Adobe Illustrator 21.1.0, SVG Export Plug-In . SVG Version: 6.00 Build 0)  -->
<svg version="1.1" id="Layer_1" xmlns="http://www.w3.org/2000/svg" xmlns:xlink="http://www.w3.org/1999/xlink" x="0px" y="0px"
	 viewBox="0 0 32 32" style="enable-background:new 0 0 32 32;" xml:space="preserve">
<style type="text/css">
	.Green{fill:#039C23;}
	.Black{fill:#727272;}
	.Red{fill:#D11C1C;}
	.Yellow{fill:#FFB115;}
	.Blue{fill:#1177D7;}
	.White{fill:#FFFFFF;}
	.st0{opacity:0.5;}
	.st1{opacity:0.75;}
</style>
<g id="ChartFullStackedSplineArea">
	<path class="Yellow" d="M2,10v14c4.6-3.8,10.6-6,17-6c3.9,0,7.6,0.8,11,2.3V6c-8,0-12,8-18,8S2,10,2,10z"/>
	<path class="Blue" d="M2,2v8c0,0,4,4,10,4s10-8,18-8V2H2z"/>
	<path class="Red" d="M2,24v4h28v-7.7c-3.4-1.5-7.1-2.3-11-2.3C12.6,18,6.6,20.3,2,24z"/>
</g>
</svg>
