<?xml version="1.0" encoding="utf-8"?>
<!-- Generator: Adobe Illustrator 21.1.0, SVG Export Plug-In . SVG Version: 6.00 Build 0)  -->
<svg version="1.1" id="Layer_1" xmlns="http://www.w3.org/2000/svg" xmlns:xlink="http://www.w3.org/1999/xlink" x="0px" y="0px"
	 viewBox="0 0 32 32" style="enable-background:new 0 0 32 32;" xml:space="preserve">
<style type="text/css">
	.Green{fill:#039C23;}
	.Black{fill:#727272;}
	.Red{fill:#D11C1C;}
	.Yellow{fill:#FFB115;}
	.Blue{fill:#1177D7;}
	.White{fill:#FFFFFF;}
	.st0{opacity:0.5;}
	.st1{opacity:0.75;}
</style>
<g id="ChartStepline">
	<path class="Black" d="M20,6v8h-2V8h-6V6h6H20z M10,18H4v2h6h2V8h-2V18z M26,14h-6v2h6v8h2V14H26z"/>
	<path class="Yellow" d="M3,16c-1.7,0-3,1.3-3,3s1.3,3,3,3s3-1.3,3-3S4.7,16,3,16z M3,20c-0.6,0-1-0.4-1-1s0.4-1,1-1s1,0.4,1,1
		S3.6,20,3,20z"/>
	<path class="Green" d="M11,4C9.3,4,8,5.3,8,7s1.3,3,3,3s3-1.3,3-3S12.7,4,11,4z M11,8c-0.6,0-1-0.4-1-1s0.4-1,1-1s1,0.4,1,1
		S11.6,8,11,8z"/>
	<path class="Red" d="M19,12c-1.7,0-3,1.3-3,3s1.3,3,3,3s3-1.3,3-3S20.7,12,19,12z M19,16c-0.6,0-1-0.4-1-1s0.4-1,1-1s1,0.4,1,1
		S19.6,16,19,16z"/>
	<path class="Blue" d="M27,22c-1.7,0-3,1.3-3,3s1.3,3,3,3s3-1.3,3-3S28.7,22,27,22z M27,26c-0.6,0-1-0.4-1-1s0.4-1,1-1s1,0.4,1,1
		S27.6,26,27,26z"/>
</g>
</svg>
