<?xml version="1.0" encoding="utf-8"?>
<!-- Generator: Adobe Illustrator 21.1.0, SVG Export Plug-In . SVG Version: 6.00 Build 0)  -->
<svg version="1.1" id="Layer_1" xmlns="http://www.w3.org/2000/svg" xmlns:xlink="http://www.w3.org/1999/xlink" x="0px" y="0px"
	 viewBox="0 0 32 32" style="enable-background:new 0 0 32 32;" xml:space="preserve">
<style type="text/css">
	.Yellow{fill:#FFB115;}
	.Red{fill:#D11C1C;}
	.Black{fill:#727272;}
	.Blue{fill:#1177D7;}
	.White{fill:#FFFFFF;}
	.Green{fill:#039C23;}
	.st0{opacity:0.75;}
	.st1{opacity:0.5;}
	.st2{opacity:0.25;}
	.st3{fill:#FFB115;}
</style>
<g id="ChartPoint">
	<path class="Blue" d="M27,10c-1.7,0-3,1.3-3,3s1.3,3,3,3s3-1.3,3-3S28.7,10,27,10z M27,14c-0.6,0-1-0.4-1-1c0-0.6,0.4-1,1-1
		s1,0.4,1,1C28,13.6,27.6,14,27,14z M9,12c-1.7,0-3,1.3-3,3s1.3,3,3,3s3-1.3,3-3S10.7,12,9,12z M9,16c-0.6,0-1-0.4-1-1
		c0-0.6,0.4-1,1-1s1,0.4,1,1C10,15.6,9.6,16,9,16z"/>
	<path class="Red" d="M17,16c-1.7,0-3,1.3-3,3s1.3,3,3,3s3-1.3,3-3S18.7,16,17,16z M17,20c-0.6,0-1-0.4-1-1c0-0.6,0.4-1,1-1
		s1,0.4,1,1C18,19.6,17.6,20,17,20z"/>
	<path class="Yellow" d="M19,4c-1.7,0-3,1.3-3,3s1.3,3,3,3s3-1.3,3-3S20.7,4,19,4z M19,8c-0.6,0-1-0.4-1-1c0-0.6,0.4-1,1-1
		s1,0.4,1,1C20,7.6,19.6,8,19,8z M9,22c-1.7,0-3,1.3-3,3s1.3,3,3,3s3-1.3,3-3S10.7,22,9,22z M9,26c-0.6,0-1-0.4-1-1c0-0.6,0.4-1,1-1
		s1,0.4,1,1C10,25.6,9.6,26,9,26z"/>
</g>
</svg>
