<?xml version="1.0" encoding="utf-8"?>
<!-- Generator: Adobe Illustrator 21.1.0, SVG Export Plug-In . SVG Version: 6.00 Build 0)  -->
<svg version="1.1" id="Layer_1" xmlns="http://www.w3.org/2000/svg" xmlns:xlink="http://www.w3.org/1999/xlink" x="0px" y="0px"
	 viewBox="0 0 32 32" style="enable-background:new 0 0 32 32;" xml:space="preserve">
<style type="text/css">
	.Yellow{fill:#FFB115;}
	.Red{fill:#D11C1C;}
	.Black{fill:#727272;}
	.Blue{fill:#1177D7;}
	.White{fill:#FFFFFF;}
	.Green{fill:#039C23;}
	.st0{opacity:0.75;}
	.st1{opacity:0.5;}
	.st2{opacity:0.25;}
	.st3{fill:#FFB115;}
</style>
<g>
</g>
<g id="ChoroplethMap">
	<path class="Black" d="M8.8,13.2c-1.1,1.1-2.9,1.1-4,0l-4-4c-1.1-1.1-1.1-2.9,0-4L6,0l8,8L8.8,13.2z"/>
	<path class="Green" d="M12,4c2.2,0,4,3.6,4,8c0,1.1,0.9,2,2,2s2-0.9,2-2C20,7.6,16.4,4,12,4z"/>
	<path class="Blue" d="M22,10v2.8V17v10.2l-8-8V17v-6.2l-3.8,3.8C9.3,15.5,8.1,16,6.8,16c-0.3,0-0.5,0-0.8-0.1V30l8-8l8,8l8-8V2
		L22,10z"/>
</g>
</svg>
