<?xml version="1.0" encoding="utf-8"?>
<!-- Generator: Adobe Illustrator 21.1.0, SVG Export Plug-In . SVG Version: 6.00 Build 0)  -->
<svg version="1.1" id="Layer_1" xmlns="http://www.w3.org/2000/svg" xmlns:xlink="http://www.w3.org/1999/xlink" x="0px" y="0px"
	 viewBox="0 0 32 32" style="enable-background:new 0 0 32 32;" xml:space="preserve">
<style type="text/css">
	.Green{fill:#039C23;}
	.Black{fill:#727272;}
	.Red{fill:#D11C1C;}
	.Yellow{fill:#FFB115;}
	.Blue{fill:#1177D7;}
	.White{fill:#FFFFFF;}
	.st0{opacity:0.5;}
	.st1{opacity:0.75;}
</style>
<g id="Clip">
	<path class="Green" d="M31,2H1C0.5,2,0,2.5,0,3v18c0,0.5,0.5,1,1,1h13l-3.8-9.2c-0.4-0.9-0.1-1.9,0.7-2.4c0.3-0.2,0.7-0.3,1.1-0.3
		c0.5,0,1,0.2,1.4,0.6l6.6,6.6V4h10v16h-3.2L26,22h5c0.5,0,1-0.5,1-1V3C32,2.5,31.5,2,31,2z"/>
	<path class="Black" d="M28,12l-3.9,9.3l-2.7-2.7L28,12z M18,28c0,2.2-1.8,4-4,4s-4-1.8-4-4c0-2.2,1.8-4,4-4S18,25.8,18,28z M16,28
		c0-1.1-0.9-2-2-2s-2,0.9-2,2c0,1.1,0.9,2,2,2S16,29.1,16,28z M30,28c0,2.2-1.8,4-4,4s-4-1.8-4-4c0-0.6,0.1-1.1,0.4-1.6L20,24h-3
		l-5-12l12.4,12.4c0.5-0.2,1.1-0.4,1.6-0.4C28.2,24,30,25.8,30,28z M28,28c0-1.1-0.9-2-2-2s-2,0.9-2,2c0,1.1,0.9,2,2,2
		S28,29.1,28,28z"/>
</g>
</svg>
