<?xml version="1.0" encoding="utf-8"?>
<!-- Generator: Adobe Illustrator 21.1.0, SVG Export Plug-In . SVG Version: 6.00 Build 0)  -->
<svg version="1.1" id="Layer_1" xmlns="http://www.w3.org/2000/svg" xmlns:xlink="http://www.w3.org/1999/xlink" x="0px" y="0px"
	 viewBox="0 0 32 32" style="enable-background:new 0 0 32 32;" xml:space="preserve">
<style type="text/css">
	.Green{fill:#039C23;}
	.Black{fill:#727272;}
	.Red{fill:#D11C1C;}
	.Yellow{fill:#FFB115;}
	.Blue{fill:#1177D7;}
	.White{fill:#FFFFFF;}
	.st0{opacity:0.5;}
	.st1{opacity:0.75;}
</style>
<g id="ColumnTotalsPosition">
	<path class="Blue" d="M6,16H0v-4h6V16z M14,16H8v-4h6V16z M22,16h-6v-4h6V16z M14,0H8v4h6V0z M22,0h-6v4h6V0z M30,0h-6v4h6V0z"/>
	<path class="Green" d="M6,32H0V18h6V32z M30,6h-6v14h6V6z"/>
	<g class="st0">
		<path class="Black" d="M14,32H8V18h6V32z M22,18h-6v14h6V18z M14,6H8v4h6V6z M22,6h-6v4h6V6z"/>
	</g>
</g>
</svg>
