<?xml version="1.0" encoding="utf-8"?>
<!-- Generator: Adobe Illustrator 21.1.0, SVG Export Plug-In . SVG Version: 6.00 Build 0)  -->
<svg version="1.1" id="Layer_1" xmlns="http://www.w3.org/2000/svg" xmlns:xlink="http://www.w3.org/1999/xlink" x="0px" y="0px"
	 viewBox="0 0 32 32" style="enable-background:new 0 0 32 32;" xml:space="preserve">
<style type="text/css">
	.Yellow{fill:#FFB115;}
	.Red{fill:#D11C1C;}
	.Black{fill:#727272;}
	.Blue{fill:#1177D7;}
	.White{fill:#FFFFFF;}
	.Green{fill:#039C23;}
	.st0{opacity:0.75;}
	.st1{opacity:0.5;}
	.st2{opacity:0.25;}
	.st3{fill:#FFB115;}
</style>
<g>
</g>
<g id="Currency">
	<path class="Yellow" d="M11,2c-5,0-9,4-9,9s4,9,9,9s9-4,9-9S16,2,11,2z M15,8.5c-0.7-0.4-1.5-0.6-2.3-0.6c-1,0-1.7,0.3-2.3,0.9
		C10,9.1,9.7,9.5,9.6,10H13v2H9.6c0.1,0.5,0.4,0.9,0.7,1.3c0.6,0.6,1.3,0.8,2.3,0.8c0.9,0,1.7-0.2,2.5-0.6v2
		c-0.7,0.3-1.7,0.5-2.9,0.5c-1.6,0-2.8-0.4-3.7-1.3C7.6,14,7.2,13.1,7.1,12H6v-2h1.1c0.2-1,0.7-1.9,1.4-2.6c1-1,2.3-1.4,3.9-1.4
		c1,0,1.8,0.1,2.5,0.4v2.1H15z"/>
	<path class="Green" d="M21,12c-5,0-9,4-9,9s4,9,9,9s9-4,9-9S26,12,21,12z M24.3,24.5c-0.2,0.4-0.5,0.7-0.8,0.9
		c-0.4,0.2-0.8,0.4-1.2,0.5c-0.1,0-0.2,0-0.3,0V27h-2v-1c-0.2,0-0.5-0.1-0.7-0.1c-0.5-0.1-0.9-0.2-1.3-0.4v-2.2
		c0.4,0.3,0.9,0.6,1.3,0.7c0.5,0.2,0.9,0.2,1.4,0.2c0.3,0,0.5,0,0.7-0.1c0.2,0,0.4-0.1,0.5-0.2s0.2-0.2,0.3-0.3
		c0.1-0.1,0.1-0.2,0.1-0.4c0-0.2-0.1-0.4-0.2-0.5s-0.3-0.3-0.4-0.4c-0.2-0.1-0.4-0.2-0.7-0.4c-0.3-0.1-0.5-0.2-0.8-0.4
		c-0.8-0.3-1.3-0.7-1.7-1.2c-0.4-0.5-0.6-1-0.6-1.6c0-0.5,0.1-0.9,0.3-1.3c0.2-0.4,0.5-0.7,0.8-0.9c0.3-0.2,0.6-0.3,0.9-0.4V15h2v1
		c0.4,0,0.8,0,1.1,0.1c0.4,0.1,0.5,0.1,0.9,0.2v2c-0.2-0.1-0.1-0.1-0.3-0.2c-0.2-0.1-0.4-0.2-0.6-0.2c-0.2-0.1-0.4-0.1-0.6-0.1
		s-0.4,0-0.6,0s-0.5,0-0.7,0.1c-0.2,0-0.4,0.1-0.5,0.2s-0.2,0.2-0.3,0.3c-0.1,0.1-0.1,0.3-0.1,0.4c0,0.2,0,0.3,0.1,0.4
		s0.2,0.2,0.4,0.4c0.2,0.1,0.3,0.2,0.6,0.3c0.2,0.1,0.5,0.2,0.8,0.3c0.4,0.2,0.7,0.3,1,0.5s0.6,0.4,0.8,0.6c0.2,0.2,0.4,0.5,0.5,0.8
		s0.2,0.6,0.2,1C24.6,23.7,24.5,24.1,24.3,24.5z"/>
</g>
</svg>
