<?xml version="1.0" encoding="utf-8"?>
<!-- Generator: Adobe Illustrator 21.1.0, SVG Export Plug-In . SVG Version: 6.00 Build 0)  -->
<svg version="1.1" id="Layer_1" xmlns="http://www.w3.org/2000/svg" xmlns:xlink="http://www.w3.org/1999/xlink" x="0px" y="0px"
	 viewBox="0 0 32 32" style="enable-background:new 0 0 32 32;" xml:space="preserve">
<style type="text/css">
	.Green{fill:#039C23;}
	.Black{fill:#727272;}
	.Red{fill:#D11C1C;}
	.Yellow{fill:#FFB115;}
	.Blue{fill:#1177D7;}
	.White{fill:#FFFFFF;}
	.st0{opacity:0.5;}
	.st1{opacity:0.75;}
</style>
<g id="DataLabels">
	<path class="Blue" d="M10.3,5.2l-9.9,9.9l9.9,9.9c2.3-2.6,3.7-6.1,3.7-9.9S12.6,7.9,10.3,5.2z"/>
	<path class="Yellow" d="M0,30c3.4-0.2,6.5-1.6,8.9-3.7L0,17.5V30z"/>
	<path class="Red" d="M0,0.1v12.6l8.9-8.9C6.4,1.7,3.4,0.4,0,0.1z"/>
	<g class="st0">
		<path class="Black" d="M20,16h-4v-2h4V16z M20,2h-8v2h8V2z M20,26h-8v2h8V26z"/>
	</g>
	<path class="Green" d="M30,6h-8V0h8V6z M30,12h-8v6h8V12z M30,24h-8v6h8V24z"/>
</g>
</svg>
