<?xml version="1.0" encoding="utf-8"?>
<!-- Generator: Adobe Illustrator 21.1.0, SVG Export Plug-In . SVG Version: 6.00 Build 0)  -->
<svg version="1.1" id="Layer_1" xmlns="http://www.w3.org/2000/svg" xmlns:xlink="http://www.w3.org/1999/xlink" x="0px" y="0px"
	 viewBox="0 0 32 32" style="enable-background:new 0 0 32 32;" xml:space="preserve">
<style type="text/css">
	.Green{fill:#039C23;}
	.Black{fill:#727272;}
	.Red{fill:#D11C1C;}
	.Yellow{fill:#FFB115;}
	.Blue{fill:#1177D7;}
	.White{fill:#FFFFFF;}
	.st0{opacity:0.5;}
	.st1{opacity:0.75;}
</style>
<g id="DefaultMap">
	<path class="Black" d="M31,0H1C0.5,0,0,0.5,0,1v30c0,0.5,0.5,1,1,1h30c0.5,0,1-0.5,1-1V1C32,0.5,31.5,0,31,0z M30,30H2V2h28V30z"/>
	<path class="Blue" d="M4,4v24h24V4H4z M23.5,15.5c-0.6,0.5-1.4,1-1.8,1.7c-0.8,1.2,0.6,2.4-0.2,3.7c-0.2,0.4-0.7,0.4-1,0.6
		c-0.3,0.3-0.2,0.6-0.2,1c0,0.3,0.3,0.6,0.1,0.8c-0.1,0.1-0.3,0.1-0.4,0.2c-0.4,0.6-0.2,1.5-0.8,1.9c-2,1.3-2.3,0.3-2.4,0.1
		c0-0.3-0.1-0.6-0.2-0.9c-0.1-0.3-0.3-0.5-0.4-0.7c-0.1-0.3-0.1-0.6-0.1-0.8c-0.1-0.6-0.5-1-0.7-1.5c-0.2-0.7,0.5-2.9,0.6-3.5
		c0.1-0.5-0.1-0.7-0.3-0.9c-0.9-1.4-3.1-0.1-4-1c-0.4-0.5-1.7-0.1-2.6-0.9c-0.3-0.4-0.3-1.6-0.6-2c-0.2-0.3-0.5-0.6-0.5-1
		c0-0.1,0.3-0.8,0.2-1.1c0-0.2-0.1-0.4-0.1-0.6c0-0.3,0.4-0.7,0.5-1c0.2-0.4,0.6-0.6,0.9-1c0.3-0.4,0-0.8,0.4-1.2
		c0.1-0.1,0.3-0.2,0.4-0.4c0.1-0.1,0.4-0.6,0.9-0.4c0.4,0.1,2.7-0.5,3-0.5c1.1,0,0.8,1,1.5,1.3c0.1,0.1,0.3,0.1,0.4,0.1
		c0.2,0.1,0.3,0.3,0.5,0.4c0.2,0.1,0.6,0.2,0.8,0c0.1-0.1-0.1-0.4,0.3-0.5c0.2-0.1,0.4,0.1,0.6,0.2c0.2,0.1,0.4,0.3,1,0.3
		c0.1,0,0.3-0.1,0.4,0c0.5,0.2,0.8,1.2,1,1.6c0.1,0.3,0.3,0.7,0.4,1c0.1,0.2,0.2,0.9,0.3,1c0.2,0.3,0.2,0.6,0.4,0.9
		c0.1,0.2,0.4,0.3,0.5,0.5c0,0.1,0,0.3,0,0.4c0.4,0.7,1-0.7,1.6-0.1C24.2,13.7,23.9,15.1,23.5,15.5z"/>
</g>
</svg>
