<?xml version="1.0" encoding="utf-8"?>
<!-- Generator: Adobe Illustrator 21.1.0, SVG Export Plug-In . SVG Version: 6.00 Build 0)  -->
<svg version="1.1" id="Layer_1" xmlns="http://www.w3.org/2000/svg" xmlns:xlink="http://www.w3.org/1999/xlink" x="0px" y="0px"
	 viewBox="0 0 32 32" style="enable-background:new 0 0 32 32;" xml:space="preserve">
<style type="text/css">
	.Yellow{fill:#FFB115;}
	.Red{fill:#D11C1C;}
	.Black{fill:#727272;}
	.Blue{fill:#1177D7;}
	.White{fill:#FFFFFF;}
	.Green{fill:#039C23;}
	.st0{opacity:0.75;}
	.st1{opacity:0.5;}
	.st2{opacity:0.25;}
	.st3{fill:#FFB115;}
</style>
<g>
</g>
<g id="Delete_1_">
	<path class="Yellow" d="M4,10V6c0-2.2,4.5-4,10-4s10,1.8,10,4v4c0,2.2-4.5,4-10,4S4,12.2,4,10z M14,20c0.7,0,1.4,0,2-0.1
		c0-0.5,0.2-1,0.6-1.3l2-2C19,16.2,19.5,16,20,16s1,0.2,1.4,0.6l1.3,1.3c0.8-0.6,1.2-1.2,1.2-1.9v-4c0,2.2-4.5,4-10,4S4,14.2,4,12v4
		C4,18.2,8.5,20,14,20z M19.2,24L17,21.8C16,21.9,15,22,14,22c-5.5,0-10-1.8-10-4v4c0,2.2,4.5,4,10,4c1.2,0,2.3-0.1,3.4-0.2L19.2,24
		z"/>
	<polygon class="Red" points="30,20 28,18 24,22 20,18 18,20 22,24 18,28 20,30 24,26 28,30 30,28 26,24 	"/>
</g>
</svg>
