<?xml version="1.0" encoding="utf-8"?>
<!-- Generator: Adobe Illustrator 21.1.0, SVG Export Plug-In . SVG Version: 6.00 Build 0)  -->
<svg version="1.1" id="Layer_1" xmlns="http://www.w3.org/2000/svg" xmlns:xlink="http://www.w3.org/1999/xlink" x="0px" y="0px"
	 viewBox="0 0 32 32" style="enable-background:new 0 0 32 32;" xml:space="preserve">
<style type="text/css">
	.Yellow{fill:#FFB115;}
	.Red{fill:#D11C1C;}
	.Black{fill:#727272;}
	.Blue{fill:#1177D7;}
	.White{fill:#FFFFFF;}
	.Green{fill:#039C23;}
	.st0{opacity:0.75;}
	.st1{opacity:0.5;}
	.st2{opacity:0.25;}
	.st3{fill:#FFB115;}
</style>
<g>
</g>
<g id="EditConnection">
	<path class="Green" d="M18,25.9C17.4,26,16.7,26,16,26s-1.4,0-2-0.1V28h-4v4h4h4h4v-4h-4V25.9z"/>
	<path class="Yellow" d="M6,10V6c0-2.2,4.5-4,10-4s10,1.8,10,4v4c0,2.2-4.5,4-10,4S6,12.2,6,10z M16,16c-5.5,0-10-1.8-10-4v4
		c0,2.2,4.5,4,10,4s10-1.8,10-4v-4C26,14.2,21.5,16,16,16z M16,22c-5.5,0-10-1.8-10-4v4c0,2.2,4.5,4,10,4s10-1.8,10-4v-4
		C26,20.2,21.5,22,16,22z"/>
	<g class="st1">
		<path class="Black" d="M10,32H2v-4h8V32z M30,28h-8v4h8V28z"/>
	</g>
</g>
</svg>
