<?xml version="1.0" encoding="utf-8"?>
<!-- Generator: Adobe Illustrator 21.1.0, SVG Export Plug-In . SVG Version: 6.00 Build 0)  -->
<svg version="1.1" id="Layer_1" xmlns="http://www.w3.org/2000/svg" xmlns:xlink="http://www.w3.org/1999/xlink" x="0px" y="0px"
	 viewBox="0 0 32 32" style="enable-background:new 0 0 32 32;" xml:space="preserve">
<style type="text/css">
	.Green{fill:#039C23;}
	.Black{fill:#727272;}
	.Red{fill:#D11C1C;}
	.Yellow{fill:#FFB115;}
	.Blue{fill:#1177D7;}
	.White{fill:#FFFFFF;}
	.st0{opacity:0.5;}
	.st1{opacity:0.75;}
</style>
<g id="EditDataSource">
	<path class="Yellow" d="M4,10V6c0-2.2,4.5-4,10-4s10,1.8,10,4v4c0,2.2-4.5,4-10,4S4,12.2,4,10z M24,18L24,18C24,18,24,18,24,18
		C24,18,24,18,24,18z M14,20c5.5,0,10-1.8,10-4v-4c0,2.2-4.5,4-10,4S4,14.2,4,12v4C4,18.2,8.5,20,14,20z M15.2,26l4.8-4.8
		c-1.7,0.5-3.7,0.8-6,0.8c-5.5,0-10-1.8-10-4v4c0,2.2,4.5,4,10,4C14.4,26,14.8,26,15.2,26z"/>
	<path class="Blue" d="M29,23l-8,8l-4-4l8-8L29,23z M30,22l1.7-1.7c0.4-0.4,0.4-1,0-1.3L29,16.3c-0.4-0.4-1-0.4-1.3,0L26,18L30,22z
		 M16,28v4h4L16,28z"/>
</g>
</svg>
