<?xml version="1.0" encoding="utf-8"?>
<!-- Generator: Adobe Illustrator 21.1.0, SVG Export Plug-In . SVG Version: 6.00 Build 0)  -->
<svg version="1.1" id="Layer_1" xmlns="http://www.w3.org/2000/svg" xmlns:xlink="http://www.w3.org/1999/xlink" x="0px" y="0px"
	 viewBox="0 0 32 32" style="enable-background:new 0 0 32 32;" xml:space="preserve">
<style type="text/css">
	.Yellow{fill:#FFB115;}
	.Red{fill:#D11C1C;}
	.Black{fill:#727272;}
	.Blue{fill:#1177D7;}
	.White{fill:#FFFFFF;}
	.Green{fill:#039C23;}
	.st0{opacity:0.75;}
	.st1{opacity:0.5;}
	.st2{opacity:0.25;}
	.st3{fill:#FFB115;}
</style>
<g id="EditColors">
	<path class="Black" d="M29,0H1C0.5,0,0,0.5,0,1v28c0,0.5,0.5,1,1,1h28c0.5,0,1-0.5,1-1V1C30,0.5,29.5,0,29,0z M28,28H2V2h26V28z"/>
	<path class="Yellow" d="M10,10H4V4h6V10z M18,4h-6v6h6V4z M10,12H4v6h6V12z"/>
	<path class="Green" d="M10,26H4v-6h6V26z M18,12h-6v6h6V12z"/>
	<path class="Red" d="M26,10h-6V4h6V10z M26,12h-6v6h6V12z"/>
	<path class="Blue" d="M26,26h-6v-6h6V26z M18,20h-6v6h6V20z"/>
	<g class="st1">
		<rect x="4" y="12" class="Green" width="6" height="6"/>
		<path class="Red" d="M18,10h-6V4h6V10z M26,20h-6v6h6V20z"/>
		<path class="Blue" d="M26,18h-6v-6h6V18z M18,12h-6v6h6V12z"/>
	</g>
	<g class="st1">
		<rect x="20" y="20" class="Blue" width="6" height="6"/>
	</g>
</g>
</svg>
