<?xml version="1.0" encoding="utf-8"?>
<!-- Generator: Adobe Illustrator 21.1.0, SVG Export Plug-In . SVG Version: 6.00 Build 0)  -->
<svg version="1.1" id="Layer_1" xmlns="http://www.w3.org/2000/svg" xmlns:xlink="http://www.w3.org/1999/xlink" x="0px" y="0px"
	 viewBox="0 0 32 32" style="enable-background:new 0 0 32 32;" xml:space="preserve">
<style type="text/css">
	.Green{fill:#039C23;}
	.Black{fill:#727272;}
	.Red{fill:#D11C1C;}
	.Yellow{fill:#FFB115;}
	.Blue{fill:#1177D7;}
	.White{fill:#FFFFFF;}
	.st0{opacity:0.5;}
	.st1{opacity:0.75;}
</style>
<g id="EnableClustering">
	<path class="Green" d="M32,16c0,4.4-3.6,8-8,8c-0.2,0-0.3,0-0.5,0c1.6-2.3,2.5-5.1,2.5-8s-0.9-5.6-2.5-8c0.2,0,0.3,0,0.5,0
		C28.4,8,32,11.6,32,16z M14,16c0-3.9,2.3-7.5,5.8-9.1C17.7,5.1,15,4,12,4C5.4,4,0,9.4,0,16c0,6.6,5.4,12,12,12c3,0,5.7-1.1,7.8-2.9
		C16.3,23.5,14,19.9,14,16z M21.3,8.5C18.2,9.6,16,12.5,16,16s2.2,6.4,5.3,7.5C23,21.5,24,18.9,24,16S23,10.5,21.3,8.5z"/>
</g>
</svg>
