<?xml version="1.0" encoding="utf-8"?>
<!-- Generator: Adobe Illustrator 21.1.0, SVG Export Plug-In . SVG Version: 6.00 Build 0)  -->
<svg version="1.1" id="Layer_1" xmlns="http://www.w3.org/2000/svg" xmlns:xlink="http://www.w3.org/1999/xlink" x="0px" y="0px"
	 viewBox="0 0 32 32" style="enable-background:new 0 0 32 32;" xml:space="preserve">
<style type="text/css">
	.Green{fill:#039C23;}
	.Black{fill:#727272;}
	.Red{fill:#D11C1C;}
	.Yellow{fill:#FFB115;}
	.Blue{fill:#1177D7;}
	.White{fill:#FFFFFF;}
	.st0{opacity:0.5;}
	.st1{opacity:0.75;}
</style>
<g id="GaugeStyleLinearVertical">
	<path class="Black" d="M23,0H9C8.5,0,8,0.5,8,1v28c0,0.5,0.5,1,1,1h14c0.5,0,1-0.5,1-1V1C24,0.5,23.5,0,23,0z M22,28H10V2h12V28z
		 M20,6h-2V4h2V6z M20,8h-2v2h2V8z M20,12h-2v2h2V12z M20,16h-2v2h2V16z M20,20h-2v2h2V20z M20,24h-2v2h2V24z"/>
	<rect x="12" y="4" class="Red" width="4" height="6"/>
	<rect x="12" y="12" class="Blue" width="4" height="14"/>
</g>
</svg>
