<?xml version="1.0" encoding="utf-8"?>
<!-- Generator: Adobe Illustrator 21.1.0, SVG Export Plug-In . SVG Version: 6.00 Build 0)  -->
<svg version="1.1" id="Layer_1" xmlns="http://www.w3.org/2000/svg" xmlns:xlink="http://www.w3.org/1999/xlink" x="0px" y="0px"
	 viewBox="0 0 32 32" style="enable-background:new 0 0 32 32;" xml:space="preserve">
<style type="text/css">
	.Green{fill:#039C23;}
	.Black{fill:#727272;}
	.Red{fill:#D11C1C;}
	.Yellow{fill:#FFB115;}
	.Blue{fill:#1177D7;}
	.White{fill:#FFFFFF;}
	.st0{opacity:0.5;}
	.st1{opacity:0.75;}
</style>
<g id="GaugeStyleLinearHorizontal">
	<path class="Black" d="M29,8H1C0.5,8,0,8.5,0,9v14c0,0.5,0.5,1,1,1h28c0.5,0,1-0.5,1-1V9C30,8.5,29.5,8,29,8z M28,22H2V10h26V22z
		 M6,20H4v-2h2V20z M10,20H8v-2h2V20z M14,20h-2v-2h2V20z M18,20h-2v-2h2V20z M22,20h-2v-2h2V20z M26,20h-2v-2h2V20z"/>
	<rect x="4" y="12" class="Blue" width="14" height="4"/>
	<rect x="20" y="12" class="Red" width="6" height="4"/>
</g>
</svg>
