<?xml version="1.0" encoding="utf-8"?>
<!-- Generator: Adobe Illustrator 21.1.0, SVG Export Plug-In . SVG Version: 6.00 Build 0)  -->
<svg version="1.1" id="Layer_1" xmlns="http://www.w3.org/2000/svg" xmlns:xlink="http://www.w3.org/1999/xlink" x="0px" y="0px"
	 viewBox="0 0 32 32" style="enable-background:new 0 0 32 32;" xml:space="preserve">
<style type="text/css">
	.Green{fill:#039C23;}
	.Black{fill:#727272;}
	.Red{fill:#D11C1C;}
	.Yellow{fill:#FFB115;}
	.Blue{fill:#1177D7;}
	.White{fill:#FFFFFF;}
	.st0{opacity:0.5;}
	.st1{opacity:0.75;}
</style>
<g id="GaugeStyleLeftQuarterCircular">
	<path class="Black" d="M11.7,10.3l6,6c0.4-0.2,0.8-0.3,1.3-0.3c1.7,0,3,1.3,3,3s-1.3,3-3,3s-3-1.3-3-3c0-0.5,0.1-0.9,0.3-1.3l-6-6
		L11.7,10.3z M4,19v7h22V4h-7C10.7,4,4,10.7,4,19z M6,19c0-7.2,5.8-13,13-13h5v18H6V19z"/>
	<path class="Blue" d="M9.4,13.6l3,3C12.1,17.4,12,18.2,12,19v3H8v-3C8,17,8.5,15.2,9.4,13.6z"/>
	<path class="Red" d="M19,8h3v4h-3c-0.8,0-1.6,0.1-2.3,0.4l-3-3C15.2,8.5,17.1,8,19,8z"/>
</g>
</svg>
