<?xml version="1.0" encoding="utf-8"?>
<!-- Generator: Adobe Illustrator 21.1.0, SVG Export Plug-In . SVG Version: 6.00 Build 0)  -->
<svg version="1.1" id="Layer_1" xmlns="http://www.w3.org/2000/svg" xmlns:xlink="http://www.w3.org/1999/xlink" x="0px" y="0px"
	 viewBox="0 0 32 32" style="enable-background:new 0 0 32 32;" xml:space="preserve">
<style type="text/css">
	.Green{fill:#039C23;}
	.Black{fill:#727272;}
	.Red{fill:#D11C1C;}
	.Yellow{fill:#FFB115;}
	.Blue{fill:#1177D7;}
	.White{fill:#FFFFFF;}
	.st0{opacity:0.5;}
	.st1{opacity:0.75;}
</style>
<g id="GaugeStyleThreeForthCircular">
	<path class="Black" d="M15,2C6.7,2,0,8.7,0,17c0,6,3.5,11.1,8.5,13.5L15,24l6.5,6.5C26.5,28.1,30,23,30,17C30,8.7,23.3,2,15,2z
		 M21.9,28L15,21.2L8.1,28C4.3,25.7,2,21.6,2,17C2,9.8,7.8,4,15,4s13,5.8,13,13C28,21.6,25.7,25.7,21.9,28z M17.7,15.7
		c0.2,0.4,0.3,0.8,0.3,1.3c0,1.7-1.3,3-3,3s-3-1.3-3-3s1.3-3,3-3c0.5,0,0.9,0.1,1.3,0.3l6-6l1.4,1.4L17.7,15.7z"/>
	<path class="Blue" d="M8,17c0-3.9,3.1-7,7-7c0.8,0,1.6,0.2,2.4,0.4l3-3C18.8,6.5,16.9,6,15,6C8.9,6,4,10.9,4,17
		c0,3.3,1.4,6.4,3.9,8.4l2.8-2.8C9.1,21.3,8,19.3,8,17z"/>
	<path class="Red" d="M21.6,14.6c0.3,0.7,0.4,1.5,0.4,2.4c0,2.3-1.1,4.3-2.8,5.6l2.8,2.8c2.5-2.1,3.9-5.1,3.9-8.4
		c0-1.9-0.5-3.8-1.4-5.4L21.6,14.6z"/>
</g>
</svg>
