<?xml version="1.0" encoding="utf-8"?>
<!-- Generator: Adobe Illustrator 21.1.0, SVG Export Plug-In . SVG Version: 6.00 Build 0)  -->
<svg version="1.1" id="Layer_1" xmlns="http://www.w3.org/2000/svg" xmlns:xlink="http://www.w3.org/1999/xlink" x="0px" y="0px"
	 viewBox="0 0 32 32" style="enable-background:new 0 0 32 32;" xml:space="preserve">
<style type="text/css">
	.Green{fill:#039C23;}
	.Black{fill:#727272;}
	.Red{fill:#D11C1C;}
	.Yellow{fill:#FFB115;}
	.Blue{fill:#1177D7;}
	.White{fill:#FFFFFF;}
	.st0{opacity:0.5;}
	.st1{opacity:0.75;}
</style>
<g id="GaugeStyleHalfCircular">
	<path class="Black" d="M23.7,11.7l-6,6c0.2,0.4,0.3,0.8,0.3,1.3c0,1.7-1.3,3-3,3s-3-1.3-3-3s1.3-3,3-3c0.5,0,0.9,0.1,1.3,0.3l6-6
		L23.7,11.7z M30,19v7H0v-7C0,10.7,6.7,4,15,4S30,10.7,30,19z M28,19c0-7.2-5.8-13-13-13S2,11.8,2,19v5h26V19z"/>
	<path class="Blue" d="M15,8C8.9,8,4,12.9,4,19v3h4v-3c0-3.9,3.1-7,7-7c0.8,0,1.6,0.1,2.3,0.4l3-3C18.8,8.5,16.9,8,15,8z"/>
	<path class="Red" d="M24.6,13.6l-3,3c0.3,0.7,0.4,1.5,0.4,2.4v3h4v-3C26,17,25.5,15.2,24.6,13.6z"/>
</g>
</svg>
