<?xml version="1.0" encoding="utf-8"?>
<!-- Generator: Adobe Illustrator 21.1.0, SVG Export Plug-In . SVG Version: 6.00 Build 0)  -->
<svg version="1.1" id="Layer_1" xmlns="http://www.w3.org/2000/svg" xmlns:xlink="http://www.w3.org/1999/xlink" x="0px" y="0px"
	 viewBox="0 0 32 32" style="enable-background:new 0 0 32 32;" xml:space="preserve">
<style type="text/css">
	.Yellow{fill:#FFB115;}
	.Red{fill:#D11C1C;}
	.Black{fill:#727272;}
	.Blue{fill:#1177D7;}
	.White{fill:#FFFFFF;}
	.Green{fill:#039C23;}
	.st0{opacity:0.75;}
	.st1{opacity:0.5;}
	.st2{opacity:0.25;}
	.st3{fill:#FFB115;}
</style>
<g>
</g>
<g id="GeoPoinMaps">
	<path class="Red" d="M16,0c-3.3,0-6,2.7-6,6s6,10,6,10s6-6.7,6-10S19.3,0,16,0z M16,8c-1.1,0-2-0.9-2-2s0.9-2,2-2s2,0.9,2,2
		S17.1,8,16,8z"/>
	<path class="Blue" d="M23.4,8.6c-0.8,1.9-2.1,4-3.4,5.7v0.5V19v10.2l-8-8V19v-4.7c-1.5-1.9-3.1-4.4-3.7-6.6L4,12v20l8-8l8,8l8-8V4
		L23.4,8.6z"/>
</g>
</svg>
