<?xml version="1.0" encoding="utf-8"?>
<!-- Generator: Adobe Illustrator 21.1.0, SVG Export Plug-In . SVG Version: 6.00 Build 0)  -->
<svg version="1.1" id="Layer_1" xmlns="http://www.w3.org/2000/svg" xmlns:xlink="http://www.w3.org/1999/xlink" x="0px" y="0px"
	 viewBox="0 0 32 32" style="enable-background:new 0 0 32 32;" xml:space="preserve">
<style type="text/css">
	.Green{fill:#039C23;}
	.Black{fill:#727272;}
	.Red{fill:#D11C1C;}
	.Yellow{fill:#FFB115;}
	.Blue{fill:#1177D7;}
	.White{fill:#FFFFFF;}
	.st0{opacity:0.5;}
	.st1{opacity:0.75;}
</style>
<g id="GridColumnFitToContent">
	<path class="Black" d="M24,32v-4H8v4l-5-5l5-5v4h16v-4l5,5L24,32z M2,22H0v10h2V22z M32,22h-2v10h2V22z"/>
	<path class="Blue" d="M21.7,12c0.2,0.2,0.3,0.5,0.3,0.9c0,0.4-0.1,0.7-0.3,1s-0.5,0.4-0.9,0.4h-0.9v-2.6h1
		C21.2,11.7,21.5,11.8,21.7,12z M21.4,9.7c0.2-0.2,0.3-0.5,0.3-0.9c0-0.8-0.4-1.2-1.3-1.2h-0.7v2.4h0.8C21,10.1,21.2,9.9,21.4,9.7z
		 M12.1,7.8c0-0.1,0-0.2,0-0.2h0c-0.1,0.6-0.2,1-0.2,1.2L11,12H13l-0.7-3.1C12.2,8.6,12.1,8.3,12.1,7.8z M32,3v16c0,0.5-0.5,1-1,1H1
		c-0.5,0-1-0.5-1-1V3c0-0.5,0.5-1,1-1h30C31.5,2,32,2.5,32,3z M16,16L13.2,6h-2.3L8,16h2.1l0.6-2.5h2.6l0.6,2.5H16z M24,13
		c0-0.6-0.2-1.1-0.5-1.6c-0.3-0.4-0.8-0.7-1.3-0.8v0c0.5-0.1,0.8-0.4,1.1-0.8c0.3-0.4,0.4-0.9,0.4-1.4c0-1.6-0.9-2.4-2.8-2.4H18v10
		h3.1c0.9,0,1.6-0.3,2.1-0.8C23.8,14.7,24,13.9,24,13z"/>
</g>
</svg>
