<?xml version="1.0" encoding="utf-8"?>
<!-- Generator: Adobe Illustrator 21.1.0, SVG Export Plug-In . SVG Version: 6.00 Build 0)  -->
<svg version="1.1" id="Layer_1" xmlns="http://www.w3.org/2000/svg" xmlns:xlink="http://www.w3.org/1999/xlink" x="0px" y="0px"
	 viewBox="0 0 32 32" style="enable-background:new 0 0 32 32;" xml:space="preserve">
<style type="text/css">
	.Green{fill:#039C23;}
	.Black{fill:#727272;}
	.Red{fill:#D11C1C;}
	.Yellow{fill:#FFB115;}
	.Blue{fill:#1177D7;}
	.White{fill:#FFFFFF;}
	.st0{opacity:0.5;}
	.st1{opacity:0.75;}
</style>
<g id="GridClearSorting">
	<path class="Blue" d="M10,24h4l-5,5l-5-5h4v-5.8l1-1l1,1V24z M9,8.8l1-1V2H8v5.8L9,8.8z M27.3,16h-8.1H19v0.1v1.8V18h0.2h5.2
		l-5.9,9v0.9V28h0.2h8.5h0.2v-0.1v-1.8V26h-0.2h-5.6l5.9-9v-0.9V16H27.3z"/>
	<path class="Red" d="M28,14h-0.2h-1.9h-0.1v-0.1L25.2,12h-4.4l-0.6,1.9V14h-0.1h-1.9H18l0.1-0.2L22,2.1V2h0.1H24h0.1v0.1l3.8,11.7
		L28,14L28,14z M21.4,10h3.2L23,4.7c0,0,0,0,0-0.1c0,0,0,0,0,0.1L21.4,10z M14.7,8.8l-1.4-1.4L9,11.6L4.8,7.3L3.3,8.8L7.6,13
		l-4.2,4.2l1.4,1.4L9,14.4l4.2,4.2l1.4-1.4L10.4,13L14.7,8.8z"/>
</g>
</svg>
