<?xml version="1.0" encoding="utf-8"?>
<!-- Generator: Adobe Illustrator 21.1.0, SVG Export Plug-In . SVG Version: 6.00 Build 0)  -->
<svg version="1.1" id="Layer_1" xmlns="http://www.w3.org/2000/svg" xmlns:xlink="http://www.w3.org/1999/xlink" x="0px" y="0px"
	 viewBox="0 0 32 32" style="enable-background:new 0 0 32 32;" xml:space="preserve">
<style type="text/css">
	.Green{fill:#039C23;}
	.Black{fill:#727272;}
	.Red{fill:#D11C1C;}
	.Yellow{fill:#FFB115;}
	.Blue{fill:#1177D7;}
	.White{fill:#FFFFFF;}
	.st0{opacity:0.5;}
	.st1{opacity:0.75;}
</style>
<g id="GridColumnFixedWidth">
	<path class="Black" d="M10,28H8v4l-5-5l5-5v4h2V28z M0,32h2V22H0V32z M30,22v10h2V22H30z M24,26h-2v2h2v4l5-5l-5-5V26z"/>
	<path class="Blue" d="M32,3v16c0,0.5-0.5,1-1,1H1c-0.5,0-1-0.5-1-1V3c0-0.5,0.5-1,1-1h30C31.5,2,32,2.5,32,3z"/>
	<path class="Yellow" d="M16,22c-2.2,0-4,1.8-4,4v5c0,0.5,0.5,1,1,1h6c0.5,0,1-0.5,1-1v-5C20,23.8,18.2,22,16,22z M16,24
		c1.1,0,2,0.9,2,2h-4C14,24.9,14.9,24,16,24z"/>
</g>
</svg>
