<?xml version="1.0" encoding="utf-8"?>
<!-- Generator: Adobe Illustrator 21.1.0, SVG Export Plug-In . SVG Version: 6.00 Build 0)  -->
<svg version="1.1" id="Layer_1" xmlns="http://www.w3.org/2000/svg" xmlns:xlink="http://www.w3.org/1999/xlink" x="0px" y="0px"
	 viewBox="0 0 32 32" style="enable-background:new 0 0 32 32;" xml:space="preserve">
<style type="text/css">
	.Green{fill:#039C23;}
	.Black{fill:#727272;}
	.Red{fill:#D11C1C;}
	.Yellow{fill:#FFB115;}
	.Blue{fill:#1177D7;}
	.White{fill:#FFFFFF;}
	.st0{opacity:0.5;}
	.st1{opacity:0.75;}
</style>
<g id="GroupTooltips">
	<rect x="22" y="10" class="Green" width="6" height="12"/>
	<rect x="4" y="24" class="Red" width="16" height="4"/>
	<rect x="22" y="24" class="Yellow" width="6" height="4"/>
	<path class="Black" d="M31,6h-9v2h8v22H2V12V8V6H1C0.5,6,0,6.5,0,7v24c0,0.5,0.5,1,1,1h30c0.5,0,1-0.5,1-1V7C32,6.5,31.5,6,31,6z"
		/>
	<path class="Blue" d="M20,12v10H4V12h5.2l2.8,2.8l2.8-2.8H20z M20,0v10h-6l-2,2l-2-2H4V0H20z M18,2H6v6h4.8L12,9.2L13.2,8H18V2z"/>
</g>
</svg>
