<?xml version="1.0" encoding="utf-8"?>
<!-- Generator: Adobe Illustrator 21.1.0, SVG Export Plug-In . SVG Version: 6.00 Build 0)  -->
<svg version="1.1" id="Layer_1" xmlns="http://www.w3.org/2000/svg" xmlns:xlink="http://www.w3.org/1999/xlink" x="0px" y="0px"
	 viewBox="0 0 32 32" style="enable-background:new 0 0 32 32;" xml:space="preserve">
<style type="text/css">
	.Green{fill:#039C23;}
	.Black{fill:#727272;}
	.Red{fill:#D11C1C;}
	.Yellow{fill:#FFB115;}
	.Blue{fill:#1177D7;}
	.White{fill:#FFFFFF;}
	.st0{opacity:0.5;}
	.st1{opacity:0.75;}
</style>
<g id="GroupLabels">
	<rect x="4" y="10" class="Blue" width="16" height="12"/>
	<rect x="22" y="10" class="Green" width="6" height="12"/>
	<rect x="4" y="24" class="Red" width="16" height="4"/>
	<rect x="22" y="24" class="Yellow" width="6" height="4"/>
	<path class="Black" d="M16,8H4V4h12V8z M32,1v30c0,0.5-0.5,1-1,1H1c-0.5,0-1-0.5-1-1V1c0-0.5,0.5-1,1-1h30C31.5,0,32,0.5,32,1z
		 M30,2H2v28h28V2z"/>
</g>
</svg>
