<?xml version="1.0" encoding="utf-8"?>
<!-- Generator: Adobe Illustrator 21.1.0, SVG Export Plug-In . SVG Version: 6.00 Build 0)  -->
<svg version="1.1" id="Layer_1" xmlns="http://www.w3.org/2000/svg" xmlns:xlink="http://www.w3.org/1999/xlink" x="0px" y="0px"
	 viewBox="0 0 32 32" style="enable-background:new 0 0 32 32;" xml:space="preserve">
<style type="text/css">
	.Green{fill:#039C23;}
	.Black{fill:#727272;}
	.Red{fill:#D11C1C;}
	.Yellow{fill:#FFB115;}
	.Blue{fill:#1177D7;}
	.White{fill:#FFFFFF;}
	.st0{opacity:0.5;}
	.st1{opacity:0.75;}
</style>
<g id="ImageLoad">
	<path class="Yellow" d="M27.3,18H7.6L2,28h19.8c0.5,0,1.1-0.2,1.3-0.6l4.9-8.9C28.1,18.2,27.8,18,27.3,18z"/>
	<g class="st1">
		<path class="Yellow" d="M21,12h-2.2c-0.4,0.5-0.7,1-0.8,1.5c-0.2,0.9-1,1.6-2,1.6c0,0,0,0,0,0c-1,0-1.8-0.7-1.9-1.7
			C14,12.9,14,12.4,14,12h-4V9c0-0.6-0.4-1-1-1H1C0.4,8,0,8.5,0,9v18c0,0.2,0,0.3,0.1,0.4c0,0,0.1-0.1,0.1-0.2l5.5-10
			C6,16.5,6.7,16,7.5,16H22v-3C22,12.5,21.5,12,21,12z"/>
	</g>
	<path class="Blue" d="M30,6l-6-6v4c-4.4,0-8,3.6-8,8c0,0.4,0,0.8,0.1,1.1C16.6,10.2,20,8,24,8v4L30,6z"/>
</g>
</svg>
