<?xml version="1.0" encoding="utf-8"?>
<!-- Generator: Adobe Illustrator 21.1.0, SVG Export Plug-In . SVG Version: 6.00 Build 0)  -->
<svg version="1.1" id="Layer_1" xmlns="http://www.w3.org/2000/svg" xmlns:xlink="http://www.w3.org/1999/xlink" x="0px" y="0px"
	 viewBox="0 0 32 32" style="enable-background:new 0 0 32 32;" xml:space="preserve">
<style type="text/css">
	.Green{fill:#039C23;}
	.Black{fill:#727272;}
	.Red{fill:#D11C1C;}
	.Yellow{fill:#FFB115;}
	.Blue{fill:#1177D7;}
	.White{fill:#FFFFFF;}
	.st0{opacity:0.5;}
	.st1{opacity:0.75;}
</style>
<g id="ImageImport">
	<path class="Black" d="M24,26H2V8h14.8c0.3-0.7,0.7-1.4,1.2-2H1C0.5,6,0,6.5,0,7v20c0,0.5,0.5,1,1,1h24c0.5,0,1-0.5,1-1V14h-2V26z"
		/>
	<path class="Blue" d="M32,6l-6-6v4c-4.4,0-8,3.6-8,8c0,0.4,0,0.8,0.1,1.1C18.6,10.2,22,8,26,8v4L32,6z"/>
	<polygon class="Green" points="18,24 8,14 4,18 4,24 	"/>
	<g class="st0">
		<polygon class="Green" points="22,22 18,18 16,20 20,24 22,24 		"/>
	</g>
</g>
</svg>
