<?xml version="1.0" encoding="utf-8"?>
<!-- Generator: Adobe Illustrator 21.1.0, SVG Export Plug-In . SVG Version: 6.00 Build 0)  -->
<svg version="1.1" id="Layer_1" xmlns="http://www.w3.org/2000/svg" xmlns:xlink="http://www.w3.org/1999/xlink" x="0px" y="0px"
	 viewBox="0 0 32 32" style="enable-background:new 0 0 32 32;" xml:space="preserve">
<style type="text/css">
	.Green{fill:#039C23;}
	.Black{fill:#727272;}
	.Red{fill:#D11C1C;}
	.Yellow{fill:#FFB115;}
	.Blue{fill:#1177D7;}
	.White{fill:#FFFFFF;}
	.st0{opacity:0.5;}
	.st1{opacity:0.75;}
</style>
<g id="ImportMap">
	<path class="Blue" d="M21,20.1c0.3,0,0.7-0.2,1-0.2V28H4V8h2.1c0.3,0.8,1.4,1.1,1.8,2c0.1,0.2-0.1,0.5,0,0.7
		c0.2,0.4,0.8,0.3,1.2,0.4c0.5,0.2,1.1,0.3,1.2,0.9c0.1,0.5-0.3,1.1,0,1.7c1.1,1.8,4,0.9,5,2.7c0.6,1.1,0.6,2.4,0.8,3.6
		c0.2,0.8,1.9,2.1,3,1.9c1.3-0.4,0-2.1,1.2-2.1C20.5,19.8,20.8,20,21,20.1z"/>
	<path class="Black" d="M24,30H2V6h16c0.6-0.8,1.2-1.4,2-2H1C0.5,4,0,4.5,0,5v26c0,0.5,0.5,1,1,1h24c0.5,0,1-0.5,1-1V14h-2V30z"/>
	<path class="Green" d="M32,6l-6-6v4c-4.4,0-8,3.6-8,8c0,0.4,0,0.8,0.1,1.1C18.6,10.2,22,8,26,8v4L32,6z"/>
</g>
</svg>
