<?xml version="1.0" encoding="utf-8"?>
<!-- Generator: Adobe Illustrator 21.1.0, SVG Export Plug-In . SVG Version: 6.00 Build 0)  -->
<svg version="1.1" id="Layer_1" xmlns="http://www.w3.org/2000/svg" xmlns:xlink="http://www.w3.org/1999/xlink" x="0px" y="0px"
	 viewBox="0 0 32 32" style="enable-background:new 0 0 32 32;" xml:space="preserve">
<style type="text/css">
	.Yellow{fill:#FFB115;}
	.Red{fill:#D11C1C;}
	.Black{fill:#727272;}
	.Blue{fill:#1177D7;}
	.White{fill:#FFFFFF;}
	.Green{fill:#039C23;}
	.st0{opacity:0.75;}
	.st1{opacity:0.5;}
	.st2{opacity:0.25;}
	.st3{fill:#FFB115;}
</style>
<g>
</g>
<g id="InitialState">
	<path class="Black" d="M16,26c0.2,0.7,0.5,1.4,0.8,2H3c-0.6,0-1-0.4-1-1V12h2v14H16z M26,12v4c0.7,0.2,1.4,0.5,2,0.8V12H26z"/>
	<path class="Blue" d="M32,25v-2l-2.2-0.4c-0.2-0.6-0.4-1.3-0.8-1.8l1.3-1.8l-1.4-1.4l-1.8,1.3c-0.5-0.3-1.2-0.6-1.8-0.7L25,16h-2
		l-0.4,2.2c-0.6,0.2-1.3,0.4-1.8,0.7L19,17.6L17.6,19l1.3,1.8c-0.3,0.5-0.6,1.2-0.8,1.8L16,23v2l2.2,0.4c0.2,0.6,0.4,1.3,0.8,1.8
		L17.7,29l1.4,1.4l1.8-1.3c0.5,0.3,1.2,0.6,1.8,0.7L23,32h2l0.4-2.2c0.6-0.2,1.3-0.4,1.8-0.7l1.8,1.3l1.4-1.4l-1.3-1.8
		c0.3-0.5,0.6-1.2,0.8-1.8L32,25z M24,26c-1.1,0-2-0.9-2-2s0.9-2,2-2s2,0.9,2,2S25.1,26,24,26z M27,2H3C2.5,2,2,2.5,2,3v9h26V3
		C28,2.5,27.5,2,27,2z M9,9L6,6h6L9,9z"/>
</g>
</svg>
