<?xml version="1.0" encoding="utf-8"?>
<!-- Generator: Adobe Illustrator 21.1.0, SVG Export Plug-In . SVG Version: 6.00 Build 0)  -->
<svg version="1.1" id="Layer_1" xmlns="http://www.w3.org/2000/svg" xmlns:xlink="http://www.w3.org/1999/xlink" x="0px" y="0px"
	 viewBox="0 0 32 32" style="enable-background:new 0 0 32 32;" xml:space="preserve">
<style type="text/css">
	.Green{fill:#039C23;}
	.Black{fill:#727272;}
	.Red{fill:#D11C1C;}
	.Yellow{fill:#FFB115;}
	.Blue{fill:#1177D7;}
	.White{fill:#FFFFFF;}
	.st0{opacity:0.5;}
	.st1{opacity:0.75;}
</style>
<g id="InsertListBox">
	<path class="Black" d="M27,30H3c-0.5,0-1-0.5-1-1V1c0-0.6,0.5-1,1-1h24c0.5,0,1,0.4,1,1v28C28,29.5,27.5,30,27,30z M26,2H4v26h22V2
		z M22,6H8v2h14V6z M22,10H8v2h14V10z M22,14H8v2h14V14z M22,18H8v2h14V18z M22,22H8v2h14V22z"/>
</g>
</svg>
