<?xml version="1.0" encoding="utf-8"?>
<!-- Generator: Adobe Illustrator 21.1.0, SVG Export Plug-In . SVG Version: 6.00 Build 0)  -->
<svg version="1.1" id="Layer_1" xmlns="http://www.w3.org/2000/svg" xmlns:xlink="http://www.w3.org/1999/xlink" x="0px" y="0px"
	 viewBox="0 0 32 32" style="enable-background:new 0 0 32 32;" xml:space="preserve">
<style type="text/css">
	.Green{fill:#039C23;}
	.Black{fill:#727272;}
	.Red{fill:#D11C1C;}
	.Yellow{fill:#FFB115;}
	.Blue{fill:#1177D7;}
	.White{fill:#FFFFFF;}
	.st0{opacity:0.5;}
	.st1{opacity:0.75;}
</style>
<g id="InsertTreeView">
	<path class="Yellow" d="M13,8H5C4.4,8,4,7.6,4,7V3c0-0.5,0.4-1,1-1h8c0.6,0,1,0.5,1,1v4C14,7.6,13.6,8,13,8z M26,17v-4
		c0-0.6-0.5-1-1-1h-8c-0.5,0-1,0.4-1,1v4c0,0.5,0.5,1,1,1h8C25.5,18,26,17.5,26,17z M26,27v-4c0-0.5-0.5-1-1-1h-8c-0.5,0-1,0.5-1,1
		v4c0,0.5,0.5,1,1,1h8C25.5,28,26,27.5,26,27z"/>
	<polygon class="Black" points="14,16 14,14 10,14 10,10 8,10 8,26 14,26 14,24 10,24 10,16 	"/>
</g>
</svg>
