<?xml version="1.0" encoding="utf-8"?>
<!-- Generator: Adobe Illustrator 21.1.0, SVG Export Plug-In . SVG Version: 6.00 Build 0)  -->
<svg version="1.1" id="Layer_1" xmlns="http://www.w3.org/2000/svg" xmlns:xlink="http://www.w3.org/1999/xlink" x="0px" y="0px"
	 viewBox="0 0 32 32" style="enable-background:new 0 0 32 32;" xml:space="preserve">
<style type="text/css">
	.Green{fill:#039C23;}
	.Black{fill:#727272;}
	.Red{fill:#D11C1C;}
	.Yellow{fill:#FFB115;}
	.Blue{fill:#1177D7;}
	.White{fill:#FFFFFF;}
	.st0{opacity:0.5;}
	.st1{opacity:0.75;}
</style>
<g id="InsertField">
	<path class="Black" d="M26,24H14v-2h12V24z M29,4h-5v2h4v22H12v-5.2l-2,1.3V29c0,0.5,0.5,1,1,1h18c0.5,0,1-0.5,1-1V5
		C30,4.5,29.5,4,29,4z M26,14h-2H14v2h12V14z"/>
	<path class="Green" d="M8,18.1H6v-4H4v5c0,0.6,0.4,1,1,1h3v3l6-4l-6-4V18.1z"/>
	<path class="Yellow" d="M22,11V1c0-0.5-0.5-1-1-1H1C0.5,0,0,0.5,0,1v10c0,0.5,0.5,1,1,1h20C21.5,12,22,11.5,22,11z M16,18h10v2H16
		V18z"/>
</g>
</svg>
