<?xml version="1.0" encoding="utf-8"?>
<!-- Generator: Adobe Illustrator 21.1.0, SVG Export Plug-In . SVG Version: 6.00 Build 0)  -->
<svg version="1.1" id="Layer_1" xmlns="http://www.w3.org/2000/svg" xmlns:xlink="http://www.w3.org/1999/xlink" x="0px" y="0px"
	 viewBox="0 0 32 32" style="enable-background:new 0 0 32 32;" xml:space="preserve">
<style type="text/css">
	.Green{fill:#039C23;}
	.Black{fill:#727272;}
	.Red{fill:#D11C1C;}
	.Yellow{fill:#FFB115;}
	.Blue{fill:#1177D7;}
	.White{fill:#FFFFFF;}
	.st0{opacity:0.5;}
	.st1{opacity:0.75;}
</style>
<g id="InsertPieMap">
	<path class="Blue" d="M22.8,9.2c1.9,1.3,3.2,3.4,3.2,5.8c0,3.5-2.6,6.4-6,6.9v7.3l-8-8v-9.3c-0.3,0-0.7,0.1-1,0.1
		c-1.9,0-3.7-0.8-4.9-2.1L4,12v20l8-8l8,8l8-8V4L22.8,9.2z"/>
	<path class="Red" d="M18,19.9c-2.3-0.5-4-2.5-4-4.9s1.7-4.4,4-4.9V19.9z M10,4.6l3.8-3.8C13,0.3,12,0,11,0C8.2,0,6,2.2,6,5
		c0,2.4,1.7,4.4,4,4.9V4.6z"/>
	<path class="Yellow" d="M24,15c0,2.4-1.7,4.4-4,4.9v-9.8C22.3,10.6,24,12.6,24,15z M12,5.4v4.5c2.3-0.5,4-2.5,4-4.9
		c0-1-0.3-2-0.8-2.8L12,5.4z"/>
</g>
</svg>
