<?xml version="1.0" encoding="utf-8"?>
<!-- Generator: Adobe Illustrator 21.1.0, SVG Export Plug-In . SVG Version: 6.00 Build 0)  -->
<svg version="1.1" id="Layer_1" xmlns="http://www.w3.org/2000/svg" xmlns:xlink="http://www.w3.org/1999/xlink" x="0px" y="0px"
	 viewBox="0 0 32 32" style="enable-background:new 0 0 32 32;" xml:space="preserve">
<style type="text/css">
	.Green{fill:#039C23;}
	.Black{fill:#727272;}
	.Red{fill:#D11C1C;}
	.Yellow{fill:#FFB115;}
	.Blue{fill:#1177D7;}
	.White{fill:#FFFFFF;}
	.st0{opacity:0.5;}
	.st1{opacity:0.75;}
</style>
<g id="LoadMap">
	<path class="Yellow" d="M29.3,18H9.6L4,28h19.8c0.5,0,1.1-0.2,1.3-0.6l4.9-8.9C30.1,18.2,29.8,18,29.3,18z"/>
	<g class="st1">
		<path class="Yellow" d="M23,12h-2.2c-0.4,0.5-0.7,1-0.8,1.5c-0.2,0.9-1,1.6-2,1.6c0,0,0,0,0,0c-1,0-1.8-0.7-1.9-1.7
			C16,12.9,16,12.4,16,12h-4V9c0-0.6-0.4-1-1-1H3C2.4,8,2,8.5,2,9v18c0,0.2,0,0.3,0.1,0.4c0,0,0.1-0.1,0.1-0.2l5.5-10
			C8,16.5,8.7,16,9.5,16H24v-3C24,12.5,23.5,12,23,12z"/>
	</g>
	<path class="Green" d="M32,6l-6-6v4c-4.4,0-8,3.6-8,8c0,0.4,0,0.8,0.1,1.1C18.6,10.2,22,8,26,8v4L32,6z"/>
</g>
</svg>
