<?xml version="1.0" encoding="utf-8"?>
<!-- Generator: Adobe Illustrator 21.1.0, SVG Export Plug-In . SVG Version: 6.00 Build 0)  -->
<svg version="1.1" id="Layer_1" xmlns="http://www.w3.org/2000/svg" xmlns:xlink="http://www.w3.org/1999/xlink" x="0px" y="0px"
	 viewBox="0 0 32 32" style="enable-background:new 0 0 32 32;" xml:space="preserve">
<style type="text/css">
	.Yellow{fill:#FFB115;}
	.Red{fill:#D11C1C;}
	.Black{fill:#727272;}
	.Blue{fill:#1177D7;}
	.White{fill:#FFFFFF;}
	.Green{fill:#039C23;}
	.st0{opacity:0.75;}
	.st1{opacity:0.5;}
	.st2{opacity:0.25;}
	.st3{fill:#FFB115;}
</style>
<g>
</g>
<g id="LocalColors">
	<path class="Black" d="M31,10H11c-0.5,0-1,0.5-1,1v20c0,0.5,0.5,1,1,1h20c0.5,0,1-0.5,1-1V11C32,10.5,31.5,10,31,10z M30,30H12V12
		h18V30z M10,22H1c-0.5,0-1-0.5-1-1V1c0-0.5,0.5-1,1-1h20c0.5,0,1,0.5,1,1v9h-2V2H2v18h8V22z"/>
	<path class="Yellow" d="M8,18H4v-6h4V18z M28,20h-6v-6h6V20z M20,28h-6v-6h6V28z M9,8h1V4H4v6h4V9C8,8.4,8.4,8,9,8z"/>
	<path class="Red" d="M18,8h-6V4h6V8z"/>
	<path class="Green" d="M20,20h-6v-6h6V20z M28,20h-6v-6h6V20z"/>
	<path class="Blue" d="M28,28h-6v-6h6V28z"/>
	<g class="st1">
		<path class="Green" d="M20,28h-6v-6h6V28z"/>
		<path class="Blue" d="M28,20h-6v-6h6V20z"/>
		<path class="Red" d="M8,18H4v-6h4V18z"/>
	</g>
</g>
</svg>
