<?xml version="1.0" encoding="utf-8"?>
<!-- Generator: Adobe Illustrator 21.1.0, SVG Export Plug-In . SVG Version: 6.00 Build 0)  -->
<svg version="1.1" id="Layer_1" xmlns="http://www.w3.org/2000/svg" xmlns:xlink="http://www.w3.org/1999/xlink" x="0px" y="0px"
	 viewBox="0 0 32 32" style="enable-background:new 0 0 32 32;" xml:space="preserve">
<style type="text/css">
	.Green{fill:#039C23;}
	.Black{fill:#727272;}
	.Red{fill:#D11C1C;}
	.Yellow{fill:#FFB115;}
	.Blue{fill:#1177D7;}
	.White{fill:#FFFFFF;}
	.st0{opacity:0.5;}
	.st1{opacity:0.75;}
</style>
<g id="LockNavigation">
	<path class="Black" d="M28,14c0,0.1,0,0.2,0,0.3c-0.6-0.2-1.3-0.3-2-0.3c0-6.6-5.4-12-12-12S2,7.4,2,14c0,6.6,5.4,12,12,12
		c1.4,0,2.7-0.3,4-0.7v2.1c-1.3,0.4-2.6,0.6-4,0.6C6.3,28,0,21.7,0,14S6.3,0,14,0S28,6.3,28,14z M18,8l-4-4l-4,4H18z M10,20l4,4l4-4
		H10z M20,18l4-4l-4-4V18z M8,10l-4,4l4,4V10z"/>
	<path class="Yellow" d="M31,22h-1v-2c0-2.2-1.8-4-4-4s-4,1.8-4,4v2h-1c-0.5,0-1,0.5-1,1v8c0,0.5,0.5,1,1,1h10c0.5,0,1-0.5,1-1v-8
		C32,22.5,31.5,22,31,22z M24,22v-2c0-1.1,0.9-2,2-2s2,0.9,2,2v2H24z"/>
</g>
</svg>
