<?xml version="1.0" encoding="utf-8"?>
<!-- Generator: Adobe Illustrator 21.1.0, SVG Export Plug-In . SVG Version: 6.00 Build 0)  -->
<svg version="1.1" id="Layer_1" xmlns="http://www.w3.org/2000/svg" xmlns:xlink="http://www.w3.org/1999/xlink" x="0px" y="0px"
	 viewBox="0 0 32 32" style="enable-background:new 0 0 32 32;" xml:space="preserve">
<style type="text/css">
	.Yellow{fill:#FFB115;}
	.Red{fill:#D11C1C;}
	.Black{fill:#727272;}
	.Blue{fill:#1177D7;}
	.White{fill:#FFFFFF;}
	.Green{fill:#039C23;}
	.st0{opacity:0.75;}
	.st1{opacity:0.5;}
	.st2{opacity:0.25;}
	.st3{fill:#FFB115;}
</style>
<g>
</g>
<g id="Manual">
	<g class="st1">
		<path class="Black" d="M18,10h-8V4h8V10z M18,12h-8v6h8V12z M28,4h-8v6h8V4z M23,16c1.9,0,3.6,0.8,4.9,2H28v-6h-8v4.7
			C20.9,16.2,21.9,16,23,16z M16,23c0-1.1,0.2-2.1,0.7-3H10v6h6.7C16.2,25.1,16,24.1,16,23z"/>
	</g>
	<path class="Blue" d="M8,18H0v-6h8V18z M8,10H0V4h8V10z M8,20H0v6h8V20z M31.6,29.6l-4.2-4.2c0.4-0.7,0.6-1.5,0.6-2.4
		c0-2.8-2.2-5-5-5c-0.8,0-1.5,0.2-2.1,0.5l2.7,2.7c0.6,0.6,0.6,1.7,0,2.4s-1.7,0.6-2.4,0l-2.7-2.7C18.2,21.5,18,22.2,18,23
		c0,2.8,2.2,5,5,5c0.9,0,1.7-0.2,2.4-0.6l4.2,4.2c0.6,0.6,1.4,0.6,2,0l0,0C32.1,31,32.1,30.1,31.6,29.6z"/>
</g>
</svg>
