<?xml version="1.0" encoding="utf-8"?>
<!-- Generator: Adobe Illustrator 21.1.0, SVG Export Plug-In . SVG Version: 6.00 Build 0)  -->
<svg version="1.1" id="Layer_1" xmlns="http://www.w3.org/2000/svg" xmlns:xlink="http://www.w3.org/1999/xlink" x="0px" y="0px"
	 viewBox="0 0 32 32" style="enable-background:new 0 0 32 32;" xml:space="preserve">
<style type="text/css">
	.Yellow{fill:#FFB115;}
	.Red{fill:#D11C1C;}
	.Black{fill:#727272;}
	.Blue{fill:#1177D7;}
	.White{fill:#FFFFFF;}
	.Green{fill:#039C23;}
	.st0{opacity:0.75;}
	.st1{opacity:0.5;}
	.st2{opacity:0.25;}
	.st3{fill:#FFB115;}
</style>
<g>
</g>
<g id="RangeFilter">
	<path class="Black" d="M28,3v11h-2V4H2v12h12v2H1c-0.6,0-1-0.5-1-1V3c0-0.5,0.4-1,1-1h26C27.5,2,28,2.5,28,3z M4,10l4,4V6L4,10
		 M24,10l-4-4v8L24,10"/>
	<path class="Yellow" d="M16,16h16v2l-6,6v8h-4v-8l-6-6V16z M15,14h3V4h-8v12h4v-1C14,14.4,14.4,14,15,14z"/>
</g>
</svg>
