<?xml version="1.0" encoding="utf-8"?>
<!-- Generator: Adobe Illustrator 21.1.0, SVG Export Plug-In . SVG Version: 6.00 Build 0)  -->
<svg version="1.1" id="Layer_1" xmlns="http://www.w3.org/2000/svg" xmlns:xlink="http://www.w3.org/1999/xlink" x="0px" y="0px"
	 viewBox="0 0 32 32" style="enable-background:new 0 0 32 32;" xml:space="preserve">
<style type="text/css">
	.Yellow{fill:#FFB115;}
	.Red{fill:#D11C1C;}
	.Black{fill:#727272;}
	.Blue{fill:#1177D7;}
	.White{fill:#FFFFFF;}
	.Green{fill:#039C23;}
	.st0{opacity:0.75;}
	.st1{opacity:0.5;}
	.st2{opacity:0.25;}
	.st3{fill:#FFB115;}
</style>
<g>
</g>
<g id="Rename">
	<path class="Black" d="M21.6,10.3c0-0.7-0.3-1.3-0.9-1.7C20.1,8.2,19.1,8,17.9,8H14v9.9V18h4c1.2,0,2.2-0.2,2.9-0.8
		C21.7,16.6,22,16,22,15c0-0.6-0.2-1.2-0.7-1.6c-0.5-0.4-1.1-0.7-1.8-0.8c0.6-0.2,1.1-0.5,1.5-0.9C21.4,11.3,21.6,10.9,21.6,10.3z
		 M16.4,9.7h0.9c1.1,0,1.7,0.4,1.7,1.1c0,0.4-0.1,0.7-0.4,0.9C18.4,11.9,18,12,17.5,12h-1.1V9.7z M19,15.8c-0.3,0.2-0.8,0.4-1.3,0.4
		h-1.3v-2.6h1.3c0.5,0,0.9,0.1,1.3,0.3c0.3,0.2,0.5,0.6,0.5,0.9C19.5,15.3,19.4,15.6,19,15.8z M17.2,22H1c-0.5,0-1-0.5-1-1V5
		c0-0.5,0.5-1,1-1h24c0.5,0,1,0.5,1,1v8.2l-2,2V6H2v14h17.2L17.2,22z M4.1,18h2.2l0.6-2.3h3.2l0.6,2.3H13L9.8,8H7.4L4.1,18z
		 M8.4,10.7c0.1-0.3,0.1-0.6,0.1-0.9h0.1c0,0.3,0.1,0.6,0.1,0.9l1,3.3H7.4L8.4,10.7z"/>
	<path class="Blue" d="M29,21l-8,8l-4-4l8-8L29,21z M30,20l1.7-1.7c0.4-0.4,0.4-1,0-1.3L29,14.3c-0.4-0.4-1-0.4-1.3,0L26,16L30,20z
		 M16,26v4h4L16,26z"/>
</g>
</svg>
