<?xml version="1.0" encoding="utf-8"?>
<!-- Generator: Adobe Illustrator 21.1.0, SVG Export Plug-In . SVG Version: 6.00 Build 0)  -->
<svg version="1.1" id="Layer_1" xmlns="http://www.w3.org/2000/svg" xmlns:xlink="http://www.w3.org/1999/xlink" x="0px" y="0px"
	 viewBox="0 0 32 32" style="enable-background:new 0 0 32 32;" xml:space="preserve">
<style type="text/css">
	.Yellow{fill:#FFB115;}
	.Red{fill:#D11C1C;}
	.Black{fill:#727272;}
	.Blue{fill:#1177D7;}
	.White{fill:#FFFFFF;}
	.Green{fill:#039C23;}
	.st0{opacity:0.75;}
	.st1{opacity:0.5;}
	.st2{opacity:0.25;}
	.st3{fill:#FFB115;}
</style>
<g>
</g>
<g id="RenameQuery">
	<path class="Black" d="M6.1,14h2.2l0.6-2.3h3.2l0.6,2.3H15L11.8,4H9.4L6.1,14z M10.4,6.7c0.1-0.3,0.1-0.6,0.1-0.9h0.1
		c0,0.3,0.1,0.6,0.1,0.9l1,3.3H9.4L10.4,6.7z M21.5,8.6c0.6-0.2,1.1-0.5,1.5-0.9c0.4-0.4,0.6-0.9,0.6-1.4c0-0.7-0.3-1.3-0.9-1.7
		C22.1,4.2,21.1,4,19.9,4H16v9.9V14h4c1.2,0,2.2-0.2,2.9-0.8C23.7,12.6,24,12,24,11c0-0.6-0.2-1.2-0.7-1.6C22.9,9,22.3,8.7,21.5,8.6
		z M18.4,5.7h0.9c1.1,0,1.7,0.4,1.7,1.1c0,0.4-0.1,0.7-0.4,0.9C20.4,7.9,20,8,19.5,8h-1.1V5.7z M21,11.8c-0.3,0.2-0.8,0.4-1.3,0.4
		h-1.3V9.6h1.3c0.5,0,0.9,0.1,1.3,0.3c0.3,0.2,0.5,0.6,0.5,0.9C21.5,11.3,21.4,11.6,21,11.8z"/>
	<g class="st1">
		<path class="Black" d="M2,16h8v6H2V16z M20,19.2V16h-8v6h5.2L20,19.2z"/>
	</g>
	<path class="Blue" d="M29,21l-8,8l-4-4l8-8L29,21z M30,20l1.7-1.7c0.4-0.4,0.4-1,0-1.3L29,14.3c-0.4-0.4-1-0.4-1.3,0L26,16L30,20z
		 M16,26v4h4L16,26z"/>
</g>
</svg>
