<?xml version="1.0" encoding="utf-8"?>
<!-- Generator: Adobe Illustrator 21.1.0, SVG Export Plug-In . SVG Version: 6.00 Build 0)  -->
<svg version="1.1" id="Layer_1" xmlns="http://www.w3.org/2000/svg" xmlns:xlink="http://www.w3.org/1999/xlink" x="0px" y="0px"
	 viewBox="0 0 32 32" style="enable-background:new 0 0 32 32;" xml:space="preserve">
<style type="text/css">
	.Yellow{fill:#FFB115;}
	.Red{fill:#D11C1C;}
	.Black{fill:#727272;}
	.Blue{fill:#1177D7;}
	.White{fill:#FFFFFF;}
	.Green{fill:#039C23;}
	.st0{opacity:0.75;}
	.st1{opacity:0.5;}
	.st2{opacity:0.25;}
	.st3{fill:#FFB115;}
</style>
<g id="ScatterChart">
	<path class="Black" d="M31,28H1c-0.6,0-1-0.5-1-1V3c0-0.5,0.4-1,1-1h30c0.5,0,1,0.5,1,1v24C32,27.5,31.5,28,31,28z"/>
	<rect x="2" y="4" class="White" width="28" height="22"/>
	<g class="st2">
		<path class="Black" d="M30,10V8h-8V4h-2v4h-8V4h-2v4H2v2h8v4H2v2h8v4H2v2h8v4h2v-4h8v4h2v-4h8v-2h-8v-4h8v-2h-8v-4H30z M20,20h-8
			v-4h8V20z M20,14h-8v-4h8V14z"/>
	</g>
	<circle class="Red" cx="9" cy="19" r="3"/>
	<circle class="Yellow" cx="15" cy="9" r="3"/>
	<circle class="Green" cx="23" cy="15" r="3"/>
</g>
</svg>
