<?xml version="1.0" encoding="utf-8"?>
<!-- Generator: Adobe Illustrator 21.1.0, SVG Export Plug-In . SVG Version: 6.00 Build 0)  -->
<svg version="1.1" id="Layer_1" xmlns="http://www.w3.org/2000/svg" xmlns:xlink="http://www.w3.org/1999/xlink" x="0px" y="0px"
	 viewBox="0 0 32 32" style="enable-background:new 0 0 32 32;" xml:space="preserve">
<style type="text/css">
	.Yellow{fill:#FFB115;}
	.Red{fill:#D11C1C;}
	.Black{fill:#727272;}
	.Blue{fill:#1177D7;}
	.White{fill:#FFFFFF;}
	.Green{fill:#039C23;}
	.st0{opacity:0.75;}
	.st1{opacity:0.5;}
	.st2{opacity:0.25;}
	.st3{fill:#FFB115;}
</style>
<g>
</g>
<g id="ServerMode">
	<path class="Black" d="M27,20H5c-0.5,0-1,0.5-1,1v4c0,0.5,0.5,1,1,1h22c0.5,0,1-0.5,1-1v-4C28,20.5,27.5,20,27,20z M8,24H6v-2h2V24
		z M27,12H5c-0.5,0-1,0.5-1,1v4c0,0.5,0.5,1,1,1h22c0.5,0,1-0.5,1-1v-4C28,12.5,27.5,12,27,12z M8,16H6v-2h2V16z M27,4H5
		C4.5,4,4,4.5,4,5v4c0,0.5,0.5,1,1,1h22c0.5,0,1-0.5,1-1V5C28,4.5,27.5,4,27,4z M8,8H6V6h2V8z"/>
</g>
</svg>
