<?xml version="1.0" encoding="utf-8"?>
<!-- Generator: Adobe Illustrator 21.1.0, SVG Export Plug-In . SVG Version: 6.00 Build 0)  -->
<svg version="1.1" id="Layer_1" xmlns="http://www.w3.org/2000/svg" xmlns:xlink="http://www.w3.org/1999/xlink" x="0px" y="0px"
	 viewBox="0 0 32 32" style="enable-background:new 0 0 32 32;" xml:space="preserve">
<style type="text/css">
	.Green{fill:#039C23;}
	.Black{fill:#727272;}
	.Red{fill:#D11C1C;}
	.Yellow{fill:#FFB115;}
	.Blue{fill:#1177D7;}
	.White{fill:#FFFFFF;}
	.st0{opacity:0.5;}
	.st1{opacity:0.75;}
</style>
<g id="ShapeLabels">
	<path class="Green" d="M29.6,11.6c-1-1-2.1,1.2-2.7,0.1c0-0.1,0-0.5,0-0.6c-0.1-0.3-0.6-0.6-0.8-0.8c-0.4-0.4-0.5-0.9-0.8-1.4
		c-0.2-0.3-0.4-0.4-0.5-0.7c-0.1-0.3,0-0.6-0.1-0.9c-0.2-0.5-0.5-1.1-0.8-1.6c-0.3-0.8-0.8-2.4-1.7-2.6C22,2.8,21.6,3,21.4,3
		c-1.1,0-1.5-0.4-1.8-0.5c-0.2-0.1-0.6-0.4-1-0.3c-0.6,0.2-0.2,0.6-0.5,0.9c-0.3,0.3-1,0.2-1.3,0c-0.3-0.2-0.5-0.5-0.8-0.6
		c-0.2-0.1-0.5-0.1-0.7-0.2C14.3,1.6,14.8,0,12.8,0c-0.5,0.1-4.6,1-5.2,0.8C6.6,0.5,6.1,1.3,6,1.5C5.8,1.7,5.5,1.8,5.3,2.1
		C4.7,2.7,5.1,3.3,4.6,3.9C4.2,4.5,3.6,4.8,3.1,5.5C2.9,5.9,2.3,6.6,2.3,7.1C2.2,7.4,2.3,7.7,2.4,8C2.5,8.4,2,11.3,2,11.4
		c0,0.7,0.5,1.1,0.9,1.6C3.4,13.6,3.4,15.4,4,16c0.3,0.3,0.8,2.3,4.1,3.8c2,0.9,5.9-1.6,7.4,0.5c0.3,0.4,0.6,0.6,0.5,1.5
		c-0.1,1-1.3,1.9-1,3c0.3,0.8,1,1.4,1.2,2.4c0.1,0.4,0,0.9,0.2,1.4c0.2,0.5,0.5,0.8,0.7,1.2c0.2,0.4,0.3,0.9,0.4,1.4
		c0,0.3,0.7,1.9,4.1-0.2c1-0.6,0.7-2,1.4-3c0.2-0.2,0.6-0.2,0.7-0.4c0.3-0.4-0.1-0.8-0.1-1.3c-0.1-0.5-0.2-1.1,0.3-1.5
		c0.4-0.3,1.3-0.4,1.7-0.9c1.3-1.9-1.1-4,0.3-5.8c0.8-1.1,2.1-1.9,3.2-2.7C29.9,14.6,30.4,12.4,29.6,11.6z M16.7,16l-0.6-2h-3.2
		l-0.6,2H10l3.3-10h2.4L19,16H16.7z M14.6,8.7l1,3.3h-2.3l1-3.3c0.1-0.3,0.1-0.6,0.1-0.9h0.1C14.5,8.1,14.6,8.4,14.6,8.7z"/>
</g>
</svg>
