<?xml version="1.0" encoding="utf-8"?>
<!-- Generator: Adobe Illustrator 21.1.0, SVG Export Plug-In . SVG Version: 6.00 Build 0)  -->
<svg version="1.1" id="ShowLegendOutsideVerticalTopLeft"
	 xmlns="http://www.w3.org/2000/svg" xmlns:xlink="http://www.w3.org/1999/xlink" x="0px" y="0px" viewBox="0 0 32 32"
	 style="enable-background:new 0 0 32 32;" xml:space="preserve">
<style type="text/css">
	.Blue{fill:#1177D7;}
	.Black{fill:#727272;}
	.st0{opacity:0.75;}
	.st1{opacity:0.5;}
</style>
<path class="Black" d="M31,0H1C0.5,0,0,0.5,0,1v30c0,0.5,0.5,1,1,1h30c0.5,0,1-0.5,1-1V1C32,0.5,31.5,0,31,0z M30,30H2V2h28V30z"/>
<g class="st0">
	<polygon class="Black" points="14,24 14,6 12,6 12,26 28,26 28,24 	"/>
</g>
<g class="st1">
	<polygon class="Black" points="14,6 14,8 26,8 26,24 28,24 28,6 	"/>
</g>
<rect x="4" y="6" class="Blue" width="6" height="12"/>
</svg>
