<?xml version="1.0" encoding="utf-8"?>
<!-- Generator: Adobe Illustrator 21.1.0, SVG Export Plug-In . SVG Version: 6.00 Build 0)  -->
<svg version="1.1" id="Layer_1" xmlns="http://www.w3.org/2000/svg" xmlns:xlink="http://www.w3.org/1999/xlink" x="0px" y="0px"
	 viewBox="0 0 32 32" style="enable-background:new 0 0 32 32;" xml:space="preserve">
<style type="text/css">
	.Green{fill:#039C23;}
	.Black{fill:#727272;}
	.Red{fill:#D11C1C;}
	.Yellow{fill:#FFB115;}
	.Blue{fill:#1177D7;}
	.White{fill:#FFFFFF;}
	.st0{opacity:0.5;}
	.st1{opacity:0.75;}
</style>
<g id="ShowAllValue">
	<circle class="Green" cx="8" cy="8" r="2"/>
	<path class="Black" d="M8,2C4.7,2,2,4.7,2,8s2.7,6,6,6s6-2.7,6-6S11.3,2,8,2z M8,12c-2.2,0-4-1.8-4-4c0-2.2,1.8-4,4-4s4,1.8,4,4
		C12,10.2,10.2,12,8,12z M8,16c-3.3,0-6,2.7-6,6s2.7,6,6,6s6-2.7,6-6S11.3,16,8,16z M8,26c-2.2,0-4-1.8-4-4c0-2.2,1.8-4,4-4
		s4,1.8,4,4C12,24.2,10.2,26,8,26z M26,10H16V6h10V10z"/>
	<path class="Blue" d="M32,25v-2l-2.2-0.4c-0.2-0.6-0.4-1.3-0.8-1.8l1.3-1.8l-1.4-1.4l-1.8,1.3c-0.5-0.3-1.2-0.6-1.8-0.7L25,16h-2
		l-0.4,2.2c-0.6,0.2-1.3,0.4-1.8,0.7L19,17.6L17.6,19l1.3,1.8c-0.3,0.5-0.6,1.2-0.8,1.8L16,23v2l2.2,0.4c0.2,0.6,0.4,1.3,0.8,1.8
		L17.7,29l1.4,1.4l1.8-1.3c0.5,0.3,1.2,0.6,1.8,0.7L23,32h2l0.4-2.2c0.6-0.2,1.3-0.4,1.8-0.7l1.8,1.3l1.4-1.4l-1.3-1.8
		c0.3-0.5,0.6-1.2,0.8-1.8L32,25z M24,26c-1.1,0-2-0.9-2-2c0-1.1,0.9-2,2-2s2,0.9,2,2C26,25.1,25.1,26,24,26z"/>
</g>
</svg>
