<?xml version="1.0" encoding="utf-8"?>
<!-- Generator: Adobe Illustrator 21.1.0, SVG Export Plug-In . SVG Version: 6.00 Build 0)  -->
<svg version="1.1" id="Layer_1" xmlns="http://www.w3.org/2000/svg" xmlns:xlink="http://www.w3.org/1999/xlink" x="0px" y="0px"
	 viewBox="0 0 32 32" style="enable-background:new 0 0 32 32;" xml:space="preserve">
<style type="text/css">
	.Green{fill:#039C23;}
	.Black{fill:#727272;}
	.Red{fill:#D11C1C;}
	.Yellow{fill:#FFB115;}
	.Blue{fill:#1177D7;}
	.White{fill:#FFFFFF;}
	.st0{opacity:0.5;}
	.st1{opacity:0.75;}
</style>
<g id="ShowWeightedLegendNone">
	<g class="st0">
		<path class="Blue" d="M6,6c0-1.1,0.9-2,2-2s2,0.9,2,2c0,1.1-0.9,2-2,2S6,7.1,6,6z M8,16c0.6,0,1.2-0.2,1.7-0.5l0.7-0.7
			c0.2-0.3,0.4-0.6,0.4-1l-2.3-2.3C8.2,11,8,10.5,8,10c-1.7,0-3,1.3-3,3S6.3,16,8,16z M8.6,19.4C8.2,19,8,18.5,8,18
			c-2.2,0-4,1.8-4,4c0,2.2,1.8,4,4,4s4-1.8,4-4c-0.5,0-1-0.2-1.4-0.6L8.6,19.4z"/>
		<path class="Black" d="M21.4,6.6C21,6.2,20.5,6,20,6h4v2h-1.2L21.4,6.6z M24,22H14v2h10V22z M14.8,8h2.3l1.4-1.4
			C19,6.2,19.5,6,20,6h-6v1.2L14.8,8z M24,14h-3.2l2,2H24V14z M2,28V0H0v30h30v-2H2z"/>
		<g class="st0">
			<polygon class="Black" points="28,0 2,0 2,2 28,2 28,28 30,28 30,2 30,0 			"/>
		</g>
	</g>
	<polygon class="Red" points="22,10 20,8 16,12 12,8 10,10 14,14 10,18 12,20 16,16 20,20 22,18 18,14 	"/>
</g>
</svg>
