<?xml version="1.0" encoding="utf-8"?>
<!-- Generator: Adobe Illustrator 21.1.0, SVG Export Plug-In . SVG Version: 6.00 Build 0)  -->
<svg version="1.1" id="Layer_1" xmlns="http://www.w3.org/2000/svg" xmlns:xlink="http://www.w3.org/1999/xlink" x="0px" y="0px"
	 viewBox="0 0 32 32" style="enable-background:new 0 0 32 32;" xml:space="preserve">
<style type="text/css">
	.Green{fill:#039C23;}
	.Black{fill:#727272;}
	.Red{fill:#D11C1C;}
	.Yellow{fill:#FFB115;}
	.Blue{fill:#1177D7;}
	.White{fill:#FFFFFF;}
	.st0{opacity:0.5;}
	.st1{opacity:0.75;}
</style>
<g id="ShowWeightedLegendNested">
	<g class="st0">
		<polygon class="Black" points="30,0 2,0 2,2 30,2 30,28 32,28 32,2 32,0 		"/>
	</g>
	<path class="Black" d="M2,28V0H0v30h32v-2H2z M28,12h-4v-2h4V12z M28,18h-4v2h4V18z"/>
	<path class="Blue" d="M6.3,21C4.9,19.4,4,17.3,4,15c0-5,4-9,9-9s9,4,9,9c0,2.3-0.9,4.4-2.3,6c0.2-0.6,0.3-1.3,0.3-2
		c0-3.9-3.1-7-7-7s-7,3.1-7,7C6,19.7,6.1,20.4,6.3,21z M13,14c-2.8,0-5,2.2-5,5s2.2,5,5,5s5-2.2,5-5S15.8,14,13,14z"/>
</g>
</svg>
