<?xml version="1.0" encoding="utf-8"?>
<!-- Generator: Adobe Illustrator 21.1.0, SVG Export Plug-In . SVG Version: 6.00 Build 0)  -->
<svg version="1.1" id="Layer_1" xmlns="http://www.w3.org/2000/svg" xmlns:xlink="http://www.w3.org/1999/xlink" x="0px" y="0px"
	 viewBox="0 0 32 32" style="enable-background:new 0 0 32 32;" xml:space="preserve">
<style type="text/css">
	.Green{fill:#039C23;}
	.Black{fill:#727272;}
	.Red{fill:#D11C1C;}
	.Yellow{fill:#FFB115;}
	.Blue{fill:#1177D7;}
	.White{fill:#FFFFFF;}
	.st0{opacity:0.5;}
	.st1{opacity:0.75;}
</style>
<g id="Striped">
	<path class="Blue" d="M12,10H2V2h10V10z M12,12H2v8h10V12z M12,22H2v8h10V22z"/>
	<path class="Green" d="M20,10h-6V2h6V10z M20,12h-6v8h6V12z M20,22h-6v8h6V22z"/>
	<path class="Yellow" d="M26,10h-4V2h4V10z M26,12h-4v8h4V12z M26,22h-4v8h4V22z"/>
	<path class="Red" d="M30,10h-2V2h2V10z M30,12h-2v8h2V12z M30,22h-2v8h2V22z"/>
</g>
</svg>
