<?xml version="1.0" encoding="utf-8"?>
<!-- Generator: Adobe Illustrator 21.1.0, SVG Export Plug-In . SVG Version: 6.00 Build 0)  -->
<svg version="1.1" id="Layer_1" xmlns="http://www.w3.org/2000/svg" xmlns:xlink="http://www.w3.org/1999/xlink" x="0px" y="0px"
	 viewBox="0 0 32 32" style="enable-background:new 0 0 32 32;" xml:space="preserve">
<style type="text/css">
	.Yellow{fill:#FFB115;}
	.Red{fill:#D11C1C;}
	.Black{fill:#727272;}
	.Blue{fill:#1177D7;}
	.White{fill:#FFFFFF;}
	.Green{fill:#039C23;}
	.st0{opacity:0.75;}
	.st1{opacity:0.5;}
	.st2{opacity:0.25;}
	.st3{fill:#FFB115;}
</style>
<g id="TextBox">
	<path class="Black" d="M23.3,15.4c-0.5-0.4-1.1-0.7-1.8-0.8c0.6-0.2,1.1-0.5,1.5-0.9c0.4-0.4,0.6-0.9,0.6-1.4
		c0-0.7-0.3-1.3-0.9-1.7c-0.6-0.4-1.5-0.6-2.8-0.6H16v9.9V20h4c1.2,0,2.2-0.2,2.9-0.8C23.7,18.6,24,18,24,17
		C24,16.4,23.8,15.9,23.3,15.4z M18.4,11.7h0.9c1.1,0,1.7,0.4,1.7,1.1c0,0.4-0.1,0.7-0.4,0.9C20.4,13.9,20,14,19.5,14h-1.1V11.7z
		 M21,17.8c-0.3,0.2-0.8,0.4-1.3,0.4h-1.3v-2.6h1.3c0.5,0,0.9,0.1,1.3,0.3c0.3,0.2,0.5,0.6,0.5,0.9C21.5,17.3,21.4,17.6,21,17.8z
		 M9.4,10L6.1,20h2.2l0.6-2.3h3.2l0.6,2.3H15l-3.2-10H9.4z M9.4,16l1-3.3c0.1-0.3,0.1-0.6,0.1-0.9h0.1c0,0.3,0.1,0.6,0.1,0.9l1,3.3
		H9.4z M27,0H3C2.5,0,2,0.5,2,1v28c0,0.5,0.5,1,1,1h24c0.5,0,1-0.5,1-1V1C28,0.5,27.5,0,27,0z M26,28H4V2h22V28z"/>
</g>
</svg>
