<?xml version="1.0" encoding="utf-8"?>
<!-- Generator: Adobe Illustrator 21.1.0, SVG Export Plug-In . SVG Version: 6.00 Build 0)  -->
<svg version="1.1" id="Layer_1" xmlns="http://www.w3.org/2000/svg" xmlns:xlink="http://www.w3.org/1999/xlink" x="0px" y="0px"
	 viewBox="0 0 32 32" style="enable-background:new 0 0 32 32;" xml:space="preserve">
<style type="text/css">
	.Yellow{fill:#FFB115;}
	.Red{fill:#D11C1C;}
	.Black{fill:#727272;}
	.Blue{fill:#1177D7;}
	.White{fill:#FFFFFF;}
	.Green{fill:#039C23;}
	.st0{opacity:0.75;}
	.st1{opacity:0.5;}
	.st2{opacity:0.25;}
	.st3{fill:#FFB115;}
</style>
<g>
</g>
<g id="Title_1_">
	<path id="Title" class="Black" d="M29,14H1c-0.5,0-1,0.5-1,1v12c0,0.5,0.5,1,1,1h28c0.5,0,1-0.5,1-1V15C30,14.5,29.5,14,29,14z
		 M28,26H2V16h26V26z M22.9,11.2C23.7,10.6,24,10,24,9c0-0.6-0.2-1.2-0.7-1.6c-0.5-0.4-1.1-0.7-1.8-0.8c0.6-0.2,1.1-0.5,1.5-0.9
		c0.4-0.4,0.6-0.9,0.6-1.4c0-0.7-0.3-1.3-0.9-1.7C22.1,2.2,21.1,2,19.9,2H16v9.9V12h4C21.2,12,22.3,11.8,22.9,11.2z M18.4,3.7h0.9
		c1.1,0,1.7,0.4,1.7,1.1c0,0.4-0.1,0.7-0.4,0.9C20.4,5.9,20,6,19.5,6h-1.1V3.7z M18.4,10.2V7.6h1.3c0.5,0,0.9,0.1,1.3,0.3
		c0.3,0.2,0.5,0.6,0.5,0.9c0,0.4-0.1,0.7-0.5,1c-0.3,0.2-0.8,0.4-1.3,0.4H18.4z M8.9,9.8h3.2l0.6,2.3H15L11.8,2H9.4L6.1,12h2.2
		L8.9,9.8z M10.4,4.7c0.1-0.3,0.1-0.6,0.1-0.9h0.1c0,0.3,0.1,0.6,0.1,0.9l1,3.3H9.4L10.4,4.7z"/>
</g>
</svg>
