<?xml version="1.0" encoding="utf-8"?>
<!-- Generator: Adobe Illustrator 21.1.0, SVG Export Plug-In . SVG Version: 6.00 Build 0)  -->
<svg version="1.1" id="Layer_1" xmlns="http://www.w3.org/2000/svg" xmlns:xlink="http://www.w3.org/1999/xlink" x="0px" y="0px"
	 viewBox="0 0 32 32" style="enable-background:new 0 0 32 32;" xml:space="preserve">
<style type="text/css">
	.Yellow{fill:#FFB115;}
	.Red{fill:#D11C1C;}
	.Black{fill:#727272;}
	.Blue{fill:#1177D7;}
	.White{fill:#FFFFFF;}
	.Green{fill:#039C23;}
	.st0{opacity:0.75;}
	.st1{opacity:0.5;}
	.st2{opacity:0.25;}
	.st3{fill:#FFB115;}
</style>
<g>
</g>
<g id="Update">
	<g class="st1">
		<path class="Black" d="M16,6h-6V2h6V6z M16,8h-6v4h6V8z M24,2h-6v4h6V2z M24,12V8h-6v4H24z M2,6h6V2H2V6z M2,18h6v-4H2V18z M16,14
			L16,14l-6,0v4h2.8C13.5,16.4,14.6,15,16,14z M2,12h6V8H2V12z"/>
	</g>
	<path class="Green" d="M27.7,20h2H30v-6l-2.3,2.3C26.2,14.9,24.2,14,22,14c-4.4,0-8,3.6-8,8c0,4.4,3.6,8,8,8s8-3.6,8-8h-2
		c0,3.3-2.7,6-6,6s-6-2.7-6-6s2.7-6,6-6c1.7,0,3.2,0.7,4.2,1.8L24,20H27.7z"/>
</g>
</svg>
