<?xml version="1.0" encoding="utf-8"?>
<!-- Generator: Adobe Illustrator 21.1.0, SVG Export Plug-In . SVG Version: 6.00 Build 0)  -->
<svg version="1.1" id="Layer_1" xmlns="http://www.w3.org/2000/svg" xmlns:xlink="http://www.w3.org/1999/xlink" x="0px" y="0px"
	 viewBox="0 0 32 32" style="enable-background:new 0 0 32 32;" xml:space="preserve">
<style type="text/css">
	.Yellow{fill:#FFB115;}
	.Red{fill:#D11C1C;}
	.Blue{fill:#1177D7;}
	.Green{fill:#039C23;}
	.Black{fill:#727272;}
	.White{fill:#FFFFFF;}
	.st0{opacity:0.5;}
</style>
<g id="UpdateDataExtract">
	<path class="Yellow" d="M4,10V6c0-2.2,4.5-4,10-4s10,1.8,10,4v4c0,2.2-4.5,4-10,4S4,12.2,4,10z M14,20c0.5,0,1.1,0,1.6-0.1
		c1.6-2.4,4.3-3.9,7.4-3.9c0.3,0,0.7,0,1,0.1c0,0,0,0,0-0.1v-4c0,2.2-4.5,4-10,4S4,14.2,4,12v4C4,18.2,8.5,20,14,20z M14,24L14,24
		c0.1-0.7,0.3-1.4,0.5-2c-0.2,0-0.4,0-0.5,0c-5.5,0-10-1.8-10-4v4c0,2.2,4.5,4,10,4V24z"/>
	<path class="Green" d="M30,18v6h-0.1H24l2.5-2.5C25.6,20.6,24.4,20,23,20c-2.4,0-4.4,1.7-4.9,4h-2c0.5-3.4,3.4-6,6.9-6
		c1.9,0,3.7,0.8,4.9,2.1L30,18z M23,30c-1.4,0-2.6-0.6-3.5-1.5L22,26h-5.9H16v6l2.1-2.1c1.3,1.3,3,2.1,4.9,2.1c3.5,0,6.4-2.6,6.9-6
		h-2C27.4,28.3,25.4,30,23,30z"/>
</g>
</svg>
