<?xml version="1.0" encoding="utf-8"?>
<!-- Generator: Adobe Illustrator 21.1.0, SVG Export Plug-In . SVG Version: 6.00 Build 0)  -->
<svg version="1.1" id="Layer_1" xmlns="http://www.w3.org/2000/svg" xmlns:xlink="http://www.w3.org/1999/xlink" x="0px" y="0px"
	 viewBox="0 0 32 32" style="enable-background:new 0 0 32 32;" xml:space="preserve">
<style type="text/css">
	.Green{fill:#039C23;}
	.Black{fill:#727272;}
	.Red{fill:#D11C1C;}
	.Yellow{fill:#FFB115;}
	.Blue{fill:#1177D7;}
	.White{fill:#FFFFFF;}
	.st0{opacity:0.5;}
	.st1{opacity:0.75;}
</style>
<g id="ValuesPosition">
	<path class="Blue" d="M6,16H0v-4h6V16z M6,18H0v4h6V18z M6,24H0v4h6V24z"/>
	<g class="st0">
		<path class="Black" d="M22,16H8v-4h14V16z M22,18H8v4h14V18z M22,24H8v4h14V24z M30,6h-6v22h6V6z M14,10H8V6h6V10z M22,10h-6V6h6
			V10z"/>
	</g>
	<path class="Blue" d="M14,4H8V0h6V4z M22,0h-6v4h6V0z M30,0h-6v4h6V0z"/>
</g>
</svg>
