<?xml version="1.0" encoding="utf-8"?>
<!-- Generator: Adobe Illustrator 21.1.0, SVG Export Plug-In . SVG Version: 6.00 Build 0)  -->
<svg version="1.1" id="Layer_1" xmlns="http://www.w3.org/2000/svg" xmlns:xlink="http://www.w3.org/1999/xlink" x="0px" y="0px"
	 viewBox="0 0 32 32" style="enable-background:new 0 0 32 32;" xml:space="preserve">
<style type="text/css">
	.Yellow{fill:#FFB115;}
	.Red{fill:#D11C1C;}
	.Black{fill:#727272;}
	.Blue{fill:#1177D7;}
	.White{fill:#FFFFFF;}
	.Green{fill:#039C23;}
	.st0{opacity:0.75;}
	.st1{opacity:0.5;}
	.st2{opacity:0.25;}
	.st3{fill:#FFB115;}
</style>
<g>
</g>
<g id="X-Axis_Settings">
	<polygon class="Black" points="4,26 4,2 2,2 2,28 6,28 6,30 8,30 8,28 12,28 12,30 14,30 14,28 18,28 18,30 20,30 20,28 24,28 
		24,30 26,30 26,28 30,28 30,26 	"/>
	<path class="Blue" d="M28,14.4v-2.8l-3-0.6c-0.3-0.8-0.5-1.8-1.1-2.5l1.8-2.5l-1.9-1.9L21.3,6c-0.7-0.4-1.6-0.8-2.5-1l-0.4-3h-2.8
		l-0.5,3c-0.8,0.3-1.8,0.5-2.5,1l-2.5-1.8L8.2,6.1L10,8.6c-0.4,0.7-0.8,1.7-1.1,2.5L6,11.6v2.8l3,0.5c0.3,0.8,0.5,1.8,1.1,2.5
		l-1.8,2.5l1.9,1.9l2.5-1.8c0.7,0.4,1.6,0.8,2.5,1l0.4,3h2.8l0.6-3c0.8-0.3,1.8-0.6,2.5-1l2.5,1.8l1.9-1.9L24,17.4
		c0.4-0.7,0.8-1.6,1.1-2.5L28,14.4z M17,16c-1.7,0-3-1.3-3-3s1.3-3,3-3s3,1.3,3,3S18.7,16,17,16z"/>
</g>
</svg>
