<?xml version="1.0" encoding="utf-8"?>
<!-- Generator: Adobe Illustrator 21.1.0, SVG Export Plug-In . SVG Version: 6.00 Build 0)  -->
<svg version="1.1" id="Layer_1" xmlns="http://www.w3.org/2000/svg" xmlns:xlink="http://www.w3.org/1999/xlink" x="0px" y="0px"
	 viewBox="0 0 32 32" style="enable-background:new 0 0 32 32;" xml:space="preserve">
<style type="text/css">
	.Red{fill:#D11C1C;}
	.Yellow{fill:#FFB115;}
	.Blue{fill:#1177D7;}
	.Green{fill:#039C23;}
	.Black{fill:#727272;}
	.White{fill:#FFFFFF;}
	.st0{opacity:0.5;}
	.st1{opacity:0.75;}
	.st2{opacity:0.35;}
	.st3{opacity:0.65;}
</style>
<g id="Area3DStacked">
	<g class="st0">
		<path class="Red" d="M12,8l-4,4L2,6l4-4L12,8z M18,2l-4,4l12,10l4-4L18,2z"/>
	</g>
	<g class="st1">
		<polygon class="Red" points="14,6 8,12 2,6 2,20 8,20 14,14 26,26 26,16 		"/>
		<polygon class="Yellow" points="26,30 2,30 2,20 8,20 14,14 26,26 		"/>
	</g>
	<polygon class="Red" points="26,26 30,22 30,12 26,16 	"/>
	<polygon class="Yellow" points="30,26 26,30 26,26 30,22 	"/>
</g>
</svg>
