<?xml version="1.0" encoding="utf-8"?>
<!-- Generator: Adobe Illustrator 21.1.0, SVG Export Plug-In . SVG Version: 6.00 Build 0)  -->
<svg version="1.1" id="Layer_1" xmlns="http://www.w3.org/2000/svg" xmlns:xlink="http://www.w3.org/1999/xlink" x="0px" y="0px"
	 viewBox="0 0 32 32" style="enable-background:new 0 0 32 32;" xml:space="preserve">
<style type="text/css">
	.Red{fill:#D11C1C;}
	.Yellow{fill:#FFB115;}
	.Blue{fill:#1177D7;}
	.Green{fill:#039C23;}
	.Black{fill:#727272;}
	.White{fill:#FFFFFF;}
	.st0{opacity:0.5;}
	.st1{opacity:0.75;}
	.st2{opacity:0.35;}
	.st3{opacity:0.65;}
</style>
<g id="Point">
	<path class="Blue" d="M25,10c-1.7,0-3,1.3-3,3s1.3,3,3,3s3-1.3,3-3S26.7,10,25,10z M25,14c-0.6,0-1-0.4-1-1c0-0.6,0.4-1,1-1
		s1,0.4,1,1C26,13.6,25.6,14,25,14z M7,12c-1.7,0-3,1.3-3,3s1.3,3,3,3s3-1.3,3-3S8.7,12,7,12z M7,16c-0.6,0-1-0.4-1-1
		c0-0.6,0.4-1,1-1s1,0.4,1,1C8,15.6,7.6,16,7,16z"/>
	<path class="Red" d="M15,16c-1.7,0-3,1.3-3,3s1.3,3,3,3s3-1.3,3-3S16.7,16,15,16z M15,20c-0.6,0-1-0.4-1-1c0-0.6,0.4-1,1-1
		s1,0.4,1,1C16,19.6,15.6,20,15,20z"/>
	<path class="Yellow" d="M17,4c-1.7,0-3,1.3-3,3s1.3,3,3,3s3-1.3,3-3S18.7,4,17,4z M17,8c-0.6,0-1-0.4-1-1c0-0.6,0.4-1,1-1
		s1,0.4,1,1C18,7.6,17.6,8,17,8z M7,22c-1.7,0-3,1.3-3,3s1.3,3,3,3s3-1.3,3-3S8.7,22,7,22z M7,26c-0.6,0-1-0.4-1-1c0-0.6,0.4-1,1-1
		s1,0.4,1,1C8,25.6,7.6,26,7,26z"/>
</g>
</svg>
