<?xml version="1.0" encoding="utf-8"?>
<!-- Generator: Adobe Illustrator 21.1.0, SVG Export Plug-In . SVG Version: 6.00 Build 0)  -->
<svg version="1.1" id="Layer_1" xmlns="http://www.w3.org/2000/svg" xmlns:xlink="http://www.w3.org/1999/xlink" x="0px" y="0px"
	 viewBox="0 0 32 32" style="enable-background:new 0 0 32 32;" xml:space="preserve">
<style type="text/css">
	.Red{fill:#D11C1C;}
	.Yellow{fill:#FFB115;}
	.Blue{fill:#1177D7;}
	.Green{fill:#039C23;}
	.Black{fill:#727272;}
	.White{fill:#FFFFFF;}
	.st0{opacity:0.5;}
	.st1{opacity:0.75;}
	.st2{opacity:0.35;}
	.st3{opacity:0.65;}
</style>
<g id="Pie3D">
	<path class="Red" d="M0,12v6c0,5.3,6.2,9.6,14,10v-6C6.2,21.6,0,17.3,0,12z"/>
	<path class="Yellow" d="M16,22v6c3-0.1,5.7-0.9,8-2v-6l0,0C21.7,21.1,19,21.8,16,22z"/>
	<path class="Blue" d="M26,18.8v6c2.5-1.8,4-4.2,4-6.8v-6C30,14.6,28.5,17,26,18.8z"/>
	<g class="st3">
		<path class="Red" d="M14,11.4L24.1,4c-2.5-1.2-5.7-2-9.1-2C6.7,2,0,6.5,0,12c0,5.3,6.2,9.6,14,10V11.4z"/>
		<path class="Blue" d="M26,5.2L16.6,12l9.4,6.8c2.5-1.8,4-4.2,4-6.8S28.5,7,26,5.2z"/>
		<path class="Yellow" d="M16,14v8c3-0.1,5.7-0.8,8-2L16,14z"/>
	</g>
</g>
</svg>
