<?xml version="1.0" encoding="utf-8"?>
<!-- Generator: Adobe Illustrator 21.1.0, SVG Export Plug-In . SVG Version: 6.00 Build 0)  -->
<svg version="1.1" id="Layer_1" xmlns="http://www.w3.org/2000/svg" xmlns:xlink="http://www.w3.org/1999/xlink" x="0px" y="0px"
	 viewBox="0 0 32 32" style="enable-background:new 0 0 32 32;" xml:space="preserve">
<style type="text/css">
	.Red{fill:#D11C1C;}
	.Yellow{fill:#FFB115;}
	.Blue{fill:#1177D7;}
	.Green{fill:#039C23;}
	.Black{fill:#727272;}
	.White{fill:#FFFFFF;}
	.st0{opacity:0.5;}
	.st1{opacity:0.75;}
	.st2{opacity:0.35;}
	.st3{opacity:0.65;}
</style>
<g id="ScatterRadarLine_1_">
	<g class="st2">
		<path class="Black" d="M16,0C7.2,0,0,7.2,0,16s7.2,16,16,16s16-7.2,16-16S24.8,0,16,0z M16,30C8.3,30,2,23.7,2,16S8.3,2,16,2
			s14,6.3,14,14S23.7,30,16,30z M16,6C10.5,6,6,10.5,6,16c0,5.5,4.5,10,10,10s10-4.5,10-10C26,10.5,21.5,6,16,6z M16,24
			c-4.4,0-8-3.6-8-8s3.6-8,8-8s8,3.6,8,8S20.4,24,16,24z M16,12c-2.2,0-4,1.8-4,4c0,2.2,1.8,4,4,4s4-1.8,4-4C20,13.8,18.2,12,16,12z
			 M16,18c-1.1,0-2-0.9-2-2c0-1.1,0.9-2,2-2s2,0.9,2,2C18,17.1,17.1,18,16,18z"/>
	</g>
	<path class="Blue" d="M15,4c-0.6,0-1,0.4-1,1c0,0.6,0.4,1,1,1c6.1,0,11,4.9,11,11c0,4.4-3.6,8-8,8s-8-3.6-8-8c0-2.8,2.2-5,5-5
		s5,2.2,5,5c0,1.7-1.3,3-3,3s-3-1.3-3-3c0-0.6,0.4-1,1-1s1,0.4,1,1c0,0.6,0.4,1,1,1s1-0.4,1-1c0-1.7-1.3-3-3-3s-3,1.3-3,3
		c0,2.8,2.2,5,5,5s5-2.2,5-5c0-3.9-3.1-7-7-7s-7,3.1-7,7c0,5.5,4.5,10,10,10s10-4.5,10-10C28,9.8,22.2,4,15,4z"/>
</g>
</svg>
