<?xml version="1.0" encoding="utf-8"?>
<!-- Generator: Adobe Illustrator 21.1.0, SVG Export Plug-In . SVG Version: 6.00 Build 0)  -->
<svg version="1.1" id="Layer_1" xmlns="http://www.w3.org/2000/svg" xmlns:xlink="http://www.w3.org/1999/xlink" x="0px" y="0px"
	 viewBox="0 0 32 32" style="enable-background:new 0 0 32 32;" xml:space="preserve">
<style type="text/css">
	.Red{fill:#D11C1C;}
	.Yellow{fill:#FFB115;}
	.Blue{fill:#1177D7;}
	.Green{fill:#039C23;}
	.Black{fill:#727272;}
	.White{fill:#FFFFFF;}
	.st0{opacity:0.5;}
	.st1{opacity:0.75;}
	.st2{opacity:0.35;}
	.st3{opacity:0.65;}
</style>
<g id="ScatterLine">
	<path class="Green" d="M28,10c0-1.7-1.3-3-3-3c-0.5,0-0.9,0.1-1.3,0.3c-1.6-1.4-3.6-2.5-5.7-3v0C17.6,3,16.4,2,15,2s-2.6,1-2.9,2.3
		v0C9.5,4.9,7.3,6.2,5.6,8.1C5.4,8,5.2,8,5,8c-1.7,0-3,1.3-3,3c0,0.7,0.3,1.4,0.7,1.9C2.2,14.2,2,15.6,2,17c0,3.1,0.9,6.1,2.4,8.6
		C4.1,26,4,26.5,4,27c0,1.7,1.3,3,3,3s3-1.3,3-3s-1.3-3-3-3c-0.4,0-0.8,0.1-1.1,0.2C4.7,22.1,4,19.6,4,17c0-1.1,0.2-2.1,0.4-3.1
		C4.6,14,4.8,14,5,14c1.7,0,3-1.3,3-3c0-0.7-0.3-1.4-0.7-1.9c1.4-1.3,3.1-2.3,5-2.8l0,0C12.8,7.3,13.8,8,15,8s2.2-0.7,2.7-1.7l0,0
		c1.7,0.4,3.3,1.3,4.6,2.4C22.1,9.1,22,9.6,22,10c0,1.7,1.3,3,3,3c0.1,0,0.2,0,0.2,0l0,0c0.5,1.2,0.8,2.6,0.8,4c0,3.9-3.1,7-7,7
		c-0.7,0-1.4-0.1-2.1-0.3C17,23.5,17,23.2,17,23c0-1.7-1.3-3-3-3c-0.4,0-0.8,0.1-1.2,0.3c-0.5-1-0.8-2.1-0.8-3.3c0-1.7,1.3-3,3-3
		c0.8,0,1.5,0.3,2,0.8c-0.6,0.5-1,1.3-1,2.2c0,1.7,1.3,3,3,3s3-1.3,3-3s-1.3-3-3-3c0,0,0,0,0,0c-0.9-1.2-2.3-2-4-2c-2.8,0-5,2.2-5,5
		c0,1.7,0.5,3.3,1.3,4.7C11.1,22.1,11,22.5,11,23c0,1.7,1.3,3,3,3c0.7,0,1.3-0.2,1.8-0.6l0,0c1,0.4,2.1,0.6,3.2,0.6c5,0,9-4,9-9
		c0-1.7-0.3-3.3-0.9-4.8C27.6,11.6,28,10.9,28,10z M7,26c0.6,0,1,0.4,1,1c0,0.6-0.4,1-1,1s-1-0.4-1-1C6,26.4,6.4,26,7,26z M5,12
		c-0.6,0-1-0.4-1-1c0-0.6,0.4-1,1-1s1,0.4,1,1C6,11.6,5.6,12,5,12z M15,6c-0.6,0-1-0.4-1-1c0-0.6,0.4-1,1-1s1,0.4,1,1
		C16,5.6,15.6,6,15,6z M19,16c0.6,0,1,0.4,1,1c0,0.6-0.4,1-1,1s-1-0.4-1-1C18,16.4,18.4,16,19,16z M14,24c-0.6,0-1-0.4-1-1
		c0-0.6,0.4-1,1-1s1,0.4,1,1C15,23.6,14.6,24,14,24z M25,11c-0.6,0-1-0.4-1-1c0-0.6,0.4-1,1-1s1,0.4,1,1C26,10.6,25.6,11,25,11z"/>
</g>
</svg>
