<?xml version="1.0" encoding="utf-8"?>
<!-- Generator: Adobe Illustrator 21.1.0, SVG Export Plug-In . SVG Version: 6.00 Build 0)  -->
<svg version="1.1" id="Layer_1" xmlns="http://www.w3.org/2000/svg" xmlns:xlink="http://www.w3.org/1999/xlink" x="0px" y="0px"
	 viewBox="0 0 32 32" style="enable-background:new 0 0 32 32;" xml:space="preserve">
<style type="text/css">
	.Red{fill:#D11C1C;}
	.Yellow{fill:#FFB115;}
	.Blue{fill:#1177D7;}
	.Green{fill:#039C23;}
	.Black{fill:#727272;}
	.White{fill:#FFFFFF;}
	.st0{opacity:0.5;}
	.st1{opacity:0.75;}
	.st2{opacity:0.35;}
	.st3{opacity:0.65;}
</style>
<g id="SplineArea3DStacked_2_">
	<g class="st0">
		<path class="Red" d="M22,4c-4,0-4,4-8,4s-4-8-8-8L2,4c4,0,4,8,8,8s4-4,8-4s4,4,8,4c2-2,2-2,4-4C26,8,26,4,22,4z"/>
	</g>
	<g class="st1">
		<path class="Red" d="M18,8c-4,0-4,4-8,4S6,4,2,4c0,1.5,0,5.5,0,10c4,0,4,8,8,8s4-4,8-4s4,4,8,4c0-4.3,0-9,0-10C22,12,22,8,18,8z"
			/>
		<path class="Yellow" d="M2,14c4,0,4,8,8,8s4-4,8-4s4,4,8,4c0,2,0,8,0,8H2C2,30,2,18,2,14z"/>
	</g>
	<polygon class="Yellow" points="26,30 30,26 30,18 26,22 	"/>
	<polygon class="Red" points="26,12 30,8 30,18 26,22 	"/>
</g>
</svg>
