<?xml version="1.0" encoding="utf-8"?>
<!-- Generator: Adobe Illustrator 21.1.0, SVG Export Plug-In . SVG Version: 6.00 Build 0)  -->
<svg version="1.1" id="Layer_1" xmlns="http://www.w3.org/2000/svg" xmlns:xlink="http://www.w3.org/1999/xlink" x="0px" y="0px"
	 viewBox="0 0 32 32" style="enable-background:new 0 0 32 32;" xml:space="preserve">
<style type="text/css">
	.Red{fill:#D11C1C;}
	.Yellow{fill:#FFB115;}
	.Blue{fill:#1177D7;}
	.Green{fill:#039C23;}
	.Black{fill:#727272;}
	.White{fill:#FFFFFF;}
	.st0{opacity:0.5;}
	.st1{opacity:0.75;}
	.st2{opacity:0.35;}
	.st3{opacity:0.65;}
</style>
<g id="SplineAreaStacked">
	<path class="Red" d="M2,28v-8c0,0,4,4,12,4s16-6,16-6v10H2z"/>
	<path class="Yellow" d="M2,16c0,0,6,4,12,4s16-10,16-10v8c0,0-8,6-16,6S2,20,2,20V16z"/>
	<path class="Blue" d="M2,8v8c0,0,6,4,12,4s16-10,16-10s0-4,0-8c-8,0-10,12-16,12S2,8,2,8z"/>
</g>
</svg>
