<?xml version="1.0" encoding="utf-8"?>
<!-- Generator: Adobe Illustrator 22.1.0, SVG Export Plug-In . SVG Version: 6.00 Build 0)  -->
<svg version="1.1" id="ChartTypes_x5F_Bubble3D" xmlns="http://www.w3.org/2000/svg" xmlns:xlink="http://www.w3.org/1999/xlink"
	 x="0px" y="0px" viewBox="0 0 32 32" style="enable-background:new 0 0 32 32;" xml:space="preserve">
<style type="text/css">
	.Blue{fill:#1177D7;}
	.Yellow{fill:#FFB115;}
	.Green{fill:#039C23;}
	.Red{fill:#D11C1C;}
</style>
<path class="Yellow" d="M12,2C9.8,2,8,3.8,8,6c0,2.2,1.8,4,4,4c2.2,0,4-1.8,4-4C16,3.8,14.2,2,12,2z M13,6c-0.6,0-1-0.4-1-1
	c0-0.6,0.4-1,1-1s1,0.4,1,1C14,5.6,13.6,6,13,6z"/>
<path class="Green" d="M23,6c-2.8,0-5,2.2-5,5c0,2.8,2.2,5,5,5c2.8,0,5-2.2,5-5C28,8.2,25.8,6,23,6z M24.5,11
	c-0.8,0-1.5-0.7-1.5-1.5S23.7,8,24.5,8S26,8.7,26,9.5S25.3,11,24.5,11z"/>
<path class="Blue" d="M11,14c-3.9,0-7,3.1-7,7c0,3.9,3.1,7,7,7c3.9,0,7-3.1,7-7C18,17.1,14.9,14,11,14z M13,21c-1.1,0-2-0.9-2-2
	c0-1.1,0.9-2,2-2s2,0.9,2,2C15,20.1,14.1,21,13,21z"/>
<path class="Red" d="M24,20c-1.1,0-2,0.9-2,2c0,1.1,0.9,2,2,2s2-0.9,2-2C26,20.9,25.1,20,24,20z M24.5,22c-0.3,0-0.5-0.2-0.5-0.5
	c0-0.3,0.2-0.5,0.5-0.5s0.5,0.2,0.5,0.5C25,21.8,24.8,22,24.5,22z"/>
</svg>
