<?xml version="1.0" encoding="utf-8"?>
<!-- Generator: Adobe Illustrator 21.1.0, SVG Export Plug-In . SVG Version: 6.00 Build 0)  -->
<svg version="1.1" id="Layer_1" xmlns="http://www.w3.org/2000/svg" xmlns:xlink="http://www.w3.org/1999/xlink" x="0px" y="0px"
	 viewBox="0 0 32 32" style="enable-background:new 0 0 32 32;" xml:space="preserve">
<style type="text/css">
	.Red{fill:#D11C1C;}
	.Yellow{fill:#FFB115;}
	.Blue{fill:#1177D7;}
	.Green{fill:#039C23;}
	.Black{fill:#727272;}
	.White{fill:#FFFFFF;}
	.st0{opacity:0.5;}
	.st1{opacity:0.75;}
	.st2{opacity:0.35;}
	.st3{opacity:0.65;}
</style>
<g id="AreaStepStacked">
	<polygon class="Red" points="2,28 2,22 8,22 8,18 14,18 14,16 24,16 24,22 30,22 30,28 	"/>
	<polyline class="Yellow" points="2,16 8,16 8,14 14,14 14,10 24,10 24,14 30,14 30,22 24,22 24,16 14,16 14,18 8,18 8,22 2,22 
		2,12 	"/>
	<polygon class="Blue" points="2,10 8,10 8,6 14,6 14,2 24,2 24,8 30,8 30,14 24,14 24,10 14,10 14,14 8,14 8,16 2,16 	"/>
</g>
</svg>
