<?xml version="1.0" encoding="utf-8"?>
<!-- Generator: Adobe Illustrator 21.1.0, SVG Export Plug-In . SVG Version: 6.00 Build 0)  -->
<svg version="1.1" id="Layer_1" xmlns="http://www.w3.org/2000/svg" xmlns:xlink="http://www.w3.org/1999/xlink" x="0px" y="0px"
	 viewBox="0 0 32 32" style="enable-background:new 0 0 32 32;" xml:space="preserve">
<style type="text/css">
	.Red{fill:#D11C1C;}
	.Yellow{fill:#FFB115;}
	.Blue{fill:#1177D7;}
	.Green{fill:#039C23;}
	.Black{fill:#727272;}
	.White{fill:#FFFFFF;}
	.st0{opacity:0.5;}
	.st1{opacity:0.75;}
	.st2{opacity:0.35;}
	.st3{opacity:0.65;}
</style>
<g id="Funnel3D">
	<path class="Blue" d="M15,26c-1.1,0-2.1-0.2-3-0.5v6c0.9,0.3,1.9,0.5,3,0.5c1.1,0,2.1-0.2,3-0.5v-6C17.1,25.8,16.1,26,15,26z"/>
	<path class="Yellow" d="M24,16.4c-2.6,1.1-6.1,1.6-9,1.6s-6.4-0.5-9-1.6c0.1,0.5,0.4,0.9,0.8,1.3l4.9,5.4c0.6,0.5,1.8,0.9,3.3,0.9
		s2.7-0.3,3.3-0.9l4.9-5.4C23.6,17.3,23.9,16.9,24,16.4z"/>
	<path class="Red" d="M29.7,5.9c-0.5,0.9-1.7,1.7-3.4,2.3c0,0,0,0,0,0c-0.3,0.1-0.7,0.2-1,0.4c0,0,0,0-0.1,0
		c-0.4,0.1-0.7,0.2-1.1,0.3c0,0-0.1,0-0.1,0c-0.4,0.1-0.7,0.2-1.1,0.3c0,0,0,0-0.1,0c0,0,0,0,0,0C20.5,9.7,17.9,10,15,10
		S9.5,9.7,7.2,9.3c0,0,0,0,0,0c0,0,0,0-0.1,0C6.7,9.2,6.4,9.1,6,9c0,0-0.1,0-0.1,0C5.5,8.9,5.1,8.8,4.8,8.7c0,0,0,0-0.1,0
		C4.3,8.5,4,8.4,3.7,8.3c0,0,0,0,0,0C2,7.6,0.8,6.8,0.3,5.9l4.2,6.8C5.6,14.6,9.8,16,15,16s9.4-1.4,10.5-3.3L29.7,5.9z"/>
	<g class="st0">
		<ellipse class="Red" cx="15" cy="5" rx="15" ry="5"/>
	</g>
	<path class="Red" d="M15,8C6.9,8,2.5,5.9,2,5c0.5-0.9,4.9-3,13-3s12.5,2.1,13,3C27.5,5.9,23.1,8,15,8z"/>
</g>
</svg>
