<?xml version="1.0" encoding="utf-8"?>
<!-- Generator: Adobe Illustrator 21.1.0, SVG Export Plug-In . SVG Version: 6.00 Build 0)  -->
<svg version="1.1" id="Layer_1" xmlns="http://www.w3.org/2000/svg" xmlns:xlink="http://www.w3.org/1999/xlink" x="0px" y="0px"
	 viewBox="0 0 32 32" style="enable-background:new 0 0 32 32;" xml:space="preserve">
<style type="text/css">
	.Red{fill:#D11C1C;}
	.Yellow{fill:#FFB115;}
	.Blue{fill:#1177D7;}
	.Green{fill:#039C23;}
	.Black{fill:#727272;}
	.White{fill:#FFFFFF;}
	.st0{opacity:0.5;}
	.st1{opacity:0.75;}
	.st2{opacity:0.35;}
	.st3{opacity:0.65;}
</style>
<g id="Doughnut3D">
	<path class="Yellow" d="M16,22v6c3-0.1,5.7-0.9,8-2v-6l0,0C21.7,21.1,19,21.8,16,22z"/>
	<g class="st3">
		<path class="Red" d="M6,12c0-1.2,3.2-4,9-4c1.1,0,2.1,0.1,3,0.3L24.1,4c-2.5-1.2-5.7-2-9.1-2C6.7,2,0,6.5,0,12
			c0,5.3,6.2,9.6,14,10v-6C8.8,15.7,6,13.1,6,12z"/>
		<path class="Blue" d="M26,5.2l-6,3.6c2.6,0.9,4,2.4,4,3.2s-1.4,2.3-4,3.2l6,3.6c2.5-1.8,4-4.2,4-6.8C30,9.4,28.5,7,26,5.2z"/>
		<path class="Yellow" d="M16,16v6c3-0.1,5.7-0.8,8-2l-6.7-4.2C16.9,15.9,16.5,15.9,16,16z"/>
	</g>
	<path class="Red" d="M14,22v6C6.2,27.6,0,23.3,0,18v-6C0,17.3,6.2,21.6,14,22z M15,8c-5.8,0-9,2.8-9,4c0,0.7,1.2,2.1,3.5,3
		c1.4-0.6,3.3-1,5.5-1c1.1,0,2.1,0.1,3,0.3v-6C17.1,8.1,16.1,8,15,8z"/>
	<path class="Blue" d="M30,12v6c0,2.6-1.5,5-4,6.8v-6C28.5,17,30,14.6,30,12z M20,8.8v6.4c2.6-0.9,4-2.4,4-3.2S22.6,9.7,20,8.8z"/>
</g>
</svg>
