<?xml version="1.0" encoding="utf-8"?>
<!-- Generator: Adobe Illustrator 21.1.0, SVG Export Plug-In . SVG Version: 6.00 Build 0)  -->
<svg version="1.1" id="Layer_1" xmlns="http://www.w3.org/2000/svg" xmlns:xlink="http://www.w3.org/1999/xlink" x="0px" y="0px"
	 viewBox="0 0 32 32" style="enable-background:new 0 0 32 32;" xml:space="preserve">
<style type="text/css">
	.Red{fill:#D11C1C;}
	.Yellow{fill:#FFB115;}
	.Blue{fill:#1177D7;}
	.Green{fill:#039C23;}
	.Black{fill:#727272;}
	.White{fill:#FFFFFF;}
	.st0{opacity:0.5;}
	.st1{opacity:0.75;}
	.st2{opacity:0.35;}
	.st3{opacity:0.65;}
</style>
<g id="SplineArea">
	<path class="Yellow" d="M10,24c3.5,0,5.1-8.9,10.6-14.2C17.9,6,15.4,2,10,2C0,2,0,14,0,14C5,14,5,24,10,24z"/>
	<g class="st0">
		<path class="Blue" d="M20.6,9.8C22.9,13,25.4,16,30,16c0-2.7,0-5.8,0-10C25.9,6,22.9,7.6,20.6,9.8z"/>
	</g>
	<path class="Blue" d="M20.6,9.8C15.1,15.1,13.5,24,10,24C5,24,5,14,0,14v14h30c0,0,0-6,0-12C25.4,16,22.9,13,20.6,9.8z"/>
</g>
</svg>
