<?xml version="1.0" encoding="utf-8"?>
<!-- Generator: Adobe Illustrator 21.1.0, SVG Export Plug-In . SVG Version: 6.00 Build 0)  -->
<svg version="1.1" id="Layer_1" xmlns="http://www.w3.org/2000/svg" xmlns:xlink="http://www.w3.org/1999/xlink" x="0px" y="0px"
	 viewBox="0 0 32 32" style="enable-background:new 0 0 32 32;" xml:space="preserve">
<style type="text/css">
	.Red{fill:#D11C1C;}
	.Yellow{fill:#FFB115;}
	.Blue{fill:#1177D7;}
	.Green{fill:#039C23;}
	.Black{fill:#727272;}
	.White{fill:#FFFFFF;}
	.st0{opacity:0.5;}
	.st1{opacity:0.75;}
	.st2{opacity:0.35;}
	.st3{opacity:0.65;}
</style>
<g id="SwiftPlot">
	<polygon class="Blue" points="30,4 30,8 28,8 28,11 26,11 26,6 24,6 24,2 22,2 22,8 20,8 20,14 18,14 18,12 16,12 16,16 14,16 
		14,22 12,22 12,18 10,18 10,14 8,14 8,20 6,20 6,16 4,16 4,12 2,12 2,16 0,16 0,22 2,22 2,18 4,18 4,22 6,22 6,24 8,24 8,22 10,22 
		10,24 12,24 12,28 14,28 14,24 16,24 16,18 18,18 18,20 20,20 20,16 22,16 22,10 24,10 24,14 26,14 26,18 28,18 28,14 30,14 30,10 
		32,10 32,4 	"/>
</g>
</svg>
