<?xml version="1.0" encoding="utf-8"?>
<!-- Generator: Adobe Illustrator 21.1.0, SVG Export Plug-In . SVG Version: 6.00 Build 0)  -->
<svg version="1.1" id="Layer_1" xmlns="http://www.w3.org/2000/svg" xmlns:xlink="http://www.w3.org/1999/xlink" x="0px" y="0px"
	 viewBox="0 0 32 32" style="enable-background:new 0 0 32 32;" xml:space="preserve">
<style type="text/css">
	.Red{fill:#D11C1C;}
	.Yellow{fill:#FFB115;}
	.Blue{fill:#1177D7;}
	.Green{fill:#039C23;}
	.Black{fill:#727272;}
	.White{fill:#FFFFFF;}
	.st0{opacity:0.5;}
	.st1{opacity:0.75;}
	.st2{opacity:0.35;}
	.st3{opacity:0.65;}
</style>
<g id="SplineArea3D">
	<polygon class="Red" points="28,12 32,8 32,22 28,26 	"/>
	<g class="st0">
		<path class="Yellow" d="M20,16c-4,0-4,4-8,4s-4-8-8-8l-4,4c4,0,4,8,8,8s4-4,8-4s4,4,8,4c2-2,2-2,4-4C24,20,24,16,20,16z"/>
		<path class="Red" d="M24,4c-4,0-4,4-8,4s-4-8-8-8L4,4c4,0,4,8,8,8s4-4,8-4s4,4,8,4c2-2,2-2,4-4C28,8,28,4,24,4z"/>
	</g>
	<g class="st1">
		<path class="Yellow" d="M0,16c4,0,4,8,8,8s4-4,8-4s4,4,8,4c0,2,0,6,0,6H0C0,30,0,20,0,16z"/>
		<path class="Red" d="M20,8c-4,0-4,4-8,4S8,4,4,4c0,1.4,0,4.5,0,8c4,0,4,8,8,8s4-4,8-4s4,4,8,4c0-3.3,0-7,0-8C24,12,24,8,20,8z"/>
	</g>
	<polygon class="Yellow" points="24,24 28,20 28,26 24,30 	"/>
</g>
</svg>
