<?xml version="1.0" encoding="utf-8"?>
<!-- Generator: Adobe Illustrator 21.1.0, SVG Export Plug-In . SVG Version: 6.00 Build 0)  -->
<svg version="1.1" id="Layer_1" xmlns="http://www.w3.org/2000/svg" xmlns:xlink="http://www.w3.org/1999/xlink" x="0px" y="0px"
	 viewBox="0 0 32 32" style="enable-background:new 0 0 32 32;" xml:space="preserve">
<style type="text/css">
	.Red{fill:#D11C1C;}
	.Yellow{fill:#FFB115;}
	.Blue{fill:#1177D7;}
	.Green{fill:#039C23;}
	.Black{fill:#727272;}
	.White{fill:#FFFFFF;}
	.st0{opacity:0.5;}
	.st1{opacity:0.75;}
	.st2{opacity:0.35;}
	.st3{opacity:0.65;}
</style>
<g id="SideBySideBar3DStacked">
	<g class="st1">
		<path class="Red" d="M6,22H0v-6h6V22z M22,6h-6v12h6V6z"/>
	</g>
	<g class="st0">
		<path class="Black" d="M6,28H0v-6h6V28z M22,18h-6v10h6V18z"/>
	</g>
	<g class="st0">
		<path class="Red" d="M6,14v2H0l2-2H6z M18,4l-2,2h6l2-2H18z"/>
	</g>
	<polygon class="Red" points="24,8 22,10 22,6 24,4 	"/>
	<g class="st1">
		<path class="Blue" d="M12,16H6v-6h6V16z M28,10h-6v12h6V10z"/>
	</g>
	<g class="st1">
		<path class="Yellow" d="M12,28H6V16h6V28z M28,22h-6v6h6V22z"/>
	</g>
	<g class="st0">
		<path class="Blue" d="M14,8l-2,2H6l2-2H14z M24,8l-2,2h6l2-2H24z"/>
	</g>
	<path class="Blue" d="M14,14l-2,2v-6l2-2V14z M30,8l-2,2v12l2-2V8z"/>
	<path class="Yellow" d="M14,26l-2,2V16l2-2V26z M30,20l-2,2v6l2-2V20z"/>
</g>
</svg>
