<?xml version="1.0" encoding="utf-8"?>
<!-- Generator: Adobe Illustrator 22.1.0, SVG Export Plug-In . SVG Version: 6.00 Build 0)  -->
<svg version="1.1" id="ChartTypes_x5F_Point3D" xmlns="http://www.w3.org/2000/svg" xmlns:xlink="http://www.w3.org/1999/xlink"
	 x="0px" y="0px" viewBox="0 0 32 32" style="enable-background:new 0 0 32 32;" xml:space="preserve">
<style type="text/css">
	.Blue{fill:#1177D7;}
	.Yellow{fill:#FFB115;}
	.Red{fill:#D11C1C;}
</style>
<path class="Yellow" d="M7,12c-1.7,0-3,1.3-3,3s1.3,3,3,3s3-1.3,3-3S8.7,12,7,12z M8,15c-0.6,0-1-0.4-1-1c0-0.6,0.4-1,1-1s1,0.4,1,1
	C9,14.6,8.6,15,8,15z M25,10c-1.7,0-3,1.3-3,3s1.3,3,3,3s3-1.3,3-3S26.7,10,25,10z M26,13c-0.6,0-1-0.4-1-1c0-0.6,0.4-1,1-1
	s1,0.4,1,1C27,12.6,26.6,13,26,13z"/>
<path class="Red" d="M15,16c-1.7,0-3,1.3-3,3s1.3,3,3,3s3-1.3,3-3S16.7,16,15,16z M16,19c-0.6,0-1-0.4-1-1c0-0.6,0.4-1,1-1
	s1,0.4,1,1C17,18.6,16.6,19,16,19z"/>
<path class="Blue" d="M7,22c-1.7,0-3,1.3-3,3s1.3,3,3,3s3-1.3,3-3S8.7,22,7,22z M8,25c-0.6,0-1-0.4-1-1c0-0.6,0.4-1,1-1s1,0.4,1,1
	C9,24.6,8.6,25,8,25z M17,4c-1.7,0-3,1.3-3,3s1.3,3,3,3s3-1.3,3-3S18.7,4,17,4z M18,7c-0.6,0-1-0.4-1-1c0-0.6,0.4-1,1-1s1,0.4,1,1
	C19,6.6,18.6,7,18,7z"/>
</svg>
