<?xml version="1.0" encoding="utf-8"?>
<!-- Generator: Adobe Illustrator 21.1.0, SVG Export Plug-In . SVG Version: 6.00 Build 0)  -->
<svg version="1.1" id="Layer_1" xmlns="http://www.w3.org/2000/svg" xmlns:xlink="http://www.w3.org/1999/xlink" x="0px" y="0px"
	 viewBox="0 0 32 32" style="enable-background:new 0 0 32 32;" xml:space="preserve">
<style type="text/css">
	.Red{fill:#D11C1C;}
	.Yellow{fill:#FFB115;}
	.Blue{fill:#1177D7;}
	.Green{fill:#039C23;}
	.Black{fill:#727272;}
	.White{fill:#FFFFFF;}
	.st0{opacity:0.5;}
	.st1{opacity:0.75;}
	.st2{opacity:0.35;}
	.st3{opacity:0.65;}
</style>
<g id="BarStacked100_x25_">
	<g>
		<path class="Yellow" d="M10,28H4v-8h6V28z M18,22h-6v6h6V22z M26,20h-6v8h6V20z"/>
		<path class="Yellow" d="M10,20H4v-8h6V20z M18,10h-6v12h6V10z M26,14h-6v6h6V14z"/>
		<path class="Yellow" d="M10,12H4V4h6V12z M18,4h-6v6h6V4z M26,4h-6v10h6V4z"/>
	</g>
	<g>
		<path class="Red" d="M10,28H4v-8h6V28z M18,22h-6v6h6V22z M26,20h-6v8h6V20z"/>
		<path class="Yellow" d="M10,20H4v-8h6V20z M18,10h-6v12h6V10z M26,14h-6v6h6V14z"/>
		<path class="Blue" d="M10,12H4V4h6V12z M18,4h-6v6h6V4z M26,4h-6v10h6V4z"/>
	</g>
</g>
</svg>
