<?xml version="1.0" encoding="utf-8"?>
<!-- Generator: Adobe Illustrator 21.1.0, SVG Export Plug-In . SVG Version: 6.00 Build 0)  -->
<svg version="1.1" id="Layer_1" xmlns="http://www.w3.org/2000/svg" xmlns:xlink="http://www.w3.org/1999/xlink" x="0px" y="0px"
	 viewBox="0 0 32 32" style="enable-background:new 0 0 32 32;" xml:space="preserve">
<style type="text/css">
	.Red{fill:#D11C1C;}
	.Yellow{fill:#FFB115;}
	.Blue{fill:#1177D7;}
	.Green{fill:#039C23;}
	.Black{fill:#727272;}
	.White{fill:#FFFFFF;}
	.st0{opacity:0.5;}
	.st1{opacity:0.75;}
	.st2{opacity:0.35;}
	.st3{opacity:0.65;}
</style>
<g id="StepLine3D">
	<g class="st1">
		<polygon class="Green" points="20,22 20,18 6,18 6,26 0,26 0,30 10,30 10,22 16,22 16,26 24,26 24,32 28,32 28,22 		"/>
		<polygon class="Blue" points="16,2 16,6 6,6 6,10 0,10 0,14 10,14 10,10 20,10 20,6 28,6 28,2 		"/>
	</g>
	<g class="st2">
		<path class="Green" d="M22,16l-2,2H6l2-2H22z M22,20l-2,2h8l2-2H22z M2,24l-2,2h6v-2H2z"/>
		<path class="Blue" d="M0,10l2-2h4v2H0z M16,6V4H8L6,6H16z M28,2l2-2H18l-2,2H28z"/>
	</g>
	<path class="Green" d="M22,16v4l-2,2v-4L22,16z M28,22v10l2-2V20L28,22z M10,30l2-2v-6h-2V30z"/>
	<path class="Blue" d="M28,2l2-2v4l-2,2V2z M20,10l2-2V6h-2V10z M10,14l2-2v-2h-2V14z"/>
</g>
</svg>
