<?xml version="1.0" encoding="utf-8"?>
<!-- Generator: Adobe Illustrator 21.1.0, SVG Export Plug-In . SVG Version: 6.00 Build 0)  -->
<svg version="1.1" id="Layer_1" xmlns="http://www.w3.org/2000/svg" xmlns:xlink="http://www.w3.org/1999/xlink" x="0px" y="0px"
	 viewBox="0 0 32 32" style="enable-background:new 0 0 32 32;" xml:space="preserve">
<style type="text/css">
	.Red{fill:#D11C1C;}
	.Yellow{fill:#FFB115;}
	.Blue{fill:#1177D7;}
	.Green{fill:#039C23;}
	.Black{fill:#727272;}
	.White{fill:#FFFFFF;}
	.st0{opacity:0.5;}
	.st1{opacity:0.75;}
	.st2{opacity:0.35;}
	.st3{opacity:0.65;}
</style>
<g id="Line3DStacked">
	<polygon class="Blue" points="28,8 30,6 30,1 28,3 	"/>
	<g class="st1">
		<polygon class="Blue" points="17,14 10,7 2,15 2,20 10,12 17,19 28,8 28,3 		"/>
		<polygon class="Red" points="17,26 10,19 2,27 2,32 10,24 17,31 28,20 28,15 		"/>
	</g>
	<polygon class="Red" points="28,20 30,18 30,13 28,15 	"/>
	<g class="st0">
		
			<rect x="13.1" y="4.6" transform="matrix(0.7071 -0.7071 0.7071 0.7071 -2.4706 13.0355)" class="Blue" width="2.8" height="9.9"/>
		
			<rect x="13.1" y="16.6" transform="matrix(0.7071 -0.7071 0.7071 0.7071 -10.9558 16.5503)" class="Red" width="2.8" height="9.9"/>
	</g>
</g>
</svg>
