<?xml version="1.0" encoding="utf-8"?>
<!-- Generator: Adobe Illustrator 21.1.0, SVG Export Plug-In . SVG Version: 6.00 Build 0)  -->
<svg version="1.1" id="Layer_1" xmlns="http://www.w3.org/2000/svg" xmlns:xlink="http://www.w3.org/1999/xlink" x="0px" y="0px"
	 viewBox="0 0 32 32" style="enable-background:new 0 0 32 32;" xml:space="preserve">
<style type="text/css">
	.Red{fill:#D11C1C;}
	.Yellow{fill:#FFB115;}
	.Blue{fill:#1177D7;}
	.Green{fill:#039C23;}
	.Black{fill:#727272;}
	.White{fill:#FFFFFF;}
	.st0{opacity:0.5;}
	.st1{opacity:0.75;}
	.st2{opacity:0.35;}
	.st3{opacity:0.65;}
</style>
<g id="SplineArea3DStacked_1_">
	<g class="st1">
		<path class="Yellow" d="M2,12c4,0,4,8,8,8s4-4,8-4s4,4,8,4c0,2,0,10,0,10H2C2,30,2,16,2,12z"/>
		<path class="Red" d="M2,6v6c4,0,4,8,8,8s4-4,8-4s4,4,8,4V6H2z"/>
	</g>
	<g class="st0">
		<polygon class="Red" points="6,2 2,6 26,6 30,2 		"/>
	</g>
	<polygon class="Yellow" points="30,26 26,30 26,20 30,16 	"/>
	<polygon class="Red" points="30,2 30,16 26,20 26,6 	"/>
</g>
</svg>
