<?xml version="1.0" encoding="utf-8"?>
<!-- Generator: Adobe Illustrator 21.1.0, SVG Export Plug-In . SVG Version: 6.00 Build 0)  -->
<svg version="1.1" id="Layer_1" xmlns="http://www.w3.org/2000/svg" xmlns:xlink="http://www.w3.org/1999/xlink" x="0px" y="0px"
	 viewBox="0 0 32 32" style="enable-background:new 0 0 32 32;" xml:space="preserve">
<style type="text/css">
	.Red{fill:#D11C1C;}
	.Yellow{fill:#FFB115;}
	.Blue{fill:#1177D7;}
	.Green{fill:#039C23;}
	.Black{fill:#727272;}
	.White{fill:#FFFFFF;}
	.st0{opacity:0.5;}
	.st1{opacity:0.75;}
	.st2{opacity:0.35;}
	.st3{opacity:0.65;}
</style>
<g id="RadarLine_1_">
	<g class="st2">
		<path class="Black" d="M23.7,9.7C23.5,9.9,23.3,10,23,10c-0.6,0-1-0.4-1-1c0-0.3,0.1-0.5,0.3-0.7C20.6,6.9,18.4,6,16,6
			c-5,0-9.2,3.7-9.9,8.6C6.3,14.2,6.6,14,7,14c0.6,0,1,0.4,1,1s-0.4,1-1,1c-0.5,0-0.9-0.3-1-0.8c0,0.3,0,0.5,0,0.8
			c0,5.5,4.5,10,10,10c0.3,0,0.5,0,0.8,0c-0.5-0.1-0.8-0.5-0.8-1c0-0.6,0.4-1,1-1s1,0.4,1,1c0,0.4-0.2,0.7-0.6,0.9
			C22.3,25.2,26,21,26,16C26,13.6,25.1,11.4,23.7,9.7z M16,24c-4.4,0-8-3.6-8-8c0-3,1.6-5.5,4-6.9V9c0-0.6,0.4-1,1-1
			c0.3,0,0.6,0.1,0.7,0.3C14.5,8.1,15.2,8,16,8c4.4,0,8,3.6,8,8S20.4,24,16,24z M16,0C7.2,0,0,7.2,0,16s7.2,16,16,16s16-7.2,16-16
			S24.8,0,16,0z M16,30C8.3,30,2,23.7,2,16S8.3,2,16,2s14,6.3,14,14S23.7,30,16,30z M16,12c-2.2,0-4,1.8-4,4s1.8,4,4,4s4-1.8,4-4
			S18.2,12,16,12z M16,18c-1.1,0-2-0.9-2-2s0.9-2,2-2s2,0.9,2,2S17.1,18,16,18z"/>
	</g>
	<path class="Blue" d="M23,6c-1.3,0-2.4,0.8-2.8,2h-4.4c-0.4-1.2-1.5-2-2.8-2c-1.7,0-3,1.3-3,3c0,0.5,0.1,0.9,0.3,1.3l-2,2
		C7.9,12.1,7.5,12,7,12c-1.7,0-3,1.3-3,3s1.3,3,3,3c0.5,0,0.9-0.1,1.3-0.3l6,6C14.1,24.1,14,24.5,14,25c0,1.7,1.3,3,3,3s3-1.3,3-3
		c0-0.9-0.4-1.8-1.1-2.3L23,12c1.6,0,3-1.4,3-3C26,7.3,24.7,6,23,6z M7,16c-0.6,0-1-0.4-1-1c0-0.6,0.4-1,1-1s1,0.4,1,1
		C8,15.6,7.6,16,7,16z M13,8c0.6,0,1,0.4,1,1c0,0.6-0.4,1-1,1s-1-0.4-1-1C12,8.4,12.4,8,13,8z M17,26c-0.6,0-1-0.4-1-1
		c0-0.6,0.4-1,1-1s1,0.4,1,1C18,25.6,17.6,26,17,26z M17,22C17,22,17,22,17,22c-0.5,0-0.9,0.1-1.3,0.3l-6-6C9.9,15.9,10,15.5,10,15
		s-0.1-0.9-0.3-1.3l2-2c0.4,0.2,0.8,0.3,1.3,0.3c1.3,0,2.4-0.8,2.8-2h4.4c0.2,0.5,0.5,1,1,1.3L17,22z M23,10c-0.6,0-1-0.4-1-1
		c0-0.6,0.4-1,1-1s1,0.4,1,1C24,9.6,23.6,10,23,10z"/>
</g>
</svg>
