<?xml version="1.0" encoding="utf-8"?>
<!-- Generator: Adobe Illustrator 21.1.0, SVG Export Plug-In . SVG Version: 6.00 Build 0)  -->
<svg version="1.1" id="Layer_1" xmlns="http://www.w3.org/2000/svg" xmlns:xlink="http://www.w3.org/1999/xlink" x="0px" y="0px"
	 viewBox="0 0 32 32" style="enable-background:new 0 0 32 32;" xml:space="preserve">
<style type="text/css">
	.Red{fill:#D11C1C;}
	.Yellow{fill:#FFB115;}
	.Blue{fill:#1177D7;}
	.Green{fill:#039C23;}
	.Black{fill:#727272;}
	.White{fill:#FFFFFF;}
	.st0{opacity:0.5;}
	.st1{opacity:0.75;}
	.st2{opacity:0.35;}
	.st3{opacity:0.65;}
</style>
<g id="SplineAreaStacked100_x25_">
	<path class="Yellow" d="M2,12v14c4.6-3.8,10.6-6,17-6c3.9,0,7.6,0.8,11,2.3V8c-8,0-12,8-18,8S2,12,2,12z"/>
	<path class="Blue" d="M2,4v8c0,0,4,4,10,4s10-8,18-8V4H2z"/>
	<path class="Red" d="M2,26v2h28v-5.7c-3.4-1.5-7.1-2.3-11-2.3C12.6,20,6.6,22.3,2,26z"/>
</g>
</svg>
