<?xml version="1.0" encoding="utf-8"?>
<!-- Generator: Adobe Illustrator 21.1.0, SVG Export Plug-In . SVG Version: 6.00 Build 0)  -->
<svg version="1.1" id="Layer_1" xmlns="http://www.w3.org/2000/svg" xmlns:xlink="http://www.w3.org/1999/xlink" x="0px" y="0px"
	 viewBox="0 0 32 32" style="enable-background:new 0 0 32 32;" xml:space="preserve">
<style type="text/css">
	.Red{fill:#D11C1C;}
	.Yellow{fill:#FFB115;}
	.Blue{fill:#1177D7;}
	.Green{fill:#039C23;}
	.Black{fill:#727272;}
	.White{fill:#FFFFFF;}
	.st0{opacity:0.5;}
	.st1{opacity:0.75;}
	.st2{opacity:0.35;}
	.st3{opacity:0.65;}
</style>
<g id="RadarArea_2_">
	<g class="st2">
		<path class="Black" d="M16,0C7.2,0,0,7.2,0,16s7.2,16,16,16s16-7.2,16-16S24.8,0,16,0z M16,30C8.3,30,2,23.7,2,16S8.3,2,16,2
			s14,6.3,14,14S23.7,30,16,30z M16,6C10.5,6,6,10.5,6,16c0,5.5,4.5,10,10,10s10-4.5,10-10C26,10.5,21.5,6,16,6z M16,24
			c-4.4,0-8-3.6-8-8s3.6-8,8-8s8,3.6,8,8S20.4,24,16,24z M16,12c-2.2,0-4,1.8-4,4c0,2.2,1.8,4,4,4s4-1.8,4-4C20,13.8,18.2,12,16,12z
			 M16,18c-1.1,0-2-0.9-2-2c0-1.1,0.9-2,2-2s2,0.9,2,2C18,17.1,17.1,18,16,18z"/>
	</g>
	<g class="st1">
		<path class="Blue" d="M24,10V9.5l0.7-1.8L22.8,7l-0.4,1h-9.4l-0.2-0.2L12.6,8H12v0.6l-5,5L6.4,13L5,14.4l10.8,10.8l-0.2,0.5
			l1.1,0.4l1.1,1.1l1.4-1.4l-1-1L23.8,10H24z"/>
	</g>
	<path class="Blue" d="M26,9c0-1.7-1.3-3-3-3c-1.3,0-2.4,0.8-2.8,2h-4.4c-0.4-1.2-1.5-2-2.8-2c-1.7,0-3,1.3-3,3
		c0,0.5,0.1,0.9,0.3,1.3l-2,2C7.9,12.1,7.5,12,7,12c-1.7,0-3,1.3-3,3s1.3,3,3,3c0.5,0,0.9-0.1,1.3-0.3l6,6C14.1,24.1,14,24.5,14,25
		c0,1.7,1.3,3,3,3s3-1.3,3-3c0-0.9-0.4-1.8-1.1-2.3L23,12C24.7,12,26,10.6,26,9z M17,22c-0.5,0-0.9,0.1-1.3,0.3l-6-6
		C9.9,15.9,10,15.5,10,15s-0.1-0.9-0.3-1.3l2-2c0.4,0.2,0.8,0.3,1.3,0.3c1.3,0,2.4-0.8,2.8-2h4.4c0.2,0.5,0.5,1,1,1.3L17,22
		C17,22,17,22,17,22z"/>
	<circle class="White" cx="7" cy="15" r="1"/>
	<circle class="White" cx="17" cy="25" r="1"/>
	<circle class="White" cx="23" cy="9" r="1"/>
	<circle class="White" cx="13" cy="9" r="1"/>
</g>
</svg>
