<?xml version="1.0" encoding="utf-8"?>
<!-- Generator: Adobe Illustrator 21.1.0, SVG Export Plug-In . SVG Version: 6.00 Build 0)  -->
<svg version="1.1" id="Layer_1" xmlns="http://www.w3.org/2000/svg" xmlns:xlink="http://www.w3.org/1999/xlink" x="0px" y="0px"
	 viewBox="0 0 32 32" style="enable-background:new 0 0 32 32;" xml:space="preserve">
<style type="text/css">
	.Red{fill:#D11C1C;}
	.Yellow{fill:#FFB115;}
	.Blue{fill:#1177D7;}
	.Green{fill:#039C23;}
	.Black{fill:#727272;}
	.White{fill:#FFFFFF;}
	.st0{opacity:0.5;}
	.st1{opacity:0.75;}
	.st2{opacity:0.35;}
	.st3{opacity:0.65;}
</style>
<g id="RadarRangeArea_1_">
	<g class="st2">
		<path class="Black" d="M16,0C7.2,0,0,7.2,0,16s7.2,16,16,16s16-7.2,16-16S24.8,0,16,0z M16,30C8.3,30,2,23.7,2,16S8.3,2,16,2
			s14,6.3,14,14S23.7,30,16,30z M16,6C10.5,6,6,10.5,6,16c0,5.5,4.5,10,10,10s10-4.5,10-10C26,10.5,21.5,6,16,6z M16,24
			c-4.4,0-8-3.6-8-8s3.6-8,8-8s8,3.6,8,8S20.4,24,16,24z M16,12c-2.2,0-4,1.8-4,4c0,2.2,1.8,4,4,4s4-1.8,4-4C20,13.8,18.2,12,16,12z
			 M16,18c-1.1,0-2-0.9-2-2c0-1.1,0.9-2,2-2s2,0.9,2,2C18,17.1,17.1,18,16,18z"/>
	</g>
	<g class="st1">
		<path class="Blue" d="M24,8V6H8v2H6v16h2v2h16v-2h2V8H24z M22,22H10V10h12V22z"/>
	</g>
	<path class="Blue" d="M26,22.2V9.8c1.2-0.4,2-1.5,2-2.8c0-1.7-1.3-3-3-3c-1.3,0-2.4,0.8-2.8,2H9.8C9.4,4.8,8.3,4,7,4
		C5.3,4,4,5.3,4,7c0,1.3,0.8,2.4,2,2.8v12.4c-1.2,0.4-2,1.5-2,2.8c0,1.7,1.3,3,3,3c1.3,0,2.4-0.8,2.8-2h12.4c0.4,1.2,1.5,2,2.8,2
		c1.7,0,3-1.3,3-3C28,23.7,27.2,22.6,26,22.2z M25,6c0.6,0,1,0.4,1,1c0,0.6-0.4,1-1,1c-0.6,0-1-0.4-1-1C24,6.4,24.4,6,25,6z M9.8,8
		H11h10h1.2c0,0.1,0.1,0.2,0.1,0.3C21.9,8.1,21.5,8,21,8c-1.3,0-2.4,0.8-2.8,2h-4.4c-0.4-1.2-1.5-2-2.8-2c-0.5,0-0.9,0.1-1.3,0.3
		C9.7,8.2,9.8,8.1,9.8,8z M11,12c-0.6,0-1-0.4-1-1c0-0.6,0.4-1,1-1c0.6,0,1,0.4,1,1C12,11.6,11.6,12,11,12z M12,21c0,0.6-0.4,1-1,1
		c-0.6,0-1-0.4-1-1c0-0.6,0.4-1,1-1C11.6,20,12,20.4,12,21z M12,13.8c0.8-0.3,1.5-1,1.8-1.8h4.4c0.3,0.8,1,1.5,1.8,1.8v4.4
		c-0.8,0.3-1.5,1-1.8,1.8h-4.4c-0.3-0.8-1-1.5-1.8-1.8V13.8z M21,20c0.6,0,1,0.4,1,1c0,0.6-0.4,1-1,1c-0.6,0-1-0.4-1-1
		C20,20.4,20.4,20,21,20z M21,12c-0.6,0-1-0.4-1-1c0-0.6,0.4-1,1-1c0.6,0,1,0.4,1,1C22,11.6,21.6,12,21,12z M7,6c0.6,0,1,0.4,1,1
		c0,0.6-0.4,1-1,1C6.4,8,6,7.6,6,7C6,6.4,6.4,6,7,6z M7,26c-0.6,0-1-0.4-1-1c0-0.6,0.4-1,1-1c0.6,0,1,0.4,1,1C8,25.6,7.6,26,7,26z
		 M8,21c0,0.5,0.1,0.9,0.3,1.3c-0.1-0.1-0.2-0.1-0.3-0.1V21V11V9.8c0.1,0,0.2-0.1,0.3-0.1C8.1,10.1,8,10.5,8,11c0,1.3,0.8,2.4,2,2.8
		v4.4C8.8,18.6,8,19.7,8,21z M22.2,24H21H11H9.8c0-0.1-0.1-0.2-0.1-0.3c0.4,0.2,0.8,0.3,1.3,0.3c1.3,0,2.4-0.8,2.8-2h4.4
		c0.4,1.2,1.5,2,2.8,2c0.5,0,0.9-0.1,1.3-0.3C22.3,23.8,22.2,23.9,22.2,24z M22,18.2v-4.4c1.2-0.4,2-1.5,2-2.8
		c0-0.5-0.1-0.9-0.3-1.3c0.1,0.1,0.2,0.1,0.3,0.1V11v10v1.2c-0.1,0-0.2,0.1-0.3,0.1c0.2-0.4,0.3-0.8,0.3-1.3
		C24,19.7,23.2,18.6,22,18.2z M25,26c-0.6,0-1-0.4-1-1c0-0.6,0.4-1,1-1c0.6,0,1,0.4,1,1C26,25.6,25.6,26,25,26z"/>
</g>
</svg>
