<?xml version="1.0" encoding="utf-8"?>
<!-- Generator: Adobe Illustrator 21.1.0, SVG Export Plug-In . SVG Version: 6.00 Build 0)  -->
<svg version="1.1" id="Layer_1" xmlns="http://www.w3.org/2000/svg" xmlns:xlink="http://www.w3.org/1999/xlink" x="0px" y="0px"
	 viewBox="0 0 32 32" style="enable-background:new 0 0 32 32;" xml:space="preserve">
<style type="text/css">
	.Red{fill:#D11C1C;}
	.Yellow{fill:#FFB115;}
	.Blue{fill:#1177D7;}
	.Green{fill:#039C23;}
	.Black{fill:#727272;}
	.White{fill:#FFFFFF;}
	.st0{opacity:0.5;}
	.st1{opacity:0.75;}
	.st2{opacity:0.35;}
	.st3{opacity:0.65;}
</style>
<path class="Green" d="M30,22.2V14h-6.2c-0.3-0.8-1-1.5-1.8-1.8V6h-8.2c-0.4-1.2-1.5-2-2.8-2C9.3,4,8,5.3,8,7c0,1.3,0.8,2.4,2,2.8
	V18H5.8c-0.4-1.2-1.5-2-2.8-2c-1.7,0-3,1.3-3,3s1.3,3,3,3c1.3,0,2.4-0.8,2.8-2H12V9.8c0.8-0.3,1.5-1,1.8-1.8H20v4.2
	c-1.2,0.4-2,1.5-2,2.8c0,1.7,1.3,3,3,3c1.3,0,2.4-0.8,2.8-2H28v6.2c-1.2,0.4-2,1.5-2,2.8c0,1.7,1.3,3,3,3s3-1.3,3-3
	C32,23.7,31.2,22.6,30,22.2z M3,20c-0.6,0-1-0.4-1-1s0.4-1,1-1s1,0.4,1,1S3.6,20,3,20z M5.9,19.5C6,19.4,6,19.2,6,19
	c0-0.2,0-0.4-0.1-0.5C6,18.6,6,18.8,6,19S6,19.4,5.9,19.5z M11,10c-0.2,0-0.4,0-0.5-0.1C10.6,10,10.8,10,11,10c0.2,0,0.4,0,0.5-0.1
	C11.4,10,11.2,10,11,10z M11,8c-0.6,0-1-0.4-1-1s0.4-1,1-1s1,0.4,1,1S11.6,8,11,8z M13.9,7.5C14,7.4,14,7.2,14,7
	c0-0.2,0-0.4-0.1-0.5C14,6.6,14,6.8,14,7S14,7.4,13.9,7.5z M21,12c0.2,0,0.4,0,0.5,0.1C21.4,12,21.2,12,21,12c-0.2,0-0.4,0-0.5,0.1
	C20.6,12,20.8,12,21,12z M21,16c-0.6,0-1-0.4-1-1s0.4-1,1-1s1,0.4,1,1S21.6,16,21,16z M23.9,15.5c0-0.2,0.1-0.3,0.1-0.5
	c0-0.2,0-0.4-0.1-0.5c0,0.2,0.1,0.3,0.1,0.5S24,15.4,23.9,15.5z M29,22c0.2,0,0.4,0,0.5,0.1C29.4,22,29.2,22,29,22
	c-0.2,0-0.4,0-0.5,0.1C28.6,22,28.8,22,29,22z M29,26c-0.6,0-1-0.4-1-1s0.4-1,1-1s1,0.4,1,1S29.6,26,29,26z"/>
</svg>
