<?xml version="1.0" encoding="utf-8"?>
<!-- Generator: Adobe Illustrator 21.1.0, SVG Export Plug-In . SVG Version: 6.00 Build 0)  -->
<svg version="1.1" id="Layer_1" xmlns="http://www.w3.org/2000/svg" xmlns:xlink="http://www.w3.org/1999/xlink" x="0px" y="0px"
	 viewBox="0 0 32 32" style="enable-background:new 0 0 32 32;" xml:space="preserve">
<style type="text/css">
	.Red{fill:#D11C1C;}
	.Yellow{fill:#FFB115;}
	.Blue{fill:#1177D7;}
	.Green{fill:#039C23;}
	.Black{fill:#727272;}
	.White{fill:#FFFFFF;}
	.st0{opacity:0.5;}
	.st1{opacity:0.75;}
	.st2{opacity:0.35;}
	.st3{opacity:0.65;}
</style>
<g id="StepArea3D">
	<g class="st1">
		<polygon class="Blue" points="0,28 0,14 6,14 6,6 14,6 14,10 20,10 20,18 26,18 26,28 		"/>
	</g>
	<g class="st0">
		<path class="Blue" d="M0,14l4-4h2v4H0z M10,2L6,6h8l4-4H10z M18,6l-4,4h6l4-4H18z M24,14l-4,4h6l4-4H24z"/>
	</g>
	<path class="Blue" d="M26,18l4-4v10l-4,4V18z M14,6v4l4-4V2L14,6z M20,10v8l4-4V6L20,10z"/>
</g>
</svg>
