<?xml version="1.0" encoding="utf-8"?>
<!-- Generator: Adobe Illustrator 21.1.0, SVG Export Plug-In . SVG Version: 6.00 Build 0)  -->
<svg version="1.1" id="Layer_1" xmlns="http://www.w3.org/2000/svg" xmlns:xlink="http://www.w3.org/1999/xlink" x="0px" y="0px"
	 viewBox="0 0 32 32" style="enable-background:new 0 0 32 32;" xml:space="preserve">
<style type="text/css">
	.Red{fill:#D11C1C;}
	.Yellow{fill:#FFB115;}
	.Blue{fill:#1177D7;}
	.Green{fill:#039C23;}
	.Black{fill:#727272;}
	.White{fill:#FFFFFF;}
	.st0{opacity:0.5;}
	.st1{opacity:0.75;}
	.st2{opacity:0.35;}
	.st3{opacity:0.65;}
</style>
<g id="Spline3D">
	<g class="st1">
		<path class="Green" d="M20.6,8.6C17.8,10.8,16,14.2,16,18c0,0.6-0.1,1.1-0.4,1.6C15,21,13.6,22,12,22c-2.2,0-4-1.8-4-4
			c0-3.3-2.7-6-6-6v2v2c1.1,0,2,0.9,2,2c0,4.4,3.6,8,8,8c0.7,0,1.4-0.1,2-0.3c0,0,0.1,0,0.1,0c0.2-0.1,0.5-0.1,0.7-0.2
			c0.1,0,0.1,0,0.2-0.1c0.3-0.1,0.5-0.2,0.8-0.4c0.1-0.1,0.3-0.2,0.4-0.2c0.1-0.1,0.2-0.1,0.3-0.2c0.2-0.1,0.3-0.2,0.4-0.3
			c0.1-0.1,0.2-0.2,0.3-0.2c1.7-1.5,2.7-3.6,2.7-6c0-2.7,1.4-5.1,3.4-6.6c1.3-0.9,2.9-1.4,4.6-1.4V8.3V6C25.2,6,22.6,7,20.6,8.6z"/>
	</g>
	<path class="Green" d="M14,20c0.6,0,1.1-0.1,1.6-0.4C15,21,13.6,22,12,22c-2.2,0-4-1.8-4-4c0-3.3-2.7-6-6-6l2-2c3.3,0,6,2.7,6,6
		C10,18.2,11.8,20,14,20z M20,18c0,2.4-1.1,4.5-2.7,6c0.1-0.1,0.3-0.2,0.4-0.3l2-2c1.4-1.4,2.3-3.4,2.3-5.7c0-1.7,0.5-3.3,1.4-4.6
		C21.4,12.9,20,15.3,20,18z M28,6v2.3V10l2-2V4L28,6z"/>
	<g class="st0">
		<path class="Green" d="M20.6,8.6C22.6,7,25.2,6,28,6l2-2C26.2,4,22.8,5.8,20.6,8.6z"/>
	</g>
</g>
</svg>
