<?xml version="1.0" encoding="utf-8"?>
<!-- Generator: Adobe Illustrator 20.1.0, SVG Export Plug-In . SVG Version: 6.00 Build 0)  -->
<svg version="1.1" id="Layer_1" xmlns="http://www.w3.org/2000/svg" xmlns:xlink="http://www.w3.org/1999/xlink" x="0px" y="0px"
	 viewBox="0 0 16 16" style="enable-background:new 0 0 16 16;" xml:space="preserve">
<style type="text/css">
	.Black{fill:#727272;}
	.White{fill:#FFFFFF;}
	.Green{fill:#039C23;}
	.st0{opacity:0.6;}
	.st1{opacity:0.5;}
</style>
<path class="Black" d="M15,1H1C0.5,1,0,1.5,0,2v12c0,0.5,0.5,1,1,1h14c0.5,0,1-0.5,1-1V2C16,1.5,15.5,1,15,1z M15,14H1V2h14V14z"/>
<path class="Green" d="M0,5V2c0-0.5,0.5-1,1-1h14c0.6,0,1,0.5,1,1v3H0z"/>
<g id="Layer_2" class="st0">
	<rect x="1" y="2" class="White" width="14" height="2"/>
</g>
<rect x="1" y="5" class="White" width="14" height="9"/>
<path class="Black" d="M5,12H4.1V8.4C3.8,8.7,3.4,9,3,9.1V8.3C3.2,8.2,3.5,8,3.7,7.8C4,7.6,4.2,7.3,4.3,7H5V12z"/>
<path class="Black" d="M12,12h-0.9V8.4C10.8,8.7,10.4,9,10,9.1V8.3c0.2-0.1,0.5-0.2,0.7-0.5C11,7.6,11.2,7.3,11.3,7H12V12z"/>
<path class="Black" d="M7.5,7c0.4,0,0.8,0.2,1,0.5C8.8,7.9,9,8.6,9,9.5c0,0.9-0.2,1.6-0.5,2c-0.2,0.3-0.6,0.5-1,0.5
	c-0.4,0-0.8-0.2-1.1-0.5c-0.3-0.4-0.4-1-0.4-2c0-0.9,0.2-1.6,0.5-2C6.7,7.2,7.1,7,7.5,7z M7.5,7.8c-0.1,0-0.2,0-0.3,0.1
	S7.1,8.1,7,8.3C7,8.5,6.9,8.9,6.9,9.5s0,1,0.1,1.2c0.1,0.2,0.1,0.4,0.2,0.4s0.2,0.1,0.3,0.1s0.2,0,0.3-0.1C7.9,11,7.9,10.9,8,10.7
	c0.1-0.2,0.1-0.6,0.1-1.2s0-1-0.1-1.2C7.9,8.1,7.9,8,7.8,7.9C7.7,7.8,7.6,7.8,7.5,7.8z"/>
</svg>
