<?xml version="1.0" encoding="utf-8"?>
<!-- Generator: Adobe Illustrator 21.1.0, SVG Export Plug-In . SVG Version: 6.00 Build 0)  -->
<svg version="1.1" id="Layer_1" xmlns="http://www.w3.org/2000/svg" xmlns:xlink="http://www.w3.org/1999/xlink" x="0px" y="0px"
	 viewBox="0 0 32 32" style="enable-background:new 0 0 32 32;" xml:space="preserve">
<style type="text/css">
	.Black{fill:#727272;}
	.Yellow{fill:#FFB115;}
	.Blue{fill:#1177D7;}
	.Green{fill:#039C23;}
	.Red{fill:#D11C1C;}
	.White{fill:#FFFFFF;}
	.st0{opacity:0.75;}
	.st1{opacity:0.5;}
	.st2{opacity:0.25;}
</style>
<g id="Barcode">
	<path class="Black" d="M29,4H1C0.5,4,0,4.5,0,5v22c0,0.5,0.5,1,1,1h28c0.5,0,1-0.5,1-1V5C30,4.5,29.5,4,29,4z M28,26H2V6h26V26z
		 M6,24H4V8h2V24z M10,20H8V8h2V20z M14,24h-2V8h2V24z M18,20h-2V8h2V20z M22,20h-2V8h2V20z M26,24h-2V8h2V24z"/>
</g>
</svg>
