<?xml version="1.0" encoding="utf-8"?>
<!-- Generator: Adobe Illustrator 20.1.0, SVG Export Plug-In . SVG Version: 6.00 Build 0)  -->
<svg version="1.1" id="Layer_1" xmlns="http://www.w3.org/2000/svg" xmlns:xlink="http://www.w3.org/1999/xlink" x="0px" y="0px"
	 viewBox="0 0 16 16" style="enable-background:new 0 0 16 16;" xml:space="preserve">
<style type="text/css">
	.Black{fill:#727272;}
	.White{fill:#FFFFFF;}
	.Green{fill:#039C23;}
	.st0{opacity:0.6;}
	.st1{opacity:0.5;}
</style>
<path class="Black" d="M15,1H1C0.5,1,0,1.5,0,2v12c0,0.5,0.5,1,1,1h14c0.5,0,1-0.5,1-1V2C16,1.5,15.5,1,15,1z M15,14H1V2h14V14z"/>
<path class="Green" d="M0,5V2c0-0.5,0.5-1,1-1h14c0.6,0,1,0.5,1,1v3H0z"/>
<g id="Layer_2" class="st0">
	<rect x="1" y="2" class="White" width="14" height="2"/>
</g>
<rect x="1" y="5" class="White" width="14" height="9"/>
<polygon class="Black" points="7.5,12.5 4.5,9.5 5.5,8.5 7.5,10.5 11.5,6.5 12.5,7.5 "/>
</svg>
