<?xml version="1.0" encoding="utf-8"?>
<!-- Generator: Adobe Illustrator 20.1.0, SVG Export Plug-In . SVG Version: 6.00 Build 0)  -->
<svg version="1.1" id="Layer_1" xmlns="http://www.w3.org/2000/svg" xmlns:xlink="http://www.w3.org/1999/xlink" x="0px" y="0px"
	 viewBox="0 0 16 16" style="enable-background:new 0 0 16 16;" xml:space="preserve">
<style type="text/css">
	.Black{fill:#727272;}
	.White{fill:#FFFFFF;}
</style>
<path class="Black" d="M15,3H1C0.5,3,0,3.5,0,4v9c0,0.5,0.5,1,1,1h14c0.5,0,1-0.5,1-1V4C16,3.5,15.5,3,15,3z M15,13H1V4h14V13z"/>
<rect x="1" y="4" class="White" width="14" height="9"/>
<path class="Black" d="M7,12H6.1v-0.6C6,11.6,5.6,12,4.8,12c-0.8,0-1.3-0.5-1.3-1.4c0-2.1,2.6-1.5,2.6-1.5V8.8c0-0.1,0-0.8-0.8-0.8
	C4.9,8,4.2,8.4,3.9,8.4c-0.4,0-0.2-0.9-0.1-1S4.5,7,5.3,7C6.4,7,7,7.8,7,8.7V12z M6,9.8H5.6c-1,0-1,0.6-1,0.7
	c0,0.6,0.4,0.6,0.6,0.6c0.6,0,0.8-0.4,0.9-0.5V9.8z"/>
<path class="Black" d="M12,9.5c0,0.4,0.1,2.5-1.5,2.5c-0.7,0-1.3-0.5-1.5-0.7V12H8V5h1v2.8C9.5,6.9,10.3,7,10.5,7
	C12,7,12,8.9,12,9.5z M11,9.5C11,8.2,10.5,8,10,8c-1.1,0-1,1.5-1,1.5c0,0.3,0,1.5,1,1.5C11,11,11,9.7,11,9.5z"/>
</svg>
