<?xml version="1.0" encoding="utf-8"?>
<!-- Generator: Adobe Illustrator 20.1.0, SVG Export Plug-In . SVG Version: 6.00 Build 0)  -->
<svg version="1.1" id="Layer_1" xmlns="http://www.w3.org/2000/svg" xmlns:xlink="http://www.w3.org/1999/xlink" x="0px" y="0px"
	 viewBox="0 0 16 16" style="enable-background:new 0 0 16 16;" xml:space="preserve">
<style type="text/css">
	.Black{fill:#727272;}
	.White{fill:#FFFFFF;}
</style>
<path class="Black" d="M15,3H1C0.5,3,0,3.5,0,4v9c0,0.5,0.5,1,1,1h14c0.5,0,1-0.5,1-1V4C16,3.5,15.5,3,15,3z M15,13H1V4h14V13z"/>
<rect x="1" y="4" class="White" width="14" height="9"/>
<path class="Black" d="M12,10v1H9c0-0.3,0.1-0.7,0.3-1s0.5-0.7,1-1.3c0.6-0.6,0.9-1,0.9-1.4c0-0.6-0.4-0.7-0.6-0.7
	c-0.6,0-0.7,0.6-0.8,0.9L9,7.4C9.1,6.9,9.3,6,10.6,6C11.7,6,12,6.6,12,7.3c0,1-1.5,2.3-1.6,2.7C10.4,10,12,10,12,10z"/>
<path class="Black" d="M6,11H5.1V7.4C4.8,7.7,4.4,8,4,8.1V7.3c0.2-0.1,1.2-1,1.3-1.3H6V11z"/>
<polygon class="Black" points="7,10 7,11 7.5,11 8,12 8,11 8,10 "/>
</svg>
