<?xml version="1.0" encoding="utf-8"?>
<!-- Generator: Adobe Illustrator 20.1.0, SVG Export Plug-In . SVG Version: 6.00 Build 0)  -->
<svg version="1.1" id="Layer_1" xmlns="http://www.w3.org/2000/svg" xmlns:xlink="http://www.w3.org/1999/xlink" x="0px" y="0px"
	 viewBox="0 0 16 16" style="enable-background:new 0 0 16 16;" xml:space="preserve">
<style type="text/css">
	.White{fill:#FFFFFF;}
	.Black{fill:#727272;}
</style>
<path class="Black" d="M15,3H1C0.5,3,0,3.5,0,4v9c0,0.5,0.5,1,1,1h14c0.5,0,1-0.5,1-1V4C16,3.5,15.5,3,15,3z M15,13H1V4h14V13z"/>
<rect x="1" y="4" class="White" width="14" height="9"/>
<path class="Black" d="M5,11V6h1v5H5z"/>
<path class="Black" d="M11,10.9h-1v-0.5C9.8,10.6,9.6,11,8.7,11C7.2,11,7,9.7,7,9.1c0-0.6,0.4-1.9,1.7-1.9c0.5,0,0.9,0.2,1.2,0.5
	V6H11V10.9z M8.1,9.1c0,0.4,0.1,1.2,0.9,1.2c0.8,0,0.9-0.8,0.9-1.1C9.9,8.8,9.8,8,9,8C8.3,8,8.1,8.7,8.1,9.1z"/>
</svg>
