<?xml version="1.0" encoding="utf-8"?>
<!-- Generator: Adobe Illustrator 20.1.0, SVG Export Plug-In . SVG Version: 6.00 Build 0)  -->
<svg version="1.1" id="Layer_1" xmlns="http://www.w3.org/2000/svg" xmlns:xlink="http://www.w3.org/1999/xlink" x="0px" y="0px"
	 viewBox="0 0 16 16" style="enable-background:new 0 0 16 16;" xml:space="preserve">
<style type="text/css">
	.Black{fill:#727272;}
	.White{fill:#FFFFFF;}
</style>
<path class="Black" d="M15,3H1C0.5,3,0,3.5,0,4v9c0,0.5,0.5,1,1,1h14c0.5,0,1-0.5,1-1V4C16,3.5,15.5,3,15,3z M15,13H1V4h14V13z"/>
<rect x="1" y="4" class="White" width="14" height="9"/>
<path class="Black" d="M10,9.6l0.8-0.1c0,0.2,0.1,0.7,0.6,0.7c0.2,0,0.7,0,0.7-0.8c0-0.2,0-0.8-0.6-0.8c-0.1,0-0.2,0-0.4,0.1
	l0.1-0.8c0.2,0,0.7-0.1,0.7-0.7c0-0.2,0-0.5-0.5-0.5c-0.5,0-0.6,0.5-0.6,0.7L10,7.3C10.1,7,10.2,6,11.5,6c0.4,0,1.3,0,1.3,1.2
	c0,0.4-0.2,0.8-0.6,1c0.3,0.1,0.8,0.2,0.8,1.2c0,0.4-0.1,0.8-0.4,1.1S11.9,11,11.5,11C10.1,11,10,10,10,9.6z"/>
<path class="Black" d="M9,11H6c0-0.3,0.1-0.7,0.3-1c0.2-0.3,0.5-0.7,1-1.2C7.6,8.5,7.9,8.2,8,8c0.1-0.2,0.5-1.2-0.4-1.2
	C7.4,6.8,7.2,6.9,7.1,7C7,7.1,7,7.3,7,7.6L6.1,7.5C6.2,7,6.2,6,7.6,6C9.1,6,9,7,9,7.4c0,0.8-0.7,1.6-1,1.9c-0.3,0.3-0.6,0.8-0.7,0.9
	H9V11z"/>
<path class="Black" d="M5,11H4.1V7.4C3.8,7.7,3.4,8,3,8.1V7.3c0.2-0.1,1.2-1,1.3-1.3H5V11z"/>
</svg>
