<?xml version="1.0" encoding="utf-8"?>
<!-- Generator: Adobe Illustrator 20.1.0, SVG Export Plug-In . SVG Version: 6.00 Build 0)  -->
<svg version="1.1" id="Layer_1" xmlns="http://www.w3.org/2000/svg" xmlns:xlink="http://www.w3.org/1999/xlink" x="0px" y="0px"
	 viewBox="0 0 16 16" style="enable-background:new 0 0 16 16;" xml:space="preserve">
<style type="text/css">
	.Black{fill:#727272;}
	.White{fill:#FFFFFF;}
</style>
<path class="Black" d="M15,3H1C0.5,3,0,3.5,0,4v9c0,0.5,0.5,1,1,1h14c0.5,0,1-0.5,1-1V4C16,3.5,15.5,3,15,3z M15,13H1V4h14V13z"/>
<rect x="1" y="4" class="White" width="14" height="9"/>
<path class="Black" d="M6,7h0.8V6.6c0-0.4,0-1.6,1.4-1.6c0.3,0,0.7,0.1,1,0.2L9,6.1C8.8,6,8.7,6,8.5,6C8,6.1,8,6.4,8,6.7V7h1v1H8v4
	H6.8V8H6V7z"/>
</svg>
