<?xml version="1.0" encoding="utf-8"?>
<!-- Generator: Adobe Illustrator 21.1.0, SVG Export Plug-In . SVG Version: 6.00 Build 0)  -->
<svg version="1.1" id="ClearTableStyle" xmlns="http://www.w3.org/2000/svg" xmlns:xlink="http://www.w3.org/1999/xlink" x="0px"
	 y="0px" viewBox="0 0 32 32" style="enable-background:new 0 0 32 32;" xml:space="preserve">
<style type="text/css">
	.Blue{fill:#1177D7;}
	.Black{fill:#727272;}
	.Red{fill:#D11C1C;}
	.st0{opacity:0.5;}
</style>
<g class="st0">
	<path class="Black" d="M28,10h-8V4h8V10z M24.6,14.9c0.6-0.6,1.4-0.9,2.2-0.9c0.4,0,0.8,0.1,1.2,0.2V12h-8v6h1.5L24.6,14.9z M0,26
		h8v-6H0V26z M14.9,24.6l3.1-3.1V20h-8v6h4.1C14.3,25.5,14.5,25,14.9,24.6z"/>
</g>
<path class="Blue" d="M0,4h8v6H0V4z M0,18h8v-6H0V18z M10,10h8V4h-8V10z M10,18h8v-6h-8V18z M19,23.3L16.3,26
	c-0.4,0.4-0.4,1.2,0,1.6l4,4c0.4,0.4,1.2,0.4,1.6,0l2.7-2.7L19,23.3z"/>
<path class="Red" d="M31.7,20.4l-4-4c-0.4-0.4-1.2-0.4-1.6,0l-6.1,6.1l5.6,5.6l6.1-6.1C32.1,21.5,32.1,20.8,31.7,20.4z"/>
</svg>
