<?xml version="1.0" encoding="utf-8"?>
<!-- Generator: Adobe Illustrator 21.1.0, SVG Export Plug-In . SVG Version: 6.00 Build 0)  -->
<svg version="1.1" id="Layer_1" xmlns="http://www.w3.org/2000/svg" xmlns:xlink="http://www.w3.org/1999/xlink" x="0px" y="0px"
	 viewBox="0 0 32 32" style="enable-background:new 0 0 32 32;" xml:space="preserve">
<style type="text/css">
	.Black{fill:#727272;}
	.Yellow{fill:#FFB115;}
	.Blue{fill:#1177D7;}
	.Green{fill:#039C23;}
	.Red{fill:#D11C1C;}
	.White{fill:#FFFFFF;}
	.st0{opacity:0.75;}
	.st1{opacity:0.5;}
	.st2{opacity:0.25;}
</style>
<g id="Datasource">
	<path class="Black" d="M6,6h12v2H6V6z M14,24H4V2h16v10.2c0.6-0.1,1.3-0.2,2-0.2V1c0-0.5-0.5-1-1-1H3C2.5,0,2,0.5,2,1v24
		c0,0.5,0.5,1,1,1h11V24z M6,20h8v-2H6V20z M6,16h8.2c0.2-0.8,0.7-1.4,1.5-2H6V16z"/>
	<path class="Yellow" d="M18,12H6v-2h12V12z M23,14c-3.9,0-7,1.3-7,3v12c0,1.7,3.1,3,7,3s7-1.3,7-3V17C30,15.3,26.9,14,23,14z"/>
</g>
</svg>
