<?xml version="1.0" encoding="utf-8"?>
<!-- Generator: Adobe Illustrator 20.1.0, SVG Export Plug-In . SVG Version: 6.00 Build 0)  -->
<svg version="1.1" id="Layer_1" xmlns="http://www.w3.org/2000/svg" xmlns:xlink="http://www.w3.org/1999/xlink" x="0px" y="0px"
	 viewBox="0 0 16 16" style="enable-background:new 0 0 16 16;" xml:space="preserve">
<style type="text/css">
	.Black{fill:#727272;}
	.Yellow{fill:#FFB115;}
	.White{fill:#FFFFFF;}
	.Green{fill:#039C23;}
	.st0{opacity:0.6;}
	.st1{opacity:0.5;}
</style>
<path class="Black" d="M15,1H1C0.5,1,0,1.5,0,2v11c0,0.5,0.5,1,1,1h14c0.5,0,1-0.5,1-1V2C16,1.5,15.5,1,15,1z M15,13H1V2h14V13z"/>
<path class="Green" d="M0,5V2c0-0.5,0.5-1,1-1h14c0.6,0,1,0.5,1,1v3H0z"/>
<g id="Layer_2" class="st0">
	<rect x="1" y="2" class="White" width="14" height="2"/>
</g>
<rect x="1" y="5" class="White" width="14" height="8"/>
<g id="Layer_3" class="st0">
	<path class="Black" d="M15,8V7h-3V5h-1v2H5V5H4v2H1v1h3v2H1v1h3v2h1v-2h6v2h1v-2h3v-1h-3V8H15z M11,10H5V8h6V10z"/>
</g>
<rect x="5" y="5" class="Yellow" width="6" height="2"/>
<rect x="5" y="8" class="Yellow"   width="6" height="2"/>
<rect x="5" y="11" class="Yellow" width="6" height="2"/>
<path class="Black" d="M11,5v2H5V5H4v8h1v-2h6v2h1V8V7V5H11z M11,10H5V8h6V10z"/>
</svg>
