<?xml version="1.0" encoding="utf-8"?>
<!-- Generator: Adobe Illustrator 20.1.0, SVG Export Plug-In . SVG Version: 6.00 Build 0)  -->
<svg version="1.1" id="Layer_1" xmlns="http://www.w3.org/2000/svg" xmlns:xlink="http://www.w3.org/1999/xlink" x="0px" y="0px"
	 viewBox="0 0 16 16" style="enable-background:new 0 0 16 16;" xml:space="preserve">
<style type="text/css">
	.Black{fill:#727272;}
	.White{fill:#FFFFFF;}
	.Green{fill:#039C23;}
	.st0{opacity:0.6;}
	.st1{opacity:0.5;}
	.st2{opacity:0.8;}
</style>
<path class="Black" d="M15,1H1C0.5,1,0,1.5,0,2v12c0,0.5,0.5,1,1,1h14c0.5,0,1-0.5,1-1V2C16,1.5,15.5,1,15,1z M15,14H1V2h14V14z"/>
<path class="Green" d="M0,5V2c0-0.5,0.5-1,1-1h14c0.6,0,1,0.5,1,1v3H0z"/>
<g id="Layer_2" class="st0">
	<rect x="1" y="2" class="White" width="14" height="2"/>
</g>
<rect x="1" y="5" class="White" width="14" height="9"/>
<g id="Layer_4" transform="translate(-1,1)" class="st2">
	<path class="Black" d="M10,7H4C3.5,7,3,7.5,3,8v3c0,0.5,0.5,1,1,1h6c0.5,0,1-0.5,1-1V8C11,7.5,10.5,7,10,7z M10,11H4v-1h6V11z M10,9
		H4V8h6V9z"/>
	<path class="Black" d="M14,5H8C7.5,5,7,5.5,7,6h1h1h5v1h-2v1h2v1h-2v1h2c0.5,0,1-0.5,1-1V6C15,5.5,14.5,5,14,5z"/>
</g>
</svg>
