<?xml version="1.0" encoding="utf-8"?>
<!-- Generator: Adobe Illustrator 20.1.0, SVG Export Plug-In . SVG Version: 6.00 Build 0)  -->
<svg version="1.1" id="Layer_1" xmlns="http://www.w3.org/2000/svg" xmlns:xlink="http://www.w3.org/1999/xlink" x="0px" y="0px"
	 viewBox="0 0 16 16" style="enable-background:new 0 0 16 16;" xml:space="preserve">
<style type="text/css">
	.Black{fill:#727272;}
	.Green{fill:#039C23;}
	.White{fill:#FFFFFF;}
	.st0{opacity:0.6;}
	.st1{opacity:0.5;}
</style>
<path class="Black" d="M15,1H1C0.5,1,0,1.5,0,2v12c0,0.5,0.5,1,1,1h14c0.5,0,1-0.5,1-1V2C16,1.5,15.5,1,15,1z M15,14H1V2h14V14z"/>
<path class="Green" d="M0,5V2c0-0.5,0.5-1,1-1h14c0.6,0,1,0.5,1,1v3H0z"/>
<g id="Layer_2" class="st0">
	<rect x="1" y="2" class="White" width="14" height="2"/>
</g>
<rect x="1" y="5" class="White" width="14" height="9"/>
<path class="Black" d="M12,11v1H9c0-0.3,0.1-0.7,0.3-1s0.5-0.7,1-1.3c0.6-0.6,0.9-1,0.9-1.4c0-0.6-0.4-0.7-0.6-0.7
	c-0.6,0-0.7,0.6-0.8,0.9L9,8.4C9.1,7.9,9.3,7,10.6,7C11.7,7,12,7.6,12,8.3c0,1-1.5,2.3-1.6,2.7C10.4,11,12,11,12,11z"/>
<path class="Black" d="M6,12H5.1V8.4C4.8,8.7,4.4,9,4,9.1V8.3c0.2-0.1,1.2-1,1.3-1.3H6V12z"/>
<polygon class="Black" points="7,11 7,12 7.5,12 8,13 8,12 8,11 "/>
</svg>
