<?xml version="1.0" encoding="utf-8"?>
<!-- Generator: Adobe Illustrator 21.1.0, SVG Export Plug-In . SVG Version: 6.00 Build 0)  -->
<svg version="1.1" id="Layer_1" xmlns="http://www.w3.org/2000/svg" xmlns:xlink="http://www.w3.org/1999/xlink" x="0px" y="0px"
	 viewBox="0 0 32 32" style="enable-background:new 0 0 32 32;" xml:space="preserve">
<style type="text/css">
	.Black{fill:#727272;}
	.Yellow{fill:#FFB115;}
	.Blue{fill:#1177D7;}
	.Green{fill:#039C23;}
	.Red{fill:#D11C1C;}
	.White{fill:#FFFFFF;}
	.st0{opacity:0.75;}
	.st1{opacity:0.5;}
	.st2{opacity:0.25;}
</style>
<g id="GroupHeader">
	<path class="Black" d="M25,2H5C4.5,2,4,2.5,4,3v24c0,0.5,0.5,1,1,1h20c0.5,0,1-0.5,1-1V3C26,2.5,25.5,2,25,2z M24,26H6V4h18V26z"/>
	<rect x="8" y="6" class="Blue" width="14" height="6"/>
	<g class="st0">
		<path class="Black" d="M22,16H8v-2h14V16z M22,18H8v2h14V18z M22,22H8v2h14V22z"/>
	</g>
</g>
</svg>
