<?xml version="1.0" encoding="utf-8"?>
<!-- Generator: Adobe Illustrator 21.1.0, SVG Export Plug-In . SVG Version: 6.00 Build 0)  -->
<svg version="1.1" id="Layer_1" xmlns="http://www.w3.org/2000/svg" xmlns:xlink="http://www.w3.org/1999/xlink" x="0px" y="0px"
	 viewBox="0 0 32 32" style="enable-background:new 0 0 32 32;" xml:space="preserve">
<style type="text/css">
	.Black{fill:#727272;}
	.Yellow{fill:#FFB115;}
	.Blue{fill:#1177D7;}
	.Green{fill:#039C23;}
	.Red{fill:#D11C1C;}
	.White{fill:#FFFFFF;}
	.st0{opacity:0.75;}
	.st1{opacity:0.5;}
	.st2{opacity:0.25;}
</style>
<g id="GroupByField_1_">
	<path class="Blue" d="M19,14H3c-0.5,0-1-0.4-1-1V5c0-0.6,0.5-1,1-1h16c0.5,0,1,0.4,1,1v8C20,13.6,19.5,14,19,14z M30,25v-8
		c0-0.5-0.5-1-1-1H13c-0.6,0-1,0.5-1,1v8c0,0.5,0.4,1,1,1h16C29.5,26,30,25.5,30,25z"/>
</g>
</svg>
