<?xml version="1.0" encoding="utf-8"?>
<!-- Generator: Adobe Illustrator 21.1.0, SVG Export Plug-In . SVG Version: 6.00 Build 0)  -->
<svg version="1.1" id="Layer_1" xmlns="http://www.w3.org/2000/svg" xmlns:xlink="http://www.w3.org/1999/xlink" x="0px" y="0px"
	 viewBox="0 0 32 32" style="enable-background:new 0 0 32 32;" xml:space="preserve">
<style type="text/css">
	.Black{fill:#727272;}
	.Yellow{fill:#FFB115;}
	.Blue{fill:#1177D7;}
	.Green{fill:#039C23;}
	.Red{fill:#D11C1C;}
	.White{fill:#FFFFFF;}
	.st0{opacity:0.75;}
	.st1{opacity:0.5;}
	.st2{opacity:0.25;}
</style>
<g id="GroupFieldCollection">
	<path class="Blue" d="M21,12H5c-0.6,0-1-0.4-1-1V3c0-0.5,0.4-1,1-1h16c0.5,0,1,0.5,1,1v8C22,11.6,21.5,12,21,12z M31,14H15
		c-0.5,0-1,0.5-1,1v0.9c0.1,0.1,0.2,0.1,0.3,0.2l1.6,1.6c0.7,0.7,0.8,1.8,0.2,2.6l-0.4,0.6l0.7,0.2c0.9,0.2,1.6,1,1.6,2v1h13
		c0.5,0,1-0.5,1-1v-8C32,14.5,31.5,14,31,14z"/>
	<path class="Black" d="M16,25v-2l-2.5-0.6c-0.1-0.4-0.3-0.8-0.5-1.2l1.5-2.1l-1.6-1.6L10.8,19c-0.4-0.2-0.8-0.4-1.2-0.5L9,16H7
		l-0.6,2.5C6,18.6,5.6,18.8,5.2,19l-2.1-1.5l-1.6,1.6L3,21.2c-0.2,0.4-0.4,0.8-0.5,1.2L0,23v2l2.5,0.6C2.6,26,2.8,26.4,3,26.8
		l-1.5,2.1l1.6,1.6L5.2,29c0.4,0.2,0.8,0.4,1.2,0.5L7,32h2l0.6-2.5c0.4-0.1,0.8-0.3,1.2-0.5l2.1,1.5l1.6-1.6L13,26.8
		c0.2-0.4,0.4-0.8,0.5-1.2L16,25z M8,26c-1.1,0-2-0.9-2-2c0-1.1,0.9-2,2-2c1.1,0,2,0.9,2,2C10,25.1,9.1,26,8,26z"/>
</g>
</svg>
