<?xml version="1.0" encoding="utf-8"?>
<!-- Generator: Adobe Illustrator 21.1.0, SVG Export Plug-In . SVG Version: 6.00 Build 0)  -->
<svg version="1.1" id="Layer_1" xmlns="http://www.w3.org/2000/svg" xmlns:xlink="http://www.w3.org/1999/xlink" x="0px" y="0px"
	 viewBox="0 0 32 32" style="enable-background:new 0 0 32 32;" xml:space="preserve">
<style type="text/css">
	.Black{fill:#727272;}
	.Yellow{fill:#FFB115;}
	.Blue{fill:#1177D7;}
	.Green{fill:#039C23;}
	.Red{fill:#D11C1C;}
	.White{fill:#FFFFFF;}
	.st0{opacity:0.75;}
	.st1{opacity:0.5;}
	.st2{opacity:0.25;}
</style>
<g id="AddGroupHeader_1_">
	<rect x="4" y="8" class="Blue" width="14" height="6"/>
	<g class="st0">
		<path class="Black" d="M18,18H4v-2h14V18z M18,20H4v2h14V20z M18,24H4v2h14V24z"/>
	</g>
	<path class="Black" d="M20,14v14H2V6h16h2h2V5c0-0.5-0.5-1-1-1H1C0.5,4,0,4.5,0,5v24c0,0.5,0.5,1,1,1h20c0.5,0,1-0.5,1-1V18v-4H20z
		"/>
	<polygon class="Green" points="32,8 28,8 28,4 24,4 24,8 20,8 20,12 24,12 24,16 28,16 28,12 32,12 	"/>
</g>
</svg>
