<?xml version="1.0" encoding="utf-8"?>
<!-- Generator: Adobe Illustrator 20.1.0, SVG Export Plug-In . SVG Version: 6.00 Build 0)  -->
<svg version="1.1" id="Layer_1" xmlns="http://www.w3.org/2000/svg" xmlns:xlink="http://www.w3.org/1999/xlink" x="0px" y="0px"
	 viewBox="0 0 16 16" style="enable-background:new 0 0 16 16;" xml:space="preserve">
<style type="text/css">
	.Black{fill:#727272;}
	.White{fill:#FFFFFF;}
	.Green{fill:#039C23;}
	.st0{opacity:0.6;}
	.st1{opacity:0.5;}
</style>
<path class="Black" d="M15,1H1C0.5,1,0,1.5,0,2v12c0,0.5,0.5,1,1,1h14c0.5,0,1-0.5,1-1V2C16,1.5,15.5,1,15,1z M15,14H1V2h14V14z"/>
<path class="Green" d="M0,5V2c0-0.5,0.5-1,1-1h14c0.6,0,1,0.5,1,1v3H0z"/>
<g id="Layer_2" class="st0">
	<rect x="1" y="2" class="White" width="14" height="2"/>
</g>
<rect x="1" y="5" class="White" width="14" height="9"/>
<path class="Black" d="M10,10.6l0.8-0.1c0,0.2,0.1,0.7,0.6,0.7c0.2,0,0.7,0,0.7-0.8c0-0.2,0-0.8-0.6-0.8c-0.1,0-0.2,0-0.4,0.1
	l0.1-0.8c0.2,0,0.7-0.1,0.7-0.7c0-0.2,0-0.5-0.5-0.5s-0.6,0.5-0.6,0.7L10,8.3C10.1,8,10.2,7,11.5,7c0.4,0,1.3,0,1.3,1.2
	c0,0.4-0.2,0.8-0.6,1c0.3,0.1,0.8,0.2,0.8,1.2c0,0.4-0.1,0.8-0.4,1.1S11.9,12,11.5,12C10.1,12,10,11,10,10.6z"/>
<path class="Black" d="M9,12H6c0-0.3,0.1-0.7,0.3-1c0.2-0.3,0.5-0.7,1-1.2C7.6,9.5,7.9,9.2,8,9c0.1-0.2,0.5-1.2-0.4-1.2
	C7.4,7.8,7.2,7.9,7.1,8C7,8.1,7,8.3,7,8.6L6.1,8.5C6.2,8,6.2,7,7.6,7C9.1,7,9,8,9,8.4c0,0.8-0.7,1.6-1,1.9c-0.3,0.3-0.6,0.8-0.7,0.9
	H9V12z"/>
<path class="Black" d="M5,12H4.1V8.4C3.8,8.7,3.4,9,3,9.1V8.3c0.2-0.1,1.2-1,1.3-1.3H5V12z"/>
</svg>
