<?xml version="1.0" encoding="utf-8"?>
<!-- Generator: Adobe Illustrator 20.1.0, SVG Export Plug-In . SVG Version: 6.00 Build 0)  -->
<svg version="1.1" id="Layer_1" xmlns="http://www.w3.org/2000/svg" xmlns:xlink="http://www.w3.org/1999/xlink" x="0px" y="0px"
	 viewBox="0 0 16 16" style="enable-background:new 0 0 16 16;" xml:space="preserve">
<style type="text/css">
	.Black{fill:#727272;}
	.Red{fill:#D11C1C;}
	.Yellow{fill:#FFB115;}
	.White{fill:#FFFFFF;}
	.st0{opacity:0.8;}
</style>
<g id="Layer_1">
	<path class="Black" d="M15,2H1C0.5,2,0,2.5,0,3v10c0,0.5,0.5,1,1,1h14c0.5,0,1-0.5,1-1V3C16,2.5,15.5,2,15,2z M15,13H1V3h14V13z"/>
	<rect x="1" y="3" class="White" width="14" height="10"/>
</g>
<path class="Red" d="M8,4C6.3,4,5,4.7,5,5.5v5C5,11.3,6.3,12,8,12s3-0.7,3-1.5v-5C11,4.7,9.7,4,8,4z"/>
<g id="Layer_2" class="st0">
	<path class="Yellow" d="M8,4C6.3,4,5,4.7,5,5.5v5C5,11.3,6.3,12,8,12s3-0.7,3-1.5v-5C11,4.7,9.7,4,8,4z"/>
</g>
<ellipse class="White" cx="8" cy="6" rx="2" ry="1"/>

</svg>
