<?xml version="1.0" encoding="utf-8"?>
<!-- Generator: Adobe Illustrator 20.1.0, SVG Export Plug-In . SVG Version: 6.00 Build 0)  -->
<svg version="1.1" id="Layer_1" xmlns="http://www.w3.org/2000/svg" xmlns:xlink="http://www.w3.org/1999/xlink" x="0px" y="0px"
	 viewBox="0 0 16 16" style="enable-background:new 0 0 16 16;" xml:space="preserve">
<style type="text/css">
	.Black{fill:#727272;}
	.White{fill:#FFFFFF;}
	.Red{fill:#D11C1C;}
	.Yellow{fill:#FFB115;}
	.st0{opacity:0.6;}
	.st1{opacity:0.5;}
</style>
<path class="Black" d="M15,1H1C0.5,1,0,1.5,0,2v12c0,0.5,0.5,1,1,1h14c0.5,0,1-0.5,1-1V2C16,1.5,15.5,1,15,1z M15,14H1V2h14V14z"/>
<path class="Red" d="M0,5V2c0-0.5,0.5-1,1-1h14c0.6,0,1,0.5,1,1v3H0z"/>
<g id="Layer_1" class="st1">
	<path class="Yellow" d="M0,5V2c0-0.5,0.5-1,1-1h14c0.6,0,1,0.5,1,1v3H0z"/>
</g>
<g id="Layer_2" class="st0">
	<rect x="1" y="2" class="White" width="14" height="2"/>
</g>
<rect x="1" y="5" class="White" width="14" height="9"/>
<circle class="Black" cx="7.5" cy="12.5" r="0.5"/>
<path class="Black" d="M7,10.8V9.6c0-0.4,0.2-0.7,0.6-0.9l1.3-0.7C8.9,8,9,7.9,9,7.8V7.7C9,7.3,8.7,7,8.3,7H7.7C7.3,7,7,7.3,7,7.7v0
	C7,7.9,7,8,7,8H6c0,0,0-0.1,0-0.2v0C6,6.8,6.8,6,7.7,6h0.5c1,0,1.8,0.8,1.8,1.8v0.1c0,0.4-0.2,0.7-0.6,0.9L8.6,9.2
	C8.2,9.4,8,9.7,8,10.1v0.6C8,10.9,8,11,8,11H7C7,11,7,10.9,7,10.8z"/>
</svg>
