<?xml version="1.0" encoding="utf-8"?>
<!-- Generator: Adobe Illustrator 21.1.0, SVG Export Plug-In . SVG Version: 6.00 Build 0)  -->
<svg version="1.1" id="Layer_1" xmlns="http://www.w3.org/2000/svg" xmlns:xlink="http://www.w3.org/1999/xlink" x="0px" y="0px"
	 viewBox="0 0 32 32" style="enable-background:new 0 0 32 32;" xml:space="preserve">
<style type="text/css">
	.Black{fill:#727272;}
	.Yellow{fill:#FFB115;}
	.Blue{fill:#1177D7;}
	.Green{fill:#039C23;}
	.Red{fill:#D11C1C;}
	.White{fill:#FFFFFF;}
	.st0{opacity:0.75;}
	.st1{opacity:0.5;}
	.st2{opacity:0.25;}
</style>
<g id="AddNewDataSource">
	<path class="Yellow" d="M4,10V6c0-2.2,4.5-4,10-4s10,1.8,10,4v4c0,2.2-4.5,4-10,4S4,12.2,4,10z M14,20c3.3,0,6.2-0.6,8-1.6V16h2v-4
		c0,2.2-4.5,4-10,4S4,14.2,4,12v4C4,18.2,8.5,20,14,20z M18,21.7c-1.2,0.2-2.6,0.3-4,0.3c-5.5,0-10-1.8-10-4v4c0,2.2,4.5,4,10,4
		c1.4,0,2.8-0.1,4-0.3V21.7z"/>
	<polygon class="Green" points="32,22 28,22 28,18 24,18 24,22 20,22 20,26 24,26 24,30 28,30 28,26 32,26 	"/>
</g>
</svg>
