<?xml version="1.0" encoding="utf-8"?>
<!-- Generator: Adobe Illustrator 20.1.0, SVG Export Plug-In . SVG Version: 6.00 Build 0)  -->
<svg version="1.1" xmlns="http://www.w3.org/2000/svg" xmlns:xlink="http://www.w3.org/1999/xlink" x="0px" y="0px"
	 viewBox="0 0 16 16" style="enable-background:new 0 0 16 16;" xml:space="preserve">
<style type="text/css">
	.Black{fill:#727272;}
	.White{fill:#FFFFFF;}
	.Red{fill:#D11C1C;}
</style>
<path class="Black" d="M15,3H1C0.5,3,0,3.5,0,4v9c0,0.5,0.5,1,1,1h14c0.5,0,1-0.5,1-1V4C16,3.5,15.5,3,15,3z M15,13H1V4h14V13z"/>
<rect x="1" y="4" class="White" width="14" height="9"/>
<polygon class="Red" points="11,6.5 10,5.5 8,7.5 6,5.5 5,6.5 7,8.5 5,10.5 6,11.5 8,9.5 10,11.5 11,10.5 9,8.5 	"/>
</svg>
