<?xml version="1.0" encoding="utf-8"?>
<!-- Generator: Adobe Illustrator 21.1.0, SVG Export Plug-In . SVG Version: 6.00 Build 0)  -->
<svg version="1.1" id="Layer_1" xmlns="http://www.w3.org/2000/svg" xmlns:xlink="http://www.w3.org/1999/xlink" x="0px" y="0px"
	 viewBox="0 0 32 32" style="enable-background:new 0 0 32 32;" xml:space="preserve">
<style type="text/css">
	.Black{fill:#727272;}
	.Yellow{fill:#FFB115;}
	.Blue{fill:#1177D7;}
	.Green{fill:#039C23;}
	.Red{fill:#D11C1C;}
	.White{fill:#FFFFFF;}
	.st0{opacity:0.75;}
	.st1{opacity:0.5;}
	.st2{opacity:0.25;}
</style>
<g id="AddGroupHeader">
	<rect x="6" y="8" class="Blue" width="14" height="6"/>
	<g class="st0">
		<path class="Black" d="M20,18H6v-2h14V18z M20,20H6v2h14V20z M20,24H6v2h14V24z"/>
	</g>
	<path class="Black" d="M22,28H4V6h16h2h0.2l1.6-1.6C23.6,4.2,23.3,4,23,4H3C2.5,4,2,4.5,2,5v24c0,0.5,0.5,1,1,1h20c0.5,0,1-0.5,1-1
		v-9.2l-2-2V28z"/>
	<polygon class="Red" points="30,7 27,10 24,7 22,9 25,12 22,15 24,17 27,14 30,17 32,15 29,12 32,9 	"/>
</g>
</svg>
