<?xml version="1.0" encoding="utf-8"?>
<!-- Generator: Adobe Illustrator 21.1.0, SVG Export Plug-In . SVG Version: 6.00 Build 0)  -->
<svg version="1.1" id="Layer_1" xmlns="http://www.w3.org/2000/svg" xmlns:xlink="http://www.w3.org/1999/xlink" x="0px" y="0px"
	 viewBox="0 0 32 32" style="enable-background:new 0 0 32 32;" xml:space="preserve">
<style type="text/css">
	.Black{fill:#727272;}
	.Yellow{fill:#FFB115;}
	.Blue{fill:#1177D7;}
	.Green{fill:#039C23;}
	.Red{fill:#D11C1C;}
	.White{fill:#FFFFFF;}
	.st0{opacity:0.75;}
	.st1{opacity:0.5;}
	.st2{opacity:0.25;}
</style>
<g id="AddGroupFooter">
	<rect x="6" y="18" class="Blue" width="14" height="6"/>
	<g class="st0">
		<path class="Black" d="M20,8H6V6h14V8z M20,10H6v2h14V10z M20,14H6v2h14V14z"/>
	</g>
	<path class="Black" d="M22.2,26H22h-2H4V4h18v10.2l2-2V3c0-0.5-0.5-1-1-1H3C2.5,2,2,2.5,2,3v24c0,0.5,0.5,1,1,1h20
		c0.3,0,0.6-0.2,0.8-0.4L22.2,26z"/>
	<polygon class="Red" points="30,15 27,18 24,15 22,17 25,20 22,23 24,25 27,22 30,25 32,23 29,20 32,17 	"/>
</g>
</svg>
