<?xml version="1.0" encoding="utf-8"?>
<!-- Generator: Adobe Illustrator 21.1.0, SVG Export Plug-In . SVG Version: 6.00 Build 0)  -->
<svg version="1.1" id="Layer_1" xmlns="http://www.w3.org/2000/svg" xmlns:xlink="http://www.w3.org/1999/xlink" x="0px" y="0px"
	 viewBox="0 0 32 32" style="enable-background:new 0 0 32 32;" xml:space="preserve">
<style type="text/css">
	.Black{fill:#727272;}
	.Yellow{fill:#FFB115;}
	.Blue{fill:#1177D7;}
	.Green{fill:#039C23;}
	.Red{fill:#D11C1C;}
	.White{fill:#FFFFFF;}
	.st0{opacity:0.75;}
	.st1{opacity:0.5;}
	.st2{opacity:0.25;}
</style>
<g id="SnapEmptyTableRowSeparator_1_">
	<path class="Blue" d="M0,10l6,4l-6,4"/>
	<path class="Black" d="M9,12h18c0.5,0,1-0.5,1-1V3c0-0.5-0.5-1-1-1H9C8.5,2,8,2.5,8,3v8C8,11.5,8.5,12,9,12z M10,4h16v6H10V4z
		 M21.2,26H9c-0.5,0-1-0.5-1-1v-8c0-0.5,0.5-1,1-1h18c0.5,0,1,0.5,1,1v2.2l-2,2V18H10v6h9.2L21.2,26z"/>
	<polygon class="Red" points="32,22 30,20 26,24 22,20 20,22 24,26 20,30 22,32 26,28 30,32 32,30 28,26 	"/>
</g>
</svg>
