<?xml version="1.0" encoding="utf-8"?>
<!-- Generator: Adobe Illustrator 21.1.0, SVG Export Plug-In . SVG Version: 6.00 Build 0)  -->
<svg version="1.1" id="Layer_1" xmlns="http://www.w3.org/2000/svg" xmlns:xlink="http://www.w3.org/1999/xlink" x="0px" y="0px"
	 viewBox="0 0 32 32" style="enable-background:new 0 0 32 32;" xml:space="preserve">
<style type="text/css">
	.Black{fill:#727272;}
	.Yellow{fill:#FFB115;}
	.Blue{fill:#1177D7;}
	.Green{fill:#039C23;}
	.Red{fill:#D11C1C;}
	.White{fill:#FFFFFF;}
	.st0{opacity:0.75;}
	.st1{opacity:0.5;}
	.st2{opacity:0.25;}
</style>
<g id="SnapEmptyParagraphSeparator">
	<path class="Black" d="M28,0v4H10V0H8v5c0,0.6,0.4,1,1,1h20c0.6,0,1-0.4,1-1V0H28z M28,32v-4H10v4H8v-5c0-0.6,0.4-1,1-1h20
		c0.6,0,1,0.4,1,1v5H28z"/>
	<path class="Blue" d="M26,8H14c-3.3,0-6,2.7-6,6s2.7,6,6,6v4h4V12h2v12h4V12h2V8z M14,16c-1.1,0-2-0.9-2-2c0-1.1,0.9-2,2-2V16z
		 M0,12l6,4l-6,4"/>
</g>
</svg>
