<?xml version="1.0" encoding="utf-8"?>
<!-- Generator: Adobe Illustrator 21.1.0, SVG Export Plug-In . SVG Version: 6.00 Build 0)  -->
<svg version="1.1" id="Layer_1" xmlns="http://www.w3.org/2000/svg" xmlns:xlink="http://www.w3.org/1999/xlink" x="0px" y="0px"
	 viewBox="0 0 32 32" style="enable-background:new 0 0 32 32;" xml:space="preserve">
<style type="text/css">
	.Black{fill:#727272;}
	.Yellow{fill:#FFB115;}
	.Blue{fill:#1177D7;}
	.Green{fill:#039C23;}
	.Red{fill:#D11C1C;}
	.White{fill:#FFFFFF;}
	.st0{opacity:0.75;}
	.st1{opacity:0.5;}
	.st2{opacity:0.25;}
</style>
<g id="SortDesc">
	<path class="Red" d="M28,28h-0.2h-1.9h-0.1l0-0.1L25.2,26h-4.4l-0.6,1.9l0,0.1h-0.1h-1.9H18l0.1-0.2l3.9-11.7l0-0.1h0.1H24h0.1
		l0,0.1l3.8,11.7L28,28L28,28z M21.4,24h3.2L23,18.7c0,0,0,0,0-0.1c0,0,0,0,0,0.1L21.4,24z"/>
	<path class="Blue" d="M14,24l-5,5l-5-5h4V2h2v22H14z M27.4,14v-0.1v-1.7V12h-0.1h-5.6l5.9-9V2.1V2h-0.1h-8.2H19v0.1v1.7L19,4h0.2
		h5.2l-5.9,9v0.9V14h0.1h8.6H27.4L27.4,14z"/>
</g>
</svg>
