<?xml version="1.0" encoding="utf-8"?>
<!-- Generator: Adobe Illustrator 20.1.0, SVG Export Plug-In . SVG Version: 6.00 Build 0)  -->
<svg version="1.1" id="Layer_1" xmlns="http://www.w3.org/2000/svg" xmlns:xlink="http://www.w3.org/1999/xlink" x="0px" y="0px"
	 viewBox="0 0 16 16" style="enable-background:new 0 0 16 16;" xml:space="preserve">
<style type="text/css">
	.Black{fill:#727272;}
	.Green{fill:#039C23;}
	.White{fill:#FFFFFF;}
	.st0{opacity:0.6;}
	.st1{opacity:0.5;}
</style>
<path class="Black" d="M15,1H1C0.5,1,0,1.5,0,2v12c0,0.5,0.5,1,1,1h14c0.5,0,1-0.5,1-1V2C16,1.5,15.5,1,15,1z M15,14H1V2h14V14z"/>
<path class="Green" d="M0,5V2c0-0.5,0.5-1,1-1h14c0.6,0,1,0.5,1,1v3H0z"/>
<g id="Layer_2" class="st0">
	<rect x="1" y="2" class="White" width="14" height="2"/>
</g>
<rect x="1" y="5" class="White" width="14" height="9"/>
<path class="Black" d="M7,13H6.1v-0.6C6,12.6,5.6,13,4.8,13c-0.8,0-1.3-0.5-1.3-1.4c0-2.1,2.6-1.5,2.6-1.5V9.8c0-0.1,0-0.8-0.8-0.8
	C4.9,9,4.2,9.4,3.9,9.4c-0.4,0-0.2-0.9-0.1-1S4.5,8,5.3,8C6.4,8,7,8.8,7,9.7V13z M6,10.8H5.6c-1,0-1,0.6-1,0.7
	c0,0.6,0.4,0.6,0.6,0.6c0.6,0,0.8-0.4,0.9-0.5V10.8z"/>
<path class="Black" d="M12,10.5c0,0.4,0.1,2.5-1.5,2.5c-0.7,0-1.3-0.5-1.5-0.7V13H8V6h1v2.8C9.5,7.9,10.3,8,10.5,8
	C12,8,12,9.9,12,10.5z M11,10.5C11,9.2,10.5,9,10,9c-1.1,0-1,1.5-1,1.5c0,0.3,0,1.5,1,1.5C11,12,11,10.7,11,10.5z"/>
</svg>
